<svg xmlns="http://www.w3.org/2000/svg" fill="none" viewBox="-1 -1 48 48" height="48" width="48"><g id="suitcase-rolling"><path id="Rectangle 1104" stroke="#000" stroke-linecap="round" stroke-linejoin="round" d="M36.153125 36.43966666666667c-0.15333333333333335 2.450458333333333 -2.0029166666666667 4.336458333333334 -4.453375 4.505125 -2.0508333333333337 0.140875 -4.918166666666666 0.2635416666666667 -8.69975 0.2635416666666667 -3.7815833333333337 0 -6.648916666666667 -0.12266666666666667 -8.69975 -0.2635416666666667 -2.4495 -0.16866666666666666 -4.300041666666667 -2.054666666666667 -4.453375 -4.505125C9.707916666666668 34.22591666666667 9.583333333333334 31.06341666666667 9.583333333333334 26.833333333333336c0 -4.229125000000001 0.12458333333333334 -7.392583333333334 0.2635416666666667 -9.606333333333334 0.15333333333333335 -2.450458333333333 2.0029166666666667 -4.336458333333334 4.453375 -4.505125C16.351083333333335 12.581000000000001 19.218416666666666 12.458333333333334 23 12.458333333333334c3.7815833333333337 0 6.648916666666667 0.12266666666666667 8.69975 0.2635416666666667 2.4495 0.16866666666666666 4.299083333333333 2.054666666666667 4.453375 4.505125 0.13895833333333332 2.21375 0.2635416666666667 5.376250000000001 0.2635416666666667 9.606333333333334 0 4.229125000000001 -0.12458333333333334 7.392583333333334 -0.2635416666666667 9.606333333333334Z" stroke-width="2"></path><path id="Subtract" stroke="#000" stroke-linecap="round" stroke-linejoin="round" d="M29.680541666666667 12.604958333333334a244.52545833333335 244.52545833333335 0 0 0 -0.13799999999999998 -5.947416666666667c-0.06899999999999999 -1.8879166666666667 -1.3244166666666666 -3.4567083333333337 -3.2056250000000004 -3.6359166666666667C25.440875000000002 2.935375 24.334 2.875 23 2.875a35.23791666666667 35.23791666666667 0 0 0 -3.336916666666667 0.146625c-1.8812083333333334 0.17920833333333333 -3.1366250000000004 1.7480000000000002 -3.2065833333333336 3.6359166666666667a244.42004166666666 244.42004166666666 0 0 0 -0.13799999999999998 5.947416666666667" stroke-width="2"></path><path id="Intersect" stroke="#000" stroke-linecap="round" stroke-linejoin="round" d="m36.35916666666667 31.625 -26.718333333333334 0" stroke-width="2"></path><path id="Vector 2685" stroke="#000" stroke-linecap="round" stroke-linejoin="round" d="m15.333333333333334 41.208333333333336 0 2.875" stroke-width="2"></path><path id="Vector 2686" stroke="#000" stroke-linecap="round" stroke-linejoin="round" d="m30.666666666666668 41.208333333333336 0 2.875" stroke-width="2"></path></g></svg>