<svg xmlns="http://www.w3.org/2000/svg" fill="none" viewBox="-1 -1 48 48" height="48" width="48"><g id="file-search"><path id="Subtract" fill-rule="evenodd" stroke="#000" stroke-linecap="round" stroke-linejoin="round" d="M40.25 30.666666666666668a9.543083333333334 9.543083333333334 0 0 1 -1.0685416666666667 4.402583333333334c1.081 0.8970000000000001 2.146666666666667 1.7872916666666667 3.199875 2.7695833333333337 1.10975 1.0369166666666667 1.2467916666666667 2.6057083333333333 0.19741666666666666 3.7020416666666667a30.957041666666665 30.957041666666665 0 0 1 -0.974625 0.9755833333333334c-1.0972916666666668 1.049375 -2.6660833333333334 0.911375 -3.7020416666666667 -0.19741666666666666 -0.9775 -1.0465000000000002 -1.8620416666666668 -2.1054583333333334 -2.753291666666667 -3.1797500000000003A9.542125 9.542125 0 0 1 30.666666666666668 40.25c-5.2928749999999996 0 -9.583333333333334 -4.2904583333333335 -9.583333333333334 -9.583333333333334s4.2904583333333335 -9.583333333333334 9.583333333333334 -9.583333333333334 9.583333333333334 4.2904583333333335 9.583333333333334 9.583333333333334Zm-9.583333333333334 3.8333333333333335a3.8333333333333335 3.8333333333333335 0 1 0 0 -7.666666666666667 3.8333333333333335 3.8333333333333335 0 0 0 0 7.666666666666667Z" clip-rule="evenodd" stroke-width="2"></path><path id="Subtract_2" stroke="#000" stroke-linecap="round" stroke-linejoin="round" d="M20.125 41.208333333333336c-6.003 0 -10.125750000000002 -0.3066666666666667 -12.696 -0.600875 -2.109291666666667 -0.24150000000000002 -3.6895833333333337 -1.8237083333333335 -3.9215 -3.933958333333334C3.200833333333333 33.90391666666667 2.875 29.255041666666667 2.875 22.041666666666668c0 -7.213375 0.3267916666666667 -11.862250000000001 0.6325000000000001 -14.631833333333335 0.23191666666666666 -2.11025 1.81125 -3.6915 3.9215 -3.933958333333334C9.99925 3.1826250000000003 14.122000000000002 2.875 20.125 2.875c1.7882500000000001 0 3.40975 0.026833333333333334 4.872166666666667 0.07283333333333333 0.8145833333333333 0.2549166666666667 3.4298750000000005 1.2975833333333335 7.206666666666666 5.000583333333333 3.5640416666666668 3.494083333333333 4.712125 5.973291666666666 5.0485 6.912458333333333 0.03833333333333334 1.02925 0.06899999999999999 2.143791666666667 0.09008333333333333 3.3474583333333334" stroke-width="2"></path><path id="Intersect" stroke="#000" stroke-linecap="round" stroke-linejoin="round" d="M37.265750000000004 15.293083333333334c-2.0000416666666667 0.29804166666666665 -5.597625000000001 0.06899999999999999 -8.327916666666667 -0.18304166666666669a4.469666666666667 4.469666666666667 0 0 1 -4.052791666666667 -4.035541666666667c-0.25683333333333336 -2.6852500000000004 -0.4849166666666667 -6.196583333333334 -0.1725 -8.134333333333334" stroke-width="2"></path></g></svg>