<svg xmlns="http://www.w3.org/2000/svg" fill="none" viewBox="-1 -1 48 48" height="48" width="48"><g id="ai-edit-robot--change-edit-modify-pencil-write-writing-artificial-intelligence-ai"><path id="Rectangle 62" stroke="#000" stroke-linecap="round" stroke-linejoin="round" d="M42.36025 23.346916666666665c1.6262916666666667 -1.6262916666666667 2.1016250000000003 -4.072916666666667 0.7455833333333334 -5.932083333333334a27.028833333333335 27.028833333333335 0 0 0 -2.7264583333333334 -3.169208333333333 27.039375 27.039375 0 0 0 -3.169208333333333 -2.7264583333333334c-1.8591666666666666 -1.3560416666666668 -4.305791666666667 -0.8816666666666667 -5.932083333333334 0.7455833333333334L11.701250000000002 31.840625000000003c-0.5673333333333334 0.5673333333333334 -0.9410833333333334 1.2956666666666667 -1.0110416666666666 2.0939583333333336 -0.12937500000000002 1.4844583333333334 -0.2645 4.293333333333334 0.011500000000000002 8.265625 0.06325 0.922875 0.79925 1.6579166666666667 1.722125 1.722125 3.97325 0.27599999999999997 6.781166666666667 0.140875 8.265625 0.011500000000000002 0.7982916666666666 -0.06995833333333333 1.5266250000000001 -0.44370833333333337 2.0930000000000004 -1.0110416666666666l19.576833333333337 -19.575875Z" stroke-width="2"></path><path id="Rectangle 63" stroke="#000" stroke-linecap="round" stroke-linejoin="round" d="M38.51445833333334 26.260250000000003s-0.5817083333333334 -2.590375 -4.071000000000001 -6.079666666666667c-3.4883333333333337 -3.4883333333333337 -6.078708333333333 -4.070041666666667 -6.078708333333333 -4.070041666666667" stroke-width="2"></path><path id="Rectangle 64" stroke="#000" stroke-linecap="round" stroke-linejoin="round" d="M21.730208333333334 43.04354166666667s-0.5817083333333334 -2.590375 -4.070041666666667 -6.078708333333333c-3.489291666666667 -3.489291666666667 -6.079666666666667 -4.071000000000001 -6.079666666666667 -4.071000000000001" stroke-width="2"></path><path id="Rectangle 1096" stroke="#000" d="M19.002791666666667 16.613666666666667c-0.12266666666666667 1.6464166666666666 -1.3378333333333332 2.98425 -2.9785000000000004 3.1816666666666666C14.595416666666667 19.966875 12.693125 20.125 10.541666666666668 20.125s-4.052791666666667 -0.15812500000000002 -5.4826250000000005 -0.32966666666666666c-1.6406666666666667 -0.19741666666666666 -2.8558333333333334 -1.5352500000000002 -2.9785000000000004 -3.1816666666666666C1.9942916666666668 15.440666666666665 1.9166666666666667 14.083666666666668 1.9166666666666667 12.9375c0 -4.023083333333334 3.234375 -7.139583333333333 7.257458333333334 -7.180791666666667a136.33058333333335 136.33058333333335 0 0 1 2.7350833333333333 0C15.932291666666668 5.796958333333334 19.166666666666668 8.914416666666666 19.166666666666668 12.9375c0 1.1452083333333334 -0.07666666666666667 2.503166666666667 -0.16387500000000002 3.6761666666666666Z" stroke-width="2"></path><path id="Vector 857" stroke="#000" stroke-linecap="round" stroke-linejoin="round" d="m10.541666666666668 1.9166666666666667 0 3.8333333333333335" stroke-width="2"></path><path id="Vector 858" stroke="#000" stroke-linecap="round" stroke-linejoin="round" d="m7.666666666666667 12.458333333333334 0 0.9583333333333334" stroke-width="2"></path><path id="Vector 859" stroke="#000" stroke-linecap="round" stroke-linejoin="round" d="m13.416666666666668 12.458333333333334 0 0.9583333333333334" stroke-width="2"></path></g></svg>