<svg xmlns="http://www.w3.org/2000/svg" fill="none" viewBox="-1 -1 48 48" height="48" width="48"><g id="star-medal--ribbon-reward-like-social-rating-media"><path id="Subtract" stroke="#000" stroke-linecap="round" stroke-linejoin="round" d="M13.416666666666668 3.8333333333333335s2.875 -0.9583333333333334 9.583333333333334 -0.9583333333333334 9.583333333333334 0.9583333333333334 9.583333333333334 0.9583333333333334M18.059791666666666 13.553708333333335A77.27808333333334 77.27808333333334 0 0 1 23 13.416666666666668c2.0498749999999997 0 3.6665833333333335 0.05366666666666667 4.9402083333333335 0.13704166666666667" stroke-width="2"></path><path id="Ellipse 18" stroke="#000" stroke-linecap="round" stroke-linejoin="round" d="M11.5 31.625a11.5 11.5 0 1 0 23 0 11.5 11.5 0 1 0 -23 0" stroke-width="2"></path><path id="Subtract_2" stroke="#000" stroke-linecap="round" stroke-linejoin="round" d="M21.718708333333336 20.19591666666667C16.614625 11.458791666666668 13.416666666666668 3.8333333333333335 13.416666666666668 3.8333333333333335S6.564583333333333 8.230166666666666 3.4308333333333336 14.959583333333333c-0.38333333333333336 0.8241666666666667 -0.2692916666666667 1.7748333333333335 0.244375 2.52425 1.38575 2.020166666666667 4.457208333333333 6.325 8.338458333333334 10.727583333333335m21.96979166666667 0c3.88125 -4.401625 6.953666666666667 -8.707416666666667 8.339416666666667 -10.727583333333335 0.5136666666666667 -0.7494166666666667 0.6277083333333334 -1.7000833333333334 0.244375 -2.52425C39.43541666666667 8.230166666666666 32.582375000000006 3.8333333333333335 32.582375000000006 3.8333333333333335s-3.197 7.6254583333333334 -8.301083333333334 16.362583333333337" stroke-width="2"></path><path id="Star 4" stroke="#000" stroke-linecap="round" stroke-linejoin="round" d="M21.93625 25.53a1.1979166666666667 1.1979166666666667 0 0 1 2.1275000000000004 0l1.4470833333333335 2.7906666666666666 3.0858333333333334 0.6075833333333334a1.1979166666666667 1.1979166666666667 0 0 1 0.6593333333333333 1.9760833333333332l-2.1926666666666668 2.4389583333333333 0.4015416666666667 3.253541666666667a1.1979166666666667 1.1979166666666667 0 0 1 -1.7240416666666667 1.219L23 36.44733333333333l-2.7408333333333332 1.3685a1.1979166666666667 1.1979166666666667 0 0 1 -1.725 -1.219l0.4025 -3.253541666666667 -2.1926666666666668 -2.4389583333333333a1.1979166666666667 1.1979166666666667 0 0 1 0.6593333333333333 -1.9760833333333332l3.0858333333333334 -0.6075833333333334 1.4470833333333335 -2.791625Z" stroke-width="2"></path></g></svg>