<svg xmlns="http://www.w3.org/2000/svg" fill="none" viewBox="-1 -1 48 48" height="48" width="48"><g id="telescope--science-experiment-star-gazing-sky-night-space-universe-astronomy-astronomy"><path id="Rectangle 1097" stroke="#000" stroke-linejoin="round" d="M17.942875 13.179c-0.21466666666666667 -1.2554166666666668 0.4350833333333334 -2.2904166666666668 1.5620833333333333 -2.8797916666666667 4.0135 -2.095875 9.4875 -4.491708333333333 15.623708333333335 -6.3825 1.7940000000000003 -0.5519999999999999 3.6685 0.36800000000000005 4.2780000000000005 2.142833333333334 0.5587083333333334 1.6291666666666667 1.2870416666666666 3.9387500000000006 2.1064166666666666 6.99775 0.8203333333333334 3.059 1.3445416666666667 5.424166666666667 1.6742083333333335 7.11275 0.359375 1.842875 -0.8040416666666667 3.5765000000000002 -2.6335 3.9952916666666662 -6.259833333333334 1.43175 -12.197666666666667 2.092041666666667 -16.721 2.2837083333333332 -1.2717083333333334 0.05366666666666667 -2.3517500000000005 -0.5175000000000001 -2.7935416666666666 -1.7115833333333335 -0.4063333333333333 -1.0992083333333333 -0.9775 -2.8730833333333337 -1.74225 -5.727 -0.76475 -2.8558333333333334 -1.1576666666666666 -4.676666666666667 -1.354125 -5.831458333333334Z" stroke-width="2"></path><path id="Subtract" stroke="#000" stroke-linejoin="round" d="M18.065541666666668 13.851750000000001c-3.5439166666666666 1.4633749999999999 -7.340833333333333 3.0053333333333336 -10.028 4.027875000000001" stroke-width="2"></path><path id="Subtract_2" stroke="#000" stroke-linejoin="round" d="M10.110416666666667 25.619125c2.8385833333333337 -0.45808333333333334 6.898083333333334 -1.0215833333333335 10.699791666666666 -1.5256666666666667" stroke-width="2"></path><path id="Rectangle 135" stroke="#000" stroke-linejoin="round" d="M7.810416666666668 17.120625c-0.29229166666666667 -0.9564166666666667 -1.1174166666666667 -1.5965833333333332 -2.0977916666666667 -1.3962916666666667a11.118583333333333 11.118583333333333 0 0 0 -1.2860833333333335 0.345c-0.94875 0.31625000000000003 -1.3435833333333334 1.2832083333333333 -1.1183750000000001 2.257833333333333a142.56166666666667 142.56166666666667 0 0 0 1.17875 4.65175c0.589375 2.1984166666666667 1.0158333333333334 3.6685 1.3052500000000002 4.616291666666667 0.29133333333333333 0.9573750000000001 1.1174166666666667 1.5975416666666669 2.0968333333333335 1.3962916666666667a11.11475 11.11475 0 0 0 1.2860833333333335 -0.345c0.94875 -0.31625000000000003 1.3435833333333334 -1.2822500000000001 1.1183750000000001 -2.256875a142.35658333333333 142.35658333333333 0 0 0 -1.17875 -4.65175 142.094 142.094 0 0 0 -1.3042916666666666 -4.617249999999999Z" stroke-width="2"></path><path id="Vector 1661" stroke="#000" stroke-linecap="round" stroke-linejoin="round" d="m20.125 43.125 7.666666666666667 -16.291666666666668 7.666666666666667 16.291666666666668" stroke-width="2"></path></g></svg>