<svg xmlns="http://www.w3.org/2000/svg" fill="none" viewBox="-1 -1 48 48" height="48" width="48"><g id="quotation-2--quote-quotation-format-formatting-open-close-marks-text"><path id="Vector" stroke="#000" stroke-linecap="round" stroke-linejoin="round" d="M21.565375 2.8797916666666667c1.8246666666666667 0.13991666666666666 2.9995833333333333 0.6133333333333334 3.6646666666666667 0.9870833333333334 0.47533333333333333 0.26737500000000003 0.6785 0.7982916666666666 0.6392083333333334 1.3416666666666666 -0.15045833333333333 2.091083333333333 -0.5884166666666667 7.7625 -1.3129166666666667 13.891041666666666 -0.07475 0.6277083333333334 -0.37375 1.2113333333333334 -0.9612083333333332 1.4413333333333334 -0.67275 0.2635416666666667 -1.8102916666666669 0.5395416666666666 -3.6225 0.5395416666666666 -1.4557083333333334 0 -2.475375 -0.17729166666666668 -3.169208333333333 -0.38333333333333336 -0.8768750000000001 -0.26162500000000005 -1.2142083333333333 -1.1672500000000001 -1.0541666666666667 -2.0680833333333335 1.4624166666666667 -8.232083333333334 3.3445833333333335 -12.926958333333335 4.224333333333334 -14.812 0.2875 -0.6162083333333334 0.91425 -0.9899583333333333 1.5908333333333333 -0.93725Z" stroke-width="2"></path><path id="Vector_2" stroke="#000" stroke-linecap="round" stroke-linejoin="round" d="M8.7285 2.8797916666666667c1.825625 0.140875 2.9995833333333333 0.6133333333333334 3.6656250000000004 0.9870833333333334 0.47533333333333333 0.26833333333333337 0.6785 0.7982916666666666 0.6392083333333334 1.3416666666666666a322.52708333333334 322.52708333333334 0 0 1 -1.3129166666666667 13.892000000000001c-0.07475 0.62675 -0.37375 1.210375 -0.9612083333333332 1.440375 -0.67275 0.2645 -1.8102916666666669 0.5405 -3.6225 0.5405 -1.4566666666666668 0 -2.475375 -0.17825 -3.169208333333333 -0.3842916666666667 -0.8768750000000001 -0.26162500000000005 -1.2142083333333333 -1.1672500000000001 -1.0541666666666667 -2.0671250000000003C4.37575 10.397916666666667 6.2579166666666675 5.702083333333333 7.137666666666667 3.817041666666667c0.2875 -0.6152500000000001 0.9132916666666666 -0.9890000000000001 1.5908333333333333 -0.93725Z" stroke-width="2"></path><path id="Vector_3" stroke="#000" stroke-linecap="round" stroke-linejoin="round" d="M24.434625 43.11829166666667c-1.8246666666666667 -0.13991666666666666 -2.9995833333333333 -0.6133333333333334 -3.6646666666666667 -0.9870833333333334 -0.47533333333333333 -0.26833333333333337 -0.6785 -0.7982916666666666 -0.6392083333333334 -1.3416666666666666 0.15045833333333333 -2.091083333333333 0.5884166666666667 -7.7625 1.3129166666666667 -13.891041666666666 0.07475 -0.6277083333333334 0.3727916666666667 -1.2113333333333334 0.9612083333333332 -1.4413333333333334 0.67275 -0.2645 1.8102916666666669 -0.5405 3.6225 -0.5405 1.4557083333333334 0 2.475375 0.17825 3.169208333333333 0.38525000000000004 0.8768750000000001 0.2606666666666667 1.2142083333333333 1.1662916666666667 1.0541666666666667 2.0671250000000003 -1.4624166666666667 8.232083333333334 -3.3445833333333335 12.926958333333335 -4.224333333333334 14.812a1.6147916666666668 1.6147916666666668 0 0 1 -1.5908333333333333 0.93725Z" stroke-width="2"></path><path id="Vector_4" stroke="#000" stroke-linecap="round" stroke-linejoin="round" d="M37.2715 43.11829166666667c-1.8246666666666667 -0.13991666666666666 -2.9995833333333333 -0.6133333333333334 -3.6646666666666667 -0.9870833333333334 -0.47533333333333333 -0.26833333333333337 -0.6785 -0.7982916666666666 -0.6401666666666668 -1.3416666666666666 0.15141666666666667 -2.091083333333333 0.5884166666666667 -7.7625 1.3138750000000001 -13.891041666666666 0.07475 -0.6277083333333334 0.3727916666666667 -1.2113333333333334 0.96025 -1.4413333333333334 0.6737083333333334 -0.2645 1.81125 -0.5405 3.6234583333333337 -0.5405 1.4557083333333334 0 2.475375 0.17825 3.169208333333333 0.38525000000000004 0.8759166666666668 0.2606666666666667 1.2132500000000002 1.1662916666666667 1.0541666666666667 2.0671250000000003 -1.4624166666666667 8.232083333333334 -3.3445833333333335 12.926958333333335 -4.224333333333334 14.812a1.6147916666666668 1.6147916666666668 0 0 1 -1.5908333333333333 0.93725Z" stroke-width="2"></path></g></svg>