<svg xmlns="http://www.w3.org/2000/svg" fill="none" viewBox="-1 -1 48 48" height="48" width="48"><g id="database--raid-storage-code-disk-programming-database-array-hard-disc"><path id="Ellipse 23" stroke="#000" stroke-linecap="round" stroke-linejoin="round" d="M40.72916666666667 10.541666666666668c0 4.2339166666666666 -7.937875 7.666666666666667 -17.729166666666668 7.666666666666667S5.270833333333334 14.775583333333334 5.270833333333334 10.541666666666668" stroke-width="2"></path><path id="Ellipse 24" stroke="#000" stroke-linecap="round" stroke-linejoin="round" d="M41.208333333333336 23.196458333333332C41.208333333333336 27.322083333333335 33.05579166666667 30.666666666666668 23 30.666666666666668S4.791666666666667 27.322083333333335 4.791666666666667 23.196458333333332" stroke-width="2"></path><path id="Ellipse 431" stroke="#000" stroke-linecap="round" stroke-linejoin="round" d="M11.020833333333334 23a0.4791666666666667 0.4791666666666667 0 0 0 0 -0.9583333333333334" stroke-width="2"></path><path id="Ellipse 433" stroke="#000" stroke-linecap="round" stroke-linejoin="round" d="M11.020833333333334 23a0.4791666666666667 0.4791666666666667 0 0 1 0 -0.9583333333333334" stroke-width="2"></path><path id="Vector" stroke="#000" stroke-linecap="round" stroke-linejoin="round" d="M5.270833333333334 10.541666666666668c0 -4.2339166666666666 7.937875 -7.666666666666667 17.729166666666668 -7.666666666666667s17.729166666666668 3.43275 17.729166666666668 7.666666666666667c0 0 0.4791666666666667 4.791666666666667 0.4791666666666667 12.458333333333334s-0.4791666666666667 12.458333333333334 -0.4791666666666667 12.458333333333334c0 4.2339166666666666 -7.937875 7.666666666666667 -17.729166666666668 7.666666666666667S5.270833333333334 39.69225 5.270833333333334 35.458333333333336c0 0 -0.4791666666666667 -4.791666666666667 -0.4791666666666667 -12.458333333333334s0.4791666666666667 -12.458333333333334 0.4791666666666667 -12.458333333333334Z" stroke-width="2"></path><path id="Ellipse 431_2" stroke="#000" stroke-linecap="round" stroke-linejoin="round" d="M11.020833333333334 35.458333333333336a0.4791666666666667 0.4791666666666667 0 0 0 0 -0.9583333333333334" stroke-width="2"></path><path id="Ellipse 433_2" stroke="#000" stroke-linecap="round" stroke-linejoin="round" d="M11.020833333333334 35.458333333333336a0.4791666666666667 0.4791666666666667 0 0 1 0 -0.9583333333333334" stroke-width="2"></path><path id="Ellipse 431_3" stroke="#000" stroke-linecap="round" stroke-linejoin="round" d="M17.25 24.677083333333336a0.4791666666666667 0.4791666666666667 0 0 0 0 -0.9583333333333334" stroke-width="2"></path><path id="Ellipse 433_3" stroke="#000" stroke-linecap="round" stroke-linejoin="round" d="M17.25 24.677083333333336a0.4791666666666667 0.4791666666666667 0 0 1 0 -0.9583333333333334" stroke-width="2"></path><path id="Ellipse 431_4" stroke="#000" stroke-linecap="round" stroke-linejoin="round" d="M17.25 37.13541666666667a0.4791666666666667 0.4791666666666667 0 0 0 0 -0.9583333333333334" stroke-width="2"></path><path id="Ellipse 433_4" stroke="#000" stroke-linecap="round" stroke-linejoin="round" d="M17.25 37.13541666666667a0.4791666666666667 0.4791666666666667 0 0 1 0 -0.9583333333333334" stroke-width="2"></path></g></svg>