<svg xmlns="http://www.w3.org/2000/svg" fill="none" viewBox="-1 -1 48 48" height="48" width="48"><g id="arrow-transfer-horizontal-square--arrow-square-data-internet-transfer-network-horizontal"><path id="Rectangle 1095" stroke="#000" stroke-linecap="round" stroke-linejoin="round" d="M42.60845833333333 7.912958333333333c-0.19933333333333333 -2.448541666666667 -2.072875 -4.3220833333333335 -4.521416666666667 -4.521416666666667C34.993541666666665 3.1404583333333336 30.057166666666667 2.875 23 2.875c-7.057166666666667 0 -11.993541666666667 0.26545833333333335 -15.087041666666668 0.5165416666666667 -2.448541666666667 0.19933333333333333 -4.3220833333333335 2.072875 -4.521416666666667 4.521416666666667C3.1404583333333336 11.006458333333333 2.875 15.942833333333333 2.875 23c0 7.057166666666667 0.26545833333333335 11.993541666666667 0.5165416666666667 15.087041666666668 0.19933333333333333 2.448541666666667 2.072875 4.3220833333333335 4.521416666666667 4.521416666666667C11.006458333333333 42.859541666666665 15.942833333333333 43.125 23 43.125c7.057166666666667 0 11.993541666666667 -0.26545833333333335 15.087041666666668 -0.5165416666666667 2.448541666666667 -0.19933333333333333 4.3220833333333335 -2.072875 4.521416666666667 -4.521416666666667C42.859541666666665 34.993541666666665 43.125 30.057166666666667 43.125 23c0 -7.057166666666667 -0.26545833333333335 -11.993541666666667 -0.5165416666666667 -15.087041666666668Z" stroke-width="2"></path><path id="Vector 142" stroke="#000" stroke-linecap="round" stroke-linejoin="round" d="M24.391500000000004 12.970083333333335c0.059416666666666666 -0.6507083333333334 0.18016666666666667 -1.6646250000000002 0.4245416666666667 -3.1030833333333336a1.3771250000000002 1.3771250000000002 0 0 1 2.2041666666666666 -0.8634583333333334c3.572666666666667 2.7465833333333336 5.8420000000000005 5.090666666666667 8.036583333333333 8.253166666666667 0.2645 0.3814166666666667 0.4015416666666667 0.8375833333333333 0.4015416666666667 1.3014166666666669 0 0.8385416666666667 -0.66125 1.5275833333333335 -1.4988333333333335 1.5448333333333335 -3.3158333333333334 0.066125 -7.288125000000001 -0.03354166666666667 -10.958541666666667 -0.04791666666666667 -4.070041666666667 -0.017249999999999998 -7.684875000000001 -0.010541666666666666 -9.750083333333333 -0.0038333333333333336 -1.1547916666666669 0.0038333333333333336 -2.2693333333333334 -0.5337916666666668 -2.544375 -1.6550416666666667a5.451958333333334 5.451958333333334 0 0 1 -0.16387500000000002 -1.1998333333333333 5.0849166666666665 5.0849166666666665 0 0 1 0.1600416666666667 -1.325375c0.273125 -1.0704583333333333 1.3589166666666666 -1.5860416666666668 2.4629166666666666 -1.6205416666666668l10.239791666666667 -0.324875c0.5175000000000001 -0.01629166666666667 0.9391666666666667 -0.439875 0.9861249999999999 -0.9554583333333334Z" stroke-width="2"></path><path id="Vector 144" stroke="#000" stroke-linecap="round" stroke-linejoin="round" d="M21.6085 33.02991666666667a41.552375000000005 41.552375000000005 0 0 1 -0.4245416666666667 3.1030833333333336 1.3771250000000002 1.3771250000000002 0 0 1 -2.2041666666666666 0.8644166666666667c-3.572666666666667 -2.7465833333333336 -5.8420000000000005 -5.090666666666667 -8.036583333333333 -8.254125A2.2817916666666664 2.2817916666666664 0 0 1 10.541666666666668 27.441875000000003c0 -0.8385416666666667 0.66125 -1.5275833333333335 1.4988333333333335 -1.5448333333333335 3.3158333333333334 -0.066125 7.288125000000001 0.03354166666666667 10.958541666666667 0.04791666666666667 4.070041666666667 0.017249999999999998 7.684875000000001 0.010541666666666666 9.750083333333333 0.0038333333333333336 1.1547916666666669 -0.0038333333333333336 2.2693333333333334 0.5337916666666668 2.544375 1.6560000000000001 0.09583333333333334 0.3900416666666667 0.15812500000000002 0.8030833333333334 0.16387500000000002 1.1998333333333333 0.007666666666666667 0.46191666666666664 -0.05558333333333334 0.9132916666666666 -0.1600416666666667 1.325375 -0.273125 1.0695000000000001 -1.3589166666666666 1.5850833333333334 -2.4629166666666666 1.6195833333333334l-10.239791666666667 0.32583333333333336c-0.5175000000000001 0.015333333333333334 -0.9391666666666667 0.4389166666666667 -0.9861249999999999 0.9545Z" stroke-width="2"></path></g></svg>