<svg xmlns="http://www.w3.org/2000/svg" fill="none" viewBox="-1 -1 48 48" height="48" width="48"><g id="parachute-drop--package-box-fulfillment-cart-warehouse-shipping-delivery-drop-parachute"><path id="Rectangle 1095" stroke="#000" stroke-linejoin="round" d="M10.565625 39.397083333333335c0.15333333333333335 2.0057916666666666 1.750875 3.4519166666666665 3.759541666666667 3.5487083333333334 1.9262499999999998 0.09295833333333334 4.73225 0.17920833333333333 8.529166666666667 0.17920833333333333 3.796916666666667 0 6.601958333333334 -0.08625 8.528208333333334 -0.17920833333333333 2.008666666666667 -0.09679166666666668 3.6062083333333335 -1.5429166666666667 3.7605 -3.5487083333333334 0.09583333333333334 -1.2458333333333333 0.169625 -2.8673333333333333 0.169625 -4.897083333333334 0 -2.02975 -0.07475 -3.65125 -0.169625 -4.897083333333334 -0.15333333333333335 -2.0057916666666666 -1.7518333333333336 -3.4519166666666665 -3.7605 -3.5487083333333334 -1.9262499999999998 -0.09295833333333334 -4.731291666666667 -0.17920833333333333 -8.529166666666667 -0.17920833333333333 -3.7959583333333335 0 -6.601 0.08625 -8.528208333333334 0.17920833333333333 -2.008666666666667 0.09679166666666668 -3.6062083333333335 1.5429166666666667 -3.759541666666667 3.5487083333333334a64.35112500000001 64.35112500000001 0 0 0 -0.169625 4.897083333333334c0 2.02975 0.07379166666666667 3.65125 0.169625 4.897083333333334Z" stroke-width="2"></path><path id="Vector 833" stroke="#000" stroke-linecap="round" d="m29.562666666666665 37.375 -5.75 0" stroke-width="2"></path><path id="Vector 834" stroke="#000" stroke-linecap="round" d="m29.562666666666665 32.583333333333336 -2.875 0" stroke-width="2"></path><path id="Vector 835" stroke="#000" stroke-linecap="round" d="m23 17.25 0 8.625" stroke-width="2"></path><path id="Vector 838" stroke="#000" stroke-linecap="round" d="M2.875 17.25c5.75 4.791666666666667 20.125 8.625 20.125 8.625" stroke-width="2"></path><path id="Vector 839" stroke="#000" stroke-linecap="round" d="M43.125 17.25c-5.75 4.791666666666667 -20.125 8.625 -20.125 8.625" stroke-width="2"></path><path id="Vector" stroke="#000" stroke-linejoin="round" d="M2.875 17.25c0 -5.75 6.708333333333334 -14.375 20.125 -14.375s20.125 8.625 20.125 14.375c0 0 -3.8333333333333335 -2.875 -10.541666666666668 -2.875s-9.583333333333334 2.875 -9.583333333333334 2.875 -2.875 -2.875 -9.583333333333334 -2.875 -10.541666666666668 2.875 -10.541666666666668 2.875Z" stroke-width="2"></path></g></svg>