<svg xmlns="http://www.w3.org/2000/svg" fill="none" viewBox="-1 -1 48 48" height="48" width="48"><g id="layout-right-sidebar"><path id="Rectangle 1096" stroke="#000" stroke-linecap="round" stroke-linejoin="round" d="M8.105583333333334 40.019041666666666c-2.770541666666667 -0.10254166666666667 -4.935416666666667 -2.2511250000000005 -5.038916666666667 -5.021666666666667C2.966041666666667 32.30925 2.875 28.389666666666667 2.875 23c0 -5.389666666666667 0.09104166666666667 -9.30925 0.19166666666666668 -11.998333333333333 0.10445833333333333 -2.7695833333333337 2.2683750000000003 -4.918166666666666 5.038916666666667 -5.020708333333333C11.268083333333333 5.865 16.11916666666667 5.75 23 5.75s11.731916666666669 0.115 14.894416666666666 0.23095833333333332c2.770541666666667 0.10254166666666667 4.935416666666667 2.2511250000000005 5.038916666666667 5.021666666666667 0.100625 2.6881250000000003 0.19166666666666668 6.607708333333333 0.19166666666666668 11.997375 0 5.389666666666667 -0.09104166666666667 9.30925 -0.19166666666666668 11.998333333333333 -0.10445833333333333 2.7695833333333337 -2.2683750000000003 4.918166666666666 -5.038916666666667 5.020708333333333C34.73191666666666 40.135000000000005 29.880833333333335 40.25 23 40.25s-11.731916666666669 -0.115 -14.894416666666666 -0.23095833333333332Z" stroke-width="2"></path><path id="Intersect" stroke="#000" stroke-linecap="round" stroke-linejoin="round" d="M28.75 5.779708333333334v34.4425" stroke-width="2"></path><path id="Vector 1105" stroke="#000" stroke-linecap="round" stroke-linejoin="round" d="m34.5 12.458333333333334 2.875 0" stroke-width="2"></path><path id="Vector 1106" stroke="#000" stroke-linecap="round" stroke-linejoin="round" d="m34.5 18.208333333333336 2.875 0" stroke-width="2"></path><path id="Vector 1107" stroke="#000" stroke-linecap="round" stroke-linejoin="round" d="m34.5 23.958333333333336 2.875 0" stroke-width="2"></path></g></svg>