<svg xmlns="http://www.w3.org/2000/svg" fill="none" viewBox="-1 -1 48 48" height="48" width="48"><g id="production-belt--production-produce-box-belt-factory-product-package-business"><path id="Rectangle 1097" stroke="#000" stroke-linecap="round" stroke-linejoin="round" d="M6.987208333333334 23.1725c0.1955 2.424583333333333 2.11025 4.207083333333333 4.540583333333334 4.343166666666667C14.052041666666668 27.65654166666667 17.820208333333333 27.791666666666668 23 27.791666666666668s8.947958333333334 -0.13416666666666668 11.472208333333334 -0.27599999999999997c2.4303333333333335 -0.13608333333333333 4.345083333333333 -1.917625 4.540583333333334 -4.343166666666667 0.15141666666666667 -1.8860000000000001 0.278875 -4.4735000000000005 0.278875 -7.839166666666666 0 -3.365666666666667 -0.12745833333333334 -5.952208333333334 -0.278875 -7.839166666666666 -0.1955 -2.424583333333333 -2.11025 -4.207083333333333 -4.540583333333334 -4.343166666666667C31.94795833333334 3.010125 28.17979166666667 2.875 23 2.875s-8.947958333333334 0.13416666666666668 -11.472208333333334 0.27599999999999997C9.097458333333334 3.287083333333334 7.182708333333334 5.069583333333334 6.98625 7.495125 6.835791666666667 9.381125 6.708333333333334 11.967666666666666 6.708333333333334 15.333333333333334c0 3.365666666666667 0.12745833333333334 5.953166666666666 0.278875 7.839166666666666Z" stroke-width="2"></path><path id="Rectangle 1096" stroke="#000" stroke-linecap="round" stroke-linejoin="round" d="M2.876916666666667 35.84645833333334c0.04120833333333333 4.305791666666667 3.6541250000000005 7.062916666666667 7.958958333333333 7.15875C13.8345 43.071333333333335 17.85279166666667 43.125 23 43.125c5.14625 0 9.1655 -0.05366666666666667 12.164125 -0.11979166666666667 4.304833333333334 -0.09583333333333334 7.917750000000001 -2.8529583333333335 7.958958333333333 -7.15875a43.05504166666667 43.05504166666667 0 0 0 0 -0.7762500000000001c-0.04120833333333333 -4.305791666666667 -3.6541250000000005 -7.062916666666667 -7.958958333333333 -7.15875A554.4725000000001 554.4725000000001 0 0 0 23 27.791666666666668c-5.14625 0 -9.1655 0.05366666666666667 -12.164125 0.11979166666666667 -4.304833333333334 0.09583333333333334 -7.917750000000001 2.8529583333333335 -7.958958333333333 7.15875a40.079416666666674 40.079416666666674 0 0 0 0 0.7762500000000001Z" stroke-width="2"></path><path id="Ellipse 91" stroke="#000" stroke-linecap="round" stroke-linejoin="round" d="M14.375 35.458333333333336a2.875 2.875 0 1 1 -5.75 0 2.875 2.875 0 1 1 5.75 0" stroke-width="2"></path><path id="Ellipse 92" stroke="#000" stroke-linecap="round" stroke-linejoin="round" d="M25.875 35.458333333333336a2.875 2.875 0 1 1 -5.75 0 2.875 2.875 0 1 1 5.75 0" stroke-width="2"></path><path id="Ellipse 93" stroke="#000" stroke-linecap="round" stroke-linejoin="round" d="M37.375 35.458333333333336a2.875 2.875 0 1 1 -5.75 0 2.875 2.875 0 1 1 5.75 0" stroke-width="2"></path><path id="Intersect" stroke="#000" stroke-linecap="round" stroke-linejoin="round" d="M27.751416666666668 2.9190833333333335a180.09958333333336 180.09958333333336 0 0 1 -0.32583333333333336 6.995833333333334 0.945875 0.945875 0 0 1 -1.4566666666666668 0.7321666666666667l-2.7120833333333336 -1.722125a0.4791666666666667 0.4791666666666667 0 0 0 -0.514625 0l-2.7120833333333336 1.722125a0.945875 0.945875 0 0 1 -1.4557083333333334 -0.733125c-0.10541666666666667 -1.5975416666666669 -0.255875 -4.216666666666667 -0.3267916666666667 -6.995833333333334" stroke-width="2"></path><path id="Vector 1594" stroke="#000" stroke-linecap="round" stroke-linejoin="round" d="M33.54166666666667 22.041666666666668h-7.666666666666667" stroke-width="2"></path><path id="Vector 1595" stroke="#000" stroke-linecap="round" stroke-linejoin="round" d="m33.54166666666667 17.25 -4.791666666666667 0" stroke-width="2"></path></g></svg>