<svg xmlns="http://www.w3.org/2000/svg" fill="none" viewBox="-1 -1 48 48" height="48" width="48"><g id="bitcoin-circle-1--crypto-circle-payment-blockchain-finance-bitcoin-money-currency"><path id="Ellipse 19" stroke="#000" stroke-linecap="round" stroke-linejoin="round" d="M23 2.875c11.11475 0 20.125 9.01025 20.125 20.125s-9.01025 20.125 -20.125 20.125S2.875 34.11475 2.875 23 11.88525 2.875 23 2.875Z" stroke-width="2"></path><path id="Ellipse 21" stroke="#000" stroke-linecap="round" stroke-linejoin="round" d="M23 7.666666666666667c8.468791666666666 0 15.333333333333334 6.864541666666667 15.333333333333334 15.333333333333334s-6.864541666666667 15.333333333333334 -15.333333333333334 15.333333333333334S7.666666666666667 31.46879166666667 7.666666666666667 23 14.531208333333334 7.666666666666667 23 7.666666666666667Z" stroke-width="2"></path><path id="Vector" stroke="#000" stroke-linecap="round" stroke-linejoin="round" d="M18.208333333333336 16.30891666666667c0.6804166666666667 0 3.4825833333333334 -0.01629166666666667 5.735625000000001 -0.017249999999999998 1.768125 0 3.5535 0.8577083333333334 3.7959583333333335 2.6085833333333333a5.366666666666666 5.366666666666666 0 0 1 -0.012458333333333333 1.5563333333333336c-0.26162500000000005 1.699125 -1.9799166666666665 2.544375 -3.6991666666666667 2.543416666666667 -2.2683750000000003 -0.0009583333333333334 -5.097375 -0.03641666666666667 -5.819958333333334 -0.03641666666666667m0 0.05366666666666667c0.905625 0 4.937333333333334 -0.01916666666666667 7.735666666666666 -0.017249999999999998 1.5994583333333334 0.0019166666666666668 3.243 0.6861666666666667 3.626333333333333 2.239625 0.08433333333333333 0.342125 0.13799999999999998 0.7139583333333334 0.13799999999999998 1.1049583333333335 0 0.416875 -0.060375000000000005 0.81075 -0.15525 1.1720416666666669 -0.393875 1.5084166666666667 -1.9818333333333336 2.186916666666667 -3.5410416666666666 2.19075 -2.8136666666666668 0.007666666666666667 -6.846333333333334 -0.034499999999999996 -7.803708333333335 -0.034499999999999996M18.208333333333336 16.291666666666668v13.392708333333333" stroke-width="2"></path><path id="Vector 1527" stroke="#000" stroke-linecap="round" stroke-linejoin="round" d="M20.604166666666668 13.416666666666668v2.3958333333333335" stroke-width="2"></path><path id="Vector 1528" stroke="#000" stroke-linecap="round" stroke-linejoin="round" d="M24.916666666666668 13.416666666666668v2.3958333333333335" stroke-width="2"></path><path id="Vector 1527_2" stroke="#000" stroke-linecap="round" stroke-linejoin="round" d="M20.604166666666668 30.1875V32.583333333333336" stroke-width="2"></path><path id="Vector 1528_2" stroke="#000" stroke-linecap="round" stroke-linejoin="round" d="M24.916666666666668 30.1875V32.583333333333336" stroke-width="2"></path></g></svg>