<svg xmlns="http://www.w3.org/2000/svg" fill="none" viewBox="-1 -1 48 48" height="48" width="48"><g id="government-building-1--government-building-travel-places"><path id="Vector 729" stroke="#000" stroke-linecap="round" stroke-linejoin="round" d="M11.614041666666667 43.125s-0.41975 -22.96166666666667 0.3526666666666667 -31.582833333333337a3.2899583333333333 3.2899583333333333 0 0 1 0.7264166666666667 -1.8016666666666665C16.221708333333332 5.4318333333333335 21.209833333333336 2.875 22.877333333333333 2.875c1.6675 0 6.874125 2.5568333333333335 10.428583333333334 6.866458333333334 0.42358333333333337 0.5136666666666667 0.6679583333333333 1.1385 0.7283333333333334 1.8016666666666665 0.7714583333333334 8.619250000000001 0.35170833333333335 31.581875 0.35170833333333335 31.581875" stroke-width="2"></path><path id="Subtract" stroke="#000" stroke-linecap="round" stroke-linejoin="round" d="M11.686875 16.464166666666667c-1.2966250000000001 0.043125 -2.392 0.09008333333333333 -3.291875 0.13416666666666668a3.5285833333333336 3.5285833333333336 0 0 0 -3.3771666666666667 3.3695C4.906666666666667 22.214166666666667 4.791666666666667 25.651708333333335 4.791666666666667 30.283333333333335V43.125m29.521458333333335 -26.660833333333336c1.2966250000000001 0.043125 2.392 0.09008333333333333 3.291875 0.135125a3.5285833333333336 3.5285833333333336 0 0 1 3.3762083333333335 3.3685416666666668C41.09333333333334 22.214166666666667 41.208333333333336 25.651708333333335 41.208333333333336 30.283333333333335V43.125" stroke-width="2"></path><path id="Ellipse 489" stroke="#000" stroke-linecap="round" stroke-linejoin="round" d="M20.125 11.5a2.875 2.875 0 1 0 5.75 0 2.875 2.875 0 1 0 -5.75 0" stroke-width="2"></path><path id="Rectangle 1497" stroke="#000" stroke-linecap="round" stroke-linejoin="round" d="m26.833333333333336 43.125 0 -7.667625C26.833333333333336 33.33945833333333 25.11791666666667 31.625 23 31.625s-3.8333333333333335 1.7154166666666668 -3.8333333333333335 3.8323750000000003L19.166666666666668 43.125" stroke-width="2"></path><path id="Vector 1384" stroke="#000" stroke-linecap="round" stroke-linejoin="round" d="M19.166666666666668 18.208333333333336v1.9166666666666667" stroke-width="2"></path><path id="Vector 1386" stroke="#000" stroke-linecap="round" stroke-linejoin="round" d="M19.166666666666668 24.916666666666668v1.9166666666666667" stroke-width="2"></path><path id="Vector 1385" stroke="#000" stroke-linecap="round" stroke-linejoin="round" d="M26.833333333333336 18.208333333333336v1.9166666666666667" stroke-width="2"></path><path id="Vector 1387" stroke="#000" stroke-linecap="round" stroke-linejoin="round" d="M26.833333333333336 24.916666666666668v1.9166666666666667" stroke-width="2"></path><path id="Vector 1388" stroke="#000" stroke-linecap="round" stroke-linejoin="round" d="M43.125 43.125H2.875" stroke-width="2"></path></g></svg>