<svg xmlns="http://www.w3.org/2000/svg" fill="none" viewBox="-1 -1 48 48" height="48" width="48"><g id="business-progress-bar-2--business-production-arrow-workflow-money-flag-timeline"><path id="Ellipse 554" stroke="#000" stroke-linecap="round" stroke-linejoin="round" d="M13.416666666666668 34.5a5.75 5.75 0 1 0 11.5 0 5.75 5.75 0 1 0 -11.5 0" stroke-width="2"></path><path id="Rectangle 1098" stroke="#000" stroke-linecap="round" stroke-linejoin="round" d="M34.638 31.003041666666668c0.1265 -1.33975 1.33975 -1.9597916666666666 2.548208333333333 -1.3675416666666667a34.0975 34.0975 0 0 1 3.07625 1.727875c0.9966666666666667 0.6229166666666667 1.7384166666666667 1.152875 2.2885 1.5908333333333333 1.0886666666666667 0.8644166666666667 1.0886666666666667 2.2262083333333336 0 3.0915833333333333a25.045083333333334 25.045083333333334 0 0 1 -2.287541666666667 1.5908333333333333 34.2585 34.2585 0 0 1 -3.07625 1.7269166666666669c-1.2094166666666668 0.59225 -2.423625 -0.02875 -2.549166666666667 -1.3685C34.557500000000005 37.15170833333334 34.5 36.016083333333334 34.5 34.5c0 -1.5170416666666666 0.058458333333333334 -2.6526666666666667 0.13799999999999998 -3.4969583333333336Z" stroke-width="2"></path><path id="Vector 1657" stroke="#000" stroke-linecap="round" stroke-linejoin="round" d="m34.5 34.5 -9.583333333333334 0" stroke-width="2"></path><path id="Vector 1658" stroke="#000" stroke-linecap="round" stroke-linejoin="round" d="M13.416666666666668 34.5H2.875" stroke-width="2"></path><path id="Vector 1659" stroke="#000" stroke-linecap="round" stroke-linejoin="round" d="m19.166666666666668 28.75 0 -18.208333333333336" stroke-width="2"></path><path id="Rectangle 1098_2" stroke="#000" stroke-linecap="round" stroke-linejoin="round" d="M19.166666666666668 8.02125c0 -1.1883333333333335 1.0637500000000002 -2.060416666666667 2.21375 -1.7575833333333335 1.6837916666666666 0.44370833333333337 4.297166666666667 1.2257083333333334 7.730875 2.53575a61.414791666666666 61.414791666666666 0 0 1 3.6081250000000002 1.495c2.3210833333333336 1.060875 2.3210833333333336 3.267916666666667 0 4.3287916666666675 -0.94875 0.4331666666666667 -2.1322916666666667 0.9315 -3.6090833333333334 1.495C22.71825 18.557166666666667 19.166666666666668 19.166666666666668 19.166666666666668 19.166666666666668l0 -6.708333333333334 0 -4.437083333333334Z" stroke-width="2"></path></g></svg>