<svg xmlns="http://www.w3.org/2000/svg" fill="none" viewBox="-1 -1 48 48" height="48" width="48"><g id="painting-board--painting-board-museum-event-hobby-exhibit-travel-places"><path id="Rectangle 1095" stroke="#000" stroke-linecap="round" stroke-linejoin="round" d="M6.571291666666667 30.666666666666668S5.75 26.035041666666668 5.75 16.770833333333336c0 -4.027875000000001 0.15525 -7.05525 0.330625 -9.190416666666668 0.20029166666666667 -2.4341666666666666 2.1112083333333334 -4.235833333333334 4.54825 -4.384375C13.301666666666668 3.0340833333333332 17.361166666666666 2.875 23 2.875s9.698333333333332 0.15908333333333335 12.371125000000001 0.3210416666666667c2.437041666666667 0.14854166666666668 4.347958333333334 1.9511666666666667 4.54825 4.384375 0.175375 2.135166666666667 0.330625 5.162541666666667 0.330625 9.190416666666668 0 9.264208333333334 -0.8212916666666666 13.895833333333334 -0.8212916666666666 13.895833333333334" stroke-width="2"></path><path id="Intersect" stroke="#000" stroke-linecap="round" stroke-linejoin="round" d="M40.07654166666667 23.785833333333336a95.41645833333334 95.41645833333334 0 0 0 -1.3071666666666668 -1.2927916666666668c-4.2588333333333335 -4.133291666666667 -7.2795000000000005 -6.205208333333333 -9.059125 -7.215291666666666a3.8304583333333335 3.8304583333333335 0 0 0 -3.8362083333333334 0c-1.7805833333333334 1.0100833333333334 -4.800291666666667 3.0820000000000003 -9.059125 7.2162500000000005 -3.65125 3.5420000000000003 -5.934958333333333 6.299125000000001 -7.308250000000001 8.173625" stroke-width="2"></path><path id="Rectangle 58" stroke="#000" stroke-linecap="round" stroke-linejoin="round" d="M2.9229166666666666 32.22204166666666c0.115 -0.9027499999999999 0.951625 -1.3416666666666666 1.8620416666666668 -1.3704166666666666C7.050458333333334 30.781666666666666 12.372083333333334 30.666666666666668 23 30.666666666666668c10.627916666666668 0 15.949541666666669 0.115 18.215041666666668 0.18591666666666667 0.9104166666666667 0.02875 1.7480000000000002 0.46670833333333334 1.8610833333333334 1.3704166666666666 0.03066666666666667 0.238625 0.048875 0.5175000000000001 0.048875 0.8395 0 0.32295833333333335 -0.01916666666666667 0.600875 -0.04791666666666667 0.8404583333333334 -0.115 0.9027499999999999 -0.951625 1.3416666666666666 -1.8620416666666668 1.3704166666666666C38.94954166666667 35.343333333333334 33.62791666666667 35.458333333333336 23 35.458333333333336c-10.627916666666668 0 -15.949541666666669 -0.115 -18.215041666666668 -0.18591666666666667 -0.9104166666666667 -0.02875 -1.7480000000000002 -0.46670833333333334 -1.8610833333333334 -1.3704166666666666A6.619208333333334 6.619208333333334 0 0 1 2.875 33.0625c0 -0.32295833333333335 0.01916666666666667 -0.600875 0.04791666666666667 -0.8404583333333334Z" stroke-width="2"></path><path id="Subtract" stroke="#000" stroke-linecap="round" stroke-linejoin="round" d="m10.393125000000001 35.38741666666667 -3.153875 6.337458333333334c-0.273125 0.5481666666666667 0.03258333333333334 1.2075 0.6401666666666668 1.288 1.5563333333333336 0.20700000000000002 3.0580416666666665 0.08816666666666667 4.017333333333334 -0.04120833333333333 0.681375 -0.09200000000000001 1.273625 -0.4849166666666667 1.6809166666666668 -1.0397916666666667l4.758125 -6.481208333333334" stroke-width="2"></path><path id="Subtract_2" stroke="#000" stroke-linecap="round" stroke-linejoin="round" d="M19.460874999999998 35.453541666666666c0.198375 2.5932500000000003 0.4475416666666667 5.067666666666667 0.5836250000000001 6.35375 0.06133333333333334 0.5797916666666667 0.4063333333333333 1.071416666666667 0.9813333333333334 1.173 0.44275000000000003 0.07858333333333334 1.081 0.14375 1.975125 0.14375s1.532375 -0.06516666666666668 1.9741666666666668 -0.14375c0.575 -0.10158333333333333 0.9209583333333333 -0.5932083333333333 0.9822916666666667 -1.1739583333333334 0.13608333333333333 -1.284166666666667 0.38525000000000004 -3.759541666666667 0.5845833333333333 -6.352791666666667" stroke-width="2"></path><path id="Subtract_3" stroke="#000" stroke-linecap="round" stroke-linejoin="round" d="m27.664208333333335 35.45066666666666 4.759083333333334 6.481208333333334c0.40729166666666666 0.554875 0.9985833333333334 0.94875 1.6799583333333332 1.0397916666666667 0.9583333333333334 0.12937500000000002 2.4610000000000003 0.24820833333333336 4.018291666666666 0.04120833333333333 0.6066250000000001 -0.0805 0.9123333333333333 -0.7398333333333333 0.6392083333333334 -1.288l-3.153875 -6.337458333333334" stroke-width="2"></path><path id="Ellipse 27" stroke="#000" stroke-linecap="round" stroke-linejoin="round" d="M19.166666666666668 12.458333333333334a3.8333333333333335 3.8333333333333335 0 1 1 -7.666666666666667 0 3.8333333333333335 3.8333333333333335 0 0 1 7.666666666666667 0Z" stroke-width="2"></path></g></svg>