<svg xmlns="http://www.w3.org/2000/svg" fill="none" viewBox="-1 -1 48 48" height="48" width="48"><g id="rotate-left"><path id="Union" stroke="#000" stroke-linecap="round" stroke-linejoin="round" d="M22.846666666666668 2.875C34.046708333333335 2.875 43.125 12.271458333333333 43.125 23.302833333333332a19.703333333333333 19.703333333333333 0 0 1 -4.4102500000000004 12.436291666666667c-0.7427083333333334 0.9190416666666666 -2.13325 0.7954166666666667 -2.8175 -0.16770833333333332l-1.612875 -2.27125c-0.5098333333333334 -0.7168333333333333 -0.4523333333333333 -1.6809166666666668 0.043125 -2.4073333333333333a13.411875 13.411875 0 0 0 2.345041666666667 -7.59c0 -7.521958333333334 -6.189875 -13.164625000000001 -13.824916666666667 -13.164625000000001 -3.3292500000000005 0 -6.176458333333334 1.33975 -8.408416666666666 3.4049583333333335 0.621 0.391 1.1404166666666666 0.7292916666666667 1.5755 1.0215833333333335 1.0685416666666667 0.715875 0.91425 2.1361250000000003 -0.2664166666666667 2.648833333333333 -4.194625 1.8208333333333333 -7.415583333333334 2.331625 -8.982458333333334 2.4744166666666665a1.5103333333333335 1.5103333333333335 0 0 1 -1.5256666666666667 -0.8816666666666667c-0.6602916666666666 -1.4298333333333333 -1.8304166666666666 -4.481166666666667 -2.353666666666667 -9.03325 -0.14758333333333334 -1.2803333333333335 1.00625 -2.124625 2.162 -1.5544166666666668a67.03541666666668 67.03541666666668 0 0 1 2.1064166666666666 1.0905833333333332C11.042875 5.2804166666666665 16.800541666666668 2.875 22.847625 2.875Z" stroke-width="2"></path><path id="Union_2" stroke="#000" stroke-linecap="round" stroke-linejoin="round" d="M32.219166666666666 38.66683333333334c0.6459166666666667 0.9094583333333334 0.3842916666666667 2.184041666666667 -0.6238750000000001 2.659375a20.363625 20.363625 0 0 1 -6.132375000000001 1.7844166666666668c-1.1710833333333333 0.14854166666666668 -2.092041666666667 -0.8989166666666667 -1.9243333333333335 -2.0671250000000003l0.38525000000000004 -2.683333333333333c0.1265 -0.8787916666666667 0.8433333333333334 -1.5419583333333333 1.7125416666666666 -1.7173333333333334 0.8720833333333334 -0.175375 1.7135 -0.43220833333333336 2.5175416666666663 -0.7618750000000001 0.9075416666666667 -0.37183333333333335 1.98375 -0.14375 2.5520416666666668 0.6555000000000001l1.5141666666666669 2.130375Z" stroke-width="2"></path><path id="Union_3" stroke="#000" stroke-linecap="round" stroke-linejoin="round" d="M18.742124999999998 40.73683333333334c-0.15908333333333335 1.1078333333333332 -1.2343333333333335 1.8524583333333335 -2.291375 1.486375a18.471875 18.471875 0 0 1 -5.061916666666667 -2.6890833333333335c-0.9085 -0.6823333333333333 -0.8740000000000001 -2.0125 -0.014375 -2.7552083333333335l1.7537500000000001 -1.5132083333333333c0.6411250000000001 -0.5539166666666666 1.5649583333333335 -0.6104583333333333 2.3153333333333332 -0.2175416666666667 0.7139583333333334 0.37375 1.4585833333333333 0.6976666666666667 2.223333333333333 0.9660000000000001 0.9362916666666666 0.32966666666666666 1.5745416666666667 1.2458333333333333 1.4327083333333335 2.2290833333333335l-0.3574583333333333 2.4935833333333335Z" stroke-width="2"></path><path id="Union_4" stroke="#000" stroke-linecap="round" stroke-linejoin="round" d="M9.530625 29.606749999999998c0.5270833333333333 0.8902916666666667 0.43700000000000006 2.0575416666666664 -0.345 2.7331666666666665l-0.7915833333333333 0.6823333333333333c-0.8845416666666668 0.7628333333333334 -2.2463333333333333 0.5654166666666667 -2.7638333333333334 -0.4820416666666667a21.219416666666667 21.219416666666667 0 0 1 -1.3177083333333335 -3.36375c-0.342125 -1.15 0.5673333333333334 -2.2425 1.7671666666666668 -2.2425h0.8471666666666667c0.8596250000000001 0 1.5985 0.5797916666666667 1.9396666666666669 1.3694583333333334 0.19262500000000002 0.4465833333333334 0.4149583333333333 0.8816666666666667 0.664125 1.3033333333333335Z" stroke-width="2"></path></g></svg>