<svg xmlns="http://www.w3.org/2000/svg" fill="none" viewBox="-1 -1 48 48" height="48" width="48"><g id="beach--island-waves-outdoor-recreation-tree-beach-palm-wave-water-travel-places"><path id="Ellipse 18" stroke="#000" stroke-linecap="round" stroke-linejoin="round" d="M6.708333333333334 36.41666666666667c1.3110000000000002 -5.438541666666667 8.105583333333334 -9.583333333333334 16.291666666666668 -9.583333333333334s14.980666666666666 4.144791666666667 16.291666666666668 9.583333333333334" stroke-width="2"></path><path id="Ellipse 21" stroke="#000" stroke-linecap="round" stroke-linejoin="round" d="M33.54166666666667 10.541666666666668c4.572208333333333 0 8.625 3.7442083333333334 8.625 8.625" stroke-width="2"></path><path id="Ellipse 22" stroke="#000" stroke-linecap="round" stroke-linejoin="round" d="M33.67583333333334 20.125c2.4648333333333334 -2.6574583333333335 2.3297083333333335 -6.9258750000000004 -0.13416666666666668 -9.583333333333334" stroke-width="2"></path><path id="Ellipse 24" stroke="#000" stroke-linecap="round" stroke-linejoin="round" d="M31.99875 2.537666666666667C34.718500000000006 4.1074166666666665 35.11141666666666 7.8219166666666675 33.54166666666667 10.541666666666668" stroke-width="2"></path><path id="Ellipse 23" stroke="#000" stroke-linecap="round" stroke-linejoin="round" d="M33.54166666666667 10.541666666666668c-2.8797916666666667 -4.331666666666666 -8.007833333333334 -5.171166666666667 -11.5 -1.5994583333333334" stroke-width="2"></path><path id="Vector" stroke="#000" stroke-linecap="round" stroke-linejoin="round" d="M18.208333333333336 26.833333333333336c0 -8.997791666666666 7.293875 -16.291666666666668 16.291666666666668 -16.291666666666668 -4.798375 0 -8.689208333333333 7.293875 -8.689208333333333 16.291666666666668" stroke-width="2"></path><path id="Vector_2" stroke="#000" stroke-linecap="round" stroke-linejoin="round" d="M2.875 43.125c1.81125 0 3.6225 -0.5328333333333334 5.194166666666667 -1.6004166666666666a2.738916666666667 2.738916666666667 0 0 1 3.0283333333333338 0A9.241208333333335 9.241208333333335 0 0 0 16.291666666666668 43.125c1.81125 0 3.6225 -0.5328333333333334 5.194166666666667 -1.6004166666666666a2.738916666666667 2.738916666666667 0 0 1 3.0283333333333338 0A9.241208333333335 9.241208333333335 0 0 0 29.708333333333336 43.125c1.81125 0 3.6225 -0.5328333333333334 5.194166666666667 -1.6004166666666666a2.738916666666667 2.738916666666667 0 0 1 3.0283333333333338 0A9.241208333333335 9.241208333333335 0 0 0 43.125 43.125" stroke-width="2"></path></g></svg>