<svg xmlns="http://www.w3.org/2000/svg" fill="none" viewBox="-1 -1 48 48" height="48" width="48"><g id="landscape-view--photos-photo-picture-photography-pictures-view-eye-image"><path id="Rectangle 1095" stroke="#000" stroke-linecap="round" stroke-linejoin="round" d="M37.367333333333335 22.041666666666668c0.004791666666666667 -0.6171666666666668 0.007666666666666667 -1.2554166666666668 0.007666666666666667 -1.9166666666666667 0 -5.623500000000001 -0.19645833333333332 -9.675333333333334 -0.39675 -12.348125 -0.18400000000000002 -2.450458333333333 -2.054666666666667 -4.321125 -4.505125 -4.504166666666667C29.800333333333334 3.0705000000000005 25.7485 2.875 20.125 2.875c-5.623500000000001 0 -9.675333333333334 0.19645833333333332 -12.348125 0.39675 -2.450458333333333 0.18400000000000002 -4.321125 2.054666666666667 -4.504166666666667 4.505125C3.0705000000000005 10.449666666666667 2.875 14.5015 2.875 20.125c0 5.623500000000001 0.19645833333333332 9.675333333333334 0.39675 12.348125 0.18400000000000002 2.450458333333333 2.0575416666666664 4.321125 4.508 4.504166666666667 1.9329583333333333 0.14566666666666667 4.5865833333333335 0.2884583333333333 8.03275 0.3565" stroke-width="2"></path><path id="Ellipse 35" stroke="#000" stroke-linecap="round" stroke-linejoin="round" d="M31.625 11.5a2.875 2.875 0 1 1 -5.75 0 2.875 2.875 0 0 1 5.75 0Z" stroke-width="2"></path><path id="Intersect" stroke="#000" stroke-linecap="round" stroke-linejoin="round" d="M2.90375 23.784875c3.7930833333333336 -3.5975833333333336 6.430416666666667 -5.608166666666667 8.095041666666667 -6.713125 1.3780833333333333 -0.91425 3.059 -0.7590000000000001 4.337416666666667 0.29133333333333333 1.4068333333333334 1.1567083333333334 3.621541666666667 3.1030833333333336 6.915333333333334 6.304875 2.254 -1.9684166666666665 3.943541666666667 -3.222875 5.1347499999999995 -4.0135 1.3790416666666667 -0.91425 3.0628333333333337 -0.7590000000000001 4.3412500000000005 0.29133333333333333 0.2577916666666667 0.21179166666666668 0.5424166666666667 0.45041666666666663 0.8557916666666667 0.7177916666666667" stroke-width="2"></path><path id="Intersect_2" stroke="#000" stroke-linecap="round" stroke-linejoin="round" d="M20.27354166666667 35.412333333333336a2.7858750000000003 2.7858750000000003 0 0 1 0 -1.8246666666666667C21.827 29.111291666666666 26.320625 25.875 31.623083333333334 25.875c5.3015 0 9.795125 3.236291666666667 11.348583333333334 7.712666666666667a2.7849166666666667 2.7849166666666667 0 0 1 0 1.8246666666666667C41.41916666666667 39.888708333333334 36.92458333333334 43.125 31.62116666666667 43.125c-5.3015 0 -9.795125 -3.236291666666667 -11.347624999999999 -7.712666666666667Z" stroke-width="2"></path><path id="Ellipse 18" stroke="#000" stroke-linecap="round" stroke-linejoin="round" d="M27.791666666666668 34.5a3.8333333333333335 3.8333333333333335 0 1 0 7.666666666666667 0 3.8333333333333335 3.8333333333333335 0 1 0 -7.666666666666667 0" stroke-width="2"></path></g></svg>