<svg xmlns="http://www.w3.org/2000/svg" fill="none" viewBox="-1 -1 48 48" height="48" width="48"><g id="rss-square--wireless-rss-feed-square-transmit-broadcast"><path id="Rectangle 1095" stroke="#000" stroke-linejoin="round" d="M2.4734583333333333 39.00033333333333c0.20316666666666666 2.448541666666667 2.077666666666667 4.3220833333333335 4.526208333333333 4.526208333333333C10.226374999999999 43.794875 15.457916666666666 44.083333333333336 23 44.083333333333336c7.543041666666667 0 12.773625000000001 -0.28941666666666666 16.000333333333334 -0.5567916666666667 2.448541666666667 -0.20316666666666666 4.3220833333333335 -2.077666666666667 4.526208333333333 -4.526208333333333C43.794875 35.773625 44.083333333333336 30.542083333333334 44.083333333333336 23c0 -7.543041666666667 -0.28941666666666666 -12.773625000000001 -0.5567916666666667 -16.000333333333334 -0.20316666666666666 -2.448541666666667 -2.077666666666667 -4.3220833333333335 -4.526208333333333 -4.526208333333333C35.773625 2.2051250000000002 30.542083333333334 1.9166666666666667 23 1.9166666666666667c-7.543041666666667 0 -12.773625000000001 0.28941666666666666 -16.000333333333334 0.5567916666666667 -2.448541666666667 0.20316666666666666 -4.3220833333333335 2.077666666666667 -4.526208333333333 4.526208333333333C2.2051250000000002 10.226374999999999 1.9166666666666667 15.457916666666666 1.9166666666666667 23c0 7.543041666666667 0.28941666666666666 12.773625000000001 0.5567916666666667 16.000333333333334Z" stroke-width="2"></path><path id="Union" stroke="#000" stroke-linecap="round" stroke-linejoin="round" d="M16.291666666666668 33.0625a3.354166666666667 3.354166666666667 0 1 1 -6.708333333333334 0 3.354166666666667 3.354166666666667 0 0 1 6.708333333333334 0Z" stroke-width="2"></path><path id="Union_2" stroke="#000" stroke-linecap="round" stroke-linejoin="round" d="M12.9375 19.166666666666668a2.3958333333333335 2.3958333333333335 0 0 0 0 4.791666666666667 9.104166666666668 9.104166666666668 0 0 1 9.104166666666668 9.104166666666668 2.3958333333333335 2.3958333333333335 0 0 0 4.791666666666667 0C26.833333333333336 25.388166666666667 20.611833333333333 19.166666666666668 12.9375 19.166666666666668Z" stroke-width="2"></path><path id="Union_3" stroke="#000" stroke-linecap="round" stroke-linejoin="round" d="M12.9375 7.666666666666667a2.3958333333333335 2.3958333333333335 0 0 0 0 4.791666666666667C24.31675 12.458333333333334 33.54166666666667 21.68325 33.54166666666667 33.0625a2.3958333333333335 2.3958333333333335 0 0 0 4.791666666666667 0C38.333333333333336 19.036333333333335 26.96366666666667 7.666666666666667 12.9375 7.666666666666667Z" stroke-width="2"></path></g></svg>