<svg xmlns="http://www.w3.org/2000/svg" fill="none" viewBox="-1 -1 48 48" height="48" width="48"><g id="widget"><path id="Rectangle 1096" stroke="#000" stroke-linecap="round" stroke-linejoin="round" d="M3.178791666666667 6.1879583333333334a3.234375 3.234375 0 0 1 3.0091666666666668 -3.0091666666666668C8.113249999999999 3.0283333333333338 11.109000000000002 2.875 15.333333333333334 2.875c4.223375 0 7.220083333333333 0.15333333333333335 9.145375 0.3037916666666667a3.234375 3.234375 0 0 1 3.0091666666666668 3.0091666666666668C27.638333333333335 8.113249999999999 27.791666666666668 11.109000000000002 27.791666666666668 15.333333333333334c0 4.223375 -0.15333333333333335 7.220083333333333 -0.3037916666666667 9.145375a3.234375 3.234375 0 0 1 -3.0091666666666668 3.0091666666666668C22.553416666666667 27.638333333333335 19.556708333333333 27.791666666666668 15.333333333333334 27.791666666666668c-4.224333333333334 0 -7.220083333333333 -0.15333333333333335 -9.145375 -0.3037916666666667a3.234375 3.234375 0 0 1 -3.0091666666666668 -3.0091666666666668C3.0283333333333338 22.553416666666667 2.875 19.556708333333333 2.875 15.333333333333334c0 -4.224333333333334 0.15333333333333335 -7.220083333333333 0.3037916666666667 -9.145375Z" stroke-width="2"></path><path id="Rectangle 1097" stroke="#000" stroke-linecap="round" stroke-linejoin="round" d="M33.56945833333334 21.16575c0.052708333333333336 -1.6368333333333334 1.2927916666666668 -2.876916666666667 2.929625 -2.929625 0.5270833333333333 -0.017249999999999998 1.1375416666666667 -0.02779166666666667 1.83425 -0.02779166666666667 0.6967083333333334 0 1.3062083333333334 0.010541666666666666 1.83425 0.02779166666666667 1.6368333333333334 0.052708333333333336 2.876916666666667 1.2927916666666668 2.929625 2.929625 0.017249999999999998 0.5270833333333333 0.02779166666666667 1.1375416666666667 0.02779166666666667 1.83425 0 0.6967083333333334 -0.010541666666666666 1.3062083333333334 -0.02779166666666667 1.83425 -0.052708333333333336 1.6368333333333334 -1.2927916666666668 2.876916666666667 -2.929625 2.929625 -0.5270833333333333 0.017249999999999998 -1.1375416666666667 0.02779166666666667 -1.83425 0.02779166666666667 -0.6967083333333334 0 -1.3062083333333334 -0.010541666666666666 -1.83425 -0.02779166666666667 -1.6368333333333334 -0.052708333333333336 -2.876916666666667 -1.2927916666666668 -2.929625 -2.929625A57.194291666666665 57.194291666666665 0 0 1 33.54166666666667 23c0 -0.6967083333333334 0.010541666666666666 -1.3062083333333334 0.02779166666666667 -1.83425Z" stroke-width="2"></path><path id="Rectangle 1098" stroke="#000" stroke-linecap="round" stroke-linejoin="round" d="M3.165375 35.538833333333336c0.27025 -1.1662916666666667 1.365625 -1.7949583333333334 2.5625833333333334 -1.825625C8.390208333333334 33.646125000000005 13.951416666666667 33.54166666666667 23 33.54166666666667s14.609791666666666 0.10350000000000001 17.272041666666667 0.17154166666666668c1.1969583333333336 0.03066666666666667 2.292333333333333 0.6593333333333333 2.5625833333333334 1.825625 0.16291666666666668 0.7024583333333333 0.290375 1.6262916666666667 0.290375 2.7945 0 1.1682083333333335 -0.12841666666666668 2.092041666666667 -0.290375 2.7945 -0.27025 1.1662916666666667 -1.365625 1.7949583333333334 -2.5625833333333334 1.825625 -2.6622500000000002 0.06708333333333334 -8.223458333333333 0.17154166666666668 -17.272041666666667 0.17154166666666668s-14.609791666666666 -0.10350000000000001 -17.272041666666667 -0.17154166666666668c-1.1969583333333336 -0.03066666666666667 -2.292333333333333 -0.6593333333333333 -2.5625833333333334 -1.825625C3.0024583333333337 40.425375 2.875 39.50154166666667 2.875 38.333333333333336c0 -1.1682083333333335 0.12841666666666668 -2.092041666666667 0.290375 -2.7945Z" stroke-width="2"></path><path id="Rectangle 1099" stroke="#000" stroke-linecap="round" stroke-linejoin="round" d="M33.56945833333334 5.832416666666667c0.052708333333333336 -1.6368333333333334 1.2927916666666668 -2.876916666666667 2.929625 -2.929625C37.02616666666667 2.885541666666667 37.636625 2.875 38.333333333333336 2.875c0.6967083333333334 0 1.3062083333333334 0.010541666666666666 1.83425 0.02779166666666667 1.6368333333333334 0.052708333333333336 2.876916666666667 1.2927916666666668 2.929625 2.929625 0.017249999999999998 0.5270833333333333 0.02779166666666667 1.1375416666666667 0.02779166666666667 1.83425 0 0.6967083333333334 -0.010541666666666666 1.3062083333333334 -0.02779166666666667 1.83425 -0.052708333333333336 1.6368333333333334 -1.2927916666666668 2.876916666666667 -2.929625 2.929625 -0.5270833333333333 0.017249999999999998 -1.1375416666666667 0.02779166666666667 -1.83425 0.02779166666666667 -0.6967083333333334 0 -1.3062083333333334 -0.010541666666666666 -1.83425 -0.02779166666666667 -1.6368333333333334 -0.052708333333333336 -2.876916666666667 -1.2927916666666668 -2.929625 -2.929625A57.19141666666667 57.19141666666667 0 0 1 33.54166666666667 7.666666666666667c0 -0.6967083333333334 0.010541666666666666 -1.3062083333333334 0.02779166666666667 -1.83425Z" stroke-width="2"></path></g></svg>