<svg xmlns="http://www.w3.org/2000/svg" fill="none" viewBox="-1 -1 48 48" height="48" width="48"><g id="ice-cream-2--cook-frozen-popsicle-freezer-nutrition-cream-stick-cold-ice-cooking"><path id="Rectangle 722" stroke="#000" stroke-linecap="round" stroke-linejoin="round" d="M16.300291666666666 3.0015c-4.225291666666666 0.17633333333333334 -7.322625 3.199875 -7.518125 7.42325A169.80900000000003 169.80900000000003 0 0 0 8.625 18.208333333333336c0 3.2190416666666666 0.06420833333333334 5.7720416666666665 0.15716666666666668 7.7835833333333335 0.1955 4.223375 3.2928333333333333 7.246916666666667 7.518125 7.42325 1.8016666666666665 0.07570833333333334 4.0135 0.1265 6.69875 0.1265 2.6871666666666667 0 4.899958333333334 -0.050791666666666666 6.700666666666667 -0.1265 4.225291666666666 -0.17633333333333334 7.322625 -3.198916666666667 7.518125 -7.42325 0.09295833333333334 -2.0105833333333334 0.15716666666666668 -4.564541666666667 0.15716666666666668 -7.7835833333333335s-0.06420833333333334 -5.773000000000001 -0.15716666666666668 -7.7835833333333335C37.022333333333336 6.2004166666666665 33.925 3.1778333333333335 29.69875 3.0015A160.3119166666667 160.3119166666667 0 0 0 23 2.875a161.19166666666666 161.19166666666666 0 0 0 -6.699708333333334 0.1265Z" stroke-width="2"></path><path id="Subtract" stroke="#000" stroke-linecap="round" stroke-linejoin="round" d="m18.404791666666664 33.485125000000004 -0.5865 4.389166666666667c-0.32295833333333335 2.4226666666666667 1.2228333333333334 4.753333333333334 3.6407083333333334 5.107916666666667 0.5874583333333333 0.08625 1.1298750000000002 0.14279166666666668 1.5410000000000001 0.14279166666666668 0.41208333333333336 0 0.9545 -0.0575 1.5419583333333333 -0.14375 2.4178750000000004 -0.35458333333333336 3.963666666666667 -2.6842916666666667 3.6397500000000003 -5.106958333333333l-0.5855416666666666 -4.389166666666667" stroke-width="2"></path><path id="Vector 1416" stroke="#000" stroke-linecap="round" stroke-linejoin="round" d="M18.208333333333336 12.458333333333334v11.5" stroke-width="2"></path><path id="Vector 1417" stroke="#000" stroke-linecap="round" stroke-linejoin="round" d="M27.791666666666668 12.458333333333334v11.5" stroke-width="2"></path></g></svg>