<svg xmlns="http://www.w3.org/2000/svg" fill="none" viewBox="-1 -1 48 48" height="48" width="48"><g id="creative-commons"><path id="Ellipse 19" stroke="#000" stroke-linecap="round" stroke-linejoin="round" d="M23 2.875a20.125 20.125 0 1 0 0 40.25 20.125 20.125 0 1 0 0 -40.25" stroke-width="2"></path><path id="Ellipse 20" stroke="#000" stroke-linecap="round" stroke-linejoin="round" d="M23 7.666666666666667a15.333333333333334 15.333333333333334 0 1 0 0 30.666666666666668 15.333333333333334 15.333333333333334 0 1 0 0 -30.666666666666668" stroke-width="2"></path><path id="Vector 1039" stroke="#000" stroke-linecap="round" stroke-linejoin="round" d="M21.083333333333336 18.861916666666666c-1.6406666666666667 -1.0340416666666667 -7.666666666666667 -1.55825 -7.666666666666667 4.138083333333333 0 5.6972916666666675 6.026000000000001 5.172125 7.666666666666667 4.137125" stroke-width="2"></path><path id="Vector 1040" stroke="#000" stroke-linecap="round" stroke-linejoin="round" d="M32.583333333333336 18.861916666666666c-1.6406666666666667 -1.0340416666666667 -7.666666666666667 -1.55825 -7.666666666666667 4.138083333333333 0 5.6972916666666675 6.026000000000001 5.172125 7.666666666666667 4.137125" stroke-width="2"></path></g></svg>