<svg xmlns="http://www.w3.org/2000/svg" fill="none" viewBox="-1 -1 48 48" height="48" width="48"><g id="toilet-sign-man--toilet-sign-restroom-bathroom-user-human-person-man-male"><path id="Union" stroke="#000" stroke-linecap="round" stroke-linejoin="round" d="M17.31325 15.539375c-1.549625 0.12841666666666668 -2.8232500000000003 1.15 -3.3129583333333334 2.6258333333333335a52.00395833333334 52.00395833333334 0 0 0 -2.2655 10.238833333333334c-0.175375 1.5285416666666667 0.9698333333333334 2.8548750000000003 2.506041666666667 2.9516666666666667 0.6171666666666668 0.03833333333333334 1.3263333333333334 0.07858333333333334 2.1150416666666665 0.115l0.7149166666666666 8.937416666666667c0.10541666666666667 1.3148333333333335 1.0925 2.3900833333333336 2.4054166666666665 2.5232916666666667 1.0158333333333334 0.10254166666666667 2.2693333333333334 0.19358333333333336 3.523791666666667 0.19358333333333336 1.2544583333333332 0 2.5089166666666665 -0.09104166666666667 3.523791666666667 -0.19358333333333336 1.3129166666666667 -0.13416666666666668 2.3 -1.2075 2.4054166666666665 -2.5232916666666667l0.7149166666666666 -8.937416666666667c0.7887083333333333 -0.03641666666666667 1.4988333333333335 -0.07666666666666667 2.116 -0.115 1.5352500000000002 -0.09679166666666668 2.681416666666667 -1.4231250000000002 2.5050833333333333 -2.9516666666666667a52.00491666666667 52.00491666666667 0 0 0 -2.2645416666666667 -10.238833333333334c-0.4906666666666667 -1.4758333333333333 -1.7642916666666668 -2.4974166666666666 -3.313916666666667 -2.6258333333333335C27.37575 15.429166666666669 25.507 15.333333333333334 23 15.333333333333334c-2.506041666666667 0 -4.37575 0.09679166666666668 -5.68675 0.20604166666666668Z" stroke-width="2"></path><path id="Ellipse 135" stroke="#000" stroke-linecap="round" stroke-linejoin="round" d="M16.770833333333336 9.104166666666668a6.229166666666667 6.229166666666667 0 1 0 12.458333333333334 0 6.229166666666667 6.229166666666667 0 1 0 -12.458333333333334 0" stroke-width="2"></path><path id="Vector 999" stroke="#000" stroke-linecap="round" stroke-linejoin="round" d="m23 33.54166666666667 0 9.583333333333334" stroke-width="2"></path></g></svg>