<svg xmlns="http://www.w3.org/2000/svg" fill="none" viewBox="-1 -1 48 48" height="48" width="48"><g id="earth-1--planet-earth-globe-world"><path id="Ellipse 18" stroke="#000" stroke-linecap="round" stroke-linejoin="round" d="M23 2.875c11.11475 0 20.125 9.01025 20.125 20.125s-9.01025 20.125 -20.125 20.125S2.875 34.11475 2.875 23 11.88525 2.875 23 2.875Z" stroke-width="2"></path><path id="Intersect" stroke="#000" stroke-linecap="round" stroke-linejoin="round" d="M14.926041666666666 41.208333333333336a35.192875 35.192875 0 0 0 2.6641666666666666 -7.1185c0.21370833333333333 -0.8414166666666667 0.16291666666666668 -1.7230833333333335 -0.18975000000000003 -2.5175416666666663 -0.7752916666666667 -1.7403333333333335 -2.5300000000000002 -4.835750000000001 -5.554500000000001 -5.9455a3.5343333333333335 3.5343333333333335 0 0 0 -0.7982916666666666 -0.18208333333333335c-1.12125 -0.135125 -4.413125000000001 -0.47533333333333333 -7.9656666666666665 -0.3085833333333334" stroke-width="2"></path><path id="Intersect_2" stroke="#000" stroke-linecap="round" stroke-linejoin="round" d="M38.43491666666667 35.630833333333335c-3.5975833333333336 -3.0743333333333336 -6.604833333333334 -8.726583333333334 -7.806583333333334 -11.184708333333333a2.8903333333333334 2.8903333333333334 0 0 0 -1.8438333333333334 -1.5342916666666666l-2.3115 -0.6133333333333334c-2.5645000000000002 -0.6804166666666667 -4.690083333333334 -2.7494583333333336 -4.2272083333333335 -5.3494166666666665 0.09966666666666667 -0.55775 0.25012500000000004 -1.1404166666666666 0.47245833333333337 -1.727875 0.5529583333333333 -1.4633749999999999 1.955 -2.3622916666666667 3.4662916666666668 -2.7897083333333335 2.669916666666667 -0.7542083333333334 7.27375 -1.9760833333333332 11.83925 -2.8203750000000003" stroke-width="2"></path></g></svg>