<svg xmlns="http://www.w3.org/2000/svg" fill="none" viewBox="-1 -1 48 48" height="48" width="48"><g id="html-five--language-five-code-programming-html"><path id="Vector 1677" stroke="#000" stroke-linejoin="round" d="M21.377541666666666 42.54425c-2.8587083333333334 -1.124125 -8.94125 -3.964625 -13.721416666666666 -9.276666666666667a4.843416666666667 4.843416666666667 0 0 1 -1.0695000000000001 -1.9799166666666665c-0.8835833333333334 -3.253541666666667 -3.3589583333333333 -13.306458333333333 -3.6780833333333334 -24.986625a2.661291666666667 2.661291666666667 0 0 1 2.412125 -2.7465833333333336C8.29725 3.2717500000000004 14.063541666666667 2.875 23 2.875c8.936458333333333 0 14.701791666666667 0.39675 17.679333333333336 0.6794583333333333a2.661291666666667 2.661291666666667 0 0 1 2.411166666666667 2.7465833333333336c-0.31912500000000005 11.680166666666668 -2.7935416666666666 21.733083333333337 -3.6780833333333334 24.986625a4.842458333333333 4.842458333333333 0 0 1 -1.0695000000000001 1.9799166666666665c-4.779208333333334 5.312041666666667 -10.86175 8.152541666666666 -13.720458333333333 9.276666666666667a4.417916666666667 4.417916666666667 0 0 1 -3.244916666666667 0Z" stroke-width="2"></path><path id="Vector 1678" stroke="#000" stroke-linecap="round" stroke-linejoin="round" d="M14.375 30.666666666666668c2.734125 2.734125 5.956041666666667 4.492666666666667 7.578500000000001 5.277541666666666 0.6650833333333334 0.3210416666666667 1.4279166666666667 0.3210416666666667 2.0930000000000004 0C25.668958333333336 35.159333333333336 28.890875 33.40079166666667 31.625 30.666666666666668c0 0 1.1059166666666667 -3.684791666666667 1.7010416666666666 -8.46975 0.13799999999999998 -1.112625 -0.7455833333333334 -2.0719166666666666 -1.8668333333333333 -2.0719166666666666H13.884333333333334c-0.8462083333333333 0 -1.5889166666666668 -0.5539166666666666 -1.7920833333333335 -1.3761666666666668a60.87908333333334 60.87908333333334 0 0 1 -1.3752083333333334 -7.778791666666668 1.8150833333333334 1.8150833333333334 0 0 1 1.6905000000000001 -2.0134583333333333C14.474666666666666 8.815708333333333 18.166166666666665 8.625 23 8.625c7.666666666666667 0 12.458333333333334 0.4791666666666667 12.458333333333334 0.4791666666666667" stroke-width="2"></path></g></svg>