<svg xmlns="http://www.w3.org/2000/svg" fill="none" viewBox="-1 -1 48 48" height="48" width="48"><g id="search-visual"><path id="Vector" stroke="#000" stroke-linecap="round" stroke-linejoin="round" d="M12.458333333333334 2.875s-2.9574166666666666 0 -6.091166666666667 0.18495833333333334a3.5075000000000003 3.5075000000000003 0 0 0 -3.3062500000000004 3.3062500000000004C2.875 9.499958333333334 2.875 12.458333333333334 2.875 12.458333333333334M33.54166666666667 2.875s2.9574166666666666 0 6.091166666666667 0.18495833333333334a3.5075000000000003 3.5075000000000003 0 0 1 3.3062500000000004 3.3062500000000004C43.125 9.499958333333334 43.125 12.458333333333334 43.125 12.458333333333334M33.54166666666667 43.125s2.9574166666666666 0 6.091166666666667 -0.18495833333333334a3.5075000000000003 3.5075000000000003 0 0 0 3.3062500000000004 -3.3062500000000004C43.125 36.50004166666667 43.125 33.54166666666667 43.125 33.54166666666667M12.458333333333334 43.125s-2.9574166666666666 0 -6.091166666666667 -0.18495833333333334a3.5075000000000003 3.5075000000000003 0 0 1 -3.3062500000000004 -3.3062500000000004C2.875 36.50004166666667 2.875 33.54166666666667 2.875 33.54166666666667" stroke-width="2"></path><path id="Union" stroke="#000" stroke-linecap="round" stroke-linejoin="round" d="M31.78791666666667 27.46104166666667A12.399875 12.399875 0 0 0 33.54166666666667 21.083333333333336c0 -6.880833333333333 -5.577500000000001 -12.458333333333334 -12.458333333333334 -12.458333333333334S8.625 14.2025 8.625 21.083333333333336s5.577500000000001 12.458333333333334 12.458333333333334 12.458333333333334a12.400833333333333 12.400833333333333 0 0 0 6.456291666666667 -1.8016666666666665l0.052708333333333336 0.06325c1.0541666666666667 1.2726666666666668 2.0930000000000004 2.525208333333333 3.2554583333333333 3.759541666666667 1.04075 1.1059166666666667 2.6105000000000005 1.2467916666666667 3.7145 0.204125a31.860750000000003 31.860750000000003 0 0 0 1.2697916666666667 -1.2697916666666667c1.0426666666666669 -1.1030416666666667 0.9008333333333333 -2.67375 -0.204125 -3.7145 -1.2352916666666667 -1.1624583333333334 -2.4878333333333336 -2.200333333333333 -3.759541666666667 -3.2545l-0.0805 -0.06708333333333334Z" stroke-width="2"></path><path id="Ellipse 17" stroke="#000" stroke-linecap="round" stroke-linejoin="round" d="M15.333333333333334 21.083333333333336a5.75 5.75 0 1 0 11.5 0 5.75 5.75 0 1 0 -11.5 0" stroke-width="2"></path></g></svg>