<svg xmlns="http://www.w3.org/2000/svg" fill="none" viewBox="-1 -1 48 48" height="48" width="48"><g id="wrench-circle--crescent-tool-construction-tools-wrench-setting-edit-adjust"><path id="Ellipse 19" stroke="#000" stroke-linecap="round" stroke-linejoin="round" d="M2.875 23a20.125 20.125 0 1 0 40.25 0 20.125 20.125 0 1 0 -40.25 0" stroke-width="2"></path><path id="Intersect" stroke="#000" stroke-linecap="round" stroke-linejoin="round" d="M17.635250000000003 42.40241666666667v-4.734166666666667c0 -1.5237500000000002 -0.9334166666666667 -2.862541666666667 -2.191708333333333 -3.7212083333333337a13.401333333333334 13.401333333333334 0 0 1 -5.857333333333334 -11.086c0 -4.7820833333333335 2.502208333333334 -8.979583333333332 6.269416666666666 -11.35625 1.135625 -0.715875 2.475375 0.21083333333333334 2.4744166666666665 1.5525000000000002 -0.0028750000000000004 2.7983333333333333 0.03833333333333334 5.612 0.16291666666666668 7.81425 0.021083333333333332 0.382375 0.1600416666666667 0.7475 0.42070833333333335 1.0273333333333334 0.5941666666666667 0.6382500000000001 1.8380833333333333 1.817 3.489291666666667 2.5232916666666667 0.3814166666666667 0.16291666666666668 0.813625 0.16291666666666668 1.1950416666666668 0 1.6071250000000001 -0.6880833333333334 2.8299583333333334 -1.8237083333333335 3.4404166666666667 -2.471541666666667 0.29325 -0.3105 0.43412500000000004 -0.7245 0.43412500000000004 -1.1519166666666667v-7.879416666666667c0 -1.3225 1.3129166666666667 -2.2377083333333334 2.446625 -1.5544166666666668 3.893708333333333 2.347916666666667 6.4975000000000005 6.61825 6.4975000000000005 11.496166666666667 0 4.6057500000000005 -2.3210833333333336 8.670041666666668 -5.858291666666667 11.085041666666667 -1.2573333333333334 0.8596250000000001 -2.19075 2.1984166666666667 -2.19075 3.722166666666667v4.733208333333334" stroke-width="2"></path></g></svg>