<svg xmlns="http://www.w3.org/2000/svg" fill="none" viewBox="-1 -1 48 48" height="48" width="48"><g id="volume-level-high--speaker-high-volume-control-audio-music-entertainment"><path id="Ellipse 68" stroke="#000" stroke-linecap="round" stroke-linejoin="round" d="M38.333333333333336 11.5c6.389208333333333 6.350875 6.389208333333333 16.649125 0 23" stroke-width="2"></path><path id="Ellipse 69" stroke="#000" stroke-linecap="round" stroke-linejoin="round" d="M33.54166666666667 15.333333333333334c3.8333333333333335 4.2339166666666666 3.8333333333333335 11.099416666666668 0 15.333333333333334" stroke-width="2"></path><path id="Union" stroke="#000" stroke-linejoin="round" d="M27.17066666666667 6.89425c-0.15045833333333333 -1.6598333333333333 -1.7259583333333333 -2.76 -3.2957083333333337 -2.1984166666666667C16.529333333333334 7.323583333333334 10.541666666666668 12.9375 10.541666666666668 12.9375s-2.6373333333333333 0.5855416666666666 -4.932541666666667 1.2995a3.1452500000000003 3.1452500000000003 0 0 0 -2.178291666666667 2.451416666666667A35.81483333333333 35.81483333333333 0 0 0 2.875 23c0 2.6526666666666667 0.29420833333333335 4.8645 0.5558333333333333 6.310625a3.1452500000000003 3.1452500000000003 0 0 0 2.178291666666667 2.451416666666667C7.904333333333333 32.476 10.541666666666668 33.0625 10.541666666666668 33.0625s5.987666666666667 5.613916666666666 13.333291666666668 8.241666666666667c1.56975 0.5615833333333333 3.1452500000000003 -0.5385833333333334 3.2957083333333337 -2.1984166666666667 0.27599999999999997 -3.066666666666667 0.621 -8.434291666666667 0.621 -16.10575s-0.345 -13.040041666666667 -0.621 -16.10575Z" stroke-width="2"></path><path id="Vector 1357" stroke="#000" stroke-linecap="round" stroke-linejoin="round" d="M10.541666666666668 12.9375s-0.4791666666666667 4.5865833333333335 -0.4791666666666667 10.0625 0.4791666666666667 10.0625 0.4791666666666667 10.0625" stroke-width="2"></path></g></svg>