<svg xmlns="http://www.w3.org/2000/svg" fill="none" viewBox="-1 -1 48 48" height="48" width="48"><g id="disable-alarm--time-tock-stopwatch-measure-clock-tick-disabled-off"><path id="Union" stroke="#000" stroke-linecap="round" stroke-linejoin="round" d="M36.526875000000004 42.706208333333336c-0.93725 0.2769583333333333 -1.8840833333333333 -0.20316666666666666 -2.451416666666667 -1.0005000000000002 -0.54625 -0.7666666666666667 -1.2803333333333335 -1.8016666666666665 -2.0460416666666665 -2.8903333333333334A18.124958333333336 18.124958333333336 0 0 1 23 41.208333333333336a18.122083333333332 18.122083333333332 0 0 1 -9.029416666666668 -2.3929583333333335 641.409625 641.409625 0 0 1 -2.0460416666666665 2.8903333333333334c-0.5673333333333334 0.7973333333333333 -1.5141666666666669 1.2774583333333334 -2.451416666666667 1.0005000000000002a4.840541666666667 4.840541666666667 0 0 1 -1.0445833333333334 -0.43412500000000004 4.8415 4.8415 0 0 1 -0.8989166666666667 -0.687125c-0.7082083333333333 -0.6737083333333334 -0.7657083333333334 -1.7345833333333334 -0.359375 -2.6239166666666667a606.5885833333333 606.5885833333333 0 0 1 1.9348750000000001 -4.192708333333334A18.136458333333334 18.136458333333334 0 0 1 4.791666666666667 23c0 -3.3158333333333334 0.8864583333333335 -6.425625 2.4360833333333334 -9.104166666666668m2.9593333333333334 -3.8333333333333335A18.150833333333335 18.150833333333335 0 0 1 23 4.791666666666667c10.055791666666668 0 18.208333333333336 8.152541666666666 18.208333333333336 18.208333333333336 0 4.4869166666666676 -1.6224583333333336 8.594333333333333 -4.3125 11.768333333333333A582.6283333333334 582.6283333333334 0 0 1 38.541291666666666 38.333333333333336" stroke-width="2"></path><path id="Subtract" stroke="#000" stroke-linecap="round" stroke-linejoin="round" d="M5.9244166666666676 16.66254166666667A7.655166666666667 7.655166666666667 0 0 1 2.9344166666666665 9.583333333333334m13.728125 -3.658916666666667A7.655166666666667 7.655166666666667 0 0 0 10.541666666666668 2.875c-2.04125 0 -3.8965833333333335 0.7982916666666666 -5.270833333333334 2.09875" stroke-width="2"></path><path id="Ellipse 76" stroke="#000" stroke-linecap="round" stroke-linejoin="round" d="M14.375 14.010833333333332A12.416166666666667 12.416166666666667 0 0 1 23 10.541666666666668c6.880833333333333 0 12.458333333333334 5.577500000000001 12.458333333333334 12.458333333333334 0 3.3474583333333334 -1.3205833333333332 6.386333333333333 -3.4691666666666667 8.625M11.5 18.199708333333334A12.420000000000002 12.420000000000002 0 0 0 10.541666666666668 23c0 6.880833333333333 5.577500000000001 12.458333333333334 12.458333333333334 12.458333333333334a12.420000000000002 12.420000000000002 0 0 0 4.800291666666667 -0.9583333333333334" stroke-width="2"></path><path id="Vector 864" stroke="#000" stroke-linecap="round" stroke-linejoin="round" d="m1.9166666666666667 1.9166666666666667 40.25 40.25" stroke-width="2"></path><path id="Subtract_2" stroke="#000" stroke-linecap="round" stroke-linejoin="round" d="M29.337458333333334 5.9244166666666676a7.666666666666667 7.666666666666667 0 1 1 10.738125 10.738125" stroke-width="2"></path></g></svg>