<svg xmlns="http://www.w3.org/2000/svg" fill="none" viewBox="-1 -1 48 48" height="48" width="48"><g id="pharmacy--health-medical-pharmacy-sign-medicine-mortar-pestle"><path id="Union" stroke="#000" stroke-linecap="round" stroke-linejoin="round" d="M40.839375000000004 13.9955c1.8754583333333334 0.15525 3.253541666666667 1.7345833333333334 3.1797500000000003 3.615791666666667 -0.20795833333333333 5.303416666666667 -0.8960416666666667 9.628375 -1.6291666666666667 12.870416666666667 -0.7858333333333333 3.4777916666666666 -2.9516666666666667 6.20425 -5.981916666666667 7.542083333333334 0.6967083333333334 0.5673333333333334 1.5620833333333333 1.495 1.8189166666666667 2.738916666666667 0.232875 1.1308333333333334 -0.8433333333333334 1.9578750000000003 -1.9962083333333336 2.0316666666666667C34.020833333333336 42.93333333333333 29.776375 43.125 22.998083333333334 43.125c-6.77925 0 -11.020833333333334 -0.19070833333333334 -13.231708333333334 -0.330625 -1.1509583333333335 -0.07379166666666667 -2.2271666666666667 -0.899875 -1.99525 -2.02975 0.2798333333333333 -1.3608333333333333 1.2899166666666668 -2.3440833333333337 2.009625 -2.8903333333333334 -3.1816666666666666 -1.5457916666666667 -5.411708333333333 -4.5683750000000005 -6.214791666666668 -8.333666666666666a75.01258333333334 75.01258333333334 0 0 1 -1.56975 -11.933166666666667 3.427958333333333 3.427958333333333 0 0 1 3.1625 -3.6119583333333334C8.3375 13.732916666666668 14.028083333333333 13.416666666666668 23 13.416666666666668s14.662500000000001 0.31625000000000003 17.840333333333334 0.5788333333333333Z" stroke-width="2"></path><path id="Subtract" stroke="#000" stroke-linecap="round" d="m23.608541666666667 13.417625 1.8639583333333334 -8.330791666666666c0.2798333333333333 -1.250625 1.3598750000000002 -2.1485833333333333 2.630625 -1.9799166666666665 0.7283333333333334 0.09583333333333334 1.61575 0.25875000000000004 2.6258333333333335 0.5299583333333334 1.0100833333333334 0.27025 1.8591666666666666 0.5740416666666667 2.538625 0.853875 1.1845 0.48875 1.6703750000000002 1.8074166666666667 1.288 3.03025l-1.8907916666666669 6.0375" stroke-width="2"></path><path id="Union_2" stroke="#000" stroke-linecap="round" stroke-linejoin="round" d="M20.209333333333333 34.618833333333335c0.025875000000000002 0.8596250000000001 0.54625 1.6052083333333333 1.3991666666666667 1.7154166666666668 0.37662500000000004 0.04791666666666667 0.8385416666666667 0.08241666666666667 1.3915 0.08241666666666667s1.014875 -0.034499999999999996 1.3924583333333334 -0.08241666666666667c0.8529166666666668 -0.11020833333333334 1.3723333333333334 -0.8557916666666667 1.3991666666666667 -1.7154166666666668 0.025875000000000002 -0.8740000000000001 0.05462500000000001 -2.17925 0.07091666666666667 -3.964625 1.7853750000000002 -0.01629166666666667 3.090625 -0.04504166666666667 3.964625 -0.071875 0.8596250000000001 -0.025875000000000002 1.6052083333333333 -0.54625 1.7154166666666668 -1.3991666666666667 0.04791666666666667 -0.37662500000000004 0.08241666666666667 -0.8385416666666667 0.08241666666666667 -1.3915s-0.034499999999999996 -1.014875 -0.08241666666666667 -1.3924583333333334c-0.11020833333333334 -0.8529166666666668 -0.8557916666666667 -1.3723333333333334 -1.7154166666666668 -1.3991666666666667a196.49666666666667 196.49666666666667 0 0 0 -3.964625 -0.07091666666666667 192.37391666666667 192.37391666666667 0 0 0 -0.071875 -3.964625c-0.025875000000000002 -0.8596250000000001 -0.54625 -1.6052083333333333 -1.3991666666666667 -1.7154166666666668C24.015833333333333 19.20116666666667 23.553916666666666 19.166666666666668 23 19.166666666666668s-1.014875 0.034499999999999996 -1.3924583333333334 0.08241666666666667c-0.8529166666666668 0.11020833333333334 -1.3723333333333334 0.8557916666666667 -1.3991666666666667 1.7154166666666668a196.49666666666667 196.49666666666667 0 0 0 -0.07091666666666667 3.964625c-1.7853750000000002 0.01629166666666667 -3.090625 0.04504166666666667 -3.964625 0.071875 -0.8596250000000001 0.025875000000000002 -1.6052083333333333 0.54625 -1.7154166666666668 1.3991666666666667 -0.04791666666666667 0.37662500000000004 -0.08241666666666667 0.8385416666666667 -0.08241666666666667 1.3915s0.034499999999999996 1.014875 0.08241666666666667 1.3924583333333334c0.11020833333333334 0.8529166666666668 0.8557916666666667 1.3723333333333334 1.7154166666666668 1.3991666666666667 0.8740000000000001 0.025875000000000002 2.17925 0.05462500000000001 3.964625 0.07091666666666667 0.01629166666666667 1.7853750000000002 0.04504166666666667 3.090625 0.071875 3.964625Z" stroke-width="2"></path></g></svg>