<svg xmlns="http://www.w3.org/2000/svg" fill="none" viewBox="-1 -1 48 48" height="48" width="48"><g id="high-speed-train-side"><path id="Rectangle 1095" stroke="#000" stroke-linecap="round" stroke-linejoin="round" d="m2.875 43.125 0 -19.634333333333334c0 -2.534791666666667 0.022041666666666668 -4.802208333333334 0.0575 -6.815666666666667C3.068583333333333 8.955625000000001 8.570375 2.875 16.291666666666668 2.875c4.2530833333333335 0 7.832458333333333 1.8447916666666668 10.212958333333333 4.791666666666667" stroke-width="2"></path><path id="Subtract" stroke="#000" stroke-linecap="round" stroke-linejoin="round" d="M7.666666666666667 38.333333333333336h16.1575c5.659916666666667 0 10.019375 -0.12841666666666668 13.271 -0.29133333333333333 4.350833333333333 -0.2175416666666667 7.25075 -4.255000000000001 5.5957083333333335 -8.283833333333334 -2.4677083333333334 -6.003 -6.049 -11.0745 -9.551708333333334 -14.4785 -2.092041666666667 -2.034541666666667 -4.954583333333334 -2.94975 -7.867916666666668 -3.121291666666667A393.7092083333333 393.7092083333333 0 0 0 9.583333333333334 11.569958333333334" stroke-width="2"></path><path id="Subtract_2" stroke="#000" stroke-linecap="round" stroke-linejoin="round" d="M16.2495 19.674583333333334a0.9583333333333334 0.9583333333333334 0 0 1 0.8126666666666666 -1.46625h7.937875c0.8912500000000001 0 1.7825000000000002 0.186875 2.521375 0.6861666666666667 2.0307083333333336 1.371375 3.6895833333333337 3.4250833333333333 4.748541666666667 4.949791666666667 0.6190833333333334 0.8912500000000001 -0.03929166666666667 2.02975 -1.1260416666666668 2.02975 -3.1069166666666668 -0.0009583333333333334 -7.399291666666667 0.0009583333333333334 -9.959 0.0009583333333333334 -0.66125 0 -1.2726666666666668 -0.34020833333333333 -1.6224583333333336 -0.9008333333333333l-3.3129583333333334 -5.2995833333333335Z" stroke-width="2"></path><path id="Subtract_3" stroke="#000" stroke-linecap="round" stroke-linejoin="round" d="m7.666666666666667 25.875 4.9795 0a0.9583333333333334 0.9583333333333334 0 0 0 0.8126666666666666 -1.46625l-3.3129583333333334 -5.2995833333333335A1.9166666666666667 1.9166666666666667 0 0 0 8.522458333333335 18.208333333333336H7.666666666666667" stroke-width="2"></path><path id="Vector 1446" stroke="#000" stroke-linecap="round" stroke-linejoin="round" d="M2.875 43.125h40.25" stroke-width="2"></path><path id="Vector 1456" stroke="#000" stroke-linecap="round" stroke-linejoin="round" d="M34.5 32.583333333333336 7.666666666666667 32.583333333333336" stroke-width="2"></path></g></svg>