<svg xmlns="http://www.w3.org/2000/svg" fill="none" viewBox="-1 -1 48 48" height="48" width="48"><g id="one-finger-tap"><path id="Union" stroke="#000" stroke-linecap="round" stroke-linejoin="round" d="M23.461916666666667 12.369208333333335c0.23 2.55875 0.5194166666666667 6.13525 0.5194166666666667 8.017416666666668 0 0 5.4126666666666665 1.1672500000000001 10.450625 3.1922083333333333 2.482083333333333 0.9985833333333334 3.9521666666666664 3.472041666666667 3.590875 6.12375a45.456625 45.456625 0 0 1 -1.84575 7.936916666666667c-0.9238333333333333 2.8270833333333334 -3.3733333333333335 4.848208333333334 -6.328833333333334 5.181708333333334 -1.5170416666666666 0.1725 -3.3215833333333338 0.3037916666666667 -5.28425 0.3037916666666667a45.62625 45.62625 0 0 1 -5.793125 -0.37375c-2.5875000000000004 -0.33349999999999996 -4.935416666666667 -1.6675 -6.1295 -3.986666666666667 -0.9937916666666666 -1.9300833333333332 -2.0815 -4.774416666666667 -2.7120833333333336 -8.703583333333334 -0.2798333333333333 -1.7499166666666668 0.41208333333333336 -3.495041666666667 1.7058333333333335 -4.705416666666667L14.375 22.793958333333336c0 -5.118458333333334 0.12458333333333334 -8.490833333333333 0.24916666666666668 -10.569458333333333 0.10254166666666667 -1.74225 1.2515833333333335 -3.2468333333333335 2.9804166666666667 -3.493125 0.45616666666666666 -0.06516666666666668 0.93725 -0.10733333333333334 1.4164166666666667 -0.10733333333333334 0.42933333333333334 0 0.8605833333333334 0.03354166666666667 1.273625 0.08816666666666667 1.8064583333333335 0.23479166666666668 3.0053333333333336 1.8419166666666666 3.16825 3.656041666666667Z" stroke-width="2"></path><path id="Ellipse 553" stroke="#000" stroke-linecap="round" stroke-linejoin="round" d="M29.708333333333336 13.416666666666668c0 -5.821875 -4.719791666666667 -10.541666666666668 -10.541666666666668 -10.541666666666668S8.625 7.594791666666667 8.625 13.416666666666668" stroke-width="2"></path></g></svg>