<svg viewBox="-1 -1 48 48" fill="none" xmlns="http://www.w3.org/2000/svg" height="48" width="48"><g id="device-database-encryption-1"><path id="Rectangle 1097" d="M22.105875 15.319916666666668c0.04695833333333334 1.5333333333333334 1.0857916666666667 2.7877916666666667 2.617208333333333 2.861583333333334a23.869208333333333 23.869208333333333 0 0 0 2.3038333333333334 0c1.5314166666666669 -0.07379166666666667 2.57025 -1.3292083333333333 2.617208333333333 -2.861583333333334C29.679583333333333 14.163208333333333 29.708333333333336 12.585791666666667 29.708333333333336 10.541666666666668c0 -2.044125 -0.02875 -3.621541666666667 -0.06420833333333334 -4.77825 -0.04695833333333334 -1.5333333333333334 -1.0857916666666667 -2.7877916666666667 -2.617208333333333 -2.861583333333334a23.7935 23.7935 0 0 0 -2.3038333333333334 0c-1.5314166666666669 0.07379166666666667 -2.57025 1.3292083333333333 -2.617208333333333 2.861583333333334A159.13316666666665 159.13316666666665 0 0 0 22.041666666666668 10.541666666666668c0 2.044125 0.02875 3.621541666666667 0.06420833333333334 4.77825Z" stroke="black" stroke-linecap="round" stroke-linejoin="round" stroke-width="2"></path><path id="Rectangle 1524" d="M12.522541666666667 36.40325c0.04695833333333334 1.5333333333333334 1.0857916666666667 2.7877916666666667 2.617208333333333 2.861583333333334a23.869208333333333 23.869208333333333 0 0 0 2.3038333333333334 0c1.5314166666666669 -0.07379166666666667 2.57025 -1.3292083333333333 2.617208333333333 -2.861583333333334C20.09625 35.24654166666667 20.125 33.669125 20.125 31.625c0 -2.044125 -0.02875 -3.621541666666667 -0.06420833333333334 -4.77825 -0.04695833333333334 -1.5333333333333334 -1.0857916666666667 -2.7877916666666667 -2.617208333333333 -2.861583333333334a23.869208333333333 23.869208333333333 0 0 0 -2.3038333333333334 0c-1.5314166666666669 0.07379166666666667 -2.57025 1.3292083333333333 -2.617208333333333 2.861583333333334A159.12741666666668 159.12741666666668 0 0 0 12.458333333333334 31.625c0 2.044125 0.02875 3.621541666666667 0.06420833333333334 4.77825Z" stroke="black" stroke-linecap="round" stroke-linejoin="round" stroke-width="2"></path><path id="Rectangle 56" d="M25.941125 34.704125000000005c0.09295833333333334 -1.6675 1.284166666666667 -2.807916666666667 2.94975 -2.9229166666666666C30.139583333333334 31.694958333333336 31.94125 31.625 34.5 31.625c2.699625 0 4.546333333333333 0.077625 5.788333333333334 0.17058333333333334 1.520875 0.11308333333333333 2.6277500000000003 1.1308333333333334 2.741791666666667 2.6517083333333336 0.05558333333333334 0.7398333333333333 0.09487500000000001 1.69625 0.09487500000000001 2.927708333333334 0 1.2305000000000001 -0.03833333333333334 2.187875 -0.09487500000000001 2.928666666666667 -0.115 1.5199166666666668 -1.2209166666666667 2.537666666666667 -2.741791666666667 2.65075 -1.242 0.09295833333333334 -3.0887083333333334 0.17058333333333334 -5.788333333333334 0.17058333333333334s-4.546333333333333 -0.077625 -5.788333333333334 -0.17058333333333334c-1.520875 -0.11308333333333333 -2.6277500000000003 -1.1308333333333334 -2.741791666666667 -2.6517083333333336A39.33766666666667 39.33766666666667 0 0 1 25.875 37.375c0 -1.0925 0.025875000000000002 -1.9693750000000003 0.066125 -2.670875Z" stroke="black" stroke-linecap="round" stroke-linejoin="round" stroke-width="2"></path><path id="Subtract" d="m39.18625 31.726583333333338 -0.12745833333333334 -3.3790833333333334a4.5616666666666665 4.5616666666666665 0 0 0 -9.117583333333332 0l-0.12841666666666668 3.3790833333333334" stroke="black" stroke-linecap="round" stroke-linejoin="round" stroke-width="2"></path><path id="Vector 1114" d="M34.5 36.41666666666667v1.9166666666666667" stroke="black" stroke-linecap="round" stroke-linejoin="round" stroke-width="2"></path><path id="Vector 1115" d="M2.875 2.875h2.875a0.9583333333333334 0.9583333333333334 0 0 1 0.9583333333333334 0.9583333333333334v14.375" stroke="black" stroke-linecap="round" stroke-linejoin="round" stroke-width="2"></path><path id="Vector 1116" d="M12.458333333333334 2.875h2.875a0.9583333333333334 0.9583333333333334 0 0 1 0.9583333333333334 0.9583333333333334v14.375" stroke="black" stroke-linecap="round" stroke-linejoin="round" stroke-width="2"></path><path id="Vector 1117" d="M2.875 23.958333333333336h2.875a0.9583333333333334 0.9583333333333334 0 0 1 0.9583333333333334 0.9583333333333334v14.375" stroke="black" stroke-linecap="round" stroke-linejoin="round" stroke-width="2"></path></g></svg>