<svg xmlns="http://www.w3.org/2000/svg" fill="none" viewBox="-1 -1 48 48" height="48" width="48"><g id="customer-support-3--customer-headset-help-microphone-phone-support"><path id="Ellipse 28" stroke="#000" stroke-linecap="round" stroke-linejoin="round" d="M23 43.125c13.895833333333334 0 19.166666666666668 -2.875 19.166666666666668 -13.416666666666668" stroke-width="2"></path><path id="Vector" stroke="#000" stroke-linecap="round" stroke-linejoin="round" d="M6.519541666666667 34.29204166666667C4.905708333333333 33.88858333333334 3.8333333333333335 32.415625000000006 3.8333333333333335 30.75291666666667L3.8333333333333335 27.791666666666668l0 -2.9593333333333334c0 -1.6636666666666666 1.072375 -3.1375833333333336 2.6862083333333335 -3.5410416666666666 1.55825 -0.3900416666666667 3.6052500000000003 -0.8280000000000001 5.61775 -1.0388333333333335 1.3780833333333333 -0.14470833333333333 2.5913333333333335 0.6631666666666667 2.8203750000000003 2.0287916666666668 0.20125 1.1921666666666666 0.3756666666666667 2.9622083333333338 0.3756666666666667 5.510416666666667 0 2.549166666666667 -0.175375 4.319208333333333 -0.3756666666666667 5.510416666666667 -0.23 1.365625 -1.4422916666666665 2.1734999999999998 -2.8203750000000003 2.02975 -2.0125 -0.21083333333333334 -4.0595 -0.64975 -5.61775 -1.0397916666666667Z" stroke-width="2"></path><path id="Vector_2" stroke="#000" stroke-linecap="round" stroke-linejoin="round" d="M39.48045833333334 34.29204166666667C41.09429166666667 33.88858333333334 42.16666666666667 32.415625000000006 42.16666666666667 30.75291666666667L42.16666666666667 27.791666666666668l0 -2.9593333333333334c0 -1.6636666666666666 -1.072375 -3.1375833333333336 -2.6862083333333335 -3.5410416666666666 -1.55825 -0.3900416666666667 -3.6052500000000003 -0.8280000000000001 -5.61775 -1.0388333333333335 -1.3780833333333333 -0.14470833333333333 -2.5913333333333335 0.6631666666666667 -2.8203750000000003 2.0287916666666668C30.841083333333337 23.47341666666667 30.666666666666668 25.243458333333336 30.666666666666668 27.791666666666668c0 2.549166666666667 0.175375 4.319208333333333 0.3756666666666667 5.510416666666667 0.23 1.365625 1.4422916666666665 2.1734999999999998 2.8203750000000003 2.02975 2.0125 -0.21083333333333334 4.0595 -0.64975 5.61775 -1.0397916666666667Z" stroke-width="2"></path><path id="Subtract" stroke="#000" stroke-linecap="round" stroke-linejoin="round" d="M42.16666666666667 24.831375V22.041666666666668c0 -10.585749999999999 -8.580916666666667 -19.166666666666668 -19.166666666666668 -19.166666666666668S3.8333333333333335 11.455916666666667 3.8333333333333335 22.041666666666668v2.7897083333333335m32.54116666666667 -4.2147499999999996C35.828250000000004 13.905416666666667 30.049500000000002 8.625 23 8.625c-7.048541666666667 0 -12.82825 5.2804166666666665 -13.3745 11.991625" stroke-width="2"></path></g></svg>