<svg xmlns="http://www.w3.org/2000/svg" fill="none" viewBox="-1 -1 48 48" height="48" width="48"><g id="firefighter-truck"><path id="Vector 1445" stroke="#000" stroke-linecap="round" stroke-linejoin="round" d="M32.583333333333336 2.875 6.349916666666667 15.539375" stroke-width="2"></path><path id="Ellipse 42" stroke="#000" stroke-linecap="round" stroke-linejoin="round" d="M27.791666666666668 38.333333333333336a4.791666666666667 4.791666666666667 0 1 0 9.583333333333334 0 4.791666666666667 4.791666666666667 0 0 0 -9.583333333333334 0Z" stroke-width="2"></path><path id="Ellipse 43" stroke="#000" stroke-linecap="round" stroke-linejoin="round" d="M8.625 38.333333333333336a4.791666666666667 4.791666666666667 0 1 0 9.583333333333334 0 4.791666666666667 4.791666666666667 0 0 0 -9.583333333333334 0Z" stroke-width="2"></path><path id="Subtract" stroke="#000" stroke-linecap="round" stroke-linejoin="round" d="M37.37116666666667 38.13879166666666c1.3100416666666668 -0.04695833333333334 2.415958333333333 -0.09583333333333334 3.296666666666667 -0.140875a2.73125 2.73125 0 0 0 2.6085833333333333 -2.60475 94.38625 94.38625 0 0 0 -0.049833333333333334 -8.88375 6.689166666666667 6.689166666666667 0 0 0 -0.8816666666666667 -2.9919166666666666c-1.8447916666666668 -3.198916666666667 -3.6109999999999998 -5.505625 -4.727458333333334 -6.839625a4.51375 4.51375 0 0 0 -2.9880833333333334 -1.5975416666666669c-2.4217083333333336 -0.2577916666666667 -4.673791666666666 -0.17058333333333334 -6.254083333333333 -0.031625 -1.3330416666666667 0.11691666666666667 -2.3095833333333338 1.2314583333333333 -2.353666666666667 2.568333333333334 -0.017249999999999998 0.520375 -0.03258333333333334 1.0369166666666667 -0.046000000000000006 1.549625h-4.015416666666667l-0.025875000000000002 -1.058a2.819416666666667 2.819416666666667 0 0 0 -2.8587083333333334 -2.7504166666666667 568.2916666666667 568.2916666666667 0 0 0 -13.274833333333333 0.347875c-1.4288750000000001 0.052708333333333336 -2.5932500000000003 1.1519166666666667 -2.6775833333333336 2.5798333333333336C3.0053333333333336 20.272583333333333 2.875 23.40825 2.875 27.53675c0 3.8065 0.11116666666666668 6.406458333333333 0.22041666666666668 8.046166666666668 0.089125 1.3387916666666668 1.1595833333333334 2.345041666666667 2.4993333333333334 2.4102083333333337 0.805 0.03929166666666667 1.8179583333333333 0.08337499999999999 3.0350416666666664 0.1265" stroke-width="2"></path><path id="Subtract_2" stroke="#000" stroke-linecap="round" stroke-linejoin="round" d="M27.791666666666668 38.333333333333336h-8.625v-0.008624999999999999l-0.9583333333333334 -0.0067083333333333335" stroke-width="2"></path><path id="Subtract_3" stroke="#000" stroke-linecap="round" stroke-linejoin="round" d="M28.751916666666666 15.017083333333334c0.012458333333333333 -1.0857916666666667 0.089125 -2.157208333333333 0.17729166666666668 -3.0570833333333334 0.13416666666666668 -1.3771250000000002 1.3129166666666667 -2.376666666666667 2.695791666666667 -2.376666666666667s2.5616250000000003 0.9995416666666667 2.695791666666667 2.376666666666667c0.089125 0.9132916666666666 0.16674999999999998 2.0029166666666667 0.17825 3.1069166666666668" stroke-width="2"></path><path id="Vector 734" stroke="#000" stroke-linecap="round" stroke-linejoin="round" d="M37.641416666666665 24.998125c-0.5337916666666668 -0.9650416666666666 -2.0220833333333332 -3.43275 -3.8218333333333336 -4.55975a1.4537916666666666 1.4537916666666666 0 0 0 -0.5960833333333333 -0.20508333333333334 13.42625 13.42625 0 0 0 -1.9722499999999998 -0.10350000000000001c-0.7398333333333333 0.023958333333333335 -1.2985416666666667 0.6104583333333333 -1.35125 1.3493333333333333 -0.11212500000000002 1.5371666666666668 -0.025875000000000002 3.481625 0.05462500000000001 4.726500000000001 0.048875 0.7570833333333334 0.5615833333333333 1.4049166666666666 1.3129166666666667 1.5141666666666669 1.5400416666666668 0.22520833333333332 3.5228333333333337 0.198375 4.804125 0.14566666666666667 0.78775 -0.03258333333333334 1.4633749999999999 -0.5682916666666666 1.62725 -1.3387916666666668a8.94125 8.94125 0 0 0 0.12075000000000001 -0.6804166666666667 1.3819166666666667 1.3819166666666667 0 0 0 -0.17825 -0.848125Z" stroke-width="2"></path><path id="Vector 1442" stroke="#000" stroke-linecap="round" stroke-linejoin="round" d="m8.145833333333334 21.5625 8.625 0" stroke-width="2"></path><path id="Vector 1443" stroke="#000" stroke-linecap="round" stroke-linejoin="round" d="m8.145833333333334 27.3125 8.625 0" stroke-width="2"></path></g></svg>