<svg xmlns="http://www.w3.org/2000/svg" fill="none" viewBox="-1 -1 48 48" height="48" width="48"><g id="ai-generate-variation-spark--module-application-artificial-intelligence-ai"><path id="Rectangle 124" stroke="#000" stroke-linejoin="round" d="M2.0623333333333336 40.59116666666667c0.10541666666666667 1.65025 1.17875 2.929625 2.818458333333333 3.152916666666667 1.3416666666666666 0.18304166666666669 3.3129583333333334 0.33925 6.140041666666667 0.33925s4.799333333333333 -0.15620833333333334 6.140041666666667 -0.33925c1.63875 -0.2232916666666667 2.714 -1.5026666666666668 2.818458333333333 -3.152916666666667 0.0805 -1.2544583333333332 0.14566666666666667 -3.0599583333333333 0.14566666666666667 -5.612s-0.06516666666666668 -4.357541666666666 -0.14566666666666667 -5.612c-0.10541666666666667 -1.65025 -1.17875 -2.929625 -2.818458333333333 -3.152916666666667 -1.3416666666666666 -0.18304166666666669 -3.3129583333333334 -0.33925 -6.140041666666667 -0.33925s-4.798375 0.15620833333333334 -6.140041666666667 0.33925c-1.63875 0.2232916666666667 -2.714 1.5026666666666668 -2.818458333333333 3.152916666666667C1.9818333333333336 30.621625 1.9166666666666667 32.427125000000004 1.9166666666666667 34.97916666666667s0.06516666666666668 4.357541666666666 0.14566666666666667 5.612Z" stroke-width="2"></path><path id="Rectangle 125" stroke="#000" stroke-linejoin="round" d="M2.0623333333333336 5.408833333333334c0.10541666666666667 -1.65025 1.17875 -2.929625 2.818458333333333 -3.152916666666667C6.222458333333334 2.072875 8.193750000000001 1.9166666666666667 11.020833333333334 1.9166666666666667s4.799333333333333 0.15620833333333334 6.140041666666667 0.33925c1.63875 0.2232916666666667 2.714 1.5026666666666668 2.818458333333333 3.152916666666667 0.0805 1.2544583333333332 0.14566666666666667 3.0599583333333333 0.14566666666666667 5.612s-0.06516666666666668 4.357541666666666 -0.14566666666666667 5.612c-0.10541666666666667 1.65025 -1.17875 2.929625 -2.818458333333333 3.152916666666667 -1.3416666666666666 0.18304166666666669 -3.3129583333333334 0.33925 -6.140041666666667 0.33925s-4.798375 -0.15620833333333334 -6.140041666666667 -0.33925c-1.63875 -0.2232916666666667 -2.714 -1.5026666666666668 -2.818458333333333 -3.152916666666667C1.9818333333333336 15.378375000000002 1.9166666666666667 13.572875000000002 1.9166666666666667 11.020833333333334s0.06516666666666668 -4.357541666666666 0.14566666666666667 -5.612Z" stroke-width="2"></path><path id="Rectangle 123" stroke="#000" stroke-linejoin="round" d="M40.59116666666667 43.937666666666665c1.65025 -0.10541666666666667 2.929625 -1.17875 3.152916666666667 -2.818458333333333 0.18304166666666669 -1.3416666666666666 0.33925 -3.3129583333333334 0.33925 -6.140041666666667s-0.15620833333333334 -4.799333333333333 -0.33925 -6.140041666666667c-0.2232916666666667 -1.63875 -1.5026666666666668 -2.714 -3.152916666666667 -2.818458333333333C39.336708333333334 25.94016666666667 37.53120833333333 25.875 34.97916666666667 25.875s-4.357541666666666 0.06516666666666668 -5.612 0.14566666666666667c-1.65025 0.10541666666666667 -2.929625 1.17875 -3.152916666666667 2.818458333333333 -0.18304166666666669 1.3416666666666666 -0.33925 3.3129583333333334 -0.33925 6.140041666666667s0.15620833333333334 4.799333333333333 0.33925 6.140041666666667c0.2232916666666667 1.63875 1.5026666666666668 2.714 3.152916666666667 2.818458333333333 1.2544583333333332 0.0805 3.0599583333333333 0.14566666666666667 5.612 0.14566666666666667s4.357541666666666 -0.06516666666666668 5.612 -0.14566666666666667Z" stroke-width="2"></path><path id="Star 10" stroke="#000" d="M34.138708333333334 2.4955000000000003a0.9583333333333334 0.9583333333333334 0 0 1 1.6809166666666668 0l1.909 3.49025a5.75 5.75 0 0 0 2.285625 2.285625l3.49025 1.909a0.9583333333333334 0.9583333333333334 0 0 1 0 1.6809166666666668l-3.49025 1.909a5.75 5.75 0 0 0 -2.285625 2.285625l-1.909 3.49025a0.9583333333333334 0.9583333333333334 0 0 1 -1.6809166666666668 0l-1.909 -3.49025a5.75 5.75 0 0 0 -2.285625 -2.285625l-3.49025 -1.909a0.9583333333333334 0.9583333333333334 0 0 1 0 -1.6809166666666668l3.49025 -1.909a5.75 5.75 0 0 0 2.285625 -2.285625l1.909 -3.49025Z" stroke-width="2"></path></g></svg>