<svg xmlns="http://www.w3.org/2000/svg" fill="none" viewBox="-1 -1 48 48" height="48" width="48"><g id="stock--price-stock-wallstreet-dollar-money-currency-fluctuate-candlestick-business"><path id="Vector 1639" stroke="#000" stroke-linecap="round" stroke-linejoin="round" d="M7.666666666666667 2.9162083333333335 7.666666666666667 10.541666666666668" stroke-width="2"></path><path id="Vector 1641" stroke="#000" stroke-linecap="round" stroke-linejoin="round" d="M7.666666666666667 31.625v5.75" stroke-width="2"></path><path id="Vector 1640" stroke="#000" stroke-linecap="round" stroke-linejoin="round" d="m23.958333333333336 37.41620833333334 0 5.75" stroke-width="2"></path><path id="Vector 1642" stroke="#000" stroke-linecap="round" stroke-linejoin="round" d="M23.958333333333336 14.416208333333334 23.958333333333336 22.041666666666668" stroke-width="2"></path><path id="Rectangle 1096" stroke="#000" stroke-linecap="round" stroke-linejoin="round" d="M2.9487916666666667 14.739166666666668c0.059416666666666666 -2.253041666666667 1.5592083333333333 -4.11125 3.81225 -4.183125a28.5775 28.5775 0 0 1 1.81125 0c2.253041666666667 0.071875 3.7528333333333332 1.9300833333333332 3.8112916666666665 4.183125 0.04120833333333333 1.5678333333333332 0.07475 3.6637083333333336 0.07475 6.344166666666667s-0.03354166666666667 4.7763333333333335 -0.07475 6.344166666666667c-0.058458333333333334 2.253041666666667 -1.55825 4.11125 -3.8112916666666665 4.183125a28.5775 28.5775 0 0 1 -1.81125 0c-2.253041666666667 -0.071875 -3.7528333333333332 -1.9300833333333332 -3.81225 -4.183125A243.820125 243.820125 0 0 1 2.875 21.083333333333336c0 -2.6804583333333336 0.03354166666666667 -4.7763333333333335 0.07379166666666667 -6.344166666666667Z" stroke-width="2"></path><path id="Rectangle 1097" stroke="#000" stroke-linecap="round" stroke-linejoin="round" d="M19.203083333333336 26.361833333333333c0.0575 -2.385291666666667 1.7441666666666669 -4.2780000000000005 4.129458333333334 -4.315375a40.89208333333334 40.89208333333334 0 0 1 1.2515833333333335 0c2.385291666666667 0.03833333333333334 4.072916666666667 1.9300833333333332 4.129458333333334 4.315375 0.022041666666666668 0.9343750000000001 0.03641666666666667 2.0460416666666665 0.03641666666666667 3.3465000000000003a142.50416666666666 142.50416666666666 0 0 1 -0.03641666666666667 3.3465000000000003c-0.0575 2.385291666666667 -1.7441666666666669 4.2780000000000005 -4.129458333333334 4.315375a40.89208333333334 40.89208333333334 0 0 1 -1.2515833333333335 0c-2.385291666666667 -0.03833333333333334 -4.072916666666667 -1.9300833333333332 -4.129458333333334 -4.314416666666666C19.18104166666667 32.12045833333334 19.166666666666668 31.007833333333338 19.166666666666668 29.708333333333336c0 -1.3004583333333333 0.014375 -2.412125 0.03641666666666667 -3.3465000000000003Z" stroke-width="2"></path><path id="Vector" stroke="#000" stroke-linecap="round" stroke-linejoin="round" d="M43.125 7.290041666666667S41.208333333333336 5.75 38.333333333333336 5.75c-2.3958333333333335 0 -4.791666666666667 1.5400416666666668 -4.791666666666667 3.59375 0 5.133791666666667 9.583333333333334 2.0537083333333332 9.583333333333334 7.1875 0 2.0537083333333332 -2.3958333333333335 3.59375 -4.791666666666667 3.59375 -2.875 0 -4.791666666666667 -1.5400416666666668 -4.791666666666667 -1.5400416666666668" stroke-width="2"></path><path id="Vector 837" stroke="#000" stroke-linecap="round" stroke-linejoin="round" d="m38.333333333333336 5.75 0 -2.875" stroke-width="2"></path><path id="Vector 838" stroke="#000" stroke-linecap="round" stroke-linejoin="round" d="m38.333333333333336 23 0 -2.875" stroke-width="2"></path></g></svg>