<svg xmlns="http://www.w3.org/2000/svg" fill="none" viewBox="-1 -1 48 48" height="48" width="48"><g id="reduced-inequalities"><path id="Rectangle 1100" stroke="#000" stroke-linejoin="round" d="M14.375 10.541666666666668c1.43175 -1.8975 4.823291666666667 -5.415541666666667 7.789333333333333 -7.2037916666666675a1.6147916666666668 1.6147916666666668 0 0 1 1.6713333333333333 0C26.801708333333334 5.126125 30.193250000000003 8.643208333333334 31.625 10.541666666666668l-8.625 0 -8.625 0Z" stroke-width="2"></path><path id="Rectangle 1102" stroke="#000" stroke-linejoin="round" d="M35.458333333333336 14.375c1.8984583333333336 1.43175 5.415541666666667 4.823291666666667 7.20475 7.789333333333333a1.6147916666666668 1.6147916666666668 0 0 1 0 1.6713333333333333C40.87291666666667 26.801708333333334 37.35583333333333 30.193250000000003 35.458333333333336 31.625l0 -8.625 0 -8.625Z" stroke-width="2"></path><path id="Rectangle 1101" stroke="#000" stroke-linejoin="round" d="M14.375 35.458333333333336c1.43175 1.8984583333333336 4.823291666666667 5.415541666666667 7.789333333333333 7.20475a1.6147916666666668 1.6147916666666668 0 0 0 1.6713333333333333 0C26.801708333333334 40.87291666666667 30.193250000000003 37.35583333333333 31.625 35.458333333333336l-8.625 0 -8.625 0Z" stroke-width="2"></path><path id="Rectangle 1103" stroke="#000" stroke-linejoin="round" d="M10.541666666666668 14.375c-1.8984583333333336 1.43175 -5.4165 4.823291666666667 -7.20475 7.789333333333333a1.6147916666666668 1.6147916666666668 0 0 0 0 1.6713333333333333C5.125166666666667 26.801708333333334 8.644166666666667 30.193250000000003 10.541666666666668 31.625l0 -8.625 0 -8.625Z" stroke-width="2"></path><path id="Rectangle 1096" stroke="#000" stroke-linejoin="round" d="M17.821166666666667 15.868083333333335c-1.0311666666666668 0.026833333333333334 -1.9214583333333333 0.658375 -1.9885416666666669 1.687625a10.080708333333334 10.080708333333334 0 0 0 0 1.3052500000000002c0.06708333333333334 1.02925 0.9573750000000001 1.6607916666666669 1.9885416666666669 1.6866666666666668 1.1135833333333334 0.02875 2.8117500000000004 0.056541666666666664 5.178833333333333 0.056541666666666664 2.3670833333333334 0 4.06525 -0.02779166666666667 5.178833333333333 -0.05558333333333334 1.0311666666666668 -0.026833333333333334 1.9214583333333333 -0.658375 1.9885416666666669 -1.687625a10.080708333333334 10.080708333333334 0 0 0 0 -1.3052500000000002c-0.06708333333333334 -1.02925 -0.9573750000000001 -1.6607916666666669 -1.9885416666666669 -1.6866666666666668 -1.1135833333333334 -0.02875 -2.8117500000000004 -0.056541666666666664 -5.178833333333333 -0.056541666666666664 -2.3670833333333334 0 -4.06525 0.02779166666666667 -5.178833333333333 0.05558333333333334Z" stroke-width="2"></path><path id="Rectangle 1104" stroke="#000" stroke-linejoin="round" d="M17.821166666666667 25.451416666666667c-1.0311666666666668 0.026833333333333334 -1.9214583333333333 0.658375 -1.9885416666666669 1.687625a10.080708333333334 10.080708333333334 0 0 0 0 1.3052500000000002c0.06708333333333334 1.02925 0.9573750000000001 1.6607916666666669 1.9885416666666669 1.6866666666666668 1.1135833333333334 0.02875 2.8117500000000004 0.056541666666666664 5.178833333333333 0.056541666666666664 2.3670833333333334 0 4.06525 -0.02779166666666667 5.178833333333333 -0.05558333333333334 1.0311666666666668 -0.026833333333333334 1.9214583333333333 -0.658375 1.9885416666666669 -1.687625a10.080708333333334 10.080708333333334 0 0 0 0 -1.3052500000000002c-0.06708333333333334 -1.02925 -0.9573750000000001 -1.6607916666666669 -1.9885416666666669 -1.6866666666666668 -1.1135833333333334 -0.02875 -2.8117500000000004 -0.056541666666666664 -5.178833333333333 -0.056541666666666664 -2.3670833333333334 0 -4.06525 0.02779166666666667 -5.178833333333333 0.05558333333333334Z" stroke-width="2"></path></g></svg>