<svg xmlns="http://www.w3.org/2000/svg" fill="none" viewBox="-1 -1 48 48" height="48" width="48"><g id="VPN-connection"><path id="Rectangle 136" stroke="#000" stroke-linecap="round" stroke-linejoin="round" d="M3.2640833333333337 9.685875c0.059416666666666666 -1.003375 0.8941250000000001 -1.772916666666667 1.8975 -1.84 6.389208333333333 -0.42550000000000004 13.128208333333333 -2.96125 16.172833333333337 -4.23775a4.311541666666667 4.311541666666667 0 0 1 3.331166666666667 0c3.0446250000000004 1.2765000000000002 9.783625 3.81225 16.172833333333337 4.23775 1.003375 0.06708333333333334 1.8380833333333333 0.8366250000000001 1.8975 1.84 0.14854166666666668 2.477291666666667 0.3890833333333334 7.130000000000001 0.3890833333333334 11.301625 0 1.0350000000000001 -0.02875 2.0700000000000003 -0.07858333333333334 3.0752916666666668 -0.2836666666666667 5.810375 -3.4404166666666667 11.05725 -8.381583333333333 14.129666666666667C30.673375 40.67550000000001 25.979458333333337 43.125 23 43.125s-7.673375 -2.4495 -11.664833333333334 -4.932541666666667c-4.9402083333333335 -3.072416666666667 -8.097916666666666 -8.318333333333333 -8.381583333333333 -14.129666666666667A63.36500000000001 63.36500000000001 0 0 1 2.875 20.9875c0 -4.171625 0.23958333333333334 -8.824333333333334 0.3890833333333334 -11.301625Z" stroke-width="2"></path><path id="Ellipse 68" stroke="#000" stroke-linecap="round" stroke-linejoin="round" d="M11.5 19.166666666666668c6.350875 -7.666666666666667 16.649125 -7.666666666666667 23 0" stroke-width="2"></path><path id="Ellipse 69" stroke="#000" stroke-linecap="round" stroke-linejoin="round" d="M15.333333333333334 23.958333333333336c4.2339166666666666 -5.110791666666667 11.099416666666668 -5.110791666666667 15.333333333333334 0" stroke-width="2"></path><path id="Ellipse 67" stroke="#000" stroke-linecap="round" stroke-linejoin="round" d="M20.125 29.708333333333336a2.875 2.875 0 1 0 5.75 0 2.875 2.875 0 1 0 -5.75 0" stroke-width="2"></path></g></svg>