<svg xmlns="http://www.w3.org/2000/svg" fill="none" viewBox="-1 -1 48 48" height="48" width="48"><g id="invisible-2"><path id="Union" stroke="#000" stroke-linecap="round" stroke-linejoin="round" d="M6.556916666666667 17.789541666666665c-0.238625 -0.3344583333333333 -0.5711666666666667 -0.6085416666666666 -0.9822916666666667 -0.6152500000000001 -0.6296250000000001 -0.010541666666666666 -1.6253333333333333 0.20795833333333333 -2.451416666666667 1.449 -0.33829166666666666 0.5088750000000001 -0.28558333333333336 1.1720416666666669 0.04025 1.6885833333333333a23.790625 23.790625 0 0 0 4.0633333333333335 4.871208333333334L3.9828333333333332 28.040833333333335c-0.8816666666666667 0.7762500000000001 -1.2142083333333333 2.0374166666666667 -0.5050416666666667 2.974666666666667 0.299 0.393875 0.6737083333333334 0.805 1.1337083333333333 1.1691666666666667 0.9027499999999999 0.7139583333333334 2.1514583333333337 0.32966666666666666 2.9047083333333337 -0.5405l3.2727083333333336 -3.780625a23.440833333333334 23.440833333333334 0 0 0 4.877916666666667 2.2683750000000003l-1.6215 4.808916666666667c-0.37470833333333337 1.1135833333333334 -0.03258333333333334 2.370916666666667 1.0503333333333336 2.828041666666667 0.45616666666666666 0.19166666666666668 0.9861249999999999 0.3612916666666667 1.566875 0.44562500000000005 1.1385 0.16770833333333332 2.0278333333333336 -0.7896666666666666 2.245375 -1.919541666666667l0.9966666666666667 -5.181708333333334a23.153333333333336 23.153333333333336 0 0 0 5.655125 0.066125l0.9832500000000001 5.115583333333333c0.2175416666666667 1.1308333333333334 1.106875 2.08725 2.245375 1.919541666666667a6.464916666666667 6.464916666666667 0 0 0 1.566875 -0.44562500000000005c1.0829166666666665 -0.457125 1.4250416666666668 -1.7144583333333334 1.049375 -2.828041666666667l-1.566875 -4.6498333333333335a23.464791666666667 23.464791666666667 0 0 0 5.012083333333334 -2.2089583333333334l3.0839166666666666 3.5621250000000004c0.7532500000000001 0.8701666666666668 2.0019583333333335 1.2554166666666668 2.90375 0.5405 0.46 -0.3641666666666667 0.8356666666666667 -0.7752916666666667 1.1337083333333333 -1.1691666666666667 0.7091666666666667 -0.93725 0.3775833333333334 -2.1984166666666667 -0.5040833333333333 -2.974666666666667l-2.967 -2.613375a23.767625 23.767625 0 0 0 4.337416666666667 -5.116541666666667c0.32583333333333336 -0.5165416666666667 0.3785416666666667 -1.17875 0.03929166666666667 -1.6885833333333333 -0.8260833333333334 -1.2410416666666666 -1.8208333333333333 -1.4595416666666667 -2.451416666666667 -1.449 -0.4101666666666667 0.0067083333333333335 -0.7436666666666667 0.28079166666666666 -0.9822916666666667 0.6152500000000001 -3.9991250000000003 5.610083333333334 -10.220625 8.227291666666668 -16.442125 8.227291666666668 -6.2215 0 -12.443958333333333 -2.61625 -16.443083333333334 -8.227291666666668Z" stroke-width="2"></path></g></svg>