<svg xmlns="http://www.w3.org/2000/svg" fill="none" viewBox="-1 -1 48 48" height="48" width="48"><g id="block-1--remove-circle-garbage-trash-delete"><path id="Union" fill-rule="evenodd" stroke="#000" stroke-linecap="round" stroke-linejoin="round" d="M43.125 23c0 11.11475 -9.01025 20.125 -20.125 20.125S2.875 34.11475 2.875 23 11.88525 2.875 23 2.875s20.125 9.01025 20.125 20.125ZM29.638375 34.66291666666667A13.355333333333334 13.355333333333334 0 0 1 23 36.41666666666667c-7.409833333333334 0 -13.416666666666668 -6.006833333333334 -13.416666666666668 -13.416666666666668 0 -2.4130833333333332 0.6372916666666667 -4.677625000000001 1.7527916666666667 -6.634541666666667 2.7676666666666665 2.9535833333333334 6.4026250000000005 6.794583333333334 8.838708333333335 9.230666666666666 2.4619583333333335 2.4629166666666666 6.4342500000000005 6.223416666666667 9.463541666666668 9.065833333333334Zm5.023583333333334 -5.024541666666667c-2.842416666666667 -3.0283333333333338 -6.603875 -7.0015833333333335 -9.065833333333334 -9.463541666666668 -2.4360833333333334 -2.435125 -6.277083333333334 -6.071041666666667 -9.230666666666666 -8.838708333333335A13.355333333333334 13.355333333333334 0 0 1 23 9.583333333333334c7.409833333333334 0 13.416666666666668 6.006833333333334 13.416666666666668 13.416666666666668 0 2.415 -0.6382500000000001 4.6814583333333335 -1.7547083333333333 6.638375Z" clip-rule="evenodd" stroke-width="2"></path></g></svg>