<svg xmlns="http://www.w3.org/2000/svg" fill="none" viewBox="-1 -1 48 48" height="48" width="48"><g id="electric-cord-1--electricity-electronic-appliances-device-cord-cable-plug-connection"><path id="Union" stroke="#000" stroke-linecap="round" stroke-linejoin="round" d="M37.428666666666665 15.908333333333335c1.4997916666666666 0.16866666666666666 2.590375 1.3426250000000002 2.704416666666667 2.8472083333333336 0.13033333333333336 1.7211666666666667 0.20700000000000002 4.066208333333334 -0.07666666666666667 6.10075a2.8328333333333333 2.8328333333333333 0 0 1 -0.928625 1.73075c-1.17875 1.0474583333333334 -3.7672083333333335 3.0829583333333335 -7.89475 4.963208333333334a190.64891666666665 190.64891666666665 0 0 1 -0.36608333333333337 2.9555000000000002 1.825625 1.825625 0 0 1 -1.63875 1.5860416666666668C27.765791666666665 36.23170833333334 25.383375 36.41666666666667 23 36.41666666666667c-2.382416666666667 0 -4.765791666666667 -0.18495833333333334 -6.228208333333333 -0.32583333333333336a1.825625 1.825625 0 0 1 -1.63875 -1.5850833333333334c-0.09487500000000001 -0.715875 -0.21945833333333334 -1.7010416666666666 -0.36608333333333337 -2.9555000000000002 -4.1275416666666676 -1.88025 -6.716958333333334 -3.9157500000000005 -7.89475 -4.963208333333334a2.8328333333333333 2.8328333333333333 0 0 1 -0.9276666666666666 -1.73075c-0.284625 -2.034541666666667 -0.20795833333333333 -4.379583333333334 -0.077625 -6.10075 0.11404166666666667 -1.5045833333333334 1.204625 -2.678541666666667 2.704416666666667 -2.8472083333333336 2.37475 -0.26833333333333337 6.7744583333333335 -0.575 14.428666666666667 -0.575 7.654208333333334 0 12.053916666666666 0.3085833333333334 14.428666666666667 0.575Z" stroke-width="2"></path><path id="Subtract" stroke="#000" stroke-linecap="round" stroke-linejoin="round" d="M12.466 15.591125C12.461208333333333 14.920291666666667 12.458333333333334 14.19675 12.458333333333334 13.416666666666668c0 -3.9128750000000005 0.06804166666666667 -6.395916666666667 0.13799999999999998 -7.913916666666666 0.06325 -1.3752083333333334 0.8280000000000001 -2.54725 2.2032083333333334 -2.615291666666667a10.850249999999999 10.850249999999999 0 0 1 1.0675833333333336 0c1.3761666666666668 0.06708333333333334 2.1399583333333334 1.2400833333333334 2.2032083333333334 2.61625C18.140291666666666 7.019791666666667 18.208333333333336 9.502833333333333 18.208333333333336 13.416666666666668c0 0.698625 -0.0019166666666666668 1.35125 -0.005750000000000001 1.9617083333333336" stroke-width="2"></path><path id="Subtract_2" stroke="#000" stroke-linecap="round" stroke-linejoin="round" d="M27.797416666666667 15.378375000000002C27.793583333333334 14.767916666666668 27.791666666666668 14.115291666666666 27.791666666666668 13.416666666666668c0 -3.9128750000000005 0.06804166666666667 -6.395916666666667 0.13799999999999998 -7.913916666666666 0.06325 -1.3752083333333334 0.8280000000000001 -2.54725 2.2032083333333334 -2.615291666666667a10.850249999999999 10.850249999999999 0 0 1 1.0675833333333336 0c1.3752083333333334 0.06708333333333334 2.1399583333333334 1.2400833333333334 2.2032083333333334 2.61625C33.473625000000006 7.019791666666667 33.54166666666667 9.502833333333333 33.54166666666667 13.416666666666668c0 0.7800833333333334 -0.0028750000000000004 1.5045833333333334 -0.007666666666666667 2.1744583333333334" stroke-width="2"></path><path id="Subtract_3" stroke="#000" stroke-linecap="round" stroke-linejoin="round" d="M19.526041666666668 36.30645833333333c0.18495833333333334 2.2722083333333334 0.39579166666666665 4.357541666666666 0.5165416666666667 5.5008333333333335 0.06133333333333334 0.58075 0.40729166666666666 1.072375 0.9813333333333334 1.1739583333333334 0.44370833333333337 0.07858333333333334 1.081 0.14375 1.975125 0.14375s1.532375 -0.06516666666666668 1.9741666666666668 -0.14375c0.575 -0.10158333333333333 0.9209583333333333 -0.5941666666666667 0.9822916666666667 -1.1739583333333334 0.12075000000000001 -1.1432916666666668 0.33158333333333334 -3.2286250000000005 0.5175000000000001 -5.5008333333333335" stroke-width="2"></path></g></svg>