<svg xmlns="http://www.w3.org/2000/svg" fill="none" viewBox="-1 -1 48 48" height="48" width="48"><g id="shield-1--shield-protection-security-defend-crime-war-cover"><path id="Rectangle 112" stroke="#000" stroke-linecap="round" stroke-linejoin="round" d="M3.533375 7.476916666666667c0.19166666666666668 -1.6579166666666667 1.1979166666666667 -3.0264166666666665 2.8270833333333334 -3.38675C8.901958333333333 3.527625 13.82875 2.875 23 2.875s14.097083333333334 0.6526250000000001 16.639541666666666 1.2151666666666667c1.6291666666666667 0.36033333333333334 2.635416666666667 1.7288333333333334 2.8270833333333334 3.38675 0.29133333333333333 2.507 0.658375 6.6355 0.658375 11.498083333333334v0c0 9.085 -4.794541666666667 17.585416666666667 -12.872333333333334 21.742666666666665C27.554 42.10725 24.9205 43.125 23 43.125c-1.9205 0 -4.554 -1.0187083333333333 -7.252666666666666 -2.4073333333333333C7.669541666666667 36.56041666666667 2.875 28.060000000000002 2.875 18.975v0c0 -4.862583333333333 0.3670416666666667 -8.991083333333334 0.658375 -11.498083333333334Z" stroke-width="2"></path><path id="Rectangle 113" stroke="#000" stroke-linecap="round" stroke-linejoin="round" d="M10.8675 13.308375000000002c0.15525 -1.55825 1.0992083333333333 -2.8299583333333334 2.6402083333333333 -3.107875C15.242291666666667 9.887125000000001 18.17095833333333 9.583333333333334 23 9.583333333333334s7.756749999999999 0.3037916666666667 9.492291666666667 0.6171666666666668c1.5410000000000001 0.27791666666666665 2.4849583333333336 1.549625 2.63925 3.107875A68.16625 68.16625 0 0 1 35.458333333333336 19.933333333333334v0c0 5.092583333333334 -2.4725 9.784583333333334 -6.614416666666667 12.74775C26.731749999999998 34.19141666666667 24.510333333333335 35.458333333333336 23 35.458333333333336c-1.5103333333333335 0 -3.7317500000000003 -1.2669166666666667 -5.843916666666667 -2.7772500000000004C13.014166666666668 29.71791666666667 10.541666666666668 25.025916666666667 10.541666666666668 19.933333333333334v0c0 -2.6718333333333333 0.16579166666666667 -4.998666666666667 0.32583333333333336 -6.624958333333334Z" stroke-width="2"></path></g></svg>