<svg xmlns="http://www.w3.org/2000/svg" fill="none" viewBox="-1 -1 48 48" height="48" width="48"><g id="gallery-2--pages-filter-picture-pagination-image"><path id="Rectangle 1096" stroke="#000" stroke-linecap="round" stroke-linejoin="round" d="M33.995916666666666 6.708333333333334c-0.529 -1.9396666666666669 -2.1945833333333336 -3.3407500000000003 -4.286625 -3.4912083333333332C27.25979166666667 3.040791666666667 23.637291666666666 2.875 18.6875 2.875c-4.920083333333334 0 -8.52725 0.16387500000000002 -10.975791666666666 0.33925 -2.450458333333333 0.17441666666666666 -4.324 2.047 -4.4984166666666665 4.4984166666666665C3.037916666666667 10.161208333333333 2.875 13.769333333333334 2.875 18.6875c0 4.949791666666667 0.16674999999999998 8.571333333333335 0.342125 11.020833333333334 0.15045833333333333 2.092041666666667 1.5525000000000002 3.7585833333333336 3.4912083333333332 4.286625" stroke-width="2"></path><path id="Rectangle 1097" stroke="#000" stroke-linecap="round" stroke-linejoin="round" d="M11.83925 16.336708333333334c0.17441666666666666 -2.450458333333333 2.047 -4.3220833333333335 4.4984166666666665 -4.497458333333333C18.78525 11.662916666666668 22.393375000000002 11.5 27.3125 11.5s8.526291666666667 0.16387500000000002 10.974833333333335 0.33925c2.451416666666667 0.17441666666666666 4.324 2.047 4.4984166666666665 4.4984166666666665 0.175375 2.448541666666667 0.33925 6.0566666666666675 0.33925 10.974833333333335 0 4.919125 -0.16387500000000002 8.526291666666667 -0.33925 10.975791666666666 -0.17441666666666666 2.450458333333333 -2.047 4.3220833333333335 -4.4984166666666665 4.497458333333333 -2.448541666666667 0.175375 -6.0566666666666675 0.33925 -10.974833333333335 0.33925 -4.919125 0 -8.526291666666667 -0.16387500000000002 -10.975791666666666 -0.33925 -2.450458333333333 -0.17441666666666666 -4.3220833333333335 -2.047 -4.497458333333333 -4.4984166666666665C11.662916666666668 35.83975 11.5 32.231625 11.5 27.3125s0.16387500000000002 -8.526291666666667 0.33925 -10.975791666666666Z" stroke-width="2"></path><path id="Intersect" stroke="#000" stroke-linecap="round" stroke-linejoin="round" d="M42.97741666666666 34.87279166666667c-2.1610416666666667 -2.025916666666667 -3.7183333333333333 -3.37525 -4.799333333333333 -4.2588333333333335 -1.2822500000000001 -1.049375 -2.97275 -1.20175 -4.3537083333333335 -0.28079166666666666 -1.0637500000000002 0.7091666666666667 -2.52425 1.7920833333333335 -4.432291666666667 3.4298750000000005 -2.836666666666667 -2.713041666666667 -4.791666666666667 -4.417916666666667 -6.073916666666667 -5.467291666666667 -1.2822500000000001 -1.049375 -2.97275 -1.2007916666666667 -4.3537083333333335 -0.28079166666666666 -1.5525000000000002 1.0350000000000001 -3.9512083333333337 2.8673333333333333 -7.3485000000000005 6.05475" stroke-width="2"></path><path id="Ellipse 35" stroke="#000" stroke-linecap="round" stroke-linejoin="round" d="M30.666666666666668 21.083333333333336a2.875 2.875 0 1 0 5.75 0 2.875 2.875 0 1 0 -5.75 0" stroke-width="2"></path></g></svg>