<svg xmlns="http://www.w3.org/2000/svg" fill="none" viewBox="-1 -1 48 48" height="48" width="48"><g id="medical-bag--health-sign-medical-symbol-hospital-bag-medicine-medkit"><path id="Rectangle 97" stroke="#000" stroke-linecap="round" stroke-linejoin="round" d="M3.4365833333333335 13.642833333333334c0.20125 -2.044125 1.6004166666666666 -3.687666666666667 3.627291666666667 -4.021166666666667C9.921625 9.150166666666667 14.92125 8.625 23 8.625c8.07875 0 13.078375000000001 0.5251666666666668 15.937083333333334 0.9966666666666667 2.025916666666667 0.33349999999999996 3.426041666666667 1.9770416666666668 3.626333333333333 4.021166666666667C42.82791666666667 16.32329166666667 43.125 20.53325 43.125 25.875c0 5.34175 -0.29708333333333337 9.551708333333334 -0.5615833333333333 12.232166666666666 -0.20125 2.044125 -1.6004166666666666 3.687666666666667 -3.627291666666667 4.021166666666667C36.078375 42.599833333333336 31.07875 43.125 23 43.125c-8.07875 0 -13.077416666666668 -0.5251666666666668 -15.937083333333334 -0.9966666666666667 -2.025916666666667 -0.33349999999999996 -3.426041666666667 -1.9770416666666668 -3.626333333333333 -4.021166666666667C3.1720833333333336 35.42670833333333 2.875 31.21675 2.875 25.875c0 -5.340791666666667 0.29708333333333337 -9.551708333333334 0.5615833333333333 -12.232166666666666Z" stroke-width="2"></path><path id="Union" stroke="#000" stroke-linecap="round" stroke-linejoin="round" d="M19.28166666666667 33.520583333333335c0.03258333333333334 0.9094583333333334 0.6114166666666667 1.681875 1.5132083333333333 1.8035833333333333 0.55775 0.07570833333333334 1.2870416666666666 0.13416666666666668 2.2051250000000002 0.13416666666666668 0.9180833333333334 0 1.647375 -0.058458333333333334 2.2051250000000002 -0.13416666666666668 0.9008333333333333 -0.12170833333333334 1.480625 -0.8941250000000001 1.5141666666666669 -1.8035833333333333 0.031625 -0.8672916666666667 0.06708333333333334 -2.1322916666666667 0.09008333333333333 -3.8362083333333334 1.7039166666666667 -0.023000000000000003 2.968916666666667 -0.058458333333333334 3.8362083333333334 -0.09008333333333333 0.9094583333333334 -0.03354166666666667 1.681875 -0.6133333333333334 1.8035833333333333 -1.5141666666666669 0.07570833333333334 -0.55775 0.13416666666666668 -1.2870416666666666 0.13416666666666668 -2.2051250000000002 0 -0.9180833333333334 -0.058458333333333334 -1.647375 -0.13416666666666668 -2.2051250000000002 -0.12170833333333334 -0.9008333333333333 -0.8941250000000001 -1.480625 -1.8035833333333333 -1.5141666666666669 -0.8672916666666667 -0.031625 -2.1322916666666667 -0.06708333333333334 -3.8362083333333334 -0.09008333333333333a168.598625 168.598625 0 0 0 -0.09008333333333333 -3.8362083333333334c-0.03354166666666667 -0.9094583333333334 -0.6133333333333334 -1.681875 -1.5141666666666669 -1.8035833333333333A16.50825 16.50825 0 0 0 23 16.291666666666668c-0.9180833333333334 0 -1.647375 0.058458333333333334 -2.2051250000000002 0.13416666666666668 -0.9008333333333333 0.12170833333333334 -1.480625 0.8941250000000001 -1.5141666666666669 1.8035833333333333 -0.031625 0.8672916666666667 -0.06708333333333334 2.1322916666666667 -0.09008333333333333 3.8362083333333334 -1.7039166666666667 0.023000000000000003 -2.968916666666667 0.058458333333333334 -3.8362083333333334 0.09008333333333333 -0.9094583333333334 0.03354166666666667 -1.681875 0.6133333333333334 -1.8035833333333333 1.5141666666666669 -0.07570833333333334 0.55775 -0.13416666666666668 1.2870416666666666 -0.13416666666666668 2.2051250000000002 0 0.9180833333333334 0.058458333333333334 1.647375 0.13416666666666668 2.2051250000000002 0.12170833333333334 0.9008333333333333 0.8941250000000001 1.480625 1.8035833333333333 1.5141666666666669 0.8672916666666667 0.031625 2.1322916666666667 0.06708333333333334 3.8362083333333334 0.09008333333333333 0.023000000000000003 1.7039166666666667 0.058458333333333334 2.968916666666667 0.09008333333333333 3.8362083333333334Z" stroke-width="2"></path><path id="Subtract" stroke="#000" stroke-linecap="round" stroke-linejoin="round" d="M16.040583333333334 8.772583333333333c0.4379583333333334 -1.348375 1.1864166666666667 -2.9229166666666666 1.7480000000000002 -4.026916666666667 0.45808333333333334 -0.9008333333333333 1.284166666666667 -1.5486666666666669 2.284666666666667 -1.6828333333333334A21.983208333333334 21.983208333333334 0 0 1 23 2.875c1.1931250000000002 0 2.1830833333333333 0.08720833333333333 2.9257916666666666 0.18783333333333335 1.0005000000000002 0.13416666666666668 1.8265833333333332 0.7829583333333333 2.284666666666667 1.6828333333333334 0.5615833333333333 1.1030416666666667 1.3100416666666668 2.678541666666667 1.7480000000000002 4.026916666666667" stroke-width="2"></path></g></svg>