<svg xmlns="http://www.w3.org/2000/svg" fill="none" viewBox="-1 -1 48 48" height="48" width="48"><g id="lost-and-found"><path id="Rectangle 97" stroke="#000" stroke-linecap="round" stroke-linejoin="round" d="M3.4365833333333335 13.642833333333334c0.20125 -2.044125 1.6004166666666666 -3.687666666666667 3.627291666666667 -4.021166666666667C9.921625 9.150166666666667 14.92125 8.625 23 8.625c8.07875 0 13.078375000000001 0.5251666666666668 15.937083333333334 0.9966666666666667 2.025916666666667 0.33349999999999996 3.426041666666667 1.9770416666666668 3.626333333333333 4.021166666666667C42.82791666666667 16.32329166666667 43.125 20.53325 43.125 25.875c0 5.34175 -0.29708333333333337 9.551708333333334 -0.5615833333333333 12.232166666666666 -0.20125 2.044125 -1.6004166666666666 3.687666666666667 -3.627291666666667 4.021166666666667C36.078375 42.599833333333336 31.07875 43.125 23 43.125c-8.07875 0 -13.077416666666668 -0.5251666666666668 -15.937083333333334 -0.9966666666666667 -2.025916666666667 -0.33349999999999996 -3.426041666666667 -1.9770416666666668 -3.626333333333333 -4.021166666666667C3.1720833333333336 35.42670833333333 2.875 31.21675 2.875 25.875c0 -5.340791666666667 0.29708333333333337 -9.551708333333334 0.5615833333333333 -12.232166666666666Z" stroke-width="2"></path><path id="Vector 993" stroke="#000" stroke-linecap="round" stroke-linejoin="round" d="M16.291666666666668 8.625c0.31625000000000003 -1.35125 0.9870833333333334 -2.8558333333333334 1.51225 -3.9109583333333338 0.44083333333333335 -0.8855000000000001 1.256375 -1.5132083333333333 2.2367500000000002 -1.647375C20.786250000000003 2.9650833333333333 21.787708333333335 2.875 23 2.875c1.2122916666666665 0 2.21375 0.09008333333333333 2.9593333333333334 0.19166666666666668 0.980375 0.13416666666666668 1.7959166666666668 0.7618750000000001 2.2367500000000002 1.647375C28.72125 5.768208333333334 29.39304166666667 7.272791666666667 29.708333333333336 8.625" stroke-width="2"></path><path id="Ellipse 68" stroke="#000" stroke-linecap="round" stroke-linejoin="round" d="M18.6875 34.020833333333336a3.354166666666667 3.354166666666667 0 1 0 6.708333333333334 0 3.354166666666667 3.354166666666667 0 1 0 -6.708333333333334 0" stroke-width="2"></path><path id="Union" stroke="#000" stroke-linecap="round" stroke-linejoin="round" d="M24.504583333333336 14.375c-3.808416666666667 0 -7.034166666666667 2.2616666666666667 -7.666666666666667 4.791666666666667 -0.5702083333333333 2.2750833333333333 0.7570833333333334 4.239666666666667 2.9679583333333333 4.195583333333333 0.5960833333333333 -0.011500000000000002 1.1480833333333333 -0.27791666666666665 1.6607916666666669 -0.58075 0.7915833333333333 -0.46958333333333335 2.044125 -1.1950416666666668 3.037916666666667 -1.6981666666666668 -1.9502083333333335 1.078125 -5.43375 2.6804583333333336 -5.43375 5.0475416666666675l-0.0028750000000000004 2.1361250000000003a2.3958333333333335 2.3958333333333335 0 0 0 2.3958333333333335 2.3996666666666666h1.058A2.3958333333333335 2.3958333333333335 0 0 0 24.916666666666668 28.270833333333336c3.526666666666667 -1.8927083333333334 6.296250000000001 -3.5065416666666667 6.296250000000001 -7.1875 0 -3.354166666666667 -2.024958333333333 -6.708333333333334 -6.708333333333334 -6.708333333333334Z" stroke-width="2"></path></g></svg>