<svg xmlns="http://www.w3.org/2000/svg" fill="none" viewBox="-1 -1 48 48" height="48" width="48"><g id="end-point-diamond"><path id="Union" stroke="#000" stroke-linecap="round" stroke-linejoin="round" d="M1.9166666666666667 20.125h20.332958333333334c2.1083333333333334 0 3.9675 0.004791666666666667 5.603375000000001 0.013416666666666667a83.65291666666667 83.65291666666667 0 0 1 2.146666666666667 -2.2204583333333336 72.130875 72.130875 0 0 1 3.495041666666667 -3.296666666666667 2.3785833333333337 2.3785833333333337 0 0 1 3.1730416666666668 0c0.8356666666666667 0.7302500000000001 2.0010000000000003 1.8016666666666665 3.4960000000000004 3.296666666666667a72.16729166666667 72.16729166666667 0 0 1 3.296666666666667 3.4960000000000004 2.3785833333333337 2.3785833333333337 0 0 1 0 3.1720833333333336 72.21329166666666 72.21329166666666 0 0 1 -3.296666666666667 3.4960000000000004 72.16729166666667 72.16729166666667 0 0 1 -3.4960000000000004 3.296666666666667 2.3785833333333337 2.3785833333333337 0 0 1 -3.1720833333333336 0 72.16729166666667 72.16729166666667 0 0 1 -3.4969583333333336 -3.296666666666667 83.65866666666668 83.65866666666668 0 0 1 -2.1457083333333333 -2.221416666666667c-1.6368333333333334 0.009583333333333334 -3.495041666666667 0.014375 -5.603375000000001 0.014375H1.9166666666666667" stroke-width="2"></path></g></svg>