<svg xmlns="http://www.w3.org/2000/svg" fill="none" viewBox="-1 -1 48 48" height="48" width="48"><g id="focus-points--camera-frame-photography-pictures-photo-focus-position"><path id="Vector 898" stroke="#000" stroke-linecap="round" stroke-linejoin="round" d="M12.458333333333334 6.708333333333334s-2.9574166666666666 0 -6.091166666666667 0.18495833333333334a3.5075000000000003 3.5075000000000003 0 0 0 -3.3062500000000004 3.3062500000000004C2.875 13.333291666666668 2.875 16.291666666666668 2.875 16.291666666666668" stroke-width="2"></path><path id="Vector 900" stroke="#000" stroke-linecap="round" stroke-linejoin="round" d="M33.54166666666667 6.708333333333334s2.9574166666666666 0 6.091166666666667 0.18495833333333334a3.5075000000000003 3.5075000000000003 0 0 1 3.3062500000000004 3.3062500000000004C43.125 13.333291666666668 43.125 16.291666666666668 43.125 16.291666666666668" stroke-width="2"></path><path id="Vector 899" stroke="#000" stroke-linecap="round" stroke-linejoin="round" d="M33.54166666666667 39.29166666666667s2.9574166666666666 0 6.091166666666667 -0.18495833333333334a3.5075000000000003 3.5075000000000003 0 0 0 3.3062500000000004 -3.3062500000000004C43.125 32.66670833333334 43.125 29.708333333333336 43.125 29.708333333333336" stroke-width="2"></path><path id="Vector 901" stroke="#000" stroke-linecap="round" stroke-linejoin="round" d="M12.458333333333334 39.29166666666667s-2.9574166666666666 0 -6.091166666666667 -0.18495833333333334a3.5075000000000003 3.5075000000000003 0 0 1 -3.3062500000000004 -3.3062500000000004C2.875 32.66670833333334 2.875 29.708333333333336 2.875 29.708333333333336" stroke-width="2"></path><path id="Vector 1378" stroke="#000" stroke-linecap="round" stroke-linejoin="round" d="M23 11.979166666666668v1.9166666666666667" stroke-width="2"></path><path id="Vector 1382" stroke="#000" stroke-linecap="round" stroke-linejoin="round" d="m23 20.125 0 5.75" stroke-width="2"></path><path id="Vector 1383" stroke="#000" stroke-linecap="round" stroke-linejoin="round" d="M25.875 23h-5.75" stroke-width="2"></path><path id="Vector 1380" stroke="#000" stroke-linecap="round" stroke-linejoin="round" d="M34.5 23h-1.9166666666666667" stroke-width="2"></path><path id="Vector 1379" stroke="#000" stroke-linecap="round" stroke-linejoin="round" d="M23 32.10416666666667v1.9166666666666667" stroke-width="2"></path><path id="Vector 1381" stroke="#000" stroke-linecap="round" stroke-linejoin="round" d="m13.416666666666668 23 -1.9166666666666667 0" stroke-width="2"></path></g></svg>