<svg xmlns="http://www.w3.org/2000/svg" fill="none" viewBox="-1 -1 48 48" height="48" width="48"><g id="paint-bucket--bucket-color-colors-design-paint-painting"><path id="Ellipse 160" stroke="#000" stroke-linecap="round" stroke-linejoin="round" d="M43.125 37.75833333333333c0 2.964125 -2.1457083333333333 5.366666666666666 -4.791666666666667 5.366666666666666s-4.791666666666667 -2.402541666666667 -4.791666666666667 -5.366666666666666c0 -2.734125 2.209916666666667 -5.467291666666667 3.62825 -6.940250000000001 0.6459166666666667 -0.6708333333333333 1.6809166666666668 -0.6708333333333333 2.3268333333333335 0C40.915083333333335 32.291041666666665 43.125 35.02516666666667 43.125 37.75833333333333Z" stroke-width="2"></path><path id="Union" stroke="#000" stroke-linecap="round" stroke-linejoin="round" d="M4.425583333333334 9.390708333333333c0.5213333333333334 -0.7475 1.4796666666666667 -0.9391666666666667 2.3575 -0.69575 2.7609583333333334 0.7666666666666667 9.183708333333334 2.6028333333333338 15.26625 4.721708333333333 1.3761666666666668 0.4791666666666667 2.2329166666666667 1.9070833333333335 1.8534166666666667 3.3148750000000002 -0.3775833333333334 1.4068333333333334 -1.8352083333333333 2.216625 -3.266958333333333 1.9454166666666666 -6.329791666666667 -1.1969583333333336 -12.812916666666666 -2.807916666666667 -15.589208333333334 -3.520916666666667 -0.8816666666666667 -0.22616666666666665 -1.61575 -0.871125 -1.6924166666666667 -1.7777083333333334a6.085416666666666 6.085416666666666 0 0 1 0.18016666666666667 -2.089166666666667 6.098833333333333 6.098833333333333 0 0 1 0.8912500000000001 -1.8984583333333336Z" stroke-width="2"></path><path id="Subtract" stroke="#000" stroke-linecap="round" stroke-linejoin="round" d="M9.100333333333333 16.164208333333335a263.352875 263.352875 0 0 0 -5.115583333333333 6.540625c-1.4537916666666666 1.9214583333333333 -1.5045833333333334 4.553041666666667 0.0028750000000000004 6.4342500000000005A59.05920833333334 59.05920833333334 0 0 0 8.25125 33.915416666666665a59.04291666666667 59.04291666666667 0 0 0 4.777291666666667 4.262666666666667c1.8812083333333334 1.5074583333333333 4.512791666666667 1.4566666666666668 6.435208333333334 0.0028750000000000004a276.2520416666666 276.2520416666666 0 0 0 17.291208333333334 -14.25425 1.88025 1.88025 0 0 0 0.059416666666666666 -2.737L20.976000000000003 5.35325a1.8821666666666668 1.8821666666666668 0 0 0 -2.737 0.059416666666666666 255.63158333333334 255.63158333333334 0 0 0 -4.603833333333334 5.276583333333334" stroke-width="2"></path></g></svg>