<svg xmlns="http://www.w3.org/2000/svg" fill="none" viewBox="-1 -1 48 48" height="48" width="48"><g id="module--cube-code-module-programming-plugin"><path id="Rectangle 1096" stroke="#000" stroke-linejoin="round" d="M3.5343333333333335 34.766416666666665c0.15620833333333334 1.1155 0.8740000000000001 2.0422083333333334 1.8898333333333335 2.5280833333333335C9.07925 39.043458333333334 18.133583333333334 43.125 23 43.125c4.866416666666667 0 13.92075 -4.0825 17.575833333333335 -5.8305 1.0158333333333334 -0.485875 1.733625 -1.4125833333333333 1.8898333333333335 -2.5280833333333335C42.74645833333333 32.755833333333335 43.125 28.945500000000003 43.125 23c0 -5.9455 -0.3785416666666667 -9.755833333333333 -0.6593333333333333 -11.766416666666668 -0.15620833333333334 -1.1155 -0.8740000000000001 -2.0422083333333334 -1.8898333333333335 -2.5280833333333335C36.920750000000005 6.956541666666667 27.866416666666666 2.875 23 2.875 18.133583333333334 2.875 9.07925 6.9575000000000005 5.424166666666667 8.7055c-1.0158333333333334 0.485875 -1.733625 1.4125833333333333 -1.8898333333333335 2.5280833333333335C3.253541666666667 13.244166666666667 2.875 17.0545 2.875 23c0 5.9455 0.3785416666666667 9.755833333333333 0.6593333333333333 11.766416666666668Z" stroke-width="2"></path><path id="Rectangle 1097" stroke="#000" stroke-linecap="round" stroke-linejoin="round" d="M42.43595833333333 11.266166666666667C39.32329166666667 12.7995 26.55925 18.975 23 18.975c-3.560208333333333 0 -16.32425 -6.176458333333334 -19.43691666666667 -7.7088333333333345" stroke-width="2"></path><path id="Vector 1655" stroke="#000" stroke-linecap="round" stroke-linejoin="round" d="M23 18.975v23.910416666666666" stroke-width="2"></path></g></svg>