<svg xmlns="http://www.w3.org/2000/svg" fill="none" viewBox="-1 -1 48 48" height="48" width="48"><g id="computer-pc-desktop--screen-desktop-monitor-device-electronics-display-pc-computer"><path id="Rectangle 1096" stroke="#000" stroke-linecap="round" stroke-linejoin="round" d="m20.386625000000002 8.625 0.04120833333333333 -0.9017916666666667c0.11116666666666668 -2.3527083333333336 1.7441666666666669 -4.2712916666666665 4.087291666666666 -4.516625C26.243958333333335 3.0245 28.59091666666667 2.875 31.62404166666667 2.875c3.032166666666667 0 5.379125000000001 0.1495 7.107958333333333 0.33158333333333334 2.3421666666666665 0.24533333333333335 3.976125 2.1639166666666667 4.087291666666666 4.516625C42.96591666666667 10.803291666666667 43.125 15.796208333333334 43.125 23c0 7.2037916666666675 -0.15812500000000002 12.196708333333333 -0.30475 15.276791666666668 -0.11116666666666668 2.3527083333333336 -1.7441666666666669 4.2712916666666665 -4.086333333333334 4.516625 -1.7297916666666666 0.18208333333333335 -4.07675 0.33158333333333334 -7.108916666666667 0.33158333333333334 -0.67275 0 -1.3100416666666668 -0.007666666666666667 -1.9157083333333336 -0.021083333333333332" stroke-width="2"></path><path id="Vector 2538" stroke="#000" stroke-linecap="round" stroke-linejoin="round" d="M42.645833333333336 17.25H36.41666666666667" stroke-width="2"></path><path id="Vector 2539" stroke="#000" stroke-linecap="round" stroke-linejoin="round" d="M36.41666666666667 8.625h-0.9583333333333334" stroke-width="2"></path><path id="Vector 2540" stroke="#000" stroke-linecap="round" stroke-linejoin="round" d="M26.833333333333336 8.625h0.9583333333333334" stroke-width="2"></path><path id="Subtract" stroke="#000" stroke-linecap="round" stroke-linejoin="round" d="m14.164166666666667 36.40229166666667 -0.36895833333333333 3.3129583333333334A3.8333333333333335 3.8333333333333335 0 0 1 9.985833333333334 43.125m10.350000000000001 -6.722708333333333 0.36895833333333333 3.3129583333333334A3.8333333333333335 3.8333333333333335 0 0 0 24.514166666666664 43.125m0 0H9.985833333333334m14.528333333333334 0H24.916666666666668m-14.930833333333334 0H9.583333333333334" stroke-width="2"></path><path id="Rectangle 1098" stroke="#000" stroke-linecap="round" stroke-linejoin="round" d="M31.423750000000002 16.66541666666667c-0.09966666666666667 -1.6569583333333335 -1.3598750000000002 -2.9047083333333337 -3.015875 -3.0005416666666664C26.287083333333335 13.542208333333335 22.770000000000003 13.416666666666668 17.25 13.416666666666668c-5.52 0 -9.038041666666667 0.1255416666666667 -11.157875 0.24820833333333336 -1.6560000000000001 0.09583333333333334 -2.9162083333333335 1.3435833333333334 -3.015875 2.9995833333333333C2.971791666666667 18.4 2.875 21.053625 2.875 24.916666666666668c0 3.8640000000000003 0.09679166666666668 6.518583333333333 0.20125 8.25125 0.09966666666666667 1.6569583333333335 1.3598750000000002 2.9047083333333337 3.015875 3.0005416666666664C8.212916666666667 36.291125 11.73 36.41666666666667 17.25 36.41666666666667c5.52 0 9.038041666666667 -0.1255416666666667 11.157875 -0.24820833333333336 1.6560000000000001 -0.09583333333333334 2.9162083333333335 -1.3435833333333334 3.015875 -2.9995833333333333 0.10350000000000001 -1.7345833333333334 0.20125 -4.388208333333333 0.20125 -8.252208333333334 0 -3.8640000000000003 -0.09775 -6.518583333333333 -0.20125 -8.25125Z" stroke-width="2"></path><path id="Intersect" stroke="#000" stroke-linecap="round" stroke-linejoin="round" d="M2.958375 30.666666666666668h28.576541666666667" stroke-width="2"></path></g></svg>