<svg xmlns="http://www.w3.org/2000/svg" fill="none" viewBox="-1 -1 48 48" height="48" width="48"><g id="one-handed-holding-tablet-handheld"><path id="Rectangle 1095" stroke="#000" stroke-linecap="round" stroke-linejoin="round" d="M34.411833333333334 30.666666666666668c0.05366666666666667 -2.2079999999999997 0.08816666666666667 -4.757166666666667 0.08816666666666667 -7.666666666666667 0 -7.085916666666667 -0.20316666666666666 -12.033791666666668 -0.39579166666666665 -15.124416666666667 -0.15141666666666667 -2.4284166666666667 -1.9310416666666668 -4.349875 -4.3537083333333335 -4.575083333333334C27.378625 3.0800833333333335 23.898916666666665 2.875 19.166666666666668 2.875s-8.211 0.20508333333333334 -10.583833333333335 0.42550000000000004c-2.4226666666666667 0.22520833333333332 -4.2022916666666665 2.146666666666667 -4.3537083333333335 4.575083333333334C4.037458333333333 10.966208333333334 3.8333333333333335 15.914083333333336 3.8333333333333335 23s0.204125 12.033791666666668 0.39579166666666665 15.124416666666667c0.15141666666666667 2.4284166666666667 1.9310416666666668 4.349875 4.3537083333333335 4.575083333333334 2.3728333333333333 0.22041666666666668 5.852541666666667 0.42550000000000004 10.583833333333335 0.42550000000000004 2.176375 0 4.089208333333334 -0.043125 5.75 -0.11212500000000002" stroke-width="2"></path><path id="vector 298" stroke="#000" stroke-linecap="round" stroke-linejoin="round" d="M42.37175 44.083333333333336s0.8452500000000001 -5.719333333333333 1.5630416666666667 -11.7415c0.09966666666666667 -0.8395 0.10541666666666667 -1.6885833333333333 0.0067083333333333335 -2.5280833333333335 -0.8979583333333334 -7.706916666666666 -2.3622916666666667 -13.919791666666667 -3.1481250000000003 -16.912666666666667 -0.31912500000000005 -1.219 -1.2573333333333334 -2.185 -2.5108333333333337 -2.30575 -1.0905833333333332 -0.10541666666666667 -2.502208333333334 -0.089125 -3.8946666666666667 0.36800000000000005 0 10.440083333333334 -0.23 20.115416666666665 -0.23 20.115416666666665a39.68554166666667 39.68554166666667 0 0 0 -7.806583333333334 -4.393958333333334c-0.9065833333333333 -0.3775833333333334 -1.986625 -0.520375 -2.714 0.13991666666666666 -0.6229166666666667 0.566375 -1.0158333333333334 1.3675416666666667 -1.256375 2.0460416666666665 -0.2875 0.8126666666666666 0 1.6837916666666666 0.5855416666666666 2.3153333333333332l3.561166666666667 3.844833333333333a11.499041666666667 11.499041666666667 0 0 1 2.2290833333333335 3.5142083333333334L30.989625000000004 44.083333333333336" stroke-width="2"></path></g></svg>