<svg xmlns="http://www.w3.org/2000/svg" fill="none" viewBox="-1 -1 48 48" height="48" width="48"><g id="treasure-chest--gold-money-payment-bars-finance-wealth-bullion-treasure-chest-jewelry"><path id="Rectangle 1098" stroke="#000" stroke-linecap="round" stroke-linejoin="round" d="M42.505916666666664 37.933708333333335c-0.17729166666666668 1.9818333333333336 -1.4739166666666668 3.6177083333333333 -3.426041666666667 4.001041666666667C36.24704166666667 42.49058333333333 31.21483333333334 43.125 23 43.125c-8.215791666666668 0 -13.247041666666668 -0.6344166666666667 -16.080833333333334 -1.19025 -1.9511666666666667 -0.38333333333333336 -3.2477916666666666 -2.0192083333333337 -3.4250833333333333 -4.001041666666667C3.2180833333333334 34.86129166666667 2.875 29.692041666666668 2.875 23c0 -6.692041666666666 0.34308333333333335 -11.861291666666668 0.6190833333333334 -14.933708333333334 0.17729166666666668 -1.9818333333333336 1.4739166666666668 -3.6177083333333333 3.426041666666667 -4.001041666666667C9.752958333333334 3.5094166666666666 14.784208333333334 2.875 23 2.875s13.247041666666668 0.6344166666666667 16.080833333333334 1.19025c1.9511666666666667 0.38333333333333336 3.2477916666666666 2.0192083333333337 3.4250833333333333 4.001041666666667 0.27599999999999997 3.072416666666667 0.6190833333333334 8.241666666666667 0.6190833333333334 14.933708333333334 0 6.692041666666666 -0.34308333333333335 11.861291666666668 -0.6190833333333334 14.933708333333334Z" stroke-width="2"></path><path id="Rectangle 99" stroke="#000" stroke-linecap="round" stroke-linejoin="round" d="M32.583333333333336 42.16666666666667s0.9583333333333334 -9.169333333333332 0.9583333333333334 -23.958333333333336" stroke-width="2"></path><path id="Rectangle 100" stroke="#000" stroke-linecap="round" stroke-linejoin="round" d="M13.416666666666668 42.16666666666667s-0.9583333333333334 -9.169333333333332 -0.9583333333333334 -23.958333333333336" stroke-width="2"></path><path id="Rectangle 98" stroke="#000" stroke-linecap="round" stroke-linejoin="round" d="M3.8333333333333335 17.25s5.819 0.7532500000000001 15.333333333333334 0.9247916666666667" stroke-width="2"></path><path id="Rectangle 1096" stroke="#000" stroke-linecap="round" stroke-linejoin="round" d="M42.16666666666667 17.25s-5.819 0.7532500000000001 -15.333333333333334 0.9247916666666667" stroke-width="2"></path><path id="Rectangle 1097" stroke="#000" stroke-linecap="round" stroke-linejoin="round" d="M21.997583333333335 12.473666666666666c-1.6004166666666666 0.049833333333333334 -2.7465833333333336 1.31675 -2.7935416666666666 2.918125A97.60625 97.60625 0 0 0 19.166666666666668 18.208333333333336c0 1.12125 0.015333333333333334 2.056583333333333 0.03833333333333334 2.8165416666666667 0.046000000000000006 1.601375 1.1912083333333334 2.8682916666666665 2.7925833333333334 2.918125a32.28145833333334 32.28145833333334 0 0 0 2.0048333333333335 0c1.601375 -0.049833333333333334 2.7465833333333336 -1.31675 2.7935416666666666 -2.918125 0.022041666666666668 -0.7599583333333334 0.037375 -1.6943333333333335 0.037375 -2.8165416666666667 0 -1.12125 -0.015333333333333334 -2.056583333333333 -0.03833333333333334 -2.8165416666666667 -0.046000000000000006 -1.601375 -1.1912083333333334 -2.8682916666666665 -2.7925833333333334 -2.918125a32.28145833333334 32.28145833333334 0 0 0 -2.0048333333333335 0Z" stroke-width="2"></path></g></svg>