<svg xmlns="http://www.w3.org/2000/svg" fill="none" viewBox="-1 -1 48 48" height="48" width="48"><g id="smoking-area"><path id="Vector" stroke="#000" stroke-linecap="round" stroke-linejoin="round" d="M36.98304166666667 2.875C35.822500000000005 6.375791666666666 36.37833333333334 10.027041666666666 39.29166666666667 13.416666666666668c2.9133333333333336 3.3905833333333333 3.4701250000000003 7.040875000000001 2.3086249999999997 10.541666666666668" stroke-width="2"></path><path id="Vector_2" stroke="#000" stroke-linecap="round" stroke-linejoin="round" d="M29.316375 2.875C28.155833333333334 6.375791666666666 28.71166666666667 10.027041666666666 31.625 13.416666666666668c2.9133333333333336 3.3905833333333333 3.4701250000000003 7.040875000000001 2.3086249999999997 10.541666666666668" stroke-width="2"></path><path id="Rectangle 1097" stroke="#000" stroke-linecap="round" stroke-linejoin="round" d="M39.476625 29.902875C41.521708333333336 29.95941666666667 43.125 31.63458333333333 43.125 33.681583333333336L43.125 36.41666666666667l0 2.736041666666667c0 2.0460416666666665 -1.6032916666666668 3.7212083333333337 -3.648375 3.77775C36.196250000000006 43.01958333333334 30.70404166666667 43.125 23 43.125c-7.6570833333333335 0 -12.81675 -0.10445833333333333 -15.835500000000001 -0.19358333333333336 -2.0632916666666667 -0.06133333333333334 -3.853458333333333 -1.3119583333333333 -4.108375 -3.3599166666666664A25.625833333333333 25.625833333333333 0 0 1 2.875 36.41666666666667c0 -1.2458333333333333 0.07475 -2.292333333333333 0.18208333333333335 -3.1548333333333334 0.25395833333333334 -2.0479583333333333 2.044125 -3.2985833333333336 4.1074166666666665 -3.3599166666666664C10.18325 29.81279166666667 15.34291666666667 29.708333333333336 23 29.708333333333336c7.704999999999999 0 13.196250000000001 0.10541666666666667 16.476625000000002 0.1945416666666667Z" stroke-width="2"></path><path id="Intersect" stroke="#000" stroke-linecap="round" stroke-linejoin="round" d="M34.63033333333334 43.03491666666667A149.81625000000003 149.81625000000003 0 0 1 34.5 36.41666666666667c0 -2.839541666666667 0.059416666666666666 -5.023583333333334 0.13033333333333336 -6.61825" stroke-width="2"></path></g></svg>