<svg xmlns="http://www.w3.org/2000/svg" fill="none" viewBox="-1 -1 48 48" height="48" width="48"><g id="moon-stars--night-time"><path id="Subtract" stroke="#000" stroke-linecap="round" stroke-linejoin="round" d="M17.468500000000002 18.65875c0 7.349458333333334 5.957000000000001 13.306458333333333 13.3055 13.306458333333333 1.0742916666666666 0 2.117916666666667 -0.12745833333333334 3.1184166666666666 -0.3670416666666667 0.7762500000000001 -0.186875 1.5285416666666667 0.5175000000000001 1.2180416666666667 1.2554166666666668C32.570875 38.88725 26.603333333333335 43.125 19.645833333333336 43.125 10.383541666666668 43.125 2.875 35.616458333333334 2.875 26.354166666666668S10.383541666666668 9.583333333333334 19.645833333333336 9.583333333333334c0.5472083333333333 0 0.813625 0.6516666666666667 0.4849166666666667 1.0905833333333332a13.247041666666668 13.247041666666668 0 0 0 -2.6622500000000002 7.9857916666666675Z" stroke-width="2"></path><path id="Star 10" stroke="#000" stroke-linecap="round" stroke-linejoin="round" d="M36.72716666666667 26.26216666666667c-0.25012500000000004 0.7618750000000001 -1.32825 0.7618750000000001 -1.5793333333333333 0l-1.5477083333333335 -4.707333333333334a0.8318333333333333 0.8318333333333333 0 0 0 -0.5299583333333334 -0.5299583333333334l-4.707333333333334 -1.5477083333333335c-0.7618750000000001 -0.2510833333333334 -0.7618750000000001 -1.3292083333333333 0 -1.5793333333333333l4.707333333333334 -1.5477083333333335a0.8318333333333333 0.8318333333333333 0 0 0 0.5299583333333334 -0.5299583333333334l1.5477083333333335 -4.707333333333334c0.25012500000000004 -0.7618750000000001 1.32825 -0.7618750000000001 1.5793333333333333 0l1.5477083333333335 4.707333333333334a0.8318333333333333 0.8318333333333333 0 0 0 0.5299583333333334 0.5299583333333334l4.707333333333334 1.5477083333333335c0.7618750000000001 0.2510833333333334 0.7618750000000001 1.3292083333333333 0 1.5793333333333333l-4.707333333333334 1.5477083333333335a0.8318333333333333 0.8318333333333333 0 0 0 -0.5299583333333334 0.5299583333333334l-1.5477083333333335 4.707333333333334Z" stroke-width="2"></path><path id="Vector 2594" stroke="#000" stroke-linecap="round" stroke-linejoin="round" d="M27.791666666666668 3.8333333333333335v5.75" stroke-width="2"></path><path id="Vector 2595" stroke="#000" stroke-linecap="round" stroke-linejoin="round" d="m30.666666666666668 6.708333333333334 -5.75 0" stroke-width="2"></path></g></svg>