<svg xmlns="http://www.w3.org/2000/svg" fill="none" viewBox="-1 -1 48 48" height="48" width="48"><g id="ios-ipados"><path id="Rectangle 1097" stroke="#000" stroke-linecap="round" stroke-linejoin="round" d="M23.478208333333335 43.06366666666667c1.3033333333333335 0.03833333333333334 2.738916666666667 0.06133333333333334 4.3125 0.06133333333333334 4.73225 0 8.211958333333335 -0.20508333333333334 10.584791666666668 -0.42550000000000004 2.4226666666666667 -0.22520833333333332 4.2022916666666665 -2.146666666666667 4.3537083333333335 -4.575083333333334 0.19166666666666668 -3.090625 0.39579166666666665 -8.0385 0.39579166666666665 -15.124416666666667s-0.204125 -12.033791666666668 -0.39579166666666665 -15.124416666666667c-0.15141666666666667 -2.4284166666666667 -1.9310416666666668 -4.349875 -4.3537083333333335 -4.575083333333334C36.00266666666666 3.0800833333333335 32.522958333333335 2.875 27.791666666666668 2.875s-8.211 0.20508333333333334 -10.584791666666668 0.42550000000000004c-2.4217083333333336 0.22520833333333332 -4.2022916666666665 2.146666666666667 -4.35275 4.575083333333334A170.38783333333333 170.38783333333333 0 0 0 12.669166666666667 11.5" stroke-width="2"></path><path id="Vector 1491" stroke="#000" stroke-linecap="round" stroke-linejoin="round" d="M26.833333333333336 38.333333333333336h1.9166666666666667" stroke-width="2"></path><path id="Rectangle 1095" stroke="#000" stroke-linecap="round" stroke-linejoin="round" d="M3.037916666666667 38.51925000000001c0.100625 2.3910416666666667 1.79975 4.305791666666667 4.187916666666667 4.470625 1.15 0.07858333333333334 2.5673749999999997 0.135125 4.274166666666667 0.135125 1.7067916666666667 0 3.1241666666666665 -0.056541666666666664 4.274166666666667 -0.135125 2.3881666666666668 -0.16483333333333333 4.087291666666666 -2.0795833333333333 4.187916666666667 -4.470625 0.08625 -2.0585 0.16291666666666668 -4.961291666666667 0.16291666666666668 -8.810916666666667 0 -3.8496250000000005 -0.07666666666666667 -6.752416666666667 -0.16291666666666668 -8.810916666666667 -0.100625 -2.3910416666666667 -1.79975 -4.305791666666667 -4.187916666666667 -4.470625A62.401875 62.401875 0 0 0 11.5 16.291666666666668c-1.7067916666666667 0 -3.1241666666666665 0.056541666666666664 -4.274166666666667 0.135125 -2.3881666666666668 0.16483333333333333 -4.087291666666666 2.0795833333333333 -4.187916666666667 4.470625C2.9516666666666667 22.955916666666667 2.875 25.858708333333336 2.875 29.708333333333336c0 3.8496250000000005 0.07666666666666667 6.752416666666667 0.16291666666666668 8.810916666666667Z" stroke-width="2"></path><path id="Vector 1363" stroke="#000" stroke-linecap="round" stroke-linejoin="round" d="M10.541666666666668 38.333333333333336h1.9166666666666667" stroke-width="2"></path></g></svg>