<svg xmlns="http://www.w3.org/2000/svg" fill="none" viewBox="-1 -1 48 48" height="48" width="48"><g id="cherries--cook-plant-cherry-plants-cooking-nutrition-vegetarian-fruit-food-cherries"><path id="Vector 232 (Stroke)" stroke="#000" stroke-linecap="round" stroke-linejoin="bevel" d="M12.458333333333334 4.791666666666667c3.855375 2.3757083333333333 7.866958333333334 3.3905833333333333 12.072125 3.7422916666666666C28.368583333333333 8.855 33.73525 8.375833333333334 37.375 6.308708333333334" stroke-width="2"></path><path id="Ellipse 280" stroke="#000" stroke-linecap="round" stroke-linejoin="round" d="M2.875 32.583333333333336a8.625 8.625 0 1 0 17.25 0 8.625 8.625 0 1 0 -17.25 0" stroke-width="2"></path><path id="Vector 231 (Stroke)" stroke="#000" stroke-linecap="round" stroke-linejoin="round" d="M25.875 8.625c-7.836291666666667 2.8874583333333335 -12.453541666666666 8.122833333333334 -13.416666666666668 15.333333333333334" stroke-width="2"></path><path id="Vector 231 (Stroke)_2" stroke="#000" stroke-linecap="round" stroke-linejoin="round" d="M25.875 8.625c0.5529583333333333 3.59375 1.5879583333333334 7.876541666666666 4.562625000000001 11.256583333333333" stroke-width="2"></path><path id="Ellipse 281" stroke="#000" stroke-linecap="round" stroke-linejoin="round" d="M43.125 27.791666666666668a8.625 8.625 0 1 1 -17.25 0 8.625 8.625 0 0 1 17.25 0Z" stroke-width="2"></path><path id="Ellipse 282" stroke="#000" stroke-linecap="round" stroke-linejoin="round" d="M38.333333333333336 27.791666666666668a3.8333333333333335 3.8333333333333335 0 0 0 -3.8333333333333335 -3.8333333333333335" stroke-width="2"></path><path id="Ellipse 283" stroke="#000" stroke-linecap="round" stroke-linejoin="round" d="M15.333333333333334 32.583333333333336a3.8333333333333335 3.8333333333333335 0 0 0 -3.8333333333333335 -3.8333333333333335" stroke-width="2"></path></g></svg>