<svg xmlns="http://www.w3.org/2000/svg" fill="none" viewBox="-1 -1 48 48" height="48" width="48"><g id="toilet-man--travel-wayfinder-toilet-man"><path id="Ellipse 135" stroke="#000" stroke-linecap="round" stroke-linejoin="round" d="M29.229166666666668 9.104166666666668a6.229166666666667 6.229166666666667 0 1 1 -12.458333333333334 0 6.229166666666667 6.229166666666667 0 0 1 12.458333333333334 0Z" stroke-width="2"></path><path id="Union" stroke="#000" stroke-linecap="round" stroke-linejoin="round" d="M13.946625000000001 15.570041666666667c-1.7805833333333334 0.09870833333333333 -2.968916666666667 1.8150833333333334 -2.4054166666666665 3.5075000000000003 1.4537916666666666 4.377666666666666 3.2142500000000003 8.356666666666667 4.393 10.844500000000002l1.0905833333333332 10.543583333333334c0.13320833333333335 1.288 1.1107083333333334 2.3287500000000003 2.39775 2.460041666666667 1.0254166666666669 0.10541666666666667 2.3009583333333334 0.19933333333333333 3.5774583333333334 0.19933333333333333a35.92791666666667 35.92791666666667 0 0 0 3.5774583333333334 -0.19933333333333333c1.288 -0.13225 2.2645416666666667 -1.1720416666666669 2.39775 -2.460041666666667l1.0915416666666666 -10.544541666666667c1.17875 -2.4868750000000004 2.93825 -6.4658750000000005 4.393 -10.843541666666667 0.5625416666666666 -1.6924166666666667 -0.6248333333333334 -3.4087916666666667 -2.4054166666666665 -3.5075000000000003A165.752375 165.752375 0 0 0 23 15.333333333333334c-3.803625 0 -6.899041666666667 0.11787500000000001 -9.053374999999999 0.23670833333333333Z" stroke-width="2"></path><path id="Vector 999" stroke="#000" stroke-linecap="round" stroke-linejoin="round" d="m23 32.583333333333336 0 10.541666666666668" stroke-width="2"></path></g></svg>