<svg xmlns="http://www.w3.org/2000/svg" fill="none" viewBox="-1 -1 48 48" height="48" width="48"><g id="gold--gold-money-payment-bars-finance-wealth-bullion-jewelry"><path id="Rectangle 587" stroke="#000" stroke-linecap="round" stroke-linejoin="round" d="M5.194166666666667 27.211875c0.4025 -1.1202916666666667 1.4020416666666669 -1.8706666666666667 2.583666666666667 -2.015375C8.918249999999999 25.057541666666665 10.448708333333334 24.916666666666668 11.979166666666668 24.916666666666668c1.5304583333333335 0 3.060916666666667 0.140875 4.2022916666666665 0.2798333333333333 1.1816250000000001 0.14375 2.1811666666666665 0.8950833333333335 2.583666666666667 2.015375 0.6152500000000001 1.7125416666666666 1.4873333333333334 4.687208333333333 2.038375 8.924958333333334 0.19166666666666668 1.4700833333333334 -0.8385416666666667 2.7810833333333336 -2.3153333333333332 2.906625 -1.5103333333333335 0.12841666666666668 -3.68 0.24820833333333336 -6.509 0.24820833333333336 -2.828041666666667 0 -4.997708333333334 -0.11979166666666667 -6.507083333333334 -0.24916666666666668 -1.4777500000000001 -0.12458333333333334 -2.5079583333333333 -1.4355833333333334 -2.31725 -2.905666666666667 0.5519999999999999 -4.23775 1.4240833333333334 -7.212416666666667 2.0393333333333334 -8.924958333333334Z" stroke-width="2"></path><path id="Rectangle 587_2" stroke="#000" stroke-linecap="round" stroke-linejoin="round" d="M27.235833333333336 27.211875c0.4025 -1.1202916666666667 1.4020416666666669 -1.8706666666666667 2.583666666666667 -2.015375 1.1404166666666666 -0.13895833333333332 2.6718333333333333 -0.2798333333333333 4.201333333333334 -0.2798333333333333 1.5304583333333335 0 3.060916666666667 0.140875 4.2022916666666665 0.2798333333333333 1.1816250000000001 0.14375 2.1811666666666665 0.8950833333333335 2.583666666666667 2.015375 0.6152500000000001 1.7125416666666666 1.4873333333333334 4.687208333333333 2.038375 8.924958333333334 0.19166666666666668 1.4700833333333334 -0.8385416666666667 2.7810833333333336 -2.3153333333333332 2.906625 -1.5103333333333335 0.12841666666666668 -3.68 0.24820833333333336 -6.509 0.24820833333333336 -2.828041666666667 0 -4.997708333333334 -0.11979166666666667 -6.507083333333334 -0.24916666666666668 -1.4777500000000001 -0.12458333333333334 -2.5079583333333333 -1.4355833333333334 -2.31725 -2.905666666666667 0.5519999999999999 -4.23775 1.4240833333333334 -7.212416666666667 2.0393333333333334 -8.924958333333334Z" stroke-width="2"></path><path id="Rectangle 587_3" stroke="#000" stroke-linecap="round" stroke-linejoin="round" d="M16.215000000000003 9.003541666666667c0.4025 -1.1202916666666667 1.4020416666666669 -1.8706666666666667 2.583666666666667 -2.015375C19.939083333333336 6.849208333333334 21.4705 6.708333333333334 23 6.708333333333334c1.5304583333333335 0 3.060916666666667 0.140875 4.2022916666666665 0.2798333333333333 1.1816250000000001 0.14375 2.1811666666666665 0.8950833333333335 2.583666666666667 2.015375 0.6152500000000001 1.7125416666666666 1.4873333333333334 4.687208333333333 2.038375 8.924958333333334 0.19166666666666668 1.4700833333333334 -0.8385416666666667 2.7810833333333336 -2.3153333333333332 2.906625 -1.5103333333333335 0.12841666666666668 -3.68 0.24820833333333336 -6.509 0.24820833333333336 -2.828041666666667 0 -4.997708333333334 -0.11979166666666667 -6.507083333333334 -0.24916666666666668 -1.4777500000000001 -0.12458333333333334 -2.5079583333333333 -1.4355833333333334 -2.31725 -2.905666666666667 0.5519999999999999 -4.23775 1.4240833333333334 -7.212416666666667 2.0393333333333334 -8.924958333333334Z" stroke-width="2"></path></g></svg>