<svg xmlns="http://www.w3.org/2000/svg" fill="none" viewBox="-1 -1 48 48" height="48" width="48"><g id="home-1--home-house-roof-shelter"><path id="Vector 705" stroke="#000" stroke-linecap="round" stroke-linejoin="round" d="M25.697708333333335 3.986666666666667c6.933541666666668 3.077208333333333 12.189041666666666 7.120416666666666 14.905916666666668 9.455875 1.3732916666666668 1.1806666666666668 2.1390000000000002 2.8797916666666667 2.2329166666666667 4.6881666666666675C42.96783333333333 20.613750000000003 43.125 24.49979166666667 43.125 28.75c0 3.2698333333333336 -0.09295833333333334 6.426583333333334 -0.1955 8.905791666666666a5.451 5.451 0 0 1 -5.282333333333333 5.242083333333333c-3.3158333333333334 0.115 -8.236875000000001 0.227125 -14.647166666666667 0.227125s-11.330375 -0.11308333333333333 -14.647166666666667 -0.22616666666666665a5.451 5.451 0 0 1 -5.282333333333333 -5.242083333333333A219.96241666666668 219.96241666666668 0 0 1 2.875 28.75c0 -4.250208333333333 0.15812500000000002 -8.13625 0.2875 -10.619291666666667 0.09583333333333334 -1.808375 0.8605833333333334 -3.5075000000000003 2.233875 -4.6881666666666675 2.716875 -2.336416666666667 7.973333333333334 -6.378666666666667 14.905916666666668 -9.455875a6.651791666666667 6.651791666666667 0 0 1 5.395416666666667 0Z" stroke-width="2"></path><path id="Vector 1068" stroke="#000" stroke-linecap="round" stroke-linejoin="round" d="m15.333333333333334 36.41666666666667 15.333333333333334 0" stroke-width="2"></path></g></svg>