<svg xmlns="http://www.w3.org/2000/svg" fill="none" viewBox="-1 -1 48 48" height="48" width="48"><g id="align-right--rag-paragraph-text-alignment-align-right-formatting-left"><path id="Rectangle 1098" stroke="#000" stroke-linecap="round" stroke-linejoin="round" d="M43.065583333333336 6.2636666666666665c-0.12170833333333334 -0.8500416666666667 -0.9065833333333333 -1.2650000000000001 -1.7652500000000002 -1.2956666666666667C39.265791666666665 4.897083333333334 34.33804166666667 4.791666666666667 23 4.791666666666667c-11.337083333333334 0 -16.265791666666665 0.10541666666666667 -18.300333333333334 0.17633333333333334 -0.8586666666666667 0.029708333333333333 -1.643541666666667 0.44562500000000005 -1.7642916666666668 1.2956666666666667A6.568416666666667 6.568416666666667 0 0 0 2.875 7.1875c0 0.3612916666666667 0.023000000000000003 0.6669999999999999 0.060375000000000005 0.9238333333333333 0.12075000000000001 0.8500416666666667 0.905625 1.2650000000000001 1.7633333333333334 1.2956666666666667C6.735166666666666 9.477916666666667 11.662916666666668 9.583333333333334 23 9.583333333333334c11.337083333333334 0 16.265791666666665 -0.10541666666666667 18.300333333333334 -0.17633333333333334 0.8586666666666667 -0.029708333333333333 1.643541666666667 -0.44562500000000005 1.7652500000000002 -1.2956666666666667 0.03641666666666667 -0.25683333333333336 0.059416666666666666 -0.5625416666666666 0.059416666666666666 -0.9238333333333333s-0.023000000000000003 -0.6669999999999999 -0.060375000000000005 -0.9238333333333333Z" stroke-width="2"></path><path id="Rectangle 1100" stroke="#000" stroke-linecap="round" stroke-linejoin="round" d="M43.122125000000004 38.50775c-0.022041666666666668 -1.1825833333333333 -0.9238333333333333 -1.9329583333333333 -2.1054583333333334 -1.9818333333333336C39.659666666666666 36.469375 37.36541666666667 36.41666666666667 33.54166666666667 36.41666666666667c-3.8247083333333336 0 -6.118 0.052708333333333336 -7.4750000000000005 0.10925000000000001 -1.1816250000000001 0.04791666666666667 -2.0834166666666665 0.79925 -2.1054583333333334 1.9818333333333336a16.182416666666665 16.182416666666665 0 0 0 0 0.6095c0.022041666666666668 1.1825833333333333 0.9238333333333333 1.9329583333333333 2.1064166666666666 1.9818333333333336 1.3560416666666668 0.056541666666666664 3.6493333333333333 0.10925000000000001 7.474041666666667 0.10925000000000001 3.8247083333333336 0 6.118 -0.052708333333333336 7.4750000000000005 -0.10925000000000001 1.1816250000000001 -0.04791666666666667 2.0834166666666665 -0.79925 2.1054583333333334 -1.9818333333333336a16.190083333333334 16.190083333333334 0 0 0 0 -0.6095Z" stroke-width="2"></path><path id="Rectangle 70" stroke="#000" stroke-linecap="round" stroke-linejoin="round" d="M43.0905 29.039416666666668c-0.09008333333333333 0.9353333333333333 -0.91425 1.4288750000000001 -1.8534166666666667 1.4633749999999999 -1.9214583333333333 0.06995833333333333 -6.2004166666666665 0.16387500000000002 -15.362083333333334 0.16387500000000002 -9.161666666666667 0 -13.440625 -0.09391666666666668 -15.362083333333334 -0.16291666666666668 -0.9391666666666667 -0.035458333333333335 -1.7633333333333334 -0.529 -1.8534166666666667 -1.4643333333333335A8.02125 8.02125 0 0 1 8.625 28.270833333333336c0 -0.29133333333333333 0.013416666666666667 -0.54625 0.034499999999999996 -0.7685833333333334 0.09008333333333333 -0.9353333333333333 0.91425 -1.4288750000000001 1.8534166666666667 -1.4633749999999999C12.434375 25.968916666666665 16.713333333333335 25.875 25.875 25.875c9.161666666666667 0 13.440625 0.09391666666666668 15.362083333333334 0.16291666666666668 0.9391666666666667 0.035458333333333335 1.7633333333333334 0.529 1.8534166666666667 1.4643333333333335 0.021083333333333332 0.22233333333333336 0.034499999999999996 0.47725 0.034499999999999996 0.7685833333333334 0 0.29133333333333333 -0.013416666666666667 0.54625 -0.034499999999999996 0.7685833333333334Z" stroke-width="2"></path><path id="Rectangle 75" stroke="#000" stroke-linecap="round" stroke-linejoin="round" d="M43.11254166666667 18.267750000000003c-0.051750000000000004 1.0589583333333334 -0.9209583333333333 1.6742083333333335 -1.9808750000000002 1.7154166666666668 -1.6981666666666668 0.06708333333333334 -5.034125 0.14183333333333334 -11.423333333333334 0.14183333333333334s-9.725166666666667 -0.07475 -11.423333333333334 -0.14183333333333334c-1.0599166666666668 -0.04120833333333333 -1.929125 -0.6564583333333334 -1.9808750000000002 -1.7154166666666668a11.008375000000001 11.008375000000001 0 0 1 0 -1.0771666666666668c0.051750000000000004 -1.0589583333333334 0.9209583333333333 -1.6742083333333335 1.9808750000000002 -1.7154166666666668C19.98316666666667 15.408083333333334 23.319125 15.333333333333334 29.708333333333336 15.333333333333334s9.725166666666667 0.07475 11.423333333333334 0.14183333333333334c1.0599166666666668 0.04120833333333333 1.929125 0.6564583333333334 1.9808750000000002 1.7154166666666668a11.008375000000001 11.008375000000001 0 0 1 0 1.0771666666666668Z" stroke-width="2"></path></g></svg>