<svg xmlns="http://www.w3.org/2000/svg" fill="none" viewBox="-1 -1 48 48" height="48" width="48"><g id="hot-air-balloon"><path id="Vector 1437" stroke="#000" stroke-linecap="round" stroke-linejoin="round" d="m28.75 33.54166666666667 1.9166666666666667 -6.708333333333334" stroke-width="2"></path><path id="Ellipse 483" stroke="#000" stroke-linecap="round" stroke-linejoin="round" d="M5.75 15.333333333333334a17.25 12.458333333333334 0 1 0 34.5 0 17.25 12.458333333333334 0 1 0 -34.5 0" stroke-width="2"></path><path id="Ellipse 484" stroke="#000" stroke-linecap="round" stroke-linejoin="round" d="M15.333333333333334 15.333333333333334a7.666666666666667 12.458333333333334 0 1 0 15.333333333333334 0 7.666666666666667 12.458333333333334 0 1 0 -15.333333333333334 0" stroke-width="2"></path><path id="Union" stroke="#000" stroke-linecap="round" stroke-linejoin="round" d="M16.189125 33.668166666666664c-0.9966666666666667 0.048875 -1.7719583333333333 0.7024583333333333 -1.8054999999999999 1.699125a17.112000000000002 17.112000000000002 0 0 0 0 1.1404166666666666 1.679 1.679 0 0 0 1.0244583333333332 1.5180000000000002c0.10158333333333333 1.4020416666666669 0.29229166666666667 2.4868750000000004 0.4705416666666667 3.2545 0.20700000000000002 0.8912500000000001 0.9410833333333334 1.5074583333333333 1.8515 1.6061666666666667C18.802500000000002 43.00329166666667 20.514083333333332 43.125 23 43.125s4.1975 -0.12170833333333334 5.269875 -0.23766666666666666c0.9104166666666667 -0.09966666666666667 1.6445 -0.7149166666666666 1.8515 -1.6071250000000001 0.17825 -0.7676250000000001 0.36895833333333333 -1.8524583333333335 0.4705416666666667 -3.2545a1.679 1.679 0 0 0 1.0235 -1.5180000000000002 17.112000000000002 17.112000000000002 0 0 0 0 -1.1404166666666666c-0.03354166666666667 -0.9966666666666667 -0.807875 -1.65025 -1.8045416666666667 -1.699125C28.545875 33.605875000000005 26.409750000000003 33.54166666666667 23 33.54166666666667c-3.40975 0 -5.5458750000000006 0.06420833333333334 -6.810875 0.1265Z" stroke-width="2"></path><path id="Vector 1436" stroke="#000" stroke-linecap="round" stroke-linejoin="round" d="m17.25 33.54166666666667 -1.9166666666666667 -6.708333333333334" stroke-width="2"></path></g></svg>