<svg xmlns="http://www.w3.org/2000/svg" fill="none" viewBox="-1 -1 48 48" height="48" width="48"><g id="horizonal-scroll--move-scroll-horizonal"><path id="Vector 134 (Stroke)" fill-rule="evenodd" stroke="#000" stroke-linecap="round" stroke-linejoin="round" d="M11.046708333333333 23.320083333333333a0.4791666666666667 0.4791666666666667 0 0 1 0 -0.6401666666666668l5.825708333333333 -6.495583333333333c0.802125 -0.8950833333333335 0.974625 -2.216625 0.17441666666666666 -3.1145833333333335a10.757291666666667 10.757291666666667 0 0 0 -1.8064583333333335 -1.6234166666666667c-1.058 -0.7436666666666667 -2.419791666666667 -0.3727916666666667 -3.334041666666667 0.5424166666666667 -2.7762916666666664 2.780125 -6.304875 6.662333333333334 -8.052875 9.246958333333334a3.1050000000000004 3.1050000000000004 0 0 0 0 3.529541666666667c1.7480000000000002 2.583666666666667 5.276583333333334 6.4658750000000005 8.052875 9.246 0.91425 0.9152083333333333 2.276041666666667 1.2860833333333335 3.335 0.5424166666666667a10.756333333333334 10.756333333333334 0 0 0 1.8054999999999999 -1.6234166666666667c0.8002083333333333 -0.8979583333333334 0.6277083333333334 -2.2195 -0.175375 -3.1145833333333335l-5.824750000000001 -6.495583333333333Z" clip-rule="evenodd" stroke-width="2"></path><path id="Ellipse 19" stroke="#000" stroke-linecap="round" stroke-linejoin="round" d="M23.479166666666668 19.166666666666668a3.8333333333333335 3.8333333333333335 0 1 1 0 7.666666666666667 3.8333333333333335 3.8333333333333335 0 0 1 0 -7.666666666666667Z" stroke-width="2"></path><path id="Vector 134 (Stroke)_2" fill-rule="evenodd" stroke="#000" stroke-linecap="round" stroke-linejoin="round" d="M35.91066666666667 22.679916666666667a0.4791666666666667 0.4791666666666667 0 0 1 0 0.6401666666666668l-5.824750000000001 6.495583333333333c-0.8030833333333334 0.8950833333333335 -0.9755833333333334 2.216625 -0.175375 3.1145833333333335a10.752500000000001 10.752500000000001 0 0 0 1.8064583333333335 1.6234166666666667c1.0589583333333334 0.7436666666666667 2.42075 0.3727916666666667 3.335 -0.5424166666666667 2.775333333333333 -2.780125 6.303916666666667 -6.662333333333334 8.052875 -9.246958333333334a3.1050000000000004 3.1050000000000004 0 0 0 0 -3.529541666666667c-1.7489583333333334 -2.583666666666667 -5.277541666666666 -6.4658750000000005 -8.053833333333333 -9.246 -0.9132916666666666 -0.9152083333333333 -2.2750833333333333 -1.2860833333333335 -3.334041666666667 -0.5424166666666667a10.752500000000001 10.752500000000001 0 0 0 -1.8064583333333335 1.6234166666666667c-0.8002083333333333 0.8979583333333334 -0.6277083333333334 2.2195 0.175375 3.1145833333333335l5.824750000000001 6.495583333333333Z" clip-rule="evenodd" stroke-width="2"></path></g></svg>