<svg xmlns="http://www.w3.org/2000/svg" fill="none" viewBox="-1 -1 48 48" height="48" width="48"><g id="map-fold--navigation-map-maps-gps-travel-fold"><path id="Vector 662" stroke="#000" stroke-linecap="round" stroke-linejoin="round" d="M16.138333333333335 4.791666666666667c-4.395875 0.5836250000000001 -8.417041666666666 1.9147500000000002 -10.738125 2.7954583333333334 -1.2927916666666668 0.4906666666666667 -2.1361250000000003 1.69625 -2.2089583333333334 3.07625C3.0570833333333334 13.206791666666668 2.875 17.926583333333333 2.875 24.820833333333333c0 6.591416666666667 0.16674999999999998 11.195250000000001 0.299 13.809583333333334 0.06420833333333334 1.285125 1.3675416666666667 2.0977916666666667 2.58175 1.6713333333333333C11.5345 38.272 16.138333333333335 37.56666666666667 16.138333333333335 37.56666666666667 23 38.47708333333333 29.860708333333335 41.208333333333336 29.860708333333335 41.208333333333336c4.396833333333333 -0.5836250000000001 8.418000000000001 -1.9147500000000002 10.739083333333333 -2.7954583333333334 1.2927916666666668 -0.4906666666666667 2.1361250000000003 -1.69625 2.2089583333333334 -3.07625 0.13416666666666668 -2.544375 0.31625000000000003 -7.263208333333333 0.31625000000000003 -14.157458333333334 0 -6.591416666666667 -0.16674999999999998 -11.195250000000001 -0.299 -13.809583333333334 -0.06420833333333334 -1.285125 -1.3675416666666667 -2.0977916666666667 -2.58175 -1.6713333333333333C34.4655 7.728000000000001 29.861666666666668 8.433333333333334 29.861666666666668 8.433333333333334 23 5.702083333333333 16.13929166666667 4.791666666666667 16.13929166666667 4.791666666666667Z" stroke-width="2"></path><path id="Intersect" stroke="#000" stroke-linecap="round" stroke-linejoin="round" d="M15.956249999999999 37.51970833333334V4.912416666666667" stroke-width="2"></path><path id="Intersect_2" stroke="#000" stroke-linecap="round" stroke-linejoin="round" d="M30.043750000000003 8.48125v32.60729166666667" stroke-width="2"></path></g></svg>