<svg xmlns="http://www.w3.org/2000/svg" fill="none" viewBox="-1 -1 48 48" height="48" width="48"><g id="file-folder--work-office-company-folder-supplies-file"><path id="Subtract" stroke="#000" stroke-linecap="round" stroke-linejoin="round" d="M37.35966666666667 16.291666666666668a150.08937500000002 150.08937500000002 0 0 0 -0.06420833333333334 -2.8462500000000004c-0.25875000000000004 -0.750375 -1.2381666666666669 -2.9650833333333333 -4.526208333333333 -6.1314166666666665 -3.515166666666667 -3.3848333333333334 -5.900458333333334 -4.229125000000001 -6.507083333333334 -4.400666666666666A134.18583333333333 134.18583333333333 0 0 0 23 2.875c-4.578916666666666 0 -7.844916666666667 0.21275000000000002 -10.007875 0.43412500000000004 -2.112166666666667 0.21658333333333335 -3.6915 1.7920833333333335 -3.903291666666667 3.90425A83.30216666666668 83.30216666666668 0 0 0 8.782166666666667 11.5" stroke-width="2"></path><path id="Intersect" stroke="#000" stroke-linecap="round" stroke-linejoin="round" d="M26.960791666666665 3.354166666666667c-0.23 1.3732916666666668 -0.11116666666666668 3.792125 0.06229166666666667 5.842958333333334a4.4045000000000005 4.4045000000000005 0 0 0 4.03075 4.029791666666667c2.0508333333333337 0.1725 4.468708333333334 0.29229166666666667 5.8420000000000005 0.06325" stroke-width="2"></path><path id="Subtract_2" stroke="#000" stroke-linecap="round" stroke-linejoin="round" d="M11.535458333333334 14.605958333333334c1.7537500000000001 -0.186875 3.472041666666667 0.5385833333333334 4.646 1.85725l1.8419166666666666 2.0700000000000003a3.8333333333333335 3.8333333333333335 0 0 0 2.8635 1.284166666666667h15.59975c2.9871250000000003 0 5.477833333333334 2.2885 5.587083333333333 5.273708333333333 0.0575 1.5649583333333335 0.09295833333333334 3.2592916666666665 0.09295833333333334 4.982375 0 3.3005 -0.253 6.253125000000001 -0.4925833333333334 8.30875 -0.2175416666666667 1.8687500000000001 -1.4700833333333334 3.3742916666666667 -3.320625 3.713541666666667C35.70845833333334 42.58066666666667 30.964708333333334 43.125 23 43.125c-7.9656666666666665 0 -12.7075 -0.5443333333333333 -15.353458333333334 -1.02925 -1.8495833333333334 -0.33925 -3.102125 -1.8447916666666668 -3.320625 -3.713541666666667A72.96270833333334 72.96270833333334 0 0 1 3.8333333333333335 30.073458333333335c0 -4.974708333333333 0.27504166666666663 -8.730416666666667 0.5232500000000001 -11.105166666666666 0.1955 -1.8706666666666667 1.4327083333333335 -3.401125 3.2755833333333335 -3.7758333333333334a41.85425 41.85425 0 0 1 3.9023333333333334 -0.5865Z" stroke-width="2"></path></g></svg>