<svg xmlns="http://www.w3.org/2000/svg" fill="none" viewBox="-1 -1 48 48" height="48" width="48"><g id="nintendo-xbox-controller-1--entertainment-gaming-nintendo-xbox-controller"><path id="Union" stroke="#000" stroke-linejoin="round" d="M16.094250000000002 9.484625000000001a1.9530833333333333 1.9530833333333333 0 0 1 -1.5831666666666666 -0.5615833333333333l-0.12266666666666667 -0.12458333333333334c-0.7197083333333334 -0.7245 -1.7067916666666667 -1.1653333333333333 -2.710166666666667 -0.9736666666666667 -1.066625 0.20316666666666666 -2.0537083333333332 0.572125 -2.8203750000000003 0.92 -1.0637500000000002 0.48108333333333336 -1.8275416666666668 1.4145 -2.231 2.5098750000000005 -3.54775 9.636041666666667 -3.826625 19.437875000000002 -3.739416666666667 23.790625 0.03066666666666667 1.5141666666666669 0.6602916666666666 2.976583333333333 2.0163333333333333 3.650291666666667 0.7168333333333333 0.3555416666666667 1.4940416666666667 0.6516666666666667 2.2041666666666666 0.8845416666666668 1.5026666666666668 0.49450000000000005 3.11075 -0.08337499999999999 4.0441666666666665 -1.3589166666666666 1.2151666666666667 -1.6579166666666667 2.44375 -3.5007916666666667 3.2516249999999998 -4.739916666666667 0.598 -0.9180833333333334 1.5477083333333335 -1.5457916666666667 2.63925 -1.63875C18.304166666666667 31.738083333333336 20.272583333333333 31.625 23 31.625s4.696791666666667 0.11212500000000002 5.957000000000001 0.21850000000000003c1.0915416666666666 0.09200000000000001 2.04125 0.7197083333333334 2.63925 1.6377916666666668 0.807875 1.239125 2.0364583333333335 3.0820000000000003 3.2506666666666666 4.739916666666667 0.9343750000000001 1.2755416666666666 2.5424583333333333 1.8534166666666667 4.0441666666666665 1.3589166666666666a16.95579166666667 16.95579166666667 0 0 0 2.2051250000000002 -0.8845416666666668c1.3560416666666668 -0.6737083333333334 1.985666666666667 -2.1370833333333334 2.0163333333333333 -3.650291666666667 0.08625 -4.35275 -0.19166666666666668 -14.154583333333333 -3.739416666666667 -23.790625 -0.4025 -1.095375 -1.1682083333333335 -2.0287916666666668 -2.231 -2.5108333333333337 -0.7666666666666667 -0.34691666666666665 -1.7537500000000001 -0.715875 -2.8203750000000003 -0.92 -1.003375 -0.19070833333333334 -1.9904583333333334 0.25012500000000004 -2.710166666666667 0.974625l-0.12266666666666667 0.12458333333333334a1.9530833333333333 1.9530833333333333 0 0 1 -1.5831666666666666 0.5615833333333333C28.440458333333336 9.337041666666668 25.496458333333333 9.075416666666667 23 9.075416666666667c-2.4964583333333334 0 -5.440458333333333 0.26162500000000005 -6.90575 0.40920833333333334Z" stroke-width="2"></path><path id="Vector 1666" stroke="#000" stroke-linecap="round" stroke-linejoin="round" d="m18.208333333333336 25.875 0.9583333333333334 0" stroke-width="2"></path><path id="Vector 1667" stroke="#000" stroke-linecap="round" stroke-linejoin="round" d="m27.791666666666668 25.875 -0.9583333333333334 0" stroke-width="2"></path><path id="Vector" stroke="#000" stroke-linecap="round" stroke-linejoin="round" d="M11.5 18.208333333333336a2.875 2.875 0 1 0 5.75 0 2.875 2.875 0 0 0 -5.75 0Z" stroke-width="2"></path><path id="Vector 953" stroke="#000" stroke-linecap="round" stroke-linejoin="round" d="M31.625 15.333333333333334v5.75" stroke-width="2"></path><path id="Vector 954" stroke="#000" stroke-linecap="round" stroke-linejoin="round" d="m28.75 18.208333333333336 5.75 0" stroke-width="2"></path></g></svg>