<svg xmlns="http://www.w3.org/2000/svg" fill="none" viewBox="-1 -1 48 48" height="48" width="48"><g id="bug-virus-browser--bug-browser-file-virus-threat-danger-internet"><path id="Vector 1464" stroke="#000" stroke-linecap="round" stroke-linejoin="round" d="M3.354166666666667 12.9375h35.458333333333336" stroke-width="2"></path><path id="Vector 1465" stroke="#000" stroke-linecap="round" stroke-linejoin="round" d="M10.541666666666668 20.125h11.5" stroke-width="2"></path><path id="Vector 1505" stroke="#000" stroke-linecap="round" stroke-linejoin="round" d="M8.625 8.145833333333334h1.9166666666666667" stroke-width="2"></path><path id="Vector 1506" stroke="#000" stroke-linecap="round" stroke-linejoin="round" d="M15.333333333333334 8.145833333333334h1.9166666666666667" stroke-width="2"></path><path id="Rectangle 1095" stroke="#000" stroke-linecap="round" stroke-linejoin="round" d="M18.208333333333336 37.35870833333333c-4.614375000000001 -0.051750000000000004 -8.033708333333333 -0.22520833333333332 -10.385458333333334 -0.39675 -2.4495 -0.18016666666666667 -4.3345416666666665 -2.0364583333333335 -4.528125 -4.485C3.0829583333333335 29.806083333333333 2.875 25.752333333333333 2.875 20.125c0 -5.626375 0.20795833333333333 -9.679166666666667 0.41975 -12.352916666666667 0.19358333333333336 -2.447583333333333 2.0805416666666665 -4.304833333333334 4.530041666666667 -4.484041666666667C10.642291666666667 3.0820000000000003 14.988333333333335 2.875 21.083333333333336 2.875c6.095000000000001 0 10.441041666666667 0.20700000000000002 13.258541666666668 0.4130416666666667 2.4495 0.17920833333333333 4.336458333333334 2.0364583333333335 4.530041666666667 4.485C39.083708333333334 10.443916666666667 39.29166666666667 14.497666666666667 39.29166666666667 20.125c0 0.4906666666666667 -0.0019166666666666668 0.9698333333333334 -0.004791666666666667 1.4375" stroke-width="2"></path><path id="Vector 1466" stroke="#000" stroke-linecap="round" stroke-linejoin="round" d="M10.541666666666668 27.791666666666668h5.75" stroke-width="2"></path><path id="Rectangle 56" stroke="#000" stroke-linejoin="round" d="M32.583333333333336 43.125c-4.384375 0 -7.529625 -2.93825 -7.639833333333334 -7.321666666666666A90.37370833333334 90.37370833333334 0 0 1 24.916666666666668 33.54166666666667c0 -0.8212916666666666 0.009583333333333334 -1.5735833333333333 0.026833333333333334 -2.2616666666666667C25.053708333333336 26.896583333333332 28.198958333333334 23.958333333333336 32.583333333333336 23.958333333333336c4.384375 0 7.529625 2.93825 7.639833333333334 7.321666666666666 0.017249999999999998 0.6880833333333334 0.026833333333333334 1.440375 0.026833333333333334 2.2616666666666667s-0.009583333333333334 1.5735833333333333 -0.026833333333333334 2.2616666666666667C40.11295833333333 40.186749999999996 36.967708333333334 43.125 32.583333333333336 43.125Z" stroke-width="2"></path><path id="Vector 1494" stroke="#000" stroke-linecap="round" stroke-linejoin="round" d="m40.25 29.708333333333336 2.875 -1.9166666666666667" stroke-width="2"></path><path id="Vector 1495" stroke="#000" stroke-linecap="round" stroke-linejoin="round" d="m40.25 37.375 2.875 1.9166666666666667" stroke-width="2"></path><path id="Vector 1496" stroke="#000" stroke-linecap="round" stroke-linejoin="round" d="M43.60416666666667 33.54166666666667H40.25" stroke-width="2"></path><path id="Vector 1494_2" stroke="#000" stroke-linecap="round" stroke-linejoin="round" d="m24.916666666666668 29.708333333333336 -2.875 -1.9166666666666667" stroke-width="2"></path><path id="Vector 1495_2" stroke="#000" stroke-linecap="round" stroke-linejoin="round" d="m24.916666666666668 37.375 -2.875 1.9166666666666667" stroke-width="2"></path><path id="Vector 1496_2" stroke="#000" stroke-linecap="round" stroke-linejoin="round" d="M21.5625 33.54166666666667H24.916666666666668" stroke-width="2"></path><path id="Vector 1497" stroke="#000" stroke-linecap="round" stroke-linejoin="round" d="m30.666666666666668 23.958333333333336 -0.9583333333333334 -3.8333333333333335" stroke-width="2"></path><path id="Vector 1498" stroke="#000" stroke-linecap="round" stroke-linejoin="round" d="m34.5 23.958333333333336 0.9583333333333334 -3.8333333333333335" stroke-width="2"></path><path id="Vector 1507" stroke="#000" stroke-linecap="round" stroke-linejoin="round" d="M40.25 29.708333333333336s-2.3958333333333335 1.9166666666666667 -7.666666666666667 1.9166666666666667 -7.666666666666667 -1.9166666666666667 -7.666666666666667 -1.9166666666666667" stroke-width="2"></path></g></svg>