<svg xmlns="http://www.w3.org/2000/svg" fill="none" viewBox="-1 -1 48 48" height="48" width="48"><g id="flash-1--flash-power-connect-charge-electricity-lightning"><path id="Union" stroke="#000" stroke-linejoin="round" d="M32.90533333333333 6.4026250000000005c0.30091666666666667 -1.6550416666666667 -0.8816666666666667 -3.200833333333333 -2.5616250000000003 -3.297625 -3.481625 -0.20125 -9.399333333333333 -0.405375 -15.213541666666668 0.01916666666666667a3.6177083333333333 3.6177083333333333 0 0 0 -3.1165 2.3249166666666667c-2.9305833333333333 7.700208333333334 -4.3287916666666675 14.812958333333334 -4.922958333333333 18.577291666666667 -0.24533333333333335 1.5525000000000002 0.8720833333333334 2.935375 2.4399166666666665 3.0436666666666667 2.336416666666667 0.1600416666666667 5.941666666666667 0.3267916666666667 10.115208333333333 0.24245833333333336 -0.4331666666666667 3.08775 -0.8979583333333334 7.829583333333334 -1.3608333333333333 13.049625 -0.23383333333333334 2.635416666666667 2.865416666666667 4.08825 4.670916666666667 2.1543333333333337 7.130000000000001 -7.640791666666667 13.67925 -16.15175 17.278750000000002 -21.012416666666667 1.3100416666666668 -1.7710000000000001 0.16387500000000002 -4.1773750000000005 -2.038375 -4.234875A171.71416666666667 171.71416666666667 0 0 0 30.666666666666668 17.25c0.830875 -3.332125 1.566875 -7.152041666666667 2.2386666666666666 -10.847375000000001Z" stroke-width="2"></path></g></svg>