<svg xmlns="http://www.w3.org/2000/svg" fill="none" viewBox="-1 -1 48 48" height="48" width="48"><g id="like-1--reward-social-up-rating-media-like-thumb-hand"><path id="Rectangle 134" stroke="#000" stroke-linecap="round" stroke-linejoin="round" d="M3.0245 39.72291666666667c0.03833333333333334 1.40875 0.8682500000000001 2.67375 2.245375 2.9679583333333333 0.8845416666666668 0.1887916666666667 2.017291666666667 0.34308333333333335 3.355125 0.34308333333333335s2.4705833333333334 -0.15333333333333335 3.354166666666667 -0.34308333333333335c1.3780833333333333 -0.29420833333333335 2.2089583333333334 -1.5601666666666667 2.2463333333333333 -2.9679583333333333 0.06420833333333334 -2.392 0.1495 -6.44 0.1495 -11.063958333333334s-0.08529166666666667 -8.671958333333333 -0.1495 -11.063c-0.03833333333333334 -1.40875 -0.8682500000000001 -2.67375 -2.245375 -2.9679583333333333A16.077 16.077 0 0 0 8.625 14.283958333333333c-1.3378333333333332 0 -2.4705833333333334 0.15525 -3.354166666666667 0.3440416666666667 -1.3780833333333333 0.29420833333333335 -2.2089583333333334 1.5601666666666667 -2.2463333333333333 2.9679583333333333C2.9602916666666665 19.987000000000002 2.875 24.035 2.875 28.658958333333334s0.08529166666666667 8.671958333333333 0.1495 11.063958333333334Z" stroke-width="2"></path><path id="Subtract" stroke="#000" stroke-linecap="round" stroke-linejoin="round" d="M14.135416666666668 16.655833333333334c1.5486666666666669 -3.391541666666667 3.3167916666666666 -8.191833333333333 4.204208333333333 -11.162666666666667 0.4791666666666667 -1.6052083333333333 1.9224166666666664 -2.7552083333333335 3.590875 -2.60475 1.049375 0.09391666666666668 2.2635833333333335 0.27120833333333333 3.402083333333333 0.5970416666666667 2.0460416666666665 0.5865 3.1471666666666667 2.5970833333333334 3.299541666666667 4.720750000000001 0.14566666666666667 2.0364583333333335 0.13991666666666666 4.110291666666667 0.071875 5.939750000000001 3.1117083333333335 -0.29229166666666667 6.164000000000001 -0.5251666666666668 8.893333333333333 -0.6669999999999999 2.9133333333333336 -0.152375 5.354208333333333 2.0268750000000004 5.464416666666667 4.9402083333333335 0.20508333333333334 5.402125 0.03641666666666667 14.068333333333333 -2.447583333333333 20.797750000000004 -0.8672916666666667 2.347916666666667 -3.178791666666667 3.7451666666666665 -5.681958333333334 3.7978750000000003 -8.146791666666667 0.1725 -16.422 -0.8366250000000001 -21.210791666666665 -1.5630416666666667" stroke-width="2"></path><path id="Vector 1365" stroke="#000" stroke-linecap="round" stroke-linejoin="round" d="M8.625 37.28395833333334v-1.9166666666666667" stroke-width="2"></path></g></svg>