<svg xmlns="http://www.w3.org/2000/svg" fill="none" viewBox="-1 -1 48 48" height="48" width="48"><g id="dashboard-gauge-2--bar-speed-test-loading-dashboard-internet-gauge-progress"><path id="Ellipse 19" stroke="#000" stroke-linecap="round" stroke-linejoin="round" d="M9.443416666666666 30.666666666666668A14.352000000000002 14.352000000000002 0 0 1 8.625 25.875c0 -7.938833333333334 6.436166666666667 -14.375 14.375 -14.375 7.938833333333334 0 14.375 6.436166666666667 14.375 14.375 0 1.6799583333333332 -0.2875 3.2928333333333333 -0.8174583333333334 4.791666666666667" stroke-width="2"></path><path id="Subtract" stroke="#000" stroke-linecap="round" stroke-linejoin="round" d="M32.583333333333336 36.41666666666667h5.824750000000001c1.1643750000000002 0 2.297125 -0.5165416666666667 2.8222916666666666 -1.555375C42.493458333333336 32.361958333333334 43.125 28.850625 43.125 25.875c0 -11.11475 -9.01025 -20.125 -20.125 -20.125S2.875 14.76025 2.875 25.875c0 2.975625 0.6315416666666667 6.487916666666666 1.8946250000000002 8.986291666666668C5.294791666666667 35.899166666666666 6.4275416666666665 36.41666666666667 7.592875 36.41666666666667H13.416666666666668" stroke-width="2"></path><path id="Ellipse 76" stroke="#000" stroke-linecap="round" stroke-linejoin="round" d="M19.297 33.50812500000001a3.8333333333333335 3.8333333333333335 0 1 0 7.406 1.98375 3.8333333333333335 3.8333333333333335 0 1 0 -7.406 -1.98375" stroke-width="2"></path><path id="Vector 1437" stroke="#000" stroke-linecap="round" stroke-linejoin="round" d="m23.991875 30.797000000000004 3.472041666666667 -12.959541666666667" stroke-width="2"></path></g></svg>