<svg xmlns="http://www.w3.org/2000/svg" fill="none" viewBox="-1 -1 48 48" height="48" width="48"><g id="sign-at--mail-email-at-sign-read-address"><path id="@" stroke="#000" stroke-linejoin="round" d="M27.148625000000003 31.09791666666667c-1.5275833333333335 0.9334166666666667 -3.36375 1.2918333333333334 -5.1347499999999995 1.2918333333333334 -4.967041666666667 0 -8.37775 -3.5400833333333335 -8.37775 -8.485083333333334 0 -5.9867083333333335 4.355625 -10.552208333333333 10.390250000000002 -10.552208333333333 2.4341666666666666 0 4.815625000000001 0.5989583333333334 6.818541666666667 2.024 1.1854583333333335 0.8605833333333334 1.8371250000000001 2.2961666666666667 1.5601666666666667 3.7470833333333338L31.145833333333336 27.3125c3.748041666666667 1.9645833333333333 6.708333333333334 -1.9166666666666667 6.708333333333334 -6.810875 0 -6.921083333333334 -5.298625 -12.397 -13.90925 -12.397C15.333333333333334 8.104625 8.145833333333334 15.445458333333335 8.145833333333334 23.60375c0 7.139583333333333 5.490291666666667 14.251375000000001 13.62175 14.251375000000001 1.2995 0 2.5664166666666666 -0.13033333333333336 3.839083333333334 -0.299 0.7609166666666667 -0.100625 1.5477083333333335 0.24150000000000002 1.7825000000000002 0.9727083333333333 0.42741666666666667 1.3339999999999999 0.2510833333333334 2.770541666666667 -1.1030416666666667 3.638791666666667 -0.9315 0.6325000000000001 -2.54725 0.9583333333333334 -5.011125000000001 0.9583333333333334C10.664333333333333 43.125 2.875 34.174166666666665 2.875 23.60375 2.875 11.763541666666667 12.492833333333333 2.875 23.944916666666668 2.875 33.828208333333336 2.875 43.125 9.8325 43.125 20.501625c0 6.619208333333334 -3.4883333333333337 12.103750000000002 -10.555083333333332 12.103750000000002 -1.888875 0 -3.8285416666666667 -0.47150000000000003 -5.421291666666667 -1.5084166666666667Zm-6.5722499999999995 -7.236375000000001c0 1.6742083333333335 0.8289583333333334 3.0149166666666667 2.6287083333333334 3.0149166666666667 0.7944583333333334 0 1.4787083333333333 -0.215625 2.0537083333333332 -0.6459166666666667L25.875 19.511666666666667c-0.537625 -0.3526666666666667 -1.2630833333333333 -0.43125 -1.888875 -0.43125 -0.9583333333333334 0 -1.7662083333333334 0.416875 -2.423625 1.2487083333333333 -0.6574166666666668 0.805 -0.9861249999999999 1.9818333333333336 -0.9861249999999999 3.5324166666666668Z" stroke-width="2"></path></g></svg>