<svg xmlns="http://www.w3.org/2000/svg" fill="none" viewBox="-1 -1 48 48" height="48" width="48"><g id="shipping-box-1--box-package-label-delivery-shipment-shipping"><path id="Rectangle 1095" stroke="#000" stroke-linecap="round" d="M3.397291666666667 37.94616666666666a5.029333333333334 5.029333333333334 0 0 0 4.656541666666667 4.656541666666667C11.231666666666667 42.85570833333334 16.20925 43.125 23 43.125c6.789791666666667 0 11.768333333333333 -0.2692916666666667 14.946166666666667 -0.5222916666666667a5.029333333333334 5.029333333333334 0 0 0 4.656541666666667 -4.656541666666667C42.85570833333334 34.76833333333334 43.125 29.79075 43.125 23c0 -6.789791666666667 -0.2692916666666667 -11.768333333333333 -0.5222916666666667 -14.946166666666667a5.029333333333334 5.029333333333334 0 0 0 -4.656541666666667 -4.656541666666667C34.76833333333334 3.1442916666666667 29.79075 2.875 23 2.875c-6.789791666666667 0 -11.768333333333333 0.2692916666666667 -14.946166666666667 0.5222916666666667a5.029333333333334 5.029333333333334 0 0 0 -4.656541666666667 4.656541666666667C3.1442916666666667 11.231666666666667 2.875 16.20925 2.875 23c0 6.789791666666667 0.2692916666666667 11.768333333333333 0.5222916666666667 14.946166666666667Z" stroke-width="2"></path><path id="Intersect" stroke="#000" stroke-linecap="round" stroke-linejoin="round" d="M29.397833333333335 2.9602916666666665c-0.043125 4.0825 -0.33925 8.258916666666668 -0.5107916666666668 10.379708333333333a0.945875 0.945875 0 0 1 -1.3895833333333334 0.7570833333333334l-4.274166666666667 -2.2607083333333335a0.4791666666666667 0.4791666666666667 0 0 0 -0.4475416666666667 0l-4.2722500000000005 2.2616666666666667a0.945875 0.945875 0 0 1 -1.3895833333333334 -0.7570833333333334c-0.1725 -2.12175 -0.4676666666666667 -6.298166666666667 -0.51175 -10.380666666666668" stroke-width="2"></path><path id="Vector 830" stroke="#000" stroke-linecap="round" d="M34.5 34.5h-8.625" stroke-width="2"></path><path id="Vector 831" stroke="#000" stroke-linecap="round" d="M34.5 26.833333333333336h-4.791666666666667" stroke-width="2"></path></g></svg>