<svg xmlns="http://www.w3.org/2000/svg" fill="none" viewBox="-1 -1 48 48" height="48" width="48"><g id="beer-pitch--drink-glass-beer-pitch"><path id="Vector 1365" stroke="#000" stroke-linecap="round" stroke-linejoin="round" d="M33.54166666666667 20.125h2.319166666666667c2.7120833333333336 0 5.036041666666667 1.9051666666666667 5.224833333333334 4.609583333333333a50.79166666666667 50.79166666666667 0 0 1 0 7.0725C40.896875 34.511500000000005 38.573875 36.41666666666667 35.86083333333334 36.41666666666667H33.54166666666667" stroke-width="2"></path><path id="Union" stroke="#000" stroke-linecap="round" stroke-linejoin="round" d="M28.75 20.125a6.708333333333334 6.708333333333334 0 1 0 -2.1811666666666665 -13.054416666666667A8.620208333333332 8.620208333333332 0 0 0 19.166666666666668 2.875a8.620208333333332 8.620208333333332 0 0 0 -7.402166666666667 4.195583333333333A6.708333333333334 6.708333333333334 0 1 0 9.583333333333334 20.125h0.0019166666666666668c0.004791666666666667 1.020625 0.017249999999999998 1.9070833333333335 0.03258333333333334 2.6679999999999997C9.666708333333334 25.024 11.184708333333333 26.833333333333336 13.416666666666668 26.833333333333336c2.2319583333333335 0 3.751875 -1.8093333333333332 3.7978750000000003 -4.040333333333334 0.017249999999999998 -0.8145833333333333 0.029708333333333333 -1.5572916666666667 0.034499999999999996 -2.6679999999999997H28.75Z" stroke-width="2"></path><path id="Subtract" stroke="#000" stroke-linecap="round" stroke-linejoin="round" d="M33.26375 18.379875c0.15620833333333334 2.201291666666667 0.27791666666666665 5.251666666666667 0.27791666666666665 9.411791666666666 0 3.1500416666666666 -0.10445833333333333 5.662791666666667 -0.25683333333333336 7.65325 -0.34308333333333335 4.475416666666667 -3.7307916666666667 7.412708333333334 -8.217708333333333 7.580416666666667 -1.6147916666666668 0.060375000000000005 -3.5640416666666668 0.09966666666666667 -5.900458333333334 0.09966666666666667s-4.285666666666668 -0.03929166666666667 -5.900458333333334 -0.09966666666666667c-4.4869166666666676 -0.16770833333333332 -7.873666666666666 -3.1050000000000004 -8.217708333333333 -7.580416666666667C4.897083333333334 33.454458333333335 4.791666666666667 30.94075 4.791666666666667 27.791666666666668c0 -4.161083333333333 0.12170833333333334 -7.210500000000001 0.27791666666666665 -9.411791666666666" stroke-width="2"></path></g></svg>