<svg xmlns="http://www.w3.org/2000/svg" fill="none" viewBox="-1 -1 48 48" height="48" width="48"><g id="intellectual--disability-intellectual"><path id="Union" stroke="#000" stroke-linecap="round" stroke-linejoin="round" d="M37.674958333333336 19.44075C37.563791666666674 10.272375 30.017875 2.875 20.725875 2.875 11.365833333333333 2.875 3.7758333333333334 10.383541666666668 3.7758333333333334 19.645833333333336c0 5.486458333333333 2.6641666666666666 10.357666666666667 6.780208333333333 13.417625v6.864541666666667c0 1.2400833333333334 0.802125 2.323958333333333 2.0220833333333332 2.54725 1.676125 0.3066666666666667 4.392041666666667 0.64975 8.148708333333333 0.64975s6.471625 -0.34308333333333335 8.146791666666667 -0.64975c1.2209166666666667 -0.2232916666666667 2.0220833333333332 -1.3071666666666668 2.0220833333333332 -2.548208333333333v-3.090625l2.683333333333333 0.33158333333333334a2.875 2.875 0 0 0 3.2180833333333334 -2.6114583333333337l0.5424166666666667 -6.438083333333333c1.601375 -0.3871666666666667 2.7820416666666667 -0.9468333333333333 3.5784166666666666 -1.426 0.7925416666666667 -0.47725 0.8874166666666667 -1.495 0.347875 -2.2463333333333333l-3.590875 -5.005375Z" stroke-width="2"></path><path id="Ellipse 451" stroke="#000" stroke-linecap="round" stroke-linejoin="round" d="M15.005583333333334 10.018416666666667c-4.470625 2.580791666666667 -6.471625 7.794124999999999 -5.176916666666667 12.550333333333334 0.416875 1.5333333333333334 2.2195 2.0029166666666667 3.59375 1.2094166666666668l14.290666666666668 -8.25125c1.37425 -0.7935 1.8687500000000001 -2.5884583333333335 0.7494166666666667 -3.716416666666667 -3.4710833333333335 -3.4998333333333336 -8.987250000000001 -4.372875 -13.456916666666666 -1.7920833333333335Z" stroke-width="2"></path></g></svg>