<svg xmlns="http://www.w3.org/2000/svg" fill="none" viewBox="-1 -1 48 48" height="48" width="48"><g id="flashlight"><path id="Vector 702" stroke="#000" stroke-linecap="round" stroke-linejoin="round" d="M37.375 12.283916666666666V6.769666666666667c0 -1.7537500000000001 -1.198875 -3.2324583333333337 -2.942083333333333 -3.4164583333333334C32.202875000000006 3.1174583333333334 28.555458333333334 2.875 23 2.875s-9.202875 0.24245833333333336 -11.432916666666667 0.4791666666666667C9.823875 3.53625 8.625 5.015916666666667 8.625 6.7687083333333335v5.51425c0 1.0273333333333334 0.26545833333333335 2.04125 0.8289583333333334 2.900875 2.4705833333333334 3.769125 5.011125000000001 5.98575 5.011125000000001 5.98575 0.3181666666666667 7.129041666666667 0.8625 14.717125 1.1519166666666667 18.535125 0.115 1.5237500000000002 1.1404166666666666 2.8127083333333336 2.647875 3.056125a29.77541666666667 29.77541666666667 0 0 0 4.735125 0.36320833333333336c1.9358333333333335 0 3.538166666666667 -0.169625 4.734166666666667 -0.3641666666666667 1.509375 -0.24245833333333336 2.5328749999999998 -1.5314166666666669 2.648833333333333 -3.055166666666667 0.290375 -3.818 0.83375 -11.406083333333333 1.1519166666666667 -18.535125 0 0 2.5395833333333333 -2.216625 5.012083333333334 -5.98575 0.5615833333333333 -0.8586666666666667 0.8280000000000001 -1.8745 0.8280000000000001 -2.900875Z" stroke-width="2"></path><path id="Subtract" stroke="#000" stroke-linecap="round" stroke-linejoin="round" d="M37.375 10.13725c-1.0043333333333335 -0.198375 -5.0485 -0.8586666666666667 -14.375 -0.8586666666666667 -9.322666666666667 0 -13.366833333333334 0.6593333333333333 -14.375 0.8586666666666667" stroke-width="2"></path><path id="Vector 1098" stroke="#000" stroke-linecap="round" stroke-linejoin="round" d="M23 26.833333333333336v3.8333333333333335" stroke-width="2"></path></g></svg>