<svg xmlns="http://www.w3.org/2000/svg" fill="none" viewBox="-1 -1 48 48" height="48" width="48"><g id="factory-plant--business-factory-plant"><path id="Vector 1689" stroke="#000" stroke-linecap="round" stroke-linejoin="round" d="M35.458333333333336 31.625H25.875" stroke-width="2"></path><path id="Vector 1690" stroke="#000" stroke-linecap="round" stroke-linejoin="round" d="M35.458333333333336 36.41666666666667H25.875" stroke-width="2"></path><path id="Vector 1691" stroke="#000" stroke-linecap="round" stroke-linejoin="round" d="M37.85416666666667 13.416666666666668h-10.541666666666668" stroke-width="2"></path><path id="Vector" stroke="#000" stroke-linecap="round" stroke-linejoin="round" d="M22.041666666666668 3.8333333333333335c-2.6459583333333336 -1.2007916666666667 -5.897583333333333 -1.3522083333333335 -9.583333333333334 0S5.520958333333334 5.034125 2.875 3.8333333333333335" stroke-width="2"></path><path id="Vector_2" stroke="#000" stroke-linecap="round" stroke-linejoin="round" d="M22.041666666666668 9.583333333333334c-2.6459583333333336 -1.2007916666666667 -5.897583333333333 -1.3522083333333335 -9.583333333333334 0s-6.937375 1.2007916666666667 -9.583333333333334 0" stroke-width="2"></path><path id="Union" stroke="#000" stroke-linecap="round" stroke-linejoin="round" d="M2.875 26.749c0 -1.902291666666667 0.7062916666666667 -3.7413333333333334 2.187875 -4.9334999999999996 2.1370833333333334 -1.7202083333333333 5.852541666666667 -4.251166666666667 11.210583333333334 -6.302958333333334 1.7288333333333334 -0.6631666666666667 3.5343333333333335 0.595125 3.612916666666667 2.4447083333333337 0.07666666666666667 1.83425 0.161 4.240625 0.20508333333333334 6.9191666666666665l20.160458333333334 0a2.8730833333333337 2.8730833333333337 0 0 1 2.8730833333333337 2.875l0 6.229166666666667c0 2.42075 -0.152375 4.288541666666666 -0.33541666666666664 5.660875 -0.24916666666666668 1.8591666666666666 -1.8208333333333333 3.0935 -3.695333333333333 3.1711250000000004 -2.9794583333333335 0.12362500000000001 -8.214833333333333 0.273125 -16.094250000000002 0.273125 -7.879416666666667 0 -13.114791666666667 -0.1495 -16.094250000000002 -0.273125 -1.8745 -0.077625 -3.447125 -1.3110000000000002 -3.695333333333333 -3.1711250000000004C3.0283333333333338 38.269125 2.875 36.40133333333333 2.875 33.9825l0 -7.2335Z" stroke-width="2"></path><path id="Intersect" stroke="#000" stroke-linecap="round" stroke-linejoin="round" d="M18.171916666666668 43.10583333333333c0.021083333333333332 -0.9698333333333334 0.03641666666666667 -2.218541666666667 0.03641666666666667 -3.814166666666667 0 -2.3 -0.031625 -3.88125 -0.06804166666666667 -4.942125 -0.044083333333333335 -1.2717083333333334 -0.69 -2.4054166666666665 -1.9482916666666668 -2.5999583333333334A11.933166666666667 11.933166666666667 0 0 0 14.375 31.625c-0.7360000000000001 0 -1.3339999999999999 0.049833333333333334 -1.817 0.12458333333333334 -1.2582916666666666 0.1945416666666667 -1.9042083333333335 1.32825 -1.9482916666666668 2.5999583333333334A145.633125 145.633125 0 0 0 10.541666666666668 39.29166666666667c0 1.5256666666666667 0.013416666666666667 2.734125 0.03354166666666667 3.684791666666667" stroke-width="2"></path><path id="Rectangle 1675" stroke="#000" stroke-linecap="round" stroke-linejoin="round" d="M25.875 24.916666666666668a616.31375 616.31375 0 0 1 1.7662083333333334 -16.702791666666666c0.14470833333333333 -1.2055833333333335 1.0397916666666667 -2.17925 2.247291666666667 -2.3124583333333333A24.849583333333335 24.849583333333335 0 0 1 32.583333333333336 5.75c1.00625 0 1.9339166666666665 0.06804166666666667 2.6948333333333334 0.15141666666666667 1.2075 0.13416666666666668 2.1025833333333335 1.106875 2.247291666666667 2.3124583333333333A616.31375 616.31375 0 0 1 39.29166666666667 24.916666666666668" stroke-width="2"></path></g></svg>