<svg xmlns="http://www.w3.org/2000/svg" fill="none" viewBox="-1 -1 48 48" height="48" width="48"><g id="recording-tape-1--film-television-tv-movies-reel-video-entertainment"><path id="Ellipse 209" stroke="#000" stroke-linecap="round" stroke-linejoin="round" d="M2.875 21.083333333333336a18.208333333333336 18.208333333333336 0 1 0 36.41666666666667 0 18.208333333333336 18.208333333333336 0 1 0 -36.41666666666667 0" stroke-width="2"></path><path id="Ellipse 211" stroke="#000" stroke-linecap="round" stroke-linejoin="round" d="M17.25 11.5a3.8333333333333335 3.8333333333333335 0 1 0 7.666666666666667 0 3.8333333333333335 3.8333333333333335 0 1 0 -7.666666666666667 0" stroke-width="2"></path><path id="Ellipse 213" stroke="#000" stroke-linecap="round" stroke-linejoin="round" d="M30.666666666666668 17.25a3.8333333333333335 3.8333333333333335 0 1 0 0 7.666666666666667 3.8333333333333335 3.8333333333333335 0 1 0 0 -7.666666666666667" stroke-width="2"></path><path id="Ellipse 212" stroke="#000" stroke-linecap="round" stroke-linejoin="round" d="M17.25 30.666666666666668a3.8333333333333335 3.8333333333333335 0 1 1 7.666666666666667 0 3.8333333333333335 3.8333333333333335 0 1 1 -7.666666666666667 0" stroke-width="2"></path><path id="Ellipse 214" stroke="#000" stroke-linecap="round" stroke-linejoin="round" d="M11.5 17.25a3.8333333333333335 3.8333333333333335 0 1 0 0 7.666666666666667 3.8333333333333335 3.8333333333333335 0 1 0 0 -7.666666666666667" stroke-width="2"></path><path id="Vector 1642" stroke="#000" stroke-linecap="round" stroke-linejoin="round" d="M39.29166666666667 21.083333333333336c0 6.708333333333334 -3.8333333333333335 13.735791666666668 -3.8333333333333335 17.25s2.1083333333333334 4.791666666666667 3.8333333333333335 4.791666666666667c2.5875000000000004 0 3.8333333333333335 -2.1965 3.8333333333333335 -7.027458333333334" stroke-width="2"></path><path id="Ellipse 431" stroke="#000" stroke-linecap="round" stroke-linejoin="round" d="M21.083333333333336 21.5625a0.4791666666666667 0.4791666666666667 0 0 1 0 -0.9583333333333334" stroke-width="2"></path><path id="Ellipse 433" stroke="#000" stroke-linecap="round" stroke-linejoin="round" d="M21.083333333333336 21.5625a0.4791666666666667 0.4791666666666667 0 0 0 0 -0.9583333333333334" stroke-width="2"></path></g></svg>