<svg xmlns="http://www.w3.org/2000/svg" fill="none" viewBox="-1 -1 48 48" height="48" width="48"><g id="lightbulb--lighting-light-incandescent-bulb-lights"><path id="Union" stroke="#000" stroke-linecap="round" stroke-linejoin="round" d="M12.952833333333334 31.99204166666667C9.152083333333334 29.009708333333336 6.708333333333334 24.373291666666667 6.708333333333334 19.166666666666668c0 -8.997791666666666 7.293875 -16.291666666666668 16.291666666666668 -16.291666666666668s16.291666666666668 7.293875 16.291666666666668 16.291666666666668c0 5.206625 -2.442791666666667 9.843041666666668 -6.2445 12.825375a63.925625000000004 63.925625000000004 0 0 1 -0.9305416666666667 3.335c-0.29420833333333335 0.9564166666666667 -1.0886666666666667 1.6512083333333334 -2.084375 1.7556666666666667C28.69729166666667 37.22166666666667 26.446166666666667 37.375 23 37.375s-5.6972916666666675 -0.15333333333333335 -7.03225 -0.29229166666666667c-0.9957083333333333 -0.10445833333333333 -1.790166666666667 -0.79925 -2.0834166666666665 -1.756625 -0.27504166666666663 -0.8941250000000001 -0.6229166666666667 -2.089166666666667 -0.9315 -3.334041666666667Z" stroke-width="2"></path><path id="Subtract" stroke="#000" stroke-linecap="round" stroke-linejoin="round" d="M15.801 37.05875c0.1945416666666667 1.2554166666666668 0.39675 2.39775 0.5654166666666667 3.3005 0.23958333333333334 1.2697916666666667 1.1423333333333334 2.289458333333333 2.419791666666667 2.482083333333333 1.0024166666666667 0.152375 2.3948750000000003 0.2836666666666667 4.213791666666667 0.2836666666666667 1.7297916666666666 0 3.151 -0.11883333333333333 4.232958333333333 -0.2606666666666667 1.5180000000000002 -0.19933333333333333 2.58175 -1.4624166666666667 2.7465833333333336 -2.98425l0.30762500000000004 -2.8385833333333337" stroke-width="2"></path><path id="Ellipse 20" stroke="#000" stroke-linecap="round" stroke-linejoin="round" d="M32.583333333333336 18.208333333333336c0 -5.2928749999999996 -4.2904583333333335 -9.583333333333334 -9.583333333333334 -9.583333333333334" stroke-width="2"></path></g></svg>