<svg xmlns="http://www.w3.org/2000/svg" fill="none" viewBox="-1 -1 48 48" height="48" width="48"><g id="multiple-stars--reward-rating-rate-social-star-media-favorite-like-stars-spark"><path id="Star 8" stroke="#000" stroke-linecap="round" stroke-linejoin="round" d="M31.7975 30.806583333333336c-0.359375 1.0915416666666666 -1.902291666666667 1.0915416666666666 -2.2616666666666667 0l-2.4130833333333332 -7.337a1.1912083333333334 1.1912083333333334 0 0 0 -0.7590000000000001 -0.7590000000000001l-7.337 -2.4130833333333332c-1.0915416666666666 -0.359375 -1.0915416666666666 -1.902291666666667 0 -2.2616666666666667l7.337 -2.4130833333333332a1.1883333333333335 1.1883333333333335 0 0 0 0.7590000000000001 -0.7590000000000001l2.4130833333333332 -7.337c0.359375 -1.0915416666666666 1.902291666666667 -1.0915416666666666 2.2616666666666667 0l2.4130833333333332 7.337c0.11787500000000001 0.359375 0.399625 0.6411250000000001 0.7590000000000001 0.7590000000000001l7.337 2.4130833333333332c1.0915416666666666 0.359375 1.0915416666666666 1.902291666666667 0 2.2616666666666667l-7.337 2.4130833333333332a1.1912083333333334 1.1912083333333334 0 0 0 -0.7590000000000001 0.7590000000000001l-2.4130833333333332 7.337Z" stroke-width="2"></path><path id="Star 9" stroke="#000" stroke-linecap="round" stroke-linejoin="round" d="M16.262916666666666 42.45225000000001c-0.2951666666666667 0.8970000000000001 -1.564 0.8970000000000001 -1.8591666666666666 0l-1.8208333333333333 -5.53725a0.9775 0.9775 0 0 0 -0.6229166666666667 -0.6229166666666667l-5.53725 -1.8208333333333333c-0.8970000000000001 -0.2951666666666667 -0.8970000000000001 -1.564 0 -1.8591666666666666l5.53725 -1.8208333333333333a0.9775 0.9775 0 0 0 0.6229166666666667 -0.6229166666666667l1.8208333333333333 -5.53725c0.2951666666666667 -0.8970000000000001 1.564 -0.8970000000000001 1.8591666666666666 0l1.8208333333333333 5.53725c0.09679166666666668 0.2951666666666667 0.32775000000000004 0.5261250000000001 0.6229166666666667 0.6229166666666667l5.53725 1.8208333333333333c0.8970000000000001 0.2951666666666667 0.8970000000000001 1.564 0 1.8591666666666666l-5.53725 1.8208333333333333a0.9775 0.9775 0 0 0 -0.6229166666666667 0.6229166666666667l-1.8208333333333333 5.53725Z" stroke-width="2"></path><path id="Star 10" stroke="#000" stroke-linecap="round" stroke-linejoin="round" d="M12.336625 19.52029166666667c-0.26545833333333335 0.8059583333333333 -1.4077916666666668 0.8059583333333333 -1.6722916666666667 0l-1.63875 -4.983333333333333a0.8807083333333334 0.8807083333333334 0 0 0 -0.5615833333333333 -0.5615833333333333l-4.983333333333333 -1.63875c-0.807875 -0.26545833333333335 -0.807875 -1.4077916666666668 0 -1.6722916666666667l4.983333333333333 -1.63875a0.87975 0.87975 0 0 0 0.560625 -0.5615833333333333l1.63875 -4.983333333333333c0.26545833333333335 -0.807875 1.4077916666666668 -0.807875 1.6722916666666667 0l1.63875 4.983333333333333a0.8807083333333334 0.8807083333333334 0 0 0 0.5615833333333333 0.560625l4.983333333333333 1.63875c0.807875 0.26545833333333335 0.807875 1.4077916666666668 0 1.6722916666666667l-4.983333333333333 1.63875a0.8807083333333334 0.8807083333333334 0 0 0 -0.560625 0.5615833333333333l-1.63875 4.983333333333333Z" stroke-width="2"></path></g></svg>