<svg xmlns="http://www.w3.org/2000/svg" fill="none" viewBox="-1 -1 48 48" height="48" width="48"><g id="ringing-bell-notification--notification-vibrate-ring-sound-alarm-alert-bell-noise"><path id="Union" stroke="#000" stroke-linecap="round" stroke-linejoin="round" d="M37.56283333333333 16.24279166666667C36.91404166666667 8.681541666666666 30.588083333333334 2.875 23 2.875v0C15.411916666666668 2.875 9.085 8.682500000000001 8.437166666666668 16.24279166666667l-0.4590416666666667 5.357083333333334A15.333333333333334 15.333333333333334 0 0 1 5.75 28.34175l-1.4106666666666667 2.284666666666667c-1.4154583333333335 2.2932916666666667 -0.6430416666666667 4.66325 2.0287916666666668 5.018791666666667C9.423291666666668 36.0525 14.525458333333335 36.41666666666667 23 36.41666666666667s13.576708333333334 -0.3641666666666667 16.631875 -0.7705000000000001c2.6718333333333333 -0.3555416666666667 3.44425 -2.7255 2.0287916666666668 -5.018791666666667L40.25 28.342708333333334a15.334291666666669 15.334291666666669 0 0 1 -2.2281250000000004 -6.743791666666667l-0.46 -5.357083333333334Z" stroke-width="2"></path><path id="Union_2" stroke="#000" stroke-linecap="round" stroke-linejoin="round" d="M37.56283333333333 16.24279166666667C36.91404166666667 8.681541666666666 30.588083333333334 2.875 23 2.875S9.085 8.682500000000001 8.437166666666668 16.24279166666667l-0.4590416666666667 5.357083333333334A15.333333333333334 15.333333333333334 0 0 1 5.75 28.34175l-1.4106666666666667 2.284666666666667c-1.4154583333333335 2.2932916666666667 -0.6430416666666667 4.66325 2.0287916666666668 5.018791666666667C9.423291666666668 36.0525 14.525458333333335 36.41666666666667 23 36.41666666666667s13.575750000000001 -0.3641666666666667 16.631875 -0.7705000000000001c2.6718333333333333 -0.3555416666666667 3.44425 -2.7255 2.0287916666666668 -5.018791666666667L40.25 28.342708333333334a15.334291666666669 15.334291666666669 0 0 1 -2.2281250000000004 -6.743791666666667l-0.46 -5.357083333333334Z" stroke-width="2"></path><path id="Subtract" stroke="#000" stroke-linecap="round" stroke-linejoin="round" d="M15.379333333333332 36.29975a7.667625 7.667625 0 0 0 15.241333333333333 0" stroke-width="2"></path><path id="Vector 1499" stroke="#000" stroke-linecap="round" stroke-linejoin="round" d="M2.8893750000000002 16.291666666666668C2.730291666666667 13.735791666666668 3.845791666666667 7.4750000000000005 9.583333333333334 2.875" stroke-width="2"></path><path id="Vector 1500" stroke="#000" stroke-linecap="round" stroke-linejoin="round" d="M43.110625 16.291666666666668c0.15908333333333335 -2.555875 -0.9564166666666667 -8.816666666666666 -6.693958333333334 -13.416666666666668" stroke-width="2"></path></g></svg>