<svg xmlns="http://www.w3.org/2000/svg" fill="none" viewBox="-1 -1 48 48" height="48" width="48"><g id="content-statistic--product-data-analysis-analytics-graph-line-business-board-chart"><path id="Rectangle 1096" stroke="#000" stroke-linecap="round" stroke-linejoin="round" d="M38.08704166666667 42.60845833333333c2.448541666666667 -0.19933333333333333 4.3220833333333335 -2.072875 4.521416666666667 -4.521416666666667C42.859541666666665 34.993541666666665 43.125 30.057166666666667 43.125 23c0 -7.057166666666667 -0.26545833333333335 -11.993541666666667 -0.5165416666666667 -15.087041666666668 -0.19933333333333333 -2.448541666666667 -2.072875 -4.3220833333333335 -4.521416666666667 -4.521416666666667C34.993541666666665 3.1404583333333336 30.057166666666667 2.875 23 2.875c-7.057166666666667 0 -11.993541666666667 0.26545833333333335 -15.087041666666668 0.5165416666666667 -2.448541666666667 0.19933333333333333 -4.3220833333333335 2.072875 -4.521416666666667 4.521416666666667C3.1404583333333336 11.006458333333333 2.875 15.942833333333333 2.875 23c0 7.057166666666667 0.26545833333333335 11.993541666666667 0.5165416666666667 15.087041666666668 0.19933333333333333 2.448541666666667 2.072875 4.3220833333333335 4.521416666666667 4.521416666666667C11.006458333333333 42.859541666666665 15.942833333333333 43.125 23 43.125c7.057166666666667 0 11.993541666666667 -0.26545833333333335 15.087041666666668 -0.5165416666666667Z" stroke-width="2"></path><path id="Vector 79 (Stroke)" fill-rule="evenodd" stroke="#000" stroke-linecap="round" stroke-linejoin="round" d="M30.340833333333336 33.20816666666667a3.5630833333333336 3.5630833333333336 0 0 1 -4.76675 0.5021666666666668 173.2494166666667 173.2494166666667 0 0 1 -4.734166666666667 -3.5745833333333334 0.9391666666666667 0.9391666666666667 0 0 0 -1.3435833333333334 0.17633333333333334c-1.0800416666666668 1.4873333333333334 -2.278916666666667 3.360875 -3.243958333333333 4.922958333333333 -1.124125 1.8208333333333333 -3.3417083333333335 2.7561666666666667 -5.121333333333334 1.5678333333333332a11.43675 11.43675 0 0 1 -1.2688333333333335 -0.9784583333333333c-1.5103333333333335 -1.336875 -1.3550833333333334 -3.579375 -0.044083333333333335 -5.112708333333334 2.060416666666667 -2.412125 4.530041666666667 -5.138583333333334 6.923 -7.465416666666667 1.3982083333333335 -1.3579583333333334 3.595666666666667 -1.3090833333333334 5.054250000000001 -0.01629166666666667 1.4585833333333333 1.2918333333333334 3.2851666666666666 2.862541666666667 4.751416666666667 3.9655833333333335a0.9123333333333333 0.9123333333333333 0 0 0 1.2209166666666667 -0.11116666666666668c1.6483333333333334 -1.7757916666666667 3.943541666666667 -4.508 5.383916666666667 -6.248333333333333 0.8787916666666667 -1.060875 2.19075 -1.7805833333333334 3.36375 -1.058 0.27791666666666665 0.1725 0.5481666666666667 0.370875 0.7896666666666666 0.5845833333333333 0.9075416666666667 0.8030833333333334 0.7455833333333334 2.1016250000000003 0.13704166666666667 3.1490833333333335 -1.1615 2.0000416666666667 -3.4835416666666665 5.62925 -7.10125 9.696416666666668Z" clip-rule="evenodd" stroke-width="2"></path><path id="Vector 1016" stroke="#000" stroke-linecap="round" stroke-linejoin="round" d="M10.541666666666668 10.541666666666668h9.583333333333334" stroke-width="2"></path><path id="Vector 1017" stroke="#000" stroke-linecap="round" stroke-linejoin="round" d="M10.541666666666668 16.291666666666668h5.75" stroke-width="2"></path></g></svg>