<svg xmlns="http://www.w3.org/2000/svg" fill="none" viewBox="-1 -1 48 48" height="48" width="48"><g id="location-heart-pin"><path id="Ellipse 517" stroke="#000" stroke-linecap="round" stroke-linejoin="round" d="M40.25 20.125c0 12.380708333333335 -12.79375 21.206 -16.345333333333336 23.417833333333334a1.6914583333333333 1.6914583333333333 0 0 1 -1.8093333333333332 0C18.544708333333332 41.331 5.75 32.50570833333333 5.75 20.125c0 -9.526791666666668 7.723208333333333 -17.25 17.25 -17.25s17.25 7.723208333333333 17.25 17.25Z" stroke-width="2"></path><path id="Vector 9" stroke="#000" stroke-linecap="round" stroke-linejoin="round" d="M31.56941666666667 22.829416666666667a6.902875000000001 6.902875000000001 0 0 0 0.8366250000000001 -5.155833333333334c-0.8730416666666667 -3.989541666666667 -5.7087916666666665 -5.619666666666666 -8.720833333333333 -2.9459166666666667 -0.238625 0.21083333333333334 -0.45041666666666663 0.45329166666666665 -0.6852083333333333 0.6947916666666667 -0.23479166666666668 -0.24150000000000002 -0.4465833333333334 -0.4849166666666667 -0.6852083333333333 -0.6947916666666667 -3.0120416666666667 -2.67375 -7.847791666666667 -1.043625 -8.720833333333333 2.9459166666666667a6.902875000000001 6.902875000000001 0 0 0 0.8366250000000001 5.155833333333334c1.5256666666666667 2.4725 3.919583333333333 4.437083333333334 6.322125000000001 6.210000000000001a3.7940416666666668 3.7940416666666668 0 0 0 4.494583333333334 0c2.4035 -1.772916666666667 4.796458333333334 -3.7375000000000003 6.322125000000001 -6.210000000000001Z" stroke-width="2"></path></g></svg>