<svg xmlns="http://www.w3.org/2000/svg" fill="none" viewBox="-1 -1 48 48" height="48" width="48"><g id="location-pin-3--navigation-map-maps-pin-gps-location"><path id="Rectangle 180" stroke="#000" stroke-linecap="round" stroke-linejoin="round" d="m35.9375 31.874166666666667 0.5558333333333333 0.03066666666666667c1.1643750000000002 0.06516666666666668 2.2051250000000002 0.7024583333333333 2.7293333333333334 1.7441666666666669a32.12429166666667 32.12429166666667 0 0 1 2.322041666666667 6.114166666666667c0.4216666666666667 1.5879583333333334 -0.7427083333333334 3.0570833333333334 -2.383375 3.1241666666666665C36.41475 43.000416666666666 31.456333333333333 43.125 23 43.125c-8.456333333333333 0 -13.41475 -0.12458333333333334 -16.161333333333335 -0.23670833333333333 -1.6406666666666667 -0.06708333333333334 -2.8040833333333337 -1.538125 -2.383375 -3.1241666666666665a32.12620833333334 32.12620833333334 0 0 1 2.322041666666667 -6.115125000000001c0.5242083333333334 -1.0417083333333332 1.5649583333333335 -1.679 2.7293333333333334 -1.7441666666666669l0.5558333333333333 -0.029708333333333333" stroke-width="2"></path><path id="Ellipse 517" stroke="#000" stroke-linecap="round" stroke-linejoin="round" d="M37.375 17.317083333333333c0 10.187083333333334 -10.300166666666666 17.499166666666667 -13.462666666666667 19.504958333333335a1.6924166666666667 1.6924166666666667 0 0 1 -1.8246666666666667 0C18.92516666666667 34.81720833333334 8.625 27.504166666666666 8.625 17.317083333333333 8.625 9.340875 15.061166666666667 2.875 23 2.875c7.938833333333334 0 14.375 6.4658750000000005 14.375 14.442083333333334Z" stroke-width="2"></path><path id="Ellipse 27" stroke="#000" stroke-linecap="round" stroke-linejoin="round" d="M28.75 17.25a5.75 5.75 0 1 1 -11.5 0 5.75 5.75 0 0 1 11.5 0Z" stroke-width="2"></path></g></svg>