<svg xmlns="http://www.w3.org/2000/svg" fill="none" viewBox="-1 -1 48 48" height="48" width="48"><g id="user-pin--navigation-map-maps-pin-user-gps-location"><path id="Ellipse 18" stroke="#000" stroke-linecap="round" stroke-linejoin="round" d="M34.020833333333336 32.95133333333334c3.805541666666667 1.0541666666666667 6.229166666666667 2.645 6.229166666666667 4.423666666666667 0 3.1749583333333335 -7.723208333333333 5.75 -17.25 5.75S5.75 40.549958333333336 5.75 37.375c0 -1.7786666666666668 2.4226666666666667 -3.3695 6.229166666666667 -4.423666666666667" stroke-width="2"></path><path id="Union" stroke="#000" stroke-linecap="round" stroke-linejoin="round" d="M26.243958333333335 14.422916666666667a6.229166666666667 6.229166666666667 0 1 0 -6.487916666666666 0c-0.9506666666666667 0.02875 -1.773875 0.06899999999999999 -2.4725 0.11116666666666668 -1.8332916666666668 0.11212500000000002 -3.4174166666666665 1.22475 -4.0135 2.96125a34.431 34.431 0 0 0 -1.538125 6.622083333333333 2.5204166666666667 2.5204166666666667 0 0 0 2.04125 2.8270833333333334 47.18833333333334 47.18833333333334 0 0 0 2.6373333333333333 0.4187916666666667l0.66125 8.253166666666667c0.10445833333333333 1.3148333333333335 1.0925 2.3900833333333336 2.4044583333333334 2.5232916666666667 1.0158333333333334 0.10254166666666667 2.2693333333333334 0.19358333333333336 3.523791666666667 0.19358333333333336 1.2544583333333332 0 2.5079583333333333 -0.09104166666666667 3.523791666666667 -0.19358333333333336 1.3129166666666667 -0.13416666666666668 2.3 -1.2075 2.4054166666666665 -2.5232916666666667l0.6602916666666666 -8.253166666666667a47.094416666666675 47.094416666666675 0 0 0 2.636375 -0.4187916666666667 2.5204166666666667 2.5204166666666667 0 0 0 2.0422083333333334 -2.8270833333333334 34.43291666666667 34.43291666666667 0 0 0 -1.538125 -6.622083333333333c-0.5960833333333333 -1.7365000000000002 -2.1802083333333333 -2.849125 -4.0135 -2.96125a81.73337500000001 81.73337500000001 0 0 0 -2.4725 -0.11116666666666668Z" stroke-width="2"></path><path id="Vector 999" stroke="#000" stroke-linecap="round" stroke-linejoin="round" d="m23 29.708333333333336 0 8.625" stroke-width="2"></path></g></svg>