<svg xmlns="http://www.w3.org/2000/svg" fill="none" viewBox="-1 -1 48 48" height="48" width="48"><g id="arrow-expand--expand-small-bigger-retract-smaller-big"><path id="Union" stroke="#000" stroke-linecap="round" stroke-linejoin="round" d="M17.587333333333333 3.169208333333333c1.273625 0.13991666666666666 1.8591666666666666 1.4739166666666668 1.0762083333333334 2.4868750000000004 -0.779125 1.0081666666666667 -1.9300833333333332 2.3910416666666667 -3.590875 4.175458333333333 2.0268750000000004 2.256875 3.343625 3.9387500000000006 4.12275 5.0025 0.6190833333333334 0.8433333333333334 0.7015 1.909 0.01916666666666667 2.704416666666667a15.141666666666667 15.141666666666667 0 0 1 -0.8280000000000001 0.8874166666666667c-0.31720833333333337 0.31433333333333335 -0.5970416666666667 0.572125 -0.8414166666666667 0.782 -0.8002083333333333 0.687125 -1.8639583333333334 0.5912916666666667 -2.705375 -0.044083333333333335 -1.0503333333333336 -0.7935 -2.7120833333333336 -2.1198333333333337 -4.9565 -4.130416666666666 -1.8371250000000001 1.7173333333333334 -3.243 2.8874583333333335 -4.257874999999999 3.6685 -1.0043333333333335 0.7724166666666668 -2.3124583333333333 0.19166666666666668 -2.4523750000000004 -1.066625 -0.4264583333333334 -3.844833333333333 -0.3287083333333334 -8.395 -0.12458333333333334 -11.964791666666667A2.7810833333333336 2.7810833333333336 0 0 1 5.668541666666667 3.0475000000000003c3.555416666666667 -0.20125 8.083541666666667 -0.30091666666666667 11.917833333333334 0.12075000000000001Z" stroke-width="2"></path><path id="Union_2" stroke="#000" stroke-linecap="round" stroke-linejoin="round" d="M28.412666666666667 3.169208333333333c-1.273625 0.13991666666666666 -1.8591666666666666 1.4739166666666668 -1.0762083333333334 2.4868750000000004 0.779125 1.0081666666666667 1.9300833333333332 2.3910416666666667 3.590875 4.175458333333333 -2.0268750000000004 2.256875 -3.343625 3.9387500000000006 -4.12275 5.0025 -0.6190833333333334 0.8433333333333334 -0.7015 1.909 -0.01916666666666667 2.704416666666667 0.22041666666666668 0.2577916666666667 0.49162500000000003 0.5529583333333333 0.8280000000000001 0.8874166666666667 0.31720833333333337 0.31433333333333335 0.5970416666666667 0.572125 0.8414166666666667 0.782 0.8002083333333333 0.687125 1.8639583333333334 0.5912916666666667 2.705375 -0.044083333333333335 1.0503333333333336 -0.7935 2.7120833333333336 -2.1198333333333337 4.9565 -4.130416666666666 1.8371250000000001 1.7173333333333334 3.243 2.8874583333333335 4.257874999999999 3.6685 1.0043333333333335 0.7724166666666668 2.3124583333333333 0.19166666666666668 2.4523750000000004 -1.066625 0.4264583333333334 -3.844833333333333 0.3287083333333334 -8.395 0.12458333333333334 -11.964791666666667a2.7810833333333336 2.7810833333333336 0 0 0 -2.6210416666666667 -2.6220000000000003c-3.555416666666667 -0.20125 -8.083541666666667 -0.30091666666666667 -11.917833333333334 0.12075000000000001Z" stroke-width="2"></path><path id="Union_3" stroke="#000" stroke-linecap="round" stroke-linejoin="round" d="M28.412666666666667 42.83079166666666c-1.273625 -0.13991666666666666 -1.8591666666666666 -1.4729583333333334 -1.0762083333333334 -2.4868750000000004 0.779125 -1.0081666666666667 1.9300833333333332 -2.3910416666666667 3.590875 -4.175458333333333 -2.0268750000000004 -2.256875 -3.343625 -3.9387500000000006 -4.12275 -5.0025 -0.6190833333333334 -0.8433333333333334 -0.7015 -1.909 -0.01916666666666667 -2.704416666666667 0.22041666666666668 -0.25683333333333336 0.49162500000000003 -0.5519999999999999 0.8280000000000001 -0.8864583333333335 0.31720833333333337 -0.31625000000000003 0.5970416666666667 -0.5730833333333333 0.8414166666666667 -0.7829583333333333 0.8002083333333333 -0.687125 1.8639583333333334 -0.5912916666666667 2.705375 0.044083333333333335 1.0503333333333336 0.7935 2.7120833333333336 2.120791666666667 4.9565 4.130416666666666 1.8371250000000001 -1.7173333333333334 3.243 -2.8874583333333335 4.257874999999999 -3.6685 1.0043333333333335 -0.7724166666666668 2.3124583333333333 -0.19166666666666668 2.4523750000000004 1.066625 0.4264583333333334 3.844833333333333 0.3287083333333334 8.395 0.12458333333333334 11.964791666666667a2.7810833333333336 2.7810833333333336 0 0 1 -2.6210416666666667 2.6220000000000003c-3.555416666666667 0.20220833333333332 -8.083541666666667 0.30091666666666667 -11.917833333333334 -0.12075000000000001Z" stroke-width="2"></path><path id="Union_4" stroke="#000" stroke-linecap="round" stroke-linejoin="round" d="M16.629 42.86241666666667c1.2745833333333334 -0.13416666666666668 1.85725 -1.46625 1.0695000000000001 -2.477291666666667 -0.7062916666666667 -0.9065833333333333 -1.7173333333333334 -2.117916666666667 -3.1375833333333336 -3.65125 2.319166666666667 -2.543416666666667 3.791166666666667 -4.4159999999999995 4.6345 -5.567916666666666 0.6190833333333334 -0.8433333333333334 0.7015 -1.909 0.01916666666666667 -2.704416666666667a15.141666666666667 15.141666666666667 0 0 0 -0.8280000000000001 -0.8864583333333335 15.87 15.87 0 0 0 -0.8414166666666667 -0.7829583333333333c-0.8002083333333333 -0.687125 -1.8639583333333334 -0.5912916666666667 -2.705375 0.044083333333333335 -1.1375416666666667 0.8586666666666667 -2.99 2.3421666666666665 -5.522875 4.641208333333333 -1.584125 -1.4729583333333334 -2.819416666666667 -2.5050833333333333 -3.734625 -3.2152083333333334 -1.0014583333333333 -0.7762500000000001 -2.30575 -0.198375 -2.440875 1.0618333333333334 -0.38045833333333334 3.5515833333333333 -0.2951666666666667 7.7165 -0.11116666666666668 11.023708333333333a2.7762916666666664 2.7762916666666664 0 0 0 2.6210416666666667 2.6210416666666667c3.2928333333333333 0.18304166666666669 7.435708333333334 0.26833333333333337 10.977708333333334 -0.10541666666666667Z" stroke-width="2"></path></g></svg>