<svg xmlns="http://www.w3.org/2000/svg" fill="none" viewBox="-1 -1 48 48" height="48" width="48"><g id="pinwheel--windmill-velocity-weather-wind"><path id="Ellipse 1113" stroke="#000" stroke-linecap="round" stroke-linejoin="round" d="M19.166666666666668 18.208333333333336a3.8333333333333335 3.8333333333333335 0 1 0 7.666666666666667 0 3.8333333333333335 3.8333333333333335 0 1 0 -7.666666666666667 0" stroke-width="2"></path><path id="Subtract" stroke="#000" stroke-linecap="round" stroke-linejoin="round" d="M12.584833333333334 15.416708333333334c-1.2937500000000002 3.1816666666666666 -2.0393333333333334 6.510916666666667 -2.4533333333333336 8.924958333333334 -0.391 2.284666666666667 0.10254166666666667 4.654625 1.69625 6.337458333333334 1.124125 1.1883333333333335 2.6517083333333336 2.458125 4.491708333333333 3.1548333333333334 1.1547916666666669 0.43700000000000006 2.3268333333333335 -0.27791666666666665 2.7197500000000003 -1.4470833333333335 0.4187916666666667 -1.2467916666666667 1.0177500000000002 -3.186458333333334 1.7920833333333335 -6.075833333333334l1.17875 -4.39875" stroke-width="2"></path><path id="Subtract_2" stroke="#000" stroke-linecap="round" stroke-linejoin="round" d="m26.703958333333333 19.200208333333336 4.394916666666667 1.17875c2.8893750000000002 0.773375 4.83 1.3723333333333334 6.075833333333334 1.791125 1.170125 0.39291666666666664 1.8850416666666667 1.5649583333333335 1.4470833333333335 2.7197500000000003 -0.69575 1.84 -1.9645833333333333 3.367583333333333 -3.153875 4.492666666666667 -1.6837916666666666 1.5927499999999999 -4.053750000000001 2.086291666666667 -6.337458333333334 1.6952916666666666 -2.415 -0.41400000000000003 -5.743291666666667 -1.1595833333333334 -8.924958333333334 -2.4533333333333336" stroke-width="2"></path><path id="Subtract_3" stroke="#000" stroke-linecap="round" stroke-linejoin="round" d="m23.993791666666667 14.505333333333333 1.17875 -4.39875c0.7743333333333334 -2.8903333333333334 1.3732916666666668 -4.83 1.7920833333333335 -6.075833333333334 0.39291666666666664 -1.1710833333333333 1.5649583333333335 -1.8850416666666667 2.7197500000000003 -1.4480416666666667 1.84 0.6967083333333334 3.367583333333333 1.965541666666667 4.492666666666667 3.1548333333333334 1.5927499999999999 1.6828333333333334 2.086291666666667 4.053750000000001 1.6952916666666666 6.337458333333334 -0.41400000000000003 2.414041666666667 -1.1595833333333334 5.742333333333334 -2.4533333333333336 8.924958333333334" stroke-width="2"></path><path id="Subtract_4" stroke="#000" stroke-linecap="round" stroke-linejoin="round" d="m19.297 17.2155 -4.399708333333334 -1.17875c-2.8893750000000002 -0.7743333333333334 -4.83 -1.3732916666666668 -6.075833333333334 -1.7920833333333335 -1.170125 -0.39291666666666664 -1.8850416666666667 -1.5649583333333335 -1.4470833333333335 -2.7197500000000003 0.69575 -1.84 1.9645833333333333 -3.367583333333333 3.153875 -4.492666666666667 1.6837916666666666 -1.5927499999999999 4.053750000000001 -2.086291666666667 6.337458333333334 -1.6943333333333335 2.415 0.4130416666666667 5.743291666666667 1.158625 8.925916666666668 2.4523750000000004" stroke-width="2"></path><path id="Vector 2596" stroke="#000" stroke-linecap="round" stroke-linejoin="round" d="M23 29.708333333333336v14.375" stroke-width="2"></path></g></svg>