<svg xmlns="http://www.w3.org/2000/svg" fill="none" viewBox="-1 -1 48 48" height="48" width="48"><g id="ascending-alphabetical-order"><path id="Vector" stroke="#000" stroke-linecap="round" stroke-linejoin="round" d="M7.167375000000001 44.083333333333336c-1.2745833333333334 0 -2.707291666666667 -0.345 -3.1471666666666667 -1.5410000000000001 -0.2798333333333333 -0.7628333333333334 -0.198375 -1.4988333333333335 -0.060375000000000005 -2.0192083333333337 0.135125 -0.5127083333333334 0.4705416666666667 -0.9324583333333334 0.842375 -1.3100416666666668 2.1054583333333334 -2.142833333333334 8.100791666666666 -8.330791666666666 8.100791666666666 -8.330791666666666H6.493666666666667c-0.8605833333333334 0 -1.7240416666666667 -0.3670416666666667 -2.055625 -1.1605416666666668a4.2588333333333335 4.2588333333333335 0 0 1 -0.342125 -1.6339583333333334c0 -1.4068333333333334 0.9391666666666667 -2.212791666666667 2.3210833333333336 -2.212791666666667h12.036666666666667c1.1145416666666668 0 2.3325833333333335 0.23958333333333334 2.9229166666666666 1.1845 0.6190833333333334 0.9890000000000001 0.44562500000000005 1.9923750000000002 0.23191666666666666 2.5999583333333334 -0.14183333333333334 0.4025 -0.41591666666666666 0.7283333333333334 -0.713 1.0340416666666667 -2.060416666666667 2.11025 -7.992500000000001 8.382541666666667 -7.992500000000001 8.382541666666667h6.7505c0.92575 0 1.8275416666666668 0.44083333333333335 2.117916666666667 1.3205833333333332 0.16770833333333332 0.5107916666666668 0.27025 1.0465000000000002 0.27025 1.5045833333333334C22.041666666666668 43.371291666666664 21.225166666666667 44.083333333333336 19.757 44.083333333333336H7.167375000000001Z" stroke-width="2"></path><path id="Vector_2" stroke="#000" stroke-linecap="round" stroke-linejoin="round" d="M15.333333333333334 16.440208333333334h-5.14625c-0.20029166666666667 0.6708333333333333 -0.4015416666666667 1.2410416666666666 -0.598 1.82275 -0.3066666666666667 0.9065833333333333 -0.997625 1.6770833333333335 -1.9473333333333334 1.7920833333333335 -1.0829166666666665 0.13320833333333335 -2.2492083333333333 0.04504166666666667 -3.0705000000000005 -0.47629166666666667 -0.7446250000000001 -0.5213333333333334 -0.8720833333333334 -1.4106666666666667 -0.621 -2.2290833333333335 1.0857916666666667 -3.545833333333334 3.2851666666666666 -9.540208333333334 4.438041666666667 -12.637541666666667 0.47820833333333335 -1.2822500000000001 1.400125 -2.4130833333333332 2.7485 -2.648833333333333A10.248416666666667 10.248416666666667 0 0 1 12.887666666666668 1.9166666666666667c1.3991666666666667 0 3.70875 0.21083333333333334 4.281833333333333 1.7662083333333334 1.7173333333333334 4.539625 3.06475 9.238333333333335 4.417916666666667 13.904458333333334 0.28175 0.9669583333333333 0 2.025916666666667 -0.97175 2.2885 -1.1145416666666668 0.2999583333333333 -2.546291666666667 0.336375 -3.527625 0.06804166666666667 -0.5558333333333333 -0.15141666666666667 -0.8902916666666667 -0.6574166666666668 -1.0618333333333334 -1.2055833333333335a90.09004166666668 90.09004166666668 0 0 1 -0.6938333333333333 -2.2980833333333335ZM12.948041666666667 7.666666666666667a0.12170833333333334 0.12170833333333334 0 0 0 -0.11691666666666667 0.089125l-0.9065833333333333 3.265041666666667h2.024l-0.8816666666666667 -3.2640833333333337A0.12170833333333334 0.12170833333333334 0 0 0 12.948041666666667 7.666666666666667Z" stroke-width="2"></path><path id="Union" stroke="#000" stroke-linecap="round" stroke-linejoin="round" d="M38.228875 34.888125c1.5247083333333333 0.034499999999999996 2.6565 0.09008333333333333 3.4854583333333333 0.1495 1.0052916666666667 0.07091666666666667 1.4432500000000001 1.1155 0.813625 1.902291666666667 -2.852 3.5640416666666668 -5.527666666666667 5.515208333333334 -6.829083333333334 6.341291666666667a1.520875 1.520875 0 0 1 -1.6483333333333334 0c-1.3014166666666669 -0.8260833333333334 -3.9770833333333337 -2.7772500000000004 -6.829083333333334 -6.341291666666667 -0.6296250000000001 -0.7858333333333333 -0.19166666666666668 -1.8313750000000002 0.813625 -1.902291666666667 0.8289583333333334 -0.059416666666666666 1.96075 -0.115 3.4854583333333333 -0.1495V19.166666666666668c0 -8.167875 0.14566666666666667 -12.465041666666666 0.244375 -14.447833333333334 0.046000000000000006 -0.905625 0.5865 -1.66175 1.486375 -1.7633333333333334 0.42070833333333335 -0.04791666666666667 0.9535416666666667 -0.0805 1.6234166666666667 -0.0805s1.2027083333333333 0.03354166666666667 1.6234166666666667 0.0805c0.9008333333333333 0.10158333333333333 1.4413333333333334 0.8577083333333334 1.4854166666666668 1.7633333333333334 0.100625 1.98375 0.24533333333333335 6.279958333333333 0.24533333333333335 14.447833333333334v15.721458333333334Z" stroke-width="2"></path></g></svg>