<svg xmlns="http://www.w3.org/2000/svg" fill="none" viewBox="-1 -1 48 48" height="48" width="48"><g id="news-paper--newspaper-periodical-fold-content-entertainment"><path id="Rectangle 1100" stroke="#000" stroke-linecap="round" stroke-linejoin="round" d="M39.21691666666666 6.607708333333333c-0.48875 -2.310541666666667 -2.546291666666667 -3.845791666666667 -4.942125 -3.726 -2.894166666666667 0.14470833333333333 -7.426125 0.48108333333333336 -13.809583333333334 1.2525416666666667 -6.3825 0.7714583333333334 -10.862708333333334 1.5237500000000002 -13.707041666666669 2.0719166666666666 -2.353666666666667 0.45329166666666665 -3.9722916666666666 2.4332083333333334 -3.8793333333333337 4.791666666666667 0.10158333333333333 2.577916666666667 0.3727916666666667 6.475458333333333 1.043625 11.853625000000001 0.3037916666666667 2.43225 0.612375 4.552083333333334 0.9085 6.3777083333333335" stroke-width="2"></path><path id="Rectangle 1099" stroke="#000" stroke-linejoin="round" d="M5.21525 38.293083333333335c0.209875 2.4399166666666665 2.1140833333333333 4.261708333333334 4.556875 4.426541666666667C12.728583333333335 42.91895833333333 17.373625 43.125 23.958333333333336 43.125c6.58375 0 11.229750000000001 -0.20604166666666668 14.186208333333335 -0.405375 2.44375 -0.16483333333333333 4.3469999999999995 -1.986625 4.556875 -4.426541666666667C42.918 35.76883333333333 43.125 32.0045 43.125 26.833333333333336s-0.20700000000000002 -8.934541666666668 -0.42358333333333337 -11.459750000000001c-0.209875 -2.4399166666666665 -2.1140833333333333 -4.261708333333334 -4.556875 -4.426541666666667C35.18808333333334 10.747708333333334 30.543041666666667 10.541666666666668 23.958333333333336 10.541666666666668c-6.58375 0 -11.229750000000001 0.20604166666666668 -14.186208333333335 0.405375 -2.44375 0.16483333333333333 -4.3469999999999995 1.986625 -4.556875 4.426541666666667C4.998666666666667 17.89783333333333 4.791666666666667 21.662166666666668 4.791666666666667 26.833333333333336s0.20700000000000002 8.9355 0.42358333333333337 11.459750000000001Z" stroke-width="2"></path><path id="Vector 1469" stroke="#000" stroke-linecap="round" stroke-linejoin="round" d="M18.208333333333336 18.208333333333336h-7.666666666666667" stroke-width="2"></path><path id="Vector 1471" stroke="#000" stroke-linecap="round" stroke-linejoin="round" d="M18.208333333333336 29.708333333333336h-7.666666666666667" stroke-width="2"></path><path id="Vector 1472" stroke="#000" stroke-linecap="round" stroke-linejoin="round" d="M37.375 35.458333333333336H10.541666666666668" stroke-width="2"></path><path id="Vector 1470" stroke="#000" stroke-linecap="round" stroke-linejoin="round" d="M18.208333333333336 23.958333333333336h-7.666666666666667" stroke-width="2"></path><path id="Rectangle 1096" stroke="#000" stroke-linejoin="round" d="M24.041708333333332 27.622041666666668c0.08241666666666667 1.6349166666666668 1.3263333333333334 2.8788333333333336 2.96125 2.96125 0.9497083333333334 0.04791666666666667 2.1629583333333335 0.08337499999999999 3.6637083333333336 0.08337499999999999a73.14958333333334 73.14958333333334 0 0 0 3.6627500000000004 -0.08337499999999999c1.6358750000000002 -0.08241666666666667 2.8797916666666667 -1.3263333333333334 2.96125 -2.96125 0.04791666666666667 -0.9497083333333334 0.08433333333333333 -2.1629583333333335 0.08433333333333333 -3.6637083333333336a73.14958333333334 73.14958333333334 0 0 0 -0.08337499999999999 -3.6637083333333336c-0.08241666666666667 -1.6349166666666668 -1.325375 -2.8788333333333336 -2.96125 -2.96125A73.14958333333334 73.14958333333334 0 0 0 30.666666666666668 17.25a73.14958333333334 73.14958333333334 0 0 0 -3.6637083333333336 0.08337499999999999c-1.6349166666666668 0.08241666666666667 -2.8788333333333336 1.3263333333333334 -2.96125 2.96125A73.14958333333334 73.14958333333334 0 0 0 23.958333333333336 23.958333333333336c0 1.50075 0.03641666666666667 2.714 0.08337499999999999 3.6637083333333336Z" stroke-width="2"></path></g></svg>