<svg xmlns="http://www.w3.org/2000/svg" fill="none" viewBox="-1 -1 48 48" height="48" width="48"><g id="fragile--fragile-shipping-glass-delivery-wine-crack-shipment-sign-sticker"><path id="Subtract" stroke="#000" stroke-linecap="round" stroke-linejoin="round" d="M19.346833333333333 2.90375a56.813833333333335 56.813833333333335 0 0 0 -2.865416666666667 5.973291666666666 0.9075416666666667 0.9075416666666667 0 0 0 0.09966666666666667 0.8816666666666667c0.5155833333333334 0.7110833333333334 1.7135 2.2837083333333332 3.5621250000000004 4.235833333333334 0.22520833333333332 0.23766666666666666 0.31912500000000005 0.5702083333333333 0.244375 0.8893333333333334 -0.2577916666666667 1.0992083333333333 -0.8970000000000001 3.871666666666667 -1.595625 7.223916666666667 -0.16291666666666668 0.7800833333333334 0.4954583333333334 1.1768333333333334 1.0158333333333334 0.5740416666666667 1.1298750000000002 -1.3071666666666668 2.9813750000000003 -3.8400416666666666 5.711666666666667 -8.680583333333333a0.9324583333333334 0.9324583333333334 0 0 0 0.004791666666666667 -0.917125 36.603541666666665 36.603541666666665 0 0 0 -2.8165416666666667 -4.2214583333333335 0.46958333333333335 0.46958333333333335 0 0 1 -0.051750000000000004 -0.506c0.405375 -0.7858333333333333 1.69625 -3.1749583333333335 3.512291666666667 -5.461541666666666 3.263125 0.04504166666666667 5.615833333333334 0.15620833333333334 7.263208333333333 0.27408333333333335 2.155291666666667 0.15333333333333335 3.887 1.4997916666666666 4.2463750000000005 3.6301666666666668 0.34308333333333335 2.02975 0.6555000000000001 5.191291666666666 0.6555000000000001 9.971458333333333 0 6.921083333333334 -4.1898333333333335 11.749166666666667 -10.327 13.332333333333334 -0.9861249999999999 0.25395833333333334 -1.7058333333333335 1.152875 -1.61 2.1667916666666667l0.3210416666666667 3.424125c0.10733333333333334 1.1519166666666667 0.8979583333333334 2.120791666666667 1.98375 2.5185000000000004a74.31875 74.31875 0 0 1 5.044666666666667 2.0853333333333337c0.5232500000000001 0.23766666666666666 0.8490833333333334 0.7590000000000001 0.8490833333333334 1.3339999999999999 0 0.8241666666666667 -0.6679583333333333 1.492125 -1.4930833333333335 1.492125H12.896291666666668c-0.8241666666666667 0 -1.4930833333333335 -0.6679583333333333 -1.4930833333333335 -1.492125 0 -0.575 0.32583333333333336 -1.0963333333333334 0.8490833333333334 -1.3339999999999999a74.338875 74.338875 0 0 1 5.044666666666667 -2.0853333333333337c1.0867499999999999 -0.39770833333333333 1.8764166666666666 -1.3665833333333333 1.98375 -2.5185000000000004l0.322 -3.424125c0.09487500000000001 -1.0139166666666668 -0.6248333333333334 -1.9128333333333334 -1.61 -2.1677500000000003C11.854583333333332 28.520000000000003 7.666666666666667 23.690958333333334 7.666666666666667 16.770833333333336c0 -4.780166666666667 0.3124166666666667 -7.9417083333333345 0.6555000000000001 -9.971458333333333 0.359375 -2.130375 2.091083333333333 -3.4768333333333334 4.2463750000000005 -3.6301666666666668 1.5649583333333335 -0.11212500000000002 3.7652916666666667 -0.2175416666666667 6.778291666666667 -0.2664166666666667Z" stroke-width="2"></path></g></svg>