<svg xmlns="http://www.w3.org/2000/svg" fill="none" viewBox="-1 -1 48 48" height="48" width="48"><g id="thermometer--temperature-thermometer-weather-level-meter-mercury-measure"><path id="Union" stroke="#000" stroke-linecap="round" stroke-linejoin="round" d="M29.701625 24.446125000000002A10.520583333333333 10.520583333333333 0 0 1 33.540708333333335 32.583333333333336c0 5.821875 -4.718833333333333 10.541666666666668 -10.541666666666668 10.541666666666668 -5.821875 0 -10.541666666666668 -4.719791666666667 -10.541666666666668 -10.541666666666668 0 -3.2765416666666667 1.495 -6.20425 3.8400416666666666 -8.137208333333334 -0.0038333333333333336 -0.7666666666666667 -0.005750000000000001 -1.5678333333333332 -0.005750000000000001 -2.4044583333333334 0 -5.797916666666667 0.10541666666666667 -9.868916666666667 0.232875 -12.671083333333334 0.16291666666666668 -3.584166666666667 2.3383333333333334 -6.4342500000000005 5.925375 -6.491750000000001a34.675375 34.675375 0 0 1 1.0992083333333333 0c3.587041666666667 0.0575 5.762458333333334 2.907583333333333 5.925375 6.491750000000001C29.60291666666667 12.17275 29.708333333333336 16.24375 29.708333333333336 22.041666666666668c0 0.8366250000000001 -0.0028750000000000004 1.63875 -0.0067083333333333335 2.4044583333333334Z" stroke-width="2"></path><path id="Ellipse 185" stroke="#000" stroke-linecap="round" stroke-linejoin="round" d="M19.166666666666668 32.583333333333336a3.8333333333333335 3.8333333333333335 0 1 0 7.666666666666667 0 3.8333333333333335 3.8333333333333335 0 1 0 -7.666666666666667 0" stroke-width="2"></path><path id="Vector 1184" stroke="#000" stroke-linecap="round" stroke-linejoin="round" d="M23 9.583333333333334v19.166666666666668" stroke-width="2"></path></g></svg>