<svg xmlns="http://www.w3.org/2000/svg" fill="none" viewBox="-1 -1 48 48" height="48" width="48"><g id="user-protection-check--shield-secure-security-person-check-protection"><path id="Rectangle 112" stroke="#000" stroke-linecap="round" stroke-linejoin="round" d="M25.10354166666667 28.3475c0.13991666666666666 -1.5831666666666666 1.124125 -2.8462500000000004 2.6977083333333334 -3.068583333333333C29.179333333333336 25.084375 31.295333333333332 24.916666666666668 34.5 24.916666666666668c3.2046666666666668 0 5.320666666666667 0.16770833333333332 6.69875 0.36225 1.5735833333333333 0.22233333333333336 2.55875 1.4854166666666668 2.69675 3.068583333333333A48.51083333333333 48.51083333333333 0 0 1 44.083333333333336 32.583333333333336c0 4.325916666666667 -2.2837083333333332 8.373916666666666 -6.1295 10.353833333333334C36.668708333333335 43.598416666666665 35.41425 44.083333333333336 34.5 44.083333333333336c-0.91425 0 -2.1687083333333335 -0.4849166666666667 -3.4538333333333338 -1.1461666666666666C27.199416666666668 40.95725 24.916666666666668 36.90925000000001 24.916666666666668 32.583333333333336c0 -1.6368333333333334 0.08720833333333333 -3.098291666666667 0.186875 -4.235833333333334Z" stroke-width="2"></path><path id="Vector 993" stroke="#000" stroke-linecap="round" stroke-linejoin="round" d="m31.145833333333336 33.318375 3.15675 3.5774583333333334 4.509916666666667 -6.708333333333334" stroke-width="2"></path><path id="Union" stroke="#000" stroke-linecap="round" stroke-linejoin="round" d="M21.990875 22.834208333333336A10.541666666666668 10.541666666666668 0 0 0 27.791666666666668 13.416666666666668c0 -5.821875 -4.719791666666667 -10.541666666666668 -10.541666666666668 -10.541666666666668S6.708333333333334 7.594791666666667 6.708333333333334 13.416666666666668a10.541666666666668 10.541666666666668 0 0 0 5.800791666666667 9.417541666666667c-4.807958333333334 1.6636666666666666 -8.450583333333332 5.786416666666667 -9.394541666666667 10.847375000000001 -0.30475 1.6349166666666668 0.6468750000000001 2.9708333333333337 2.297125 3.1845416666666666C7.419416666666667 37.12583333333334 10.979625 37.375 17.25 37.375c1.0302083333333334 0 1.986625 -0.0067083333333333335 2.875 -0.01916666666666667" stroke-width="2"></path></g></svg>