<svg xmlns="http://www.w3.org/2000/svg" fill="none" viewBox="-1 -1 48 48" height="48" width="48"><g id="login-1--arrow-enter-frame-left-login-point-rectangle"><path id="Rectangle 1097" stroke="#000" stroke-linecap="round" stroke-linejoin="round" d="M29.609625 14.375c-0.06708333333333334 -2.7437083333333336 -0.161 -4.914333333333333 -0.2510833333333334 -6.555 -0.1312916666666667 -2.3996666666666666 -1.8495833333333334 -4.327833333333333 -4.240625 -4.563583333333333C23.0575 3.0532500000000002 20.150875000000003 2.875 16.291666666666668 2.875c-3.8592083333333336 0 -6.766791666666667 0.17825 -8.826250000000002 0.3814166666666667 -2.392 0.23575000000000002 -4.109333333333334 2.1639166666666667 -4.240625 4.564541666666667C3.055166666666667 10.90775 2.875 15.87191666666667 2.875 23c0 7.1280833333333335 0.18016666666666667 12.09225 0.34979166666666667 15.18 0.1312916666666667 2.3996666666666666 1.8495833333333334 4.327833333333333 4.240625 4.563583333333333 2.060416666666667 0.20316666666666666 4.967041666666667 0.3814166666666667 8.826250000000002 0.3814166666666667 3.8592083333333336 0 6.766791666666667 -0.17825 8.826250000000002 -0.3814166666666667 2.3910416666666667 -0.23575000000000002 4.109333333333334 -2.1639166666666667 4.240625 -4.563583333333333 0.09008333333333333 -1.6406666666666667 0.18304166666666669 -3.8112916666666665 0.2510833333333334 -6.555" stroke-width="2"></path><path id="Union" stroke="#000" stroke-linecap="round" stroke-linejoin="round" d="M18.079916666666666 32.700250000000004c1.0637500000000002 0.9008333333333333 2.4993333333333334 0.22616666666666665 2.5932500000000003 -1.1643750000000002 0.08145833333333334 -1.2333749999999999 0.169625 -2.7647916666666665 0.23 -4.429416666666667l18.692291666666666 -0.6804166666666667c1.1979166666666667 -0.043125 2.2501666666666664 -0.8318333333333333 2.389125 -2.0220833333333332 0.048875 -0.42358333333333337 0.08337499999999999 -0.8970000000000001 0.08337499999999999 -1.4039583333333334 0 -0.5079166666666667 -0.034499999999999996 -0.9813333333333334 -0.08337499999999999 -1.4039583333333334 -0.13895833333333332 -1.19025 -1.19025 -1.9789583333333334 -2.389125 -2.0220833333333332l-18.691333333333336 -0.6804166666666667a149.53833333333333 149.53833333333333 0 0 0 -0.23095833333333332 -4.431333333333333c-0.09295833333333334 -1.3895833333333334 -1.5304583333333335 -2.065208333333333 -2.5942083333333334 -1.1643750000000002 -0.9362916666666666 0.7925416666666667 -2.1677500000000003 1.9013333333333333 -3.7240833333333336 3.427958333333333 -2.55875 2.5108333333333337 -3.8007500000000003 4.267458333333334 -4.3853333333333335 5.270833333333334a1.9617083333333336 1.9617083333333336 0 0 0 0 2.0029166666666667c0.5845833333333333 1.003375 1.8265833333333332 2.76 4.3853333333333335 5.271791666666667 1.5563333333333336 1.5275833333333335 2.7887500000000003 2.636375 3.725041666666667 3.428916666666667Z" stroke-width="2"></path></g></svg>