<svg xmlns="http://www.w3.org/2000/svg" fill="none" viewBox="-1 -1 48 48" height="48" width="48"><g id="sun--photos-light-camera-mode-brightness-sun-photo-full"><path id="Union" stroke="#000" stroke-linecap="round" stroke-linejoin="round" d="M3.7106666666666666 25.139a3.289 3.289 0 0 1 0 -4.2780000000000005 112.29175000000001 112.29175000000001 0 0 1 3.8793333333333337 -4.35275c0.08625 -2.39775 0.209875 -4.238708333333333 0.32583333333333336 -5.568875a3.287083333333334 3.287083333333334 0 0 1 3.0235416666666666 -3.0245c1.3301666666666667 -0.115 3.1711250000000004 -0.23958333333333334 5.567916666666666 -0.32583333333333336a112.29175000000001 112.29175000000001 0 0 1 4.3537083333333335 -3.8783749999999997 3.289 3.289 0 0 1 4.2780000000000005 0c1.058 0.8893333333333334 2.5089166666666665 2.157208333333333 4.35275 3.8793333333333337 2.39775 0.08625 4.238708333333333 0.209875 5.569833333333333 0.32583333333333336a3.287083333333334 3.287083333333334 0 0 1 3.0235416666666666 3.0235416666666666c0.115 1.3301666666666667 0.23958333333333334 3.1711250000000004 0.32583333333333336 5.567916666666666a112.33104166666668 112.33104166666668 0 0 1 3.8783749999999997 4.3537083333333335 3.289 3.289 0 0 1 0 4.2780000000000005 112.33104166666668 112.33104166666668 0 0 1 -3.8793333333333337 4.35275 110.56291666666668 110.56291666666668 0 0 1 -0.32583333333333336 5.569833333333333 3.287083333333334 3.287083333333334 0 0 1 -3.0225833333333334 3.0235416666666666c-1.3311250000000001 0.115 -3.1720833333333336 0.23958333333333334 -5.569833333333333 0.32583333333333336a112.33104166666668 112.33104166666668 0 0 1 -4.35275 3.8783749999999997 3.289 3.289 0 0 1 -4.2780000000000005 0 112.33104166666668 112.33104166666668 0 0 1 -4.35275 -3.8793333333333337 110.84083333333334 110.84083333333334 0 0 1 -5.568875 -0.32583333333333336 3.287083333333334 3.287083333333334 0 0 1 -3.0245 -3.0225833333333334c-0.115 -1.3320833333333333 -0.23958333333333334 -3.1720833333333336 -0.32583333333333336 -5.569833333333333a112.29175000000001 112.29175000000001 0 0 1 -3.8783749999999997 -4.35275Z" stroke-width="2"></path><path id="Ellipse 189" stroke="#000" stroke-linecap="round" stroke-linejoin="round" d="M13.416666666666668 23a9.583333333333334 9.583333333333334 0 1 0 19.166666666666668 0 9.583333333333334 9.583333333333334 0 1 0 -19.166666666666668 0" stroke-width="2"></path></g></svg>