<svg xmlns="http://www.w3.org/2000/svg" fill="none" viewBox="-1 -1 48 48" height="48" width="48"><g id="keyboard--keyboard-device-electronics-dvorak-qwerty"><path id="Rectangle 1095" stroke="#000" stroke-linecap="round" stroke-linejoin="round" d="M7.82 16.641458333333333c-2.3996666666666666 0.1312916666666667 -4.327833333333333 1.8495833333333334 -4.563583333333333 4.240625C3.0532500000000002 22.942500000000003 2.875 25.849125 2.875 29.708333333333336c0 3.8592083333333336 0.17825 6.766791666666667 0.3814166666666667 8.826250000000002 0.23575000000000002 2.3910416666666667 2.1639166666666667 4.109333333333334 4.564541666666667 4.240625C10.90775 42.944833333333335 15.87191666666667 43.125 23 43.125c7.1280833333333335 0 12.09225 -0.18016666666666667 15.18 -0.34979166666666667 2.3996666666666666 -0.1312916666666667 4.327833333333333 -1.8495833333333334 4.563583333333333 -4.240625 0.20316666666666666 -2.0594583333333336 0.3814166666666667 -4.967041666666667 0.3814166666666667 -8.826250000000002 0 -3.8592083333333336 -0.17825 -6.766791666666667 -0.3814166666666667 -8.826250000000002 -0.23575000000000002 -2.3910416666666667 -2.1639166666666667 -4.109333333333334 -4.564541666666667 -4.240625C35.09225 16.471833333333333 30.128083333333333 16.291666666666668 23 16.291666666666668c-7.1280833333333335 0 -12.09225 0.18016666666666667 -15.18 0.34979166666666667Z" stroke-width="2"></path><path id="Vector 943" stroke="#000" stroke-linecap="round" stroke-linejoin="round" d="M17.25 37.375h11.5" stroke-width="2"></path><path id="Vector 944" stroke="#000" stroke-linecap="round" stroke-linejoin="round" d="M10.541666666666668 23.479166666666668h1.9166666666666667" stroke-width="2"></path><path id="Vector 948" stroke="#000" stroke-linecap="round" stroke-linejoin="round" d="M10.541666666666668 30.1875h1.9166666666666667" stroke-width="2"></path><path id="Vector 945" stroke="#000" stroke-linecap="round" stroke-linejoin="round" d="M18.208333333333336 23.479166666666668h1.9166666666666667" stroke-width="2"></path><path id="Vector 949" stroke="#000" stroke-linecap="round" stroke-linejoin="round" d="M18.208333333333336 30.1875h1.9166666666666667" stroke-width="2"></path><path id="Vector 946" stroke="#000" stroke-linecap="round" stroke-linejoin="round" d="M25.875 23.479166666666668h1.9166666666666667" stroke-width="2"></path><path id="Vector 950" stroke="#000" stroke-linecap="round" stroke-linejoin="round" d="M25.875 30.1875h1.9166666666666667" stroke-width="2"></path><path id="Vector 947" stroke="#000" stroke-linecap="round" stroke-linejoin="round" d="M33.54166666666667 23.479166666666668h1.9166666666666667" stroke-width="2"></path><path id="Vector 951" stroke="#000" stroke-linecap="round" stroke-linejoin="round" d="M33.54166666666667 30.1875h1.9166666666666667" stroke-width="2"></path><path id="Vector 952" stroke="#000" stroke-linecap="round" stroke-linejoin="round" d="M23 15.333333333333334v-2.4610000000000003a3.8333333333333335 3.8333333333333335 0 0 1 3.2506666666666666 -3.7892500000000005l5.957000000000001 -0.9161666666666667A3.8333333333333335 3.8333333333333335 0 0 0 35.458333333333336 4.377666666666666V2.875" stroke-width="2"></path></g></svg>