<svg xmlns="http://www.w3.org/2000/svg" fill="none" viewBox="-1 -1 48 48" height="48" width="48"><g id="insert-side--points-bullet-align-paragraph-formatting-bullets-text"><path id="Rectangle 1096" stroke="#000" stroke-linecap="round" stroke-linejoin="round" d="M19.973583333333334 6.00875c-0.10254166666666667 -1.6339583333333334 -1.348375 -2.8797916666666667 -2.9832916666666667 -2.9823333333333335A88.62858333333334 88.62858333333334 0 0 0 11.5 2.875a89.11541666666666 89.11541666666666 0 0 0 -5.491250000000001 0.15141666666666667c-1.6339583333333334 0.10254166666666667 -2.8797916666666667 1.348375 -2.9823333333333335 2.9832916666666667A88.62091666666667 88.62091666666667 0 0 0 2.875 11.5c0 2.369 0.06995833333333333 4.179291666666667 0.15141666666666667 5.491250000000001 0.10254166666666667 1.6339583333333334 1.348375 2.8797916666666667 2.9832916666666667 2.9823333333333335C7.320708333333334 20.055041666666668 9.131 20.125 11.5 20.125s4.179291666666667 -0.06995833333333333 5.491250000000001 -0.15141666666666667c1.6339583333333334 -0.10254166666666667 2.8797916666666667 -1.348375 2.9823333333333335 -2.9832916666666667 0.08145833333333334 -1.3110000000000002 0.15141666666666667 -3.121291666666667 0.15141666666666667 -5.490291666666667a88.56916666666667 88.56916666666667 0 0 0 -0.15141666666666667 -5.491250000000001Z" stroke-width="2"></path><path id="Rectangle 1096_2" stroke="#000" stroke-linecap="round" stroke-linejoin="round" d="M19.973583333333334 29.00875c-0.10254166666666667 -1.6339583333333334 -1.348375 -2.8797916666666667 -2.9832916666666667 -2.9823333333333335A88.56725000000002 88.56725000000002 0 0 0 11.5 25.875a89.11541666666666 89.11541666666666 0 0 0 -5.491250000000001 0.15141666666666667c-1.6339583333333334 0.10254166666666667 -2.8797916666666667 1.348375 -2.9823333333333335 2.9832916666666667A88.62858333333334 88.62858333333334 0 0 0 2.875 34.5c0 2.368041666666667 0.06995833333333333 4.179291666666667 0.15141666666666667 5.491250000000001 0.10254166666666667 1.6339583333333334 1.348375 2.8797916666666667 2.9832916666666667 2.9823333333333335C7.320708333333334 43.05504166666667 9.131 43.125 11.5 43.125s4.179291666666667 -0.06995833333333333 5.491250000000001 -0.15141666666666667c1.6339583333333334 -0.10254166666666667 2.8797916666666667 -1.348375 2.9823333333333335 -2.9832916666666667 0.08145833333333334 -1.3110000000000002 0.15141666666666667 -3.12225 0.15141666666666667 -5.490291666666667s-0.06995833333333333 -4.179291666666667 -0.15141666666666667 -5.491250000000001Z" stroke-width="2"></path><path id="Rectangle 1098" stroke="#000" stroke-linecap="round" stroke-linejoin="round" d="M25.92291666666667 5.015916666666667c0.052708333333333336 -0.6027916666666667 0.5175000000000001 -0.9957083333333333 1.12125 -1.0350000000000001C28.098333333333336 3.914791666666667 30.247875 3.8333333333333335 34.5 3.8333333333333335c4.2530833333333335 0 6.401666666666666 0.0805 7.4558333333333335 0.14854166666666668 0.60375 0.03833333333333334 1.0675833333333336 0.43125 1.12125 1.0340416666666667 0.02875 0.30762500000000004 0.04791666666666667 0.7053333333333334 0.04791666666666667 1.2132500000000002s-0.01916666666666667 0.905625 -0.04791666666666667 1.2132500000000002c-0.05366666666666667 0.6027916666666667 -0.5175000000000001 0.9957083333333333 -1.12125 1.0350000000000001 -1.0541666666666667 0.06708333333333334 -3.2037083333333336 0.14758333333333334 -7.4558333333333335 0.14758333333333334 -4.2530833333333335 0 -6.401666666666666 -0.0805 -7.4558333333333335 -0.14854166666666668 -0.60375 -0.03833333333333334 -1.0675833333333336 -0.43125 -1.12125 -1.0340416666666667C25.894166666666667 7.1347916666666675 25.875 6.7370833333333335 25.875 6.229166666666667s0.01916666666666667 -0.905625 0.04791666666666667 -1.2132500000000002Z" stroke-width="2"></path><path id="Rectangle 1100" stroke="#000" stroke-linecap="round" stroke-linejoin="round" d="M25.903750000000002 15.601666666666668c0.035458333333333335 -0.6229166666666667 0.4791666666666667 -1.0618333333333334 1.1011250000000001 -1.1078333333333332C27.798375000000004 14.434416666666667 29.197541666666666 14.375 31.625 14.375s3.826625 0.059416666666666666 4.620125 0.11883333333333333c0.6229166666666667 0.046000000000000006 1.0656666666666668 0.4849166666666667 1.1011250000000001 1.106875 0.01629166666666667 0.301875 0.02875 0.6861666666666667 0.02875 1.170125 0 0.4839583333333334 -0.012458333333333333 0.8682500000000001 -0.02875 1.1691666666666667 -0.035458333333333335 0.6229166666666667 -0.4791666666666667 1.0618333333333334 -1.1011250000000001 1.1078333333333332 -0.7935 0.059416666666666666 -2.1926666666666668 0.11883333333333333 -4.620125 0.11883333333333333s-3.826625 -0.059416666666666666 -4.620125 -0.11883333333333333c-0.6229166666666667 -0.04695833333333334 -1.0656666666666668 -0.4849166666666667 -1.1011250000000001 -1.106875A20.747916666666665 20.747916666666665 0 0 1 25.875 16.770833333333336c0 -0.4839583333333334 0.011500000000000002 -0.8682500000000001 0.02875 -1.1691666666666667Z" stroke-width="2"></path><path id="Rectangle 70" stroke="#000" stroke-linecap="round" stroke-linejoin="round" d="M25.903750000000002 38.60166666666667c0.035458333333333335 -0.6229166666666667 0.4791666666666667 -1.0618333333333334 1.1011250000000001 -1.1078333333333332C27.798375000000004 37.434416666666664 29.197541666666666 37.375 31.625 37.375s3.826625 0.059416666666666666 4.620125 0.11883333333333333c0.6229166666666667 0.046000000000000006 1.0656666666666668 0.4849166666666667 1.1011250000000001 1.106875 0.01629166666666667 0.301875 0.02875 0.6861666666666667 0.02875 1.170125 0 0.4839583333333334 -0.012458333333333333 0.8682500000000001 -0.02875 1.1691666666666667 -0.035458333333333335 0.6229166666666667 -0.4791666666666667 1.0618333333333334 -1.1011250000000001 1.1078333333333332 -0.7935 0.059416666666666666 -2.1926666666666668 0.11883333333333333 -4.620125 0.11883333333333333s-3.826625 -0.059416666666666666 -4.620125 -0.11883333333333333c-0.6229166666666667 -0.046000000000000006 -1.0656666666666668 -0.4849166666666667 -1.1011250000000001 -1.106875A20.747916666666665 20.747916666666665 0 0 1 25.875 39.770833333333336c0 -0.4839583333333334 0.011500000000000002 -0.8682500000000001 0.02875 -1.1691666666666667Z" stroke-width="2"></path><path id="Rectangle 75" stroke="#000" stroke-linecap="round" stroke-linejoin="round" d="M25.92291666666667 28.01591666666667c0.052708333333333336 -0.6027916666666667 0.5175000000000001 -0.9957083333333333 1.12125 -1.0350000000000001 1.0541666666666667 -0.06708333333333334 3.2037083333333336 -0.14758333333333334 7.4558333333333335 -0.14758333333333334 4.2530833333333335 0 6.401666666666666 0.0805 7.4558333333333335 0.14854166666666668 0.60375 0.03833333333333334 1.0675833333333336 0.43125 1.12125 1.0340416666666667 0.02875 0.30762500000000004 0.04791666666666667 0.7053333333333334 0.04791666666666667 1.2132500000000002s-0.01916666666666667 0.905625 -0.04791666666666667 1.2132500000000002c-0.05366666666666667 0.6027916666666667 -0.5175000000000001 0.9957083333333333 -1.12125 1.0350000000000001 -1.0541666666666667 0.06708333333333334 -3.2037083333333336 0.14758333333333334 -7.4558333333333335 0.14758333333333334 -4.2530833333333335 0 -6.401666666666666 -0.0805 -7.4558333333333335 -0.14854166666666668 -0.60375 -0.03833333333333334 -1.0675833333333336 -0.43125 -1.12125 -1.0340416666666667 -0.02875 -0.30762500000000004 -0.04791666666666667 -0.7053333333333334 -0.04791666666666667 -1.2132500000000002s0.01916666666666667 -0.905625 0.04791666666666667 -1.2132500000000002Z" stroke-width="2"></path></g></svg>