<svg viewBox="-1 -1 48 48" fill="none" xmlns="http://www.w3.org/2000/svg" height="48" width="48"><g id="ipad-tablet-screen"><path id="Rectangle 1095" d="M7.904333333333333 6.193708333333333c-2.44375 0.169625 -4.349875 1.9942916666666668 -4.563583333333333 4.434208333333333C3.1050000000000004 13.301666666666668 2.875 17.360208333333333 2.875 23s0.23 9.699291666666667 0.46575 12.372083333333334c0.21370833333333333 2.4399166666666665 2.1198333333333337 4.264583333333333 4.563583333333333 4.434208333333333 3.0925416666666665 0.215625 8.030833333333334 0.44370833333333337 15.095666666666668 0.44370833333333337 7.063875 0 12.003125 -0.22808333333333333 15.095666666666668 -0.44370833333333337 2.44375 -0.169625 4.349875 -1.9942916666666668 4.563583333333333 -4.434208333333333C42.895 32.69833333333333 43.125 28.63979166666667 43.125 23s-0.23 -9.699291666666667 -0.46575 -12.372083333333334c-0.21370833333333333 -2.4399166666666665 -2.1198333333333337 -4.264583333333333 -4.563583333333333 -4.434208333333333C35.003125 5.978083333333334 30.064833333333333 5.75 23 5.75c-7.063875 0 -12.003125 0.22808333333333333 -15.095666666666668 0.44370833333333337Z" stroke="black" stroke-linecap="round" stroke-linejoin="round" stroke-width="2"></path><path id="Vector 943" d="M14.375 33.54166666666667h17.25" stroke="black" stroke-linecap="round" stroke-linejoin="round" stroke-width="2"></path></g></svg>