<svg xmlns="http://www.w3.org/2000/svg" fill="none" viewBox="-1 -1 48 48" height="48" width="48"><g id="play-list-folder--player-television-movies-slider-media-tv-players-video"><path id="Subtract" stroke="#000" stroke-linecap="round" stroke-linejoin="round" d="M41.20258333333334 19.166666666666668a202.61083333333332 202.61083333333332 0 0 0 -0.10350000000000001 -5.385833333333333c-0.09966666666666667 -2.99 -2.5922916666666667 -5.2861666666666665 -5.585166666666667 -5.2861666666666665H21.881625a3.8333333333333335 3.8333333333333335 0 0 1 -2.90375 -1.3311250000000001L17.115833333333335 5.003458333333334c-1.1576666666666666 -1.3426250000000002 -2.875 -2.089166666666667 -4.642166666666667 -1.9482916666666668 -2.8136666666666668 0.2232916666666667 -4.803166666666667 0.5261250000000001 -6.161125 0.8002083333333333 -1.6339583333333334 0.32966666666666666 -2.738916666666667 1.6243750000000001 -2.9133333333333336 3.2832500000000002C3.1500416666666666 9.495166666666666 2.875 13.746333333333334 2.875 21.005708333333335c0 7.259375 0.27599999999999997 11.510541666666667 0.5242083333333334 13.867083333333335 0.17441666666666666 1.6579166666666667 1.279375 2.9535833333333334 2.9133333333333336 3.2832500000000002 2.142833333333334 0.4331666666666667 5.855416666666668 0.9353333333333333 11.895791666666668 1.0886666666666667" stroke-width="2"></path><path id="Union" stroke="#000" stroke-linecap="round" stroke-linejoin="round" d="M30.1875 23.480125c0 -1.4375 1.3129166666666667 -2.5367083333333333 2.5664166666666666 -2.382416666666667 6.5895 0.8145833333333333 9.267083333333334 6.334583333333334 10.336583333333333 10.117125000000001 0.22520833333333332 0.7954166666666667 -0.704375 1.1595833333333334 -1.1931250000000002 0.5107916666666668 -2.034541666666667 -2.7005833333333333 -4.281833333333333 -3.9684583333333334 -6.172625 -4.538666666666667 -0.4379583333333334 -0.13225 -0.8548333333333333 0.23191666666666666 -0.8548333333333333 0.7149166666666666L34.5 37.375a5.75 5.75 0 1 1 -4.3125 -5.568875v-8.326Z" stroke-width="2"></path></g></svg>