<svg xmlns="http://www.w3.org/2000/svg" fill="none" viewBox="-1 -1 48 48" height="48" width="48"><g id="mall--production-store-shop-shops-stores-factory-building"><path id="Rectangle 100" stroke="#000" stroke-linecap="round" stroke-linejoin="round" d="M41.208333333333336 43.125H4.791666666666667V21.08141666666667C4.791666666666667 18.4345 6.9345 16.291666666666668 9.578541666666666 16.4105c8.485083333333334 0.38333333333333336 19.959208333333336 1.681875 27.781125000000003 3.70875 2.34025 0.6066250000000001 3.848666666666667 2.779166666666667 3.848666666666667 5.197041666666667V43.125Z" stroke-width="2"></path><path id="Rectangle 99" stroke="#000" stroke-linecap="round" stroke-linejoin="round" d="M4.791666666666667 31.625h36.41666666666667" stroke-width="2"></path><path id="Vector 2498" stroke="#000" stroke-linecap="round" stroke-linejoin="round" d="M2.875 43.125h40.25" stroke-width="2"></path><path id="Vector 2499" stroke="#000" stroke-linecap="round" stroke-linejoin="round" d="M16.770833333333336 31.625v11.5" stroke-width="2"></path><path id="Vector 2500" stroke="#000" stroke-linecap="round" stroke-linejoin="round" d="M29.229166666666668 31.625v11.5" stroke-width="2"></path><path id="Vector 2501" stroke="#000" stroke-linecap="round" stroke-linejoin="round" d="M32.583333333333336 12.458333333333334v6.229166666666667" stroke-width="2"></path><path id="Rectangle 1774" stroke="#000" stroke-linecap="round" stroke-linejoin="round" d="M25.94016666666667 9.717500000000001c0.09200000000000001 1.4010833333333335 1.1059166666666667 2.4725 2.5050833333333333 2.5913333333333335 0.9775 0.08337499999999999 2.3249166666666667 0.1495 4.138083333333333 0.1495 1.8131666666666666 0 3.1605833333333333 -0.066125 4.138083333333333 -0.1495 1.3991666666666667 -0.11883333333333333 2.4130833333333332 -1.19025 2.5050833333333333 -2.5913333333333335 0.03833333333333334 -0.5874583333333333 0.06516666666666668 -1.2765000000000002 0.06516666666666668 -2.0508333333333337s-0.026833333333333334 -1.4633749999999999 -0.06516666666666668 -2.0508333333333337c-0.09200000000000001 -1.4010833333333335 -1.1059166666666667 -2.4725 -2.5050833333333333 -2.5913333333333335C35.74391666666667 2.941125 34.3965 2.875 32.583333333333336 2.875c-1.8131666666666666 0 -3.1605833333333333 0.066125 -4.138083333333333 0.1495 -1.3991666666666667 0.11883333333333333 -2.4130833333333332 1.19025 -2.5050833333333333 2.5913333333333335A31.557916666666667 31.557916666666667 0 0 0 25.875 7.666666666666667c0 0.7743333333333334 0.026833333333333334 1.4633749999999999 0.06516666666666668 2.0508333333333337Z" stroke-width="2"></path></g></svg>