<svg xmlns="http://www.w3.org/2000/svg" fill="none" viewBox="-1 -1 48 48" height="48" width="48"><g id="upload-box-1--arrow-box-download-internet-network-server-up-upload"><path id="Vector" stroke="#000" stroke-linecap="round" stroke-linejoin="round" d="m43.125 29.229166666666668 0 -9.071583333333333c0 -2.537666666666667 -0.6296250000000001 -5.035083333333333 -1.8332916666666668 -7.268958333333334l-3.4365833333333335 -6.3834583333333335c-0.9362916666666666 -1.7384166666666667 -2.448541666666667 -3.0053333333333336 -4.411208333333334 -3.2180833333333334C31.45441666666667 3.0714583333333336 28.21141666666667 2.875 23 2.875s-8.454416666666667 0.19645833333333332 -10.443916666666667 0.41208333333333336c-1.9626666666666668 0.21275000000000002 -3.4749166666666667 1.4796666666666667 -4.411208333333334 3.2180833333333334l-3.4365833333333335 6.3825A15.333333333333334 15.333333333333334 0 0 0 2.875 20.15758333333333L2.875 29.229166666666668" stroke-width="2"></path><path id="Rectangle 1095" stroke="#000" stroke-linecap="round" stroke-linejoin="round" d="M31.625 43.011916666666664c2.6143333333333336 -0.071875 4.740875 -0.169625 6.380583333333334 -0.2635416666666667 2.4849583333333336 -0.14183333333333334 4.477333333333333 -1.9617083333333336 4.712125 -4.439958333333333 0.21275000000000002 -2.256875 0.40729166666666666 -5.441416666666667 0.40729166666666666 -9.558416666666668s-0.1945416666666667 -7.301541666666667 -0.40729166666666666 -9.558416666666668c-0.23479166666666668 -2.47825 -2.2262083333333336 -4.298125000000001 -4.711166666666667 -4.439958333333333C34.830625 14.569541666666666 29.831958333333336 14.375 23 14.375c-6.832916666666667 0 -11.830625000000001 0.1945416666666667 -15.006541666666667 0.37662500000000004 -2.4849583333333336 0.14183333333333334 -4.476375 1.9617083333333336 -4.711166666666667 4.439958333333333C3.069541666666667 21.448458333333335 2.875 24.633000000000003 2.875 28.75s0.1945416666666667 7.301541666666667 0.40729166666666666 9.558416666666668c0.23479166666666668 2.47825 2.2271666666666667 4.298125000000001 4.712125 4.439958333333333 1.6397083333333335 0.09391666666666668 3.7662500000000003 0.19166666666666668 6.380583333333334 0.2635416666666667" stroke-width="2"></path><path id="Vector 844" stroke="#000" stroke-linecap="round" stroke-linejoin="round" d="M23 2.875v11.5" stroke-width="2"></path><path id="Union" stroke="#000" stroke-linecap="round" stroke-linejoin="round" d="m26.74325 30.356166666666667 -0.32583333333333336 10.929791666666667c-0.03833333333333334 1.2650000000000001 -0.9027499999999999 2.3575 -2.162 2.4657916666666666a14.735333333333333 14.735333333333333 0 0 1 -2.5108333333333337 0c-1.2592500000000002 -0.10829166666666667 -2.124625 -1.20175 -2.162 -2.4657916666666666l-0.32583333333333336 -10.929791666666667a119.188875 119.188875 0 0 1 -2.7925833333333334 -0.08241666666666667c-1.9712916666666667 -0.08433333333333333 -2.7379583333333337 -1.9530833333333333 -1.348375 -3.354166666666667A70.434625 70.434625 0 0 1 17.25 24.86491666666667c1.963625 -1.8189166666666667 3.424125 -2.839541666666667 4.3815 -3.402083333333333a2.6584166666666667 2.6584166666666667 0 0 1 2.736041666666667 0c0.9583333333333334 0.5625416666666666 2.4188333333333336 1.5822083333333334 4.382458333333334 3.402083333333333a70.53333333333333 70.53333333333333 0 0 1 2.1322916666666667 2.0537083333333332c1.3895833333333334 1.4020416666666669 0.6229166666666667 3.2717500000000004 -1.348375 3.354166666666667 -0.782 0.03354166666666667 -1.704875 0.06325 -2.7906666666666666 0.08337499999999999Z" stroke-width="2"></path></g></svg>