<svg xmlns="http://www.w3.org/2000/svg" fill="none" viewBox="-1 -1 48 48" height="48" width="48"><g id="sail-ship---travel-boat-transportation-transport-ocean-ship-sea-water"><path id="Vector" stroke="#000" stroke-linecap="round" stroke-linejoin="round" d="M4.426541666666667 39.37216666666667c-1.4969166666666667 -3.1625 -2.100666666666667 -5.9915 -2.345041666666667 -7.7586666666666675C1.9377499999999999 30.565083333333334 2.775333333333333 29.708333333333336 3.8333333333333335 29.708333333333336h38.333333333333336c1.0589583333333334 0 1.8975 0.85675 1.7518333333333336 1.9051666666666667 -0.24341666666666667 1.768125 -0.8471666666666667 4.595208333333334 -2.3440833333333337 7.7586666666666675 -1.0560833333333335 2.2300416666666667 -3.3877083333333338 3.480666666666667 -5.855416666666668 3.5515833333333333 -3.233416666666667 0.09200000000000001 -8.034666666666668 0.20125 -12.719000000000001 0.20125 -4.683375 0 -9.484625000000001 -0.10925000000000001 -12.719000000000001 -0.20125 -2.4667499999999998 -0.07091666666666667 -4.799333333333333 -1.3215416666666666 -5.855416666666668 -3.5515833333333333Z" stroke-width="2"></path><path id="Vector_2" stroke="#000" stroke-linecap="round" stroke-linejoin="round" d="M42.645833333333336 35.458333333333336h-39.29166666666667" stroke-width="2"></path><path id="Vector 2558" stroke="#000" stroke-linecap="round" stroke-linejoin="round" d="M7.839166666666666 19.941c2.482083333333333 -4.487875 6.967083333333333 -11.7645 12.304041666666668 -16.667333333333332 1.1423333333333334 -1.0484166666666668 2.8558333333333334 -0.18495833333333334 2.8558333333333334 1.365625v19.32H10.281c-2.1073749999999998 0 -3.460541666666667 -2.1744583333333334 -2.440875 -4.018291666666666Z" stroke-width="2"></path><path id="Vector 2561" stroke="#000" stroke-linecap="round" stroke-linejoin="round" d="M28.270833333333336 23.974625h7.488416666666667c2.0977916666666667 0 3.4595833333333332 -2.155291666666667 2.4744166666666665 -4.005833333333333 -2.216625 -4.161083333333333 -5.992458333333333 -10.565625 -9.962833333333334 -14.250416666666666" stroke-width="2"></path><path id="Vector 2562" stroke="#000" stroke-linecap="round" stroke-linejoin="round" d="m23 23.958333333333336 0 5.75" stroke-width="2"></path></g></svg>