<svg xmlns="http://www.w3.org/2000/svg" fill="none" viewBox="-1 -1 48 48" height="48" width="48"><g id="cut--coupon-cut-discount-price-prices-scissors"><path id="Union" stroke="#000" stroke-linecap="round" stroke-linejoin="round" d="M22.041666666666668 29.80416666666667a122.26895833333333 122.26895833333333 0 0 1 -5.090666666666667 -2.9468750000000004 8.625 8.625 0 1 1 -10.487041666666666 -0.3181666666666667c1.1375416666666667 -0.928625 3.008208333333333 -2.1677500000000003 5.275625 -3.5391250000000003 -2.2674166666666666 -1.371375 -4.138083333333333 -2.6105000000000005 -5.276583333333334 -3.5391250000000003a8.625 8.625 0 1 1 10.487041666666666 -0.3181666666666667S30.816166666666668 10.541666666666668 36.41666666666667 10.541666666666668c4.132333333333333 0 6.21575 2.4082916666666665 7.060041666666667 3.7624166666666667 0.29229166666666667 0.468625 0.034499999999999996 1.0388333333333335 -0.48970833333333336 1.210375C40.11775 16.451708333333336 31.304916666666664 19.408166666666666 23 23a207.73504166666666 207.73504166666666 0 0 0 9.637 3.8572916666666672M14.375 12.458333333333334a2.875 2.875 0 1 1 -5.75 0 2.875 2.875 0 0 1 5.75 0Zm0 21.083333333333336a2.875 2.875 0 1 0 -5.75 0 2.875 2.875 0 0 0 5.75 0Z" stroke-width="2"></path><path id="Vector 917" stroke="#000" stroke-linecap="round" stroke-linejoin="round" d="m29.708333333333336 31.625 -1.9166666666666667 0" stroke-width="2"></path><path id="Vector 918" stroke="#000" stroke-linecap="round" stroke-linejoin="round" d="m36.41666666666667 31.625 -1.9166666666666667 0" stroke-width="2"></path><path id="Vector 919" stroke="#000" stroke-linecap="round" stroke-linejoin="round" d="m43.125 31.625 -1.9166666666666667 0" stroke-width="2"></path></g></svg>