<svg xmlns="http://www.w3.org/2000/svg" fill="none" viewBox="-1 -1 48 48" height="48" width="48"><g id="no-smaking-area"><path id="Intersect" stroke="#000" stroke-linecap="round" stroke-linejoin="round" d="M34.63033333333334 29.61825A149.81625000000003 149.81625000000003 0 0 1 34.5 23c0 -2.839541666666667 0.059416666666666666 -5.023583333333334 0.13033333333333336 -6.61825" stroke-width="2"></path><path id="Vector 864" stroke="#000" stroke-linecap="round" stroke-linejoin="round" d="m2.875 2.875 40.25 40.25" stroke-width="2"></path><path id="Rectangle 1096" stroke="#000" stroke-linecap="round" stroke-linejoin="round" d="M16.342458333333333 16.32041666666667C18.308958333333333 16.301250000000003 20.523666666666667 16.291666666666668 23 16.291666666666668c7.704041666666667 0 13.196250000000001 0.10541666666666667 16.476625000000002 0.1945416666666667C41.521708333333336 16.54275 43.125 18.217916666666667 43.125 20.264916666666668v5.471125c0 2.0460416666666665 -1.6032916666666668 3.7212083333333337 -3.648375 3.77775 -2.233875 0.060375000000000005 -5.4941249999999995 0.12841666666666668 -9.779791666666668 0.16674999999999998" stroke-width="2"></path><path id="Rectangle 1097" stroke="#000" stroke-linecap="round" stroke-linejoin="round" d="M23 29.708333333333336c-7.6570833333333335 0 -12.81675 -0.10350000000000001 -15.835500000000001 -0.19358333333333336 -2.0632916666666667 -0.060375000000000005 -3.853458333333333 -1.3119583333333333 -4.108375 -3.3589583333333333A25.625833333333333 25.625833333333333 0 0 1 2.875 23c0 -1.2458333333333333 0.07475 -2.292333333333333 0.18208333333333335 -3.1548333333333334 0.25395833333333334 -2.0479583333333333 2.044125 -3.2985833333333336 4.1074166666666665 -3.3599166666666664 0.8097916666666667 -0.023958333333333335 1.772916666666667 -0.048875 2.898 -0.07283333333333333" stroke-width="2"></path></g></svg>