<svg xmlns="http://www.w3.org/2000/svg" fill="none" viewBox="-1 -1 48 48" height="48" width="48"><g id="store-2--store-shop-shops-stores"><path id="Intersect" stroke="#000" stroke-linecap="round" stroke-linejoin="round" d="M30.60916666666667 43.024375000000006c0.034499999999999996 -1.2458333333333333 0.0575 -2.7887500000000003 0.0575 -4.691041666666666 0 -3.4164583333333334 -0.07379166666666667 -5.677166666666667 -0.1542916666666667 -7.130958333333333 -0.08433333333333333 -1.515125 -0.9727083333333333 -2.773416666666667 -2.4667499999999998 -3.040791666666667C26.92054166666667 27.960333333333335 25.295208333333335 27.791666666666668 23 27.791666666666668c-2.2942500000000003 0 -3.919583333333333 0.16770833333333332 -5.045625 0.36991666666666667 -1.4940416666666667 0.26737500000000003 -2.382416666666667 1.5247083333333333 -2.4667499999999998 3.040791666666667C15.407125000000002 32.65616666666667 15.333333333333334 34.91591666666667 15.333333333333334 38.333333333333336c0 1.9013333333333333 0.023000000000000003 3.445208333333334 0.0575 4.691041666666666" stroke-width="2"></path><path id="Union" stroke="#000" stroke-linecap="round" stroke-linejoin="round" d="M5.83625 6.627833333333334c0.6487916666666668 -1.7288333333333334 2.130375 -2.9804166666666667 3.966541666666667 -3.1835833333333334C12.256125 3.1730416666666668 16.440208333333334 2.875 23 2.875c6.5597916666666665 0 10.742916666666668 0.29708333333333337 13.197208333333334 0.56925 1.8361666666666667 0.204125 3.31775 1.45475 3.9655833333333335 3.1835833333333334C43.125 14.531208333333334 43.125 16.997 43.125 16.997A5.037958333333333 5.037958333333333 0 0 1 38.09375 22.041666666666668c-2.779166666666667 0 -5.03125 -2.257833333333333 -5.03125 -5.043708333333333A5.037958333333333 5.037958333333333 0 0 1 28.03125 22.041666666666668c-2.779166666666667 0 -5.03125 -2.257833333333333 -5.03125 -5.043708333333333A5.037958333333333 5.037958333333333 0 0 1 17.96875 22.041666666666668c-2.779166666666667 0 -5.03125 -2.257833333333333 -5.03125 -5.043708333333333A5.037958333333333 5.037958333333333 0 0 1 7.90625 22.041666666666668C5.127083333333333 22.041666666666668 2.875 19.783833333333334 2.875 16.997958333333333c0 0 0 -2.4667499999999998 2.96125 -10.369166666666667Z" stroke-width="2"></path><path id="Subtract" stroke="#000" stroke-linecap="round" stroke-linejoin="round" d="M4.791666666666667 20.958750000000002V28.75c0 4.26075 0.17154166666666668 7.439541666666667 0.36225 9.655208333333333 0.20795833333333333 2.4303333333333335 2.123666666666667 4.224333333333334 4.557833333333334 4.372875 2.8165416666666667 0.1725 7.172166666666667 0.34691666666666665 13.28825 0.34691666666666665s10.471708333333334 -0.17441666666666666 13.28825 -0.34691666666666665c2.4341666666666666 -0.14854166666666668 4.349875 -1.9425416666666668 4.557833333333334 -4.372875 0.19166666666666668 -2.2156666666666665 0.36225 -5.394458333333333 0.36225 -9.655208333333333v-7.791250000000001" stroke-width="2"></path></g></svg>