<svg xmlns="http://www.w3.org/2000/svg" fill="none" viewBox="-1 -1 48 48" height="48" width="48"><g id="command--mac-command-apple-keyboard"><path id="Vector" stroke="#000" stroke-linecap="round" stroke-linejoin="round" d="M15.226 15.226c-0.08433333333333333 -2.894166666666667 -0.20891666666666667 -5.243041666666667 -0.3373333333333333 -7.0840000000000005C14.677833333333334 5.098333333333334 12.128666666666668 2.875 9.078291666666667 2.875A6.203291666666667 6.203291666666667 0 0 0 2.875 9.078291666666667c0 3.050375 2.223333333333333 5.599541666666667 5.267 5.810375 1.84 0.12841666666666668 4.188875 0.253 7.0840000000000005 0.3373333333333333Zm0 0C15.292125 17.48 15.333333333333334 20.065583333333333 15.333333333333334 23c0 2.9344166666666665 -0.04120833333333333 5.52 -0.10733333333333334 7.774m0 -15.548c2.254 0.066125 4.839583333333334 0.10733333333333334 7.774 0.10733333333333334 2.9344166666666665 0 5.52 -0.04120833333333333 7.774 -0.10733333333333334M15.226 30.774000000000004c-0.08433333333333333 2.894166666666667 -0.20891666666666667 5.243041666666667 -0.3373333333333333 7.0840000000000005C14.677833333333334 40.90166666666667 12.128666666666668 43.125 9.078291666666667 43.125A6.203291666666667 6.203291666666667 0 0 1 2.875 36.921708333333335c0 -3.0513333333333335 2.223333333333333 -5.599541666666667 5.267 -5.810375 1.84 -0.12841666666666668 4.188875 -0.253 7.0840000000000005 -0.3373333333333333Zm0 0A265.6979166666667 265.6979166666667 0 0 1 23 30.666666666666668c2.9344166666666665 0 5.52 0.04120833333333333 7.774 0.10733333333333334m0 -15.548c2.894166666666667 -0.08433333333333333 5.243041666666667 -0.20891666666666667 7.0840000000000005 -0.3373333333333333C40.90166666666667 14.677833333333334 43.125 12.128666666666668 43.125 9.078291666666667A6.203291666666667 6.203291666666667 0 0 0 36.921708333333335 2.875c-3.0513333333333335 0 -5.599541666666667 2.223333333333333 -5.810375 5.267a177.46895833333335 177.46895833333335 0 0 0 -0.3373333333333333 7.0840000000000005Zm0 0A265.6979166666667 265.6979166666667 0 0 0 30.666666666666668 23c0 2.9344166666666665 0.04120833333333333 5.52 0.10733333333333334 7.774m0 0c0.08433333333333333 2.894166666666667 0.20891666666666667 5.243041666666667 0.3373333333333333 7.0840000000000005 0.21083333333333334 3.0436666666666667 2.76 5.267 5.810375 5.267A6.203291666666667 6.203291666666667 0 0 0 43.125 36.921708333333335c0 -3.0513333333333335 -2.223333333333333 -5.599541666666667 -5.267 -5.810375a177.46320833333334 177.46320833333334 0 0 0 -7.0840000000000005 -0.3373333333333333Z" stroke-width="2"></path></g></svg>