<svg xmlns="http://www.w3.org/2000/svg" fill="none" viewBox="-1 -1 48 48" height="48" width="48"><g id="politics-vote-2"><path id="Rectangle 1097" stroke="#000" stroke-linecap="round" stroke-linejoin="round" d="M43.125 23.479166666666668V29.708333333333336c0 3.8592083333333336 -0.17825 6.766791666666667 -0.3814166666666667 8.826250000000002 -0.23479166666666668 2.3910416666666667 -2.1639166666666667 4.109333333333334 -4.563583333333333 4.240625 -3.08775 0.169625 -8.051916666666667 0.34979166666666667 -15.18 0.34979166666666667 -7.1280833333333335 0 -12.091291666666669 -0.18016666666666667 -15.18 -0.34979166666666667 -2.3987083333333334 -0.1312916666666667 -4.327833333333333 -1.8495833333333334 -4.563583333333333 -4.240625C3.0532500000000002 36.47416666666667 2.875 33.56754166666667 2.875 29.708333333333336l0 -6.229166666666667" stroke-width="2"></path><path id="Rectangle 1099" stroke="#000" stroke-linecap="round" stroke-linejoin="round" d="M11.5 15.41575c-1.63875 0.035458333333333335 -2.998625 0.07570833333333334 -4.0949583333333335 0.11404166666666667 -2.187875 0.07666666666666667 -4.0441666666666665 1.4787083333333333 -4.301 3.6541250000000005A36.616958333333336 36.616958333333336 0 0 0 2.875 23.4485c0 1.727875 0.09679166666666668 3.1414166666666667 0.23 4.265541666666667 0.2549166666666667 2.1754166666666666 2.109291666666667 3.5784166666666666 4.298125000000001 3.6541250000000005 3.0484583333333335 0.10637500000000001 8.138166666666669 0.227125 15.596874999999999 0.227125 7.458708333333334 0 12.548416666666666 -0.12075000000000001 15.597833333333334 -0.227125 2.187875 -0.07666666666666667 4.04225 -1.4787083333333333 4.298125000000001 -3.6541250000000005 0.13225 -1.124125 0.22904166666666667 -2.537666666666667 0.22904166666666667 -4.264583333333333a36.617916666666666 36.617916666666666 0 0 0 -0.23 -4.265541666666667c-0.2549166666666667 -2.1754166666666666 -2.1112083333333334 -3.5784166666666666 -4.299083333333333 -3.6541250000000005 -0.5098333333333334 -0.018208333333333333 -1.07525 -0.03641666666666667 -1.7000833333333334 -0.05366666666666667" stroke-width="2"></path><path id="Rectangle 1098" stroke="#000" stroke-linecap="round" stroke-linejoin="round" d="M31.625 21.135083333333334c1.0762083333333334 0.014375 1.8706666666666667 0.029708333333333333 2.402541666666667 0.04120833333333333 0.5347500000000001 0.012458333333333333 1.0417083333333332 0.2606666666666667 1.2084583333333332 0.7685833333333334 0.11979166666666667 0.3641666666666667 0.22233333333333336 0.871125 0.22233333333333336 1.5342916666666666 0 0.664125 -0.10254166666666667 1.170125 -0.22233333333333336 1.5352500000000002 -0.16674999999999998 0.5079166666666667 -0.67275 0.7570833333333334 -1.2075 0.7685833333333334 -1.486375 0.03258333333333334 -5.012083333333334 0.09200000000000001 -11.0285 0.09200000000000001 -6.015458333333334 0 -9.542125 -0.059416666666666666 -11.0285 -0.09200000000000001 -0.5347500000000001 -0.012458333333333333 -1.04075 -0.2606666666666667 -1.2075 -0.7685833333333334 -0.11979166666666667 -0.3641666666666667 -0.22233333333333336 -0.871125 -0.22233333333333336 -1.5352500000000002 0 -0.6631666666666667 0.10254166666666667 -1.1691666666666667 0.22233333333333336 -1.5342916666666666 0.16674999999999998 -0.5079166666666667 0.6737083333333334 -0.7570833333333334 1.2075 -0.7685833333333334 0.5328333333333334 -0.011500000000000002 1.3272916666666668 -0.026833333333333334 2.4035 -0.04120833333333333" stroke-width="2"></path><path id="Rectangle 1096" stroke="#000" stroke-linecap="round" stroke-linejoin="round" d="M16.5945 11.51725c-1.3704166666666666 1.4854166666666668 -1.4557083333333334 3.6493333333333333 -0.10254166666666667 5.152958333333333a56.44966666666667 56.44966666666667 0 0 0 2.055625 2.1591250000000004c0.8241666666666667 0.8232083333333333 1.543875 1.5017083333333334 2.1591250000000004 2.054666666666667 1.5045833333333334 1.3522083333333335 3.6665833333333335 1.267875 5.152958333333333 -0.10350000000000001a130.38125000000002 130.38125000000002 0 0 0 3.756666666666667 -3.6234583333333337 130.24420833333335 130.24420833333335 0 0 0 3.6225 -3.756666666666667c1.3704166666666666 -1.4873333333333334 1.4566666666666668 -3.6493333333333333 0.10350000000000001 -5.152958333333333a56.510041666666666 56.510041666666666 0 0 0 -2.056583333333333 -2.1591250000000004 56.499500000000005 56.499500000000005 0 0 0 -2.1591250000000004 -2.055625c-1.5045833333333334 -1.3522083333333335 -3.6665833333333335 -1.2669166666666667 -5.152958333333333 0.10445833333333333 -0.9679166666666668 0.8931666666666668 -2.2175833333333337 2.0834166666666665 -3.756666666666667 3.6225a130.55854166666668 130.55854166666668 0 0 0 -3.6225 3.756666666666667Z" stroke-width="2"></path></g></svg>