<svg xmlns="http://www.w3.org/2000/svg" fill="none" viewBox="-1 -1 48 48" height="48" width="48"><g id="diamond-1--diamond-money-payment-finance-wealth-jewelry"><path id="Vector 21" stroke="#000" stroke-linecap="round" stroke-linejoin="round" d="m43.010000000000005 17.26533333333333 -5.1290000000000004 -9.094583333333334A2.875 2.875 0 0 0 35.376875 6.708333333333334h-24.75375a2.875 2.875 0 0 0 -2.503166666666667 1.4624166666666667l-5.129958333333334 9.094583333333334a2.875 2.875 0 0 0 0.4705416666666667 3.445208333333334l18.184375000000003 18.184375000000003a1.9166666666666667 1.9166666666666667 0 0 0 2.710166666666667 0L42.540416666666665 20.709583333333335a2.875 2.875 0 0 0 0.47150000000000003 -3.445208333333334Z" stroke-width="2"></path><path id="Intersect" stroke="#000" stroke-linecap="round" stroke-linejoin="round" d="m17.990791666666667 6.708333333333334 -2.8328333333333333 11.250833333333334a3.8333333333333335 3.8333333333333335 0 0 0 0.1600416666666667 2.3632500000000003l7.674333333333333 19.134083333333336 0.01629166666666667 0" stroke-width="2"></path><path id="Intersect_2" stroke="#000" stroke-linecap="round" stroke-linejoin="round" d="m28.009208333333333 6.708333333333334 2.831875 11.250833333333334a3.8333333333333335 3.8333333333333335 0 0 1 -0.15908333333333335 2.3632500000000003l-7.674333333333333 19.134083333333336" stroke-width="2"></path><path id="Vector 1614" stroke="#000" stroke-linecap="round" stroke-linejoin="round" d="M2.875 19.166666666666668h40.25" stroke-width="2"></path></g></svg>