<svg xmlns="http://www.w3.org/2000/svg" fill="none" viewBox="-1 -1 48 48" height="48" width="48"><g id="ai-science-robot--atom-scientific-experiment-artificial-intelligence-ai"><path id="Rectangle 1096" stroke="#000" d="M42.961125 16.613666666666667c-0.12266666666666667 1.6464166666666666 -1.3378333333333332 2.98425 -2.9785000000000004 3.1816666666666666C38.55375 19.966875 36.65145833333333 20.125 34.5 20.125s-4.052791666666667 -0.15812500000000002 -5.4826250000000005 -0.32966666666666666c-1.6406666666666667 -0.19741666666666666 -2.8558333333333334 -1.5352500000000002 -2.9785000000000004 -3.1816666666666666 -0.08625 -1.173 -0.16387500000000002 -2.5300000000000002 -0.16387500000000002 -3.6761666666666666 0 -4.023083333333334 3.234375 -7.139583333333333 7.257458333333334 -7.180791666666667a136.31333333333336 136.31333333333336 0 0 1 2.7350833333333333 0C39.890625 5.796958333333334 43.125 8.914416666666666 43.125 12.9375c0 1.1452083333333334 -0.07666666666666667 2.503166666666667 -0.16387500000000002 3.6761666666666666Z" stroke-width="2"></path><path id="Vector 857" stroke="#000" stroke-linecap="round" stroke-linejoin="round" d="m34.5 1.9166666666666667 0 3.8333333333333335" stroke-width="2"></path><path id="Vector 858" stroke="#000" stroke-linecap="round" stroke-linejoin="round" d="m31.625 12.458333333333334 0 0.9583333333333334" stroke-width="2"></path><path id="Vector 859" stroke="#000" stroke-linecap="round" stroke-linejoin="round" d="m37.375 12.458333333333334 0 0.9583333333333334" stroke-width="2"></path><path id="Ellipse 22" stroke="#000" stroke-linecap="round" stroke-linejoin="round" d="M15.333333333333334 25.875a4.791666666666667 4.791666666666667 0 1 0 9.583333333333334 0 4.791666666666667 4.791666666666667 0 1 0 -9.583333333333334 0" stroke-width="2"></path><path id="Exclude" stroke="#000" stroke-linecap="round" stroke-linejoin="round" d="M5.197041666666667 25.875C1.4413333333333334 19.67075 0.6066250000000001 13.731 4.293333333333334 10.043333333333335c3.687666666666667 -3.6867083333333333 9.627416666666667 -2.852 15.831666666666667 0.9037083333333333 -2.7695833333333337 1.6770833333333335 -5.593791666666666 3.936833333333333 -8.292458333333334 6.6355C9.132916666666667 20.281208333333336 6.874125 23.104458333333337 5.197041666666667 25.875Zm0 0C1.4413333333333334 32.079249999999995 0.6066250000000001 38.019 4.293333333333334 41.70666666666667c3.687666666666667 3.6867083333333333 9.627416666666667 2.852 15.831666666666667 -0.9037083333333333M5.197041666666667 25.875c1.6770833333333335 2.7695833333333337 3.936833333333333 5.593791666666666 6.6355 8.292458333333334 2.6986666666666665 2.6986666666666665 5.521916666666667 4.958416666666667 8.292458333333334 6.6355m0 0c6.20425 3.7557083333333336 12.144000000000002 4.590416666666667 15.831666666666667 0.9037083333333333 3.6867083333333333 -3.687666666666667 2.852 -9.627416666666667 -0.9037083333333333 -15.831666666666667 -1.6770833333333335 2.7695833333333337 -3.936833333333333 5.593791666666666 -6.6355 8.292458333333334 -2.6986666666666665 2.6986666666666665 -5.521916666666667 4.958416666666667 -8.292458333333334 6.6355Z" stroke-width="2"></path></g></svg>