<svg xmlns="http://www.w3.org/2000/svg" fill="none" viewBox="-1 -1 48 48" height="48" width="48"><g id="pencil-square--change-document-edit-modify-paper-pencil-write-writing"><path id="Rectangle 62" stroke="#000" stroke-linecap="round" stroke-linejoin="round" d="M40.141708333333334 15.750208333333333c1.85725 -1.85725 2.5645000000000002 -4.573166666666667 0.9794166666666667 -6.67A21.62 21.62 0 0 0 39.1575 6.8425a21.605625000000003 21.605625000000003 0 0 0 -2.2386666666666666 -1.963625c-2.095875 -1.584125 -4.811791666666667 -0.8778333333333334 -6.67 0.980375L15.455041666666666 20.652083333333334c-0.5213333333333334 0.5213333333333334 -0.8787916666666667 1.1816250000000001 -0.94875 1.9157083333333336 -0.12075000000000001 1.244875 -0.23095833333333332 3.5697916666666667 0.021083333333333332 7.179833333333334a1.8591666666666666 1.8591666666666666 0 0 0 1.7240416666666667 1.7230833333333335c3.6090833333333334 0.253 5.934958333333333 0.14183333333333334 7.179833333333334 0.022041666666666668 0.733125 -0.07091666666666667 1.3943750000000001 -0.42741666666666667 1.9157083333333336 -0.94875l14.79475 -14.79475Z" stroke-width="2"></path><path id="Intersect" stroke="#000" stroke-linecap="round" stroke-linejoin="round" d="M37.899208333333334 17.991750000000003c-0.5472083333333333 -1.2122916666666665 -1.7326666666666668 -3.267916666666667 -4.178333333333334 -5.713583333333333 -2.4447083333333337 -2.445666666666667 -4.501291666666667 -3.6301666666666668 -5.713583333333333 -4.178333333333334" stroke-width="2"></path><path id="Rectangle 1096" stroke="#000" stroke-linecap="round" stroke-linejoin="round" d="M41.20162500000001 22.041666666666668c0.004791666666666667 0.6200416666666667 0.0067083333333333335 1.2582916666666666 0.0067083333333333335 1.9166666666666667 0 6.576083333333334 -0.24150000000000002 11.21825 -0.47629166666666667 14.175666666666666 -0.1945416666666667 2.4495 -2.0661666666666667 4.320166666666667 -4.514708333333334 4.51375 -2.9574166666666666 0.23575000000000002 -7.599583333333333 0.47725 -14.175666666666666 0.47725s-11.21825 -0.24150000000000002 -14.175666666666666 -0.47629166666666667c-2.4495 -0.1945416666666667 -4.320166666666667 -2.0661666666666667 -4.51375 -4.514708333333334C3.1155416666666667 35.17658333333334 2.875 30.534416666666665 2.875 23.958333333333336s0.24150000000000002 -11.21825 0.47629166666666667 -14.175666666666666C3.545833333333334 7.333166666666667 5.4165 5.4625 7.8660000000000005 5.268916666666667 10.823416666666667 5.032208333333334 15.465583333333335 4.791666666666667 22.041666666666668 4.791666666666667c0.658375 0 1.2966250000000001 0.0028750000000000004 1.9166666666666667 0.0067083333333333335" stroke-width="2"></path></g></svg>