<svg xmlns="http://www.w3.org/2000/svg" fill="none" viewBox="-1 -1 48 48" height="48" width="48"><g id="trending-content--lit-flame-torch-trending"><path id="Subtract" stroke="#000" stroke-linecap="round" stroke-linejoin="round" d="M25.20991666666667 2.9325c-1.0503333333333336 -0.29229166666666667 -1.9511666666666667 0.6104583333333333 -2.0077083333333334 1.699125 -0.1312916666666667 2.5175416666666663 -0.6229166666666667 5.333125000000001 -1.98375 7.182708333333334 -0.6564583333333334 0.8931666666666668 -1.9262499999999998 1.10975 -2.714 0.32966666666666666 -0.8720833333333334 -0.8625 -1.5448333333333335 -2.2060833333333334 -2.0585 -3.648375 -0.4552083333333333 -1.2765000000000002 -1.9914166666666666 -1.8706666666666667 -3.050375 -1.0235 -5.1797916666666675 4.146708333333334 -10.5225 10.497583333333335 -10.5225 19.051666666666666 0 11.461666666666668 9.011208333333334 16.603125 20.126916666666666 16.603125 11.116666666666667 0 20.126916666666666 -5.1414583333333335 20.126916666666666 -16.603125 0 -11.71275 -10.015541666666667 -19.294125 -15.916 -22.744125a8.442916666666667 8.442916666666667 0 0 0 -2.0010000000000003 -0.848125Z" stroke-width="2"></path><path id="Ellipse 19" stroke="#000" stroke-linecap="round" stroke-linejoin="round" d="M22.303291666666667 22.359833333333334a1.5716666666666665 1.5716666666666665 0 0 1 1.3934166666666667 0C25.585583333333336 23.28845833333333 30.666666666666668 26.24875 30.666666666666668 31.24166666666667c0 4.2339166666666666 -3.43275 6.133333333333334 -7.666666666666667 6.133333333333334s-7.666666666666667 -1.8994166666666668 -7.666666666666667 -6.133333333333334c0 -4.992916666666667 5.081083333333333 -7.9541666666666675 6.9699583333333335 -8.881833333333335Z" stroke-width="2"></path></g></svg>