<svg xmlns="http://www.w3.org/2000/svg" fill="none" viewBox="-1 -1 48 48" height="48" width="48"><g id="phone-vibrate--android-phone-mobile-device-smartphone-iphone-vibrate-mute"><path id="Vector 1470" stroke="#000" stroke-linecap="round" stroke-linejoin="round" d="m43.125 13.416666666666668 -4.866416666666667 4.055666666666667a0.9583333333333334 0.9583333333333334 0 0 0 0 1.4720000000000002l3.983791666666667 3.3196666666666665a0.9583333333333334 0.9583333333333334 0 0 1 0 1.4720000000000002l-3.983791666666667 3.3196666666666665a0.9583333333333334 0.9583333333333334 0 0 0 0 1.4720000000000002L43.12595833333333 32.583333333333336" stroke-width="2"></path><path id="Vector 1471" stroke="#000" stroke-linecap="round" stroke-linejoin="round" d="m2.875 13.416666666666668 4.866416666666667 4.055666666666667a0.9583333333333334 0.9583333333333334 0 0 1 0 1.4720000000000002l-3.9828333333333332 3.3196666666666665a0.9583333333333334 0.9583333333333334 0 0 0 0 1.4720000000000002l3.9828333333333332 3.3196666666666665a0.9583333333333334 0.9583333333333334 0 0 1 0 1.4720000000000002L2.875 32.583333333333336" stroke-width="2"></path><path id="Rectangle 1095" stroke="#000" stroke-linecap="round" stroke-linejoin="round" d="M37.047250000000005 12.458333333333334c-0.06229166666666667 -1.8447916666666668 -0.13608333333333333 -3.3733333333333335 -0.20891666666666667 -4.606708333333334 -0.140875 -2.415 -1.8907916666666669 -4.3412500000000005 -4.300041666666667 -4.572208333333333C30.319750000000003 3.066666666666667 27.126583333333336 2.875 22.836125000000003 2.875s-7.484583333333333 0.19166666666666668 -9.702166666666667 0.40441666666666665c-2.40925 0.23 -4.159166666666667 2.15625 -4.300041666666667 4.572208333333333A189.85637499999999 189.85637499999999 0 0 0 8.625 12.458333333333334m0 21.083333333333336c0.06229166666666667 1.8447916666666668 0.13704166666666667 3.3733333333333335 0.20891666666666667 4.606708333333334 0.140875 2.415 1.8907916666666669 4.3412500000000005 4.300041666666667 4.572208333333333C15.352500000000001 42.93333333333333 18.54566666666667 43.125 22.837083333333332 43.125s7.484583333333333 -0.19166666666666668 9.702166666666667 -0.40441666666666665c2.40925 -0.23 4.159166666666667 -2.15625 4.300041666666667 -4.572208333333333 0.07283333333333333 -1.2324166666666667 0.146625 -2.761916666666667 0.20891666666666667 -4.606708333333334" stroke-width="2"></path><path id="Intersect" stroke="#000" stroke-linecap="round" stroke-linejoin="round" d="m17.504916666666666 2.9919166666666666 0.3890833333333334 3.1145833333333335A2.875 2.875 0 0 0 20.746958333333335 8.625h4.507041666666667a2.875 2.875 0 0 0 2.8529583333333335 -2.5175416666666663l0.3890833333333334 -3.1145833333333335" stroke-width="2"></path><path id="Vector 1363" stroke="#000" stroke-linecap="round" d="M21.083333333333336 38.333333333333336h3.8333333333333335" stroke-width="2"></path></g></svg>