<svg xmlns="http://www.w3.org/2000/svg" fill="none" viewBox="-1 -1 48 48" height="48" width="48"><g id="cloud-data-transfer--cloud-data-transfer-internet-server-network"><path id="Union" stroke="#000" stroke-linecap="round" stroke-linejoin="round" d="M15.333333333333334 37.266708333333334c-0.5443333333333333 -0.01629166666666667 -1.0637500000000002 -0.034499999999999996 -1.5620833333333333 -0.05462500000000001C7.444333333333334 36.962916666666665 2.875 32.685875 2.875 26.354166666666668c0 -5.210458333333333 3.0935 -9.0275 7.7145833333333345 -10.356708333333334 0.5050416666666667 -6.495583333333333 4.948833333333333 -11.155000000000001 11.665791666666667 -11.202916666666667a105.01033333333334 105.01033333333334 0 0 1 1.4892500000000002 0c6.716958333333334 0.04791666666666667 11.160750000000002 4.707333333333334 11.665791666666667 11.202916666666667C40.0315 17.326666666666664 43.125 21.143708333333333 43.125 26.354166666666668c0 4.822333333333334 -2.6497916666666668 8.451541666666667 -6.708333333333334 10.019375" stroke-width="2"></path><path id="Vector 1232" stroke="#000" stroke-linecap="round" stroke-linejoin="round" d="m20.125 41.208333333333336 0 -17.25 -5.75 5.75" stroke-width="2"></path><path id="Vector 1233" stroke="#000" stroke-linecap="round" stroke-linejoin="round" d="m25.875 23.958333333333336 0 17.25 5.75 -5.75" stroke-width="2"></path></g></svg>