<svg xmlns="http://www.w3.org/2000/svg" fill="none" viewBox="-1 -1 48 48" height="48" width="48"><g id="change-background-transparent"><path id="Vector" stroke="#000" stroke-linecap="round" stroke-linejoin="round" d="m36.41666666666667 28.75 7.666666666666667 -7.666666666666667" stroke-width="2"></path><path id="Vector_2" stroke="#000" stroke-linecap="round" stroke-linejoin="round" d="m40.25 34.5 3.8333333333333335 -3.8333333333333335" stroke-width="2"></path><path id="Vector_3" stroke="#000" stroke-linecap="round" stroke-linejoin="round" d="m38.333333333333336 17.25 5.75 -5.75" stroke-width="2"></path><path id="Vector_4" stroke="#000" stroke-linecap="round" stroke-linejoin="round" d="m44.083333333333336 1.9166666666666667 -8.625 8.625" stroke-width="2"></path><path id="Vector_5" stroke="#000" stroke-linecap="round" stroke-linejoin="round" d="m34.5 1.9166666666666667 -3.8333333333333335 3.8333333333333335" stroke-width="2"></path><path id="Vector_6" stroke="#000" stroke-linecap="round" stroke-linejoin="round" d="m8.625 27.791666666666668 -6.708333333333334 6.708333333333334" stroke-width="2"></path><path id="Vector_7" stroke="#000" stroke-linecap="round" stroke-linejoin="round" d="m6.708333333333334 20.125 -4.791666666666667 4.791666666666667" stroke-width="2"></path><path id="Vector_8" stroke="#000" stroke-linecap="round" stroke-linejoin="round" d="m24.916666666666668 1.9166666666666667 -2.875 2.875" stroke-width="2"></path><path id="Vector_9" stroke="#000" stroke-linecap="round" stroke-linejoin="round" d="M15.333333333333334 1.9166666666666667 1.9166666666666667 15.333333333333334" stroke-width="2"></path><path id="Vector_10" stroke="#000" stroke-linecap="round" stroke-linejoin="round" d="M5.75 1.9166666666666667 1.9166666666666667 5.75" stroke-width="2"></path><path id="Union" stroke="#000" stroke-linecap="round" stroke-linejoin="round" d="M27.557833333333335 29.54254166666667A10.541666666666668 10.541666666666668 0 0 0 33.35958333333334 20.125c0 -5.821875 -4.719791666666667 -10.541666666666668 -10.541666666666668 -10.541666666666668s-10.541666666666668 4.719791666666667 -10.541666666666668 10.541666666666668a10.541666666666668 10.541666666666668 0 0 0 5.800791666666667 9.417541666666667c-4.807958333333334 1.6636666666666666 -8.450583333333332 5.786416666666667 -9.394541666666667 10.846416666666666 -0.30475 1.6349166666666668 0.6468750000000001 2.971791666666667 2.2961666666666667 3.1854999999999998 2.008666666666667 0.2597083333333334 5.568875 0.5088750000000001 11.83925 0.5088750000000001 6.2703750000000005 0 9.830583333333333 -0.24916666666666668 11.838291666666667 -0.5079166666666667 1.6492916666666668 -0.21466666666666667 2.601875 -1.5515416666666668 2.297125 -3.186458333333334 -0.9439583333333333 -5.0600000000000005 -4.5865833333333335 -9.18275 -9.394541666666667 -10.846416666666666Z" stroke-width="2"></path></g></svg>