<svg xmlns="http://www.w3.org/2000/svg" fill="none" viewBox="-1 -1 48 48" height="48" width="48"><g id="mail-setting--inbox-envelope-email-message-setting"><path id="Rectangle 1097" stroke="#000" stroke-linecap="round" stroke-linejoin="round" d="M39.29166666666667 19.166666666666668c0 -4.943083333333334 -0.20316666666666666 -8.744791666666668 -0.41208333333333336 -11.352416666666667 -0.20125 -2.511791666666667 -2.1581666666666663 -4.419833333333334 -4.673791666666666 -4.5808333333333335C31.386374999999997 3.0532500000000002 27.082500000000003 2.875 21.083333333333336 2.875c-6.104583333333333 0 -10.455416666666666 0.18495833333333334 -13.271958333333334 0.36800000000000005 -2.4418333333333333 0.15908333333333335 -4.344125000000001 1.9808750000000002 -4.5425 4.420791666666667C3.066666666666667 10.165041666666667 2.875 13.915000000000001 2.875 19.166666666666668s0.19166666666666668 9.001625 0.393875 11.503833333333333c0.198375 2.4389583333333333 2.09875 4.2597916666666675 4.540583333333334 4.419833333333334 2.3527083333333336 0.15333333333333335 5.775875 0.3066666666666667 10.398875000000002 0.35458333333333336" stroke-width="2"></path><path id="Intersect" stroke="#000" stroke-linecap="round" stroke-linejoin="round" d="M3.1145833333333335 13.416666666666668c1.1231666666666666 0.5088750000000001 12.814833333333334 5.75 17.96875 5.75s16.846541666666667 -5.242083333333333 17.96875 -5.75" stroke-width="2"></path><path id="Union" stroke="#000" stroke-linecap="round" stroke-linejoin="round" d="M30.799875000000004 23.256833333333336a0.554875 0.554875 0 0 1 0.25875000000000004 -0.33829166666666666c0.296125 -0.15333333333333335 0.9890000000000001 -0.39770833333333333 2.414041666666667 -0.39770833333333333 1.4240833333333334 0 2.117916666666667 0.24341666666666667 2.414041666666667 0.39770833333333333a0.554875 0.554875 0 0 1 0.25875000000000004 0.33829166666666666c0.10925000000000001 0.34020833333333333 0.33541666666666664 1.0647083333333334 0.5970416666666667 2.0125a8.285750000000002 8.285750000000002 0 0 1 1.8208333333333333 1.0704583333333333 54.885666666666665 54.885666666666665 0 0 1 2.06425 -0.49450000000000005 0.554875 0.554875 0 0 1 0.4216666666666667 0.05462500000000001c0.28175 0.18016666666666667 0.8395 0.658375 1.5525000000000002 1.89175 0.7110833333333334 1.2343333333333335 0.8471666666666667 1.9559583333333332 0.8625 2.2904166666666668a0.5558333333333333 0.5558333333333333 0 0 1 -0.16291666666666668 0.39291666666666664c-0.253 0.2769583333333333 -0.8030833333333334 0.8740000000000001 -1.5400416666666668 1.6195833333333334a8.44675 8.44675 0 0 1 -0.026833333333333334 1.9080416666666669 55.085 55.085 0 0 1 1.566875 1.6483333333333334 0.554875 0.554875 0 0 1 0.16291666666666668 0.39291666666666664c-0.014375 0.33349999999999996 -0.15045833333333333 1.0560833333333335 -0.8625 2.2904166666666668 -0.7120416666666667 1.2324166666666667 -1.2697916666666667 1.7115833333333335 -1.5515416666666668 1.8907916666666669a0.554875 0.554875 0 0 1 -0.4216666666666667 0.05558333333333334 56.474583333333335 56.474583333333335 0 0 1 -2.323958333333333 -0.5625416666666666 8.318333333333333 8.318333333333333 0 0 1 -1.480625 0.842375 55.52966666666667 55.52966666666667 0 0 1 -0.6785 2.3076666666666665 0.554875 0.554875 0 0 1 -0.25875000000000004 0.33829166666666666c-0.29708333333333337 0.15333333333333335 -0.9899583333333333 0.39770833333333333 -2.415 0.39770833333333333 -1.4240833333333334 0 -2.117916666666667 -0.24341666666666667 -2.4130833333333332 -0.39770833333333333a0.554875 0.554875 0 0 1 -0.25875000000000004 -0.33829166666666666c-0.12075000000000001 -0.3756666666666667 -0.38333333333333336 -1.2170833333333333 -0.6794583333333333 -2.3095833333333338a8.3145 8.3145 0 0 1 -1.4787083333333333 -0.8404583333333334c-1.0877083333333333 0.2875 -1.9415833333333332 0.4791666666666667 -2.325875 0.5625416666666666a0.554875 0.554875 0 0 1 -0.4216666666666667 -0.05462500000000001c-0.28175 -0.18016666666666667 -0.8395 -0.6593333333333333 -1.5525000000000002 -1.8927083333333334 -0.7110833333333334 -1.2333749999999999 -0.8471666666666667 -1.955 -0.8625 -2.289458333333333a0.5558333333333333 0.5558333333333333 0 0 1 0.16387500000000002 -0.39291666666666664 55.29583333333334 55.29583333333334 0 0 1 1.5687916666666668 -1.65025 8.418000000000001 8.418000000000001 0 0 1 -0.026833333333333334 -1.90325 54.99491666666667 54.99491666666667 0 0 1 -1.5410000000000001 -1.6234166666666667 0.5558333333333333 0.5558333333333333 0 0 1 -0.16387500000000002 -0.39291666666666664c0.014375 -0.33349999999999996 0.15045833333333333 -1.0560833333333335 0.8625 -2.289458333333333 0.7120416666666667 -1.2333749999999999 1.2697916666666667 -1.7125416666666666 1.5515416666666668 -1.89175a0.5558333333333333 0.5558333333333333 0 0 1 0.4216666666666667 -0.05462500000000001c0.353625 0.07666666666666667 1.1030416666666667 0.24533333333333335 2.0661666666666667 0.49450000000000005a8.326 8.326 0 0 1 1.8198750000000001 -1.0695000000000001c0.2625833333333334 -0.9477916666666667 0.48875 -1.6722916666666667 0.598 -2.0134583333333333Z" stroke-width="2"></path><path id="Ellipse 38" stroke="#000" stroke-linecap="round" stroke-linejoin="round" d="M30.350416666666668 32.933125000000004a3.1232083333333334 3.1232083333333334 0 1 0 6.246416666666667 0 3.1232083333333334 3.1232083333333334 0 1 0 -6.246416666666667 0" stroke-width="2"></path></g></svg>