<svg xmlns="http://www.w3.org/2000/svg" fill="none" viewBox="-1 -1 48 48" height="48" width="48"><g id="cog-automation"><path id="Union" stroke="#000" stroke-linecap="round" stroke-linejoin="round" d="M18.359750000000002 4.18025c0.11020833333333334 -0.23 0.2692916666666667 -0.43220833333333336 0.4954583333333334 -0.5510416666666667 0.5366666666666667 -0.28175 1.790166666666667 -0.7542083333333334 4.14575 -0.7542083333333334 2.3555833333333336 0 3.6081250000000002 0.47245833333333337 4.144791666666667 0.7542083333333334 0.22616666666666665 0.11883333333333333 0.38525000000000004 0.3210416666666667 0.49641666666666673 0.5510416666666667 0.3210416666666667 0.6708333333333333 1.0369166666666667 2.2175833333333337 1.5745416666666667 3.756666666666667a16.274416666666667 16.274416666666667 0 0 1 3.716416666666667 2.1485833333333333c1.6023333333333334 -0.3037916666666667 3.3033750000000004 -0.457125 4.046083333333334 -0.514625 0.25395833333333334 -0.01916666666666667 0.5088750000000001 0.017249999999999998 0.7245 0.15333333333333335 0.5127083333333334 0.324875 1.5486666666666669 1.173 2.7255 3.213291666666667 1.17875 2.0402916666666666 1.3953333333333333 3.360875 1.42025 3.9675 0.009583333333333334 0.2549166666666667 -0.08529166666666667 0.4935416666666667 -0.23 0.704375 -0.42070833333333335 0.6142916666666667 -1.403 2.009625 -2.4667499999999998 3.244916666666667a16.442125 16.442125 0 0 1 0 4.291416666666667c1.0637500000000002 1.23625 2.0460416666666665 2.630625 2.4667499999999998 3.244916666666667 0.14375 0.21083333333333334 0.23958333333333334 0.45041666666666663 0.23 0.704375 -0.024916666666666667 0.6066250000000001 -0.24245833333333336 1.9272083333333336 -1.42025 3.9675 -1.1777916666666668 2.0402916666666666 -2.21375 2.8884166666666666 -2.7255 3.213291666666667 -0.215625 0.13608333333333333 -0.46958333333333335 0.1725 -0.7254583333333333 0.15333333333333335 -0.7427083333333334 -0.0575 -2.442791666666667 -0.21083333333333334 -4.0441666666666665 -0.514625a16.270583333333335 16.270583333333335 0 0 1 -3.716416666666667 2.1495416666666665c-0.5385833333333334 1.538125 -1.2544583333333332 3.0839166666666666 -1.5755 3.756666666666667 -0.11116666666666668 0.23 -0.27025 0.43125 -0.49641666666666673 0.5500833333333333 -0.5366666666666667 0.28175 -1.7892083333333333 0.7542083333333334 -4.144791666666667 0.7542083333333334s-3.6081250000000002 -0.47245833333333337 -4.14575 -0.7542083333333334c-0.22616666666666665 -0.11883333333333333 -0.38525000000000004 -0.3200833333333334 -0.4954583333333334 -0.5510416666666667 -0.3210416666666667 -0.6708333333333333 -1.037875 -2.2175833333333337 -1.5755 -3.756666666666667a16.277291666666667 16.277291666666667 0 0 1 -3.716416666666667 -2.1485833333333333c-1.6023333333333334 0.3037916666666667 -3.302416666666667 0.457125 -4.0441666666666665 0.514625 -0.2549166666666667 0.01916666666666667 -0.5098333333333334 -0.017249999999999998 -0.7254583333333333 -0.15333333333333335 -0.5127083333333334 -0.324875 -1.5486666666666669 -1.173 -2.7264583333333334 -3.213291666666667 -1.1777916666666668 -2.0402916666666666 -1.3943750000000001 -3.360875 -1.4183333333333334 -3.9675 -0.011500000000000002 -0.2549166666666667 0.08433333333333333 -0.4935416666666667 0.22904166666666667 -0.704375 0.42070833333333335 -0.6142916666666667 1.403 -2.009625 2.4667499999999998 -3.244916666666667a16.444041666666667 16.444041666666667 0 0 1 0 -4.291416666666667c-1.0637500000000002 -1.23625 -2.0460416666666665 -2.630625 -2.4677083333333334 -3.244916666666667 -0.14375 -0.21083333333333334 -0.23958333333333334 -0.45041666666666663 -0.23 -0.704375 0.025875000000000002 -0.6066250000000001 0.24245833333333336 -1.9272083333333336 1.42025 -3.9675 1.17875 -2.0402916666666666 2.21375 -2.8884166666666666 2.7255 -3.213291666666667 0.21658333333333335 -0.13608333333333333 0.4705416666666667 -0.1725 0.7254583333333333 -0.15333333333333335 0.7427083333333334 0.0575 2.44375 0.21083333333333334 4.0451250000000005 0.514625a16.271541666666668 16.271541666666668 0 0 1 3.716416666666667 -2.1495416666666665c0.537625 -1.538125 1.2544583333333332 -3.084875 1.5755 -3.756666666666667Z" stroke-width="2"></path><path id="Rectangle 128" stroke="#000" stroke-linecap="round" stroke-linejoin="round" d="M17.109125000000002 18.08758333333333c0.23958333333333334 -1.6579166666666667 1.7010416666666666 -2.6009166666666665 3.263125 -1.9971666666666668 1.0963333333333334 0.4245416666666667 2.5740833333333333 1.0857916666666667 4.516625 2.117916666666667 1.85725 0.9870833333333334 3.289 1.860125 4.37 2.582708333333333 1.68475 1.1260416666666668 1.68475 3.291875 0 4.417916666666667 -1.081 0.7225833333333334 -2.51275 1.595625 -4.37 2.582708333333333 -1.9425416666666668 1.032125 -3.420291666666667 1.693375 -4.516625 2.117916666666667 -1.5620833333333333 0.60375 -3.0235416666666666 -0.33925 -3.263125 -1.9971666666666668A34.492333333333335 34.492333333333335 0 0 1 16.770833333333336 23c0 -1.9914166666666666 0.15620833333333334 -3.65125 0.33829166666666666 -4.912416666666667Z" stroke-width="2"></path></g></svg>