<svg xmlns="http://www.w3.org/2000/svg" fill="none" viewBox="-1 -1 48 48" height="48" width="48"><g id="deepfake-technology-1--automated-face-head-fake-generated-artificial-intelligence-ai"><path id="Union" stroke="#000" stroke-linecap="round" stroke-linejoin="round" d="M30.666666666666668 42.645833333333336v-4.947875000000001l4.4735000000000005 0.7542083333333334a2.875 2.875 0 0 0 3.3426666666666667 -2.5932500000000003l0.5500833333333333 -6.528166666666667c1.772916666666667 -0.39770833333333333 3.0475000000000003 -1.0388333333333335 3.874541666666667 -1.5735833333333333 0.74175 -0.4791666666666667 0.8280000000000001 -1.4470833333333335 0.33349999999999996 -2.17925l-3.97325 -5.881291666666667C38.79620833333333 10.856 31.478375000000003 3.8333333333333335 22.520833333333336 3.8333333333333335v38.8125" stroke-width="2"></path><path id="Ellipse 1522" stroke="#000" d="M2.875 23a2.875 2.875 0 1 0 5.75 0 2.875 2.875 0 1 0 -5.75 0" stroke-width="2"></path><path id="Ellipse 1523" stroke="#000" d="M7.666666666666667 8.625a2.875 2.875 0 1 0 5.75 0 2.875 2.875 0 1 0 -5.75 0" stroke-width="2"></path><path id="Ellipse 1524" stroke="#000" d="M6.708333333333334 38.333333333333336a2.875 2.875 0 1 0 5.75 0 2.875 2.875 0 1 0 -5.75 0" stroke-width="2"></path><path id="Vector 2716" stroke="#000" stroke-linecap="round" stroke-linejoin="round" d="M8.625 23h13.895833333333334" stroke-width="2"></path><path id="Vector 2718" stroke="#000" stroke-linecap="round" stroke-linejoin="round" d="M22.520833333333336 15.333333333333334H17.25l-4.3125 -4.3125" stroke-width="2"></path><path id="Vector 2719" stroke="#000" stroke-linecap="round" stroke-linejoin="round" d="M22.520833333333336 31.625H16.291666666666668l-4.3125 4.3125" stroke-width="2"></path></g></svg>