<svg xmlns="http://www.w3.org/2000/svg" fill="none" viewBox="-1 -1 48 48" height="48" width="48"><g id="crop-selection--artboard-crop-design-image-picture"><path id="Union" fill-rule="evenodd" stroke="#000" stroke-linecap="round" stroke-linejoin="round" d="m11.272875 18.467083333333335 -0.16387500000000002 10.495666666666667a5.838166666666667 5.838166666666667 0 0 0 5.92825 5.92825l10.495666666666667 -0.16291666666666668 0.12170833333333334 5.85925c0.021083333333333332 1.0043333333333335 0.45425 1.9827916666666667 1.417375 2.2683750000000003 0.5127083333333334 0.15333333333333335 1.17875 0.2692916666666667 2.0220833333333332 0.2692916666666667 0.8347083333333334 0 1.497875 -0.115 2.008666666666667 -0.26545833333333335 0.9698333333333334 -0.28654166666666664 1.4049166666666666 -1.2726666666666668 1.4212083333333334 -2.2837083333333332l0.09295833333333334 -5.958916666666667 6.647958333333333 -0.10445833333333333c0.5845833333333333 -0.009583333333333334 1.173 -0.18016666666666667 1.4164166666666667 -0.710125 0.22808333333333333 -0.4992916666666667 0.44370833333333337 -1.3349583333333335 0.44370833333333337 -2.709208333333333 0 -1.3838333333333332 -0.21850000000000003 -2.2204583333333336 -0.44850000000000007 -2.718791666666667 -0.24245833333333336 -0.5232500000000001 -0.8241666666666667 -0.692875 -1.400125 -0.7053333333333334l-6.54925 -0.13608333333333333 0.16387500000000002 -10.495666666666667a5.838166666666667 5.838166666666667 0 0 0 -5.92825 -5.92825l-10.495666666666667 0.16291666666666668 -0.12170833333333334 -5.85925c-0.021083333333333332 -1.0043333333333335 -0.45425 -1.9827916666666667 -1.417375 -2.2683750000000003 -0.5127083333333334 -0.15333333333333335 -1.17875 -0.2692916666666667 -2.0220833333333332 -0.2692916666666667 -0.8347083333333334 0 -1.497875 0.115 -2.009625 0.26545833333333335 -0.9698333333333334 0.28654166666666664 -1.4039583333333334 1.2726666666666668 -1.42025 2.2837083333333332l-0.09295833333333334 5.958916666666667 -6.647958333333333 0.10445833333333333c-0.5845833333333333 0.009583333333333334 -1.173 0.18016666666666667 -1.4164166666666667 0.710125C3.090625 12.697916666666668 2.875 13.532625000000001 2.875 14.906875c0 1.3838333333333332 0.21850000000000003 2.2204583333333336 0.44850000000000007 2.718791666666667 0.24245833333333336 0.5232500000000001 0.8241666666666667 0.692875 1.400125 0.7053333333333334l6.54925 0.13608333333333333Zm7.5066250000000005 7.800833333333334c0.010541666666666666 0.5213333333333334 0.43125 0.9420416666666667 0.9525833333333333 0.9525833333333333l7.647500000000001 0.15908333333333335 -0.15908333333333335 -7.647500000000001a0.9727083333333333 0.9727083333333333 0 0 0 -0.9525833333333333 -0.9525833333333333l-7.647500000000001 -0.15908333333333335 0.15908333333333335 7.647500000000001Z" clip-rule="evenodd" stroke-width="2"></path></g></svg>