<svg xmlns="http://www.w3.org/2000/svg" fill="none" viewBox="-1 -1 48 48" height="48" width="48"><g id="ai-generate-voice-robot-2--mic-audio-mike-microphone-artificial-intelligence-ai"><path id="Rectangle 1096" stroke="#000" d="M43.91945833333334 16.613666666666667c-0.12266666666666667 1.6464166666666666 -1.3378333333333332 2.98425 -2.9785000000000004 3.1816666666666666C39.51208333333333 19.966875 37.609791666666666 20.125 35.458333333333336 20.125s-4.052791666666667 -0.15812500000000002 -5.4826250000000005 -0.32966666666666666c-1.6406666666666667 -0.19741666666666666 -2.8558333333333334 -1.5352500000000002 -2.9785000000000004 -3.1816666666666666 -0.08625 -1.173 -0.16387500000000002 -2.5300000000000002 -0.16387500000000002 -3.6761666666666666 0 -4.023083333333334 3.234375 -7.139583333333333 7.257458333333334 -7.180791666666667a136.31333333333336 136.31333333333336 0 0 1 2.7350833333333333 0C40.848958333333336 5.796958333333334 44.083333333333336 8.914416666666666 44.083333333333336 12.9375c0 1.1452083333333334 -0.07666666666666667 2.503166666666667 -0.16387500000000002 3.6761666666666666Z" stroke-width="2"></path><path id="Vector 857" stroke="#000" stroke-linecap="round" stroke-linejoin="round" d="m35.458333333333336 1.9166666666666667 0 3.8333333333333335" stroke-width="2"></path><path id="Vector 858" stroke="#000" stroke-linecap="round" stroke-linejoin="round" d="m32.583333333333336 12.458333333333334 0 0.9583333333333334" stroke-width="2"></path><path id="Vector 859" stroke="#000" stroke-linecap="round" stroke-linejoin="round" d="m38.333333333333336 12.458333333333334 0 0.9583333333333334" stroke-width="2"></path><path id="Union" stroke="#000" stroke-linejoin="round" d="M20.800625 40.98983333333334c6.71025 -1.1423333333333334 11.935083333333335 -6.645083333333334 12.65575 -13.489500000000001 0.10541666666666667 -1.0043333333333335 -0.45137499999999997 -1.955 -1.43175 -2.200333333333333a7.979083333333334 7.979083333333334 0 0 0 -2.4562083333333335 -0.215625c-1.0675833333333336 0.06995833333333333 -1.7470416666666666 1.0570416666666667 -1.9367916666666667 2.11025C26.7835 31.893333333333334 22.67320833333333 35.458333333333336 17.729166666666668 35.458333333333336c-4.970875 0 -9.100333333333333 -3.6052500000000003 -9.915875 -8.34325 -0.175375 -1.0158333333333334 -0.8097916666666667 -1.9780000000000002 -1.84 -2.0364583333333335a8.378708333333334 8.378708333333334 0 0 0 -2.3785833333333337 0.22425000000000003c-1.0599166666666668 0.25012500000000004 -1.7010416666666666 1.2640416666666667 -1.5764583333333335 2.346 0.74175 6.44 5.474958333333333 11.66675 11.662916666666668 13.141625 0.059416666666666666 0.4331666666666667 0.12937500000000002 0.871125 0.21179166666666668 1.3234583333333334 0.198375 1.0886666666666667 1.060875 1.9013333333333333 2.165833333333333 1.9463750000000002a30.264166666666664 30.264166666666664 0 0 0 2.383375 0c1.1059166666666667 -0.04504166666666667 1.9674583333333333 -0.8577083333333334 2.1706250000000002 -1.9454166666666666 0.071875 -0.3842916666666667 0.13416666666666668 -0.7570833333333334 0.18783333333333335 -1.1250833333333332Z" stroke-width="2"></path><path id="Vector" stroke="#000" stroke-linecap="round" stroke-linejoin="round" d="M17.729166666666668 35.458333333333336C12.171791666666667 35.458333333333336 7.666666666666667 30.953208333333333 7.666666666666667 25.395833333333336v-8.625C7.666666666666667 11.213458333333334 12.171791666666667 6.708333333333334 17.729166666666668 6.708333333333334c1.7345833333333334 0 3.366625 0.4389166666666667 4.791666666666667 1.2122916666666665" stroke-width="2"></path></g></svg>