<svg xmlns="http://www.w3.org/2000/svg" fill="none" viewBox="-1 -1 48 48" height="48" width="48"><g id="visual-blind--disability-visual-blind"><path id="Intersect" stroke="#000" stroke-linecap="round" stroke-linejoin="round" d="M2.2041666666666666 23.863458333333334a3.22575 3.22575 0 0 1 0 -1.7269166666666669C4.676666666666667 13.239375 12.835916666666668 6.708333333333334 22.520833333333336 6.708333333333334s17.84416666666667 6.530083333333334 20.316666666666666 15.428208333333334c0.15620833333333334 0.5654166666666667 0.15620833333333334 1.1615 0 1.7269166666666669C40.365 32.75966666666667 32.20575 39.29166666666667 22.520833333333336 39.29166666666667S4.676666666666667 32.761583333333334 2.2041666666666666 23.863458333333334Z" stroke-width="2"></path><path id="Ellipse 18" stroke="#000" stroke-linecap="round" stroke-linejoin="round" d="M12.9375 23a9.583333333333334 9.583333333333334 0 1 0 19.166666666666668 0 9.583333333333334 9.583333333333334 0 1 0 -19.166666666666668 0" stroke-width="2"></path><path id="Vector 1316" stroke="#000" stroke-linecap="round" stroke-linejoin="round" d="m18.6875 19.166666666666668 7.666666666666667 7.666666666666667" stroke-width="2"></path><path id="Vector 1317" stroke="#000" stroke-linecap="round" stroke-linejoin="round" d="m26.354166666666668 19.166666666666668 -7.666666666666667 7.666666666666667" stroke-width="2"></path></g></svg>