<svg xmlns="http://www.w3.org/2000/svg" fill="none" viewBox="-1 -1 48 48" height="48" width="48"><g id="fork-knife--fork-spoon-knife-food-dine-cook-utensils-eat-restaurant-dining-kitchenware"><path id="Union" stroke="#000" stroke-linecap="round" stroke-linejoin="round" d="M30.866958333333336 3.008208333333333c3.68 2.7331666666666665 8.823375 10.268541666666668 9.340875 21.905583333333336 0.05366666666666667 1.204625 -0.5328333333333334 2.346 -1.62725 2.853916666666667 -0.7810416666666666 0.36225 -1.8371250000000001 0.7743333333333334 -3.167291666666667 1.1250833333333332a0.9890000000000001 0.9890000000000001 0 0 0 -0.7379166666666667 1.0877083333333333l1.1749166666666666 8.220583333333334c0.32583333333333336 2.2837083333333332 -0.5682916666666666 4.32975 -2.7935416666666666 4.942125 -2.0795833333333333 0.5730833333333333 -4.30675 -0.8088333333333333 -4.30675 -2.967V4.318250000000001c0 -1.2305000000000001 1.1289166666666666 -2.043166666666667 2.1169583333333333 -1.3100416666666668Z" stroke-width="2"></path><path id="Union_2" stroke="#000" stroke-linecap="round" stroke-linejoin="round" d="M21.030625 5.1347499999999995c0.44083333333333335 2.60475 1.058 7.155875 1.0081666666666667 12.015583333333334 -0.024916666666666667 2.5079583333333333 -1.7000833333333334 4.75525 -4.333583333333333 5.345583333333334 -0.5443333333333333 0.12170833333333334 -1.124125 0.23191666666666666 -1.7297916666666666 0.31720833333333337l1.7671666666666668 15.314166666666667c0.26833333333333337 2.3306666666666667 -1.1749166666666666 4.616291666666667 -3.4998333333333336 4.930625A6.392083333333334 6.392083333333334 0 0 1 13.416666666666668 43.125c-0.232875 0 -0.5155833333333334 -0.024916666666666667 -0.8270416666666667 -0.06708333333333334 -2.323958333333333 -0.31433333333333335 -3.7672083333333335 -2.5999583333333334 -3.497916666666667 -4.930625l1.7662083333333334 -15.314166666666667a21.988958333333333 21.988958333333333 0 0 1 -1.7288333333333334 -0.31625000000000003c-2.6344583333333333 -0.5912916666666667 -4.3096250000000005 -2.839541666666667 -4.335500000000001 -5.3475 -0.048875 -4.858750000000001 0.566375 -9.408916666666666 1.0072083333333333 -12.013666666666667C6.025041666666667 3.808416666666667 7.186541666666667 2.875 8.532041666666668 2.875h9.767333333333333c1.3464583333333333 0 2.507 0.9324583333333334 2.73125 2.2597500000000004Z" stroke-width="2"></path><path id="Vector 1020" stroke="#000" stroke-linecap="round" stroke-linejoin="round" d="M11.020833333333334 2.875 10.541666666666668 13.416666666666668" stroke-width="2"></path><path id="Vector 1021" stroke="#000" stroke-linecap="round" stroke-linejoin="round" d="m15.8125 2.875 0.4791666666666667 10.541666666666668" stroke-width="2"></path></g></svg>