<svg xmlns="http://www.w3.org/2000/svg" fill="none" viewBox="-1 -1 48 48" height="48" width="48"><g id="airport-security"><path id="Rectangle 112" stroke="#000" stroke-linecap="round" stroke-linejoin="round" d="M3.533375 7.476916666666667c0.19166666666666668 -1.6579166666666667 1.1979166666666667 -3.0264166666666665 2.8270833333333334 -3.38675C8.901958333333333 3.527625 13.82875 2.875 23 2.875s14.097083333333334 0.6526250000000001 16.639541666666666 1.2151666666666667c1.6291666666666667 0.36033333333333334 2.635416666666667 1.7288333333333334 2.8270833333333334 3.38675 0.29133333333333333 2.507 0.658375 6.6355 0.658375 11.498083333333334 0 9.085 -4.794541666666667 17.585416666666667 -12.872333333333334 21.742666666666665C27.554 42.10725 24.9205 43.125 23 43.125c-1.9205 0 -4.554 -1.0187083333333333 -7.252666666666666 -2.4073333333333333C7.669541666666667 36.56041666666667 2.875 28.060000000000002 2.875 18.975c0 -4.862583333333333 0.3670416666666667 -8.991083333333334 0.658375 -11.498083333333334Z" stroke-width="2"></path><path id="Union" stroke="#000" stroke-linecap="round" stroke-linejoin="round" d="M8.76875 19.45225a66.83608333333333 66.83608333333333 0 0 0 3.5765000000000002 6.747625c0.5069583333333334 0.8212916666666666 1.440375 1.1624583333333334 2.310541666666667 0.8759166666666668 1.6646250000000002 -0.54625 3.687666666666667 -1.7058333333333335 7.2287083333333335 -3.0139583333333335 -0.31625000000000003 1.9166666666666667 -0.5433749999999999 3.7959583333333335 -0.681375 5.07725 -0.09583333333333334 0.8922083333333334 0.5337916666666668 1.6866666666666668 1.3426250000000002 1.50075 0.7139583333333334 -0.16387500000000002 2.3699583333333334 -1.2458333333333333 2.8500833333333335 -1.50075 0.6372916666666667 -0.33925 1.1020833333333333 -0.9391666666666667 1.3991666666666667 -1.63875a71.20416666666667 71.20416666666667 0 0 0 2.424583333333333 -6.685333333333333c2.4178750000000004 -0.980375 4.5616666666666665 -1.5946666666666667 6.943125 -2.7120833333333336 1.1595833333333334 -0.5433749999999999 1.6109583333333335 -2.0450833333333334 0.8030833333333334 -3.098291666666667 -1.1643750000000002 -1.5170416666666666 -3.050375 -3.335958333333333 -5.477833333333334 -3.49025 -5.247833333333333 -0.3344583333333333 -10.883791666666667 5.282333333333333 -15.432041666666668 7.981958333333334 0 0 -1.7556666666666667 -1.5563333333333336 -3.7106666666666666 -2.895125 -0.28270833333333334 -0.19358333333333336 -0.6200416666666667 -0.2692916666666667 -0.9439583333333333 -0.17729166666666668 -0.34979166666666667 0.09966666666666667 -1.5544166666666668 0.8720833333333334 -2.112166666666667 1.1691666666666667 -0.6315416666666667 0.33541666666666664 -0.8299166666666666 1.1749166666666666 -0.520375 1.8591666666666666Z" stroke-width="2"></path></g></svg>