<svg xmlns="http://www.w3.org/2000/svg" fill="none" viewBox="-1 -1 48 48" height="48" width="48"><g id="braille-blind--disability-braille-blind"><path id="Union" stroke="#000" stroke-linecap="round" stroke-linejoin="round" d="M31.172666666666668 43.125a23.436041666666664 23.436041666666664 0 0 0 2.8251666666666666 -12.220666666666668c-0.09583333333333334 -2.1294166666666667 -1.4882916666666666 -3.9330000000000003 -3.510375 -4.609583333333333 -4.190791666666667 -1.3991666666666667 -8.087375 -1.3991666666666667 -8.087375 -1.3991666666666667 0 -1.733625 -0.27025 -5.689625 -0.4638333333333333 -8.303 -0.11308333333333333 -1.520875 -1.1260416666666668 -2.8500833333333335 -2.636375 -3.0628333333333337 -0.4791666666666667 -0.06708333333333334 -0.991875 -0.11308333333333333 -1.5065000000000002 -0.11308333333333333 -0.5175000000000001 0 -1.0330833333333334 0.046000000000000006 -1.51225 0.115 -1.497875 0.21275000000000002 -2.502208333333334 1.5285416666666667 -2.6028333333333338 3.037916666666667a213.08541666666667 213.08541666666667 0 0 0 -0.47245833333333337 13.727166666666667s-1.6406666666666667 -1.285125 -4.159166666666667 -2.831875c-1.2966250000000001 -0.7954166666666667 -2.966041666666667 -0.8577083333333334 -3.953125 0.30091666666666667a7.5756250000000005 7.5756250000000005 0 0 0 -1.5045833333333334 2.8328333333333333c-0.19262500000000002 0.6660416666666666 -0.03641666666666667 1.3704166666666666 0.34979166666666667 1.9454166666666666C5.346541666666667 34.64183333333334 9.136750000000001 39.93279166666667 13.549875 43.125" stroke-width="2"></path><path id="Ellipse 575" stroke="#000" stroke-linecap="round" stroke-linejoin="round" d="M2.875 15.333333333333334a2.875 2.875 0 1 0 5.75 0 2.875 2.875 0 1 0 -5.75 0" stroke-width="2"></path><g id="Group 730"><path id="Ellipse 576" stroke="#000" stroke-linecap="round" stroke-linejoin="round" d="M26.833333333333336 15.333333333333334a2.875 2.875 0 1 0 5.75 0 2.875 2.875 0 1 0 -5.75 0" stroke-width="2"></path><path id="Ellipse 577" stroke="#000" stroke-linecap="round" stroke-linejoin="round" d="M43.125 15.333333333333334a2.875 2.875 0 1 1 -5.75 0 2.875 2.875 0 1 1 5.75 0" stroke-width="2"></path><path id="Ellipse 578" stroke="#000" stroke-linecap="round" stroke-linejoin="round" d="M43.125 5.75a2.875 2.875 0 1 1 -5.75 0 2.875 2.875 0 1 1 5.75 0" stroke-width="2"></path></g><path id="Ellipse 574" stroke="#000" stroke-linecap="round" stroke-linejoin="round" d="M14.854166666666668 5.75a2.875 2.875 0 1 0 5.75 0 2.875 2.875 0 1 0 -5.75 0" stroke-width="2"></path></g></svg>