<svg xmlns="http://www.w3.org/2000/svg" fill="none" viewBox="-1 -1 48 48" height="48" width="48"><g id="water-melon--cook-plant-plants-cooking-nutrition-watermelon-fruit-vegetarian-food"><path id="Ellipse 261" stroke="#000" stroke-linecap="round" stroke-linejoin="round" d="M36.219249999999995 36.219249999999995c-8.626916666666668 8.627875000000001 -22.276458333333334 9.17125 -31.537791666666667 1.6320416666666668 -1.089625 -0.8874166666666667 -1.1940833333333334 -2.458125 -0.30283333333333334 -3.5448749999999998 2.05275 -2.50125 6.422750000000001 -7.528666666666667 14.410458333333334 -15.517333333333335C26.776791666666668 10.801375000000002 31.805166666666672 6.432333333333333 34.30641666666667 4.379583333333334c1.0857916666666667 -0.8912500000000001 2.6574583333333335 -0.7867916666666667 3.5448749999999998 0.30283333333333334 7.539208333333334 9.260375 6.995833333333334 22.909916666666668 -1.6320416666666668 31.536833333333337Z" stroke-width="2"></path><path id="Intersect" stroke="#000" stroke-linecap="round" d="M31.670041666666666 6.616333333333333A17.68125 17.68125 0 0 1 37.375 19.645833333333336C37.375 29.437124999999998 29.437124999999998 37.375 19.645833333333336 37.375a17.68125 17.68125 0 0 1 -13.028541666666667 -5.705916666666667" stroke-width="2"></path><path id="Vector 1413" stroke="#000" stroke-linecap="round" stroke-linejoin="round" d="m27.791666666666668 26.833333333333336 0.9583333333333334 0.9583333333333334" stroke-width="2"></path><path id="Vector 1414" stroke="#000" stroke-linecap="round" stroke-linejoin="round" d="m29.197541666666666 16.95579166666667 0.8941250000000001 0.8950833333333335" stroke-width="2"></path><path id="Vector 1415" stroke="#000" stroke-linecap="round" stroke-linejoin="round" d="m17.317083333333333 28.83625 0.8950833333333335 0.8941250000000001" stroke-width="2"></path></g></svg>