<svg xmlns="http://www.w3.org/2000/svg" fill="none" viewBox="-1 -1 48 48" height="48" width="48"><g id="script-2--language-programming-code"><path id="Vector" stroke="#000" stroke-linecap="round" stroke-linejoin="round" d="M6.708333333333334 34.83829166666667c0.35458333333333336 5.908125 -2.3958333333333335 7.103166666666667 -3.8333333333333335 7.103166666666667C2.875 41.94145833333334 9.104166666666668 43.125 18.208333333333336 43.125c4.298125000000001 0 7.955125000000001 -0.2635416666666667 10.618333333333334 -0.5424166666666667 2.7475416666666668 -0.2875 4.724583333333333 -2.6402083333333333 4.647916666666666 -5.401166666666667 -0.22904166666666667 -8.2455 -0.9832500000000001 -15.321833333333334 -1.3301666666666667 -24.72308333333333 -0.10733333333333334 -2.9325 0 -8.625 4.2722500000000005 -9.583333333333334L11.5 2.875C8.324083333333334 2.875 5.754791666666667 5.445250000000001 5.797916666666667 8.620208333333332c0.08337499999999999 6.072000000000001 0.3066666666666667 16.145041666666668 0.9104166666666667 26.218083333333336Z" stroke-width="2"></path><path id="Subtract" stroke="#000" stroke-linecap="round" stroke-linejoin="round" d="m36.41666666666667 2.875 0.9583333333333334 0c2.875 0 5.75 2.1035416666666666 5.75 5.843916666666667v0.621c0 1.290875 -0.8663333333333334 2.39775 -2.143791666666667 2.577916666666667 -1.7470416666666666 0.24533333333333335 -4.621083333333334 0.5175000000000001 -8.836791666666667 0.5395416666666666" stroke-width="2"></path><path id="Vector 1679" stroke="#000" stroke-linecap="round" d="M16.291666666666668 12.458333333333334h9.583333333333334" stroke-width="2"></path><path id="Vector 1680" stroke="#000" stroke-linecap="round" d="m12.458333333333334 19.166666666666668 13.416666666666668 0" stroke-width="2"></path><path id="Vector 1681" stroke="#000" stroke-linecap="round" d="m12.9375 25.875 13.416666666666668 0" stroke-width="2"></path><path id="Vector 1682" stroke="#000" stroke-linecap="round" d="m13.416666666666668 32.583333333333336 13.416666666666668 0" stroke-width="2"></path></g></svg>