<svg xmlns="http://www.w3.org/2000/svg" fill="none" viewBox="-1 -1 48 48" height="48" width="48"><g id="arrow-right-circle-2"><path id="Ellipse 19" stroke="#000" stroke-linecap="round" stroke-linejoin="round" d="M43.125 23a20.125 20.125 0 1 1 -40.25 0 20.125 20.125 0 1 1 40.25 0" stroke-width="2"></path><path id="Rectangle 57" stroke="#000" stroke-linecap="round" stroke-linejoin="round" d="M33.50333333333334 14.432500000000001c1.0589583333333334 0.09870833333333333 1.716375 0.94875 1.7882500000000001 2.009625 0.08337499999999999 1.2333749999999999 0.16674999999999998 3.2842083333333334 0.16674999999999998 6.557875s-0.08337499999999999 5.3245000000000005 -0.16674999999999998 6.557875c-0.071875 1.0599166666666668 -0.7292916666666667 1.9109166666666668 -1.7872916666666667 2.008666666666667 -0.3814166666666667 0.035458333333333335 -0.8433333333333334 0.058458333333333334 -1.400125 0.058458333333333334 -0.5558333333333333 0 -1.0187083333333333 -0.023000000000000003 -1.3991666666666667 -0.0575 -1.0589583333333334 -0.09870833333333333 -1.716375 -0.94875 -1.7882500000000001 -2.009625C28.833375 28.3245 28.75 26.273666666666667 28.75 23s0.08337499999999999 -5.3245000000000005 0.16674999999999998 -6.557875c0.071875 -1.0599166666666668 0.7292916666666667 -1.9109166666666668 1.7872916666666667 -2.008666666666667 0.3814166666666667 -0.035458333333333335 0.8433333333333334 -0.058458333333333334 1.400125 -0.058458333333333334 0.5558333333333333 0 1.0187083333333333 0.023000000000000003 1.3991666666666667 0.0575Z" stroke-width="2"></path><path id="Union" stroke="#000" stroke-linecap="round" stroke-linejoin="round" d="M20.764208333333336 31.699750000000005c-0.9842083333333332 0.6535833333333334 -2.1169583333333333 0.042166666666666665 -2.21375 -1.1346666666666667 -0.07666666666666667 -0.9353333333333333 -0.15333333333333335 -2.189791666666667 -0.20316666666666666 -3.805541666666667a162.97033333333334 162.97033333333334 0 0 1 -5.906208333333334 -0.24725000000000003c-1.495 -0.09104166666666667 -2.7485 -1.1020833333333333 -2.831875 -2.5970833333333334a16.398041666666668 16.398041666666668 0 0 1 0 -1.8294583333333334c0.08337499999999999 -1.495 1.336875 -2.506041666666667 2.831875 -2.5970833333333334 1.4432500000000001 -0.08816666666666667 3.4662916666666668 -0.18783333333333335 5.906208333333334 -0.24725000000000003 0.049833333333333334 -1.61575 0.1265 -2.8692500000000005 0.20316666666666666 -3.804583333333334 0.09679166666666668 -1.1777916666666668 1.2305000000000001 -1.7882500000000001 2.21375 -1.1346666666666667 0.9353333333333333 0.621 2.2051250000000002 1.566875 3.8074583333333334 2.9804166666666667 1.8639583333333334 1.6464166666666666 3.0053333333333336 3.042708333333333 3.6867083333333333 4.0441666666666665a2.928666666666667 2.928666666666667 0 0 1 0 3.3474583333333334c-0.681375 1.0014583333333333 -1.82275 2.39775 -3.6867083333333333 4.0441666666666665 -1.6023333333333334 1.4145 -2.872125 2.3603750000000003 -3.8074583333333334 2.9813750000000003Z" stroke-width="2"></path></g></svg>