<svg xmlns="http://www.w3.org/2000/svg" fill="none" viewBox="-1 -1 48 48" height="48" width="48"><g id="chat-bubble-text-square--messages-message-bubble-text-square-chat"><path id="Union" stroke="#000" stroke-linejoin="round" d="M7.904333333333333 36.93129166666667c-2.44375 -0.169625 -4.349875 -1.9942916666666668 -4.563583333333333 -4.434208333333333C3.1050000000000004 29.823333333333334 2.875 25.764791666666667 2.875 20.125s0.23 -9.699291666666667 0.46575 -12.372083333333334c0.21370833333333333 -2.4399166666666665 2.1198333333333337 -4.264583333333333 4.563583333333333 -4.434208333333333C10.996875 3.1030833333333336 15.935166666666667 2.875 23 2.875c7.063875 0 12.003125 0.22808333333333333 15.095666666666668 0.44370833333333337 2.44375 0.169625 4.349875 1.9942916666666668 4.563583333333333 4.434208333333333C42.895 10.426666666666668 43.125 14.485208333333334 43.125 20.125s-0.23 9.699291666666667 -0.46575 12.372083333333334c-0.21370833333333333 2.4399166666666665 -2.1198333333333337 4.264583333333333 -4.563583333333333 4.434208333333333 -2.8778750000000004 0.20125 -7.35425 0.41208333333333336 -13.654333333333334 0.44083333333333335l-6.901916666666667 5.915791666666667C16.2955 44.35358333333333 14.375 43.47 14.375 41.83316666666667v-4.585625a171.49375 171.49375 0 0 1 -6.470666666666666 -0.31625000000000003Z" stroke-width="2"></path><path id="Rectangle 1098" stroke="#000" stroke-linejoin="round" d="M31.527250000000006 11.617875c1.1164583333333333 0.046000000000000006 1.9665000000000001 0.8260833333333334 2.0029166666666667 1.9435a25.53575 25.53575 0 0 1 -0.0009583333333333334 1.63875c-0.03641666666666667 1.106875 -0.8759166666666668 1.8783333333333334 -1.9818333333333336 1.9262499999999998 -1.4614583333333333 0.06229166666666667 -4.047041666666667 0.12362500000000001 -8.547375 0.12362500000000001 -4.47925 0 -7.061958333333333 -0.058458333333333334 -8.52725 -0.11787500000000001 -1.1164583333333333 -0.046000000000000006 -1.9665000000000001 -0.8260833333333334 -2.0029166666666667 -1.9435a25.53575 25.53575 0 0 1 0 -1.62725c0.03641666666666667 -1.1174166666666667 0.8864583333333335 -1.8975 2.0029166666666667 -1.9435C15.939000000000002 11.558458333333334 18.52075 11.5 23 11.5c4.47925 0 7.061958333333333 0.058458333333333334 8.52725 0.11787500000000001Z" stroke-width="2"></path><path id="Rectangle 1099" stroke="#000" stroke-linejoin="round" d="M23.94875 23.083375c1.1078333333333332 0.050791666666666666 1.8955833333333334 0.8586666666666667 1.9185833333333333 1.9693750000000003a39.833125 39.833125 0 0 1 0 1.6607916666666669c-0.023958333333333335 1.0972916666666668 -0.7982916666666666 1.8955833333333334 -1.8936666666666666 1.9482916666666668 -0.9890000000000001 0.04791666666666667 -2.504125 0.08816666666666667 -4.807 0.08816666666666667 -2.2837083333333332 0 -3.792125 -0.03833333333333334 -4.7820833333333335 -0.08337499999999999 -1.1078333333333332 -0.050791666666666666 -1.8955833333333334 -0.8586666666666667 -1.9185833333333333 -1.9693750000000003a39.833125 39.833125 0 0 1 0 -1.6445c0.023000000000000003 -1.1107083333333334 0.81075 -1.9185833333333333 1.919541666666667 -1.9693750000000003C15.374541666666667 23.037375 16.883916666666664 23 19.166666666666668 23c2.2837083333333332 0 3.792125 0.03833333333333334 4.7820833333333335 0.08337499999999999Z" stroke-width="2"></path></g></svg>