<svg xmlns="http://www.w3.org/2000/svg" fill="none" viewBox="-1 -1 48 48" height="48" width="48"><g id="disable-heart"><path id="Vector 8" stroke="#000" stroke-linecap="round" stroke-linejoin="round" d="M7.797 7.8085c4.005833333333333 -2.7810833333333336 9.682041666666667 -2.920041666666667 13.763583333333335 0.669875 0.5012083333333334 0.43700000000000006 0.9468333333333333 0.9420416666666667 1.4394166666666668 1.4451666666666667 0.4925833333333334 -0.503125 0.9391666666666667 -1.0081666666666667 1.4394166666666668 -1.4451666666666667 6.325 -5.563125 16.4795 -2.1715833333333334 18.31375 6.1295 0.8577083333333334 3.6445416666666666 0.215625 7.564125 -1.7575833333333335 10.727583333333335 -1.929125 3.0973333333333337 -4.5175833333333335 5.812291666666667 -7.374375000000001 8.286708333333333" stroke-width="2"></path><path id="Vector 865" stroke="#000" stroke-linecap="round" stroke-linejoin="round" d="M4.428458333333334 11.5a11.289166666666667 11.289166666666667 0 0 0 -1.1816250000000001 3.107875c-0.8577083333333334 3.6445416666666666 -0.215625 7.564125 1.7575833333333335 10.727583333333335 3.452875 5.5449166666666665 9.020791666666668 9.86125 14.451666666666668 13.775083333333335a6.078708333333333 6.078708333333333 0 0 0 7.087833333333333 0 178.362125 178.362125 0 0 0 2.94975 -2.1696666666666666" stroke-width="2"></path><path id="Vector 864" stroke="#000" stroke-linecap="round" stroke-linejoin="round" d="m2.875 2.875 38.333333333333336 38.333333333333336" stroke-width="2"></path></g></svg>