<svg xmlns="http://www.w3.org/2000/svg" fill="none" viewBox="-1 -1 48 48" height="48" width="48"><g id="mail-send-email-message--send-email-paper-airplane-deliver"><path id="Subtract" stroke="#000" stroke-linejoin="round" d="M3.8218333333333336 7.025541666666667c-0.8692083333333334 -2.142833333333334 1.0972916666666668 -4.186000000000001 3.2822916666666666 -3.428916666666667 7.407916666666667 2.5673749999999997 21.48870833333333 8.071083333333334 33.85120833333333 16.468a3.529541666666667 3.529541666666667 0 0 1 0 5.871708333333333c-12.3625 8.395958333333333 -26.443291666666667 13.900625000000002 -33.85120833333333 16.468 -2.185 0.7570833333333334 -4.1515 -1.2870416666666666 -3.2822916666666666 -3.4298750000000005 1.8687500000000001 -4.602875 4.003916666666667 -9.019833333333334 5.066708333333334 -11.157875a3.7442083333333334 3.7442083333333334 0 0 1 2.08725 -1.8495833333333334L19.166666666666668 23l-8.190875 -2.966041666666667a3.7442083333333334 3.7442083333333334 0 0 1 -2.08725 -1.8495833333333334c-1.0627916666666668 -2.1380416666666666 -3.1979583333333337 -6.555 -5.066708333333334 -11.158833333333334Z" stroke-width="2"></path></g></svg>