<svg xmlns="http://www.w3.org/2000/svg" fill="none" viewBox="-1 -1 48 48" height="48" width="48"><g id="ai-technology-spark--lightbulb-idea-bright-lighting-artificial-intelligence-ai"><path id="Subtract" stroke="#000" stroke-linecap="round" stroke-linejoin="round" d="M11.009333333333334 38.01708333333334c0.1945416666666667 1.2554166666666668 0.39675 2.39775 0.5654166666666667 3.3005 0.23958333333333334 1.2697916666666667 1.1423333333333334 2.289458333333333 2.419791666666667 2.482083333333333 1.0024166666666667 0.152375 2.3948750000000003 0.2836666666666667 4.213791666666667 0.2836666666666667 1.7297916666666666 0 3.151 -0.11883333333333333 4.232958333333333 -0.2606666666666667 1.5180000000000002 -0.19933333333333333 2.58175 -1.4624166666666667 2.7465833333333336 -2.98425l0.30762500000000004 -2.8385833333333337" stroke-width="2"></path><path id="Star 12" stroke="#000" d="M34.138708333333334 2.4955000000000003a0.9583333333333334 0.9583333333333334 0 0 1 1.6809166666666668 0l1.909 3.49025a5.75 5.75 0 0 0 2.285625 2.285625l3.49025 1.909a0.9583333333333334 0.9583333333333334 0 0 1 0 1.6809166666666668l-3.49025 1.909a5.75 5.75 0 0 0 -2.285625 2.285625l-1.909 3.49025a0.9583333333333334 0.9583333333333334 0 0 1 -1.6809166666666668 0l-1.909 -3.49025a5.75 5.75 0 0 0 -2.285625 -2.285625l-3.49025 -1.909a0.9583333333333334 0.9583333333333334 0 0 1 0 -1.6809166666666668l3.49025 -1.909a5.75 5.75 0 0 0 2.285625 -2.285625l1.909 -3.49025Z" stroke-width="2"></path><path id="Union" stroke="#000" stroke-linecap="round" stroke-linejoin="round" d="M24.4375 5.066708333333334A16.24375 16.24375 0 0 0 18.208333333333336 3.8333333333333335C9.210541666666668 3.8333333333333335 1.9166666666666667 11.127208333333334 1.9166666666666667 20.125c0 5.206625 2.442791666666667 9.843041666666668 6.2445 12.825375a63.92083333333334 63.92083333333334 0 0 0 0.9305416666666667 3.335c0.29420833333333335 0.9564166666666667 1.0886666666666667 1.6512083333333334 2.084375 1.7556666666666667C12.511041666666667 38.18000000000001 14.762166666666667 38.333333333333336 18.208333333333336 38.333333333333336s5.6972916666666675 -0.15333333333333335 7.03225 -0.29229166666666667c0.9957083333333333 -0.10445833333333333 1.790166666666667 -0.79925 2.0834166666666665 -1.756625 0.27504166666666663 -0.8941250000000001 0.6229166666666667 -2.089166666666667 0.9315 -3.334041666666667a16.332875 16.332875 0 0 0 5.293833333333334 -7.327416666666667" stroke-width="2"></path></g></svg>