<svg xmlns="http://www.w3.org/2000/svg" fill="none" viewBox="-1 -1 48 48" height="48" width="48"><g id="wallet--money-payment-finance-wallet"><path id="Subtract" stroke="#000" stroke-linecap="round" stroke-linejoin="round" d="M6.966125000000001 11.035208333333335c5.720291666666667 -2.9708333333333337 12.998833333333334 -5.711666666666667 19.789583333333333 -7.382041666666667 1.986625 -0.48875 4.039375 0.2462916666666667 5.0724583333333335 2.011541666666667 0.7379166666666667 1.2611666666666668 1.63875 2.99 2.5913333333333335 5.24975" stroke-width="2"></path><path id="Rectangle 1096" stroke="#000" stroke-linecap="round" stroke-linejoin="round" d="M27.853 29.826208333333337c0.09104166666666667 2.04125 1.6646250000000002 3.5621250000000004 3.704916666666667 3.6435833333333334 1.0397916666666667 0.042166666666666665 2.3325833333333335 0.071875 3.900416666666667 0.071875 1.5678333333333332 0 2.860625 -0.029708333333333333 3.900416666666667 -0.071875 2.04125 -0.08145833333333334 3.613875 -1.6023333333333334 3.704916666666667 -3.6435833333333334 0.03641666666666667 -0.830875 0.06133333333333334 -1.8246666666666667 0.06133333333333334 -2.992875 0 -1.1691666666666667 -0.024916666666666667 -2.162 -0.06133333333333334 -2.992875 -0.09104166666666667 -2.04125 -1.6646250000000002 -3.5621250000000004 -3.704916666666667 -3.6435833333333334A97.85925 97.85925 0 0 0 35.458333333333336 20.125c-1.5678333333333332 0 -2.860625 0.029708333333333333 -3.900416666666667 0.071875 -2.04125 0.08145833333333334 -3.613875 1.6023333333333334 -3.704916666666667 3.6435833333333334A67.81358333333334 67.81358333333334 0 0 0 27.791666666666668 26.833333333333336c0 1.1691666666666667 0.024916666666666667 2.162 0.06133333333333334 2.992875Z" stroke-width="2"></path><path id="Subtract_2" stroke="#000" stroke-linecap="round" stroke-linejoin="round" d="M39.17091666666667 20.189208333333333a113.77333333333334 113.77333333333334 0 0 0 -0.28079166666666666 -4.803166666666667c-0.19933333333333333 -2.4447083333333337 -2.0977916666666667 -4.2837499999999995 -4.544416666666667 -4.453375C31.528208333333335 10.737166666666667 27.181208333333334 10.541666666666668 21.083333333333336 10.541666666666668s-10.445833333333335 0.1955 -13.263333333333334 0.391c-2.445666666666667 0.16866666666666666 -4.344125000000001 2.008666666666667 -4.543458333333334 4.453375C3.0705000000000005 17.910291666666666 2.875 21.670791666666666 2.875 26.833333333333336c0 5.162541666666667 0.1955 8.922083333333335 0.4015416666666667 11.447291666666667 0.19933333333333333 2.4447083333333337 2.0977916666666667 4.2837499999999995 4.544416666666667 4.453375C10.6375 42.929500000000004 14.985458333333334 43.125 21.083333333333336 43.125s10.445833333333335 -0.1955 13.262375 -0.391c2.446625 -0.16866666666666666 4.345083333333333 -2.008666666666667 4.544416666666667 -4.453375 0.10445833333333333 -1.2774583333333334 0.20604166666666668 -2.871166666666667 0.28079166666666666 -4.803166666666667" stroke-width="2"></path><path id="Vector 1356" stroke="#000" stroke-linecap="round" stroke-linejoin="round" d="m34.5 25.875 0 1.9166666666666667" stroke-width="2"></path></g></svg>