<svg xmlns="http://www.w3.org/2000/svg" fill="none" viewBox="-1 -1 48 48" height="48" width="48"><g id="sofa--decoration-furniture-interior-design-couch-sofa-decorate-shopping-catergories"><path id="Rectangle 253" stroke="#000" stroke-linecap="round" stroke-linejoin="round" d="M2.9785000000000004 25.331625000000003c-0.09583333333333334 -2.6277500000000003 1.3416666666666666 -5.095458333333334 3.9684583333333334 -5.196083333333333a15.18 15.18 0 0 1 2.6929166666666666 0.14470833333333333c2.1830833333333333 0.30570833333333336 3.7020416666666667 2.216625 3.9387500000000006 4.408333333333333C14.749708333333334 35.490916666666664 14.283958333333333 43.125 14.283958333333333 43.125l-5.133791666666667 0 -1.515125 0a3.8160833333333337 3.8160833333333337 0 0 1 -3.808416666666667 -3.5170833333333333c-0.497375 -6.431375000000001 -0.7350416666666667 -11.195250000000001 -0.848125 -14.276291666666667Z" stroke-width="2"></path><path id="Rectangle 253_2" stroke="#000" stroke-linecap="round" stroke-linejoin="round" d="M43.0215 25.331625000000003c0.09679166666666668 -2.6277500000000003 -1.3416666666666666 -5.095458333333334 -3.9684583333333334 -5.196083333333333a15.218333333333335 15.218333333333335 0 0 0 -2.6929166666666666 0.14470833333333333c-2.182125 0.30570833333333336 -3.7010833333333335 2.216625 -3.9387500000000006 4.408333333333333C31.251250000000002 35.490916666666664 31.716041666666666 43.125 31.716041666666666 43.125l5.133791666666667 0 1.5160833333333334 0a3.8160833333333337 3.8160833333333337 0 0 0 3.8074583333333334 -3.5170833333333333c0.49833333333333335 -6.431375000000001 0.7350416666666667 -11.195250000000001 0.848125 -14.276291666666667Z" stroke-width="2"></path><path id="Subtract" stroke="#000" stroke-linecap="round" stroke-linejoin="round" d="M14.283958333333333 43.125h17.432083333333335" stroke-width="2"></path><path id="Subtract_2" stroke="#000" stroke-linecap="round" stroke-linejoin="round" d="M31.944125 30.0725C29.684375000000003 29.880833333333335 26.643583333333336 29.708333333333336 23 29.708333333333336c-3.6435833333333334 0 -6.683416666666667 0.1725 -8.943166666666668 0.3641666666666667" stroke-width="2"></path><path id="Subtract_3" stroke="#000" stroke-linecap="round" stroke-linejoin="round" d="M39.032916666666665 20.134583333333335c0.11212500000000002 -2.9487916666666667 0.1955 -6.370041666666667 0.23479166666666668 -10.327958333333333 0.02875 -3.015875 -1.79975 -5.661833333333334 -4.777291666666667 -6.142916666666667C31.901 3.243958333333333 28.155833333333334 2.875 23 2.875c-5.15775 0 -8.902916666666666 0.36895833333333333 -11.492333333333335 0.7887083333333333 -2.976583333333333 0.48108333333333336 -4.806041666666666 3.1270416666666665 -4.7763333333333335 6.142916666666667 0.03833333333333334 3.9579166666666667 0.12266666666666667 7.379166666666667 0.23479166666666668 10.327958333333333" stroke-width="2"></path><path id="Vector 1558" stroke="#000" stroke-linecap="round" stroke-linejoin="round" d="M17.25 13.416666666666668v0.9583333333333334" stroke-width="2"></path><path id="Vector 1560" stroke="#000" stroke-linecap="round" stroke-linejoin="round" d="M28.75 13.416666666666668v0.9583333333333334" stroke-width="2"></path></g></svg>