<svg xmlns="http://www.w3.org/2000/svg" fill="none" viewBox="-1 -1 48 48" height="48" width="48"><g id="building-office--travel-places-building-office"><path id="Rectangle 57" stroke="#000" stroke-linecap="round" stroke-linejoin="round" d="M27.417916666666667 3.3465000000000003a5.14625 5.14625 0 0 1 4.694875000000001 4.786875C32.341833333333334 11.315041666666668 32.583333333333336 16.265791666666665 32.583333333333336 23c0 8.246458333333335 -0.181125 14.217833333333335 -0.3105 17.424416666666666A2.8165416666666667 2.8165416666666667 0 0 1 29.441916666666668 43.125L17.729166666666668 43.125 6.026000000000001 43.125a2.8251666666666666 2.8251666666666666 0 0 1 -2.836666666666667 -2.7120833333333336C3.0599583333333333 37.13158333333334 2.875 31.033708333333337 2.875 23c0 -6.5722499999999995 0.24725000000000003 -11.578583333333334 0.4791666666666667 -14.822541666666668a5.191291666666666 5.191291666666666 0 0 1 4.727458333333334 -4.834791666666667C10.635583333333335 3.1069166666666668 14.076958333333334 2.875 17.729166666666668 2.875c3.6713750000000003 0 7.130000000000001 0.23383333333333334 9.68875 0.47150000000000003Z" stroke-width="2"></path><path id="Subtract" stroke="#000" stroke-linecap="round" stroke-linejoin="round" d="m29.441916666666668 43.125 10.60875 0a2.8337916666666665 2.8337916666666665 0 0 0 2.8443333333333336 -2.717833333333333c0.10158333333333333 -2.576 0.23 -6.708333333333334 0.23 -11.178 0 -3.414541666666667 -0.1495 -6.492708333333334 -0.31145833333333334 -8.818583333333333 -0.18016666666666667 -2.606666666666667 -2.200333333333333 -4.655583333333333 -4.807958333333334 -4.836708333333333a99.546875 99.546875 0 0 0 -5.534375000000001 -0.23095833333333332" stroke-width="2"></path><path id="Intersect" stroke="#000" stroke-linecap="round" stroke-linejoin="round" d="m22.440333333333335 43.125 0.005750000000000001 -0.100625c0.04120833333333333 -1.0541666666666667 0.07475 -2.5654583333333334 0.07475 -4.691041666666666 0 -2.1255833333333336 -0.03354166666666667 -3.636875 -0.07475 -4.691041666666666 -0.056541666666666664 -1.426 -0.8529166666666668 -2.6315833333333334 -2.2664583333333335 -2.8270833333333334A17.997500000000002 17.997500000000002 0 0 0 17.729166666666668 30.666666666666668a17.997500000000002 17.997500000000002 0 0 0 -2.450458333333333 0.14854166666666668c-1.4135416666666667 0.1955 -2.209916666666667 1.4010833333333335 -2.2664583333333335 2.8270833333333334 -0.04120833333333333 1.0541666666666667 -0.07475 2.5654583333333334 -0.07475 4.691041666666666a121.69204166666667 121.69204166666667 0 0 0 0.0805 4.791666666666667" stroke-width="2"></path><path id="Vector 860" stroke="#000" stroke-linecap="round" stroke-linejoin="round" d="M12.458333333333334 11.5v1.9166666666666667" stroke-width="2"></path><path id="Vector 862" stroke="#000" stroke-linecap="round" stroke-linejoin="round" d="M12.458333333333334 22.041666666666668v1.9166666666666667" stroke-width="2"></path><path id="Vector 861" stroke="#000" stroke-linecap="round" stroke-linejoin="round" d="M23 11.5v1.9166666666666667" stroke-width="2"></path><path id="Vector 863" stroke="#000" stroke-linecap="round" stroke-linejoin="round" d="M23 22.041666666666668v1.9166666666666667" stroke-width="2"></path></g></svg>