<svg xmlns="http://www.w3.org/2000/svg" fill="none" viewBox="-1 -1 48 48" height="48" width="48"><g id="call-hang-up--phone-telephone-mobile-device-smartphone-call-hang-up"><path id="Union" stroke="#000" stroke-linecap="round" stroke-linejoin="round" d="M27.44954166666667 27.447625a19.159000000000002 19.159000000000002 0 0 0 4.788791666666667 -7.974291666666667c0.1945416666666667 -0.6401666666666668 -0.004791666666666667 -1.3272916666666668 -0.47725 -1.79975l-2.9487916666666667 -2.9487916666666667a3.8333333333333335 3.8333333333333335 0 0 1 -0.848125 -4.134250000000001l2.3632500000000003 -5.908125A2.875 2.875 0 0 1 32.99541666666667 2.875H33.54166666666667c5.2928749999999996 0 9.583333333333334 4.2904583333333335 9.583333333333334 9.583333333333334v1.2765000000000002c0 0.004791666666666667 -0.0019166666666666668 0.009583333333333334 -0.005750000000000001 0.012458333333333333a0.01629166666666667 0.01629166666666667 0 0 0 -0.004791666666666667 0.012458333333333333c-0.21370833333333333 7.991541666666667 -3.533375 15.20875 -8.795583333333335 20.488208333333336M23.182083333333335 30.666666666666668a19.051666666666666 19.051666666666666 0 0 1 -3.70875 1.5716666666666665c-0.6401666666666668 0.1945416666666667 -1.3272916666666668 -0.004791666666666667 -1.79975 -0.47725l-2.9487916666666667 -2.9487916666666667a3.8333333333333335 3.8333333333333335 0 0 0 -4.134250000000001 -0.848125l-5.908125 2.3632500000000003A2.875 2.875 0 0 0 2.875 32.99541666666667V33.54166666666667c0 5.2928749999999996 4.2904583333333335 9.583333333333334 9.583333333333334 9.583333333333334h0.4791666666666667a30.04566666666667 30.04566666666667 0 0 0 17.25 -5.41075" stroke-width="2"></path><path id="Vector 1368" stroke="#000" stroke-linecap="round" d="m8.625 8.625 34.5 34.5" stroke-width="2"></path></g></svg>