<svg xmlns="http://www.w3.org/2000/svg" fill="none" viewBox="-1 -1 48 48" height="48" width="48"><g id="ladder--business-product-metaphor-ladder"><path id="Rectangle 1096" stroke="#000" stroke-linecap="round" stroke-linejoin="round" d="M32.68875 5.5391666666666675c0.017249999999999998 -1.1039999999999999 0.4475416666666667 -2.2281250000000004 1.515125 -2.5098750000000005 0.35075 -0.09200000000000001 0.7666666666666667 -0.1542916666666667 1.2544583333333332 -0.1542916666666667 0.4877916666666667 0 0.9037083333333333 0.06229166666666667 1.2544583333333332 0.1542916666666667 1.0675833333333336 0.28175 1.497875 1.4058750000000002 1.5141666666666669 2.5108333333333337C38.269125 8.120916666666668 38.333333333333336 13.731 38.333333333333336 23c0 9.268041666666667 -0.06516666666666668 14.878125 -0.10541666666666667 17.460833333333333 -0.017249999999999998 1.1039999999999999 -0.4475416666666667 2.2281250000000004 -1.515125 2.5098750000000005 -0.35075 0.09200000000000001 -0.7666666666666667 0.1542916666666667 -1.2544583333333332 0.1542916666666667 -0.4877916666666667 0 -0.9037083333333333 -0.06229166666666667 -1.2544583333333332 -0.1542916666666667 -1.0675833333333336 -0.28175 -1.497875 -1.4058750000000002 -1.5141666666666669 -2.5108333333333337C32.64754166666667 37.87908333333334 32.583333333333336 32.269 32.583333333333336 23c0 -9.268041666666667 0.06516666666666668 -14.878125 0.10541666666666667 -17.460833333333333Z" stroke-width="2"></path><path id="Rectangle 1097" stroke="#000" stroke-linecap="round" stroke-linejoin="round" d="M7.772083333333333 5.5391666666666675c0.017249999999999998 -1.1039999999999999 0.4475416666666667 -2.2281250000000004 1.515125 -2.5098750000000005 0.35075 -0.09200000000000001 0.7666666666666667 -0.1542916666666667 1.2544583333333332 -0.1542916666666667 0.4877916666666667 0 0.9037083333333333 0.06229166666666667 1.2544583333333332 0.1542916666666667 1.0675833333333336 0.28175 1.497875 1.4058750000000002 1.5141666666666669 2.5108333333333337C13.352458333333333 8.120916666666668 13.416666666666668 13.731 13.416666666666668 23c0 9.268041666666667 -0.06516666666666668 14.878125 -0.10541666666666667 17.460833333333333 -0.017249999999999998 1.1039999999999999 -0.4475416666666667 2.2281250000000004 -1.515125 2.5098750000000005 -0.35075 0.09200000000000001 -0.7666666666666667 0.1542916666666667 -1.2544583333333332 0.1542916666666667 -0.4877916666666667 0 -0.9037083333333333 -0.06229166666666667 -1.2544583333333332 -0.1542916666666667 -1.0675833333333336 -0.28175 -1.497875 -1.4058750000000002 -1.5141666666666669 -2.5108333333333337C7.730875 37.87908333333334 7.666666666666667 32.269 7.666666666666667 23c0 -9.268041666666667 0.06516666666666668 -14.878125 0.10541666666666667 -17.460833333333333Z" stroke-width="2"></path><path id="Subtract" stroke="#000" stroke-linecap="round" stroke-linejoin="round" d="M13.350541666666667 37.375H32.650416666666665" stroke-width="2"></path><path id="Subtract_2" stroke="#000" stroke-linecap="round" stroke-linejoin="round" d="M32.590041666666664 27.791666666666668H13.410916666666667" stroke-width="2"></path><path id="Subtract_3" stroke="#000" stroke-linecap="round" stroke-linejoin="round" d="M13.410916666666667 18.208333333333336h19.179125000000003" stroke-width="2"></path><path id="Subtract_4" stroke="#000" stroke-linecap="round" stroke-linejoin="round" d="M32.649458333333335 8.625H13.349583333333333" stroke-width="2"></path></g></svg>