<svg xmlns="http://www.w3.org/2000/svg" fill="none" viewBox="-1 -1 48 48" height="48" width="48"><g id="controller-1--remote-quadcopter-drones-flying-drone-control-controller-technology-fly"><path id="Vector 40" stroke="#000" stroke-linecap="round" stroke-linejoin="round" d="M42.995625000000004 32.0965c-0.39770833333333333 -9.209583333333333 -1.6368333333333334 -15.272958333333333 -2.6114583333333337 -18.75075 -0.6650833333333334 -2.370916666666667 -2.7216666666666667 -3.9387500000000006 -5.1730833333333335 -4.175458333333333C32.437666666666665 8.903875000000001 28.270833333333336 8.623083333333334 23 8.623083333333334c-5.270833333333334 0 -9.436708333333334 0.28079166666666666 -12.209166666666667 0.5472083333333333 -2.4523750000000004 0.23670833333333333 -4.508958333333333 1.8045416666666667 -5.174041666666667 4.175458333333333 -0.974625 3.4777916666666666 -2.21375 9.541166666666667 -2.6114583333333337 18.75075 -0.16387500000000002 3.7787083333333333 2.1255833333333336 7.193250000000001 5.907166666666667 7.193250000000001 0.5021666666666668 0 0.97175 -0.01629166666666667 1.4116250000000001 -0.043125 3.037916666666667 -0.19262500000000002 5.158708333333333 -2.6028333333333338 6.107458333333334 -5.4950833333333335l0.03833333333333334 -0.11212500000000002c0.31625000000000003 -0.9640833333333334 1.0081666666666667 -1.7633333333333334 1.9904583333333334 -2.0125 1.00625 -0.2577916666666667 2.5204166666666667 -0.514625 4.539625 -0.514625 2.020166666666667 0 3.5343333333333335 0.25683333333333336 4.540583333333334 0.5136666666666667 0.9822916666666667 0.2510833333333334 1.6751666666666667 1.049375 1.9914166666666666 2.0134583333333333l0.03641666666666667 0.11212500000000002c0.94875 2.8922499999999998 3.0714583333333336 5.302458333333334 6.108416666666667 5.4941249999999995 0.4389166666666667 0.02875 0.9104166666666667 0.044083333333333335 1.4106666666666667 0.044083333333333335 3.782541666666667 0 6.072000000000001 -3.414541666666667 5.908125 -7.193250000000001Z" stroke-width="2"></path><path id="Vector 693" stroke="#000" stroke-linecap="round" stroke-linejoin="round" d="M14.375 16.291666666666668v7.666666666666667" stroke-width="2"></path><path id="Vector 694" stroke="#000" stroke-linecap="round" stroke-linejoin="round" d="m18.208333333333336 20.125 -7.666666666666667 0" stroke-width="2"></path><path id="Vector 695" stroke="#000" stroke-linecap="round" stroke-linejoin="round" d="m31.625 23 0 0.9583333333333334" stroke-width="2"></path><path id="Vector 698" stroke="#000" stroke-linecap="round" stroke-linejoin="round" d="m28.75 20.125 -0.9583333333333334 0" stroke-width="2"></path><path id="Vector 697" stroke="#000" stroke-linecap="round" stroke-linejoin="round" d="M31.625 16.291666666666668v0.9583333333333334" stroke-width="2"></path><path id="Vector 699" stroke="#000" stroke-linecap="round" stroke-linejoin="round" d="m35.458333333333336 20.125 -0.9583333333333334 0" stroke-width="2"></path></g></svg>