<svg xmlns="http://www.w3.org/2000/svg" fill="none" viewBox="-1 -1 48 48" height="48" width="48"><g id="add-bell-notification--notification-alarm-alert-bell-add"><path id="Union" stroke="#000" stroke-linecap="round" stroke-linejoin="round" d="m40.25 28.342708333333334 1.4097083333333336 2.284666666666667c1.4164166666666667 2.2932916666666667 0.644 4.66325 -2.0278333333333336 5.018791666666667C36.576708333333336 36.0525 31.47454166666667 36.41666666666667 23 36.41666666666667s-13.576708333333334 -0.3641666666666667 -16.631875 -0.7705000000000001c-2.6718333333333333 -0.35458333333333336 -3.44425 -2.7255 -2.0287916666666668 -5.018791666666667L5.75 28.342708333333334a15.333333333333334 15.333333333333334 0 0 0 2.2281250000000004 -6.743791666666667l0.46 -5.3561250000000005C9.000666666666666 9.660958333333333 13.867083333333335 4.408333333333333 20.125 3.1586666666666665" stroke-width="2"></path><path id="Ellipse 18" stroke="#000" stroke-linecap="round" stroke-linejoin="round" d="M20.125 14.375a11.5 11.5 0 1 0 23 0 11.5 11.5 0 1 0 -23 0" stroke-width="2"></path><path id="Vector 881" stroke="#000" stroke-linecap="round" stroke-linejoin="round" d="M31.625 9.583333333333334v9.583333333333334" stroke-width="2"></path><path id="Vector 883" stroke="#000" stroke-linecap="round" stroke-linejoin="round" d="M31.625 8.625v11.5" stroke-width="2"></path><path id="Vector 882" stroke="#000" stroke-linecap="round" stroke-linejoin="round" d="m36.41666666666667 14.375 -9.583333333333334 0" stroke-width="2"></path><path id="Vector 884" stroke="#000" stroke-linecap="round" stroke-linejoin="round" d="m37.375 14.375 -11.5 0" stroke-width="2"></path><path id="Subtract" stroke="#000" stroke-linecap="round" stroke-linejoin="round" d="M15.379333333333332 36.29975a7.667625 7.667625 0 0 0 15.241333333333333 0" stroke-width="2"></path></g></svg>