<svg xmlns="http://www.w3.org/2000/svg" fill="none" viewBox="-1 -1 48 48" height="48" width="48"><g id="smiley-laughing-1"><path id="Ellipse 18" stroke="#000" stroke-linecap="round" stroke-linejoin="round" d="M41.188208333333336 14.375c-3.2295833333333337 -6.799375 -10.160250000000001 -11.5 -18.18916666666667 -11.5C14.972041666666666 2.875 8.042333333333334 7.5756250000000005 4.810833333333333 14.375m36.80191666666667 16.291666666666668C38.59783333333334 37.978750000000005 31.39979166666667 43.125 23 43.125c-8.40075 0 -15.598791666666669 -5.14625 -18.61370833333333 -12.458333333333334" stroke-width="2"></path><path id="Ellipse 147" stroke="#000" stroke-linejoin="round" d="M43.364583333333336 20.461375c1.0886666666666667 1.089625 0.9209583333333333 3.0225833333333334 -0.3756666666666667 4.319208333333333 -1.2966250000000001 1.2966250000000001 -3.2295833333333337 1.4652916666666667 -4.319208333333333 0.3756666666666667 -1.354125 -1.354125 -1.8946250000000002 -3.5228333333333337 -2.11025 -5.07725a1.5084166666666667 1.5084166666666667 0 0 1 1.727875 -1.727875c1.5544166666666668 0.21466666666666667 3.723125 0.756125 5.07725 2.11025Z" stroke-width="2"></path><path id="Ellipse 148" stroke="#000" stroke-linejoin="round" d="M2.635416666666667 20.461375c-1.089625 1.089625 -0.9209583333333333 3.0225833333333334 0.37470833333333337 4.319208333333333 1.2966250000000001 1.2966250000000001 3.230541666666667 1.4652916666666667 4.319208333333333 0.3756666666666667 1.3550833333333334 -1.354125 1.8955833333333334 -3.5228333333333337 2.1112083333333334 -5.07725a1.5084166666666667 1.5084166666666667 0 0 0 -1.727875 -1.727875c-1.5544166666666668 0.21466666666666667 -3.723125 0.756125 -5.07725 2.11025Z" stroke-width="2"></path><path id="Vector 1488" stroke="#000" stroke-linecap="round" stroke-linejoin="round" d="M27.791666666666668 14.375s0.8385416666666667 -1.9166666666666667 3.354166666666667 -1.9166666666666667 3.354166666666667 1.9166666666666667 3.354166666666667 1.9166666666666667" stroke-width="2"></path><path id="Vector 1489" stroke="#000" stroke-linecap="round" stroke-linejoin="round" d="M18.208333333333336 14.375s-0.8385416666666667 -1.9166666666666667 -3.354166666666667 -1.9166666666666667 -3.354166666666667 1.9166666666666667 -3.354166666666667 1.9166666666666667" stroke-width="2"></path><path id="Ellipse 25" stroke="#000" stroke-linecap="round" stroke-linejoin="round" d="M23 37.375c5.021666666666667 0 9.292958333333333 -3.22 10.859833333333334 -7.707875 0.635375 -1.8179583333333333 -1.2305000000000001 -3.2803750000000003 -3.1260833333333333 -2.941125 -2.054666666666667 0.36895833333333333 -4.77825 0.7168333333333333 -7.733750000000001 0.7168333333333333 -2.9555000000000002 0 -5.679083333333334 -0.347875 -7.733750000000001 -0.7168333333333333 -1.8946250000000002 -0.33925 -3.7605 1.1231666666666666 -3.1260833333333333 2.942083333333333C13.708 34.155 17.978333333333335 37.375 23 37.375Z" stroke-width="2"></path></g></svg>