<svg xmlns="http://www.w3.org/2000/svg" fill="none" viewBox="-1 -1 48 48" height="48" width="48"><g id="wheelchair-2--person-access-wheelchair-accomodation-human-disability-disabled-user"><path id="Ellipse 136" stroke="#000" stroke-linecap="round" stroke-linejoin="round" d="M27.791666666666668 8.145833333333334a5.270833333333334 5.270833333333334 0 1 0 10.541666666666668 0 5.270833333333334 5.270833333333334 0 1 0 -10.541666666666668 0" stroke-width="2"></path><path id="Union" stroke="#000" stroke-linecap="round" stroke-linejoin="round" d="m31.853083333333334 32.36291666666667 -0.8165 8.980541666666667c-0.044083333333333335 0.4820416666666667 0.27791666666666665 0.92575 0.7570833333333334 0.9957083333333333 1.6770833333333335 0.24533333333333335 3.037916666666667 0.09583333333333334 3.756666666666667 -0.03066666666666667a0.8529166666666668 0.8529166666666668 0 0 0 0.6775416666666667 -0.6804166666666667c1.0503333333333336 -4.949791666666667 1.9128333333333334 -10.465 2.3594166666666667 -13.500041666666666a2.7715 2.7715 0 0 0 -1.8975 -3.0570833333333334c-2.0738333333333334 -0.6602916666666666 -5.188416666666667 -1.5850833333333334 -7.513333333333334 -1.98375a0.48875 0.48875 0 0 1 -0.3862083333333334 -0.6277083333333334l1.8946250000000002 -6.001083333333333a2.8452916666666668 2.8452916666666668 0 0 0 -1.4767916666666667 -3.4298750000000005c-5.08875 -2.4274583333333335 -9.18275 -4.0949583333333335 -11.263291666666667 -4.906666666666667 -0.9276666666666666 -0.36225 -1.975125 -0.19933333333333333 -2.7207083333333335 0.46 -3.68 3.253541666666667 -6.552125 7.331250000000001 -7.649416666666667 8.986291666666668 -0.3037916666666667 0.457125 -0.299 1.0445833333333334 0.046000000000000006 1.4720000000000002 0.5443333333333333 0.67275 1.45475 1.6224583333333336 2.475375 1.96075 0.46 0.152375 0.9362916666666666 -0.0575 1.290875 -0.3862083333333334l5.736583333333333 -5.327375a0.4791666666666667 0.4791666666666667 0 0 1 0.572125 -0.059416666666666666l2.0316666666666667 1.219c-0.3105 0.8826250000000001 -0.60375 1.7499166666666668 -0.8807083333333334 2.5932500000000003" stroke-width="2"></path><path id="Ellipse 18" stroke="#000" stroke-linecap="round" stroke-linejoin="round" d="M17.729166666666668 23C23.28654166666667 23 27.791666666666668 27.505125000000003 27.791666666666668 33.0625S23.28654166666667 43.125 17.729166666666668 43.125 7.666666666666667 38.619875 7.666666666666667 33.0625 12.171791666666667 23 17.729166666666668 23Z" stroke-width="2"></path><path id="Ellipse 137" stroke="#000" stroke-linecap="round" stroke-linejoin="round" d="M17.729166666666668 28.75a4.3125 4.3125 0 1 1 0 8.625 4.3125 4.3125 0 0 1 0 -8.625Z" stroke-width="2"></path></g></svg>