<svg xmlns="http://www.w3.org/2000/svg" fill="none" viewBox="-1 -1 48 48" height="48" width="48"><g id="test-tube--science-experiment-lab-chemistry-test-tube-solution"><path id="Union" stroke="#000" stroke-linejoin="round" d="M11.014125 3.4030416666666667C13.672541666666667 3.153875 17.801041666666666 2.875 23 2.875c5.198 0 9.327458333333334 0.27791666666666665 11.985875 0.5280416666666667 1.480625 0.13895833333333332 2.1457083333333333 1.84 1.1979166666666667 2.986166666666667L33.54166666666667 9.583333333333334l0 14.854166666666668c0 3.658916666666667 -0.058458333333333334 6.7505 -0.13991666666666666 9.277624999999999 -0.16291666666666668 5.066708333333334 -3.8985 9.241208333333335 -8.965208333333335 9.388791666666668a49.498875000000005 49.498875000000005 0 0 1 -2.8117500000000004 0.0019166666666666668c-5.096416666666666 -0.14183333333333334 -8.855 -4.359458333333333 -9.022708333333332 -9.454916666666668A282.02791666666667 282.02791666666667 0 0 1 12.458333333333334 24.4375L12.458333333333334 9.583333333333334l-2.642125 -3.194125c-0.9477916666666667 -1.1461666666666666 -0.28270833333333334 -2.8462500000000004 1.1979166666666667 -2.986166666666667Z" stroke-width="2"></path><path id="Vector 1658" stroke="#000" stroke-linecap="round" stroke-linejoin="round" d="M16.291666666666668 14.375h-3.8333333333333335" stroke-width="2"></path><path id="Vector 1659" stroke="#000" stroke-linecap="round" stroke-linejoin="round" d="M16.291666666666668 22.041666666666668h-3.8333333333333335" stroke-width="2"></path><path id="Vector 1660" stroke="#000" stroke-linecap="round" stroke-linejoin="round" d="M16.291666666666668 29.708333333333336h-3.8333333333333335" stroke-width="2"></path></g></svg>