<svg xmlns="http://www.w3.org/2000/svg" fill="none" viewBox="-1 -1 48 48" height="48" width="48"><g id="multiple-file-1--file-common-double"><path id="Subtract" stroke="#000" stroke-linecap="round" stroke-linejoin="round" d="M32.13579166666667 38.78375c-0.20508333333333334 2.1140833333333333 -1.77675 3.6991666666666667 -3.888916666666667 3.919583333333333 -2.091083333333333 0.21658333333333335 -5.213333333333334 0.4216666666666667 -9.559375 0.4216666666666667 -4.346041666666667 0 -7.468291666666667 -0.20508333333333334 -9.559375 -0.4216666666666667 -2.112166666666667 -0.22041666666666668 -3.6838333333333333 -1.8054999999999999 -3.888916666666667 -3.919583333333333C5.013041666666667 36.44925 4.791666666666667 32.771166666666666 4.791666666666667 27.3125c0 -5.457708333333334 0.22137500000000002 -9.136750000000001 0.4475416666666667 -11.471250000000001 0.20508333333333334 -2.1140833333333333 1.77675 -3.6991666666666667 3.888916666666667 -3.919583333333333" stroke-width="2"></path><path id="Subtract_2" stroke="#000" stroke-linecap="round" stroke-linejoin="round" d="M30.466375000000003 2.9133333333333336c0.5865 0.17154166666666668 2.8922499999999998 1.0158333333333334 6.289541666666667 4.400666666666666 3.178791666666667 3.166333333333333 4.125625 5.381041666666667 4.37575 6.1314166666666665 0.04791666666666667 1.5285416666666667 0.07666666666666667 3.268875 0.07666666666666667 5.242083333333333 0 5.457708333333334 -0.22137500000000002 9.136750000000001 -0.4475416666666667 11.471250000000001 -0.20508333333333334 2.1140833333333333 -1.77675 3.6991666666666667 -3.888916666666667 3.919583333333333 -2.091083333333333 0.21658333333333335 -5.213333333333334 0.4216666666666667 -9.559375 0.4216666666666667 -4.346041666666667 0 -7.468291666666667 -0.20508333333333334 -9.559375 -0.4216666666666667 -2.112166666666667 -0.22041666666666668 -3.6838333333333333 -1.8054999999999999 -3.888916666666667 -3.919583333333333C13.638041666666668 27.82425 13.416666666666668 24.145208333333336 13.416666666666668 18.6875s0.22137500000000002 -9.136750000000001 0.4475416666666667 -11.471250000000001c0.20508333333333334 -2.1140833333333333 1.77675 -3.6991666666666667 3.888916666666667 -3.919583333333333C19.844208333333334 3.0800833333333335 22.966458333333335 2.875 27.3125 2.875c1.1337083333333333 0 2.1830833333333333 0.014375 3.153875 0.03833333333333334Z" stroke-width="2"></path><path id="Intersect" stroke="#000" stroke-linecap="round" stroke-linejoin="round" d="M41.11345833333334 13.740583333333333c-1.6004166666666666 0.24341666666666667 -4.389166666666667 0.08625 -6.663291666666667 -0.11404166666666667a4.43325 4.43325 0 0 1 -4.038416666666667 -4.034583333333334c-0.20220833333333332 -2.278916666666667 -0.35841666666666666 -5.073416666666667 -0.10733333333333334 -6.660416666666667" stroke-width="2"></path></g></svg>