<svg xmlns="http://www.w3.org/2000/svg" fill="none" viewBox="-1 -1 48 48" height="48" width="48"><g id="arrow-curvy-both-direction-2--both-direction-arrow-curvy-diagram-zigzag-horizontal"><path id="Vector 994" stroke="#000" stroke-linecap="round" stroke-linejoin="round" d="m5.75 9.583333333333334 17.25 0c4.975666666666667 0 9.685875 0.115 13.000750000000002 0.2232916666666667 2.753291666666667 0.089125 5.04275 2.155291666666667 5.165416666666666 4.906666666666667a38.42916666666667 38.42916666666667 0 0 1 0.01916666666666667 3.0858333333333334c-0.100625 2.9593333333333334 -2.69675 5.097375 -5.655125 5.004416666666668A413.9329166666667 413.9329166666667 0 0 0 23 22.589833333333335c-4.798375 0 -9.595791666666667 0.11979166666666667 -12.990208333333333 0.22904166666666667 -2.76 0.08816666666666667 -5.054250000000001 2.15625 -5.176916666666667 4.914333333333333 -0.025875000000000002 0.575 -0.04120833333333333 1.1710833333333333 -0.04120833333333333 1.7671666666666668 0 0.5932083333333333 0.015333333333333334 1.1854583333333335 0.04120833333333333 1.7595 0.12170833333333334 2.76 2.4217083333333336 4.830958333333334 5.184583333333333 4.920083333333334C13.493333333333334 36.29208333333333 18.387541666666667 36.41666666666667 23 36.41666666666667l17.25 0" stroke-width="2"></path><path id="Rectangle 1845" stroke="#000" stroke-linejoin="round" d="M12.113333333333335 2.8472083333333336c-0.07954166666666668 -0.520375 -0.5884166666666667 -0.7676250000000001 -1.0599166666666668 -0.5328333333333334 -0.9238333333333333 0.46 -2.6191250000000004 1.382875 -5.224833333333334 3.086791666666667 -1.23625 0.8088333333333333 -2.1639166666666667 1.4997916666666666 -2.8596666666666666 2.0738333333333334 -1.0656666666666668 0.87975 -0.4638333333333333 2.1083333333333334 0.9180833333333334 2.1083333333333334L11.5 9.583333333333334c0.529 0 0.9583333333333334 -0.43125 0.9535416666666667 -0.9612083333333332 -0.02875 -3.1069166666666668 -0.19933333333333333 -4.849166666666666 -0.34020833333333333 -5.774916666666667Z" stroke-width="2"></path><path id="Rectangle 1857" stroke="#000" stroke-linejoin="round" d="M33.88666666666667 43.15279166666667c0.07954166666666668 0.520375 0.5884166666666667 0.7676250000000001 1.0599166666666668 0.5328333333333334 0.9238333333333333 -0.46 2.6191250000000004 -1.382875 5.224833333333334 -3.086791666666667 1.23625 -0.8088333333333333 2.1639166666666667 -1.4997916666666666 2.8596666666666666 -2.0738333333333334 1.0656666666666668 -0.87975 0.462875 -2.1083333333333334 -0.9180833333333334 -2.1083333333333334L34.5 36.41666666666667c-0.529 0 -0.9583333333333334 0.43125 -0.9535416666666667 0.9612083333333332 0.02875 3.1069166666666668 0.19933333333333333 4.849166666666666 0.34020833333333333 5.774916666666667Z" stroke-width="2"></path></g></svg>