<svg xmlns="http://www.w3.org/2000/svg" fill="none" viewBox="-1 -1 48 48" height="48" width="48"><g id="feather-pen--change-edit-feather-modify-quill-write-writing"><path id="Subtract" stroke="#000" stroke-linecap="round" stroke-linejoin="round" d="M11.499041666666667 39.29166666666667a31.480291666666666 31.480291666666666 0 0 0 15.985000000000001 -4.331666666666666c0.6372916666666667 -0.37375 0.5845833333333333 -1.2918333333333334 -0.077625 -1.6205416666666668L23.958333333333336 31.625c3.165375 0 9.583333333333334 -1.2812916666666667 9.583333333333334 -1.2812916666666667 6.849208333333334 -6.658500000000001 10.330833333333333 -16.262916666666666 9.437666666666667 -25.723583333333334a1.772916666666667 1.772916666666667 0 0 0 -1.6004166666666666 -1.6004166666666666A31.818583333333333 31.818583333333333 0 0 0 26.833333333333336 5.03125S25.250166666666665 8.761083333333334 24.916666666666668 10.541666666666668l-1.9396666666666669 -2.699625a0.940125 0.940125 0 0 0 -1.2544583333333332 -0.2597083333333334C12.711333333333334 13.116708333333333 6.708333333333334 22.386666666666667 6.708333333333334 34.97916666666667" stroke-width="2"></path><path id="Vector 213" stroke="#000" stroke-linecap="round" stroke-linejoin="round" d="M2.875 43.125c4.791666666666667 -13.895833333333334 20.125 -25.875 32.583333333333336 -32.583333333333336" stroke-width="2"></path></g></svg>