<svg xmlns="http://www.w3.org/2000/svg" fill="none" viewBox="-1 -1 48 48" height="48" width="48"><g id="chat-bubble-oval-smiley-1--messages-message-bubble-chat-oval-smiley-smile"><path id="Ellipse 24" stroke="#000" stroke-linecap="round" stroke-linejoin="round" d="M15.333333333333334 28.75c3.354166666666667 5.110791666666667 11.979166666666668 5.110791666666667 15.333333333333334 0" stroke-width="2"></path><path id="Vector 1115" stroke="#000" stroke-linecap="round" stroke-linejoin="round" d="M16.291666666666668 16.291666666666668v1.9166666666666667" stroke-width="2"></path><path id="Vector 1116" stroke="#000" stroke-linecap="round" stroke-linejoin="round" d="M29.708333333333336 16.291666666666668v1.9166666666666667" stroke-width="2"></path><path id="Union" stroke="#000" stroke-linejoin="round" d="M43.125 23c0 -11.11475 -9.01025 -20.125 -20.125 -20.125S2.875 11.88525 2.875 23c0 3.6435833333333334 0.9679166666666668 7.060041666666667 2.661291666666667 10.007875 -0.8720833333333334 2.2779583333333333 -1.6943333333333335 4.922958333333333 -2.233875 7.567a1.722125 1.722125 0 0 0 2.1054583333333334 2.0316666666666667c2.5328749999999998 -0.5999166666666667 5.103125 -1.43175 7.3609583333333335 -2.2722083333333334A20.031083333333335 20.031083333333335 0 0 0 23 43.125c11.11475 0 20.125 -9.01025 20.125 -20.125Z" stroke-width="2"></path></g></svg>