<svg xmlns="http://www.w3.org/2000/svg" fill="none" viewBox="-1 -1 48 48" height="48" width="48"><g id="galaxy-2--science-space-universe-astronomy"><path id="Ellipse 22" stroke="#000" stroke-linecap="round" stroke-linejoin="round" d="M23 18.208333333333336a4.791666666666667 4.791666666666667 0 1 0 0 9.583333333333334 4.791666666666667 4.791666666666667 0 0 0 0 -9.583333333333334Z" stroke-width="2"></path><path id="Vector" stroke="#000" stroke-linecap="round" stroke-linejoin="round" d="M24.386708333333335 13.892958333333334c-5.970416666666667 -1.6004166666666666 -12.106625 1.9425416666666668 -13.706083333333334 7.912958333333333 -1.8907916666666669 7.05525 2.2961666666666667 14.307916666666667 9.352375 16.198708333333332 9.769250000000001 2.617208333333333 19.81066666666667 -3.1797500000000003 22.428833333333333 -12.949000000000002 2.50125 -9.336083333333335 -2.2779583333333333 -18.90791666666667 -10.856958333333335 -22.686625 -0.8529166666666668 -0.3756666666666667 -1.5908333333333333 0.66125 -1.1250833333333332 1.469125 2.6871666666666667 4.6498333333333335 3.40975 9.967625 3.40975 9.967625" stroke-width="2"></path><path id="Vector_2" stroke="#000" stroke-linecap="round" stroke-linejoin="round" d="M21.612333333333332 32.108c5.970416666666667 1.5994583333333334 12.107583333333334 -1.9435 13.707041666666669 -7.913916666666666 1.8907916666666669 -7.05525 -2.297125 -14.307916666666667 -9.352375 -16.198708333333332C16.197750000000003 5.378166666666667 6.156333333333334 11.176083333333334 3.538166666666667 20.944375c-2.50125 9.336083333333335 2.2779583333333333 18.90791666666667 10.856958333333335 22.686625 0.8529166666666668 0.3756666666666667 1.5908333333333333 -0.66125 1.1250833333333332 -1.4681666666666668 -2.6871666666666667 -4.650791666666667 -3.40975 -9.968583333333333 -3.40975 -9.968583333333333" stroke-width="2"></path></g></svg>