<svg xmlns="http://www.w3.org/2000/svg" fill="none" viewBox="-1 -1 48 48" height="48" width="48"><g id="clean-broom-wipe"><path id="rectangle 21" stroke="#000" stroke-linecap="round" stroke-linejoin="round" d="M4.968 30.622583333333335C6.2579166666666675 25.792583333333337 10.193791666666668 22.041666666666668 15.193416666666666 22.041666666666668c4.691041666666666 0 7.823833333333333 4.240625 7.720333333333333 8.931666666666667l-0.05462500000000001 2.4619583333333335a6.713125 6.713125 0 0 0 2.009625 4.93925l1.0599166666666668 1.04075c1.5199166666666668 1.492125 0.6325000000000001 4.048 -1.4902083333333334 4.224333333333334 -2.7465833333333336 0.227125 -6.142916666666667 0.44370833333333337 -9.105125 0.44370833333333337 -3.8160833333333337 0 -7.631208333333333 -0.359375 -10.014583333333333 -0.6382500000000001 -1.4106666666666667 -0.16483333333333333 -2.451416666666667 -1.3685 -2.3162916666666664 -2.7810833333333336 0.3066666666666667 -3.222875 1.1250833333333332 -6.8885 1.965541666666667 -10.041416666666667Z" stroke-width="2"></path><path id="Rectangle 58" stroke="#000" stroke-linecap="round" stroke-linejoin="round" d="M19.166666666666668 23.01725c1.61 -5.970416666666667 3.31775 -11.948500000000001 4.650791666666667 -17.990791666666667 0.209875 -0.951625 -0.046000000000000006 -1.9262499999999998 -0.9583333333333334 -2.2664583333333335a7.680083333333333 7.680083333333333 0 0 0 -0.687125 -0.21658333333333335 7.673375 7.673375 0 0 0 -0.7034166666666667 -0.15525c-0.96025 -0.16291666666666668 -1.6694166666666668 0.5539166666666666 -1.9626666666666668 1.4825416666666666 -1.8783333333333334 5.933041666666667 -3.3944166666666664 12.000250000000001 -4.995791666666667 18.009000000000004" stroke-width="2"></path><path id="Vector" stroke="#000" stroke-linecap="round" stroke-linejoin="round" d="M43.125 43.125H33.54166666666667" stroke-width="2"></path><path id="Vector_2" stroke="#000" stroke-linecap="round" stroke-linejoin="round" d="M40.25 35.458333333333336H30.666666666666668" stroke-width="2"></path><path id="Vector_3" stroke="#000" stroke-linecap="round" stroke-linejoin="round" d="M37.375 27.791666666666668H27.791666666666668" stroke-width="2"></path><path id="Vector 2105" stroke="#000" stroke-linecap="round" stroke-linejoin="round" d="M9.630291666666666 36.177083333333336c-0.1600416666666667 1.4375 0 4.983333333333333 1.9166666666666667 7.666666666666667" stroke-width="2"></path><path id="Vector 2106" stroke="#000" stroke-linecap="round" stroke-linejoin="round" d="M16.338625 36.41666666666667s0 4.791666666666667 2.828041666666667 7.1875" stroke-width="2"></path></g></svg>