<svg xmlns="http://www.w3.org/2000/svg" fill="none" viewBox="-1 -1 48 48" height="48" width="48"><g id="graphic-template-website-ui"><path id="Rectangle 1098" stroke="#000" stroke-linecap="round" stroke-linejoin="round" d="M35.37208333333333 3.3407500000000003c2.4399166666666665 0.21370833333333333 4.264583333333333 2.1198333333333337 4.434208333333333 4.563583333333333 0.215625 3.0925416666666665 0.44370833333333337 8.030833333333334 0.44370833333333337 15.095666666666668 0 7.063875 -0.22808333333333333 12.003125 -0.44370833333333337 15.095666666666668 -0.169625 2.44375 -1.9942916666666668 4.349875 -4.434208333333333 4.563583333333333C32.69833333333333 42.895 28.63979166666667 43.125 23 43.125s-9.699291666666667 -0.23 -12.372083333333334 -0.46575c-2.4399166666666665 -0.21370833333333333 -4.264583333333333 -2.1198333333333337 -4.434208333333333 -4.563583333333333C5.978083333333334 35.003125 5.75 30.064833333333333 5.75 23c0 -7.063875 0.22808333333333333 -12.003125 0.44370833333333337 -15.095666666666668 0.169625 -2.44375 1.9942916666666668 -4.349875 4.434208333333333 -4.563583333333333C13.301666666666668 3.1050000000000004 17.360208333333333 2.875 23 2.875s9.699291666666667 0.23 12.372083333333334 0.46575Z" stroke-width="2"></path><path id="Vector 2602" stroke="#000" stroke-linecap="round" stroke-linejoin="round" d="M40.25 23H5.75" stroke-width="2"></path><path id="Intersect" stroke="#000" stroke-linecap="round" stroke-linejoin="round" d="M39.72291666666667 38.733916666666666c-3.907125 -3.900416666666667 -6.600041666666667 -6.047083333333333 -8.283833333333334 -7.207625 -1.3608333333333333 -0.9391666666666667 -3.0398333333333336 -0.7858333333333333 -4.307708333333333 0.27791666666666665 -1.4796666666666667 1.239125 -3.8620833333333335 3.383875 -7.485541666666667 7.008291666666667a175.56666666666666 175.56666666666666 0 0 0 -4.041291666666666 4.163958333333333" stroke-width="2"></path><path id="Ellipse 35" stroke="#000" stroke-linecap="round" stroke-linejoin="round" d="M17.25 31.625a2.875 2.875 0 1 1 -5.75 0 2.875 2.875 0 0 1 5.75 0Z" stroke-width="2"></path><path id="Vector" stroke="#000" stroke-linecap="round" stroke-linejoin="round" d="M12.458333333333334 16.291666666666668h21.083333333333336" stroke-width="2"></path><path id="Vector_2" stroke="#000" stroke-linecap="round" stroke-linejoin="round" d="M12.458333333333334 10.0625h11.5" stroke-width="2"></path></g></svg>