<svg xmlns="http://www.w3.org/2000/svg" fill="none" viewBox="-1 -1 48 48" height="48" width="48"><g id="text-image-center-large"><path id="Rectangle 1096" stroke="#000" stroke-linecap="round" stroke-linejoin="round" d="M42.803958333333334 17.7445c-0.2510833333333334 -1.8352083333333333 -1.814125 -3.0360000000000005 -3.6646666666666667 -3.1088333333333336C36.168458333333334 14.517791666666666 30.91966666666667 14.375 23 14.375c-7.919666666666666 0 -13.1675 0.14375 -16.13929166666667 0.2606666666666667 -1.8505416666666668 0.07283333333333333 -3.4135833333333334 1.273625 -3.6646666666666667 3.107875C3.01875 19.033458333333336 2.875 20.77091666666667 2.875 23c0 2.2300416666666667 0.14375 3.966541666666667 0.3210416666666667 5.256458333333334 0.2510833333333334 1.83425 1.814125 3.0350416666666664 3.6646666666666667 3.107875 2.9708333333333337 0.11787500000000001 8.219625 0.2606666666666667 16.13929166666667 0.2606666666666667 7.919666666666666 0 13.1675 -0.14375 16.13929166666667 -0.2606666666666667 1.8505416666666668 -0.07283333333333333 3.4135833333333334 -1.273625 3.6646666666666667 -3.1088333333333336C42.98125 26.9675 43.125 25.231 43.125 23s-0.14375 -3.966541666666667 -0.3210416666666667 -5.2555000000000005Z" stroke-width="2"></path><path id="Rectangle 1100" stroke="#000" stroke-linecap="round" stroke-linejoin="round" d="M34.426208333333335 5.886083333333334c-0.07475 -0.5567916666666667 -0.5318750000000001 -0.8931666666666668 -1.0925 -0.92575C32.099375 4.889416666666667 29.25791666666667 4.791666666666667 23 4.791666666666667c-6.2579166666666675 0 -9.099375 0.09775 -10.333708333333334 0.16866666666666666 -0.560625 0.03258333333333334 -1.0177500000000002 0.36895833333333333 -1.0925 0.92575 -0.042166666666666665 0.31912500000000005 -0.07379166666666667 0.7436666666666667 -0.07379166666666667 1.3014166666666669 0 0.55775 0.031625 0.9822916666666667 0.07379166666666667 1.3014166666666669 0.07475 0.5567916666666667 0.5318750000000001 0.8931666666666668 1.0925 0.92575C13.900625000000002 9.485583333333333 16.742083333333333 9.583333333333334 23 9.583333333333334c6.2579166666666675 0 9.099375 -0.09775 10.333708333333334 -0.16866666666666666 0.560625 -0.03258333333333334 1.0177500000000002 -0.36895833333333333 1.0925 -0.92575 0.042166666666666665 -0.31912500000000005 0.07379166666666667 -0.7436666666666667 0.07379166666666667 -1.3014166666666669 0 -0.55775 -0.031625 -0.9822916666666667 -0.07379166666666667 -1.3014166666666669Z" stroke-width="2"></path><path id="Rectangle 1101" stroke="#000" stroke-linecap="round" stroke-linejoin="round" d="M34.426208333333335 37.51108333333334c-0.07475 -0.5567916666666667 -0.5318750000000001 -0.8931666666666668 -1.0925 -0.92575C32.099375 36.51441666666666 29.25791666666667 36.41666666666667 23 36.41666666666667c-6.2579166666666675 0 -9.099375 0.09775 -10.333708333333334 0.16866666666666666 -0.560625 0.03258333333333334 -1.0177500000000002 0.36895833333333333 -1.0925 0.92575 -0.042166666666666665 0.31912500000000005 -0.07379166666666667 0.7436666666666667 -0.07379166666666667 1.3014166666666669 0 0.55775 0.031625 0.9822916666666667 0.07379166666666667 1.3014166666666669 0.07475 0.5567916666666667 0.5318750000000001 0.8931666666666668 1.0925 0.92575C13.900625000000002 41.11058333333334 16.742083333333333 41.208333333333336 23 41.208333333333336c6.2579166666666675 0 9.099375 -0.09775 10.333708333333334 -0.16866666666666666 0.560625 -0.03258333333333334 1.0177500000000002 -0.36895833333333333 1.0925 -0.92575 0.042166666666666665 -0.31912500000000005 0.07379166666666667 -0.7436666666666667 0.07379166666666667 -1.3014166666666669 0 -0.55775 -0.031625 -0.9822916666666667 -0.07379166666666667 -1.3014166666666669Z" stroke-width="2"></path></g></svg>