<svg xmlns="http://www.w3.org/2000/svg" fill="none" viewBox="-1 -1 48 48" height="48" width="48"><g id="eraser--text-remove-format-formatting-eraser-delete"><path id="Subtract" stroke="#000" stroke-linecap="round" stroke-linejoin="round" d="M3.656041666666667 23.160041666666668c-1.0503333333333336 1.3685 -1.0043333333333335 3.1069166666666668 0.09583333333333334 4.437083333333334 1.1547916666666669 1.39725 3.0714583333333336 3.520916666666667 6.186041666666667 6.5415833333333335 0.18495833333333334 0.18016666666666667 0.3670416666666667 0.3565 0.54625 0.5280416666666667a2.862541666666667 2.862541666666667 0 0 0 2.0700000000000003 0.7896666666666666c2.617208333333333 -0.07666666666666667 6.995833333333334 -0.15333333333333335 13.937041666666666 -0.15333333333333335 0.48300000000000004 0 0.94875 -0.17729166666666668 1.3062083333333334 -0.5021666666666668a169.3835 169.3835 0 0 0 4.066208333333334 -3.8256666666666668c5.253583333333334 -5.095458333333334 8.069166666666668 -8.370083333333334 9.543083333333334 -10.290583333333334 1.0503333333333336 -1.3675416666666667 1.003375 -3.1069166666666668 -0.09583333333333334 -4.437083333333334 -1.1547916666666669 -1.39725 -3.072416666666667 -3.520916666666667 -6.186041666666667 -6.5415833333333335 -3.1136250000000003 -3.020666666666667 -5.303416666666667 -4.880791666666667 -6.7428333333333335 -5.9991666666666665 -1.371375 -1.0675833333333336 -3.164416666666667 -1.112625 -4.575083333333334 -0.09391666666666668 -1.9799166666666665 1.4288750000000001 -5.355166666666667 4.161083333333333 -10.60875 9.256541666666667 -5.252625 5.095458333333334 -8.069166666666668 8.370083333333334 -9.542125 10.290583333333334Z" stroke-width="2"></path><path id="Vector 1291" stroke="#000" stroke-linecap="round" stroke-linejoin="round" d="M8.625 41.208333333333336h34.5" stroke-width="2"></path></g></svg>