<svg xmlns="http://www.w3.org/2000/svg" fill="none" viewBox="-1 -1 48 48" height="48" width="48"><g id="pen-1--content-creation-edit-pen-write"><path id="Subtract" stroke="#000" stroke-linecap="round" stroke-linejoin="round" d="M41.155625 13.049625c1.4298333333333333 2.1974583333333335 0.7091666666666667 4.897083333333334 -1.141375 6.754333333333333L19.799166666666668 40.089958333333335a3.660833333333333 3.660833333333333 0 0 1 -2.379541666666667 1.0848333333333333c-1.6521666666666668 0.09583333333333334 -4.807 0.23670833333333333 -9.620708333333333 0.28270833333333334a0.922875 0.922875 0 0 1 -0.560625 -0.17825 12.358666666666668 12.358666666666668 0 0 1 -1.35125 -1.1662916666666667c-0.46958333333333335 -0.46958333333333335 -0.8586666666666667 -0.9391666666666667 -1.1672500000000001 -1.3522083333333335a0.922875 0.922875 0 0 1 -0.17825 -0.560625c0.046000000000000006 -4.8137083333333335 0.186875 -7.967583333333334 0.28270833333333334 -9.621666666666666a3.660833333333333 3.660833333333333 0 0 1 1.0848333333333333 -2.3785833333333337L26.195083333333333 5.984791666666667c1.8582083333333335 -1.8505416666666668 4.556875 -2.5712083333333333 6.754333333333333 -1.1404166666666666 1.2755416666666666 0.8289583333333334 2.809833333333333 2.017291666666667 4.499375000000001 3.7068333333333334 1.6885833333333333 1.6885833333333333 2.876916666666667 3.222875 3.7068333333333334 4.4984166666666665Z" stroke-width="2"></path><path id="Subtract_2" stroke="#000" stroke-linecap="round" stroke-linejoin="round" d="m34.278625 5.775875 1.7690833333333336 -1.5160833333333334c1.0417083333333332 -0.8931666666666668 2.423625 -1.42025 3.6359166666666667 -0.7762500000000001 0.5050416666666667 0.26833333333333337 1.0637500000000002 0.6545416666666667 1.6205416666666668 1.2122916666666665a6.815666666666667 6.815666666666667 0 0 1 1.2132500000000002 1.6215c0.644 1.2122916666666665 0.11691666666666667 2.5932500000000003 -0.7762500000000001 3.6349583333333335l-1.5170416666666666 1.7700416666666667" stroke-width="2"></path><path id="Rectangle 62" stroke="#000" stroke-linecap="round" stroke-linejoin="round" d="M37.237 22.571625s-1.3445416666666667 -2.9708333333333337 -6.091166666666667 -7.717458333333335c-4.746625000000001 -4.745666666666667 -7.717458333333335 -6.090208333333334 -7.717458333333335 -6.090208333333334" stroke-width="2"></path><path id="Intersect" stroke="#000" stroke-linecap="round" stroke-linejoin="round" d="M18.629041666666666 40.88825c-1.4854166666666668 -2.0144166666666665 -3.6349583333333335 -4.6881666666666675 -6.318291666666667 -7.3619166666666676a64.83125000000001 64.83125000000001 0 0 0 -7.199 -6.157291666666667" stroke-width="2"></path><path id="Vector 1351" stroke="#000" stroke-linecap="round" stroke-linejoin="round" d="M25.875 6.229166666666667c-1.3416666666666666 -0.805 -2.9832916666666667 -1.1595833333333334 -4.16875 -1.3148333333333335 -1.0072083333333333 -0.13225 -1.9847083333333335 0.28175 -2.704416666666667 1.0005000000000002L10.541666666666668 14.375" stroke-width="2"></path><path id="Vector 1352" stroke="#000" stroke-linecap="round" stroke-linejoin="round" d="m5.75 40.25 -2.875 2.875" stroke-width="2"></path></g></svg>