<svg xmlns="http://www.w3.org/2000/svg" fill="none" viewBox="-1 -1 48 48" height="48" width="48"><g id="mail-notification--inbox-envelope-email-message-notify-notification-alert-ping"><path id="Rectangle 1097" stroke="#000" stroke-linecap="round" stroke-linejoin="round" d="M21.083333333333336 10.543583333333334c-6.593333333333334 0.020125 -11.136791666666667 0.24916666666666668 -13.907333333333334 0.4523333333333333 -2.0355000000000003 0.1495 -3.624416666666667 1.6675 -3.8160833333333337 3.6991666666666667C3.12225 17.202083333333334 2.875 21.175333333333334 2.875 26.833333333333336c0 5.658 0.24725000000000003 9.631250000000001 0.4849166666666667 12.139208333333334 0.19166666666666668 2.0316666666666667 1.7825000000000002 3.549666666666667 3.817041666666667 3.6991666666666667C10.081666666666667 42.88541666666667 14.930833333333334 43.125 22.041666666666668 43.125c7.111791666666667 0 11.961916666666667 -0.23958333333333334 14.86375 -0.45329166666666665 2.0355000000000003 -0.1495 3.626333333333333 -1.6675 3.818 -3.6991666666666667C40.961083333333335 36.46458333333333 41.208333333333336 32.490375 41.208333333333336 26.833333333333336c0 -1.3761666666666668 -0.014375 -2.6526666666666667 -0.04025 -3.8333333333333335" stroke-width="2"></path><path id="Intersect" stroke="#000" stroke-linecap="round" stroke-linejoin="round" d="M2.875 25.875c1.1979166666666667 0.6785 13.669666666666666 7.666666666666667 19.166666666666668 7.666666666666667 5.497 0 17.96875 -6.9891250000000005 19.166666666666668 -7.666666666666667" stroke-width="2"></path><path id="Ellipse 19" stroke="#000" stroke-linejoin="round" d="M34.5 2.875a8.625 8.625 0 1 1 0 17.25 8.625 8.625 0 0 1 0 -17.25Z" stroke-width="2"></path></g></svg>