<svg xmlns="http://www.w3.org/2000/svg" fill="none" viewBox="-1 -1 48 48" height="48" width="48"><g id="user-sticker-square"><path id="Subtract" stroke="#000" stroke-linecap="round" stroke-linejoin="round" d="M7.7270416666666675 42.593125c-2.337375 -0.19358333333333336 -4.1265833333333335 -1.98375 -4.320166666666667 -4.320166666666667C3.151 35.192875 2.875 30.200916666666668 2.875 23c0 -7.200916666666667 0.27599999999999997 -12.192875 0.5318750000000001 -15.272958333333333 0.19358333333333336 -2.337375 1.98375 -4.1265833333333335 4.320166666666667 -4.320166666666667C10.807125 3.151 15.799083333333334 2.875 23 2.875c7.200916666666667 0 12.192875 0.27599999999999997 15.272958333333333 0.5318750000000001 2.337375 0.19358333333333336 4.1265833333333335 1.98375 4.320166666666667 4.320166666666667C42.849000000000004 10.807125 43.125 15.799083333333334 43.125 23c0 2.805041666666667 0.06708333333333334 5.51425 0 7.666666666666667L30.666666666666668 43.125c-2.152416666666667 0.06708333333333334 -4.861625000000001 0 -7.666666666666667 0 -7.200916666666667 0 -12.192875 -0.27599999999999997 -15.272958333333333 -0.5318750000000001Z" stroke-width="2"></path><path id="Ellipse 24" stroke="#000" stroke-linecap="round" stroke-linejoin="round" d="M30.666666666666668 27.791666666666668c-4.2339166666666666 5.110791666666667 -11.099416666666668 5.110791666666667 -15.333333333333334 0" stroke-width="2"></path><path id="Vector 1218" stroke="#000" stroke-linecap="round" stroke-linejoin="round" d="M15.333333333333334 16.291666666666668v1.9166666666666667" stroke-width="2"></path><path id="Vector 1219" stroke="#000" stroke-linecap="round" stroke-linejoin="round" d="M30.666666666666668 16.291666666666668v1.9166666666666667" stroke-width="2"></path><path id="Intersect" stroke="#000" stroke-linecap="round" stroke-linejoin="round" d="M43.125 30.666666666666668c-3.3052916666666667 0.10158333333333333 -5.846791666666667 0.2798333333333333 -7.691583333333334 0.45425 -2.3249166666666667 0.21945833333333334 -4.092083333333333 1.9875833333333333 -4.3125 4.3125 -0.17441666666666666 1.8438333333333334 -0.3526666666666667 4.386291666666667 -0.45425 7.691583333333334" stroke-width="2"></path></g></svg>