<svg xmlns="http://www.w3.org/2000/svg" fill="none" viewBox="-1 -1 48 48" height="48" width="48"><g id="shipment-upload--shipping-parcel-shipment-upload"><path id="Vector" stroke="#000" stroke-linecap="round" stroke-linejoin="round" d="M23 2.875c5.820916666666667 0 9.186583333333333 0.24533333333333335 11.090791666666668 0.48875 1.5505833333333334 0.19645833333333332 2.8040833333333337 1.1298750000000002 3.6522083333333333 2.442791666666667 1.1001666666666665 1.7000833333333334 2.6852500000000004 4.305791666666667 3.9722916666666666 7.03225 1.0541666666666667 2.2348333333333334 1.40875 4.7130833333333335 1.40875 7.1846250000000005L43.125 29.229166666666668c0 3.7039583333333335 -0.1945416666666667 6.763916666666667 -0.40729166666666666 9.008333333333335 -0.24245833333333336 2.543416666666667 -2.2980833333333335 4.426541666666667 -4.849166666666666 4.555916666666667 -3.1816666666666666 0.161 -8.133375000000001 0.33158333333333334 -14.868541666666667 0.33158333333333334 -6.735166666666666 0 -11.686875 -0.17058333333333334 -14.868541666666667 -0.33158333333333334 -2.551083333333333 -0.13033333333333336 -4.607666666666667 -2.0125 -4.849166666666666 -4.555916666666667A95.74325 95.74325 0 0 1 2.875 29.229166666666668l0 -9.20575c0 -2.4725 0.35458333333333336 -4.949791666666667 1.4097083333333336 -7.1846250000000005 1.2870416666666666 -2.7264583333333334 2.872125 -5.332166666666667 3.9722916666666666 -7.03225 0.848125 -1.3129166666666667 2.1016250000000003 -2.2463333333333333 3.65125 -2.44375C13.814375 3.1203333333333334 17.180041666666668 2.875 23 2.875Z" stroke-width="2"></path><path id="Rectangle 1096" stroke="#000" stroke-linecap="round" stroke-linejoin="round" d="M3.2822916666666666 38.308416666666666c0.23479166666666668 2.47825 2.2262083333333336 4.298125000000001 4.711166666666667 4.439958333333333 3.1759166666666667 0.18208333333333335 8.174583333333333 0.37662500000000004 15.006541666666667 0.37662500000000004 6.832916666666667 0 11.830625000000001 -0.1945416666666667 15.006541666666667 -0.37662500000000004 2.4849583333333336 -0.14183333333333334 4.476375 -1.9617083333333336 4.711166666666667 -4.439958333333333 0.21275000000000002 -2.256875 0.40729166666666666 -5.441416666666667 0.40729166666666666 -9.558416666666668s-0.1945416666666667 -7.301541666666667 -0.40729166666666666 -9.558416666666668c-0.23479166666666668 -2.47825 -2.2262083333333336 -4.298125000000001 -4.711166666666667 -4.439958333333333C34.830625 14.569541666666666 29.831958333333336 14.375 23 14.375c-6.832916666666667 0 -11.830625000000001 0.1945416666666667 -15.006541666666667 0.37662500000000004 -2.4849583333333336 0.14183333333333334 -4.476375 1.9617083333333336 -4.711166666666667 4.439958333333333C3.069541666666667 21.448458333333335 2.875 24.633000000000003 2.875 28.75s0.1945416666666667 7.301541666666667 0.40729166666666666 9.558416666666668Z" stroke-width="2"></path><path id="Vector 844" stroke="#000" stroke-linecap="round" stroke-linejoin="round" d="M23 2.875v11.5" stroke-width="2"></path><path id="Union" stroke="#000" stroke-linecap="round" stroke-linejoin="round" d="M16.046333333333333 27.481166666666667c-0.9305416666666667 1.1883333333333335 -0.2836666666666667 2.612416666666667 1.2237916666666666 2.7005833333333333a75.57416666666667 75.57416666666667 0 0 0 2.482083333333333 0.09966666666666667c0.07091666666666667 1.7537500000000001 0.16195833333333334 3.5170833333333333 0.22808333333333333 4.722666666666667 0.050791666666666666 0.9391666666666667 0.6564583333333334 1.7614166666666669 1.5860416666666668 1.9070833333333335 0.4187916666666667 0.06420833333333334 0.905625 0.11212500000000002 1.4346250000000003 0.11212500000000002 0.529 0 1.0158333333333334 -0.04791666666666667 1.4355833333333334 -0.11308333333333333 0.9305416666666667 -0.14375 1.5371666666666668 -0.9679166666666668 1.5879583333333334 -1.9080416666666669 0.06516666666666668 -1.2065416666666666 0.15525 -2.967 0.22520833333333332 -4.720750000000001a74.38775 74.38775 0 0 0 2.480166666666667 -0.09966666666666667c1.5084166666666667 -0.08816666666666667 2.15625 -1.51225 1.22475 -2.7005833333333333a59.6505 59.6505 0 0 0 -2.2492083333333333 -2.6871666666666667c-1.474875 -1.6703750000000002 -2.6028333333333338 -2.6670416666666665 -3.3848333333333334 -3.2545 -0.805 -0.6056666666666667 -1.83425 -0.6056666666666667 -2.6402083333333333 0 -0.7810416666666666 0.5874583333333333 -1.909 1.5850833333333334 -3.383875 3.2545a59.613125000000004 59.613125000000004 0 0 0 -2.2501666666666664 2.6871666666666667Z" stroke-width="2"></path></g></svg>