<svg xmlns="http://www.w3.org/2000/svg" fill="none" viewBox="-1 -1 48 48" height="48" width="48"><g id="fill-and-sign--essential-files-folder-fill-and-sign"><path id="Rectangle 62" stroke="#000" stroke-linecap="round" stroke-linejoin="round" d="M35.651916666666665 15.988833333333336c1.6262916666666667 -1.62725 2.1016250000000003 -4.073875 0.7532500000000001 -5.937833333333334A27.727458333333335 27.727458333333335 0 0 0 33.54166666666667 6.708333333333334a27.721708333333336 27.721708333333336 0 0 0 -3.3426666666666667 -2.8635c-1.8639583333333334 -1.348375 -4.310583333333334 -0.8730416666666667 -5.937833333333334 0.7532500000000001L4.0441666666666665 24.817c-0.5673333333333334 0.566375 -0.9410833333333334 1.2956666666666667 -1.0110416666666666 2.0939583333333336 -0.13416666666666668 1.5218333333333334 -0.27791666666666665 4.437083333333334 0.010541666666666666 8.57325a1.8591666666666666 1.8591666666666666 0 0 0 1.7230833333333335 1.7230833333333335c4.137125 0.28941666666666666 7.051416666666666 0.14566666666666667 8.57325 0.010541666666666666 0.7982916666666666 -0.06995833333333333 1.5275833333333335 -0.44370833333333337 2.0939583333333336 -1.0110416666666666l20.218916666666665 -20.217958333333335Z" stroke-width="2"></path><path id="Rectangle 63" stroke="#000" stroke-linecap="round" stroke-linejoin="round" d="M31.62404166666667 19.056458333333335s-0.598 -2.6622500000000002 -4.184083333333334 -6.248333333333333C23.853875 9.223958333333334 21.191625000000002 8.625 21.191625000000002 8.625" stroke-width="2"></path><path id="Rectangle 64" stroke="#000" stroke-linecap="round" stroke-linejoin="round" d="M14.374041666666669 36.30645833333333s-0.598 -2.6622500000000002 -4.184083333333334 -6.248333333333333C6.603875 26.473958333333336 3.9416250000000006 25.875 3.9416250000000006 25.875" stroke-width="2"></path><path id="Vector 1315" stroke="#000" stroke-linecap="round" stroke-linejoin="round" d="M2.875 43.125h23a11.5 11.5 0 0 0 6.9 -2.3l0.7666666666666667 -0.575m0 0 2.3 -1.725a3.8333333333333335 3.8333333333333335 0 1 0 -4.6 0L33.54166666666667 40.25Zm0 0 2.3 1.725A5.75 5.75 0 0 0 39.29166666666667 43.125h4.791666666666667" stroke-width="2"></path></g></svg>