<svg xmlns="http://www.w3.org/2000/svg" fill="none" viewBox="-1 -1 48 48" height="48" width="48"><g id="delete-row"><path id="Rectangle 1095" stroke="#000" stroke-linecap="round" stroke-linejoin="round" d="M8.918249999999999 3.0858333333333334C7.4750000000000005 3.1414166666666667 6.2445 4.051833333333334 6.027916666666667 5.478791666666667 5.874583333333334 6.483125 5.75 7.839166666666666 5.75 9.583333333333334c0 1.7441666666666669 0.12458333333333334 3.1002083333333332 0.27791666666666665 4.1055 0.21658333333333335 1.4279166666666667 1.4470833333333335 2.3383333333333334 2.8903333333333334 2.3910416666666667C11.415666666666668 16.172833333333337 15.985000000000001 16.291666666666668 23 16.291666666666668c7.015000000000001 0 11.584333333333333 -0.11883333333333333 14.081750000000001 -0.21083333333333334 1.4422916666666665 -0.05462500000000001 2.67375 -0.9650416666666666 2.8903333333333334 -2.392 0.15333333333333335 -1.0052916666666667 0.27791666666666665 -2.3603750000000003 0.27791666666666665 -4.1055 0 -1.7441666666666669 -0.12458333333333334 -3.1002083333333332 -0.27791666666666665 -4.1055 -0.21658333333333335 -1.4279166666666667 -1.4470833333333335 -2.3383333333333334 -2.8903333333333334 -2.3910416666666667C34.58433333333333 2.9938333333333333 30.015 2.875 23 2.875c-7.015000000000001 0 -11.584333333333333 0.11883333333333333 -14.081750000000001 0.21083333333333334Z" stroke-width="2"></path><path id="Rectangle 1096" stroke="#000" stroke-linecap="round" stroke-linejoin="round" d="M33.0625 35.36154166666667c1.687625 -0.03641666666666667 3.01875 -0.077625 4.01925 -0.115 1.4422916666666665 -0.05366666666666667 2.67375 -0.9640833333333334 2.8903333333333334 -2.3910416666666667 0.15333333333333335 -1.0052916666666667 0.27791666666666665 -2.3603750000000003 0.27791666666666665 -4.1055 0 -1.7441666666666669 -0.12458333333333334 -3.1002083333333332 -0.27791666666666665 -4.1055 -0.21658333333333335 -1.4279166666666667 -1.4470833333333335 -2.3383333333333334 -2.8903333333333334 -2.3910416666666667C34.58433333333333 22.1605 30.015 22.041666666666668 23 22.041666666666668c-7.015000000000001 0 -11.584333333333333 0.11883333333333333 -14.081750000000001 0.21083333333333334 -1.4432500000000001 0.05462500000000001 -2.67375 0.9650416666666666 -2.8903333333333334 2.392C5.874583333333334 25.64979166666667 5.75 27.005833333333335 5.75 28.75c0 1.7441666666666669 0.12458333333333334 3.1002083333333332 0.27791666666666665 4.1055 0.21658333333333335 1.4279166666666667 1.4470833333333335 2.3383333333333334 2.8903333333333334 2.3910416666666667 0.9995416666666667 0.037375 2.331625 0.07858333333333334 4.01925 0.115" stroke-width="2"></path><path id="Union" stroke="#000" stroke-linecap="round" stroke-linejoin="round" d="M30.161625 39.094249999999995a1.9684166666666665 1.9684166666666665 0 0 1 -0.0805 2.717833333333333l-0.727375 0.7283333333333334a1.9684166666666665 1.9684166666666665 0 0 1 -2.716875 0.07954166666666668A154.49291666666667 154.49291666666667 0 0 1 23 39.21787500000001a154.49291666666667 154.49291666666667 0 0 1 -3.6359166666666667 3.402083333333333 1.9693750000000003 1.9693750000000003 0 0 1 -2.717833333333333 -0.0805l-0.7283333333333334 -0.727375a1.9693750000000003 1.9693750000000003 0 0 1 -0.07954166666666668 -2.717833333333333A154.49291666666667 154.49291666666667 0 0 1 19.240458333333336 35.458333333333336a154.49291666666667 154.49291666666667 0 0 1 -3.402083333333333 -3.6359166666666667 1.9693750000000003 1.9693750000000003 0 0 1 0.0805 -2.717833333333333l0.727375 -0.7283333333333334a1.9684166666666665 1.9684166666666665 0 0 1 2.716875 -0.07954166666666668c0.8960416666666667 0.81075 2.165833333333333 1.9818333333333336 3.636875 3.402083333333333a154.49291666666667 154.49291666666667 0 0 1 3.6359166666666667 -3.402083333333333 1.9693750000000003 1.9693750000000003 0 0 1 2.717833333333333 0.0805l0.7283333333333334 0.727375c0.7436666666666667 0.7446250000000001 0.7858333333333333 1.9358333333333335 0.07954166666666668 2.716875A154.49291666666667 154.49291666666667 0 0 1 26.759541666666667 35.458333333333336a154.49291666666667 154.49291666666667 0 0 1 3.402083333333333 3.6359166666666667Z" stroke-width="2"></path></g></svg>