<svg xmlns="http://www.w3.org/2000/svg" fill="none" viewBox="-1 -1 48 48" height="48" width="48"><g id="synchronize--arrows-loading-load-sync-synchronize-arrow-reload"><path id="Union" stroke="#000" stroke-linecap="round" stroke-linejoin="round" d="M20.93 2.9832916666666667c1.2314583333333333 -0.12841666666666668 2.3325833333333335 0.704375 2.322041666666667 1.9425416666666668a9.466416666666667 9.466416666666667 0 0 1 -0.4791666666666667 2.8702083333333337c-0.31625000000000003 0.9640833333333334 -1.256375 1.5266250000000001 -2.2549583333333336 1.710625a13.689791666666668 13.689791666666668 0 0 0 -9.404125 6.634541666666667c-2.97275 5.148166666666667 -2.2290833333333335 11.422375 1.39725 15.716666666666667 0.8241666666666667 -0.6344166666666667 1.5352500000000002 -1.15 2.1409166666666666 -1.56975 1.31675 -0.911375 2.8884166666666666 -0.060375000000000005 2.865416666666667 1.5410000000000001 -0.035458333333333335 2.5050833333333333 -0.32583333333333336 5.227708333333333 -0.6430416666666667 7.510458333333333a2.7561666666666667 2.7561666666666667 0 0 1 -2.8337916666666665 2.3785833333333337c-2.322041666666667 -0.08433333333333333 -5.078208333333334 -0.27408333333333335 -7.567 -0.6804166666666667 -1.5620833333333333 -0.255875 -2.122708333333333 -1.917625 -1.0100833333333334 -3.0446250000000004a52.294333333333334 52.294333333333334 0 0 1 2.1322916666666667 -2.02975c-5.2995833333333335 -6.297208333333334 -6.380583333333334 -15.483791666666667 -2.0268750000000004 -23.023000000000003 3.3532083333333333 -5.8075 9.164541666666668 -9.312125 15.361125000000001 -9.957083333333335Z" stroke-width="2"></path><path id="Union_2" stroke="#000" stroke-linecap="round" stroke-linejoin="round" d="M25.07 43.015750000000004c-1.2314583333333333 0.12841666666666668 -2.3325833333333335 -0.7034166666666667 -2.322041666666667 -1.9415833333333332 0.0067083333333333335 -0.7954166666666667 0.12170833333333334 -1.7777083333333334 0.4791666666666667 -2.8702083333333337 0.31625000000000003 -0.9650416666666666 1.256375 -1.5266250000000001 2.2549583333333336 -1.710625a13.689791666666668 13.689791666666668 0 0 0 9.405083333333334 -6.634541666666667c2.971791666666667 -5.149125000000001 2.2281250000000004 -11.423333333333334 -1.3991666666666667 -15.716666666666667a52.64125 52.64125 0 0 1 -2.1399583333333334 1.56975c-1.31675 0.9104166666666667 -2.8884166666666666 0.059416666666666666 -2.865416666666667 -1.5419583333333333 0.035458333333333335 -2.5050833333333333 0.32583333333333336 -5.227708333333333 0.6420833333333335 -7.510458333333333a2.7561666666666667 2.7561666666666667 0 0 1 2.83475 -2.377625c2.322041666666667 0.08433333333333333 5.078208333333334 0.27408333333333335 7.567 0.6804166666666667 1.5620833333333333 0.2549166666666667 2.122708333333333 1.9166666666666667 1.0100833333333334 3.0436666666666667a52.34320833333334 52.34320833333334 0 0 1 -2.1322916666666667 2.0307083333333336c5.2995833333333335 6.296250000000001 6.380583333333334 15.482833333333334 2.0268750000000004 23.023000000000003 -3.3532083333333333 5.8075 -9.164541666666668 9.312125 -15.361125000000001 9.957083333333335Z" stroke-width="2"></path></g></svg>