<svg xmlns="http://www.w3.org/2000/svg" fill="none" viewBox="-1 -1 48 48" height="48" width="48"><g id="gift--reward-box-social-present-gift-media-rating-bow"><path id="Rectangle 1095" stroke="#000" stroke-linecap="round" stroke-linejoin="round" d="M42.690875 38.359208333333335c-0.2232916666666667 2.3162916666666664 -2.0220833333333332 4.033625 -4.3412500000000005 4.2272083333333335 -3.0743333333333336 0.25875000000000004 -8.089291666666668 0.5385833333333334 -15.349625 0.5385833333333334 -7.2603333333333335 0 -12.276250000000001 -0.28079166666666666 -15.349625 -0.5385833333333334 -2.319166666666667 -0.19358333333333336 -4.117958333333333 -1.9109166666666668 -4.3412500000000005 -4.22625C3.084875 36.036208333333335 2.875 32.58045833333333 2.875 27.791666666666668c0 -4.788791666666667 0.21083333333333334 -8.2455 0.43412500000000004 -10.567541666666667 0.2232916666666667 -2.3162916666666664 2.0220833333333332 -4.033625 4.3412500000000005 -4.2272083333333335C10.724708333333334 12.738166666666666 15.739666666666666 12.458333333333334 23 12.458333333333334c7.2603333333333335 0 12.276250000000001 0.28079166666666666 15.349625 0.5385833333333334 2.319166666666667 0.19358333333333336 4.117958333333333 1.9109166666666668 4.3412500000000005 4.22625 0.22425000000000003 2.323 0.43412500000000004 5.7787500000000005 0.43412500000000004 10.5685 0 4.788791666666667 -0.21083333333333334 8.2455 -0.43412500000000004 10.567541666666667Z" stroke-width="2"></path><path id="Vector 1518" stroke="#000" stroke-linecap="round" stroke-linejoin="round" d="M23 12.458333333333334v30.666666666666668" stroke-width="2"></path><path id="Vector 1519" stroke="#000" stroke-linecap="round" stroke-linejoin="round" d="M2.875 27.791666666666668h40.25" stroke-width="2"></path><path id="Vector" stroke="#000" stroke-linecap="round" stroke-linejoin="round" d="M23 12.458333333333334c0 -2.875 -3.8333333333333335 -9.583333333333334 -9.583333333333334 -9.583333333333334 -3.354166666666667 0 -5.75 2.5740833333333333 -5.75 5.75 0 1.6119166666666667 0.6631666666666667 3.069541666666667 1.7326666666666668 4.113166666666666" stroke-width="2"></path><path id="Vector_2" stroke="#000" stroke-linecap="round" stroke-linejoin="round" d="M23 12.458333333333334c0 -2.875 3.8333333333333335 -9.583333333333334 9.583333333333334 -9.583333333333334 3.354166666666667 0 5.75 2.5740833333333333 5.75 5.75a5.73275 5.73275 0 0 1 -1.7326666666666668 4.113166666666666" stroke-width="2"></path></g></svg>