<svg xmlns="http://www.w3.org/2000/svg" fill="none" viewBox="-1 -1 48 48" height="48" width="48"><g id="global-warming-2--nature-environment-earth-planet-hot-thermometer-warm"><path id="Ellipse 19" stroke="#000" stroke-linecap="round" stroke-linejoin="round" d="M20.604166666666668 6.436166666666667A13.36875 13.36875 0 0 1 29.708333333333336 2.875c7.409833333333334 0 13.416666666666668 6.006833333333334 13.416666666666668 13.416666666666668s-6.006833333333334 13.416666666666668 -13.416666666666668 13.416666666666668c-1.3320833333333333 0 -2.6191250000000004 -0.1945416666666667 -3.8333333333333335 -0.5558333333333333" stroke-width="2"></path><path id="Intersect" stroke="#000" stroke-linecap="round" stroke-linejoin="round" d="M31.822416666666673 3.040791666666667a31.96041666666667 31.96041666666667 0 0 1 0.1725 4.617249999999999c-0.024916666666666667 0.74175 -0.2798333333333333 1.46625 -0.8040416666666667 1.9914166666666666 -1.1615 1.1653333333333333 -2.3067083333333334 1.5505833333333334 -2.7561666666666667 1.6646250000000002a2.289458333333333 2.289458333333333 0 0 1 -0.40058333333333335 0.05462500000000001c-0.7858333333333333 0.0575 -3.621541666666667 0.345 -4.026916666666667 1.56975 -0.313375 0.9430000000000001 0.12841666666666668 2.837625 0.462875 4.009666666666667 0.18975000000000003 0.6650833333333334 0.2549166666666667 1.365625 0.05558333333333334 2.0287916666666668 -0.23479166666666668 0.7800833333333334 -0.6468750000000001 1.8764166666666666 -1.3062083333333334 2.809833333333333a2.2175833333333337 2.2175833333333337 0 0 1 -0.4216666666666667 0.44850000000000007" stroke-width="2"></path><path id="Intersect_2" stroke="#000" stroke-linecap="round" stroke-linejoin="round" d="M43.02916666666667 17.909333333333333c-3.1203333333333334 -0.6420833333333335 -6.271333333333333 -1.0695000000000001 -8.158291666666667 -1.2966250000000001 -1.1404166666666666 -0.13704166666666667 -2.34025 0.07666666666666667 -3.128 0.9123333333333333a7.15875 7.15875 0 0 0 -0.8088333333333333 1.0388333333333335c-1.049375 1.6310833333333334 -0.20220833333333332 3.6320833333333336 1.3339999999999999 4.816583333333333l1.3838333333333332 1.0675833333333336c0.485875 0.37375 0.773375 0.94875 0.807875 1.5601666666666667 0.03833333333333334 0.6679583333333333 0.11020833333333334 1.633 0.24725000000000003 2.7379583333333337" stroke-width="2"></path><path id="Union" stroke="#000" stroke-linecap="round" stroke-linejoin="round" d="M6.71025 25.872125A9.568958333333333 9.568958333333333 0 0 0 2.875 33.54166666666667c0 5.2928749999999996 4.2904583333333335 9.583333333333334 9.583333333333334 9.583333333333334s9.583333333333334 -4.2904583333333335 9.583333333333334 -9.583333333333334a9.568958333333333 9.568958333333333 0 0 0 -3.83525 -7.669541666666667L18.208333333333336 24.4375c0 -5.29 -0.08816666666666667 -9.026541666666667 -0.1955 -11.615C17.871958333333335 9.432875000000001 15.851791666666667 6.708333333333334 12.458333333333334 6.708333333333334c-3.3934583333333332 0 -5.414583333333334 2.7235833333333335 -5.554500000000001 6.114166666666667C6.7965 15.411916666666668 6.708333333333334 19.1475 6.708333333333334 24.4375c0 0.49162500000000003 0 0.9698333333333334 0.0019166666666666668 1.4346250000000003Z" stroke-width="2"></path><path id="Ellipse 185" stroke="#000" stroke-linecap="round" stroke-linejoin="round" d="M15.333333333333334 33.54166666666667a2.875 2.875 0 1 1 -5.75 0 2.875 2.875 0 1 1 5.75 0" stroke-width="2"></path><path id="Vector 1184" stroke="#000" stroke-linecap="round" stroke-linejoin="round" d="m12.458333333333334 13.416666666666668 0 17.25" stroke-width="2"></path></g></svg>