<svg xmlns="http://www.w3.org/2000/svg" fill="none" viewBox="-1 -1 48 48" height="48" width="48"><g id="align-selection"><path id="Vector" stroke="#000" stroke-linecap="round" stroke-linejoin="round" d="M2.9171666666666667 24.831375a1.5362083333333334 1.5362083333333334 0 0 0 1.480625 1.480625c0.474375 0.023958333333333335 1.081 0.042166666666666665 1.8313750000000002 0.042166666666666665 0.750375 0 1.357 -0.018208333333333333 1.8313750000000002 -0.042166666666666665a1.5362083333333334 1.5362083333333334 0 0 0 1.480625 -1.480625C9.565125 24.357000000000003 9.583333333333334 23.750375000000002 9.583333333333334 23c0 -0.750375 -0.018208333333333333 -1.357 -0.042166666666666665 -1.8313750000000002a1.5362083333333334 1.5362083333333334 0 0 0 -1.480625 -1.480625A36.633250000000004 36.633250000000004 0 0 0 6.229166666666667 19.645833333333336c-0.750375 0 -1.357 0.018208333333333333 -1.8313750000000002 0.042166666666666665a1.5362083333333334 1.5362083333333334 0 0 0 -1.480625 1.480625A36.59108333333334 36.59108333333334 0 0 0 2.875 23c0 0.750375 0.018208333333333333 1.357 0.042166666666666665 1.8313750000000002Z" stroke-width="2"></path><path id="Vector_2" stroke="#000" stroke-linecap="round" stroke-linejoin="round" d="M36.45883333333333 24.831375a1.5362083333333334 1.5362083333333334 0 0 0 1.480625 1.480625c0.474375 0.023958333333333335 1.081 0.042166666666666665 1.8313750000000002 0.042166666666666665 0.750375 0 1.357 -0.018208333333333333 1.8313750000000002 -0.042166666666666665a1.5362083333333334 1.5362083333333334 0 0 0 1.480625 -1.480625c0.023958333333333335 -0.474375 0.042166666666666665 -1.081 0.042166666666666665 -1.8313750000000002 0 -0.750375 -0.018208333333333333 -1.357 -0.042166666666666665 -1.8313750000000002a1.5362083333333334 1.5362083333333334 0 0 0 -1.480625 -1.480625A36.639 36.639 0 0 0 39.770833333333336 19.645833333333336c-0.750375 0 -1.357 0.018208333333333333 -1.8313750000000002 0.042166666666666665a1.5362083333333334 1.5362083333333334 0 0 0 -1.480625 1.480625A36.639 36.639 0 0 0 36.41666666666667 23c0 0.750375 0.018208333333333333 1.357 0.042166666666666665 1.8313750000000002Z" stroke-width="2"></path><path id="Vector_3" stroke="#000" stroke-linecap="round" stroke-linejoin="round" d="M2.9171666666666667 41.60220833333334a1.5362083333333334 1.5362083333333334 0 0 0 1.480625 1.480625c0.474375 0.023958333333333335 1.081 0.042166666666666665 1.8313750000000002 0.042166666666666665 0.750375 0 1.357 -0.018208333333333333 1.8313750000000002 -0.042166666666666665a1.5362083333333334 1.5362083333333334 0 0 0 1.480625 -1.480625c0.023958333333333335 -0.474375 0.042166666666666665 -1.081 0.042166666666666665 -1.8313750000000002 0 -0.750375 -0.018208333333333333 -1.357 -0.042166666666666665 -1.8313750000000002a1.5362083333333334 1.5362083333333334 0 0 0 -1.480625 -1.480625A36.633250000000004 36.633250000000004 0 0 0 6.229166666666667 36.41666666666667c-0.750375 0 -1.357 0.018208333333333333 -1.8313750000000002 0.042166666666666665a1.5362083333333334 1.5362083333333334 0 0 0 -1.480625 1.480625A36.59108333333334 36.59108333333334 0 0 0 2.875 39.770833333333336c0 0.750375 0.018208333333333333 1.357 0.042166666666666665 1.8313750000000002Z" stroke-width="2"></path><path id="Vector_4" stroke="#000" stroke-linecap="round" stroke-linejoin="round" d="M19.688000000000002 41.60220833333334a1.5362083333333334 1.5362083333333334 0 0 0 1.480625 1.480625c0.474375 0.023958333333333335 1.081 0.042166666666666665 1.8313750000000002 0.042166666666666665 0.750375 0 1.357 -0.018208333333333333 1.8313750000000002 -0.042166666666666665a1.5362083333333334 1.5362083333333334 0 0 0 1.480625 -1.480625c0.023958333333333335 -0.474375 0.042166666666666665 -1.081 0.042166666666666665 -1.8313750000000002 0 -0.750375 -0.018208333333333333 -1.357 -0.042166666666666665 -1.8313750000000002a1.5362083333333334 1.5362083333333334 0 0 0 -1.480625 -1.480625A36.639 36.639 0 0 0 23 36.41666666666667c-0.750375 0 -1.357 0.018208333333333333 -1.8313750000000002 0.042166666666666665a1.5362083333333334 1.5362083333333334 0 0 0 -1.480625 1.480625A36.639 36.639 0 0 0 19.645833333333336 39.770833333333336c0 0.750375 0.018208333333333333 1.357 0.042166666666666665 1.8313750000000002Z" stroke-width="2"></path><path id="Vector_5" stroke="#000" stroke-linecap="round" stroke-linejoin="round" d="M36.45883333333333 41.60220833333334a1.5362083333333334 1.5362083333333334 0 0 0 1.480625 1.480625c0.474375 0.023958333333333335 1.081 0.042166666666666665 1.8313750000000002 0.042166666666666665 0.750375 0 1.357 -0.018208333333333333 1.8313750000000002 -0.042166666666666665a1.5362083333333334 1.5362083333333334 0 0 0 1.480625 -1.480625c0.023958333333333335 -0.474375 0.042166666666666665 -1.081 0.042166666666666665 -1.8313750000000002 0 -0.750375 -0.018208333333333333 -1.357 -0.042166666666666665 -1.8313750000000002a1.5362083333333334 1.5362083333333334 0 0 0 -1.480625 -1.480625A36.639 36.639 0 0 0 39.770833333333336 36.41666666666667c-0.750375 0 -1.357 0.018208333333333333 -1.8313750000000002 0.042166666666666665a1.5362083333333334 1.5362083333333334 0 0 0 -1.480625 1.480625A36.639 36.639 0 0 0 36.41666666666667 39.770833333333336c0 0.750375 0.018208333333333333 1.357 0.042166666666666665 1.8313750000000002Z" stroke-width="2"></path><path id="Vector_6" stroke="#000" stroke-linecap="round" stroke-linejoin="round" d="M2.9171666666666667 8.060541666666667a1.5362083333333334 1.5362083333333334 0 0 0 1.480625 1.480625C4.872166666666667 9.565125 5.478791666666667 9.583333333333334 6.229166666666667 9.583333333333334c0.750375 0 1.357 -0.018208333333333333 1.8313750000000002 -0.042166666666666665a1.5362083333333334 1.5362083333333334 0 0 0 1.480625 -1.480625C9.565125 7.586166666666667 9.583333333333334 6.979541666666667 9.583333333333334 6.229166666666667c0 -0.750375 -0.018208333333333333 -1.357 -0.042166666666666665 -1.8313750000000002a1.5362083333333334 1.5362083333333334 0 0 0 -1.480625 -1.480625A36.58533333333334 36.58533333333334 0 0 0 6.229166666666667 2.875c-0.750375 0 -1.357 0.018208333333333333 -1.8313750000000002 0.042166666666666665a1.5362083333333334 1.5362083333333334 0 0 0 -1.480625 1.480625A36.58533333333334 36.58533333333334 0 0 0 2.875 6.229166666666667c0 0.750375 0.018208333333333333 1.357 0.042166666666666665 1.8313750000000002Z" stroke-width="2"></path><path id="Vector_7" stroke="#000" stroke-linecap="round" stroke-linejoin="round" d="M19.688000000000002 8.060541666666667a1.5362083333333334 1.5362083333333334 0 0 0 1.480625 1.480625c0.474375 0.023958333333333335 1.081 0.042166666666666665 1.8313750000000002 0.042166666666666665 0.750375 0 1.357 -0.018208333333333333 1.8313750000000002 -0.042166666666666665a1.5362083333333334 1.5362083333333334 0 0 0 1.480625 -1.480625c0.023958333333333335 -0.474375 0.042166666666666665 -1.081 0.042166666666666665 -1.8313750000000002 0 -0.750375 -0.018208333333333333 -1.357 -0.042166666666666665 -1.8313750000000002a1.5362083333333334 1.5362083333333334 0 0 0 -1.480625 -1.480625A36.59108333333334 36.59108333333334 0 0 0 23 2.875c-0.750375 0 -1.357 0.018208333333333333 -1.8313750000000002 0.042166666666666665a1.5362083333333334 1.5362083333333334 0 0 0 -1.480625 1.480625A36.633250000000004 36.633250000000004 0 0 0 19.645833333333336 6.229166666666667c0 0.750375 0.018208333333333333 1.357 0.042166666666666665 1.8313750000000002Z" stroke-width="2"></path><path id="Vector_8" stroke="#000" stroke-linecap="round" stroke-linejoin="round" d="M36.45883333333333 8.060541666666667a1.5362083333333334 1.5362083333333334 0 0 0 1.480625 1.480625c0.474375 0.023958333333333335 1.081 0.042166666666666665 1.8313750000000002 0.042166666666666665 0.750375 0 1.357 -0.018208333333333333 1.8313750000000002 -0.042166666666666665a1.5362083333333334 1.5362083333333334 0 0 0 1.480625 -1.480625C43.10679166666667 7.586166666666667 43.125 6.979541666666667 43.125 6.229166666666667c0 -0.750375 -0.018208333333333333 -1.357 -0.042166666666666665 -1.8313750000000002a1.5362083333333334 1.5362083333333334 0 0 0 -1.480625 -1.480625A36.59108333333334 36.59108333333334 0 0 0 39.770833333333336 2.875c-0.750375 0 -1.357 0.018208333333333333 -1.8313750000000002 0.042166666666666665a1.5362083333333334 1.5362083333333334 0 0 0 -1.480625 1.480625A36.633250000000004 36.633250000000004 0 0 0 36.41666666666667 6.229166666666667c0 0.750375 0.018208333333333333 1.357 0.042166666666666665 1.8313750000000002Z" stroke-width="2"></path><path id="Subtract" stroke="#000" stroke-linecap="round" stroke-linejoin="round" d="M6.342250000000001 9.583333333333334a5.07725 5.07725 0 0 0 -0.1955 1.0685416666666667c-0.15812500000000002 2.1083333333333334 -0.313375 5.076291666666666 -0.3727916666666667 8.995875000000002m0 6.703541666666667c0.059416666666666666 3.920541666666667 0.21466666666666667 6.887541666666667 0.37375 8.996833333333333 0.026833333333333334 0.370875 0.09391666666666668 0.7283333333333334 0.1945416666666667 1.0685416666666667M9.583333333333334 39.65679166666667a5.079166666666667 5.079166666666667 0 0 0 1.0685416666666667 0.19645833333333332c2.1083333333333334 0.15812500000000002 5.076291666666666 0.313375 8.995875000000002 0.37183333333333335m6.703541666666667 0c3.920541666666667 -0.0575 6.887541666666667 -0.21370833333333333 8.996833333333333 -0.37183333333333335A5.079166666666667 5.079166666666667 0 0 0 36.41666666666667 39.65583333333334M39.65679166666667 36.41666666666667c0.10158333333333333 -0.34020833333333333 0.16770833333333332 -0.6976666666666667 0.19645833333333332 -1.0685416666666667 0.15812500000000002 -2.1083333333333334 0.313375 -5.076291666666666 0.37183333333333335 -8.995875000000002m0 -6.7045c-0.0575 -3.919583333333333 -0.21370833333333333 -6.887541666666667 -0.37183333333333335 -8.995875000000002A5.079166666666667 5.079166666666667 0 0 0 39.65583333333334 9.583333333333334M36.41666666666667 6.342250000000001a5.078208333333334 5.078208333333334 0 0 0 -1.0685416666666667 -0.1955c-2.1083333333333334 -0.15812500000000002 -5.076291666666666 -0.313375 -8.995875000000002 -0.3727916666666667m-6.7045 0c-3.919583333333333 0.059416666666666666 -6.887541666666667 0.21466666666666667 -8.995875000000002 0.37375 -0.370875 0.026833333333333334 -0.7283333333333334 0.09391666666666668 -1.0685416666666667 0.1945416666666667" stroke-width="2"></path></g></svg>