<svg xmlns="http://www.w3.org/2000/svg" fill="none" viewBox="-1 -1 48 48" height="48" width="48"><g id="help-chat-1--bubble-help-mark-message-query-question-speech-square"><path id="Union" stroke="#000" stroke-linecap="round" stroke-linejoin="round" d="M7.884208333333334 35.40179166666667c-2.438 -0.16291666666666668 -4.350833333333333 -1.9693750000000003 -4.570291666666667 -4.4035416666666665 -0.23 -2.5539583333333336 -0.45041666666666663 -6.378666666666667 -0.45041666666666663 -11.647583333333333s0.22041666666666668 -9.094583333333334 0.45041666666666663 -11.647583333333333c0.21945833333333334 -2.4341666666666666 2.1322916666666667 -4.241583333333334 4.57125 -4.4035416666666665C10.977708333333334 3.0935 15.922708333333333 2.875 23 2.875c7.076333333333334 0 12.021333333333335 0.21850000000000003 15.115791666666667 0.4245416666666667 2.4389583333333333 0.16291666666666668 4.350833333333333 1.9693750000000003 4.57125 4.4035416666666665 0.22904166666666667 2.5539583333333336 0.44945833333333335 6.378666666666667 0.44945833333333335 11.647583333333333s-0.22041666666666668 9.094583333333334 -0.45041666666666663 11.647583333333333c-0.21850000000000003 2.4341666666666666 -2.1313333333333335 4.241583333333334 -4.570291666666667 4.4035416666666665 -2.7120833333333336 0.181125 -6.845375 0.370875 -12.590583333333333 0.4149583333333333l-7.577541666666667 6.746666666666667c-1.23625 1.0992083333333333 -3.19125 0.22233333333333336 -3.19125 -1.4327083333333335v-5.414583333333334a181.90795833333334 181.90795833333334 0 0 1 -6.873166666666667 -0.31433333333333335Z" stroke-width="2"></path><path id="Ellipse 68" stroke="#000" stroke-linecap="round" stroke-linejoin="round" d="M19.231833333333334 27.791666666666668a3.354166666666667 3.354166666666667 0 1 0 6.708333333333334 0 3.354166666666667 3.354166666666667 0 1 0 -6.708333333333334 0" stroke-width="2"></path><path id="Union_2" stroke="#000" stroke-linecap="round" stroke-linejoin="round" d="M25.047958333333334 8.145833333333334c-3.8074583333333334 0 -7.03225 2.2616666666666667 -7.666666666666667 4.791666666666667 -0.56925 2.2750833333333333 0.7590000000000001 4.239666666666667 2.968916666666667 4.195583333333333 0.5960833333333333 -0.011500000000000002 1.1490416666666667 -0.27791666666666665 1.66175 -0.58075 0.790625 -0.46958333333333335 2.044125 -1.1950416666666668 3.0360000000000005 -1.6981666666666668 -1.94925 1.078125 -5.432791666666667 2.6804583333333336 -5.432791666666667 5.0475416666666675l-0.0028750000000000004 2.1361250000000003a2.3958333333333335 2.3958333333333335 0 0 0 2.3958333333333335 2.3996666666666666h1.058c0.82225 0 1.5477083333333335 -0.4149583333333333 1.9789583333333334 -1.0465000000000002 0.49833333333333335 -0.7283333333333334 0.9046666666666666 -1.60425 1.6742083333333335 -2.0364583333333335 2.905666666666667 -1.6320416666666668 5.037958333333333 -3.2698333333333336 5.037958333333333 -6.500375000000001 0 -3.354166666666667 -2.024 -6.708333333333334 -6.708333333333334 -6.708333333333334Z" stroke-width="2"></path></g></svg>