<svg xmlns="http://www.w3.org/2000/svg" fill="none" viewBox="-1 -1 48 48" height="48" width="48"><g id="dashboard-1--corners-dashboard-frame-layout-mat-octagon-square-triangle"><path id="Vector" stroke="#000" stroke-linecap="round" stroke-linejoin="round" d="M38.08704166666667 3.391541666666667c2.448541666666667 0.19933333333333333 4.3220833333333335 2.072875 4.521416666666667 4.521416666666667C42.859541666666665 11.006458333333333 43.125 15.942833333333333 43.125 23c0 7.057166666666667 -0.26545833333333335 11.993541666666667 -0.5165416666666667 15.087041666666668 -0.19933333333333333 2.448541666666667 -2.072875 4.3220833333333335 -4.521416666666667 4.521416666666667C34.993541666666665 42.859541666666665 30.057166666666667 43.125 23 43.125c-7.057166666666667 0 -11.993541666666667 -0.26545833333333335 -15.087041666666668 -0.5165416666666667 -2.448541666666667 -0.19933333333333333 -4.3220833333333335 -2.072875 -4.521416666666667 -4.521416666666667C3.1404583333333336 34.993541666666665 2.875 30.057166666666667 2.875 23c0 -7.057166666666667 0.26545833333333335 -11.993541666666667 0.5165416666666667 -15.087041666666668 0.19933333333333333 -2.448541666666667 2.072875 -4.3220833333333335 4.521416666666667 -4.521416666666667C11.006458333333333 3.1404583333333336 15.942833333333333 2.875 23 2.875c7.057166666666667 0 11.993541666666667 0.26545833333333335 15.087041666666668 0.5165416666666667Z" stroke-width="2"></path><path id="Vector_2" stroke="#000" stroke-linecap="round" stroke-linejoin="round" d="M24.080041666666666 3.712583333333334a1.7058333333333335 1.7058333333333335 0 0 0 -2.1600833333333336 0c-1.532375 1.2343333333333335 -4.6939166666666665 3.9301250000000003 -9.485583333333333 8.721791666666668 -4.791666666666667 4.791666666666667 -7.488416666666667 7.9541666666666675 -8.721791666666668 9.485583333333333a1.7058333333333335 1.7058333333333335 0 0 0 0 2.1600833333333336c1.2333749999999999 1.532375 3.9291666666666667 4.6939166666666665 8.721791666666668 9.485583333333333 4.791666666666667 4.791666666666667 7.9541666666666675 7.488416666666667 9.485583333333333 8.722750000000001a1.7058333333333335 1.7058333333333335 0 0 0 2.1600833333333336 0c1.532375 -1.2343333333333335 4.6939166666666665 -3.931083333333334 9.485583333333333 -8.722750000000001s7.488416666666667 -7.9541666666666675 8.721791666666668 -9.485583333333333a1.7058333333333335 1.7058333333333335 0 0 0 0 -2.1600833333333336c-1.2333749999999999 -1.5314166666666669 -3.9291666666666667 -4.6939166666666665 -8.721791666666668 -9.485583333333333 -4.791666666666667 -4.791666666666667 -7.9541666666666675 -7.4874583333333335 -9.485583333333333 -8.721791666666668Z" stroke-width="2"></path></g></svg>