<svg xmlns="http://www.w3.org/2000/svg" fill="none" viewBox="-1 -1 48 48" height="48" width="48"><g id="fork-plate--fork-plate-food-dine-cook-utensils-eat-restaurant-dining-kitchenware"><g id="Group 6"><path id="Intersect" stroke="#000" stroke-linecap="round" stroke-linejoin="round" d="M43.60416666666667 3.8333333333333335c-10.585749999999999 0 -19.166666666666668 8.580916666666667 -19.166666666666668 19.166666666666668s8.580916666666667 19.166666666666668 19.166666666666668 19.166666666666668" stroke-width="2"></path><path id="Intersect_2" stroke="#000" stroke-linecap="round" stroke-linejoin="round" d="M43.60416666666667 11.5c-6.350875 0 -11.5 5.149125000000001 -11.5 11.5s5.149125000000001 11.5 11.5 11.5" stroke-width="2"></path></g><path id="Union" stroke="#000" stroke-linecap="round" stroke-linejoin="round" d="M19.113958333333333 6.093083333333333c0.44083333333333335 2.60475 1.058 7.155875 1.0081666666666667 12.015583333333334 -0.024916666666666667 2.5079583333333333 -1.7000833333333334 4.75525 -4.333583333333333 5.345583333333334 -0.5443333333333333 0.12170833333333334 -1.124125 0.23191666666666666 -1.7297916666666666 0.31720833333333337l1.7096666666666667 13.352458333333333c0.30091666666666667 2.348875 -1.1452083333333334 4.676666666666667 -3.493125 4.983333333333333 -0.290375 0.037375 -0.5558333333333333 0.059416666666666666 -0.7752916666666667 0.059416666666666666a6.210000000000001 6.210000000000001 0 0 1 -0.7762500000000001 -0.060375000000000005c-2.347916666666667 -0.3066666666666667 -3.7930833333333336 -2.6335 -3.492166666666667 -4.982375L8.94125 23.771458333333335a21.98991666666667 21.98991666666667 0 0 1 -1.7288333333333334 -0.31625000000000003c-2.6344583333333333 -0.5912916666666667 -4.3096250000000005 -2.839541666666667 -4.335500000000001 -5.3475 -0.048875 -4.858750000000001 0.566375 -9.408916666666666 1.0072083333333333 -12.013666666666667C4.108375 4.76675 5.269875 3.8333333333333335 6.615375 3.8333333333333335h9.767333333333333c1.3464583333333333 0 2.507 0.9324583333333334 2.73125 2.2597500000000004Z" stroke-width="2"></path><path id="Vector 1020" stroke="#000" stroke-linecap="round" stroke-linejoin="round" d="M9.104166666666668 3.8333333333333335 8.625 14.375" stroke-width="2"></path><path id="Vector 1021" stroke="#000" stroke-linecap="round" stroke-linejoin="round" d="m13.895833333333334 3.8333333333333335 0.4791666666666667 10.541666666666668" stroke-width="2"></path></g></svg>