<svg xmlns="http://www.w3.org/2000/svg" fill="none" viewBox="-1 -1 48 48" height="48" width="48"><g id="laptop--device-laptop-electronics-computer-notebook"><path id="Intersect" stroke="#000" stroke-linecap="round" stroke-linejoin="round" d="M23 39.29166666666667c-9.219166666666666 0 -14.375 -0.39291666666666664 -17.017125000000004 -0.7034166666666667 -1.5362083333333334 -0.18208333333333335 -2.635416666666667 -1.2113333333333334 -2.8012083333333333 -2.7504166666666667a58.077875000000006 58.077875000000006 0 0 1 -0.1887916666666667 -2.201291666666667A1.8907916666666669 1.8907916666666669 0 0 1 4.8875 31.625h11.209624999999999c0.67275 0 1.267875 0.4360416666666667 1.4700833333333334 1.078125 0.20125 0.6420833333333335 0.7963749999999999 1.078125 1.4700833333333334 1.078125h7.925416666666667c0.6717916666666667 0 1.2669166666666667 -0.4360416666666667 1.469125 -1.078125A1.5410000000000001 1.5410000000000001 0 0 1 29.90191666666667 31.625h11.208666666666668c1.095375 0 1.9712916666666667 0.9190416666666666 1.8965416666666668 2.0125a58.227375 58.227375 0 0 1 -0.1887916666666667 2.201291666666667c-0.16579166666666667 1.538125 -1.2650000000000001 2.568333333333334 -2.802166666666667 2.7494583333333336C37.37691666666667 38.89875000000001 32.219166666666666 39.29166666666667 23 39.29166666666667Z" stroke-width="2"></path><path id="Subtract" stroke="#000" stroke-linecap="round" stroke-linejoin="round" d="M5.092583333333334 31.625C4.9277500000000005 29.509000000000004 4.791666666666667 26.430833333333332 4.791666666666667 22.041666666666668c0 -5.644583333333333 0.22520833333333332 -9.121416666666669 0.4465833333333334 -11.17225 0.181125 -1.681875 1.3435833333333334 -2.9555000000000002 3.010125 -3.2420416666666667C10.727583333333335 7.199958333333334 15.263375 6.708333333333334 23 6.708333333333334s12.272416666666667 0.49162500000000003 14.751625 0.9190416666666666c1.6675 0.28654166666666664 2.829 1.5601666666666667 3.010125 3.2420416666666667 0.22041666666666668 2.0508333333333337 0.4465833333333334 5.526708333333334 0.4465833333333334 11.17225 0 4.389166666666667 -0.13608333333333333 7.467333333333333 -0.30091666666666667 9.583333333333334" stroke-width="2"></path></g></svg>