<svg xmlns="http://www.w3.org/2000/svg" fill="none" viewBox="-1 -1 48 48" height="48" width="48"><g id="maximize-1"><path id="Rectangle 1097" stroke="#000" stroke-linecap="round" stroke-linejoin="round" d="M36.895833333333336 3.301458333333333c0.42358333333333337 0.029708333333333333 0.819375 0.060375000000000005 1.1892916666666669 0.09008333333333333 2.448541666666667 0.19933333333333333 4.324958333333333 2.0747916666666666 4.523333333333333 4.523333333333333 0.03066666666666667 0.36991666666666667 0.060375000000000005 0.7666666666666667 0.09008333333333333 1.1892916666666669M32.10416666666667 3.04175a220.15791666666667 220.15791666666667 0 0 0 -6.708333333333334 -0.15620833333333334m-4.799333333333333 0c-2.544375 0.023000000000000003 -4.7753749999999995 0.0805 -6.708333333333334 0.15620833333333334m-4.791666666666667 0.25875000000000004c-0.42262500000000003 0.03066666666666667 -0.819375 0.06133333333333334 -1.1883333333333335 0.09104166666666667 -2.4495 0.19933333333333333 -4.324958333333333 2.0747916666666666 -4.523333333333333 4.523333333333333 -0.03066666666666667 0.36991666666666667 -0.060375000000000005 0.7666666666666667 -0.09104166666666667 1.1892916666666669m39.82066666666667 11.5a219.98158333333333 219.98158333333333 0 0 0 -0.15620833333333334 -6.708333333333334m0 18.216c0.07666666666666667 -1.9339166666666665 0.13416666666666668 -4.163958333333333 0.15620833333333334 -6.708333333333334m-0.41591666666666666 11.5c-0.02875 0.42262500000000003 -0.060375000000000005 0.819375 -0.09008333333333333 1.1883333333333335 -0.198375 2.4495 -2.0747916666666666 4.324958333333333 -4.523333333333333 4.523333333333333 -0.36991666666666667 0.03066666666666667 -0.7666666666666667 0.06133333333333334 -1.1883333333333335 0.09104166666666667M3.0340833333333332 13.895833333333334a219.79375000000002 219.79375000000002 0 0 0 -0.15716666666666668 6.708333333333334M25.395833333333336 43.122125000000004a219.79375000000002 219.79375000000002 0 0 0 6.708333333333334 -0.15716666666666668" stroke-width="2"></path><path id="Union" stroke="#000" stroke-linecap="round" stroke-linejoin="round" d="M26.028333333333336 10.074958333333333c-1.2535 0.215625 -1.7403333333333335 1.5400416666666668 -0.8902916666666667 2.48975 0.47150000000000003 0.5270833333333333 1.0762083333333334 1.17875 1.8467083333333334 1.9732083333333337a514.6959166666667 514.6959166666667 0 0 0 -5.438541666666667 6.029833333333333c-0.48875 0.5500833333333333 -0.6229166666666667 1.3349583333333335 -0.24150000000000002 1.9645833333333333 0.25683333333333336 0.42358333333333337 0.5960833333333333 0.9046666666666666 1.0024166666666667 1.302375 0.38333333333333336 0.37470833333333337 0.8011666666666667 0.6679583333333333 1.1672500000000001 0.8855000000000001 0.5941666666666667 0.35170833333333335 1.3205833333333332 0.20891666666666667 1.8380833333333333 -0.24916666666666668 1.3771250000000002 -1.2180416666666667 4.164916666666667 -3.7001250000000003 6.1314166666666665 -5.558333333333334a68.20458333333333 68.20458333333333 0 0 0 2.1610416666666667 1.9454166666666666c0.9669583333333333 0.8299166666666666 2.27125 0.3066666666666667 2.4533333333333336 -0.9583333333333334 0.6152500000000001 -4.2722500000000005 0.30570833333333336 -7.338916666666667 0.049833333333333334 -8.845416666666667a1.5065000000000002 1.5065000000000002 0 0 0 -1.2803333333333335 -1.2535c-1.5065000000000002 -0.21945833333333334 -4.564541666666667 -0.4523333333333333 -8.799416666666668 0.27408333333333335Z" stroke-width="2"></path><path id="Rectangle 1096" stroke="#000" stroke-linecap="round" stroke-linejoin="round" d="M19.069875000000003 30.628333333333334c-0.09966666666666667 -2.0450833333333334 -1.6531250000000002 -3.5985416666666667 -3.6982083333333335 -3.6982083333333335A89.55720833333334 89.55720833333334 0 0 0 11.020833333333334 26.833333333333336c-1.7719583333333333 0 -3.213291666666667 0.04120833333333333 -4.350833333333333 0.09679166666666668 -2.0450833333333334 0.09966666666666667 -3.5985416666666667 1.6531250000000002 -3.6982083333333335 3.6982083333333335A89.48725 89.48725 0 0 0 2.875 34.97916666666667c0 1.7719583333333333 0.04120833333333333 3.213291666666667 0.09679166666666668 4.350833333333333 0.09966666666666667 2.0450833333333334 1.6531250000000002 3.5985416666666667 3.6982083333333335 3.6982083333333335 1.1375416666666667 0.05558333333333334 2.578875 0.09679166666666668 4.350833333333333 0.09679166666666668 1.7719583333333333 0 3.213291666666667 -0.04120833333333333 4.350833333333333 -0.09679166666666668 2.0450833333333334 -0.09966666666666667 3.5985416666666667 -1.6531250000000002 3.6982083333333335 -3.6982083333333335 0.05558333333333334 -1.1375416666666667 0.09679166666666668 -2.578875 0.09679166666666668 -4.350833333333333 0 -1.7719583333333333 -0.04120833333333333 -3.213291666666667 -0.09679166666666668 -4.350833333333333Z" stroke-width="2"></path></g></svg>