<svg xmlns="http://www.w3.org/2000/svg" fill="none" viewBox="-1 -1 48 48" height="48" width="48"><g id="eye-optic--health-medical-eye-optic"><path id="Intersect" stroke="#000" stroke-linecap="round" stroke-linejoin="round" d="M2.683333333333333 25.780125a3.22575 3.22575 0 0 1 0 -1.7269166666666669C5.155833333333334 15.156041666666667 13.315083333333334 8.625 23 8.625s17.84416666666667 6.530083333333334 20.316666666666666 15.428208333333334c0.15620833333333334 0.5654166666666667 0.15620833333333334 1.1615 0 1.7269166666666669C40.844166666666666 34.67633333333333 32.684916666666666 41.208333333333336 23 41.208333333333336S5.155833333333334 34.67825 2.683333333333333 25.780125Z" stroke-width="2"></path><path id="Ellipse 19" stroke="#000" stroke-linecap="round" stroke-linejoin="round" d="M32.583333333333336 24.916666666666668c0 5.2928749999999996 -4.2904583333333335 9.583333333333334 -9.583333333333334 9.583333333333334s-9.583333333333334 -4.2904583333333335 -9.583333333333334 -9.583333333333334 4.2904583333333335 -9.583333333333334 9.583333333333334 -9.583333333333334 9.583333333333334 4.2904583333333335 9.583333333333334 9.583333333333334Z" stroke-width="2"></path><path id="Vector 2106" stroke="#000" stroke-linecap="round" stroke-linejoin="round" d="M23 8.625V1.9166666666666667" stroke-width="2"></path><path id="Vector 2109" stroke="#000" stroke-linecap="round" stroke-linejoin="round" d="M13.895833333333334 10.62025 10.541666666666668 4.810833333333333" stroke-width="2"></path><path id="Vector 2111" stroke="#000" stroke-linecap="round" stroke-linejoin="round" d="M32.10416666666667 10.62025 35.458333333333336 4.810833333333333" stroke-width="2"></path><path id="Vector 2110" stroke="#000" stroke-linecap="round" stroke-linejoin="round" d="m6.688208333333334 16.275375 -4.74375 -4.74375" stroke-width="2"></path><path id="Vector 2112" stroke="#000" stroke-linecap="round" stroke-linejoin="round" d="m39.31179166666667 16.273458333333334 4.74375 -4.74375" stroke-width="2"></path></g></svg>