<svg xmlns="http://www.w3.org/2000/svg" fill="none" viewBox="-1 -1 48 48" height="48" width="48"><g id="radioactive-1--danger-nuke-radiation-nuclear-warning-alert-radioactive-caution"><path id="Subtract" stroke="#000" stroke-linecap="round" stroke-linejoin="round" d="M31.64704166666667 39.974000000000004c1.3761666666666668 -0.6555000000000001 1.772916666666667 -2.3642083333333335 0.99475 -3.6761666666666666 -1.7412916666666667 -2.9363333333333337 -3.9387500000000006 -6.493666666666667 -6.234916666666667 -9.837291666666667 -0.30570833333333336 -0.4446666666666667 -0.9161666666666667 -0.5347500000000001 -1.4058750000000002 -0.3095416666666667a4.773458333333333 4.773458333333333 0 0 1 -2.0010000000000003 0.43700000000000006 4.773458333333333 4.773458333333333 0 0 1 -2.0010000000000003 -0.43700000000000006c-0.48970833333333336 -0.22520833333333332 -1.1001666666666665 -0.135125 -1.4058750000000002 0.3085833333333334 -2.297125 3.3445833333333335 -4.494583333333334 6.901916666666667 -6.234916666666667 9.839208333333334 -0.7781666666666668 1.3110000000000002 -0.3814166666666667 3.01875 0.99475 3.6752083333333334A20.047375000000002 20.047375000000002 0 0 0 23 41.92133333333334c3.095416666666667 0 6.027916666666667 -0.6995833333333333 8.647041666666667 -1.9473333333333334Z" stroke-width="2"></path><path id="Subtract_2" stroke="#000" stroke-linecap="round" stroke-linejoin="round" d="M11.579541666666668 5.22675c1.2544583333333332 -0.871125 2.935375 -0.3612916666666667 3.682875 0.9698333333333334 1.6732500000000001 2.976583333333333 3.6550833333333337 6.656583333333334 5.402125 10.317416666666666 0.23191666666666666 0.485875 0.004791666666666667 1.0589583333333334 -0.4331666666666667 1.3732916666666668a4.882708333333333 4.882708333333333 0 0 0 -1.9990833333333333 3.4643750000000004c-0.052708333333333336 0.5366666666666667 -0.4360416666666667 1.0196666666666667 -0.9727083333333333 1.060875 -4.04225 0.31720833333333337 -8.219625 0.44083333333333335 -11.633208333333334 0.48108333333333336 -1.5266250000000001 0.017249999999999998 -2.807916666666667 -1.1835416666666667 -2.681416666666667 -2.704416666666667 0.5021666666666668 -5.981916666666667 3.703 -11.5345 8.634583333333333 -14.962458333333334Z" stroke-width="2"></path><path id="Subtract_3" stroke="#000" stroke-linecap="round" stroke-linejoin="round" d="M34.4195 5.22675c-1.2535 -0.871125 -2.9344166666666665 -0.3612916666666667 -3.681916666666667 0.9698333333333334 -1.6732500000000001 2.976583333333333 -3.6550833333333337 6.656583333333334 -5.402125 10.317416666666666 -0.23191666666666666 0.485875 -0.004791666666666667 1.0589583333333334 0.4331666666666667 1.3732916666666668a4.88175 4.88175 0 0 1 1.9990833333333333 3.4643750000000004c0.052708333333333336 0.5366666666666667 0.4360416666666667 1.0196666666666667 0.9727083333333333 1.060875 4.04225 0.31720833333333337 8.219625 0.44083333333333335 11.633208333333334 0.48108333333333336 1.5266250000000001 0.017249999999999998 2.807916666666667 -1.1835416666666667 2.6804583333333336 -2.704416666666667 -0.5012083333333334 -5.981916666666667 -3.7020416666666667 -11.5345 -8.634583333333333 -14.962458333333334Z" stroke-width="2"></path></g></svg>