<svg xmlns="http://www.w3.org/2000/svg" fill="none" viewBox="-1 -1 48 48" height="48" width="48"><g id="end-point-branches"><path id="Vector" stroke="#000" stroke-linecap="round" stroke-linejoin="round" d="M35.81483333333333 29.739958333333334c0.35458333333333336 0.44083333333333335 0.6785 0.8327916666666667 0.974625 1.1816250000000001 1.1116666666666666 1.3110000000000002 0.7465416666666668 3.4883333333333337 -0.9698333333333334 3.5697916666666667A7.484583333333333 7.484583333333333 0 0 1 35.458333333333336 34.5c-1.6713333333333333 0 -2.875 -0.9583333333333334 -2.875 -0.9583333333333334s-1.2784166666666668 -0.9583333333333334 -4.2597916666666675 -4.791666666666667a32.10704166666667 32.10704166666667 0 0 1 -2.024958333333333 -2.8903333333333334c-1.4739166666666668 0.009583333333333334 -3.12225 0.015333333333333334 -4.96225 0.015333333333333334H1.9166666666666667m33.89816666666667 3.864958333333334a74.41170833333334 74.41170833333334 0 0 1 -0.44850000000000007 -0.5635m0.44850000000000007 0.5635C38.23941666666667 32.752 39.29166666666667 33.54166666666667 39.29166666666667 33.54166666666667M1.9166666666666667 20.125h19.419666666666668c1.84 0 3.4883333333333337 0.005750000000000001 4.96225 0.015333333333333334A32.098416666666665 32.098416666666665 0 0 1 28.323541666666667 17.25C31.304916666666664 13.416666666666668 32.583333333333336 12.458333333333334 32.583333333333336 12.458333333333334s1.2036666666666667 -0.9583333333333334 2.875 -0.9583333333333334a6.420833333333333 6.420833333333333 0 0 1 0.3612916666666667 0.009583333333333334c1.7154166666666668 0.08145833333333334 2.0815 2.257833333333333 0.9698333333333334 3.5688333333333335 -0.3066666666666667 0.3612916666666667 -0.6430416666666667 0.7695416666666668 -1.012 1.227625m-0.34691666666666665 0.4360416666666667 0.18783333333333335 -0.23575000000000002 0.15908333333333335 -0.20029166666666667m0 0C38.227916666666665 13.255666666666668 39.29166666666667 12.458333333333334 39.29166666666667 12.458333333333334m0 0s1.2036666666666667 -0.9583333333333334 2.875 -0.9583333333333334a6.420833333333333 6.420833333333333 0 0 1 0.3612916666666667 0.009583333333333334c1.7154166666666668 0.08145833333333334 2.0815 2.257833333333333 0.9698333333333334 3.5688333333333335A66.08954166666666 66.08954166666666 0 0 0 41.740208333333335 17.25C38.75979166666667 21.083333333333336 38.333333333333336 23 38.333333333333336 23s0.42550000000000004 1.9166666666666667 3.4068750000000003 5.75c0.6708333333333333 0.8625 1.2554166666666668 1.5793333333333333 1.7575833333333335 2.1715833333333334 1.1116666666666666 1.3110000000000002 0.7465416666666668 3.4883333333333337 -0.9698333333333334 3.5697916666666667A7.484583333333333 7.484583333333333 0 0 1 42.16666666666667 34.5c-1.6713333333333333 0 -2.875 -0.9583333333333334 -2.875 -0.9583333333333334m0 -21.083333333333336s-1.2784166666666668 0.9583333333333334 -4.2597916666666675 4.791666666666667a33.86366666666667 33.86366666666667 0 0 0 -1.7135 2.3958333333333335M39.29166666666667 33.54166666666667s-1.2784166666666668 -0.9583333333333334 -4.2597916666666675 -4.791666666666667a33.90775 33.90775 0 0 1 -1.7135 -2.3958333333333335" stroke-width="2"></path></g></svg>