<svg xmlns="http://www.w3.org/2000/svg" fill="none" viewBox="-1 -1 48 48" height="48" width="48"><g id="floppy-disk--disk-floppy-electronics-device-disc-computer-storage"><path id="Subtract" stroke="#000" stroke-linecap="round" stroke-linejoin="round" d="M35.2245 4.165875000000001a5.326416666666667 5.326416666666667 0 0 0 -3.09925 -1.1231666666666666A231.472 231.472 0 0 0 23 2.875c-7.057166666666667 0 -11.993541666666667 0.26545833333333335 -15.087041666666668 0.5165416666666667 -2.448541666666667 0.19933333333333333 -4.3220833333333335 2.072875 -4.521416666666667 4.521416666666667C3.1404583333333336 11.006458333333333 2.875 15.942833333333333 2.875 23c0 7.057166666666667 0.26545833333333335 11.993541666666667 0.5165416666666667 15.087041666666668 0.19933333333333333 2.448541666666667 2.072875 4.3220833333333335 4.521416666666667 4.521416666666667C11.006458333333333 42.859541666666665 15.942833333333333 43.125 23 43.125c7.057166666666667 0 11.993541666666667 -0.26545833333333335 15.087041666666668 -0.5165416666666667 2.448541666666667 -0.19933333333333333 4.3220833333333335 -2.072875 4.521416666666667 -4.521416666666667C42.859541666666665 34.993541666666665 43.125 30.057166666666667 43.125 23c0 -3.5736250000000003 -0.06804166666666667 -6.602916666666666 -0.16770833333333332 -9.125250000000001a5.326416666666667 5.326416666666667 0 0 0 -1.124125 -3.1002083333333332c-0.8241666666666667 -1.0445833333333334 -1.9051666666666667 -2.325875 -3.0944583333333338 -3.5142083333333334 -1.1883333333333335 -1.1883333333333335 -2.4705833333333334 -2.2693333333333334 -3.5142083333333334 -3.0944583333333338Z" stroke-width="2"></path><path id="Intersect" stroke="#000" stroke-linecap="round" stroke-linejoin="round" d="M29.989125 2.9708333333333337c0.03258333333333334 0.675625 0.05366666666666667 1.4796666666666667 0.05366666666666667 2.42075a49.641666666666666 49.641666666666666 0 0 1 -0.06133333333333334 2.5750416666666665c-0.08433333333333333 1.6234166666666667 -1.3531666666666666 2.8155833333333335 -2.977541666666667 2.884583333333333 -1.0187083333333333 0.042166666666666665 -2.3440833333333337 0.07475 -4.004875 0.07475 -1.6598333333333333 0 -2.9852083333333335 -0.03258333333333334 -4.003916666666667 -0.07570833333333334 -1.6243750000000001 -0.06708333333333334 -2.8932083333333334 -1.2602083333333334 -2.977541666666667 -2.883625a49.641666666666666 49.641666666666666 0 0 1 -0.06229166666666667 -2.5750416666666665c0 -0.9410833333333334 0.022041666666666668 -1.745125 0.05462500000000001 -2.42075" stroke-width="2"></path><path id="Intersect_2" stroke="#000" stroke-linecap="round" stroke-linejoin="round" d="M34.84691666666667 42.82791666666667c0.12075000000000001 -1.929125 0.227125 -4.648875 0.227125 -8.256041666666667 0 -4.2837499999999995 -0.1495 -7.3168750000000005 -0.29708333333333337 -9.259416666666668 -0.12266666666666667 -1.633 -1.365625 -2.8874583333333335 -2.997666666666667 -3.01875 -1.8687500000000001 -0.1495 -4.746625000000001 -0.2999583333333333 -8.78025 -0.2999583333333333 -4.032666666666667 0 -6.9115 0.15045833333333333 -8.779291666666667 0.30091666666666667 -1.633 0.13033333333333336 -2.875 1.3847916666666669 -2.998625 3.01875 -0.146625 1.9415833333333332 -0.29708333333333337 4.974708333333333 -0.29708333333333337 9.258458333333333 0 3.6071666666666666 0.10637500000000001 6.326916666666667 0.22808333333333333 8.256041666666667" stroke-width="2"></path><path id="Vector 924" stroke="#000" stroke-linecap="round" stroke-linejoin="round" d="M18.208333333333336 29.708333333333336h9.583333333333334" stroke-width="2"></path><path id="Vector 925" stroke="#000" stroke-linecap="round" stroke-linejoin="round" d="M18.208333333333336 35.458333333333336h5.75" stroke-width="2"></path></g></svg>