<svg xmlns="http://www.w3.org/2000/svg" fill="none" viewBox="-1 -1 48 48" height="48" width="48"><g id="expand-horizontal-2--expand-resize-bigger-horizontal-smaller-size-arrow-arrows-big"><path id="Rectangle 56" stroke="#000" stroke-linecap="round" stroke-linejoin="round" d="M35.53404166666667 33.54166666666667c0.05366666666666667 2.3929583333333335 0.12745833333333334 4.143833333333333 0.1887916666666667 5.315875 0.06133333333333334 1.1691666666666667 0.7475 2.153375 1.9128333333333334 2.274125 0.4465833333333334 0.046000000000000006 0.9928333333333335 0.07666666666666667 1.6560000000000001 0.07666666666666667 0.664125 0 1.210375 -0.03066666666666667 1.6569583333333335 -0.07666666666666667 1.1643750000000002 -0.12170833333333334 1.8476666666666666 -1.1030416666666667 1.9042083333333335 -2.2731666666666666C42.96591666666667 36.498125 43.125 31.64416666666667 43.125 23s-0.15908333333333335 -13.498125000000002 -0.27216666666666667 -15.859458333333334c-0.05558333333333334 -1.1691666666666667 -0.7398333333333333 -2.1505 -1.9042083333333335 -2.27125A16.123958333333334 16.123958333333334 0 0 0 39.29166666666667 4.791666666666667c-0.6631666666666667 0 -1.2094166666666668 0.03066666666666667 -1.6560000000000001 0.07666666666666667 -1.1653333333333333 0.12170833333333334 -1.8515 1.1049583333333335 -1.9128333333333334 2.274125 -0.06229166666666667 1.1720416666666669 -0.135125 2.9229166666666666 -0.1887916666666667 5.315875" stroke-width="2"></path><path id="Rectangle 58" stroke="#000" stroke-linecap="round" stroke-linejoin="round" d="M10.465958333333333 33.54166666666667a177.99125 177.99125 0 0 1 -0.1887916666666667 5.315875c-0.06133333333333334 1.1691666666666667 -0.7475 2.153375 -1.9128333333333334 2.274125A16.224583333333335 16.224583333333335 0 0 1 6.708333333333334 41.208333333333336c-0.664125 0 -1.210375 -0.03066666666666667 -1.6569583333333335 -0.07666666666666667 -1.1643750000000002 -0.12170833333333334 -1.8486250000000002 -1.1030416666666667 -1.9042083333333335 -2.2731666666666666C3.0340833333333332 36.498125 2.875 31.64416666666667 2.875 23s0.15908333333333335 -13.498125000000002 0.27216666666666667 -15.859458333333334c0.05558333333333334 -1.1691666666666667 0.7398333333333333 -2.1505 1.9042083333333335 -2.27125C5.497958333333334 4.821375 6.044208333333334 4.791666666666667 6.708333333333334 4.791666666666667c0.6631666666666667 0 1.2094166666666668 0.03066666666666667 1.6560000000000001 0.07666666666666667 1.1653333333333333 0.12170833333333334 1.8515 1.1049583333333335 1.9128333333333334 2.274125 0.06229166666666667 1.1720416666666669 0.135125 2.9229166666666666 0.1887916666666667 5.315875" stroke-width="2"></path><path id="Union" stroke="#000" stroke-linecap="round" stroke-linejoin="round" d="M28.861166666666666 28.840083333333336c0.08625 1.8946250000000002 1.8677916666666667 2.6660833333333334 3.2775 1.3991666666666667a66.415375 66.415375 0 0 0 2.1361250000000003 -2.011541666666667c1.6713333333333333 -1.6406666666666667 2.6689583333333338 -2.894166666666667 3.256416666666667 -3.7624166666666667a2.5635416666666666 2.5635416666666666 0 0 0 0 -2.928666666666667c-0.5874583333333333 -0.8682500000000001 -1.5850833333333334 -2.122708333333333 -3.256416666666667 -3.7633750000000004a66.32912499999999 66.32912499999999 0 0 0 -2.1342083333333335 -2.0105833333333334c-1.4116250000000001 -1.2669166666666667 -3.194125 -0.4954583333333334 -3.279416666666667 1.3991666666666667 -0.03258333333333334 0.7216250000000001 -0.06133333333333334 1.5716666666666665 -0.08145833333333334 2.57025 -1.3589166666666666 -0.04791666666666667 -3.2525833333333334 -0.08625 -5.779708333333334 -0.08625 -2.5261666666666667 0 -4.420791666666667 0.03833333333333334 -5.779708333333334 0.08625 -0.020125 -0.9995416666666667 -0.04791666666666667 -1.8495833333333334 -0.08145833333333334 -2.5712083333333333 -0.08625 -1.8936666666666666 -1.8677916666666667 -2.6660833333333334 -3.2775 -1.3991666666666667a66.415375 66.415375 0 0 0 -2.1361250000000003 2.0125c-1.6713333333333333 1.63875 -2.6689583333333338 2.894166666666667 -3.2554583333333333 3.7624166666666667 -0.6133333333333334 0.905625 -0.6133333333333334 2.0220833333333332 0 2.928666666666667 0.5865 0.8682500000000001 1.584125 2.122708333333333 3.2554583333333333 3.7624166666666667a66.54666666666667 66.54666666666667 0 0 0 2.1342083333333335 2.0105833333333334c1.4116250000000001 1.2669166666666667 3.194125 0.4954583333333334 3.279416666666667 -1.3991666666666667 0.03354166666666667 -0.7235416666666667 0.06133333333333334 -1.5764583333333335 0.08145833333333334 -2.5798333333333336 1.4164166666666667 0.050791666666666666 3.3503333333333334 0.09487500000000001 5.779708333333334 0.09487500000000001 2.4293750000000003 0 4.363291666666667 -0.044083333333333335 5.779708333333334 -0.09487500000000001 0.01916666666666667 1.003375 0.04791666666666667 1.85725 0.08145833333333334 2.580791666666667Z" stroke-width="2"></path></g></svg>