<svg xmlns="http://www.w3.org/2000/svg" fill="none" viewBox="-1 -1 48 48" height="48" width="48"><g id="music-note-trebble-clef--music-audio-note-trebble-clef-entertainment"><path id="Ellipse 483" stroke="#000" stroke-linecap="round" stroke-linejoin="round" d="M15.333333333333334 40.25a2.875 2.875 0 1 0 5.75 0 2.875 2.875 0 1 0 -5.75 0" stroke-width="2"></path><path id="Vector 1649" stroke="#000" stroke-linecap="round" stroke-linejoin="round" d="M18.208333333333336 43.125h1.9166666666666667a5.75 5.75 0 0 0 5.75 -5.75v-4.791666666666667" stroke-width="2"></path><path id="Vector 1664" stroke="#000" stroke-linecap="round" stroke-linejoin="round" d="M25.395833333333336 8.625c0 -0.520375 0.009583333333333334 -0.9966666666666667 0.023958333333333335 -1.43175C25.506041666666665 4.75525 27.269375 2.875 29.708333333333336 2.875c2.414041666666667 0 4.19175 1.9099583333333334 4.288541666666666 4.3220833333333335 0.015333333333333334 0.37375 0.023958333333333335 0.7705000000000001 0.023958333333333335 1.1883333333333335 0 3.3445833333333335 -3.1318333333333332 5.654166666666667 -6.473541666666667 5.550666666666666a85.00033333333333 85.00033333333333 0 0 0 -3.587041666666667 -0.035458333333333335C18.625208333333333 13.957166666666668 14.375 18.143166666666666 14.375 23.479166666666668c0 5.050416666666666 4.062375 8.917291666666667 9.110875 9.050500000000001 1.2381666666666669 0.03258333333333334 2.5319166666666666 0.05366666666666667 3.826625 0.05366666666666667 1.3263333333333334 0 2.5223333333333335 -0.022041666666666668 3.5832083333333333 -0.05558333333333334C34.532583333333335 32.40987500000001 37.375 29.753375000000002 37.375 26.114583333333336c0 -3.603333333333333 -2.8826666666666667 -6.233 -6.484083333333333 -6.392083333333334A72.03120833333334 72.03120833333334 0 0 0 27.791666666666668 19.645833333333336c-1.2295416666666665 0 -2.3603750000000003 0.048875 -3.3292500000000005 0.11595833333333333 -2.08725 0.14375 -3.85825 1.6253333333333333 -3.85825 3.717375 0 2.0747916666666666 1.7940000000000003 3.519 3.8630416666666667 3.6780833333333334 1.1145416666666668 0.08625 2.323 0.15525 3.3244583333333333 0.15525 2.635416666666667 0 3.8333333333333335 -0.23958333333333334 3.8333333333333335 -0.23958333333333334" stroke-width="2"></path></g></svg>