<svg xmlns="http://www.w3.org/2000/svg" fill="none" viewBox="-1 -1 48 48" height="48" width="48"><g id="invisible-1--disable-eye-eyeball-hide-off-view"><path id="Intersect" stroke="#000" stroke-linecap="round" stroke-linejoin="round" d="M35.458333333333336 35.21875a21.112083333333334 21.112083333333334 0 0 0 7.858333333333333 -11.35625 3.22575 3.22575 0 0 0 0 -1.7259583333333333C40.844166666666666 13.238416666666668 32.684916666666666 6.708333333333334 23 6.708333333333334a20.9875 20.9875 0 0 0 -12.124833333333333 3.8333333333333335M30.666666666666668 37.85416666666667c-2.376666666666667 0.9276666666666666 -4.96225 1.4375 -7.666666666666667 1.4375 -9.685875 0 -17.846083333333333 -6.530083333333334 -20.316666666666666 -15.428208333333334a3.22575 3.22575 0 0 1 0 -1.7269166666666669A21.025833333333335 21.025833333333335 0 0 1 6.735166666666666 14.375" stroke-width="2"></path><path id="Ellipse 18" stroke="#000" stroke-linecap="round" stroke-linejoin="round" d="M29.844416666666667 29.708333333333336A9.551708333333334 9.551708333333334 0 0 0 32.583333333333336 23c0 -5.2928749999999996 -4.2904583333333335 -9.583333333333334 -9.583333333333334 -9.583333333333334a9.554583333333333 9.554583333333333 0 0 0 -6.843458333333333 2.875" stroke-width="2"></path><path id="Vector 864" stroke="#000" stroke-linecap="round" stroke-linejoin="round" d="m2.875 2.875 40.25 40.25" stroke-width="2"></path></g></svg>