<svg xmlns="http://www.w3.org/2000/svg" fill="none" viewBox="-1 -1 48 48" height="48" width="48"><g id="recycle-1--nature-sign-environment-protect-save-arrows"><path id="Vector 1672" stroke="#000" stroke-linecap="round" stroke-linejoin="round" d="M9.104166666666668 15.014208333333334c1.7652500000000002 -2.5798333333333336 5.307250000000001 -7.560291666666667 7.271833333333333 -9.702166666666667 0.5414583333333333 -0.5903333333333334 1.2745833333333334 -0.9353333333333333 2.065208333333333 -1.0656666666666668 1.7355416666666668 -0.2875 5.093541666666667 -0.68425 8.218666666666667 -0.14758333333333334 1.0656666666666668 0.18208333333333335 1.9895 0.805 2.6977083333333334 1.6215 0.664125 0.7685833333333334 1.4499583333333332 1.6837916666666666 1.7882500000000001 2.1064166666666666l1.7460833333333334 -0.8730416666666667c0.8720833333333334 -0.43700000000000006 1.8620416666666668 0.29420833333333335 1.681875 1.2525416666666667 -0.664125 3.5285833333333336 -2.0460416666666665 9.950375 -3.427958333333333 10.641333333333334 -1.4049166666666666 0.7024583333333333 -7.702125000000001 -1.1691666666666667 -10.963333333333333 -2.2195 -0.87975 -0.2836666666666667 -1.0934583333333334 -1.4106666666666667 -0.3919583333333333 -2.0125l1.7719583333333333 -1.5180000000000002 -1.9166666666666667 -3.8333333333333335" stroke-width="2"></path><path id="Vector 1674" stroke="#000" stroke-linecap="round" stroke-linejoin="round" d="M37.473708333333335 16.049208333333333c1.35125 2.818458333333333 3.893708333333333 8.375833333333334 4.765791666666667 11.148291666666665 0.24150000000000002 0.76475 0.1725 1.5716666666666665 -0.10925000000000001 2.322041666666667 -0.6190833333333334 1.6464166666666666 -1.954041666666667 4.753333333333334 -3.980916666666667 7.190375 -0.6919166666666666 0.8318333333333333 -1.6924166666666667 1.3215416666666666 -2.7542500000000003 1.5256666666666667 -0.9966666666666667 0.19166666666666668 -2.182125 0.4149583333333333 -2.717833333333333 0.49641666666666673l-0.11691666666666667 1.9482916666666668c-0.0575 0.9736666666666667 -1.1854583333333335 1.4652916666666667 -1.9262499999999998 0.8299166666666666 -2.7235833333333335 -2.3383333333333334 -7.593833333333334 -6.746666666666667 -7.500875000000001 -8.289583333333335 0.09391666666666668 -1.5678333333333332 4.863541666666667 -6.084458333333334 7.404083333333333 -8.385416666666668 0.6852083333333333 -0.6190833333333334 1.768125 -0.24054166666666668 1.9377499999999999 0.6679583333333333l0.42933333333333334 2.2932916666666667 4.2780000000000005 0.25683333333333336" stroke-width="2"></path><path id="Vector 1673" stroke="#000" stroke-linecap="round" stroke-linejoin="round" d="M22.6205 40.09091666666667c-3.1165 -0.23958333333333334 -9.200958333333334 -0.8165 -12.038583333333333 -1.4470833333333335 -0.782 -0.17345833333333333 -1.4470833333333335 -0.6363333333333334 -1.955 -1.2554166666666668 -1.1164583333333333 -1.3598750000000002 -3.1395 -4.069083333333334 -4.23775 -7.04375 -0.37375 -1.014875 -0.29708333333333337 -2.1255833333333336 0.056541666666666664 -3.1471666666666667 0.3325416666666667 -0.9592916666666667 0.7321666666666667 -2.0977916666666667 0.9295833333333333 -2.601875l-1.6291666666666667 -1.07525c-0.8145833333333333 -0.537625 -0.6765833333333333 -1.7604583333333335 0.244375 -2.0834166666666665 3.38675 -1.1892916666666669 9.638916666666667 -3.20275 10.928833333333333 -2.3517500000000005 1.3110000000000002 0.865375 2.836666666666667 7.254583333333334 3.55925 10.604916666666668 0.1945416666666667 0.9027499999999999 -0.6746666666666666 1.6512083333333334 -1.54675 1.3445416666666667l-2.200333333333333 -0.7752916666666667 -2.3622916666666667 3.5765000000000002" stroke-width="2"></path></g></svg>