<svg xmlns="http://www.w3.org/2000/svg" fill="none" viewBox="-1 -1 48 48" height="48" width="48"><g id="dices-entertainment-gaming-dices"><path id="Rectangle 1096" stroke="#000" stroke-linejoin="round" d="M3.199875 11.070666666666666c-0.5213333333333334 -2.400625 0.7963749999999999 -4.683375 3.1366250000000004 -5.432791666666667 1.2650000000000001 -0.40441666666666665 2.865416666666667 -0.8816666666666667 4.837666666666667 -1.4097083333333336a105.80958333333334 105.80958333333334 0 0 1 4.894208333333334 -1.1979166666666667c2.400625 -0.5213333333333334 4.683375 0.7963749999999999 5.432791666666667 3.1366250000000004 0.40441666666666665 1.2650000000000001 0.8816666666666667 2.865416666666667 1.4097083333333336 4.837666666666667 0.529 1.9722499999999998 0.9161666666666667 3.5975833333333336 1.1979166666666667 4.894208333333334 0.5213333333333334 2.4015833333333334 -0.7963749999999999 4.684333333333333 -3.1366250000000004 5.432791666666667 -1.2650000000000001 0.40441666666666665 -2.865416666666667 0.8816666666666667 -4.837666666666667 1.4097083333333336 -1.9722499999999998 0.529 -3.5975833333333336 0.9161666666666667 -4.894208333333334 1.1979166666666667 -2.4015833333333334 0.5213333333333334 -4.684333333333333 -0.7963749999999999 -5.432791666666667 -3.1366250000000004 -0.40441666666666665 -1.2650000000000001 -0.8816666666666667 -2.865416666666667 -1.4097083333333336 -4.837666666666667a105.82108333333333 105.82108333333333 0 0 1 -1.1979166666666667 -4.894208333333334Z" stroke-width="2"></path><path id="Vector 1668" stroke="#000" stroke-linecap="round" stroke-linejoin="round" d="m13.774125 13.27675 -0.23958333333333334 0.4149583333333333" stroke-width="2"></path><path id="Rectangle 1096_2" stroke="#000" stroke-linejoin="round" d="M40.49916666666667 40.136916666666664c-0.7484583333333333 2.34025 -3.0312083333333333 3.6579583333333336 -5.432791666666667 3.1366250000000004a105.88145833333334 105.88145833333334 0 0 1 -4.894208333333334 -1.1979166666666667 105.82875000000001 105.82875000000001 0 0 1 -4.837666666666667 -1.4097083333333336c-2.34025 -0.7484583333333333 -3.6579583333333336 -3.032166666666667 -3.1366250000000004 -5.432791666666667 0.28175 -1.2975833333333335 0.6689166666666666 -2.9219583333333334 1.1979166666666667 -4.894208333333334a105.94375 105.94375 0 0 1 1.4097083333333336 -4.837666666666667c0.7494166666666667 -2.34025 3.032166666666667 -3.6579583333333336 5.432791666666667 -3.1366250000000004 1.2975833333333335 0.28175 2.9219583333333334 0.6689166666666666 4.894208333333334 1.1979166666666667 1.9732083333333337 0.5280416666666667 3.5736250000000003 1.00625 4.837666666666667 1.4097083333333336 2.34025 0.7484583333333333 3.6579583333333336 3.0312083333333333 3.1366250000000004 5.432791666666667a105.67829166666667 105.67829166666667 0 0 1 -1.1979166666666667 4.894208333333334 105.91595833333334 105.91595833333334 0 0 1 -1.4097083333333336 4.837666666666667Z" stroke-width="2"></path><path id="Vector 1669" stroke="#000" stroke-linecap="round" stroke-linejoin="round" d="m36.167500000000004 30.540166666666668 -0.4149583333333333 0.23958333333333334" stroke-width="2"></path><path id="Vector 1670" stroke="#000" stroke-linecap="round" stroke-linejoin="round" d="m29.13716666666667 35.098000000000006 0.4149583333333333 -0.23958333333333334" stroke-width="2"></path></g></svg>