<svg xmlns="http://www.w3.org/2000/svg" fill="none" viewBox="-1 -1 48 48" height="48" width="48"><g id="cloud-off--cloud-network-internet-disable-server-off"><path id="Union" stroke="#000" stroke-linecap="round" stroke-linejoin="round" d="M10.589583333333334 17.914125000000002C5.9685 19.243333333333332 2.875 23.060375 2.875 28.270833333333336c0 6.331708333333334 4.569333333333334 10.607791666666667 10.89625 10.857916666666668 2.4744166666666665 0.09775 5.51425 0.16291666666666668 9.228750000000002 0.16291666666666668 3.7145 0 6.754333333333333 -0.06516666666666668 9.228750000000002 -0.16291666666666668 0.11883333333333333 -0.004791666666666667 0.23670833333333333 -0.010541666666666666 0.35458333333333336 -0.018208333333333333M12.268583333333334 12.264750000000001c1.9502083333333335 -3.3857916666666665 5.450041666666667 -5.521916666666667 9.985833333333334 -5.553541666666667a105.01033333333334 105.01033333333334 0 0 1 1.4902083333333334 0c6.716958333333334 0.04791666666666667 11.160750000000002 4.707333333333334 11.665791666666667 11.202916666666667C40.0315 19.243333333333332 43.125 23.060375 43.125 28.270833333333336c0 4.22625 -2.0355000000000003 7.536333333333333 -5.270833333333334 9.344708333333333" stroke-width="2"></path><path id="Vector 864" stroke="#000" stroke-linecap="round" stroke-linejoin="round" d="m4.791666666666667 4.791666666666667 38.333333333333336 38.333333333333336" stroke-width="2"></path></g></svg>