<svg xmlns="http://www.w3.org/2000/svg" fill="none" viewBox="-1 -1 48 48" height="48" width="48"><g id="wifi--wireless-wifi-internet-server-network-connection"><path id="Ellipse 32" stroke="#000" stroke-linecap="round" stroke-linejoin="round" d="M26.797875 36.41666666666667a3.8323750000000003 3.8323750000000003 0 1 1 -7.664750000000001 0 3.8323750000000003 3.8323750000000003 0 1 1 7.664750000000001 0Z" stroke-width="2"></path><path id="Vector" fill-rule="evenodd" stroke="#000" stroke-linecap="round" stroke-linejoin="round" d="M4.025 16.387500000000003c-0.6708333333333333 -1.1749166666666666 -0.44083333333333335 -2.669916666666667 0.6296250000000001 -3.497916666666667C9.279541666666667 9.317875 15.394666666666668 6.708333333333334 23 6.708333333333334c7.606291666666667 0 13.721416666666666 2.6085833333333333 18.346333333333334 6.18125 1.0704583333333333 0.8280000000000001 1.3004583333333333 2.323958333333333 0.6286666666666667 3.497916666666667l-0.9410833333333334 1.647375c-0.9008333333333333 1.5764583333333335 -3.0168333333333335 1.9243333333333335 -4.508 0.8893333333333334C32.88616666666667 16.398999999999997 28.265083333333333 14.375 23 14.375c-5.264125000000001 0 -9.886166666666668 2.024 -13.524958333333334 4.5492083333333335 -1.492125 1.0350000000000001 -3.6081250000000002 0.687125 -4.508 -0.8893333333333334L4.025 16.387500000000003Z" clip-rule="evenodd" stroke-width="2"></path><path id="Vector_2" fill-rule="evenodd" stroke="#000" stroke-linecap="round" stroke-linejoin="round" d="M11.89675 26.948333333333334c-0.7810416666666666 -1.1720416666666669 -0.6152500000000001 -2.76 0.5194166666666667 -3.59375C15.111 21.376583333333336 18.374125 20.125 23 20.125c4.626833333333334 0 7.889958333333334 1.2515833333333335 10.583833333333335 3.2295833333333337 1.135625 0.83375 1.3014166666666669 2.4217083333333336 0.520375 3.59375l-0.91425 1.3704166666666666c-0.819375 1.2305000000000001 -2.5568333333333335 1.4279166666666667 -3.831416666666667 0.6785 -1.6828333333333334 -0.9899583333333333 -3.8898750000000004 -1.82275 -6.3585416666666665 -1.82275 -2.468666666666667 0 -4.67475 0.83375 -6.357583333333334 1.82275 -1.2745833333333334 0.7494166666666667 -3.0120416666666667 0.5519999999999999 -3.831416666666667 -0.6775416666666667l-0.91425 -1.371375Z" clip-rule="evenodd" stroke-width="2"></path></g></svg>