<svg xmlns="http://www.w3.org/2000/svg" fill="none" viewBox="-1 -1 48 48" height="48" width="48"><g id="inbox-post--mail-flag-new-open-inbox-mailbox-post"><path id="Rectangle 1098" stroke="#000" stroke-linejoin="round" d="m10.541666666666668 12.458333333333334 24.916666666666668 0c4.420791666666667 0 7.5440000000000005 3.4998333333333336 7.6264166666666675 7.920625000000001 0.024916666666666667 1.3177083333333335 0.04025 2.8270833333333334 0.04025 4.537708333333334 0 4.293333333333334 -0.09775 7.318791666666667 -0.19166666666666668 9.24025 -0.077625 1.584125 -1.1950416666666668 2.865416666666667 -2.774375 3.0168333333333335 -1.1490416666666667 0.11020833333333334 -2.7015416666666665 0.20125 -4.7006250000000005 0.20125l-24.916666666666668 0" stroke-width="2"></path><path id="Subtract" stroke="#000" stroke-linecap="round" stroke-linejoin="round" d="M20.227541666666667 37.375c0.071875 1.5352500000000002 0.16770833333333332 2.975625 0.24150000000000002 3.9780416666666665 0.060375000000000005 0.83375 0.6631666666666667 1.5256666666666667 1.492125 1.633 0.5797916666666667 0.07475 1.2832083333333333 0.13895833333333332 1.9971666666666668 0.13895833333333332a15.8125 15.8125 0 0 0 1.9971666666666668 -0.13895833333333332c0.8289583333333334 -0.10733333333333334 1.43175 -0.79925 1.4930833333333335 -1.633 0.07283333333333333 -1.003375 0.16866666666666666 -2.44375 0.24054166666666668 -3.9780416666666665" stroke-width="2"></path><path id="Rectangle 1097" stroke="#000" stroke-linejoin="round" d="M10.541666666666668 12.458333333333334c-4.420791666666667 0 -7.5440000000000005 3.4998333333333336 -7.6264166666666675 7.920625000000001A243.76166666666668 243.76166666666668 0 0 0 2.875 24.916666666666668c0 4.293333333333334 0.09775 7.318791666666667 0.19166666666666668 9.24025 0.077625 1.584125 1.1950416666666668 2.865416666666667 2.774375 3.0168333333333335 1.1490416666666667 0.11020833333333334 2.7015416666666665 0.20125 4.7006250000000005 0.20125 1.9990833333333333 0 3.5515833333333333 -0.09104166666666667 4.7006250000000005 -0.20125 1.5793333333333333 -0.152375 2.69675 -1.4327083333333335 2.774375 -3.0168333333333335 0.09391666666666668 -1.9214583333333333 0.19166666666666668 -4.946916666666667 0.19166666666666668 -9.24025 0 -1.710625 -0.015333333333333334 -3.22 -0.04025 -4.537708333333334C18.08566666666667 15.958166666666669 14.962458333333334 12.458333333333334 10.541666666666668 12.458333333333334Z" stroke-width="2"></path><path id="Rectangle 1099" stroke="#000" stroke-linecap="round" stroke-linejoin="round" d="m24.916666666666668 2.875 3.354166666666667 0c0.330625 0 0.6325000000000001 0.0028750000000000004 0.9075416666666667 0.0067083333333333335C30.553583333333336 2.902791666666667 31.625 3.8956250000000003 31.625 5.270833333333334c0 1.3752083333333334 -1.071416666666667 2.3670833333333334 -2.446625 2.389125 -0.27504166666666663 0.0038333333333333336 -0.5769166666666666 0.0067083333333333335 -0.9075416666666667 0.0067083333333333335L24.916666666666668 7.666666666666667" stroke-width="2"></path><path id="Vector 1483" stroke="#000" stroke-linecap="round" stroke-linejoin="round" d="M13.416666666666668 21.083333333333336H7.666666666666667" stroke-width="2"></path><path id="Vector 1484" stroke="#000" stroke-linecap="round" stroke-linejoin="round" d="M24.916666666666668 28.75V2.875" stroke-width="2"></path></g></svg>