<svg xmlns="http://www.w3.org/2000/svg" fill="none" viewBox="-1 -1 48 48" height="48" width="48"><g id="transparent"><path id="Rectangle 1096" stroke="#000" stroke-linecap="round" stroke-linejoin="round" d="M12.004083333333334 39.29166666666667c0.529 1.9396666666666669 2.1945833333333336 3.3407500000000003 4.286625 3.4912083333333332 2.4495 0.17633333333333334 6.072000000000001 0.342125 11.020833333333334 0.342125 4.920083333333334 0 8.52725 -0.16387500000000002 10.975791666666666 -0.33925 2.450458333333333 -0.17441666666666666 4.324 -2.047 4.4984166666666665 -4.4984166666666665 0.175375 -2.448541666666667 0.33925 -6.0566666666666675 0.33925 -10.974833333333335 0 -4.949791666666667 -0.16579166666666667 -8.571333333333335 -0.342125 -11.020833333333334 -0.15045833333333333 -2.092041666666667 -1.5525000000000002 -3.7585833333333336 -3.4912083333333332 -4.286625" stroke-width="2"></path><path id="Rectangle 1097" stroke="#000" stroke-linecap="round" stroke-linejoin="round" d="M3.2142500000000003 7.712666666666667C3.388666666666667 5.26125 5.26125 3.388666666666667 7.712666666666667 3.2142500000000003 10.161208333333333 3.037916666666667 13.769333333333334 2.875 18.6875 2.875c4.919125 0 8.526291666666667 0.16387500000000002 10.974833333333335 0.33925 2.451416666666667 0.17441666666666666 4.324 2.047 4.4984166666666665 4.4984166666666665 0.175375 2.448541666666667 0.33925 6.0566666666666675 0.33925 10.974833333333335 0 4.919125 -0.16387500000000002 8.526291666666667 -0.33925 10.975791666666666 -0.17441666666666666 2.450458333333333 -2.047 4.3220833333333335 -4.4984166666666665 4.497458333333333 -2.448541666666667 0.175375 -6.0566666666666675 0.33925 -10.974833333333335 0.33925 -4.919125 0 -8.526291666666667 -0.16387500000000002 -10.974833333333335 -0.33925 -2.451416666666667 -0.17441666666666666 -4.324 -2.047 -4.4984166666666665 -4.4984166666666665C3.037916666666667 27.214750000000002 2.875 23.606625 2.875 18.6875s0.16387500000000002 -8.526291666666667 0.33925 -10.974833333333335Z" stroke-width="2"></path><path id="Intersect" stroke="#000" stroke-linecap="round" stroke-linejoin="round" d="M34.37254166666666 11.627458333333333c0.07666666666666667 1.9597916666666666 0.12745833333333334 4.303875 0.12745833333333334 7.060041666666667 0 4.919125 -0.16387500000000002 8.526291666666667 -0.33925 10.975791666666666 -0.17441666666666666 2.450458333333333 -2.047 4.3220833333333335 -4.4984166666666665 4.497458333333333 -2.448541666666667 0.175375 -6.0566666666666675 0.33925 -10.974833333333335 0.33925 -2.7561666666666667 0 -5.10025 -0.051750000000000004 -7.060041666666667 -0.12745833333333334A182.62958333333333 182.62958333333333 0 0 1 11.5 27.3125c0 -4.919125 0.16387500000000002 -8.526291666666667 0.33925 -10.975791666666666 0.17441666666666666 -2.450458333333333 2.047 -4.3220833333333335 4.4984166666666665 -4.497458333333333C18.78525 11.662916666666668 22.393375000000002 11.5 27.3125 11.5c2.7561666666666667 0 5.10025 0.051750000000000004 7.060041666666667 0.12745833333333334Z" stroke-width="2"></path><path id="Vector 1404" stroke="#000" stroke-linecap="round" stroke-linejoin="round" d="m4.791666666666667 4.791666666666667 27.791666666666668 27.791666666666668" stroke-width="2"></path><path id="Vector 1405" stroke="#000" stroke-linecap="round" stroke-linejoin="round" d="m16.291666666666668 2.875 18.208333333333336 18.208333333333336" stroke-width="2"></path><path id="Vector 1406" stroke="#000" stroke-linecap="round" stroke-linejoin="round" d="M21.083333333333336 34.5 2.875 16.291666666666668" stroke-width="2"></path></g></svg>