<svg xmlns="http://www.w3.org/2000/svg" fill="none" viewBox="-1 -1 48 48" height="48" width="48"><g id="dna--science-biology-experiment-lab-science"><path id="Vector 1664" stroke="#000" stroke-linecap="round" stroke-linejoin="round" d="m18.208333333333336 18.208333333333336 9.583333333333334 9.583333333333334" stroke-width="2"></path><path id="Vector 1665" stroke="#000" stroke-linecap="round" stroke-linejoin="round" d="m24.916666666666668 16.291666666666668 4.791666666666667 4.791666666666667" stroke-width="2"></path><path id="Vector 1666" stroke="#000" stroke-linecap="round" stroke-linejoin="round" d="m16.291666666666668 24.916666666666668 4.791666666666667 4.791666666666667" stroke-width="2"></path><path id="Ellipse 597" stroke="#000" stroke-linecap="round" d="M32.583333333333336 2.875c-1.9166666666666667 6.708333333333334 6.708333333333334 21.083333333333336 -0.9583333333333334 28.75 -3.748041666666667 3.748041666666667 -9.099375 3.602375 -14.375 2.6986666666666665" stroke-width="2"></path><path id="Ellipse 599" stroke="#000" stroke-linecap="round" d="M2.875 32.583333333333336c2.42075 -0.6919166666666666 5.8410416666666665 -0.010541666666666666 9.583333333333334 0.782" stroke-width="2"></path><path id="Ellipse 598" stroke="#000" stroke-linecap="round" d="M13.416666666666668 43.125c1.9166666666666667 -6.708333333333334 -6.708333333333334 -21.083333333333336 0.9583333333333334 -28.75 3.748041666666667 -3.748041666666667 9.100333333333333 -3.602375 14.375 -2.6977083333333334" stroke-width="2"></path><path id="Ellipse 600" stroke="#000" stroke-linecap="round" d="M43.125 13.416666666666668c-2.42075 0.6919166666666666 -5.8410416666666665 0.010541666666666666 -9.583333333333334 -0.782" stroke-width="2"></path><path id="Vector 1669" stroke="#000" stroke-linecap="round" stroke-linejoin="round" d="m37.375 7.666666666666667 0.9583333333333334 0.9583333333333334" stroke-width="2"></path><path id="Vector 1670" stroke="#000" stroke-linecap="round" stroke-linejoin="round" d="m7.666666666666667 37.375 0.9583333333333334 0.9583333333333334" stroke-width="2"></path></g></svg>