<svg xmlns="http://www.w3.org/2000/svg" fill="none" viewBox="-1 -1 48 48" height="48" width="48"><g id="pet-paw--paw-foot-animals-pets-footprint-track-hotel"><path id="Ellipse 18" stroke="#000" stroke-linecap="round" stroke-linejoin="round" d="M23 19.166666666666668c-6.070083333333333 0 -11.199083333333334 5.300541666666667 -12.855083333333333 12.108541666666667 -0.7283333333333334 2.9938333333333333 0.36991666666666667 6.171666666666667 3.0657083333333333 7.664750000000001C15.347708333333335 40.12350000000001 18.526500000000002 41.208333333333336 23 41.208333333333336s7.65325 -1.0848333333333333 9.790333333333333 -2.2683750000000003c2.695791666666667 -1.4930833333333335 3.7930833333333336 -4.670916666666667 3.06475 -7.664750000000001C34.199083333333334 24.466250000000002 29.070083333333333 19.166666666666668 23 19.166666666666668Z" stroke-width="2"></path><path id="Ellipse 19" stroke="#000" stroke-linecap="round" stroke-linejoin="round" d="M2.875 17.6755C2.875 20.322416666666665 4.590416666666667 23 6.708333333333334 23s3.8333333333333335 -2.6775833333333336 3.8333333333333335 -5.3245000000000005C10.541666666666668 15.029541666666667 8.826250000000002 13.416666666666668 6.708333333333334 13.416666666666668s-3.8333333333333335 1.612875 -3.8333333333333335 4.2588333333333335Z" stroke-width="2"></path><path id="Ellipse 21" stroke="#000" stroke-linecap="round" stroke-linejoin="round" d="M43.125 17.6755C43.125 20.322416666666665 41.40958333333334 23 39.29166666666667 23s-3.8333333333333335 -2.6775833333333336 -3.8333333333333335 -5.3245000000000005C35.458333333333336 15.029541666666667 37.17375 13.416666666666668 39.29166666666667 13.416666666666668s3.8333333333333335 1.612875 3.8333333333333335 4.2588333333333335Z" stroke-width="2"></path><path id="Ellipse 20" stroke="#000" stroke-linecap="round" stroke-linejoin="round" d="M12.9375 9.050500000000001c0 2.646916666666667 1.7154166666666668 5.3245000000000005 3.8333333333333335 5.3245000000000005s3.8333333333333335 -2.6775833333333336 3.8333333333333335 -5.3245000000000005C20.604166666666668 6.404541666666667 18.88875 4.791666666666667 16.770833333333336 4.791666666666667s-3.8333333333333335 1.612875 -3.8333333333333335 4.2588333333333335Z" stroke-width="2"></path><path id="Ellipse 22" stroke="#000" stroke-linecap="round" stroke-linejoin="round" d="M33.0625 9.050500000000001c0 2.646916666666667 -1.7154166666666668 5.3245000000000005 -3.8333333333333335 5.3245000000000005s-3.8333333333333335 -2.6775833333333336 -3.8333333333333335 -5.3245000000000005C25.395833333333336 6.404541666666667 27.111250000000002 4.791666666666667 29.229166666666668 4.791666666666667s3.8333333333333335 1.612875 3.8333333333333335 4.2588333333333335Z" stroke-width="2"></path></g></svg>