<svg xmlns="http://www.w3.org/2000/svg" fill="none" viewBox="-1 -1 48 48" height="48" width="48"><g id="sizing"><path id="Rectangle 1096" stroke="#000" stroke-linecap="round" stroke-linejoin="round" d="M7.68775 33.221583333333335c-2.451416666666667 -0.1725 -4.321125 -2.04125 -4.492666666666667 -4.492666666666667C3.0283333333333338 26.357041666666667 2.875 22.897458333333336 2.875 18.208333333333336s0.15333333333333335 -8.148708333333333 0.3200833333333334 -10.520583333333333c0.1725 -2.451416666666667 2.04125 -4.321125 4.492666666666667 -4.492666666666667C10.059625 3.0283333333333338 13.519208333333333 2.875 18.208333333333336 2.875s8.148708333333333 0.15333333333333335 10.520583333333333 0.3200833333333334c2.451416666666667 0.1725 4.321125 2.04125 4.492666666666667 4.492666666666667C33.388333333333335 10.059625 33.54166666666667 13.519208333333333 33.54166666666667 18.208333333333336s-0.15333333333333335 8.148708333333333 -0.3200833333333334 10.520583333333333c-0.1725 2.451416666666667 -2.04125 4.321125 -4.492666666666667 4.492666666666667C26.357041666666667 33.388333333333335 22.897458333333336 33.54166666666667 18.208333333333336 33.54166666666667s-8.148708333333333 -0.15333333333333335 -10.520583333333333 -0.3200833333333334Z" stroke-width="2"></path><path id="Vector" stroke="#000" stroke-linecap="round" stroke-linejoin="round" d="M43.125 33.54166666666667h-3.8333333333333335" stroke-width="2"></path><path id="Vector_2" stroke="#000" stroke-linecap="round" stroke-linejoin="round" d="M43.125 2.875h-3.8333333333333335" stroke-width="2"></path><path id="Vector_3" stroke="#000" stroke-linecap="round" stroke-linejoin="round" d="M41.208333333333336 2.875v30.666666666666668" stroke-width="2"></path><path id="Vector_4" stroke="#000" stroke-linecap="round" stroke-linejoin="round" d="m2.875 43.125 0 -3.8333333333333335" stroke-width="2"></path><path id="Vector_5" stroke="#000" stroke-linecap="round" stroke-linejoin="round" d="M33.54166666666667 43.125v-3.8333333333333335" stroke-width="2"></path><path id="Vector_6" stroke="#000" stroke-linecap="round" stroke-linejoin="round" d="M33.54166666666667 41.208333333333336 2.875 41.208333333333336" stroke-width="2"></path></g></svg>