<svg xmlns="http://www.w3.org/2000/svg" fill="none" viewBox="-1 -1 48 48" height="48" width="48"><g id="hourglass--hourglass-loading-measure-clock-time"><path id="Union" stroke="#000" stroke-linecap="round" stroke-linejoin="round" d="M16.307958333333332 23c0 -2.875 -9.926416666666668 -8.027 -7.213375 -14.534083333333335C10.9365 4.0508750000000004 16.090416666666666 2.875 22.987541666666665 2.875c6.979541666666667 0 12.203416666666667 0.991875 13.982083333333334 5.574625C39.4565 14.860875 29.694916666666668 20.125 29.694916666666668 23s9.761583333333334 8.139125 7.27375 14.549416666666668C35.19191666666667 42.13312500000001 29.967083333333335 43.125 22.988500000000002 43.125c-6.897125 0 -12.051041666666666 -1.1758750000000002 -13.892958333333334 -5.590916666666667C6.3825 31.026999999999997 16.307958333333332 25.875 16.307958333333332 23Z" stroke-width="2"></path><path id="Union_2" stroke="#000" stroke-linecap="round" stroke-linejoin="round" d="M23 37.375c-2.406375 0 -4.320166666666667 -0.2462916666666667 -5.783541666666667 -0.5625416666666666 -2.1514583333333337 -0.46479166666666666 -2.683333333333333 -2.83475 -1.1739583333333334 -4.437083333333334C18.050208333333334 30.244041666666668 20.831291666666665 27.791666666666668 23 27.791666666666668c2.1677500000000003 0 4.949791666666667 2.4533333333333336 6.9575000000000005 4.583708333333334 1.5084166666666667 1.6023333333333334 0.9775 3.9722916666666666 -1.1739583333333334 4.437083333333334 -1.4643333333333335 0.31625000000000003 -3.3771666666666667 0.5625416666666666 -5.783541666666667 0.5625416666666666Z" stroke-width="2"></path><path id="Intersect" stroke="#000" stroke-linecap="round" stroke-linejoin="round" d="M30.41175 13.449250000000001C28.857333333333333 12.959541666666667 26.429875000000003 12.458333333333334 23 12.458333333333334c-3.4298750000000005 0 -5.857333333333334 0.5012083333333334 -7.4117500000000005 0.9909166666666668 0.03929166666666667 0.05366666666666667 0.0805 0.10733333333333334 0.12458333333333334 0.1600416666666667C17.733958333333334 16.0885 20.709583333333335 19.166666666666668 23 19.166666666666668c2.2904166666666668 0 5.265083333333333 -3.078166666666667 7.288125000000001 -5.557375 0.043125 -0.052708333333333336 0.08433333333333333 -0.10541666666666667 0.12362500000000001 -0.1600416666666667Z" stroke-width="2"></path></g></svg>