<svg xmlns="http://www.w3.org/2000/svg" fill="none" viewBox="-1 -1 48 48" height="48" width="48"><g id="lens--photos-camera-shutter-picture-photography-pictures-photo-lens"><path id="Ellipse 19" stroke="#000" stroke-linecap="round" stroke-linejoin="round" d="M23 2.875c11.11475 0 20.125 9.01025 20.125 20.125s-9.01025 20.125 -20.125 20.125S2.875 34.11475 2.875 23 11.88525 2.875 23 2.875Z" stroke-width="2"></path><path id="Ellipse 20" stroke="#000" stroke-linecap="round" stroke-linejoin="round" d="M23 15.333333333333334a7.666666666666667 7.666666666666667 0 1 1 0 15.333333333333334 7.666666666666667 7.666666666666667 0 0 1 0 -15.333333333333334Z" stroke-width="2"></path><path id="Vector 1369" stroke="#000" stroke-linecap="round" stroke-linejoin="round" d="M15.333333333333334 23c0 -11.5 3.8333333333333335 -19.645833333333336 3.8333333333333335 -19.645833333333336" stroke-width="2"></path><path id="Vector 1370" stroke="#000" stroke-linecap="round" stroke-linejoin="round" d="M30.666666666666668 23c0 11.5 -3.8333333333333335 19.645833333333336 -3.8333333333333335 19.645833333333336" stroke-width="2"></path><path id="Vector 1369_2" stroke="#000" stroke-linecap="round" stroke-linejoin="round" d="M19.166666666666668 16.360666666666667c9.959958333333335 -5.75 18.93091666666667 -6.5032499999999995 18.93091666666667 -6.5032499999999995" stroke-width="2"></path><path id="Vector 1370_2" stroke="#000" stroke-linecap="round" stroke-linejoin="round" d="M26.833333333333336 29.639333333333337c-9.959958333333335 5.75 -18.93091666666667 6.5032499999999995 -18.93091666666667 6.5032499999999995" stroke-width="2"></path><path id="Vector 1369_3" stroke="#000" stroke-linecap="round" stroke-linejoin="round" d="M19.166666666666668 29.639333333333337c-9.959958333333335 -5.75 -15.097583333333333 -13.142583333333334 -15.097583333333333 -13.142583333333334" stroke-width="2"></path><path id="Vector 1370_3" stroke="#000" stroke-linecap="round" stroke-linejoin="round" d="M26.833333333333336 16.360666666666667c9.959958333333335 5.75 15.097583333333333 13.142583333333334 15.097583333333333 13.142583333333334" stroke-width="2"></path></g></svg>