<svg xmlns="http://www.w3.org/2000/svg" fill="none" viewBox="-1 -1 48 48" height="48" width="48"><g id="recycle-bin-2--remove-delete-empty-bin-trash-garbage"><path id="Subtract" stroke="#000" stroke-linecap="round" stroke-linejoin="round" d="M5.9244166666666676 15.181916666666668c0.8500416666666667 13.239375 1.6636666666666666 20.126916666666666 2.146666666666667 23.405375 0.24533333333333335 1.6579166666666667 1.3339999999999999 3.0091666666666668 2.964125 3.400166666666667C13.25375 42.52125 17.074625 43.125 23.001916666666666 43.125c5.927291666666666 0 9.747208333333333 -0.60375 11.966708333333333 -1.1365833333333333 1.6291666666666667 -0.391 2.717833333333333 -1.74225 2.963166666666667 -3.400166666666667 0.4839583333333334 -3.279416666666667 1.2966250000000001 -10.166958333333334 2.146666666666667 -23.409208333333336" stroke-width="2"></path><path id="Union" stroke="#000" stroke-linecap="round" stroke-linejoin="round" d="M29.742833333333337 6.877000000000001c3.411666666666667 0.06325 6.070083333333333 0.16674999999999998 7.97525 0.2635416666666667 2.2904166666666668 0.115 4.417916666666667 1.3349583333333335 5.058083333333333 3.5372083333333335 0.09583333333333334 0.330625 0.18591666666666667 0.6804166666666667 0.2645 1.0512916666666667 0.3775833333333334 1.7633333333333334 -0.9420416666666667 3.2784583333333335 -2.738916666666667 3.4308333333333336 -2.894166666666667 0.244375 -8.190875 0.5222916666666667 -17.32379166666667 0.5222916666666667 -9.131958333333333 0 -14.429625000000001 -0.27791666666666665 -17.322833333333335 -0.5222916666666667 -1.7978333333333334 -0.15141666666666667 -3.125125 -1.6770833333333335 -2.6603333333333334 -3.4193333333333333 0.16770833333333332 -0.6277083333333334 0.37375 -1.2007916666666667 0.5903333333333334 -1.7096666666666667 0.779125 -1.8237083333333335 2.6545833333333335 -2.7647916666666665 4.6345 -2.874041666666667 1.8285 -0.09966666666666667 4.489791666666666 -0.21275000000000002 8.037541666666668 -0.2798333333333333A6.708333333333334 6.708333333333334 0 0 1 22.396250000000002 2.875h1.2094166666666668a6.708333333333334 6.708333333333334 0 0 1 6.1381250000000005 4.002000000000001Z" stroke-width="2"></path><path id="Vector 831" stroke="#000" stroke-linecap="round" stroke-linejoin="round" d="m17.25 23.958333333333336 0.9583333333333334 9.583333333333334" stroke-width="2"></path><path id="Vector 832" stroke="#000" stroke-linecap="round" stroke-linejoin="round" d="m28.75 23.958333333333336 -0.9583333333333334 9.583333333333334" stroke-width="2"></path></g></svg>