<svg xmlns="http://www.w3.org/2000/svg" fill="none" viewBox="-1 -1 48 48" height="48" width="48"><g id="webcam-off--webcam-camera-future-tech-chat-skype-technology-video-off"><path id="Rectangle 249" stroke="#000" stroke-linecap="round" stroke-linejoin="round" d="M37.375 42.463750000000005a3.687666666666667 3.687666666666667 0 0 1 -0.5759583333333333 0.09583333333333334c-3.20275 0.273125 -7.984833333333334 0.5654166666666667 -13.8 0.5654166666666667 -5.81325 0 -10.595333333333333 -0.29229166666666667 -13.798083333333334 -0.5654166666666667 -2.3287500000000003 -0.19933333333333333 -3.7327083333333335 -2.4744166666666665 -2.4571666666666667 -4.434208333333333 1.0618333333333334 -1.6310833333333334 2.6258333333333335 -3.5007916666666667 4.853958333333334 -5.062875000000001" stroke-width="2"></path><path id="Ellipse 20" stroke="#000" stroke-linecap="round" stroke-linejoin="round" d="M30.1875 35.811A17.18675 17.18675 0 0 1 23 37.375c-9.526791666666668 0 -17.25 -7.723208333333333 -17.25 -17.25 0 -2.5654583333333334 0.5596666666666666 -4.999625 1.564 -7.1875M34.845 32.66575A17.202083333333334 17.202083333333334 0 0 0 40.25 20.125c0 -9.526791666666668 -7.723208333333333 -17.25 -17.25 -17.25a17.202083333333334 17.202083333333334 0 0 0 -12.521583333333334 5.385833333333333" stroke-width="2"></path><path id="Ellipse 21" stroke="#000" stroke-linecap="round" stroke-linejoin="round" d="M25.875 31.26275c-0.9190416666666666 0.23670833333333333 -1.8821666666666668 0.36225 -2.875 0.36225 -6.350875 0 -11.5 -5.149125000000001 -11.5 -11.5 0 -0.9928333333333335 0.1255416666666667 -1.9559583333333332 0.36225 -2.875m19.000875 11.267125A11.468375000000002 11.468375000000002 0 0 0 34.5 20.125c0 -6.350875 -5.149125000000001 -11.5 -11.5 -11.5a11.468375000000002 11.468375000000002 0 0 0 -8.442916666666667 3.6915" stroke-width="2"></path><path id="Ellipse 22" stroke="#000" stroke-linecap="round" stroke-linejoin="round" d="M25.395833333333336 23.117875a3.8333333333333335 3.8333333333333335 0 1 0 -5.4318333333333335 -5.334083333333333" stroke-width="2"></path><path id="Vector 864" stroke="#000" stroke-linecap="round" stroke-linejoin="round" d="m5.75 3.8333333333333335 36.41666666666667 36.41666666666667" stroke-width="2"></path></g></svg>