<svg xmlns="http://www.w3.org/2000/svg" fill="none" viewBox="-1 -1 48 48" height="48" width="48"><g id="reset-clock--timer-countdown-clock"><path id="Union" stroke="#000" stroke-linecap="round" stroke-linejoin="round" d="M9.957083333333335 38.55375c1.0158333333333334 0.8500416666666667 2.511791666666667 0.5280416666666667 3.235333333333333 -0.58075l0.5232500000000001 -0.8030833333333334c0.7225833333333334 -1.1078333333333332 0.393875 -2.577916666666667 -0.577875 -3.4749166666666667a14.336666666666668 14.336666666666668 0 0 1 -4.635458333333333 -10.572333333333333c0 -7.938833333333334 6.436166666666667 -14.375 14.375 -14.375 7.938833333333334 0 14.375 6.436166666666667 14.375 14.375 0 4.0595 -1.6828333333333334 7.725125 -4.389166666666667 10.339458333333333a50.725541666666665 50.725541666666665 0 0 0 -2.8270833333333334 -2.9555000000000002c-0.9161666666666667 -0.8740000000000001 -2.2587916666666668 -0.4187916666666667 -2.4849583333333336 0.8280000000000001 -0.48108333333333336 2.6430833333333332 -0.69575 5.670458333333333 -0.78775 8.187041666666666a2.7561666666666667 2.7561666666666667 0 0 0 2.3785833333333337 2.8337916666666665c2.4792083333333337 0.345 5.476875 0.6574166666666668 8.152541666666666 0.6459166666666667 1.2803333333333335 -0.004791666666666667 1.9703333333333335 -1.2726666666666668 1.2602083333333334 -2.3383333333333334a49.58416666666667 49.58416666666667 0 0 0 -2.0077083333333334 -2.770541666666667 20.07133333333333 20.07133333333333 0 0 0 6.455333333333333 -14.769833333333334c0 -11.11475 -9.01025 -20.125 -20.125 -20.125s-20.125 9.01025 -20.125 20.125c0 6.196583333333334 2.80025 11.739583333333334 7.20475 15.431083333333333Z" stroke-width="2"></path><path id="Vector 1439" stroke="#000" stroke-linecap="round" stroke-linejoin="round" d="M23 14.375v8.625l-5.75 5.75" stroke-width="2"></path></g></svg>