<svg xmlns="http://www.w3.org/2000/svg" fill="none" viewBox="-1 -1 48 48" height="48" width="48"><g id="spiral-shape"><path id="Spiral 1" stroke="#000" stroke-linecap="round" stroke-linejoin="round" d="M20.6425 25.404458333333334c-0.6564583333333334 -0.55775 0.17441666666666666 -2.0795833333333333 1.7067916666666667 -1.7441666666666669 1.4729583333333334 0.17633333333333334 2.90375 2.6143333333333336 1.5764583333333335 5.096416666666666 -1.1174166666666667 2.4725 -5.170208333333333 4.053750000000001 -8.404583333333333 1.8764166666666666 -3.2803750000000003 -1.9185833333333333 -4.6431249999999995 -7.634083333333334 -1.4451666666666667 -11.934125 2.8922499999999998 -4.377666666666666 10.163125 -6.035583333333333 15.101416666666667 -2.009625 5.085875000000001 3.6531666666666665 6.3825 12.665333333333333 1.3148333333333335 18.771833333333333 -4.6690000000000005 6.294333333333333 -15.154125 8.007833333333334 -21.79825 2.143791666666667C1.8074166666666667 32.210541666666664 0.5654166666666667 19.915125 7.509500000000001 11.993541666666667 13.953333333333335 3.7835 27.659416666666665 2.0125 36.004583333333336 9.717500000000001c8.693999999999999 7.137666666666667 9.870833333333334 22.709625 1.0541666666666667 32.44916666666667" stroke-width="2"></path></g></svg>