<svg xmlns="http://www.w3.org/2000/svg" fill="none" viewBox="-1 -1 48 48" height="48" width="48"><g id="dollar-coin--accounting-billing-payment-cash-coin-currency-money-finance"><path id="Ellipse 19" stroke="#000" stroke-linecap="round" stroke-linejoin="round" d="M23 2.875c11.11475 0 20.125 9.01025 20.125 20.125s-9.01025 20.125 -20.125 20.125S2.875 34.11475 2.875 23 11.88525 2.875 23 2.875Z" stroke-width="2"></path><path id="Ellipse 21" stroke="#000" stroke-linecap="round" stroke-linejoin="round" d="M23 7.666666666666667c8.468791666666666 0 15.333333333333334 6.864541666666667 15.333333333333334 15.333333333333334s-6.864541666666667 15.333333333333334 -15.333333333333334 15.333333333333334S7.666666666666667 31.46879166666667 7.666666666666667 23 14.531208333333334 7.666666666666667 23 7.666666666666667Z" stroke-width="2"></path><path id="Vector" stroke="#000" stroke-linecap="round" stroke-linejoin="round" d="M27.3125 18.159458333333337S25.5875 16.83791666666667 23 16.83791666666667c-2.15625 0 -4.3125 1.3205833333333332 -4.3125 3.0810416666666667 0 4.399708333333334 8.625 1.7595 8.625 6.160166666666667 0 1.7604583333333335 -2.15625 3.0800833333333335 -4.3125 3.0800833333333335 -2.5875000000000004 0 -4.3125 -1.319625 -4.3125 -1.319625" stroke-width="2"></path><path id="Vector 837" stroke="#000" stroke-linecap="round" stroke-linejoin="round" d="M23 16.838875V14.375" stroke-width="2"></path><path id="Vector 838" stroke="#000" stroke-linecap="round" stroke-linejoin="round" d="M23 31.625v-2.4629166666666666" stroke-width="2"></path></g></svg>