<svg xmlns="http://www.w3.org/2000/svg" fill="none" viewBox="-1 -1 48 48" height="48" width="48"><g id="video-close-captioning"><path id="Union" stroke="#000" stroke-linecap="round" stroke-linejoin="round" d="M7.884208333333334 35.40179166666667c-2.438 -0.16291666666666668 -4.350833333333333 -1.9693750000000003 -4.570291666666667 -4.4035416666666665 -0.23 -2.5539583333333336 -0.45041666666666663 -6.378666666666667 -0.45041666666666663 -11.647583333333333s0.22041666666666668 -9.094583333333334 0.45041666666666663 -11.647583333333333c0.21945833333333334 -2.4341666666666666 2.1322916666666667 -4.241583333333334 4.57125 -4.4035416666666665C10.977708333333334 3.0935 15.922708333333333 2.875 23 2.875c7.076333333333334 0 12.021333333333335 0.21850000000000003 15.115791666666667 0.4245416666666667 2.4389583333333333 0.16291666666666668 4.350833333333333 1.9693750000000003 4.57125 4.4035416666666665 0.22904166666666667 2.5539583333333336 0.44945833333333335 6.378666666666667 0.44945833333333335 11.647583333333333s-0.22041666666666668 9.094583333333334 -0.45041666666666663 11.647583333333333c-0.21850000000000003 2.4341666666666666 -2.1313333333333335 4.241583333333334 -4.570291666666667 4.4035416666666665 -2.7120833333333336 0.181125 -6.845375 0.370875 -12.590583333333333 0.4149583333333333l-7.577541666666667 6.746666666666667c-1.23625 1.0992083333333333 -3.19125 0.22233333333333336 -3.19125 -1.4327083333333335v-5.414583333333334a181.90795833333334 181.90795833333334 0 0 1 -6.873166666666667 -0.31433333333333335Z" stroke-width="2"></path><path id="C" stroke="#000" stroke-linecap="round" stroke-linejoin="round" d="M38.333333333333336 12.772666666666666c0 0.45137499999999997 -0.16674999999999998 1.106875 -0.4264583333333334 1.7154166666666668 -0.44083333333333335 1.032125 -1.6310833333333334 1.0311666666666668 -2.6948333333333334 0.675625 -0.8490833333333334 -0.2836666666666667 -1.7345833333333334 -0.37375 -2.727416666666667 -0.255875 -1.6445 0.19262500000000002 -3.8620833333333335 1.6751666666666667 -3.8620833333333335 4.274166666666667 0 2.1140833333333333 1.2650000000000001 3.9675 4.195583333333333 4.2435 0.8165 0.077625 1.55825 -0.03641666666666667 2.3086249999999997 -0.28941666666666666 1.0925 -0.3670416666666667 2.331625 -0.26833333333333337 2.7580833333333334 0.8030833333333334 0.4379583333333334 1.1011250000000001 0.6047083333333334 2.4265000000000003 0.14566666666666667 3.1414166666666667C37.05108333333333 28.606250000000003 34.406083333333335 28.75 32.818125 28.75 27.025000000000002 28.75 23 25.021125 23 19.182 23 13.675416666666667 26.906166666666667 9.583333333333334 32.484625 9.583333333333334c1.9875833333333333 0 5.848708333333334 0.46575 5.848708333333334 3.1893333333333334Z" stroke-width="2"></path><path id="C_2" stroke="#000" stroke-linecap="round" stroke-linejoin="round" d="M23 12.772666666666666c0 0.45137499999999997 -0.16674999999999998 1.106875 -0.4264583333333334 1.7154166666666668 -0.44083333333333335 1.032125 -1.6310833333333334 1.0311666666666668 -2.6948333333333334 0.675625 -0.8490833333333334 -0.2836666666666667 -1.7345833333333334 -0.37375 -2.727416666666667 -0.255875 -1.6445 0.19262500000000002 -3.8620833333333335 1.6751666666666667 -3.8620833333333335 4.274166666666667 0 2.1140833333333333 1.2650000000000001 3.9675 4.195583333333333 4.2435 0.8165 0.077625 1.5572916666666667 -0.03641666666666667 2.3086249999999997 -0.28941666666666666 1.0925 -0.3670416666666667 2.331625 -0.26833333333333337 2.7580833333333334 0.8030833333333334 0.4379583333333334 1.1011250000000001 0.6047083333333334 2.4265000000000003 0.14566666666666667 3.1414166666666667C21.71775 28.606250000000003 19.072750000000003 28.75 17.48479166666667 28.75 11.691666666666666 28.75 7.666666666666667 25.021125 7.666666666666667 19.182 7.666666666666667 13.675416666666667 11.572833333333334 9.583333333333334 17.151291666666665 9.583333333333334c1.9875833333333333 0 5.848708333333334 0.46575 5.848708333333334 3.1893333333333334Z" stroke-width="2"></path></g></svg>