<svg xmlns="http://www.w3.org/2000/svg" fill="none" viewBox="-1 -1 48 48" height="48" width="48"><g id="filter-1--funnel-filter-round-oil"><path id="Union" stroke="#000" stroke-linecap="round" stroke-linejoin="round" d="M23 5.75c-10.985375 0 -16.349166666666665 0.46479166666666666 -18.648208333333333 0.7599583333333334C3.4787500000000002 6.622083333333333 2.875 7.366708333333334 2.875 8.248375l0 3.066666666666667c0 0.92 0.32775000000000004 1.8054999999999999 0.9640833333333334 2.469625 1.8160416666666668 1.8955833333333334 6.128541666666666 6.089250000000001 12.33375 10.181333333333335 0.4935416666666667 0.32583333333333336 0.8184166666666667 0.8586666666666667 0.8720833333333334 1.4470833333333335 0.6095 6.563625 1.1682083333333335 11.046708333333333 1.4643333333333335 13.25375A1.8304166666666666 1.8304166666666666 0 0 0 20.332 40.25c0.34883333333333333 0 0.69 -0.09775 0.9870833333333334 -0.28270833333333334l4.816583333333333 -3.0053333333333336c0.7340833333333334 -0.457125 1.2774583333333334 -1.1538333333333333 1.4566666666666668 -2.0000416666666667 0.3085833333333334 -1.4499583333333332 0.8030833333333334 -4.315375 1.33975 -9.547875 0.060375000000000005 -0.5845833333333333 0.38333333333333336 -1.1107083333333334 0.8730416666666667 -1.4336666666666666 6.216708333333334 -4.095916666666667 10.537833333333333 -8.29725 12.355791666666669 -10.196666666666667 0.6363333333333334 -0.6631666666666667 0.9640833333333334 -1.549625 0.9640833333333334 -2.469625v-3.066666666666667c0 -0.8807083333333334 -0.60375 -1.6253333333333333 -1.4767916666666667 -1.7374583333333333C39.34820833333333 6.214791666666668 33.985375000000005 5.75 23 5.75Z" stroke-width="2"></path></g></svg>