<svg xmlns="http://www.w3.org/2000/svg" fill="none" viewBox="-1 -1 48 48" height="48" width="48"><g id="user-feedback-heart"><path id="Vector 9" stroke="#000" stroke-linecap="round" stroke-linejoin="round" d="M31.56941666666667 24.746083333333335a6.902875000000001 6.902875000000001 0 0 0 0.8366250000000001 -5.155833333333334c-0.8730416666666667 -3.989541666666667 -5.7087916666666665 -5.619666666666666 -8.720833333333333 -2.9459166666666667 -0.238625 0.21083333333333334 -0.45041666666666663 0.45329166666666665 -0.6852083333333333 0.6947916666666667 -0.23479166666666668 -0.24245833333333336 -0.4465833333333334 -0.4849166666666667 -0.6852083333333333 -0.6947916666666667 -3.0120416666666667 -2.67375 -7.847791666666667 -1.043625 -8.720833333333333 2.9459166666666667a6.902875000000001 6.902875000000001 0 0 0 0.8366250000000001 5.155833333333334c1.5256666666666667 2.4725 3.919583333333333 4.437083333333334 6.322125000000001 6.210000000000001a3.7940416666666668 3.7940416666666668 0 0 0 4.494583333333334 0c2.4035 -1.772916666666667 4.796458333333334 -3.7375000000000003 6.322125000000001 -6.210000000000001Z" stroke-width="2"></path><path id="Vector" stroke="#000" stroke-linecap="round" stroke-linejoin="round" d="M12.860833333333334 33.52633333333333a0.8577083333333334 0.8577083333333334 0 0 0 -0.4820416666666667 -1.2899166666666668c-2.8270833333333334 -0.8490833333333334 -6.564583333333333 -1.2937500000000002 -8.395958333333333 -1.4720000000000002a0.9132916666666666 0.9132916666666666 0 0 0 -1.0043333333333335 1.00625c0.18495833333333334 1.7662083333333334 0.6325000000000001 5.332166666666667 1.480625 8.350916666666667a0.8692083333333334 0.8692083333333334 0 0 0 1.3110000000000002 0.5088750000000001c2.601875 -1.6703750000000002 5.430875 -4.504166666666667 7.091666666666668 -7.104125000000001Z" stroke-width="2"></path><path id="Vector_2" stroke="#000" stroke-linecap="round" stroke-linejoin="round" d="M33.13916666666667 12.472708333333335a0.8577083333333334 0.8577083333333334 0 0 0 0.4820416666666667 1.290875c2.8270833333333334 0.8490833333333334 6.564583333333333 1.2937500000000002 8.395958333333333 1.4720000000000002a0.9132916666666666 0.9132916666666666 0 0 0 1.003375 -1.00625c-0.18400000000000002 -1.7662083333333334 -0.6315416666666667 -5.332166666666667 -1.4796666666666667 -8.350916666666667a0.8692083333333334 0.8692083333333334 0 0 0 -1.3110000000000002 -0.5088750000000001c-2.601875 1.6703750000000002 -5.430875 4.504166666666667 -7.091666666666668 7.103166666666667Z" stroke-width="2"></path><path id="Subtract" stroke="#000" stroke-linecap="round" stroke-linejoin="round" d="M36.506750000000004 8.397875C32.936 4.974708333333333 28.108875 2.875 22.79875 2.875c-5.501791666666667 0 -10.48225 2.2520833333333337 -14.0875 5.893750000000001A20.165250000000004 20.165250000000004 0 0 0 2.875 23m6.6172916666666675 14.602125000000001C13.064 41.02529166666667 17.892083333333336 43.125 23.20220833333333 43.125c5.501791666666667 0 10.48225 -2.2520833333333337 14.0875 -5.893750000000001A20.164291666666667 20.164291666666667 0 0 0 43.125 23" stroke-width="2"></path></g></svg>