<svg xmlns="http://www.w3.org/2000/svg" fill="none" viewBox="-1 -1 48 48" height="48" width="48"><g id="door--door-entrance-house-home"><path id="Rectangle 722" stroke="#000" stroke-linecap="round" stroke-linejoin="round" d="M34.86225 3.357041666666667c2.1112083333333334 0.209875 3.681916666666667 1.772916666666667 3.88125 3.8860416666666664C39.010875000000006 10.061541666666667 39.29166666666667 14.943291666666667 39.29166666666667 23s-0.28079166666666666 12.9375 -0.5481666666666667 15.756916666666667c-0.19933333333333333 2.113125 -1.7700416666666667 3.6761666666666666 -3.88125 3.8860416666666664C32.44533333333334 42.8835 28.619666666666667 43.125 23 43.125s-9.445333333333334 -0.24150000000000002 -11.862250000000001 -0.4820416666666667c-2.1112083333333334 -0.209875 -3.681916666666667 -1.772916666666667 -3.88125 -3.8860416666666664C6.9891250000000005 35.93845833333333 6.708333333333334 31.056708333333333 6.708333333333334 23s0.28079166666666666 -12.9375 0.5481666666666667 -15.756916666666667c0.19933333333333333 -2.113125 1.7700416666666667 -3.6761666666666666 3.88125 -3.8860416666666664C13.554666666666668 3.1165 17.380333333333333 2.875 23 2.875s9.445333333333334 0.24150000000000002 11.862250000000001 0.4820416666666667Z" stroke-width="2"></path><path id="Vector 1514" stroke="#000" stroke-linecap="round" stroke-linejoin="round" d="M32.583333333333336 23h-3.8333333333333335" stroke-width="2"></path></g></svg>