<svg xmlns="http://www.w3.org/2000/svg" fill="none" viewBox="-1 -1 48 48" height="48" width="48"><g id="chat-bubble-oval-notification--messages-message-bubble-chat-oval-notify-ping"><path id="Union" stroke="#000" stroke-linecap="round" stroke-linejoin="round" d="M23 2.875C11.88525 2.875 2.875 11.88525 2.875 23c0 3.6435833333333334 0.9679166666666668 7.060041666666667 2.661291666666667 10.007875 -0.8720833333333334 2.2779583333333333 -1.6943333333333335 4.922958333333333 -2.233875 7.567a1.722125 1.722125 0 0 0 2.1054583333333334 2.0316666666666667c2.5328749999999998 -0.5999166666666667 5.103125 -1.43175 7.3609583333333335 -2.2722083333333334A20.031083333333335 20.031083333333335 0 0 0 23 43.125c11.11475 0 20.125 -9.01025 20.125 -20.125 0 -0.3210416666666667 -0.007666666666666667 -0.6411250000000001 -0.022041666666666668 -0.9583333333333334" stroke-width="2"></path><path id="Ellipse 3" stroke="#000" stroke-linejoin="round" d="M43.125 11.5a8.625 8.625 0 1 1 -17.25 0 8.625 8.625 0 0 1 17.25 0Z" stroke-width="2"></path></g></svg>