<svg xmlns="http://www.w3.org/2000/svg" fill="none" viewBox="-1 -1 48 48" height="48" width="48"><g id="electric-charging-station"><path id="Union" stroke="#000" stroke-linecap="round" stroke-linejoin="round" d="M5.75 37.375V23.443708333333337c0 -6.4975000000000005 0.12266666666666667 -11.234541666666669 0.25204166666666666 -14.422916666666667 0.12745833333333334 -3.125125 2.291375 -5.672375 5.409791666666666 -5.927291666666666A71.877875 71.877875 0 0 1 17.25 2.875c2.346 0 4.280875 0.09200000000000001 5.838166666666667 0.21850000000000003 3.1184166666666666 0.2549166666666667 5.282333333333333 2.802166666666667 5.409791666666666 5.92825 0.12937500000000002 3.187416666666667 0.25204166666666666 7.925416666666667 0.25204166666666666 14.422916666666667V37.375h0.8979583333333334c0.9104166666666667 0 1.7345833333333334 0.47341666666666665 1.8735416666666669 1.3732916666666668 0.060375000000000005 0.39675 0.10350000000000001 0.8912500000000001 0.10350000000000001 1.5017083333333334 0 0.6104583333333333 -0.042166666666666665 1.1049583333333335 -0.10350000000000001 1.5017083333333334 -0.13895833333333332 0.899875 -0.9631249999999999 1.3732916666666668 -1.8735416666666669 1.3732916666666668H4.852041666666667c-0.9104166666666667 0 -1.7345833333333334 -0.47341666666666665 -1.8735416666666669 -1.3732916666666668C2.9171666666666667 41.354958333333336 2.875 40.860458333333334 2.875 40.25c0 -0.6104583333333333 0.042166666666666665 -1.1049583333333335 0.10350000000000001 -1.5017083333333334C3.1174583333333334 37.848416666666665 3.9416250000000006 37.375 4.852041666666667 37.375H5.75Z" stroke-width="2"></path><path id="Rectangle 1099" stroke="#000" stroke-linecap="round" stroke-linejoin="round" d="M21.725416666666668 17.157041666666665c1.0043333333333335 -0.05366666666666667 1.84 -0.6382500000000001 2.0125 -1.6291666666666667 0.12170833333333334 -0.6995833333333333 0.22041666666666668 -1.6914583333333333 0.22041666666666668 -3.069541666666667s-0.09870833333333333 -2.3699583333333334 -0.22041666666666668 -3.0705000000000005c-0.1725 -0.9899583333333333 -1.0081666666666667 -1.5745416666666667 -2.0125 -1.6282083333333335C20.799666666666667 7.71075 19.3775 7.666666666666667 17.25 7.666666666666667s-3.5487083333333334 0.044083333333333335 -4.475416666666667 0.09295833333333334c-1.0043333333333335 0.05366666666666667 -1.84 0.6382500000000001 -2.0125 1.6291666666666667 -0.12170833333333334 0.6995833333333333 -0.22041666666666668 1.6914583333333333 -0.22041666666666668 3.069541666666667s0.09870833333333333 2.3699583333333334 0.22041666666666668 3.0705000000000005c0.1725 0.9899583333333333 1.0081666666666667 1.5745416666666667 2.0125 1.6282083333333335 0.9267083333333334 0.048875 2.348875 0.09295833333333334 4.475416666666667 0.09295833333333334s3.5487083333333334 -0.044083333333333335 4.475416666666667 -0.09295833333333334Z" stroke-width="2"></path><path id="Union_2" stroke="#000" stroke-linecap="round" stroke-linejoin="round" d="M15.571000000000002 31.21483333333334a47.957875 47.957875 0 0 1 -3.6052500000000003 -0.5941666666666667 0.8778333333333334 0.8778333333333334 0 0 1 -0.4849166666666667 -1.4499583333333332c1.2832083333333333 -1.50075 3.7279166666666668 -4.252125 6.371958333333334 -6.666166666666667 0.6133333333333334 -0.560625 1.5649583333333335 -0.089125 1.5112916666666667 0.7407916666666667a101.82770833333333 101.82770833333333 0 0 1 -0.4350833333333334 4.9565c1.5160833333333334 0.1945416666666667 2.74275 0.416875 3.6052500000000003 0.5941666666666667a0.8778333333333334 0.8778333333333334 0 0 1 0.4849166666666667 1.4499583333333332c-1.2832083333333333 1.50075 -3.7279166666666668 4.252125 -6.371958333333334 6.666166666666667 -0.6133333333333334 0.560625 -1.5649583333333335 0.089125 -1.5112916666666667 -0.7407916666666667 0.13225 -2.034541666666667 0.28941666666666666 -3.6838333333333333 0.4350833333333334 -4.9565Z" stroke-width="2"></path><path id="Vector 347" stroke="#000" stroke-linecap="round" stroke-linejoin="round" d="M28.75 32.583333333333336h9.930250000000001a4.44475 4.44475 0 0 0 2.6143333333333336 -8.040416666666667l-1.8620416666666668 -1.3531666666666666a3.8333333333333335 3.8333333333333335 0 0 1 -1.578375 -3.1002083333333332V14.375" stroke-width="2"></path><path id="Rectangle 57" stroke="#000" stroke-linecap="round" stroke-linejoin="round" d="M35.489958333333334 8.6595c-0.9775 0.03354166666666667 -1.7853750000000002 0.595125 -1.8879166666666667 1.5678333333333332 -0.03641666666666667 0.345 -0.060375000000000005 0.7657083333333334 -0.060375000000000005 1.2726666666666668 0 0.18208333333333335 0.0028750000000000004 0.3526666666666667 0.009583333333333334 0.5127083333333334 0.050791666666666666 1.46625 1.2333749999999999 2.319166666666667 2.7005833333333333 2.347916666666667a83.28875 83.28875 0 0 0 3.2046666666666668 0c1.4672083333333332 -0.02875 2.6497916666666668 -0.8816666666666667 2.7015416666666665 -2.347916666666667a14.307916666666667 14.307916666666667 0 0 0 -0.051750000000000004 -1.7853750000000002c-0.10254166666666667 -0.9727083333333333 -0.9104166666666667 -1.5333333333333334 -1.8879166666666667 -1.5678333333333332A69.14375000000001 69.14375000000001 0 0 0 37.85416666666667 8.625c-1.0225416666666667 0 -1.7920833333333335 0.014375 -2.3642083333333335 0.034499999999999996Z" stroke-width="2"></path><path id="Vector 1457" stroke="#000" stroke-linecap="round" stroke-linejoin="round" d="M40.25 8.625V4.791666666666667" stroke-width="2"></path><path id="Vector 1458" stroke="#000" stroke-linecap="round" stroke-linejoin="round" d="M35.458333333333336 8.625V4.791666666666667" stroke-width="2"></path></g></svg>