<svg xmlns="http://www.w3.org/2000/svg" fill="none" viewBox="-1 -1 48 48" height="48" width="48"><g id="usb-port--cables-cable-device-port-electronics-cords-cord-usb-connection"><path id="Vector 1485" stroke="#000" stroke-linecap="round" stroke-linejoin="round" d="M36.41666666666667 20.125v1.46625a3.8333333333333335 3.8333333333333335 0 0 1 -3.290916666666667 3.795l-6.834833333333333 0.9775A3.8333333333333335 3.8333333333333335 0 0 0 23 30.15875V33.54166666666667" stroke-width="2"></path><path id="Vector 1486" stroke="#000" stroke-linecap="round" stroke-linejoin="round" d="M9.583333333333334 23.958333333333336v0.5079166666666667a3.8333333333333335 3.8333333333333335 0 0 0 3.290916666666667 3.795l6.834833333333333 0.9775A3.8333333333333335 3.8333333333333335 0 0 1 23 33.03375V33.54166666666667" stroke-width="2"></path><path id="Rectangle 128" stroke="#000" stroke-linecap="round" stroke-linejoin="round" d="M19.215541666666667 12.366333333333333c-1.6147916666666668 -0.09295833333333334 -2.3517500000000005 -1.566875 -1.5026666666666668 -2.9440000000000004a60.21208333333333 60.21208333333333 0 0 1 1.62725 -2.4887916666666667c0.7427083333333334 -1.081 1.3723333333333334 -1.8792916666666668 1.888875 -2.468666666666667 1.0100833333333334 -1.15 2.5300000000000002 -1.15 3.5410416666666666 0 0.5165416666666667 0.5884166666666667 1.1461666666666666 1.3876666666666666 1.8879166666666667 2.468666666666667a60.35583333333333 60.35583333333333 0 0 1 1.6282083333333335 2.4878333333333336c0.8490833333333334 1.3780833333333333 0.11212500000000002 2.8529583333333335 -1.503625 2.9449583333333336 -0.94875 0.05366666666666667 -2.185 0.09200000000000001 -3.782541666666667 0.09200000000000001 -1.5985 0 -2.83475 -0.03833333333333334 -3.7844583333333333 -0.09200000000000001Z" stroke-width="2"></path><path id="Ellipse 203" stroke="#000" stroke-linecap="round" stroke-linejoin="round" d="M13.416666666666668 20.125a3.8333333333333335 3.8333333333333335 0 1 1 -7.666666666666667 0 3.8333333333333335 3.8333333333333335 0 0 1 7.666666666666667 0Z" stroke-width="2"></path><path id="Ellipse 201" stroke="#000" stroke-linecap="round" stroke-linejoin="round" d="M18.208333333333336 38.333333333333336a4.791666666666667 4.791666666666667 0 1 0 9.583333333333334 0 4.791666666666667 4.791666666666667 0 1 0 -9.583333333333334 0" stroke-width="2"></path><path id="Vector 1484" stroke="#000" stroke-linecap="round" stroke-linejoin="round" d="m23 12.458333333333334 0 21.083333333333336" stroke-width="2"></path><path id="Rectangle 1098" stroke="#000" stroke-linecap="round" stroke-linejoin="round" d="M40.22316666666667 14.686458333333333c-0.044083333333333335 -1.2266666666666668 -0.9736666666666667 -2.157208333333333 -2.201291666666667 -2.201291666666667A44.980333333333334 44.980333333333334 0 0 0 36.41666666666667 12.458333333333334c-0.6190833333333334 0 -1.1519166666666667 0.010541666666666666 -1.6052083333333333 0.026833333333333334 -1.2266666666666668 0.044083333333333335 -2.157208333333333 0.9736666666666667 -2.201291666666667 2.201291666666667A44.980333333333334 44.980333333333334 0 0 0 32.583333333333336 16.291666666666668c0 0.6190833333333334 0.010541666666666666 1.1519166666666667 0.026833333333333334 1.6052083333333333 0.044083333333333335 1.2266666666666668 0.9736666666666667 2.157208333333333 2.201291666666667 2.201291666666667A44.85 44.85 0 0 0 36.41666666666667 20.125c0.6190833333333334 0 1.1519166666666667 -0.010541666666666666 1.6052083333333333 -0.026833333333333334 1.2266666666666668 -0.044083333333333335 2.157208333333333 -0.9736666666666667 2.201291666666667 -2.201291666666667A44.85 44.85 0 0 0 40.25 16.291666666666668c0 -0.6190833333333334 -0.010541666666666666 -1.1519166666666667 -0.026833333333333334 -1.6052083333333333Z" stroke-width="2"></path></g></svg>