<svg xmlns="http://www.w3.org/2000/svg" fill="none" viewBox="-1 -1 48 48" height="48" width="48"><g id="no-poverty"><path id="Ellipse 135" stroke="#000" stroke-linejoin="round" d="M26.833333333333336 8.625a5.75 5.75 0 1 0 11.5 0 5.75 5.75 0 1 0 -11.5 0" stroke-width="2"></path><path id="Ellipse 136" stroke="#000" stroke-linejoin="round" d="M19.166666666666668 8.625A5.75 5.75 0 1 1 7.666666666666667 8.625a5.75 5.75 0 1 1 11.5 0" stroke-width="2"></path><path id="Ellipse 137" stroke="#000" stroke-linejoin="round" d="M28.75 16.291666666666668a5.75 5.75 0 1 1 -11.5 0 5.75 5.75 0 1 1 11.5 0" stroke-width="2"></path><path id="Subtract" stroke="#000" stroke-linecap="round" stroke-linejoin="round" d="M17.574875 14.382666666666667c-3.4078333333333335 0.01629166666666667 -6.044208333333334 0.06708333333333334 -9.05625 0.22616666666666665 -2.3412083333333333 0.12362500000000001 -4.2712916666666665 1.8687500000000001 -4.692 4.274166666666667 -0.3756666666666667 2.1543333333333337 -0.7762500000000001 4.994833333333333 -0.945875 8.036583333333333 -0.09583333333333334 1.7182916666666668 0.9995416666666667 3.22 2.638291666666667 3.4193333333333333a26.01875 26.01875 0 0 0 1.7527916666666667 0.15333333333333335l0.7743333333333334 9.287208333333334c0.13991666666666666 1.6770833333333335 1.290875 3.069541666666667 2.897041666666667 3.224791666666667a26.496000000000002 26.496000000000002 0 0 0 5.138583333333334 -0.0067083333333333335c0.9334166666666667 -0.09200000000000001 1.7144583333333334 -0.60375 2.2319583333333335 -1.348375" stroke-width="2"></path><path id="Subtract_2" stroke="#000" stroke-linecap="round" stroke-linejoin="round" d="M27.68625 41.649166666666666c0.5175000000000001 0.7436666666666667 1.2985416666666667 1.2554166666666668 2.2329166666666667 1.348375a26.471083333333333 26.471083333333333 0 0 0 5.136666666666668 0.0067083333333333335c1.6071250000000001 -0.15525 2.7580833333333334 -1.5477083333333335 2.898 -3.224791666666667l0.7752916666666667 -9.286249999999999a27.302916666666665 27.302916666666665 0 0 0 1.7518333333333336 -0.15333333333333335c1.63875 -0.20125 2.734125 -1.7020000000000002 2.638291666666667 -3.420291666666667 -0.169625 -3.04175 -0.5702083333333333 -5.88225 -0.945875 -8.035625 -0.4216666666666667 -2.406375 -2.3507916666666664 -4.1515 -4.692 -4.275125 -3.0120416666666667 -0.15908333333333335 -5.648416666666667 -0.21083333333333334 -9.05625 -0.22616666666666665" stroke-width="2"></path><path id="Union" stroke="#000" stroke-linejoin="round" d="M27.65366666666667 22.153791666666667c1.9166666666666667 0.10350000000000001 3.437541666666667 1.4930833333333335 3.7729583333333334 3.3829166666666666 0.3095416666666667 1.7393750000000001 0.67275 4.1055 0.9382083333333333 6.823333333333334a2.6411666666666664 2.6411666666666664 0 0 1 -2.483041666666667 2.9190833333333335c-0.4389166666666667 0.025875000000000002 -0.9315 0.050791666666666666 -1.4777500000000001 0.07379166666666667l-0.38045833333333334 5.150083333333333c-0.09391666666666668 1.27075 -1.014875 2.3277916666666667 -2.2808333333333333 2.4667499999999998 -0.7858333333333333 0.08625 -1.7317083333333334 0.15525 -2.74275 0.15525 -1.0110416666666666 0 -1.9569166666666666 -0.06899999999999999 -2.741791666666667 -0.15525 -1.2669166666666667 -0.13895833333333332 -2.187875 -1.196 -2.2808333333333333 -2.4667499999999998l-0.3814166666666667 -5.150083333333333c-0.54625 -0.023000000000000003 -1.037875 -0.04791666666666667 -1.4767916666666667 -0.07379166666666667a2.6411666666666664 2.6411666666666664 0 0 1 -2.482083333333333 -2.918125c0.2645 -2.718791666666667 0.6277083333333334 -5.0849166666666665 0.9362916666666666 -6.823333333333334 0.336375 -1.8907916666666669 1.856291666666667 -3.2803750000000003 3.773916666666667 -3.3829166666666666A87.36741666666667 87.36741666666667 0 0 1 23 22.041666666666668c1.9300833333333332 0 3.4691666666666667 0.048875 4.653666666666667 0.11212500000000002Z" stroke-width="2"></path></g></svg>