<svg xmlns="http://www.w3.org/2000/svg" fill="none" viewBox="-1 -1 48 48" height="48" width="48"><g id="refrigerator--fridge-cook-appliances-cooking-nutrition-freezer-appliance-food-kitchenware"><path id="Rectangle 722" stroke="#000" stroke-linecap="round" stroke-linejoin="round" d="M34.92166666666667 3.348416666666667c2.113125 0.20891666666666667 3.6665833333333335 1.7853750000000002 3.855375 3.900416666666667C39.027166666666666 10.070166666666665 39.29166666666667 14.950000000000001 39.29166666666667 23s-0.2645 12.930791666666668 -0.5155833333333334 15.750208333333333c-0.18783333333333335 2.116 -1.7412916666666667 3.6924583333333336 -3.8544166666666673 3.901375 -2.3996666666666666 0.23766666666666666 -6.217666666666667 0.47341666666666665 -11.921666666666667 0.47341666666666665 -5.704 0 -9.522 -0.23575000000000002 -11.921666666666667 -0.47341666666666665 -2.113125 -0.20891666666666667 -3.6665833333333335 -1.7853750000000002 -3.8544166666666673 -3.900416666666667C6.972833333333333 35.93079166666667 6.708333333333334 31.05 6.708333333333334 23s0.2645 -12.930791666666668 0.5155833333333334 -15.751166666666668c0.18783333333333335 -2.1150416666666665 1.7412916666666667 -3.6915 3.8544166666666673 -3.900416666666667C13.478 3.11075 17.296 2.875 23 2.875c5.704 0 9.522 0.23575000000000002 11.921666666666667 0.47341666666666665Z" stroke-width="2"></path><path id="Vector 1381" stroke="#000" stroke-linecap="round" stroke-linejoin="round" d="M39.29166666666667 23H6.708333333333334" stroke-width="2"></path><path id="Vector 1382" stroke="#000" stroke-linecap="round" stroke-linejoin="round" d="M14.375 11.5v3.8333333333333335" stroke-width="2"></path><path id="Vector 1383" stroke="#000" stroke-linecap="round" stroke-linejoin="round" d="M14.375 30.666666666666668v3.8333333333333335" stroke-width="2"></path></g></svg>