<svg xmlns="http://www.w3.org/2000/svg" fill="none" viewBox="-1 -1 48 48" height="48" width="48"><g id="pencil-circle--change-circle-edit-modify-pencil-write-writing"><path id="Rectangle 1097" stroke="#000" stroke-linecap="round" stroke-linejoin="round" d="M40.141708333333334 15.751166666666668c1.85725 -1.8582083333333335 2.5645000000000002 -4.5741249999999996 0.9794166666666667 -6.67A21.485833333333336 21.485833333333336 0 0 0 39.1575 6.8425a21.604666666666667 21.604666666666667 0 0 0 -2.2386666666666666 -1.9645833333333333c-2.095875 -1.584125 -4.811791666666667 -0.8768750000000001 -6.67 0.980375L15.455041666666666 20.653041666666667c-0.5213333333333334 0.5213333333333334 -0.8787916666666667 1.1825833333333333 -0.94875 1.9166666666666667 -0.12075000000000001 1.2439166666666668 -0.23095833333333332 3.5697916666666667 0.021083333333333332 7.178875a1.8591666666666666 1.8591666666666666 0 0 0 1.7240416666666667 1.7240416666666667c3.6090833333333334 0.25204166666666666 5.934958333333333 0.14183333333333334 7.179833333333334 0.022041666666666668 0.733125 -0.07091666666666667 1.3943750000000001 -0.428375 1.9157083333333336 -0.94875l14.79475 -14.79475Z" stroke-width="2"></path><path id="Intersect" stroke="#000" stroke-linecap="round" stroke-linejoin="round" d="M37.90016666666667 17.992708333333333c-0.5481666666666667 -1.2122916666666665 -1.7326666666666668 -3.267916666666667 -4.178333333333334 -5.714541666666667 -2.445666666666667 -2.4447083333333337 -4.501291666666667 -3.6301666666666668 -5.713583333333333 -4.178333333333334" stroke-width="2"></path><path id="Ellipse 157" stroke="#000" stroke-linecap="round" stroke-linejoin="round" d="M41.18245833333334 22.949208333333335c0.017249999999999998 0.3344583333333333 0.025875000000000002 0.6708333333333333 0.025875000000000002 1.009125 0 10.585749999999999 -8.580916666666667 19.166666666666668 -19.166666666666668 19.166666666666668S2.875 34.54408333333333 2.875 23.958333333333336 11.455916666666667 4.791666666666667 22.041666666666668 4.791666666666667c0.33829166666666666 0 0.6746666666666666 0.009583333333333334 1.009125 0.025875000000000002" stroke-width="2"></path></g></svg>