<svg xmlns="http://www.w3.org/2000/svg" fill="none" viewBox="-1 -1 48 48" height="48" width="48"><g id="pound-circle--pound-sterling-exchange-payment-forex-finance-foreign-currency"><path id="Ellipse 19" stroke="#000" stroke-linecap="round" stroke-linejoin="round" d="M23 2.875c11.11475 0 20.125 9.01025 20.125 20.125s-9.01025 20.125 -20.125 20.125S2.875 34.11475 2.875 23 11.88525 2.875 23 2.875Z" stroke-width="2"></path><path id="Ellipse 21" stroke="#000" stroke-linecap="round" stroke-linejoin="round" d="M23 7.666666666666667c8.468791666666666 0 15.333333333333334 6.864541666666667 15.333333333333334 15.333333333333334s-6.864541666666667 15.333333333333334 -15.333333333333334 15.333333333333334S7.666666666666667 31.46879166666667 7.666666666666667 23 14.531208333333334 7.666666666666667 23 7.666666666666667Z" stroke-width="2"></path><path id="Vector 1000" stroke="#000" stroke-linecap="round" stroke-linejoin="round" d="M28.270833333333336 15.223125s-4.3125 -2.239625 -6.708333333333334 0.5596666666666666C18.386583333333334 19.493458333333336 23 27.302916666666665 17.25 29.54254166666667c0 0 6.389208333333333 0.37375 11.5 0" stroke-width="2"></path><path id="Vector 1001" stroke="#000" stroke-linecap="round" stroke-linejoin="round" d="M26.833333333333336 22.662666666666667H17.25" stroke-width="2"></path></g></svg>