<svg xmlns="http://www.w3.org/2000/svg" fill="none" viewBox="-1 -1 48 48" height="48" width="48"><g id="fahrenheit--degrees-temperature-fahrenheit-degree-weather"><path id="Ellipse 18" stroke="#000" stroke-linecap="round" stroke-linejoin="round" d="M2.875 6.708333333333334a3.8333333333333335 3.8333333333333335 0 1 0 7.666666666666667 0 3.8333333333333335 3.8333333333333335 0 1 0 -7.666666666666667 0" stroke-width="2"></path><path id="Union" stroke="#000" stroke-linecap="round" stroke-linejoin="round" d="M26.1625 13.531666666666666v7.05525h11.082166666666668c1.6358750000000002 0 3.257375 0.8212916666666666 3.61675 2.4178750000000004 0.1312916666666667 0.5836250000000001 0.19741666666666666 1.1797083333333334 0.19741666666666666 1.7652500000000002 0 1.5400416666666668 -0.35458333333333336 2.6641666666666666 -1.0637500000000002 3.3714166666666667 -0.6679583333333333 0.70725 -1.5850833333333334 1.060875 -2.753291666666667 1.060875H26.287083333333335v9.697375000000001c0 2.162 -1.4595416666666667 4.0825 -3.6186666666666665 4.190791666666667 -0.48875 0.024916666666666667 -0.974625 0.034499999999999996 -1.4528333333333334 0.034499999999999996 -2.1696666666666666 0 -3.6924583333333336 -0.37375 -4.569333333333334 -1.124125 -0.8749583333333334 -0.790625 -1.3138750000000001 -2.142833333333334 -1.3138750000000001 -4.0575833333333335V10.598208333333334c0 -1.790166666666667 0.5213333333333334 -3.2056250000000004 1.5649583333333335 -4.245416666666666C17.940958333333334 5.312041666666667 19.359291666666667 4.791666666666667 21.155208333333334 4.791666666666667h18.217916666666667c1.6349166666666668 0 3.240125 0.8327916666666667 3.567875 2.435125 0.12458333333333334 0.6085416666666666 0.18400000000000002 1.2257083333333334 0.18400000000000002 1.8102916666666669 0 1.5400416666666668 -0.35458333333333336 2.6842916666666667 -1.0637500000000002 3.4337083333333336 -0.6679583333333333 0.70725 -1.5860416666666668 1.060875 -2.7542500000000003 1.060875H26.1625Z" stroke-width="2"></path></g></svg>