<svg xmlns="http://www.w3.org/2000/svg" fill="none" viewBox="-1 -1 48 48" height="48" width="48"><g id="coffee-mug--coffee-cook-cup-drink-mug-cooking-nutrition-cafe-caffeine-food"><path id="Rectangle 56" stroke="#000" stroke-linecap="round" stroke-linejoin="round" d="M4.866416666666667 34.79708333333334c0.14375 4.458166666666667 3.073375 7.793166666666667 7.521958333333334 8.112291666666668C14.192916666666667 43.03875 16.425833333333333 43.125 19.166666666666668 43.125c2.7408333333333332 0 4.973750000000001 -0.08625 6.778291666666667 -0.215625 4.448583333333334 -0.31912500000000005 7.377250000000001 -3.6541250000000005 7.521958333333334 -8.112291666666668 0.046000000000000006 -1.4164166666666667 0.07475 -3.098291666666667 0.07475 -5.08875 0 -5.335999999999999 -0.20795833333333333 -8.55025 -0.393875 -10.362458333333334 -0.1312916666666667 -1.2726666666666668 -1.0273333333333334 -2.2425 -2.292333333333333 -2.4293750000000003C28.90716666666667 16.627083333333335 25.319166666666668 16.291666666666668 19.166666666666668 16.291666666666668c-6.1525 0 -9.741458333333332 0.33541666666666664 -11.688791666666667 0.6248333333333334 -1.2650000000000001 0.186875 -2.1610416666666667 1.1567083333333334 -2.292333333333333 2.4293750000000003C4.999625 21.157125000000004 4.791666666666667 24.372333333333334 4.791666666666667 29.708333333333336c0 1.9904583333333334 0.02875 3.6723333333333334 0.07475 5.08875Z" stroke-width="2"></path><path id="Vector 1362" stroke="#000" stroke-linecap="round" stroke-linejoin="round" d="M33.54166666666667 21.083333333333336h2.5223333333333335c2.6191250000000004 0 4.892291666666667 1.7844166666666668 5.067666666666667 4.397791666666667a34.598708333333335 34.598708333333335 0 0 1 0 4.621083333333334C40.95629166666667 32.715583333333335 38.683125000000004 34.5 36.064 34.5H33.54166666666667" stroke-width="2"></path><path id="Vector 1368" stroke="#000" stroke-linecap="round" stroke-linejoin="round" d="M23.958333333333336 2.875v6.708333333333334" stroke-width="2"></path><path id="Vector 1369" stroke="#000" stroke-linecap="round" stroke-linejoin="round" d="M16.291666666666668 4.791666666666667v6.708333333333334" stroke-width="2"></path></g></svg>