<svg xmlns="http://www.w3.org/2000/svg" fill="none" viewBox="-1 -1 48 48" height="48" width="48"><g id="log--nature-tree-plant-circle-round-log"><path id="Vector 2385" stroke="#000" stroke-linecap="round" stroke-linejoin="round" d="M42.16666666666667 21.083333333333336H28.75" stroke-width="2"></path><path id="Vector 2386" stroke="#000" stroke-linecap="round" stroke-linejoin="round" d="M23.958333333333336 33.54166666666667h-8.625" stroke-width="2"></path><path id="Vector 2387" stroke="#000" stroke-linecap="round" stroke-linejoin="round" d="M42.645833333333336 29.708333333333336H37.375" stroke-width="2"></path><path id="Ellipse 1203" stroke="#000" stroke-linecap="round" stroke-linejoin="round" d="m9.583333333333334 14.375 8.625 -0.4791666666666667 -1.6914583333333333 -5.750958333333334c-0.3842916666666667 -1.3062083333333334 0.399625 -2.678541666666667 1.7547083333333333 -2.8127083333333336 0.37375 -0.03833333333333334 0.7609166666666667 -0.06133333333333334 1.1346666666666667 -0.06133333333333334 0.5385833333333334 0 1.1020833333333333 0.049833333333333334 1.6195833333333334 0.11691666666666667 1.273625 0.16483333333333333 2.3412083333333333 0.9870833333333334 2.992875 2.0939583333333336L27.791666666666668 13.895833333333334l8.625 0.4791666666666667c3.704916666666667 0 6.708333333333334 5.577500000000001 6.708333333333334 12.458333333333334s-3.003416666666667 12.458333333333334 -6.708333333333334 12.458333333333334c0 0 -4.791666666666667 0.4791666666666667 -13.416666666666668 0.4791666666666667S9.583333333333334 39.29166666666667 9.583333333333334 39.29166666666667" stroke-width="2"></path><path id="Ellipse 1204" stroke="#000" stroke-linecap="round" stroke-linejoin="round" d="M16.291666666666668 26.833333333333336c0 6.880833333333333 -3.003416666666667 12.458333333333334 -6.708333333333334 12.458333333333334s-6.708333333333334 -5.577500000000001 -6.708333333333334 -12.458333333333334 3.003416666666667 -12.458333333333334 6.708333333333334 -12.458333333333334 6.708333333333334 5.577500000000001 6.708333333333334 12.458333333333334Z" stroke-width="2"></path></g></svg>