<svg xmlns="http://www.w3.org/2000/svg" fill="none" viewBox="-1 -1 48 48" height="48" width="48"><g id="pool-ladder--pool-stairs-swim-swimming-water-ladder-hotel"><path id="Vector" stroke="#000" stroke-linecap="round" stroke-linejoin="round" d="M43.125 43.125c-1.81125 0 -3.6225 -0.5328333333333334 -5.194166666666667 -1.6004166666666666a2.738916666666667 2.738916666666667 0 0 0 -3.0283333333333338 0A9.241208333333335 9.241208333333335 0 0 1 29.708333333333336 43.125c-1.81125 0 -3.6225 -0.5328333333333334 -5.194166666666667 -1.6004166666666666a2.738916666666667 2.738916666666667 0 0 0 -3.0283333333333338 0A9.241208333333335 9.241208333333335 0 0 1 16.291666666666668 43.125c-1.81125 0 -3.6225 -0.5328333333333334 -5.194166666666667 -1.6004166666666666a2.738916666666667 2.738916666666667 0 0 0 -3.0283333333333338 0A9.241208333333335 9.241208333333335 0 0 1 2.875 43.125" stroke-width="2"></path><path id="Vector 1502" stroke="#000" stroke-linecap="round" stroke-linejoin="round" d="M38.333333333333336 31.625H19.166666666666668" stroke-width="2"></path><path id="Vector 1503" stroke="#000" stroke-linecap="round" stroke-linejoin="round" d="M38.333333333333336 21.083333333333336H19.166666666666668" stroke-width="2"></path><path id="Vector_2" stroke="#000" stroke-linecap="round" stroke-linejoin="round" d="M19.166666666666668 36.895833333333336v-25.875a8.145833333333334 8.145833333333334 0 0 0 -16.291666666666668 0v1.8735416666666669c0 0.9075416666666667 0.5222916666666667 1.7480000000000002 1.4192916666666668 1.8860000000000001a6.453416666666667 6.453416666666667 0 0 0 1.9530833333333333 0C7.144375 14.642375000000001 7.666666666666667 13.801916666666667 7.666666666666667 12.894375V11.020833333333334a3.354166666666667 3.354166666666667 0 1 1 6.708333333333334 0v26.833333333333336" stroke-width="2"></path><path id="Vector_3" stroke="#000" stroke-linecap="round" stroke-linejoin="round" d="M43.125 38.333333333333336V11.020833333333334a8.145833333333334 8.145833333333334 0 0 0 -16.291666666666668 0v1.8735416666666669c0 0.9075416666666667 0.5222916666666667 1.7480000000000002 1.4192916666666668 1.8860000000000001a6.454375000000001 6.454375000000001 0 0 0 1.9530833333333333 0c0.8970000000000001 -0.13799999999999998 1.4192916666666668 -0.9784583333333333 1.4192916666666668 -1.8860000000000001V11.020833333333334a3.354166666666667 3.354166666666667 0 1 1 6.708333333333334 0V36.41666666666667" stroke-width="2"></path></g></svg>