<svg xmlns="http://www.w3.org/2000/svg" fill="none" viewBox="-1 -1 48 48" height="48" width="48"><g id="notification-alert--android-phone-mobile-device-smartphone-iphone-alert"><path id="Rectangle 1095" stroke="#000" stroke-linecap="round" stroke-linejoin="round" d="M31.579958333333337 28.75c-0.06708333333333334 4.123708333333333 -0.20125 7.223916666666667 -0.32775000000000004 9.399333333333333 -0.140875 2.415 -1.8907916666666669 4.3412500000000005 -4.300041666666667 4.57125C24.733625000000004 42.93333333333333 21.540458333333333 43.125 17.25 43.125s-7.484583333333333 -0.19166666666666668 -9.702166666666667 -0.40441666666666665c-2.40925 -0.23 -4.159166666666667 -2.15625 -4.300041666666667 -4.572208333333333C3.066666666666667 35.058708333333335 2.875 30.104125 2.875 23s0.19166666666666668 -12.058708333333334 0.3727916666666667 -15.148375000000001c0.140875 -2.415 1.8907916666666669 -4.3412500000000005 4.300041666666667 -4.572208333333333C9.766375000000002 3.066666666666667 12.959541666666667 2.875 17.25 2.875c1.3915 0 2.6679999999999997 0.020125 3.8333333333333335 0.05462500000000001" stroke-width="2"></path><path id="Intersect" stroke="#000" stroke-linecap="round" stroke-linejoin="round" d="m11.754916666666666 2.9919166666666666 0.3890833333333334 3.1145833333333335A2.875 2.875 0 0 0 14.996958333333334 8.625H18.208333333333336" stroke-width="2"></path><path id="Vector 1363" stroke="#000" stroke-linecap="round" d="M15.333333333333334 37.375h3.8333333333333335" stroke-width="2"></path><path id="Ellipse 19" stroke="#000" d="M22.041666666666668 13.416666666666668a10.541666666666668 10.541666666666668 0 1 0 21.083333333333336 0 10.541666666666668 10.541666666666668 0 1 0 -21.083333333333336 0" stroke-width="2"></path><path id="Vector 1192" stroke="#000" stroke-linecap="round" stroke-linejoin="round" d="M32.583333333333336 17.25v0.9583333333333334" stroke-width="2"></path><path id="Vector 1193" stroke="#000" stroke-linecap="round" stroke-linejoin="round" d="M32.583333333333336 13.416666666666668V8.625" stroke-width="2"></path></g></svg>