<svg xmlns="http://www.w3.org/2000/svg" fill="none" viewBox="-1 -1 48 48" height="48" width="48"><g id="presentation"><path id="Rectangle 724" stroke="#000" stroke-linecap="round" stroke-linejoin="round" d="m38.333333333333336 27.402583333333336 0.439875 -0.03066666666666667c2.09875 -0.15333333333333335 3.7279166666666668 -1.6310833333333334 3.9607916666666667 -3.723125C42.941 21.7925 43.125 19.086166666666667 43.125 15.333333333333334c0 -3.7528333333333332 -0.18400000000000002 -6.459166666666667 -0.391 -8.315458333333334 -0.232875 -2.092041666666667 -1.8591666666666666 -3.5697916666666667 -3.959833333333333 -3.722166666666667C35.95858333333333 3.090625 31.073 2.875 23 2.875c-8.073 0 -12.958583333333333 0.215625 -15.774166666666668 0.42070833333333335 -2.099708333333333 0.152375 -3.7279166666666668 1.6291666666666667 -3.959833333333333 3.722166666666667C3.059 8.874166666666667 2.875 11.5805 2.875 15.333333333333334c0 3.7528333333333332 0.18400000000000002 6.459166666666667 0.391 8.315458333333334 0.232875 2.092041666666667 1.8620416666666668 3.5707500000000003 3.9607916666666667 3.723125l0.439875 0.03066666666666667" stroke-width="2"></path><path id="Ellipse 135" stroke="#000" stroke-linecap="round" stroke-linejoin="round" d="M28.75 16.291666666666668a5.75 5.75 0 1 1 -11.5 0 5.75 5.75 0 0 1 11.5 0Z" stroke-width="2"></path><path id="Rectangle 1525" stroke="#000" stroke-linecap="round" stroke-linejoin="round" d="M11.433875 43.125s-0.54625 -1.8955833333333334 -1.2170833333333333 -4.791666666666667" stroke-width="2"></path><path id="Rectangle 1527" stroke="#000" stroke-linecap="round" stroke-linejoin="round" d="M34.56612500000001 43.125s0.54625 -1.8955833333333334 1.2170833333333333 -4.791666666666667" stroke-width="2"></path><path id="Rectangle 1099" stroke="#000" stroke-linecap="round" stroke-linejoin="round" d="M8.280000000000001 32.6945c-0.7350416666666667 0.013416666666666667 -1.3752083333333334 0.46479166666666666 -1.474875 1.1931250000000002C6.7505 34.29491666666667 6.708333333333334 34.81433333333334 6.708333333333334 35.458333333333336s0.042166666666666665 1.1643750000000002 0.09679166666666668 1.5716666666666665c0.09966666666666667 0.7283333333333334 0.7398333333333333 1.17875 1.4739166666666668 1.1921666666666666C10.359583333333335 38.26241666666667 15.173291666666668 38.333333333333336 23 38.333333333333336c7.826708333333333 0 12.641375000000002 -0.07091666666666667 14.72 -0.11116666666666668 0.7350416666666667 -0.013416666666666667 1.3752083333333334 -0.46479166666666666 1.4739166666666668 -1.1931250000000002 0.05558333333333334 -0.40729166666666666 0.09775 -0.9267083333333334 0.09775 -1.5707083333333334s-0.042166666666666665 -1.1643750000000002 -0.09775 -1.5716666666666665c-0.09870833333333333 -0.7283333333333334 -0.7379166666666667 -1.17875 -1.4729583333333334 -1.1921666666666666C35.64041666666667 32.65425 30.826708333333336 32.583333333333336 23 32.583333333333336c-7.826708333333333 0 -12.641375000000002 0.07091666666666667 -14.72 0.11116666666666668Z" stroke-width="2"></path><path id="Vector 1404" stroke="#000" stroke-linecap="round" stroke-linejoin="round" d="M23 27.791666666666668v4.791666666666667" stroke-width="2"></path><path id="Rectangle 1526" stroke="#000" stroke-linecap="round" stroke-linejoin="round" d="M32.583333333333336 27.55975a33.40270833333333 33.40270833333333 0 0 0 -0.64975 -2.392c-0.4417916666666667 -1.4135416666666667 -1.5678333333333332 -2.460041666666667 -3.0283333333333338 -2.7025C27.584666666666667 22.243875 25.647875000000003 22.041666666666668 23 22.041666666666668s-4.585625 0.20316666666666666 -5.9042916666666665 0.42262500000000003c-1.4624166666666667 0.24341666666666667 -2.5875000000000004 1.2899166666666668 -3.03025 2.704416666666667 -0.20700000000000002 0.6631666666666667 -0.4331666666666667 1.46625 -0.6487916666666668 2.3910416666666667" stroke-width="2"></path></g></svg>