<svg xmlns="http://www.w3.org/2000/svg" fill="none" viewBox="-1 -1 48 48" height="48" width="48"><g id="video-subtitles"><path id="Union" stroke="#000" stroke-linecap="round" stroke-linejoin="round" d="M7.884208333333334 35.40179166666667c-2.438 -0.16291666666666668 -4.350833333333333 -1.9693750000000003 -4.570291666666667 -4.4035416666666665 -0.23 -2.5539583333333336 -0.45041666666666663 -6.378666666666667 -0.45041666666666663 -11.647583333333333s0.22041666666666668 -9.094583333333334 0.45041666666666663 -11.647583333333333c0.21945833333333334 -2.4341666666666666 2.1322916666666667 -4.241583333333334 4.57125 -4.4035416666666665C10.977708333333334 3.0935 15.922708333333333 2.875 23 2.875c7.076333333333334 0 12.021333333333335 0.21850000000000003 15.115791666666667 0.4245416666666667 2.4389583333333333 0.16291666666666668 4.350833333333333 1.9693750000000003 4.57125 4.4035416666666665 0.22904166666666667 2.5539583333333336 0.44945833333333335 6.378666666666667 0.44945833333333335 11.647583333333333s-0.22041666666666668 9.094583333333334 -0.45041666666666663 11.647583333333333c-0.21850000000000003 2.4341666666666666 -2.1313333333333335 4.241583333333334 -4.570291666666667 4.4035416666666665 -2.7120833333333336 0.181125 -6.845375 0.370875 -12.590583333333333 0.4149583333333333l-7.577541666666667 6.746666666666667c-1.23625 1.0992083333333333 -3.19125 0.22233333333333336 -3.19125 -1.4327083333333335v-5.414583333333334a181.90795833333334 181.90795833333334 0 0 1 -6.873166666666667 -0.31433333333333335Z" stroke-width="2"></path><path id="Rectangle 70" stroke="#000" stroke-linecap="round" stroke-linejoin="round" d="M8.631708333333334 25.92004166666667c0.01629166666666667 -1.0695000000000001 0.6602916666666666 -1.8620416666666668 1.727875 -1.9224166666666664A29.181250000000002 29.181250000000002 0 0 1 11.979166666666668 23.958333333333336c0.6631666666666667 0 1.1940833333333334 0.015333333333333334 1.6195833333333334 0.03929166666666667 1.0675833333333336 0.060375000000000005 1.7115833333333335 0.8529166666666668 1.727875 1.9224166666666664a60.23795833333333 60.23795833333333 0 0 1 0 1.8265833333333332c-0.01629166666666667 1.0695000000000001 -0.6602916666666666 1.8620416666666668 -1.727875 1.9224166666666664A29.181250000000002 29.181250000000002 0 0 1 11.979166666666668 29.708333333333336a29.181250000000002 29.181250000000002 0 0 1 -1.6195833333333334 -0.03929166666666667c-1.0675833333333336 -0.060375000000000005 -1.7115833333333335 -0.8529166666666668 -1.727875 -1.9224166666666664a59.31795833333334 59.31795833333334 0 0 1 0 -1.8265833333333332Z" stroke-width="2"></path><path id="Rectangle 72" stroke="#000" stroke-linecap="round" stroke-linejoin="round" d="M8.631708333333334 15.673541666666667c0.02875 -1.2439166666666668 0.92575 -2.0853333333333337 2.1687083333333335 -2.146666666666667 1.1864166666666667 -0.059416666666666666 3.055166666666667 -0.11020833333333334 5.970416666666667 -0.11020833333333334 2.9162083333333335 0 4.784 0.050791666666666666 5.970416666666667 0.11020833333333334 1.2429583333333334 0.06133333333333334 2.1390000000000002 0.9027499999999999 2.1687083333333335 2.146666666666667a26.015875 26.015875 0 0 1 0 1.23625c-0.02875 1.2439166666666668 -0.92575 2.0853333333333337 -2.1687083333333335 2.146666666666667 -1.1864166666666667 0.059416666666666666 -3.055166666666667 0.11020833333333334 -5.970416666666667 0.11020833333333334 -2.9162083333333335 0 -4.784 -0.050791666666666666 -5.970416666666667 -0.11020833333333334 -1.2429583333333334 -0.06133333333333334 -2.1390000000000002 -0.9027499999999999 -2.1687083333333335 -2.146666666666667a26.226708333333335 26.226708333333335 0 0 1 0 -1.23625Z" stroke-width="2"></path><path id="Rectangle 71" stroke="#000" stroke-linecap="round" stroke-linejoin="round" d="M20.132666666666665 26.203708333333335c0.031625 -1.2381666666666669 0.9353333333333333 -2.0690416666666667 2.1734999999999998 -2.1294166666666667C23.553916666666666 24.012958333333334 25.56066666666667 23.958333333333336 28.75 23.958333333333336c3.1893333333333334 0 5.196083333333333 0.05462500000000001 6.443833333333334 0.115 1.2381666666666669 0.06229166666666667 2.1418749999999998 0.8912500000000001 2.1734999999999998 2.130375a24.7595 24.7595 0 0 1 0 1.2592500000000002c-0.031625 1.2381666666666669 -0.9353333333333333 2.0690416666666667 -2.1734999999999998 2.1294166666666667 -1.2477500000000001 0.06133333333333334 -3.2545 0.11595833333333333 -6.443833333333334 0.11595833333333333 -3.1893333333333334 0 -5.196083333333333 -0.05462500000000001 -6.443833333333334 -0.115 -1.2381666666666669 -0.06133333333333334 -2.1418749999999998 -0.8912500000000001 -2.1734999999999998 -2.130375a24.7595 24.7595 0 0 1 0 -1.2592500000000002Z" stroke-width="2"></path><path id="Rectangle 73" stroke="#000" stroke-linecap="round" stroke-linejoin="round" d="M29.714083333333335 15.470375c0.017249999999999998 -1.1222083333333335 0.715875 -1.9454166666666666 1.8371250000000001 -2.00675 0.5079166666666667 -0.02875 1.158625 -0.04695833333333334 1.9904583333333334 -0.04695833333333334 0.8318333333333333 0 1.4825416666666666 0.01916666666666667 1.9904583333333334 0.04695833333333334 1.12125 0.06133333333333334 1.8198750000000001 0.8845416666666668 1.8371250000000001 2.0077083333333334a53.34754166666667 53.34754166666667 0 0 1 0 1.6416250000000001c-0.017249999999999998 1.1222083333333335 -0.715875 1.9454166666666666 -1.8371250000000001 2.00675 -0.5079166666666667 0.02875 -1.158625 0.04695833333333334 -1.9904583333333334 0.04695833333333334 -0.8318333333333333 0 -1.4825416666666666 -0.01916666666666667 -1.9904583333333334 -0.04695833333333334 -1.12125 -0.06133333333333334 -1.8198750000000001 -0.8845416666666668 -1.8371250000000001 -2.0077083333333334a53.34754166666667 53.34754166666667 0 0 1 0 -1.6416250000000001Z" stroke-width="2"></path></g></svg>