<svg xmlns="http://www.w3.org/2000/svg" fill="none" viewBox="-1 -1 48 48" height="48" width="48"><g id="star-circle--reward-social-rating-media-rate-it-star"><path id="Ellipse 19" stroke="#000" stroke-linecap="round" stroke-linejoin="round" d="M23 2.875a20.125 20.125 0 1 0 0 40.25 20.125 20.125 0 1 0 0 -40.25" stroke-width="2"></path><path id="Star 4" stroke="#000" stroke-linecap="round" stroke-linejoin="round" d="M21.298000000000002 11.905375000000001c0.715875 -1.3790416666666667 2.6881250000000003 -1.3790416666666667 3.4030416666666667 0l2.6929166666666666 5.1922500000000005 5.711666666666667 1.1250833333333332c1.4585833333333333 0.2875 2.0489166666666665 2.055625 1.0541666666666667 3.1625l-4.048958333333333 4.502250000000001 0.7436666666666667 6.026000000000001c0.186875 1.5180000000000002 -1.3895833333333334 2.6325416666666666 -2.7580833333333334 1.9502083333333335L23 31.318333333333335l-5.096416666666666 2.544375c-1.3675416666666667 0.6823333333333333 -2.9449583333333336 -0.43220833333333336 -2.7580833333333334 -1.9502083333333335l0.7436666666666667 -6.026000000000001 -4.048958333333333 -4.503208333333333c-0.99475 -1.1059166666666667 -0.40441666666666665 -2.875 1.0541666666666667 -3.1625l5.711666666666667 -1.124125 2.6929166666666666 -5.1922500000000005Z" stroke-width="2"></path></g></svg>