<svg xmlns="http://www.w3.org/2000/svg" fill="none" viewBox="-1 -1 48 48" height="48" width="48"><g id="spotify"><path id="Ellipse 19" stroke="#000" stroke-linecap="round" stroke-linejoin="round" d="M23 2.875c11.11475 0 20.125 9.01025 20.125 20.125s-9.01025 20.125 -20.125 20.125S2.875 34.11475 2.875 23 11.88525 2.875 23 2.875Z" stroke-width="2"></path><path id="Vector" stroke="#000" stroke-linecap="round" stroke-linejoin="round" d="M35.458333333333336 19.525083333333335c-3.0810416666666667 -2.3699583333333334 -7.048541666666667 -3.7106666666666666 -11.067791666666666 -4.083458333333334 -4.000083333333333 -0.370875 -8.224416666666668 0.20125 -11.932208333333334 1.8447916666666668" stroke-width="2"></path><path id="Vector_2" stroke="#000" stroke-linecap="round" stroke-linejoin="round" d="M32.1425 25.56354166666667c-2.4303333333333335 -1.9147500000000002 -5.569833333333333 -2.9995833333333333 -8.749583333333334 -3.299541666666667 -3.2477916666666666 -0.3066666666666667 -6.683416666666667 0.18975000000000003 -9.667666666666666 1.6032916666666668" stroke-width="2"></path><path id="Vector_3" stroke="#000" stroke-linecap="round" stroke-linejoin="round" d="M28.796958333333333 31.625c-1.77675 -1.4470833333333335 -4.073875 -2.2655 -6.401666666666666 -2.4916666666666667 -2.314375 -0.22520833333333332 -4.761 0.12458333333333334 -6.902875000000001 1.1298750000000002" stroke-width="2"></path></g></svg>