<svg xmlns="http://www.w3.org/2000/svg" fill="none" viewBox="-1 -1 48 48" height="48" width="48"><g id="escalator-up--escalator-up-ascend-stairs"><path id="Union" stroke="#000" stroke-linecap="round" stroke-linejoin="round" d="M29.81279166666667 11.949458333333332c0.69575 -0.6363333333333334 1.5419583333333333 -1.0867499999999999 2.477291666666667 -1.1998333333333333 1.5180000000000002 -0.18400000000000002 4.255000000000001 -0.3555416666666667 8.212916666666667 -0.0028750000000000004a2.645 2.645 0 0 1 2.414041666666667 2.4188333333333336c0.17920833333333333 2.1581666666666663 0.347875 5.6695 0.02779166666666667 9.407958333333333 -0.115 1.336875 -1.2055833333333335 2.3575 -2.5415 2.469625l-3.2545 0.273125a0.94875 0.94875 0 0 0 -0.6162083333333334 0.29420833333333335c-1.336875 1.4154583333333335 -7.923500000000001 8.323125000000001 -16.12875 15.850833333333334a5.304375 5.304375 0 0 1 -3.142375 1.4010833333333335c-2.412125 0.20125 -6.949833333333333 0.44945833333333335 -11.7645 0.048875a2.6526666666666667 2.6526666666666667 0 0 1 -2.4341666666666666 -2.40925c-0.322 -3.6761666666666666 -0.16866666666666666 -7.143416666666667 0.005750000000000001 -9.331291666666667 0.11020833333333334 -1.3732916666666668 1.2372083333333332 -2.4054166666666665 2.612416666666667 -2.475375l7.087833333333333 -0.3565a0.9477916666666667 0.9477916666666667 0 0 0 0.6478333333333334 -0.29708333333333337c1.38 -1.4595416666666667 8.085458333333333 -8.487958333333333 16.396125 -16.092333333333336Z" stroke-width="2"></path><path id="Union_2" stroke="#000" stroke-linecap="round" stroke-linejoin="round" d="M17.551875000000003 3.063791666666667c0.8471666666666667 0.08625 1.515125 0.7542083333333334 1.6004166666666666 1.601375a37.73725 37.73725 0 0 1 -0.19741666666666666 9.154958333333335c-0.1887916666666667 1.2956666666666667 -1.61 1.8371250000000001 -2.635416666666667 1.0235a54.42375 54.42375 0 0 1 -2.2549583333333336 -1.8936666666666666c-3.6445416666666666 3.5094166666666666 -5.878416666666667 5.326416666666667 -6.845375 6.070083333333333 -0.36033333333333334 0.27791666666666665 -0.8145833333333333 0.39866666666666667 -1.2458333333333333 0.2577916666666667a4.772500000000001 4.772500000000001 0 0 1 -1.8764166666666666 -1.1404166666666666 4.708291666666667 4.708291666666667 0 0 1 -1.1615 -1.9166666666666667c-0.1312916666666667 -0.4149583333333333 -0.01916666666666667 -0.8529166666666668 0.23958333333333334 -1.2036666666666667 0.71875 -0.9679166666666668 2.516583333333333 -3.2295833333333337 6.079666666666667 -6.882750000000001A54.48125 54.48125 0 0 1 7.379166666666667 5.896625c-0.8126666666666666 -1.0254166666666669 -0.27025 -2.445666666666667 1.0235 -2.635416666666667a37.71041666666667 37.71041666666667 0 0 1 9.149208333333334 -0.19741666666666666Z" stroke-width="2"></path></g></svg>