<svg xmlns="http://www.w3.org/2000/svg" fill="none" viewBox="-1 -1 48 48" height="48" width="48"><g id="slack"><path id="Rectangle 832" stroke="#000" stroke-linecap="round" stroke-linejoin="round" d="M2.875 17.729166666666668c0 -1.7240416666666667 1.2870416666666666 -3.1500416666666666 3.0091666666666668 -3.2295833333333337 1.4537916666666666 -0.06708333333333334 3.4643750000000004 -0.12458333333333334 6.095000000000001 -0.12458333333333334s4.641208333333333 0.0575 6.095000000000001 0.12458333333333334c1.722125 0.07954166666666668 3.0091666666666668 1.5045833333333334 3.0091666666666668 3.2295833333333337 0 1.7240416666666667 -1.2870416666666666 3.1500416666666666 -3.0091666666666668 3.2295833333333337 -1.4537916666666666 0.06708333333333334 -3.4643750000000004 0.12458333333333334 -6.095000000000001 0.12458333333333334s-4.641208333333333 -0.0575 -6.095000000000001 -0.12458333333333334C4.162041666666667 20.879208333333334 2.875 19.45416666666667 2.875 17.729166666666668Z" stroke-width="2"></path><path id="Rectangle 833" stroke="#000" stroke-linecap="round" stroke-linejoin="round" d="M13.416666666666668 6.827166666666667C13.416666666666668 4.657500000000001 15.175208333333334 2.875 17.343916666666665 2.875c2.01825 0 3.7106666666666666 1.5304583333333335 3.7365416666666667 3.54775a32.60633333333334 32.60633333333334 0 0 1 -0.10158333333333333 3.174 0.9123333333333333 0.9123333333333333 0 0 1 -0.8414166666666667 0.8280000000000001c-1.1777916666666668 0.09295833333333334 -2.27125 0.12075000000000001 -3.22 0.11595833333333333C14.913583333333333 10.532083333333334 13.416666666666668 8.831041666666668 13.416666666666668 6.827166666666667Z" stroke-width="2"></path><path id="Rectangle 832_2" stroke="#000" stroke-linecap="round" stroke-linejoin="round" d="M28.270833333333336 2.875c1.7240416666666667 0 3.1500416666666666 1.2870416666666666 3.2295833333333337 3.0091666666666668 0.06708333333333334 1.4537916666666666 0.12458333333333334 3.4643750000000004 0.12458333333333334 6.095000000000001s-0.0575 4.641208333333333 -0.12458333333333334 6.095000000000001C31.420875 19.79629166666667 29.995833333333334 21.083333333333336 28.270833333333336 21.083333333333336c-1.7240416666666667 0 -3.1500416666666666 -1.2870416666666666 -3.2295833333333337 -3.0091666666666668A133.04541666666668 133.04541666666668 0 0 1 24.916666666666668 11.979166666666668c0 -2.630625 0.0575 -4.641208333333333 0.12458333333333334 -6.095000000000001C25.12079166666667 4.162041666666667 26.545833333333334 2.875 28.270833333333336 2.875Z" stroke-width="2"></path><path id="Rectangle 833_2" stroke="#000" stroke-linecap="round" stroke-linejoin="round" d="M39.17283333333333 13.416666666666668C41.3425 13.416666666666668 43.125 15.175208333333334 43.125 17.343916666666665c0 2.01825 -1.5304583333333335 3.7106666666666666 -3.54775 3.7365416666666667a32.60633333333334 32.60633333333334 0 0 1 -3.174 -0.10158333333333333 0.9123333333333333 0.9123333333333333 0 0 1 -0.8280000000000001 -0.8414166666666667 38.886291666666665 38.886291666666665 0 0 1 -0.11595833333333333 -3.22C35.46791666666667 14.913583333333333 37.16895833333333 13.416666666666668 39.17283333333333 13.416666666666668Z" stroke-width="2"></path><path id="Rectangle 832_3" stroke="#000" stroke-linecap="round" stroke-linejoin="round" d="M43.125 28.270833333333336c0 1.7240416666666667 -1.2870416666666666 3.1500416666666666 -3.0091666666666668 3.2295833333333337 -1.4537916666666666 0.06708333333333334 -3.4643750000000004 0.12458333333333334 -6.095000000000001 0.12458333333333334s-4.641208333333333 -0.0575 -6.095000000000001 -0.12458333333333334C26.203708333333335 31.420875 24.916666666666668 29.995833333333334 24.916666666666668 28.270833333333336c0 -1.7240416666666667 1.2870416666666666 -3.1500416666666666 3.0091666666666668 -3.2295833333333337 1.4537916666666666 -0.06708333333333334 3.4643750000000004 -0.12458333333333334 6.095000000000001 -0.12458333333333334s4.641208333333333 0.0575 6.095000000000001 0.12458333333333334c1.722125 0.07954166666666668 3.0091666666666668 1.5045833333333334 3.0091666666666668 3.2295833333333337Z" stroke-width="2"></path><path id="Rectangle 833_3" stroke="#000" stroke-linecap="round" stroke-linejoin="round" d="M32.583333333333336 39.17283333333333C32.583333333333336 41.3425 30.824791666666666 43.125 28.656083333333335 43.125c-2.01825 0 -3.7106666666666666 -1.5304583333333335 -3.7365416666666667 -3.54775 -0.012458333333333333 -1.0024166666666667 0.009583333333333334 -2.11025 0.10158333333333333 -3.174a0.9123333333333333 0.9123333333333333 0 0 1 0.8414166666666667 -0.8280000000000001 38.886291666666665 38.886291666666665 0 0 1 3.22 -0.11595833333333333c2.0038750000000003 0.009583333333333334 3.5007916666666667 1.7096666666666667 3.5007916666666667 3.713541666666667Z" stroke-width="2"></path><path id="Rectangle 832_4" stroke="#000" stroke-linecap="round" stroke-linejoin="round" d="M17.729166666666668 43.125c-1.7240416666666667 0 -3.1500416666666666 -1.2870416666666666 -3.2295833333333337 -3.0091666666666668A133.055 133.055 0 0 1 14.375 34.020833333333336c0 -2.630625 0.0575 -4.641208333333333 0.12458333333333334 -6.095000000000001 0.07954166666666668 -1.722125 1.5045833333333334 -3.0091666666666668 3.2295833333333337 -3.0091666666666668 1.7240416666666667 0 3.1500416666666666 1.2870416666666666 3.2295833333333337 3.0091666666666668 0.06708333333333334 1.4537916666666666 0.12458333333333334 3.4643750000000004 0.12458333333333334 6.095000000000001s-0.0575 4.641208333333333 -0.12458333333333334 6.095000000000001C20.879208333333334 41.83795833333333 19.45416666666667 43.125 17.729166666666668 43.125Z" stroke-width="2"></path><path id="Rectangle 833_4" stroke="#000" stroke-linecap="round" stroke-linejoin="round" d="M6.827166666666667 32.583333333333336C4.657500000000001 32.583333333333336 2.875 30.824791666666666 2.875 28.656083333333335c0 -2.01825 1.5304583333333335 -3.7106666666666666 3.54775 -3.7365416666666667 1.0024166666666667 -0.012458333333333333 2.11025 0.009583333333333334 3.174 0.10158333333333333a0.9104166666666667 0.9104166666666667 0 0 1 0.8280000000000001 0.8414166666666667c0.09295833333333334 1.1777916666666668 0.12075000000000001 2.27125 0.11595833333333333 3.22C10.532083333333334 31.086416666666672 8.831041666666668 32.583333333333336 6.827166666666667 32.583333333333336Z" stroke-width="2"></path></g></svg>