<svg xmlns="http://www.w3.org/2000/svg" fill="none" viewBox="-1 -1 48 48" height="48" width="48"><g id="piggy-bank--institution-saving-bank-payment-finance"><path id="Union" stroke="#000" stroke-linecap="round" stroke-linejoin="round" d="M28.405 2.90375C29.095 2.8865000000000003 29.846333333333334 2.875 30.666666666666668 2.875c0 0 0.9583333333333334 1.9166666666666667 0.9583333333333334 7.666666666666667 0 0.23479166666666668 -0.0019166666666666668 0.4638333333333333 -0.004791666666666667 0.6861666666666667 2.9832916666666667 1.5275833333333335 5.266041666666667 4.064291666666667 6.538708333333334 7.222958333333334a26.991458333333334 26.991458333333334 0 0 1 2.5750416666666665 -0.23095833333333332c1.2170833333333333 -0.044083333333333335 2.1754166666666666 0.8720833333333334 2.2683750000000003 2.088208333333333 0.06708333333333334 0.8912500000000001 0.12266666666666667 2.0977916666666667 0.12266666666666667 3.650291666666667s-0.05558333333333334 2.7580833333333334 -0.12266666666666667 3.65125c-0.09200000000000001 1.2142083333333333 -1.0512916666666667 2.1313333333333335 -2.2683750000000003 2.08725a25.04125 25.04125 0 0 1 -1.9684166666666665 -0.15525c-0.549125 2.1035416666666666 -1.51225 3.9943333333333335 -2.8155833333333335 5.579416666666667a110.95583333333335 110.95583333333335 0 0 1 1.6253333333333333 3.712583333333334c0.46575 1.1183750000000001 0.15716666666666668 2.40925 -0.8088333333333333 3.1395 -0.4025 0.3037916666666667 -0.8184166666666667 0.5970416666666667 -1.1682083333333335 0.7973333333333333 -0.3565 0.204125 -0.8356666666666667 0.42070833333333335 -1.3129166666666667 0.6171666666666668 -1.1059166666666667 0.45616666666666666 -2.3594166666666667 0.08433333333333333 -3.0935 -0.8615416666666668 -0.60375 -0.779125 -1.37425 -1.7920833333333335 -2.1773333333333333 -2.8989583333333333a15.469416666666667 15.469416666666667 0 0 1 -3.7930833333333336 0.56925C23.95354166666667 40.23083333333333 22.576416666666667 40.25 21.083333333333336 40.25c-1.4930833333333335 0 -2.8702083333333337 -0.01916666666666667 -4.138083333333333 -0.05366666666666667a15.469416666666667 15.469416666666667 0 0 1 -3.7930833333333336 -0.56925 113.46091666666668 113.46091666666668 0 0 1 -2.1773333333333333 2.8989583333333333c-0.7340833333333334 0.945875 -1.9875833333333333 1.3177083333333335 -3.0935 0.8625a12.180416666666668 12.180416666666668 0 0 1 -1.3129166666666667 -0.618125 11.854583333333332 11.854583333333332 0 0 1 -1.1691666666666667 -0.7973333333333333c-0.9660000000000001 -0.7302500000000001 -1.2745833333333334 -2.021125 -0.807875 -3.1395 0.41975 -1.0072083333333333 0.9870833333333334 -2.3268333333333335 1.6253333333333333 -3.712583333333334 -2.1054583333333334 -2.560666666666667 -3.325416666666667 -5.920583333333333 -3.3407500000000003 -9.687791666666667a126.36870833333334 126.36870833333334 0 0 1 0 -1.0340416666666667c0.034499999999999996 -8.240708333333334 5.831458333333334 -14.536958333333335 14.069291666666667 -14.762166666666667C18.213124999999998 9.6025 19.59025 9.583333333333334 21.083333333333336 9.583333333333334l0.052708333333333336 0c0.4187916666666667 -3.7940416666666668 3.3196666666666665 -6.5722499999999995 7.268 -6.679583333333333Z" stroke-width="2"></path><path id="Union_2" stroke="#000" stroke-linecap="round" stroke-linejoin="round" d="M11.020833333333334 17.720541666666666c1.7000833333333334 -1.7087083333333333 4.104541666666667 -2.7667083333333333 6.928750000000001 -2.839541666666667a86.71000000000001 86.71000000000001 0 0 1 1.3934166666666667 -0.026833333333333334" stroke-width="2"></path><path id="Vector 2497" stroke="#000" stroke-linecap="round" stroke-linejoin="round" d="m29.708333333333336 17.25 0 0.9583333333333334" stroke-width="2"></path><path id="Vector" stroke="#000" stroke-linecap="round" stroke-linejoin="round" d="M6.845375 13.416666666666668C4.241583333333334 13.416666666666668 1.9166666666666667 11.255625 1.9166666666666667 8.589541666666666s2.3249166666666667 -4.8271250000000006 4.928708333333334 -4.8271250000000006C9.310208333333334 3.7624166666666667 10.541666666666668 5.078208333333334 10.541666666666668 6.394958333333333" stroke-width="2"></path></g></svg>