<svg xmlns="http://www.w3.org/2000/svg" fill="none" viewBox="-1 -1 48 48" height="48" width="48"><g id="compress-PDF--essential-files-folder-compress-PDF"><path id="Vector 831" stroke="#000" stroke-linecap="round" stroke-linejoin="round" d="m14.375 32.583333333333336 17.25 0" stroke-width="2"></path><path id="Vector 829" stroke="#000" stroke-linecap="round" stroke-linejoin="round" d="m14.375 23 17.25 0" stroke-width="2"></path><path id="Vector 830" stroke="#000" stroke-linecap="round" stroke-linejoin="round" d="m14.375 13.416666666666668 8.625 0" stroke-width="2"></path><path id="Vector 134 (Stroke)" stroke="#000" stroke-linecap="round" stroke-linejoin="round" d="M2.3958333333333335 27.791666666666668c1.0762083333333334 -0.8404583333333334 2.7322083333333333 -2.336416666666667 3.8007500000000003 -3.494083333333333 0.7091666666666667 -0.7695416666666668 0.7091666666666667 -1.825625 0 -2.595166666666667C5.127083333333333 20.543791666666667 3.4710833333333335 19.047833333333337 2.3958333333333335 18.208333333333336" stroke-width="2"></path><path id="Vector 134 (Stroke)_2" stroke="#000" stroke-linecap="round" stroke-linejoin="round" d="M43.60416666666667 27.791666666666668c-1.0762083333333334 -0.8404583333333334 -2.7322083333333333 -2.336416666666667 -3.7997916666666667 -3.494083333333333 -0.7091666666666667 -0.7695416666666668 -0.7091666666666667 -1.825625 0 -2.595166666666667 1.0675833333333336 -1.158625 2.7235833333333335 -2.6545833333333335 3.7997916666666667 -3.494083333333333" stroke-width="2"></path><path id="Subtract" stroke="#000" stroke-linecap="round" stroke-linejoin="round" d="M41.01091666666667 32.10416666666667c-0.13320833333333335 2.796416666666667 -0.31625000000000003 4.902833333333334 -0.48970833333333336 6.4342500000000005 -0.23958333333333334 2.11025 -1.8237083333333335 3.687666666666667 -3.9330000000000003 3.933958333333334 -2.6977083333333334 0.3152916666666667 -7.104125000000001 0.6526250000000001 -13.589166666666667 0.6526250000000001 -6.484083333333333 0 -10.890500000000001 -0.3373333333333333 -13.589166666666667 -0.6516666666666667 -2.1083333333333334 -0.24725000000000003 -3.6924583333333336 -1.8246666666666667 -3.9320416666666667 -3.9349166666666666 -0.17345833333333333 -1.5314166666666669 -0.3565 -3.6378333333333335 -0.48875 -6.4342500000000005" stroke-width="2"></path><path id="Subtract_2" stroke="#000" stroke-linecap="round" stroke-linejoin="round" d="M40.521208333333334 14.224541666666667c-0.7034166666666667 -1.3320833333333333 -2.089166666666667 -3.4068750000000003 -4.771541666666667 -6.022166666666667 -3.986666666666667 -3.887958333333334 -6.746666666666667 -4.983333333333333 -7.605333333333333 -5.250708333333334A164.53625 164.53625 0 0 0 23 2.875c-6.4850416666666675 0 -10.891458333333334 0.33829166666666666 -13.589166666666667 0.6526250000000001 -2.1083333333333334 0.2462916666666667 -3.693416666666667 1.8237083333333335 -3.9330000000000003 3.933958333333334 -0.17345833333333333 1.5314166666666669 -0.3565 3.6378333333333335 -0.48875 6.4342500000000005" stroke-width="2"></path></g></svg>