<svg xmlns="http://www.w3.org/2000/svg" fill="none" viewBox="-1 -1 48 48" height="48" width="48"><g id="bag--bag-payment-cash-money-finance"><path id="Union" stroke="#000" stroke-linecap="round" stroke-linejoin="round" d="M14.205375 3.5007916666666667C13.171333333333333 3.6646666666666667 12.458333333333334 4.5674166666666665 12.458333333333334 5.615833333333334a6.845375 6.845375 0 0 0 4.187916666666667 6.308708333333334C9.181791666666667 15.22025 3.8333333333333335 23.802125 3.8333333333333335 30.90625 3.8333333333333335 39.90404166666667 12.414250000000001 43.125 23 43.125s19.166666666666668 -3.220958333333334 19.166666666666668 -12.21875c0 -7.104125000000001 -5.3503750000000005 -15.686 -12.812916666666666 -18.982666666666667A6.845375 6.845375 0 0 0 33.54166666666667 5.6148750000000005c0 -1.0474583333333334 -0.713 -1.9502083333333335 -1.7470416666666666 -2.1140833333333333C30.050458333333335 3.2238333333333333 27.048958333333335 2.875 23 2.875s-7.051416666666666 0.34883333333333333 -8.794625 0.6257916666666667Z" stroke-width="2"></path><path id="Vector 1701" stroke="#000" stroke-linecap="round" stroke-linejoin="round" d="M16.291666666666668 11.979166666666668s2.875 0.4791666666666667 6.708333333333334 0.4791666666666667 6.708333333333334 -0.4791666666666667 6.708333333333334 -0.4791666666666667" stroke-width="2"></path></g></svg>