<svg xmlns="http://www.w3.org/2000/svg" fill="none" viewBox="-1 -1 48 48" height="48" width="48"><g id="workspace-desk--workspace-desk-work"><path id="Vector 2530" stroke="#000" stroke-linecap="round" stroke-linejoin="round" d="M23 19.166666666666668v5.75" stroke-width="2"></path><path id="Rectangle 60" stroke="#000" stroke-linecap="round" stroke-linejoin="round" d="M35.084583333333335 4.808916666666667c-0.21658333333333335 -1.33975 -1.2257083333333334 -2.2616666666666667 -2.5712083333333333 -2.4389583333333333C30.832458333333335 2.146666666666667 27.907625 1.9166666666666667 23 1.9166666666666667c-4.906666666666667 0 -7.832458333333333 0.23 -9.513375 0.45329166666666665 -1.3455 0.17825 -2.354625 1.0992083333333333 -2.572166666666667 2.4389583333333333C10.718958333333335 6.016416666666666 10.541666666666668 7.850666666666667 10.541666666666668 10.541666666666668c0 2.691 0.17633333333333334 4.526208333333333 0.37375 5.73275 0.21658333333333335 1.33975 1.2257083333333334 2.2616666666666667 2.5712083333333333 2.4389583333333333C15.167541666666667 18.936666666666667 18.092375 19.166666666666668 23 19.166666666666668c4.906666666666667 0 7.832458333333333 -0.23 9.513375 -0.45329166666666665 1.3455 -0.17825 2.354625 -1.1001666666666665 2.572166666666667 -2.4389583333333333 0.19645833333333332 -1.2075 0.3727916666666667 -3.04175 0.3727916666666667 -5.73275 0 -2.691 -0.17633333333333334 -4.526208333333333 -0.37375 -5.73275Z" stroke-width="2"></path><path id="Union" stroke="#000" stroke-linecap="round" stroke-linejoin="round" d="M41.834125 25.487833333333334c-0.345 -0.08625 -0.7005416666666667 -0.11979166666666667 -1.0560833333333335 -0.15333333333333335l-0.19645833333333332 -0.017249999999999998C39.18241666666667 25.181166666666666 34.931250000000006 24.916666666666668 23 24.916666666666668c-12.305 0 -16.442125 0.22520833333333332 -17.705208333333335 0.330625l-0.15812500000000002 0.012458333333333333c-0.284625 0.022041666666666668 -0.56925 0.044083333333333335 -0.8490833333333334 0.10541666666666667C3.463416666666667 25.545333333333332 1.9166666666666667 26.22 1.9166666666666667 28.75v3.8333333333333335c0 3.6685 0.08241666666666667 7.107958333333333 0.14279166666666668 9.138666666666667 0.03354166666666667 1.14425 0.7570833333333334 2.176375 1.8936666666666666 2.3095833333333338a6.912458333333333 6.912458333333333 0 0 0 1.6770833333333335 0.0009583333333333334c1.1365833333333333 -0.13416666666666668 1.8591666666666666 -1.1662916666666667 1.8936666666666666 -2.3095833333333338C7.58425 39.690333333333335 7.666666666666667 36.24991666666667 7.666666666666667 32.583333333333336h30.666666666666668c0 3.6685 0.08241666666666667 7.107958333333333 0.14279166666666668 9.138666666666667 0.03354166666666667 1.14425 0.7570833333333334 2.176375 1.8936666666666666 2.3095833333333338a6.912458333333333 6.912458333333333 0 0 0 1.6770833333333335 0.0009583333333333334c1.1365833333333333 -0.13416666666666668 1.8591666666666666 -1.1662916666666667 1.8936666666666666 -2.3095833333333338 0.060375000000000005 -2.0316666666666667 0.14279166666666668 -5.472083333333334 0.14279166666666668 -9.139625v-3.8333333333333335c0 -2.343125 -1.4039583333333334 -3.0494166666666667 -2.2492083333333333 -3.262166666666667Z" stroke-width="2"></path></g></svg>