<svg xmlns="http://www.w3.org/2000/svg" fill="none" viewBox="-1 -1 48 48" height="48" width="48"><g id="projector-screen--projector-screen-work-meeting-presentation"><path id="Rectangle 57" stroke="#000" stroke-linecap="round" stroke-linejoin="round" d="M2.9325 4.6690000000000005c0.115 -1.009125 1.0110416666666666 -1.5410000000000001 2.0268750000000004 -1.5774166666666667C7.3168750000000005 3.006291666666667 12.635625000000001 2.875 23 2.875s15.682166666666667 0.1312916666666667 18.040625 0.21658333333333335c1.0158333333333334 0.03641666666666667 1.9118750000000002 0.5682916666666666 2.0278333333333336 1.5774166666666667 0.034499999999999996 0.30283333333333334 0.056541666666666664 0.66125 0.056541666666666664 1.081 0 0.42070833333333335 -0.022041666666666668 0.7781666666666668 -0.0575 1.081 -0.115 1.009125 -1.0110416666666666 1.5410000000000001 -2.0268750000000004 1.5774166666666667C38.683125000000004 8.493708333333334 33.364375 8.625 23 8.625S7.317833333333334 8.493708333333334 4.959375 8.408416666666666c-1.0158333333333334 -0.03641666666666667 -1.9118750000000002 -0.5682916666666666 -2.0278333333333336 -1.5774166666666667A9.505708333333335 9.505708333333335 0 0 1 2.875 5.75c0 -0.42070833333333335 0.022041666666666668 -0.7781666666666668 0.0575 -1.081Z" stroke-width="2"></path><path id="Rectangle 123" stroke="#000" stroke-linecap="round" stroke-linejoin="round" d="M4.831916666666666 34.48658333333333c0.09679166666666668 -1.0675833333333336 1.0215833333333335 -1.6560000000000001 2.0930000000000004 -1.69625C9.173166666666667 32.70504166666667 13.968666666666667 32.583333333333336 23 32.583333333333336c9.030375000000001 0 13.826833333333335 0.12170833333333334 16.075083333333335 0.20700000000000002 1.071416666666667 0.04025 1.9962083333333336 0.6286666666666667 2.0930000000000004 1.69625 0.024916666666666667 0.278875 0.04025 0.600875 0.04025 0.97175s-0.015333333333333334 0.692875 -0.04025 0.97175c-0.09679166666666668 1.0675833333333336 -1.0215833333333335 1.6560000000000001 -2.0930000000000004 1.69625 -2.24825 0.08529166666666667 -7.04375 0.20700000000000002 -16.075083333333335 0.20700000000000002 -9.031333333333333 0 -13.826833333333335 -0.12170833333333334 -16.075083333333335 -0.20700000000000002 -1.071416666666667 -0.04025 -1.9962083333333336 -0.6286666666666667 -2.0930000000000004 -1.69625C4.807 36.15120833333334 4.791666666666667 35.829208333333334 4.791666666666667 35.458333333333336s0.015333333333333334 -0.692875 0.04025 -0.97175Z" stroke-width="2"></path><path id="Subtract" stroke="#000" stroke-linecap="round" stroke-linejoin="round" d="M6.708333333333334 8.462083333333334V20.604166666666668c0 5.704 0.15045833333333333 9.765416666666667 0.27791666666666665 12.183291666666666M39.29166666666667 8.463041666666667V20.604166666666668c0 5.704 -0.15045833333333333 9.765416666666667 -0.27791666666666665 12.183291666666666" stroke-width="2"></path><path id="Vector 1132" stroke="#000" stroke-linecap="round" stroke-linejoin="round" d="M23 38.333333333333336v5.75" stroke-width="2"></path></g></svg>