<svg xmlns="http://www.w3.org/2000/svg" fill="none" viewBox="-1 -1 48 48" height="48" width="48"><g id="voice-mail--mic-audio-mike-music-microphone"><path id="Rectangle 74" stroke="#000" stroke-linecap="round" stroke-linejoin="round" d="M23 2.875c-6.6355 0 -11.279583333333333 4.515666666666666 -11.449208333333333 11.14925A164.28420833333334 164.28420833333334 0 0 0 11.5 18.208333333333336c0 1.5429166666666667 0.01916666666666667 2.9325 0.050791666666666666 4.184083333333334C11.719458333333334 29.026 16.363541666666666 33.54166666666667 23 33.54166666666667c6.6355 0 11.279583333333333 -4.515666666666666 11.449208333333333 -11.14925C34.481791666666666 21.140833333333333 34.5 19.75125 34.5 18.208333333333336c0 -1.5429166666666667 -0.01916666666666667 -2.9325 -0.050791666666666666 -4.184083333333334C34.28054166666667 7.390666666666666 29.6355 2.875 23 2.875Z" stroke-width="2"></path><path id="Union" stroke="#000" stroke-linecap="round" stroke-linejoin="round" d="M34.45016666666667 22.392416666666666C34.279583333333335 29.026 29.6355 33.54166666666667 23 33.54166666666667s-11.279583333333333 -4.515666666666666 -11.449208333333333 -11.14925A2.331625 2.331625 0 0 0 9.231625 20.125H8.193750000000001c-1.3301666666666667 0 -2.4015833333333334 1.112625 -2.368041666666667 2.442791666666667 0.22041666666666668 8.669083333333333 5.5391666666666675 14.927958333333335 13.487583333333333 16.395166666666668 0.07379166666666667 0.7302500000000001 0.16866666666666666 1.4633749999999999 0.2875 2.189791666666667 0.17920833333333333 1.0915416666666666 1.0397916666666667 1.9042083333333335 2.1457083333333333 1.94925a30.315916666666666 30.315916666666666 0 0 0 2.383375 0c1.1049583333333335 -0.04504166666666667 1.9665000000000001 -0.8577083333333334 2.1485833333333333 -1.94925a34.03041666666667 34.03041666666667 0 0 0 0.28941666666666666 -2.1687083333333335c8.014541666666666 -1.426 13.384083333333333 -7.704041666666667 13.607375000000001 -16.416249999999998C40.20783333333334 21.236666666666668 39.13545833333334 20.125 37.806250000000006 20.125h-1.0388333333333335a2.3325833333333335 2.3325833333333335 0 0 0 -2.319166666666667 2.2674166666666666Z" stroke-width="2"></path></g></svg>