<svg xmlns="http://www.w3.org/2000/svg" fill="none" viewBox="-1 -1 48 48" height="48" width="48"><g id="park--bench-relax-location-outdoor-recreation-travel-places"><path id="Rectangle 58" stroke="#000" stroke-linecap="round" stroke-linejoin="round" d="M43.05791666666667 30.749083333333335c-0.11787500000000001 -1.095375 -1.0637500000000002 -1.70775 -2.1639166666666667 -1.7527916666666667C38.465583333333335 28.896625 33.1545 28.75 23 28.75s-15.465583333333335 0.14758333333333334 -17.894000000000002 0.2462916666666667c-1.1011250000000001 0.04504166666666667 -2.0460416666666665 0.6574166666666668 -2.164875 1.7537500000000001 -0.04025 0.37183333333333335 -0.066125 0.819375 -0.066125 1.354125s0.025875000000000002 0.9822916666666667 0.06708333333333334 1.3550833333333334c0.11787500000000001 1.095375 1.0637500000000002 1.70775 2.1639166666666667 1.7527916666666667C7.534416666666667 35.31075 12.845500000000001 35.458333333333336 23 35.458333333333336s15.465583333333335 -0.14758333333333334 17.894000000000002 -0.2462916666666667c1.1011250000000001 -0.04504166666666667 2.0460416666666665 -0.6574166666666668 2.164875 -1.7537500000000001 0.04025 -0.37183333333333335 0.066125 -0.819375 0.066125 -1.354125s-0.025875000000000002 -0.9822916666666667 -0.06708333333333334 -1.3550833333333334Z" stroke-width="2"></path><path id="Rectangle 60" stroke="#000" stroke-linecap="round" stroke-linejoin="round" d="M43.05791666666667 30.749083333333335c-0.11787500000000001 -1.095375 -1.0637500000000002 -1.70775 -2.1639166666666667 -1.7527916666666667C38.465583333333335 28.896625 33.1545 28.75 23 28.75s-15.465583333333335 0.14758333333333334 -17.894000000000002 0.2462916666666667c-1.1011250000000001 0.04504166666666667 -2.0460416666666665 0.6574166666666668 -2.164875 1.7537500000000001 -0.04025 0.37183333333333335 -0.066125 0.819375 -0.066125 1.354125s0.025875000000000002 0.9822916666666667 0.06708333333333334 1.3550833333333334c0.11787500000000001 1.095375 1.0637500000000002 1.70775 2.1639166666666667 1.7527916666666667C7.534416666666667 35.31075 12.845500000000001 35.458333333333336 23 35.458333333333336s15.465583333333335 -0.14758333333333334 17.894000000000002 -0.2462916666666667c1.1011250000000001 -0.04504166666666667 2.0460416666666665 -0.6574166666666668 2.164875 -1.7537500000000001 0.04025 -0.37183333333333335 0.066125 -0.819375 0.066125 -1.354125s-0.025875000000000002 -0.9822916666666667 -0.06708333333333334 -1.3550833333333334Z" stroke-width="2"></path><path id="Rectangle 59" stroke="#000" stroke-linecap="round" stroke-linejoin="round" d="M40.130208333333336 11.567083333333334c-0.10541666666666667 -1.4097083333333336 -1.1816250000000001 -2.4054166666666665 -2.590375 -2.5194583333333336C35.179458333333336 8.855958333333334 30.72608333333333 8.625 23 8.625c-7.725125 0 -12.180416666666668 0.23191666666666666 -14.539833333333334 0.42262500000000003 -1.40875 0.115 -2.484 1.10975 -2.590375 2.5194583333333336A50.870250000000006 50.870250000000006 0 0 0 5.75 15.333333333333334c0 1.633 0.051750000000000004 2.8596666666666666 0.11979166666666667 3.7662500000000003 0.10541666666666667 1.4097083333333336 1.1816250000000001 2.4054166666666665 2.590375 2.5194583333333336 2.3603750000000003 0.19166666666666668 6.813750000000001 0.42262500000000003 14.539833333333334 0.42262500000000003 7.725125 0 12.180416666666668 -0.23191666666666666 14.539833333333334 -0.42262500000000003 1.40875 -0.115 2.484 -1.10975 2.590375 -2.5194583333333336A50.85875 50.85875 0 0 0 40.25 15.333333333333334a50.85875 50.85875 0 0 0 -0.11979166666666667 -3.7662500000000003Z" stroke-width="2"></path><path id="Subtract" stroke="#000" stroke-linecap="round" stroke-linejoin="round" d="M8.697833333333334 21.63725A105.271 105.271 0 0 0 8.625 25.875c0 1.1950416666666668 0.013416666666666667 2.189791666666667 0.03354166666666667 3.0110833333333336" stroke-width="2"></path><path id="Subtract_2" stroke="#000" stroke-linecap="round" stroke-linejoin="round" d="M13.353416666666666 21.888333333333335c0.035458333333333335 0.97175 0.06229166666666667 2.27125 0.06229166666666667 3.986666666666667 0 1.15575 -0.012458333333333333 2.123666666666667 -0.03066666666666667 2.928666666666667" stroke-width="2"></path><path id="Subtract_3" stroke="#000" stroke-linecap="round" stroke-linejoin="round" d="M32.64658333333334 21.888333333333335A107.82208333333334 107.82208333333334 0 0 0 32.583333333333336 25.875c0 1.15575 0.012458333333333333 2.123666666666667 0.031625 2.928666666666667" stroke-width="2"></path><path id="Subtract_4" stroke="#000" stroke-linecap="round" stroke-linejoin="round" d="M37.302166666666665 21.63725c0.04025 0.99475 0.071875 2.3699583333333334 0.071875 4.23775 0 1.1950416666666668 -0.012458333333333333 2.189791666666667 -0.03258333333333334 3.0110833333333336" stroke-width="2"></path><path id="Subtract_5" stroke="#000" stroke-linecap="round" stroke-linejoin="round" d="M4.796458333333334 35.18329166666667c-0.0028750000000000004 0.38525000000000004 -0.004791666666666667 0.7954166666666667 -0.004791666666666667 1.2324166666666667 0 2.284666666666667 0.04791666666666667 3.8333333333333335 0.100625 4.849166666666666 0.05462500000000001 1.0465000000000002 0.779125 1.8332916666666668 1.8275416666666668 1.8553333333333333a22.752750000000002 22.752750000000002 0 0 0 0.9353333333333333 0c1.0484166666666668 -0.022041666666666668 1.772916666666667 -0.8088333333333333 1.8275416666666668 -1.8553333333333333 0.052708333333333336 -1.0158333333333334 0.100625 -2.5635416666666666 0.100625 -4.849166666666666 0 -0.3775833333333334 -0.0009583333333333334 -0.7350416666666667 -0.0038333333333333336 -1.0733333333333335" stroke-width="2"></path><path id="Subtract_6" stroke="#000" stroke-linecap="round" stroke-linejoin="round" d="M36.4205 35.342375c-0.0028750000000000004 0.33829166666666666 -0.0038333333333333336 0.69575 -0.0038333333333333336 1.0733333333333335 0 2.284666666666667 0.04791666666666667 3.8333333333333335 0.100625 4.849166666666666 0.05462500000000001 1.0465000000000002 0.779125 1.8332916666666668 1.8275416666666668 1.8553333333333333a22.75754166666667 22.75754166666667 0 0 0 0.9353333333333333 0c1.0484166666666668 -0.022041666666666668 1.772916666666667 -0.8088333333333333 1.8275416666666668 -1.8553333333333333 0.052708333333333336 -1.0158333333333334 0.100625 -2.5635416666666666 0.100625 -4.849166666666666 0 -0.43700000000000006 -0.0019166666666666668 -0.8471666666666667 -0.004791666666666667 -1.2324166666666667" stroke-width="2"></path></g></svg>