<svg xmlns="http://www.w3.org/2000/svg" fill="none" viewBox="-1 -1 48 48" height="48" width="48"><g id="tool-box--box-briefcase-tool-settings"><path id="Rectangle 97" stroke="#000" stroke-linejoin="round" d="M3.389625 16.38941666666667c0.21850000000000003 -2.0795833333333333 1.6895416666666667 -3.717375 3.7585833333333336 -4.015416666666667C10.020333333333333 11.957125000000001 15.000791666666668 11.5 23 11.5s12.979666666666668 0.45808333333333334 15.850833333333334 0.8730416666666667c2.0700000000000003 0.2999583333333333 3.5410416666666666 1.9377499999999999 3.759541666666667 4.016375C42.8605 18.781416666666665 43.125 22.36175 43.125 26.833333333333336c0 4.471583333333334 -0.2645 8.051916666666667 -0.514625 10.443916666666667 -0.21850000000000003 2.0795833333333333 -1.6895416666666667 3.716416666666667 -3.7585833333333336 4.015416666666667C35.97966666666667 41.709541666666674 30.999208333333335 42.16666666666667 23 42.16666666666667s-12.979666666666668 -0.45808333333333334 -15.850833333333334 -0.8730416666666667c-2.0700000000000003 -0.2999583333333333 -3.5410416666666666 -1.9377499999999999 -3.759541666666667 -4.016375C3.1395 34.88525 2.875 31.304916666666664 2.875 26.833333333333336c0 -4.471583333333334 0.2645 -8.051916666666667 0.514625 -10.443916666666667Z" stroke-width="2"></path><path id="Rectangle 98" stroke="#000" stroke-linejoin="round" d="M43.125 25.875s-4.156291666666666 0.8375833333333333 -17.25 0.9468333333333333M2.875 25.875s4.156291666666666 0.8375833333333333 17.25 0.9468333333333333" stroke-width="2"></path><path id="Vector 993" stroke="#000" stroke-linecap="round" stroke-linejoin="round" d="M13.416666666666668 11.5c0.5079166666666667 -2.0316666666666667 1.6627083333333335 -4.324 2.4360833333333334 -5.72125 0.46958333333333335 -0.8510000000000001 1.2822500000000001 -1.4461249999999999 2.2425 -1.5937083333333335C19.194458333333333 4.015416666666667 20.870583333333332 3.8333333333333335 23 3.8333333333333335c2.1294166666666667 0 3.804583333333334 0.18208333333333335 4.904750000000001 0.35170833333333335 0.96025 0.14758333333333334 1.772916666666667 0.7427083333333334 2.2425 1.5937083333333335C30.920625 7.176000000000001 32.07541666666667 9.468333333333334 32.583333333333336 11.5" stroke-width="2"></path><path id="Rectangle 57" stroke="#000" stroke-linejoin="round" d="M23.236708333333333 31.145833333333336c1.4442083333333333 -0.0067083333333333335 2.537666666666667 -0.991875 2.6009166666666665 -2.435125 0.023000000000000003 -0.5175000000000001 0.037375 -1.1375416666666667 0.037375 -1.8773750000000002s-0.014375 -1.3608333333333333 -0.037375 -1.8773750000000002c-0.06325 -1.4432500000000001 -1.1567083333333334 -2.4293750000000003 -2.6009166666666665 -2.4341666666666666a62.91266666666667 62.91266666666667 0 0 0 -0.47341666666666665 0c-1.4442083333333333 0.004791666666666667 -2.537666666666667 0.9909166666666668 -2.6009166666666665 2.4341666666666666 -0.023000000000000003 0.5175000000000001 -0.037375 1.1375416666666667 -0.037375 1.8773750000000002s0.014375 1.3608333333333333 0.037375 1.8773750000000002c0.06325 1.4432500000000001 1.1567083333333334 2.4284166666666667 2.6009166666666665 2.4341666666666666a62.91266666666667 62.91266666666667 0 0 0 0.47341666666666665 0Z" stroke-width="2"></path></g></svg>