<svg xmlns="http://www.w3.org/2000/svg" fill="none" viewBox="-1 -1 48 48" height="48" width="48"><g id="lift--arrow-up-human-down-person-user-lift-elevator"><path id="Rectangle 1096" stroke="#000" stroke-linecap="round" stroke-linejoin="round" d="M42.60845833333333 7.912958333333333c-0.19933333333333333 -2.448541666666667 -2.072875 -4.3220833333333335 -4.521416666666667 -4.521416666666667C34.993541666666665 3.1404583333333336 30.057166666666667 2.875 23 2.875c-7.057166666666667 0 -11.993541666666667 0.26545833333333335 -15.087041666666668 0.5165416666666667 -2.448541666666667 0.19933333333333333 -4.3220833333333335 2.072875 -4.521416666666667 4.521416666666667C3.1404583333333336 11.006458333333333 2.875 15.942833333333333 2.875 23c0 7.057166666666667 0.26545833333333335 11.993541666666667 0.5165416666666667 15.087041666666668 0.19933333333333333 2.448541666666667 2.072875 4.3220833333333335 4.521416666666667 4.521416666666667C11.006458333333333 42.859541666666665 15.942833333333333 43.125 23 43.125c7.057166666666667 0 11.993541666666667 -0.26545833333333335 15.087041666666668 -0.5165416666666667 2.448541666666667 -0.19933333333333333 4.3220833333333335 -2.072875 4.521416666666667 -4.521416666666667C42.859541666666665 34.993541666666665 43.125 30.057166666666667 43.125 23c0 -7.057166666666667 -0.26545833333333335 -11.993541666666667 -0.5165416666666667 -15.087041666666668Z" stroke-width="2"></path><path id="Ellipse 135" stroke="#000" stroke-linecap="round" stroke-linejoin="round" d="M21.237625 13.895833333333334a4.3125 4.3125 0 1 1 -8.625 0 4.3125 4.3125 0 1 1 8.625 0" stroke-width="2"></path><path id="Union" stroke="#000" stroke-linecap="round" stroke-linejoin="round" d="M20.341583333333332 18.301291666666668a2.613375 2.613375 0 0 1 2.384333333333333 1.9205c0.45041666666666663 1.6253333333333333 1.060875 4.112208333333334 1.2927916666666668 6.37675 0.09775 0.9621666666666667 -0.6257916666666667 1.77675 -1.5889166666666668 1.8658750000000002 -0.41591666666666666 0.03833333333333334 -0.8931666666666668 0.07954166666666668 -1.40875 0.11787500000000001l-0.5989583333333334 6.132375000000001c-0.08433333333333333 0.8625 -0.7379166666666667 1.5592083333333333 -1.6023333333333334 1.62725a24.334958333333336 24.334958333333336 0 0 1 -3.788291666666667 0c-0.8644166666666667 -0.06804166666666667 -1.5189583333333334 -0.76475 -1.6032916666666668 -1.62725l-0.598 -6.133333333333334a71.12270833333334 71.12270833333334 0 0 1 -1.4097083333333336 -0.11691666666666667c-0.9631249999999999 -0.089125 -1.6866666666666668 -0.9037083333333333 -1.5889166666666668 -1.8658750000000002 0.23191666666666666 -2.2645416666666667 0.842375 -4.751416666666667 1.2937500000000002 -6.37675a2.613375 2.613375 0 0 1 2.383375 -1.9205 62.402833333333334 62.402833333333334 0 0 1 6.832916666666667 0Z" stroke-width="2"></path><path id="Rectangle 1162" stroke="#000" stroke-linecap="round" stroke-linejoin="round" d="M36.41666666666667 19.161875000000002s-0.7475 -1.6109583333333335 -2.245375 -3.2056250000000004a0.8577083333333334 0.8577083333333334 0 0 0 -1.2554166666666668 0C31.41704166666667 17.55379166666667 30.666666666666668 19.166666666666668 30.666666666666668 19.166666666666668" stroke-width="2"></path><path id="Rectangle 1163" stroke="#000" stroke-linecap="round" stroke-linejoin="round" d="M36.41666666666667 26.838125s-0.7475 1.6119166666666667 -2.245375 3.2056250000000004a0.8577083333333334 0.8577083333333334 0 0 1 -1.2554166666666668 0C31.41704166666667 28.447166666666668 30.666666666666668 26.833333333333336 30.666666666666668 26.833333333333336" stroke-width="2"></path></g></svg>