<svg xmlns="http://www.w3.org/2000/svg" fill="none" viewBox="-1 -1 48 48" height="48" width="48"><g id="burger--burger-fast-cook-cooking-nutrition-food"><path id="Subtract" stroke="#000" stroke-linecap="round" stroke-linejoin="round" d="M38.61125 34.79708333333334c1.187375 0.42358333333333337 2.117916666666667 1.2966250000000001 2.117916666666667 2.577916666666667 0 2.6862083333333335 -2.5999583333333334 4.502250000000001 -5.285208333333333 4.6 -2.6871666666666667 0.09966666666666667 -6.72175 0.19166666666666668 -12.443958333333333 0.19166666666666668 -5.72125 0 -9.755833333333333 -0.09200000000000001 -12.443958333333333 -0.19166666666666668C7.870791666666666 41.87820833333333 5.270833333333334 40.06216666666667 5.270833333333334 37.375c0 -1.2812916666666667 0.9315 -2.1543333333333337 2.118875 -2.577916666666667" stroke-width="2"></path><path id="Subtract_2" stroke="#000" stroke-linecap="round" d="M3.756666666666667 27.700625000000002a4.726500000000001 4.726500000000001 0 0 0 -0.8749583333333334 2.908541666666667c0.025875000000000002 0.8002083333333333 0.13416666666666668 1.6368333333333334 0.391 2.3910416666666667 0.60375 1.7777083333333334 2.780125 1.8649166666666668 4.655583333333333 1.7777083333333334 0.99475 -0.046000000000000006 2.05275 0.03641666666666667 2.8222916666666666 0.4350833333333334 3.095416666666667 1.60425 6.303916666666667 1.60425 9.399333333333333 0 1.9377499999999999 -1.0043333333333335 3.761458333333333 -1.0043333333333335 5.699208333333334 0 3.095416666666667 1.60425 6.303916666666667 1.60425 9.400291666666666 0 0.7695416666666668 -0.39866666666666667 1.8265833333333332 -0.48108333333333336 2.8213333333333335 -0.4350833333333334 1.8754583333333334 0.08625 4.051833333333334 0 4.655583333333333 -1.7777083333333334a6.411250000000001 6.411250000000001 0 0 0 0.17729166666666668 -0.6286666666666667c0.37470833333333337 -1.6358750000000002 -0.0805 -3.2851666666666666 -1.0474583333333334 -4.511833333333334" stroke-width="2"></path><path id="Rectangle 56" stroke="#000" stroke-linecap="round" stroke-linejoin="round" d="M5.270833333333334 15.8125c0 -6.570333333333333 5.15775 -11.66675 11.723291666666668 -11.88525C18.747875 3.8697500000000002 20.743125 3.8333333333333335 23 3.8333333333333335c2.257833333333333 0 4.252125 0.035458333333333335 6.0058750000000005 0.09391666666666668C35.570458333333335 4.14575 40.72916666666667 9.242166666666668 40.72916666666667 15.8125c0 1.2075 -0.09583333333333334 2.2942500000000003 -0.22233333333333336 3.2037083333333336 -0.25683333333333336 1.8486250000000002 -1.7000833333333334 3.1730416666666668 -3.5535 3.38675 -2.4916666666666667 0.2875 -6.829083333333334 0.5970416666666667 -13.953333333333335 0.5970416666666667s-11.461666666666668 -0.3095416666666667 -13.953333333333335 -0.5970416666666667c-1.8534166666666667 -0.21370833333333333 -3.296666666666667 -1.538125 -3.5535 -3.38675A23.31816666666667 23.31816666666667 0 0 1 5.270833333333334 15.8125Z" stroke-width="2"></path><path id="Subtract_3" stroke="#000" stroke-linecap="round" d="m6.659458333333333 21.311416666666666 -0.5673333333333334 0.023958333333333335c-1.4787083333333333 0.06420833333333334 -2.8884166666666666 0.7283333333333334 -3.1174583333333334 2.19075C2.9133333333333336 23.91904166666667 2.875 24.37904166666667 2.875 24.916666666666668s0.03833333333333334 0.9985833333333334 0.09966666666666667 1.3915c0.23 1.4624166666666667 1.63875 2.1265416666666668 3.1174583333333334 2.19075C8.644166666666667 28.610083333333332 13.713750000000001 28.75 23 28.75c8.912500000000001 0 13.939916666666667 -0.12937500000000002 16.586833333333335 -0.23766666666666666 1.6780416666666667 -0.06899999999999999 3.2765416666666667 -0.865375 3.4777916666666666 -2.5328749999999998 0.03833333333333334 -0.31625000000000003 0.060375000000000005 -0.6708333333333333 0.060375000000000005 -1.0627916666666668 0 -0.39291666666666664 -0.023000000000000003 -0.7455833333333334 -0.060375000000000005 -1.0618333333333334 -0.20125 -1.6675 -1.79975 -2.4648333333333334 -3.4768333333333334 -2.5328749999999998l-0.24725000000000003 -0.009583333333333334" stroke-width="2"></path><path id="Vector 1398" stroke="#000" stroke-linecap="round" d="M34.97916666666667 14.375H34.5" stroke-width="2"></path><path id="Vector 1400" stroke="#000" stroke-linecap="round" d="M29.229166666666668 10.541666666666668H28.75" stroke-width="2"></path><path id="Vector 1401" stroke="#000" stroke-linecap="round" d="M27.791666666666668 17.25h0.4791666666666667" stroke-width="2"></path></g></svg>