<svg xmlns="http://www.w3.org/2000/svg" fill="none" viewBox="-1 -1 48 48" height="48" width="48"><g id="archive-box--box-content-banker-archive-file"><path id="Intersect" stroke="#000" stroke-linecap="round" stroke-linejoin="round" d="M2.88075 11.378291666666666C2.780125 13.011291666666667 4.090166666666667 14.375 5.727 14.375h34.547916666666666c1.6368333333333334 0 2.9468750000000004 -1.3637083333333335 2.8462500000000004 -2.9967083333333333 -0.059416666666666666 -0.9410833333333334 -0.12075000000000001 -1.7757916666666667 -0.181125 -2.5079583333333333 -0.20125 -2.448541666666667 -2.0824583333333333 -4.318250000000001 -4.531 -4.514708333333334C35.267625 4.1016666666666675 30.227750000000004 3.8333333333333335 23.000958333333337 3.8333333333333335c-7.22775 0 -12.266666666666667 0.26833333333333337 -15.409041666666669 0.5222916666666667C5.143375 4.552083333333334 3.263125 6.420833333333333 3.060916666666667 8.870333333333335c-0.060375000000000005 0.7321666666666667 -0.12170833333333334 1.5659166666666666 -0.18016666666666667 2.5079583333333333Z" stroke-width="2"></path><path id="Subtract" stroke="#000" stroke-linecap="round" stroke-linejoin="round" d="M5.75 14.375v10.541666666666668c0 5.623500000000001 0.19645833333333332 9.675333333333334 0.39675 12.348125 0.18400000000000002 2.450458333333333 2.054666666666667 4.321125 4.505125 4.504166666666667 2.672791666666667 0.20125 6.7246250000000005 0.39770833333333333 12.348125 0.39770833333333333 5.623500000000001 0 9.675333333333334 -0.19645833333333332 12.348125 -0.39675 2.450458333333333 -0.18400000000000002 4.321125 -2.054666666666667 4.504166666666667 -4.505125 0.20125 -2.672791666666667 0.39770833333333333 -6.7246250000000005 0.39770833333333333 -12.348125V14.375" stroke-width="2"></path><path id="Rectangle 1096" stroke="#000" stroke-linecap="round" stroke-linejoin="round" d="M14.387458333333333 23.560625c0.06229166666666667 1.37425 1.2458333333333333 2.2195 2.6210416666666667 2.2520833333333337C18.344416666666667 25.84625 20.313791666666667 25.875 23 25.875s4.655583333333333 -0.029708333333333333 5.9915 -0.06133333333333334c1.3752083333333334 -0.03354166666666667 2.55875 -0.8778333333333334 2.6210416666666667 -2.2520833333333337a12.393166666666668 12.393166666666668 0 0 0 0 -1.1222083333333335c-0.06229166666666667 -1.37425 -1.2458333333333333 -2.2195 -2.6210416666666667 -2.2520833333333337A254.23433333333335 254.23433333333335 0 0 0 23 20.125c-2.6862083333333335 0 -4.655583333333333 0.029708333333333333 -5.9915 0.06133333333333334 -1.3752083333333334 0.03354166666666667 -2.55875 0.8778333333333334 -2.6210416666666667 2.2520833333333337a12.396041666666667 12.396041666666667 0 0 0 0 1.1222083333333335Z" stroke-width="2"></path></g></svg>