<svg xmlns="http://www.w3.org/2000/svg" fill="none" viewBox="-1 -1 48 48" height="48" width="48"><g id="arrow-cursor-1--mouse-select-cursor"><path id="Union" stroke="#000" stroke-linecap="round" stroke-linejoin="round" d="M11.04575 36.74058333333333c0.7858333333333333 1.965541666666667 3.04175 2.7235833333333335 4.849166666666666 1.6215a73.3585 73.3585 0 0 0 7.141500000000001 -4.959375l5.674291666666667 7.420375000000001c1.4911666666666668 1.9502083333333335 4.0575833333333335 2.67375 6.061458333333333 1.2554166666666668 1.1317916666666668 -0.8002083333333333 2.475375 -1.8927083333333334 3.9444999999999997 -3.3618333333333337 1.469125 -1.469125 2.5616250000000003 -2.8127083333333336 3.362791666666667 -3.9444999999999997 1.4183333333333334 -2.0038750000000003 0.6947916666666667 -4.570291666666667 -1.2554166666666668 -6.061458333333333l-7.421333333333333 -5.67525a73.36425 73.36425 0 0 0 4.960333333333334 -7.139583333333333c1.1020833333333333 -1.808375 0.3440416666666667 -4.06525 -1.6224583333333336 -4.849166666666666 -4.839583333333334 -1.9320000000000002 -14.683583333333333 -5.357083333333334 -29.532958333333333 -8.186083333333334 -2.584625 -0.4925833333333334 -4.839583333333334 1.7633333333333334 -4.3469999999999995 4.346041666666667 2.829 14.849375 6.254083333333333 24.694333333333336 8.185125000000001 29.53391666666667Z" stroke-width="2"></path></g></svg>