<svg xmlns="http://www.w3.org/2000/svg" fill="none" viewBox="-1 -1 48 48" height="48" width="48"><g id="coffee-bean--cook-cooking-nutrition-coffee-bean"><path id="Rectangle 1097" stroke="#000" stroke-linecap="round" stroke-linejoin="round" d="M33.733333333333334 35.331833333333336c-7.061000000000001 7.004458333333334 -17.430166666666665 10.565625 -24.77291666666667 3.8572916666666672a33.68445833333334 33.68445833333334 0 0 1 -2.1495416666666665 -2.1495416666666665c-6.708333333333334 -7.3427500000000006 -3.1471666666666667 -17.711916666666667 3.8572916666666672 -24.77291666666667a292.5734166666667 292.5734166666667 0 0 1 1.5985 -1.5985C19.327666666666666 3.6627500000000004 29.696833333333334 0.10254166666666667 37.03958333333333 6.810875a33.67008333333334 33.67008333333334 0 0 1 2.1495416666666665 2.1495416666666665c6.708333333333334 7.3427500000000006 3.1471666666666667 17.711916666666667 -3.8572916666666672 24.77291666666667a292.80245833333333 292.80245833333333 0 0 1 -1.5985 1.5985Z" stroke-width="2"></path><path id="Vector" stroke="#000" stroke-linecap="round" stroke-linejoin="round" d="M38.99458333333333 8.720833333333333C31.180333333333337 9.557458333333335 25.325875 14.010833333333332 23 23c-2.3249166666666667 8.990125 -8.180333333333333 13.442541666666667 -15.995541666666666 14.279166666666667" stroke-width="2"></path></g></svg>