<svg xmlns="http://www.w3.org/2000/svg" fill="none" viewBox="-1 -1 48 48" height="48" width="48"><g id="circle-and-square-shape"><path id="Ellipse 18" stroke="#000" stroke-linecap="round" stroke-linejoin="round" d="M32.243125000000006 10.541666666666668C29.476416666666665 5.947416666666667 24.440375 2.875 18.6875 2.875 9.954208333333334 2.875 2.875 9.954208333333334 2.875 18.6875c0 5.752875 3.072416666666667 10.788916666666665 7.666666666666667 13.555625000000001" stroke-width="2"></path><path id="Rectangle 1095" stroke="#000" stroke-linecap="round" stroke-linejoin="round" d="M19.8375 42.843250000000005c-2.3162916666666664 -0.16483333333333333 -4.0575833333333335 -1.9070833333333335 -4.222416666666667 -4.222416666666667 -0.1495 -2.0939583333333336 -0.28175 -5.147208333333334 -0.28175 -9.391666666666667s0.13225 -7.2977083333333335 0.28175 -9.391666666666667c0.16483333333333333 -2.3162916666666664 1.9070833333333335 -4.0575833333333335 4.2214583333333335 -4.222416666666667C21.93241666666667 15.465583333333335 24.985666666666667 15.333333333333334 29.229166666666668 15.333333333333334s7.2977083333333335 0.13225 9.391666666666667 0.28175c2.3162916666666664 0.16483333333333333 4.0575833333333335 1.9070833333333335 4.222416666666667 4.2214583333333335 0.1495 2.0949166666666668 0.28175 5.148166666666667 0.28175 9.392625s-0.13225 7.2977083333333335 -0.28175 9.391666666666667c-0.16483333333333333 2.3162916666666664 -1.9070833333333335 4.0575833333333335 -4.222416666666667 4.222416666666667 -2.0939583333333336 0.1495 -5.147208333333334 0.28175 -9.391666666666667 0.28175s-7.2977083333333335 -0.13225 -9.391666666666667 -0.28175Z" stroke-width="2"></path></g></svg>