<svg xmlns="http://www.w3.org/2000/svg" fill="none" viewBox="-1 -1 48 48" height="48" width="48"><g id="contact-phonebook--phonebook-phone-number-books-book"><path id="Rectangle 1098" stroke="#000" stroke-linejoin="round" d="M5.260291666666666 36.395583333333335c-1.3033333333333335 -0.03833333333333334 -2.331625 -0.8749583333333334 -2.37475 -2.1773333333333333a20.37225 20.37225 0 0 1 0 -1.3531666666666666c0.043125 -1.3033333333333335 1.071416666666667 -2.1390000000000002 2.37475 -2.1773333333333333a49.615791666666674 49.615791666666674 0 0 1 2.8960833333333333 0c1.3033333333333335 0.03833333333333334 2.331625 0.8749583333333334 2.37475 2.1773333333333333a20.266833333333334 20.266833333333334 0 0 1 0 1.3531666666666666c-0.043125 1.3033333333333335 -1.071416666666667 2.1390000000000002 -2.37475 2.1773333333333333a49.61483333333334 49.61483333333334 0 0 1 -2.8960833333333333 0Z" stroke-width="2"></path><path id="Rectangle 1099" stroke="#000" stroke-linejoin="round" d="M5.260291666666666 25.85391666666667c-1.3033333333333335 -0.03833333333333334 -2.331625 -0.8749583333333334 -2.37475 -2.1773333333333333a20.37225 20.37225 0 0 1 0 -1.3531666666666666c0.043125 -1.3033333333333335 1.071416666666667 -2.1390000000000002 2.37475 -2.1773333333333333a49.615791666666674 49.615791666666674 0 0 1 2.8960833333333333 0c1.3033333333333335 0.03833333333333334 2.331625 0.8749583333333334 2.37475 2.1773333333333333a20.266833333333334 20.266833333333334 0 0 1 0 1.3531666666666666c-0.043125 1.3033333333333335 -1.071416666666667 2.1390000000000002 -2.37475 2.1773333333333333a49.61483333333334 49.61483333333334 0 0 1 -2.8960833333333333 0Z" stroke-width="2"></path><path id="Rectangle 1100" stroke="#000" stroke-linejoin="round" d="M5.260291666666666 15.31225c-1.3033333333333335 -0.03833333333333334 -2.331625 -0.8749583333333334 -2.37475 -2.1773333333333333a20.37225 20.37225 0 0 1 0 -1.3531666666666666c0.043125 -1.3033333333333335 1.071416666666667 -2.1390000000000002 2.37475 -2.1773333333333333a49.615791666666674 49.615791666666674 0 0 1 2.8960833333333333 0c1.3033333333333335 0.03833333333333334 2.331625 0.8749583333333334 2.37475 2.1773333333333333a20.266833333333334 20.266833333333334 0 0 1 0 1.3531666666666666c-0.043125 1.3033333333333335 -1.071416666666667 2.1390000000000002 -2.37475 2.1773333333333333a49.61483333333334 49.61483333333334 0 0 1 -2.8960833333333333 0Z" stroke-width="2"></path><path id="Subtract" stroke="#000" stroke-linejoin="round" d="M7.063875 36.415708333333335c0.037375 0.6075833333333334 0.07475 1.1653333333333333 0.11212500000000002 1.6732500000000001 0.18016666666666667 2.446625 2.024958333333333 4.344125000000001 4.469666666666667 4.552083333333334 2.8175 0.24150000000000002 7.167375000000001 0.4839583333333334 13.271 0.4839583333333334 6.104583333333333 0 10.454458333333335 -0.24245833333333336 13.271 -0.48300000000000004 2.4447083333333337 -0.20891666666666667 4.2904583333333335 -2.1064166666666666 4.469666666666667 -4.552083333333334C42.88541666666667 34.9945 43.125 30.058125 43.125 23s-0.23958333333333334 -11.995458333333334 -0.4676666666666667 -15.088958333333332c-0.18016666666666667 -2.447583333333333 -2.024958333333333 -4.343166666666667 -4.469666666666667 -4.552083333333334C35.37016666666667 3.1165 31.02125 2.875 24.916666666666668 2.875c-6.104583333333333 0 -10.454458333333335 0.24245833333333336 -13.271 0.48300000000000004 -2.44375 0.209875 -4.2895 2.1054583333333334 -4.469666666666667 4.552083333333334 -0.03833333333333334 0.5079166666666667 -0.07475 1.0656666666666668 -0.11212500000000002 1.6742083333333335" stroke-width="2"></path><path id="Subtract_2" stroke="#000" stroke-linejoin="round" d="M6.812791666666667 30.666666666666668a250.1844166666667 250.1844166666667 0 0 1 -0.09104166666666667 -4.791666666666667" stroke-width="2"></path><path id="Subtract_3" stroke="#000" stroke-linejoin="round" d="M6.72175 20.125c0.01629166666666667 -1.7480000000000002 0.04791666666666667 -3.3426666666666667 0.09104166666666667 -4.791666666666667" stroke-width="2"></path><path id="Union" stroke="#000" stroke-linejoin="round" d="M28.95029166666667 24.026375a5.75 5.75 0 1 0 -6.16975 -0.013416666666666667c-2.74275 0.9909166666666668 -4.843416666666667 3.2736666666666667 -5.528625 6.091166666666667 -0.299 1.2266666666666668 0.41975 2.393916666666667 1.6416250000000001 2.7159166666666668 1.365625 0.36033333333333334 3.5765000000000002 0.7216250000000001 6.952708333333334 0.7216250000000001 3.3771666666666667 0 5.587083333333333 -0.3612916666666667 6.952708333333334 -0.7216250000000001 1.221875 -0.322 1.940625 -1.4882916666666666 1.6416250000000001 -2.7159166666666668 -0.6823333333333333 -2.805041666666667 -2.7667083333333333 -5.079166666666667 -5.491250000000001 -6.07775Z" stroke-width="2"></path></g></svg>