<svg xmlns="http://www.w3.org/2000/svg" fill="none" viewBox="-1 -1 48 48" height="48" width="48"><g id="inbox-content--mail-email-outbox-drawer-content-open-inbox"><path id="Vector 1479" stroke="#000" stroke-linecap="round" stroke-linejoin="round" d="M16.291666666666668 11.5h13.416666666666668" stroke-width="2"></path><path id="Vector 1480" stroke="#000" stroke-linecap="round" stroke-linejoin="round" d="M14.375 19.166666666666668h17.25" stroke-width="2"></path><path id="Rectangle 56" stroke="#000" stroke-linejoin="round" d="M3.3062500000000004 38.479c0.20316666666666666 2.287541666666667 1.9454166666666666 4.0067916666666665 4.2339166666666666 4.19175 2.895125 0.23383333333333334 7.743333333333334 0.47245833333333337 15.459833333333336 0.47245833333333337 7.7165 0 12.56375 -0.238625 15.458875 -0.47245833333333337 2.2885 -0.18495833333333334 4.03075 -1.9042083333333335 4.2339166666666666 -4.19175 0.40058333333333335 -4.534833333333333 0.43125 -10.024166666666668 0.43125 -11.336125000000001a4.999625 4.999625 0 0 0 -0.031625 -0.5865c-0.9391666666666667 -8.637458333333333 -2.284666666666667 -15.488583333333333 -3.1720833333333336 -19.446500000000004 -0.5107916666666668 -2.28275 -2.4341666666666666 -3.903291666666667 -4.771541666666667 -4.004875 -2.511791666666667 -0.10829166666666667 -6.411250000000001 -0.21083333333333334 -12.148791666666666 -0.21083333333333334 -5.737541666666667 0 -9.637 0.10254166666666667 -12.149750000000001 0.21083333333333334 -2.3383333333333334 0.10158333333333333 -4.26075 1.722125 -4.772500000000001 4.005833333333333 -0.8855000000000001 3.956958333333333 -2.231 10.808083333333334 -3.170166666666667 19.445541666666667a5.375291666666667 5.375291666666667 0 0 0 -0.03258333333333334 0.5865c0.0009583333333333334 1.3119583333333333 0.03066666666666667 6.801291666666668 0.43125 11.337083333333334Z" stroke-width="2"></path><path id="Intersect" stroke="#000" stroke-linecap="round" stroke-linejoin="round" d="M2.8826666666666667 26.8525h10.37875a2.875 2.875 0 0 1 2.7264583333333334 1.9645833333333333l0.6066250000000001 1.8189166666666667a2.875 2.875 0 0 0 2.727416666666667 1.9665000000000001h7.355208333333334a2.875 2.875 0 0 0 2.727416666666667 -1.9665000000000001l0.6066250000000001 -1.8179583333333333a2.875 2.875 0 0 1 2.727416666666667 -1.9665000000000001h10.37875" stroke-width="2"></path></g></svg>