<svg xmlns="http://www.w3.org/2000/svg" fill="none" viewBox="-1 -1 48 48" height="48" width="48"><g id="global-learning--global-learning-education"><path id="Vector 144" stroke="#000" stroke-linecap="round" stroke-linejoin="round" d="M3.287083333333334 27.3125h9.89" stroke-width="2"></path><path id="Vector 145" stroke="#000" stroke-linecap="round" stroke-linejoin="round" d="M3.287083333333334 14.695083333333333h35.59441666666667" stroke-width="2"></path><path id="Vector 2536" stroke="#000" stroke-linecap="round" stroke-linejoin="round" d="m17.25 31.147750000000002 0 11.560375" stroke-width="2"></path><path id="Ellipse 19" stroke="#000" stroke-linecap="round" stroke-linejoin="round" d="M29.299125 21.083333333333336c0 -10.585749999999999 -3.6780833333333334 -19.166666666666668 -8.214833333333333 -19.166666666666668 -4.5367500000000005 0 -8.213875 8.580916666666667 -8.213875 19.166666666666668 0 2.1802083333333333 0.15525 4.276083333333333 0.44370833333333337 6.229166666666667" stroke-width="2"></path><path id="Ellipse 18" stroke="#000" stroke-linecap="round" stroke-linejoin="round" d="M40.03533333333334 23.958333333333336c0.14183333333333334 -0.9382083333333333 0.21466666666666667 -1.8975 0.21466666666666667 -2.875 0 -10.585749999999999 -8.580916666666667 -19.166666666666668 -19.166666666666668 -19.166666666666668S1.9166666666666667 10.497583333333335 1.9166666666666667 21.083333333333336c0 7.482666666666667 4.288541666666666 13.964833333333333 10.541666666666668 17.120625" stroke-width="2"></path><path id="Rectangle 1097" stroke="#000" stroke-linecap="round" stroke-linejoin="round" d="M18.214083333333335 32.543083333333335c-1.288 -0.58075 -1.288 -2.2089583333333334 0 -2.7897083333333335A127.77937500000002 127.77937500000002 0 0 1 22.616666666666667 27.877916666666668c2.9852083333333335 -1.2122916666666665 5.139541666666667 -1.9914166666666666 6.464916666666667 -2.44375a4.8875 4.8875 0 0 1 3.1711250000000004 0c1.3244166666666666 0.4523333333333333 3.4787500000000002 1.2314583333333333 6.463958333333333 2.44375a129.68166666666667 129.68166666666667 0 0 1 4.4035416666666665 1.8754583333333334c1.288 0.58075 1.288 2.2089583333333334 0 2.7897083333333335a127.42479166666668 127.42479166666668 0 0 1 -4.4035416666666665 1.8754583333333334c-2.98425 1.2122916666666665 -5.139541666666667 1.9914166666666666 -6.463958333333333 2.44375a4.889416666666667 4.889416666666667 0 0 1 -3.1720833333333336 0c-1.3234583333333334 -0.4523333333333333 -3.4787500000000002 -1.2314583333333333 -6.463958333333333 -2.44375a127.58866666666667 127.58866666666667 0 0 1 -4.4035416666666665 -1.8754583333333334Z" stroke-width="2"></path><path id="Subtract" stroke="#000" stroke-linecap="round" stroke-linejoin="round" d="M22.520833333333336 34.379250000000006v2.958375c0 1.5218333333333334 0.06229166666666667 2.5970833333333334 0.13608333333333333 3.3388333333333335 0.09870833333333333 0.9794166666666667 0.6535833333333334 1.814125 1.5505833333333334 2.216625 1.2151666666666667 0.54625 3.31775 1.1921666666666666 6.459166666666667 1.1921666666666666s5.244000000000001 -0.6468750000000001 6.459166666666667 -1.1921666666666666c0.8970000000000001 -0.4025 1.451875 -1.2372083333333332 1.549625 -2.216625 0.07475 -0.74175 0.13704166666666667 -1.817 0.13704166666666667 -3.3388333333333335l0 -2.958375" stroke-width="2"></path></g></svg>