<svg xmlns="http://www.w3.org/2000/svg" fill="none" viewBox="-1 -1 48 48" height="48" width="48"><g id="magic-wand-1--sselection-wand-object-work"><path id="Union" stroke="#000" stroke-linecap="round" stroke-linejoin="round" d="M3.4710833333333335 37.96725c-0.6190833333333334 -1.5256666666666667 0.13416666666666668 -3.1366250000000004 1.365625 -4.2272083333333335l21.887375 -19.38516666666667c0.805 -0.7139583333333334 1.9003750000000001 -1.0829166666666665 2.8673333333333333 -0.6085416666666666 0.4935416666666667 0.24150000000000002 1.0426666666666669 0.5941666666666667 1.555375 1.1078333333333332a5.811333333333334 5.811333333333334 0 0 1 1.1078333333333332 1.555375c0.47341666666666665 0.9660000000000001 0.10541666666666667 2.060416666666667 -0.6085416666666666 2.866375L12.260916666666668 41.16329166666667c-1.0925 1.2314583333333333 -2.7025 1.9847083333333335 -4.228166666666667 1.365625A8.25125 8.25125 0 0 1 5.29 40.71a8.25125 8.25125 0 0 1 -1.8189166666666667 -2.74275Z" stroke-width="2"></path><path id="Intersect" stroke="#000" stroke-linecap="round" stroke-linejoin="round" d="M26.964625 24.562083333333334c-0.9391666666666667 -0.8941250000000001 -1.9415833333333332 -1.871625 -3.0110833333333336 -2.942083333333333a173.70941666666667 173.70941666666667 0 0 1 -2.525208333333333 -2.5750416666666665" stroke-width="2"></path><path id="Vector 1353" stroke="#000" stroke-linecap="round" stroke-linejoin="round" d="m20.125 6.708333333333334 2.875 2.875" stroke-width="2"></path><path id="Vector 1354" stroke="#000" stroke-linecap="round" stroke-linejoin="round" d="m36.41666666666667 23 2.875 2.875" stroke-width="2"></path><path id="Vector 1353_2" stroke="#000" stroke-linecap="round" stroke-linejoin="round" d="m39.29166666666667 6.708333333333334 -2.875 2.875" stroke-width="2"></path><path id="Vector 1353_3" stroke="#000" stroke-linecap="round" stroke-linejoin="round" d="M29.708333333333336 2.738916666666667V6.804166666666666" stroke-width="2"></path><path id="Vector 1354_2" stroke="#000" stroke-linecap="round" stroke-linejoin="round" d="M39.19583333333333 16.291666666666668h4.06525" stroke-width="2"></path></g></svg>