<svg xmlns="http://www.w3.org/2000/svg" fill="none" viewBox="-1 -1 48 48" height="48" width="48"><g id="new-folder--empty-folder"><path id="Subtract" stroke="#000" stroke-linecap="round" stroke-linejoin="round" d="M12.961458333333335 3.8505833333333332c1.8515 -0.14758333333333334 3.650291666666667 0.6411250000000001 4.865458333333334 2.060416666666667l1.9569166666666666 2.285625a4.005833333333333 4.005833333333333 0 0 0 3.042708333333333 1.4068333333333334h14.321333333333335c3.142375 0 5.758625 2.437041666666667 5.863083333333334 5.612 0.06995833333333333 2.099708333333333 0.11404166666666667 4.615333333333333 0.11404166666666667 7.616833333333334 0 7.661875 -0.2884583333333333 12.154541666666667 -0.549125 14.649083333333333 -0.18400000000000002 1.7614166666666669 -1.3445416666666667 3.1356666666666664 -3.061875 3.4845C36.82395833333333 41.513083333333334 31.77354166666667 42.16666666666667 23 42.16666666666667s-13.823958333333335 -0.6535833333333334 -16.514 -1.2007916666666667c-1.7173333333333334 -0.34883333333333333 -2.8778750000000004 -1.7230833333333335 -3.061875 -3.4845C3.1625 34.98683333333334 2.875 30.49416666666667 2.875 22.832291666666666c0 -7.661875 0.2884583333333333 -12.154541666666667 0.549125 -14.649083333333333C3.6081250000000002 6.420833333333333 4.7696250000000004 5.046583333333333 6.487916666666666 4.69775c1.4269583333333336 -0.290375 3.5170833333333333 -0.6104583333333333 6.473541666666667 -0.8471666666666667Z" stroke-width="2"></path></g></svg>