<svg xmlns="http://www.w3.org/2000/svg" fill="none" viewBox="-1 -1 48 48" height="48" width="48"><g id="threat-phone--bug-phone-file-threat-danger-mobile"><path id="Rectangle 1095" stroke="#000" stroke-linecap="round" stroke-linejoin="round" d="M31.562708333333337 29.708333333333336a218.93125 218.93125 0 0 1 -0.3105 8.440041666666668c-0.140875 2.415 -1.8907916666666669 4.3412500000000005 -4.300041666666667 4.572208333333333C24.733625000000004 42.93333333333333 21.540458333333333 43.125 17.25 43.125s-7.484583333333333 -0.19166666666666668 -9.702166666666667 -0.40441666666666665c-2.40925 -0.23 -4.159166666666667 -2.15625 -4.300041666666667 -4.572208333333333C3.066666666666667 35.058708333333335 2.875 30.104125 2.875 23s0.19166666666666668 -12.058708333333334 0.3727916666666667 -15.148375000000001c0.140875 -2.415 1.8907916666666669 -4.3412500000000005 4.300041666666667 -4.572208333333333C9.766375000000002 3.066666666666667 12.959541666666667 2.875 17.25 2.875a112.955875 112.955875 0 0 1 8.145833333333334 0.273125" stroke-width="2"></path><path id="Intersect" stroke="#000" stroke-linecap="round" stroke-linejoin="round" d="m11.754916666666666 2.9919166666666666 0.3890833333333334 3.1145833333333335A2.875 2.875 0 0 0 14.996958333333334 8.625h4.507041666666667a2.875 2.875 0 0 0 2.8529583333333335 -2.5175416666666663l0.3890833333333334 -3.1145833333333335" stroke-width="2"></path><path id="Vector 1363" stroke="#000" stroke-linecap="round" d="M15.333333333333334 38.333333333333336h3.8333333333333335" stroke-width="2"></path><path id="Rectangle 128" stroke="#000" d="M25.906625000000002 24.692416666666666c-2.796416666666667 -0.1945416666666667 -4.520458333333333 -2.549166666666667 -3.5007916666666667 -5.160625 0.6392083333333334 -1.6349166666666668 1.5860416666666668 -3.7633750000000004 2.99 -6.482166666666667 1.46625 -2.8385833333333337 2.76575 -5.033166666666666 3.8429166666666665 -6.694916666666667 1.6885833333333333 -2.6028333333333338 5.000583333333333 -2.6028333333333338 6.689166666666667 0 1.0771666666666668 1.66175 2.376666666666667 3.8563333333333336 3.8429166666666665 6.694916666666667 1.4049166666666666 2.718791666666667 2.3517500000000005 4.84725 2.99 6.482166666666667 1.020625 2.6105000000000005 -0.704375 4.966083333333334 -3.5007916666666667 5.160625A96.21666666666668 96.21666666666668 0 0 1 32.583333333333336 24.916666666666668a96.21666666666668 96.21666666666668 0 0 1 -6.676708333333333 -0.22425000000000003Z" stroke-width="2"></path><path id="Vector 1479" stroke="#000" stroke-linecap="round" stroke-linejoin="round" d="m32.583333333333336 10.541666666666668 0 4.791666666666667" stroke-width="2"></path><path id="Vector 1480" stroke="#000" stroke-linecap="round" stroke-linejoin="round" d="M32.583333333333336 19.166666666666668v0.9583333333333334" stroke-width="2"></path></g></svg>