<svg xmlns="http://www.w3.org/2000/svg" fill="none" viewBox="-1 -1 48 48" height="48" width="48"><g id="user-multiple-accounts"><path id="Rectangle 1096" stroke="#000" stroke-linecap="round" stroke-linejoin="round" d="M12.005041666666667 6.708333333333334c0.5280416666666667 -1.9396666666666669 2.1945833333333336 -3.3407500000000003 4.286625 -3.4912083333333332C18.74116666666667 3.040791666666667 22.362708333333334 2.875 27.3125 2.875c4.919125 0 8.526291666666667 0.16387500000000002 10.974833333333335 0.33925 2.451416666666667 0.17441666666666666 4.324 2.047 4.4984166666666665 4.4984166666666665 0.175375 2.448541666666667 0.33925 6.0566666666666675 0.33925 10.974833333333335 0 4.949791666666667 -0.16579166666666667 8.571333333333335 -0.342125 11.020833333333334 -0.15045833333333333 2.092041666666667 -1.5525000000000002 3.7585833333333336 -3.4912083333333332 4.286625" stroke-width="2"></path><path id="Rectangle 1097" stroke="#000" stroke-linecap="round" stroke-linejoin="round" d="M34.16075 16.336708333333334c-0.17441666666666666 -2.450458333333333 -2.047 -4.3220833333333335 -4.4984166666666665 -4.497458333333333C27.213791666666665 11.662916666666668 23.605666666666668 11.5 18.6875 11.5c-4.919125 0 -8.526291666666667 0.16387500000000002 -10.974833333333335 0.33925 -2.451416666666667 0.17441666666666666 -4.324 2.047 -4.4984166666666665 4.4984166666666665C3.037916666666667 18.78525 2.875 22.393375000000002 2.875 27.3125s0.16387500000000002 8.526291666666667 0.33925 10.975791666666666c0.17441666666666666 2.450458333333333 2.047 4.3220833333333335 4.4984166666666665 4.497458333333333 2.448541666666667 0.175375 6.0566666666666675 0.33925 10.974833333333335 0.33925 4.919125 0 8.526291666666667 -0.16387500000000002 10.974833333333335 -0.33925 2.451416666666667 -0.17441666666666666 4.324 -2.047 4.4984166666666665 -4.4984166666666665 0.175375 -2.448541666666667 0.33925 -6.0566666666666675 0.33925 -10.974833333333335 0 -4.919125 -0.16387500000000002 -8.526291666666667 -0.33925 -10.975791666666666Z" stroke-width="2"></path><path id="Union" stroke="#000" stroke-linecap="round" stroke-linejoin="round" d="M23.024916666666666 29.446708333333333a6.708333333333334 6.708333333333334 0 1 0 -7.729916666666668 -0.009583333333333334c-2.392 0.8941250000000001 -4.298125000000001 2.5961250000000002 -5.270833333333334 4.715 -0.6190833333333334 1.3464583333333333 0.15333333333333335 2.958375 1.633 3.0475000000000003l0.042166666666666665 0.0028750000000000004a143.84583333333333 143.84583333333333 0 0 0 7.44625 0.1725c3.1711250000000004 0 5.62925 -0.077625 7.44625 -0.1725l0.043125 -0.0028750000000000004c1.4787083333333333 -0.089125 2.2520833333333337 -1.7010416666666666 1.633 -3.0475000000000003 -0.9698333333333334 -2.1112083333333334 -2.8644583333333333 -3.808416666666667 -5.243041666666667 -4.705416666666667Z" stroke-width="2"></path></g></svg>