<svg xmlns="http://www.w3.org/2000/svg" fill="none" viewBox="-1 -1 48 48" height="48" width="48"><g id="strawberry--fruit-sweet-berries-plant-strawberry"><path id="Ellipse 272" stroke="#000" stroke-linecap="round" stroke-linejoin="round" d="M5.75 22.611875C5.75 14.372125 9.808541666666667 8.625 23 8.625s17.25 5.7471250000000005 17.25 13.986875000000001C40.25 31.625 30.666666666666668 43.125 23 43.125S5.75 31.625 5.75 22.611875Z" stroke-width="2"></path><path id="Subtract" stroke="#000" stroke-linecap="round" stroke-linejoin="round" d="M10.672958333333334 11.535458333333334c-1.382875 -2.0364583333333335 -2.348875 -4.402583333333334 -2.906625 -5.989583333333334a1.658875 1.658875 0 0 1 1.2812916666666667 -2.2089583333333334c2.665125 -0.4849166666666667 7.610125 -1.020625 10.762083333333335 0.8548333333333333 1.4212083333333334 0.8462083333333333 2.4705833333333334 1.7872916666666667 3.19125 2.7724583333333332 0.71875 -0.9851666666666667 1.7690833333333336 -1.9262499999999998 3.1893333333333334 -2.7724583333333332 3.1519583333333334 -1.8754583333333334 8.096958333333333 -1.33975 10.762083333333335 -0.8548333333333333 1.0350000000000001 0.18783333333333335 1.6291666666666667 1.2170833333333333 1.2812916666666667 2.209916666666667 -0.5567916666666667 1.5860416666666668 -1.5237500000000002 3.9521666666666664 -2.906625 5.989583333333334" stroke-width="2"></path><path id="Vector 1406" stroke="#000" stroke-linecap="round" stroke-linejoin="round" d="M18.208333333333336 17.25v-1.9166666666666667" stroke-width="2"></path><path id="Vector 1411" stroke="#000" stroke-linecap="round" stroke-linejoin="round" d="M19.166666666666668 34.5v-1.9166666666666667" stroke-width="2"></path><path id="Vector 1410" stroke="#000" stroke-linecap="round" stroke-linejoin="round" d="M13.416666666666668 25.875v-1.9166666666666667" stroke-width="2"></path><path id="Vector 1407" stroke="#000" stroke-linecap="round" stroke-linejoin="round" d="M27.791666666666668 17.25v-1.9166666666666667" stroke-width="2"></path><path id="Vector 1412" stroke="#000" stroke-linecap="round" stroke-linejoin="round" d="M26.833333333333336 34.5v-1.9166666666666667" stroke-width="2"></path><path id="Vector 1409" stroke="#000" stroke-linecap="round" stroke-linejoin="round" d="M32.583333333333336 25.875v-1.9166666666666667" stroke-width="2"></path><path id="Vector 1408" stroke="#000" stroke-linecap="round" stroke-linejoin="round" d="m23 25.875 0 -1.9166666666666667" stroke-width="2"></path></g></svg>