<svg xmlns="http://www.w3.org/2000/svg" fill="none" viewBox="-1 -1 48 48" height="48" width="48"><g id="ai-generate-portrait-image-spark--picture-photography-photo-image-artificial-intelligence-ai"><path id="Star 11" stroke="#000" d="M32.701208333333334 23.578833333333332a0.9583333333333334 0.9583333333333334 0 0 1 1.6809166666666668 0l1.61 2.942083333333333a11.5 11.5 0 0 0 4.57125 4.57125l2.941125 1.6090416666666667a0.9583333333333334 0.9583333333333334 0 0 1 0 1.6809166666666668l-2.942083333333333 1.61a11.5 11.5 0 0 0 -4.57125 4.57125l-1.6090416666666667 2.941125a0.9583333333333334 0.9583333333333334 0 0 1 -1.6809166666666668 0l-1.61 -2.942083333333333a11.5 11.5 0 0 0 -4.57125 -4.57125l-2.941125 -1.6090416666666667a0.9583333333333334 0.9583333333333334 0 0 1 0 -1.6809166666666668l2.942083333333333 -1.61a11.5 11.5 0 0 0 4.57125 -4.57125l1.6090416666666667 -2.941125Z" stroke-width="2"></path><path id="Rectangle 1098" stroke="#000" stroke-linecap="round" stroke-linejoin="round" d="M36.41666666666667 18.6875c-0.012458333333333333 -5.794083333333334 -0.232875 -9.870833333333334 -0.44275000000000003 -12.452583333333333 -0.17058333333333334 -2.09875 -1.77675 -3.704916666666667 -3.8754999999999997 -3.8754999999999997C29.446708333333333 2.143791666666667 25.215666666666667 1.9166666666666667 19.166666666666668 1.9166666666666667c-6.049 0 -10.280041666666667 0.227125 -12.931750000000001 0.44275000000000003 -2.09875 0.17058333333333334 -3.704916666666667 1.77675 -3.8754999999999997 3.8754999999999997C2.143791666666667 8.886625 1.9166666666666667 13.117666666666668 1.9166666666666667 19.166666666666668c0 6.049 0.227125 10.280041666666667 0.44275000000000003 12.931750000000001 0.17058333333333334 2.09875 1.77675 3.704916666666667 3.8754999999999997 3.8754999999999997 2.58175 0.209875 6.658500000000001 0.43125 12.452583333333333 0.44275000000000003" stroke-width="2"></path><path id="Union" stroke="#000" stroke-linecap="round" stroke-linejoin="round" d="M19.166666666666668 29.845375c-3.3158333333333334 0 -5.871708333333333 -0.09200000000000001 -7.746208333333334 -0.20316666666666666a5.579416666666667 5.579416666666667 0 0 1 -0.0805 -0.005750000000000001c-1.4442083333333333 -0.10829166666666667 -2.1974583333333335 -1.6579166666666667 -1.7125416666666666 -3.0225833333333334 0.9851666666666667 -2.773416666666667 3.20275 -4.984291666666667 6.013541666666668 -6.007791666666667a6.571291666666667 6.571291666666667 0 1 1 7.051416666666666 0A10.129583333333334 10.129583333333334 0 0 1 26.833333333333336 23.432208333333335" stroke-width="2"></path></g></svg>