<svg xmlns="http://www.w3.org/2000/svg" fill="none" viewBox="-1 -1 48 48" height="48" width="48"><g id="hospital-sign-square--health-sign-medical-symbol-hospital-square-emergency"><path id="Rectangle 1096" stroke="#000" stroke-linecap="round" d="M3.391541666666667 7.912958333333333c0.19933333333333333 -2.448541666666667 2.072875 -4.3220833333333335 4.521416666666667 -4.521416666666667C11.006458333333333 3.1404583333333336 15.942833333333333 2.875 23 2.875c7.057166666666667 0 11.993541666666667 0.26545833333333335 15.087041666666668 0.5165416666666667 2.448541666666667 0.19933333333333333 4.3220833333333335 2.072875 4.521416666666667 4.521416666666667C42.859541666666665 11.006458333333333 43.125 15.942833333333333 43.125 23c0 7.057166666666667 -0.26545833333333335 11.993541666666667 -0.5165416666666667 15.087041666666668 -0.19933333333333333 2.448541666666667 -2.072875 4.3220833333333335 -4.521416666666667 4.521416666666667C34.993541666666665 42.859541666666665 30.057166666666667 43.125 23 43.125c-7.057166666666667 0 -11.993541666666667 -0.26545833333333335 -15.087041666666668 -0.5165416666666667 -2.448541666666667 -0.19933333333333333 -4.3220833333333335 -2.072875 -4.521416666666667 -4.521416666666667C3.1404583333333336 34.993541666666665 2.875 30.057166666666667 2.875 23c0 -7.057166666666667 0.26545833333333335 -11.993541666666667 0.5165416666666667 -15.087041666666668Z" stroke-width="2"></path><path id="Union" stroke="#000" stroke-linecap="round" stroke-linejoin="round" d="M16.024291666666667 9.683c1.288 0.16770833333333332 2.0364583333333335 1.319625 2.0700000000000003 2.617208333333333 0.03833333333333334 1.4633749999999999 0.08145833333333334 3.7317500000000003 0.10254166666666667 6.90575A268.56333333333333 268.56333333333333 0 0 1 23 19.166666666666668c1.9243333333333335 0 3.5170833333333333 0.01629166666666667 4.803166666666667 0.03929166666666667 0.021083333333333332 -3.174 0.06420833333333334 -5.442375 0.10254166666666667 -6.90575 0.03354166666666667 -1.2975833333333335 0.782 -2.4495 2.0700000000000003 -2.61625A12.826333333333334 12.826333333333334 0 0 1 31.625 9.583333333333334c0.6392083333333334 0 1.187375 0.04025 1.6492916666666668 0.09966666666666667 1.288 0.16770833333333332 2.0364583333333335 1.319625 2.0700000000000003 2.617208333333333 0.051750000000000004 1.9914166666666666 0.11404166666666667 5.472083333333334 0.11404166666666667 10.699791666666666 0 5.22675 -0.06229166666666667 8.708375 -0.115 10.699791666666666 -0.03258333333333334 1.2975833333333335 -0.7810416666666666 2.4495 -2.0690416666666667 2.61625 -0.46191666666666664 0.060375000000000005 -1.0100833333333334 0.100625 -1.6492916666666668 0.100625s-1.187375 -0.04025 -1.6492916666666668 -0.09966666666666667c-1.288 -0.16770833333333332 -2.0364583333333335 -1.319625 -2.0700000000000003 -2.617208333333333 -0.03833333333333334 -1.4633749999999999 -0.08145833333333334 -3.7317500000000003 -0.10254166666666667 -6.90575A268.56333333333333 268.56333333333333 0 0 1 23 26.833333333333336c-1.9243333333333335 0 -3.5170833333333333 -0.01629166666666667 -4.803166666666667 -0.03929166666666667a359.9864166666667 359.9864166666667 0 0 1 -0.10254166666666667 6.90575c-0.03354166666666667 1.2975833333333335 -0.782 2.4495 -2.0700000000000003 2.61625 -0.46191666666666664 0.060375000000000005 -1.0100833333333334 0.100625 -1.6492916666666668 0.100625s-1.187375 -0.04025 -1.6492916666666668 -0.09966666666666667c-1.288 -0.16770833333333332 -2.0364583333333335 -1.319625 -2.0700000000000003 -2.617208333333333C10.603958333333333 31.708375000000004 10.541666666666668 28.227708333333332 10.541666666666668 23c0 -5.22675 0.06229166666666667 -8.708375 0.115 -10.699791666666666 0.03258333333333334 -1.2975833333333335 0.7810416666666666 -2.4495 2.0690416666666667 -2.61625A12.826333333333334 12.826333333333334 0 0 1 14.375 9.583333333333334c0.6392083333333334 0 1.187375 0.04025 1.6492916666666668 0.09966666666666667Z" stroke-width="2"></path></g></svg>