<svg xmlns="http://www.w3.org/2000/svg" fill="none" viewBox="-1 -1 48 48" height="48" width="48"><g id="safe-vault--saving-combo-payment-safe-combination-finance"><path id="Rectangle 1095" stroke="#000" stroke-linecap="round" stroke-linejoin="round" d="M42.632416666666664 35.28775c-0.20604166666666668 2.446625 -2.0968333333333335 4.298125000000001 -4.545375000000001 4.482125C34.993541666666665 40.003708333333336 30.057166666666667 40.25 23 40.25c-7.057166666666667 0 -11.993541666666667 -0.2462916666666667 -15.087041666666668 -0.4791666666666667 -2.448541666666667 -0.18495833333333334 -4.339333333333333 -2.0364583333333335 -4.545375000000001 -4.483083333333333C3.1232083333333334 32.401250000000005 2.875 27.90379166666667 2.875 21.5625c0 -6.341291666666667 0.24916666666666668 -10.838750000000001 0.4925833333333334 -13.725249999999999 0.20604166666666668 -2.446625 2.0968333333333335 -4.298125000000001 4.545375000000001 -4.483083333333333C11.006458333333333 3.121291666666667 15.942833333333333 2.875 23 2.875c7.057166666666667 0 11.993541666666667 0.2462916666666667 15.087041666666668 0.4791666666666667 2.448541666666667 0.18495833333333334 4.339333333333333 2.0364583333333335 4.545375000000001 4.483083333333333 0.244375 2.8865000000000003 0.4925833333333334 7.383958333333334 0.4925833333333334 13.725249999999999 0 6.341291666666667 -0.24916666666666668 10.838750000000001 -0.4925833333333334 13.725249999999999Z" stroke-width="2"></path><path id="Rectangle 1096" stroke="#000" stroke-linecap="round" stroke-linejoin="round" d="M9.965708333333334 12.185208333333334c0.11979166666666667 -1.2199583333333333 1.0704583333333333 -2.1418749999999998 2.2932916666666667 -2.2425C14.242750000000001 9.781708333333334 17.735875000000004 9.583333333333334 23 9.583333333333334s8.75725 0.19741666666666666 10.741000000000001 0.36033333333333334c1.2228333333333334 0.09966666666666667 2.1734999999999998 1.0215833333333335 2.2942500000000003 2.2425 0.17729166666666668 1.8026250000000001 0.3814166666666667 4.859708333333333 0.3814166666666667 9.376333333333335 0 4.516625 -0.204125 7.573708333333333 -0.3814166666666667 9.377291666666666 -0.12075000000000001 1.2199583333333333 -1.071416666666667 2.1418749999999998 -2.2942500000000003 2.2425 -1.98375 0.16195833333333334 -5.476875 0.359375 -10.741000000000001 0.359375s-8.75725 -0.19741666666666666 -10.741000000000001 -0.36033333333333334c-1.2228333333333334 -0.09966666666666667 -2.1734999999999998 -1.0215833333333335 -2.2932916666666667 -2.2425 -0.17825 -1.8016666666666665 -0.382375 -4.858750000000001 -0.382375 -9.376333333333335 0 -4.516625 0.204125 -7.573708333333333 0.382375 -9.377291666666666Z" stroke-width="2"></path><path id="Ellipse 100" stroke="#000" stroke-linecap="round" stroke-linejoin="round" d="M23 28.270833333333336a6.708333333333334 6.708333333333334 0 1 0 0 -13.416666666666668 6.708333333333334 6.708333333333334 0 1 0 0 13.416666666666668" stroke-width="2"></path><path id="Vector 1619" stroke="#000" stroke-linecap="round" stroke-linejoin="round" d="M38.333333333333336 16.291666666666668h-3.8333333333333335" stroke-width="2"></path><path id="Vector 1620" stroke="#000" stroke-linecap="round" stroke-linejoin="round" d="M38.333333333333336 26.833333333333336h-3.8333333333333335" stroke-width="2"></path><path id="Vector 1621" stroke="#000" stroke-linecap="round" stroke-linejoin="round" d="m26.833333333333336 21.5625 2.875 0" stroke-width="2"></path><path id="Vector 1622" stroke="#000" stroke-linecap="round" stroke-linejoin="round" d="m36.41666666666667 40.25 0 2.875" stroke-width="2"></path><path id="Vector 1623" stroke="#000" stroke-linecap="round" stroke-linejoin="round" d="m9.583333333333334 40.25 0 2.875" stroke-width="2"></path></g></svg>