<svg xmlns="http://www.w3.org/2000/svg" fill="none" viewBox="-1 -1 48 48" height="48" width="48"><g id="database-server-3--server-network-internet"><path id="Rectangle 137" stroke="#000" stroke-linecap="round" stroke-linejoin="round" d="M2.9832916666666667 17.781875c0.13608333333333333 2.2204583333333336 1.9166666666666667 3.905208333333334 4.140000000000001 3.9981666666666666C10.163125 21.90654166666667 15.226958333333334 22.041666666666668 23 22.041666666666668c7.772083333333333 0 12.836875000000001 -0.135125 15.876708333333335 -0.26162500000000005 2.223333333333333 -0.09295833333333334 4.003916666666667 -1.7777083333333334 4.140000000000001 -3.9981666666666666 0.06229166666666667 -1.026375 0.10829166666666667 -2.1926666666666668 0.10829166666666667 -3.4068750000000003 0 -1.2142083333333333 -0.046000000000000006 -2.3805 -0.10829166666666667 -3.4068750000000003 -0.13608333333333333 -2.2204583333333336 -1.9166666666666667 -3.905208333333334 -4.140000000000001 -3.9981666666666666C35.836875000000006 6.843458333333333 30.773041666666664 6.708333333333334 23 6.708333333333334c-7.772083333333333 0 -12.836875000000001 0.135125 -15.876708333333335 0.26162500000000005 -2.223333333333333 0.09295833333333334 -4.003916666666667 1.7777083333333334 -4.140000000000001 3.9981666666666666A56.34041666666667 56.34041666666667 0 0 0 2.875 14.375c0 1.2142083333333333 0.046000000000000006 2.3805 0.10829166666666667 3.4068750000000003Z" stroke-width="2"></path><path id="Vector 938" stroke="#000" stroke-linecap="round" stroke-linejoin="round" d="m36.41666666666667 14.375 -19.166666666666668 0" stroke-width="2"></path><path id="Vector 939" stroke="#000" stroke-linecap="round" stroke-linejoin="round" d="M10.541666666666668 14.375h-0.9583333333333334" stroke-width="2"></path><path id="Vector 940" stroke="#000" stroke-linecap="round" stroke-linejoin="round" d="m23 22.041666666666668 0 9.583333333333334" stroke-width="2"></path><path id="Vector 941" stroke="#000" stroke-linecap="round" stroke-linejoin="round" d="M19.174333333333333 35.458333333333336h-6.708333333333334" stroke-width="2"></path><path id="Vector 942" stroke="#000" stroke-linecap="round" stroke-linejoin="round" d="M33.54933333333334 35.458333333333336h-6.708333333333334" stroke-width="2"></path><path id="Ellipse 122" stroke="#000" stroke-linecap="round" stroke-linejoin="round" d="M19.174333333333333 35.458333333333336a3.8333333333333335 3.8333333333333335 0 1 0 7.666666666666667 0 3.8333333333333335 3.8333333333333335 0 1 0 -7.666666666666667 0" stroke-width="2"></path></g></svg>