<svg xmlns="http://www.w3.org/2000/svg" fill="none" viewBox="-1 -1 48 48" height="48" width="48"><g id="check-thick--check-form-validation-checkmark-success-add-addition-1-tick"><path id="Vector 7 (Stroke)" fill-rule="evenodd" stroke="#000" stroke-linecap="round" stroke-linejoin="round" d="M41.87533333333333 8.754375c0.9391666666666667 1.2803333333333335 0.7302500000000001 3.004375 -0.14375 4.32975 -8.179375 12.39125 -14.070250000000001 19.918958333333336 -17.329541666666668 23.814583333333335 -1.6167083333333334 1.9310416666666668 -4.424625 2.072875 -6.253125000000001 0.33925A158.11254166666666 158.11254166666666 0 0 1 4.748541666666667 22.802583333333335c-1.1595833333333334 -1.4212083333333334 -1.3991666666666667 -3.427 -0.27025 -4.873125 0.9813333333333334 -1.2573333333333334 2.1016250000000003 -2.336416666666667 3.1145833333333335 -3.19125 1.6799583333333332 -1.4183333333333334 4.1055 -1.0963333333333334 5.615833333333334 0.5021666666666668 4.660375 4.937333333333334 7.46925 8.385416666666668 7.46925 8.385416666666668s4.617249999999999 -6.746666666666667 12.025166666666667 -17.12541666666667c1.1471250000000002 -1.6071250000000001 3.19125 -2.3555833333333336 4.918166666666666 -1.3982083333333335 1.3867083333333334 0.7695416666666668 2.998625 1.940625 4.254041666666667 3.65125Z" clip-rule="evenodd" stroke-width="2"></path></g></svg>