<svg xmlns="http://www.w3.org/2000/svg" fill="none" viewBox="-1 -1 48 48" height="48" width="48"><g id="mail-search--inbox-envelope-email-message-search"><path id="Ellipse 22" stroke="#000" stroke-linecap="round" stroke-linejoin="round" d="M24.916666666666668 33.0625a8.145833333333334 8.145833333333334 0 1 0 16.291666666666668 0 8.145833333333334 8.145833333333334 0 1 0 -16.291666666666668 0" stroke-width="2"></path><path id="Vector 2310" stroke="#000" stroke-linecap="round" stroke-linejoin="round" d="m43.125 43.125 -3.8333333333333335 -3.8333333333333335" stroke-width="2"></path><path id="Rectangle 1100" stroke="#000" stroke-linecap="round" stroke-linejoin="round" d="M39.27729166666667 21.5625c0.009583333333333334 -0.7628333333333334 0.014375 -1.561125 0.014375 -2.3958333333333335 0 -5.649375 -0.23479166666666668 -9.61975 -0.46 -12.128666666666668 -0.18208333333333335 -2.0364583333333335 -1.7633333333333334 -3.5688333333333335 -3.8017083333333335 -3.723125C32.254625 3.1050000000000004 27.698708333333332 2.875 21.083333333333336 2.875c-6.615375 0 -11.171291666666667 0.23 -13.946625000000001 0.44083333333333335C5.098333333333334 3.4691666666666667 3.5170833333333333 5.0025 3.335 7.037041666666667 3.1097916666666667 9.546916666666666 2.875 13.517291666666667 2.875 19.166666666666668c0 5.649375 0.23479166666666668 9.61975 0.46 12.128666666666668 0.18208333333333335 2.0364583333333335 1.7633333333333334 3.5688333333333335 3.8017083333333335 3.723125 2.63925 0.19933333333333333 6.8885 0.41783333333333333 12.988291666666669 0.4379583333333334" stroke-width="2"></path><path id="Intersect" stroke="#000" stroke-linecap="round" stroke-linejoin="round" d="M3.1145833333333335 13.416666666666668c1.1231666666666666 0.5088750000000001 12.814833333333334 5.75 17.96875 5.75s16.846541666666667 -5.242083333333333 17.96875 -5.75" stroke-width="2"></path></g></svg>