<svg xmlns="http://www.w3.org/2000/svg" fill="none" viewBox="-1 -1 48 48" height="48" width="48"><g id="payment-recieve-7--deposit-payment-finance-atm-withdraw-dollar"><path id="Rectangle 1095" stroke="#000" stroke-linecap="round" stroke-linejoin="round" d="M3.256416666666667 38.53458333333334c0.23575000000000002 2.3910416666666667 2.1639166666666667 4.109333333333334 4.564541666666667 4.240625C10.90775 42.944833333333335 15.87191666666667 43.125 23 43.125c7.1280833333333335 0 12.09225 -0.18016666666666667 15.18 -0.34979166666666667 2.3996666666666666 -0.1312916666666667 4.327833333333333 -1.8495833333333334 4.563583333333333 -4.240625 0.20316666666666666 -2.0594583333333336 0.3814166666666667 -4.967041666666667 0.3814166666666667 -8.826250000000002 0 -3.8592083333333336 -0.17825 -6.766791666666667 -0.3814166666666667 -8.826250000000002 -0.23575000000000002 -2.3910416666666667 -2.1639166666666667 -4.109333333333334 -4.564541666666667 -4.240625C35.09225 16.471833333333333 30.128083333333333 16.291666666666668 23 16.291666666666668c-7.1280833333333335 0 -12.09225 0.18016666666666667 -15.18 0.34979166666666667 -2.3996666666666666 0.1312916666666667 -4.327833333333333 1.8495833333333334 -4.563583333333333 4.240625C3.0532500000000002 22.942500000000003 2.875 25.849125 2.875 29.708333333333336c0 3.8592083333333336 0.17825 6.766791666666667 0.3814166666666667 8.826250000000002Z" stroke-width="2"></path><path id="Vector 1565" stroke="#000" stroke-linecap="round" stroke-linejoin="round" d="m23 8.625 0 -5.75" stroke-width="2"></path><path id="Vector 1566" stroke="#000" stroke-linecap="round" stroke-linejoin="round" d="M30.666666666666668 11.5V5.75" stroke-width="2"></path><path id="Vector 1567" stroke="#000" stroke-linecap="round" stroke-linejoin="round" d="M15.333333333333334 11.5V5.75" stroke-width="2"></path><path id="Vector" stroke="#000" stroke-linecap="round" stroke-linejoin="round" d="M26.833333333333336 25.19075S25.3 23.958333333333336 23 23.958333333333336c-1.9166666666666667 0 -3.8333333333333335 1.2324166666666667 -3.8333333333333335 2.875 0 4.1074166666666665 7.666666666666667 1.6425833333333333 7.666666666666667 5.75 0 1.6425833333333333 -1.9166666666666667 2.875 -3.8333333333333335 2.875 -2.3 0 -3.8333333333333335 -1.2324166666666667 -3.8333333333333335 -1.2324166666666667" stroke-width="2"></path><path id="Vector 837" stroke="#000" stroke-linecap="round" stroke-linejoin="round" d="M23 23.958333333333336v-1.9166666666666667" stroke-width="2"></path><path id="Vector 838" stroke="#000" stroke-linecap="round" stroke-linejoin="round" d="M23 37.375v-1.9166666666666667" stroke-width="2"></path><path id="Vector 1568" stroke="#000" stroke-linecap="round" stroke-linejoin="round" d="M35.458333333333336 29.708333333333336h-0.9583333333333334" stroke-width="2"></path><path id="Vector 1569" stroke="#000" stroke-linecap="round" stroke-linejoin="round" d="M10.541666666666668 29.708333333333336h0.9583333333333334" stroke-width="2"></path></g></svg>