<svg xmlns="http://www.w3.org/2000/svg" fill="none" viewBox="-1 -1 48 48" height="48" width="48"><g id="speaker-2--speakers-music-audio-entertainment"><path id="Rectangle 1095" stroke="#000" stroke-linejoin="round" d="M6.193708333333333 38.09566666666667c0.169625 2.44375 1.9942916666666668 4.349875 4.434208333333333 4.563583333333333C13.301666666666668 42.895 17.360208333333333 43.125 23 43.125s9.699291666666667 -0.23 12.372083333333334 -0.46575c2.4399166666666665 -0.21370833333333333 4.264583333333333 -2.1198333333333337 4.434208333333333 -4.563583333333333 0.215625 -3.0925416666666665 0.44370833333333337 -8.030833333333334 0.44370833333333337 -15.095666666666668 0 -7.063875 -0.22808333333333333 -12.003125 -0.44370833333333337 -15.095666666666668 -0.169625 -2.44375 -1.9942916666666668 -4.349875 -4.434208333333333 -4.563583333333333C32.69833333333333 3.1050000000000004 28.63979166666667 2.875 23 2.875s-9.699291666666667 0.23 -12.372083333333334 0.46575c-2.4399166666666665 0.21370833333333333 -4.264583333333333 2.1198333333333337 -4.434208333333333 4.563583333333333C5.978083333333334 10.996875 5.75 15.935166666666667 5.75 23c0 7.063875 0.22808333333333333 12.003125 0.44370833333333337 15.095666666666668Z" stroke-width="2"></path><path id="Ellipse 210" stroke="#000" stroke-linejoin="round" d="M20.125 11.5a2.875 2.875 0 1 0 5.75 0 2.875 2.875 0 1 0 -5.75 0" stroke-width="2"></path><path id="Ellipse 209" stroke="#000" stroke-linejoin="round" d="M14.375 28.75a8.625 8.625 0 1 0 17.25 0 8.625 8.625 0 1 0 -17.25 0" stroke-width="2"></path><path id="Ellipse 211" stroke="#000" stroke-linejoin="round" d="M20.125 28.75a2.875 2.875 0 1 0 5.75 0 2.875 2.875 0 1 0 -5.75 0" stroke-width="2"></path></g></svg>