<svg xmlns="http://www.w3.org/2000/svg" fill="none" viewBox="-1 -1 48 48" height="48" width="48"><g id="book-1--content-books-book-close"><path id="Rectangle 1096" stroke="#000" stroke-linecap="round" stroke-linejoin="round" d="M36.271 42.642c2.44375 -0.20891666666666667 4.2904583333333335 -2.1064166666666666 4.469666666666667 -4.552083333333334C40.96875 34.9945 41.208333333333336 30.058125 41.208333333333336 23s-0.23958333333333334 -11.995458333333334 -0.4676666666666667 -15.088958333333332c-0.18016666666666667 -2.447583333333333 -2.024958333333333 -4.343166666666667 -4.469666666666667 -4.552083333333334C33.453500000000005 3.1165 29.104583333333334 2.875 23 2.875c-6.104583333333333 0 -10.454458333333335 0.24245833333333336 -13.271 0.48300000000000004 -2.44375 0.209875 -4.2895 2.1054583333333334 -4.469666666666667 4.552083333333334C5.03125 11.0055 4.791666666666667 15.941875000000001 4.791666666666667 23s0.23958333333333334 11.995458333333334 0.4676666666666667 15.088958333333332c0.18016666666666667 2.446625 2.024958333333333 4.344125000000001 4.469666666666667 4.552083333333334C12.546500000000002 42.8835 16.895416666666666 43.125 23 43.125c6.104583333333333 0 10.454458333333335 -0.24245833333333336 13.271 -0.48300000000000004Z" stroke-width="2"></path><path id="Intersect" stroke="#000" stroke-linecap="round" stroke-linejoin="round" d="M13.416666666666668 3.1069166666666668v39.78616666666667" stroke-width="2"></path><path id="Vector 1022" stroke="#000" stroke-linecap="round" stroke-linejoin="round" d="M21.083333333333336 11.5h11.5" stroke-width="2"></path><path id="Vector 1023" stroke="#000" stroke-linecap="round" stroke-linejoin="round" d="M21.083333333333336 18.208333333333336h5.75" stroke-width="2"></path></g></svg>