<svg xmlns="http://www.w3.org/2000/svg" fill="none" viewBox="-1 -1 48 48" height="48" width="48"><g id="graduation-cap--graduation-cap-education"><path id="Vector 2536" stroke="#000" stroke-linecap="round" stroke-linejoin="round" d="m4.791666666666667 17.25 0 18.208333333333336" stroke-width="2"></path><path id="Rectangle 1097" stroke="#000" stroke-linecap="round" stroke-linejoin="round" d="M2.9248333333333334 15.865208333333333c-1.3244166666666666 -0.6344166666666667 -1.3244166666666666 -2.346 0 -2.9804166666666667 1.7365000000000002 -0.8318333333333333 4.330708333333334 -2.0125 8.000166666666667 -3.5410416666666666 5.098333333333334 -2.123666666666667 8.580916666666667 -3.3829166666666666 10.450625 -4.021166666666667a5.012083333333334 5.012083333333334 0 0 1 3.2487500000000002 0c1.8687500000000001 0.6382500000000001 5.35325 1.8975 10.450625 4.021166666666667 3.6704166666666667 1.5285416666666667 6.2636666666666665 2.709208333333333 8.001125 3.5410416666666666 1.3225 0.6344166666666667 1.3225 2.346 0 2.9804166666666667 -1.7374583333333333 0.8318333333333333 -4.331666666666666 2.0125 -8.001125 3.5410416666666666 -5.098333333333334 2.123666666666667 -8.580916666666667 3.3829166666666666 -10.450625 4.021166666666667a5.012083333333334 5.012083333333334 0 0 1 -3.2487500000000002 0c-1.8687500000000001 -0.6382500000000001 -5.35325 -1.8975 -10.450625 -4.021166666666667 -3.6704166666666667 -1.5295 -6.2636666666666665 -2.709208333333333 -8.000166666666667 -3.5410416666666666Z" stroke-width="2"></path><path id="Subtract" stroke="#000" stroke-linecap="round" stroke-linejoin="round" d="M10.639416666666667 19.286458333333336A71.72741666666667 71.72741666666667 0 0 0 10.541666666666668 23.159083333333335c0 2.9650833333333333 0.152375 4.8271250000000006 0.301875 5.941666666666667 0.1312916666666667 0.9736666666666667 0.6890416666666667 1.8016666666666665 1.5592083333333333 2.256875C14.085583333333334 32.23929166666667 17.503958333333333 33.54166666666667 23 33.54166666666667c5.496041666666668 0 8.914416666666666 -1.3014166666666669 10.59725 -2.1830833333333333 0.8701666666666668 -0.4552083333333333 1.4279166666666667 -1.2832083333333333 1.5592083333333333 -2.255916666666667 0.1495 -1.1155 0.301875 -2.977541666666667 0.301875 -5.941666666666667a71.71208333333334 71.71208333333334 0 0 0 -0.09775 -3.8735833333333334" stroke-width="2"></path><path id="Ellipse 20" stroke="#000" stroke-linecap="round" stroke-linejoin="round" d="M7.666666666666667 38.333333333333336a2.875 2.875 0 1 1 -5.75 0 2.875 2.875 0 1 1 5.75 0" stroke-width="2"></path></g></svg>