<svg xmlns="http://www.w3.org/2000/svg" fill="none" viewBox="-1 -1 48 48" height="48" width="48"><g id="binoculars--binocular-binoculars-view-zoom"><path id="Ellipse 547" stroke="#000" stroke-linecap="round" stroke-linejoin="round" d="M43.125 34.5a8.625 8.625 0 1 1 -17.25 0 8.625 8.625 0 1 1 17.25 0" stroke-width="2"></path><path id="Ellipse 547_2" stroke="#000" stroke-linecap="round" stroke-linejoin="round" d="M2.875 34.5a8.625 8.625 0 1 0 17.25 0 8.625 8.625 0 1 0 -17.25 0" stroke-width="2"></path><path id="Rectangle 1682" stroke="#000" stroke-linecap="round" stroke-linejoin="round" d="M14.235083333333334 12.916416666666667c0.09104166666666667 -1.009125 0.503125 -1.9760833333333332 1.365625 -2.5079583333333333C16.885833333333334 9.618791666666668 19.24716666666667 8.625 23 8.625c3.7537916666666664 0 6.115125000000001 0.9937916666666666 7.399291666666667 1.7834583333333334 0.8634583333333334 0.5318750000000001 1.2745833333333334 1.4988333333333335 1.365625 2.5079583333333333l0.6133333333333334 6.824291666666667c0.07570833333333334 0.8500416666666667 -1.0273333333333334 1.5247083333333333 -1.8179583333333333 1.2027083333333333C29.013541666666665 20.313791666666667 26.54104166666667 19.645833333333336 23 19.645833333333336c-3.5410416666666666 0 -6.013541666666668 0.6679583333333333 -7.559333333333334 1.2975833333333335 -0.790625 0.322 -1.8936666666666666 -0.3526666666666667 -1.8179583333333333 -1.2027083333333333l0.6133333333333334 -6.824291666666667Z" stroke-width="2"></path><path id="Subtract" stroke="#000" stroke-linecap="round" stroke-linejoin="round" d="M3.2056250000000004 32.12620833333334c1.1979166666666667 -7.950333333333333 4.012541666666667 -21.735 5.626375 -26.19316666666667 0.19741666666666666 -0.5443333333333333 0.47245833333333337 -1.060875 0.9065833333333333 -1.4442083333333333C10.49375 3.8237500000000004 12.058708333333334 2.875 14.854166666666668 2.875c2.017291666666667 0 3.510375 0.4935416666666667 4.528125 1.0187083333333333 1.2122916666666665 0.6248333333333334 1.7010416666666666 1.98375 1.6905000000000001 3.348416666666667 -0.0028750000000000004 0.4350833333333334 -0.0067083333333333335 0.9295833333333333 -0.013416666666666667 1.4767916666666667M20.125 34.5c0.34883333333333333 -4.883666666666667 0.5711666666666667 -10.10275 0.7120416666666667 -14.766958333333335m4.325916666666667 0c0.14183333333333334 4.664208333333334 0.3641666666666667 9.883291666666668 0.7120416666666667 14.766958333333335m-0.9343750000000001 -25.781083333333335a495.84166666666664 495.84166666666664 0 0 1 -0.013416666666666667 -1.4758333333333333c-0.010541666666666666 -1.3646666666666667 0.4791666666666667 -2.7245416666666666 1.6914583333333333 -3.349375C27.63641666666667 3.3685416666666668 29.1295 2.875 31.145833333333336 2.875c2.7954583333333334 0 4.360416666666667 0.9477916666666667 5.115583333333333 1.6138333333333332 0.43412500000000004 0.38333333333333336 0.7091666666666667 0.899875 0.9065833333333333 1.4442083333333333 1.6138333333333332 4.457208333333333 4.4275 18.242833333333337 5.626375 26.19316666666667" stroke-width="2"></path></g></svg>