<svg xmlns="http://www.w3.org/2000/svg" fill="none" viewBox="-1 -1 48 48" height="48" width="48"><g id="division-circle--interface-math-divided-by-sign-mathematics"><path id="Ellipse 18" stroke="#000" stroke-linecap="round" stroke-linejoin="round" d="M43.125 23c0 -11.11475 -9.01025 -20.125 -20.125 -20.125S2.875 11.88525 2.875 23s9.01025 20.125 20.125 20.125 20.125 -9.01025 20.125 -20.125Z" stroke-width="2"></path><path id="Ellipse 19" stroke="#000" stroke-linecap="round" stroke-linejoin="round" d="M25.875 12.458333333333334a2.875 2.875 0 1 1 -5.75 0 2.875 2.875 0 0 1 5.75 0Z" stroke-width="2"></path><path id="Ellipse 20" stroke="#000" stroke-linecap="round" stroke-linejoin="round" d="M25.875 33.54166666666667a2.875 2.875 0 1 0 -5.75 0 2.875 2.875 0 0 0 5.75 0Z" stroke-width="2"></path><path id="Rectangle 59" stroke="#000" stroke-linecap="round" stroke-linejoin="round" d="M36.371625 23.87016666666667c-0.13225 1.1921666666666666 -1.2343333333333335 1.7777083333333334 -2.43225 1.8313750000000002C32.14441666666667 25.782041666666668 28.811333333333334 25.875 23 25.875c-5.811333333333334 0 -9.144416666666666 -0.09295833333333334 -10.939375 -0.1725 -1.1979166666666667 -0.05366666666666667 -2.3 -0.6401666666666668 -2.43225 -1.8323333333333334A7.917750000000001 7.917750000000001 0 0 1 9.583333333333334 23c0 -0.32583333333333336 0.017249999999999998 -0.6152500000000001 0.04504166666666667 -0.8701666666666668 0.13225 -1.1921666666666666 1.2343333333333335 -1.7777083333333334 2.43225 -1.8313750000000002C13.855583333333334 20.217958333333335 17.188666666666666 20.125 23 20.125c5.811333333333334 0 9.144416666666666 0.09295833333333334 10.939375 0.1725 1.1979166666666667 0.05366666666666667 2.3 0.6401666666666668 2.43225 1.8323333333333334 0.02875 0.2549166666666667 0.04504166666666667 0.5433749999999999 0.04504166666666667 0.8701666666666668 0 0.32583333333333336 -0.017249999999999998 0.6152500000000001 -0.04504166666666667 0.8701666666666668Z" stroke-width="2"></path></g></svg>