<svg xmlns="http://www.w3.org/2000/svg" fill="none" viewBox="-1 -1 48 48" height="48" width="48"><g id="fit-height"><path id="Rectangle 57" stroke="#000" stroke-linecap="round" stroke-linejoin="round" d="M36.815333333333335 3.296666666666667c2.7485 0.2175416666666667 4.897083333333334 2.0105833333333334 5.3494166666666665 4.730333333333333C42.652541666666664 10.955666666666668 43.125 15.683124999999999 43.125 23c0 7.3168750000000005 -0.47245833333333337 12.044333333333334 -0.96025 14.973 -0.4523333333333333 2.7197500000000003 -2.6009166666666665 4.51375 -5.3494166666666665 4.730333333333333 -2.7676666666666665 0.21945833333333334 -7.1338333333333335 0.4216666666666667 -13.815333333333335 0.4216666666666667s-11.047666666666668 -0.20220833333333332 -13.815333333333335 -0.4216666666666667c-2.7485 -0.2175416666666667 -4.897083333333334 -2.0105833333333334 -5.3494166666666665 -4.730333333333333C3.348416666666667 35.044333333333334 2.875 30.316875000000003 2.875 23c0 -7.3168750000000005 0.47341666666666665 -12.044333333333334 0.96025 -14.973 0.4523333333333333 -2.7197500000000003 2.6009166666666665 -4.51375 5.3494166666666665 -4.730333333333333C11.952333333333334 3.07625 16.3185 2.875 23 2.875s11.047666666666668 0.20220833333333332 13.815333333333335 0.4216666666666667Z" stroke-width="2"></path><path id="Union" stroke="#000" stroke-linecap="round" stroke-linejoin="round" d="M17.159916666666668 28.861166666666666c-1.8946250000000002 0.08625 -2.6660833333333334 1.8687500000000001 -1.3991666666666667 3.2784583333333335 0.54625 0.6085416666666666 1.2094166666666668 1.3186666666666667 2.011541666666667 2.135166666666667 1.6406666666666667 1.6722916666666667 2.894166666666667 2.6689583333333338 3.7624166666666667 3.256416666666667 0.9065833333333333 0.6133333333333334 2.023041666666667 0.6133333333333334 2.928666666666667 0 0.8682500000000001 -0.5874583333333333 2.122708333333333 -1.584125 3.7633750000000004 -3.256416666666667a66.54570833333332 66.54570833333332 0 0 0 2.0105833333333334 -2.1342083333333335c1.2669166666666667 -1.4106666666666667 0.4954583333333334 -3.1931666666666665 -1.3991666666666667 -3.279416666666667 -0.7216250000000001 -0.03258333333333334 -1.5716666666666665 -0.06133333333333334 -2.569291666666667 -0.0805 0.046000000000000006 -1.3598750000000002 0.08625 -3.253541666666667 0.08625 -5.780666666666667 0 -2.5261666666666667 -0.04025 -4.419833333333334 -0.08625 -5.7787500000000005a107.88916666666667 107.88916666666667 0 0 0 2.57025 -0.08145833333333334c1.8936666666666666 -0.08625 2.6660833333333334 -1.8687500000000001 1.3991666666666667 -3.2784583333333335a66.29270833333334 66.29270833333334 0 0 0 -2.011541666666667 -2.135166666666667c-1.6406666666666667 -1.6722916666666667 -2.894166666666667 -2.6689583333333338 -3.7633750000000004 -3.256416666666667a2.5625833333333334 2.5625833333333334 0 0 0 -2.928666666666667 0c-0.8682500000000001 0.5874583333333333 -2.122708333333333 1.584125 -3.7624166666666667 3.256416666666667a66.46041666666666 66.46041666666666 0 0 0 -2.0105833333333334 2.1342083333333335c-1.2669166666666667 1.4106666666666667 -0.4954583333333334 3.1931666666666665 1.3991666666666667 3.279416666666667 0.7235416666666667 0.03258333333333334 1.5764583333333335 0.06133333333333334 2.5798333333333336 0.0805A163.14858333333333 163.14858333333333 0 0 0 19.645833333333336 23c0 2.4293750000000003 0.044083333333333335 4.36425 0.09487500000000001 5.780666666666667 -1.003375 0.01916666666666667 -1.85725 0.04791666666666667 -2.580791666666667 0.0805Z" stroke-width="2"></path></g></svg>