<svg xmlns="http://www.w3.org/2000/svg" fill="none" viewBox="-1 -1 48 48" height="48" width="48"><g id="exit-full-screen"><path id="Vector 94 (Stroke)" fill-rule="evenodd" stroke="#000" stroke-linecap="round" stroke-linejoin="round" d="M19.999458333333333 16.977833333333336a3.2324583333333337 3.2324583333333337 0 0 1 -3.0216250000000002 3.0216250000000002c-4.015416666666667 0.27791666666666665 -8.934541666666668 0.03354166666666667 -11.64375 -0.14758333333333334 -1.219 -0.08241666666666667 -2.2415416666666665 -0.9506666666666667 -2.3757083333333333 -2.165833333333333a12.007916666666667 12.007916666666667 0 0 1 -0.071875 -1.8764166666666666c0.060375000000000005 -1.22475 1.13275 -2.0144166666666665 2.3555833333333336 -2.1112083333333334 3.3465000000000003 -0.2635416666666667 8.192791666666666 -0.2635416666666667 8.192791666666666 -0.2635416666666667s0 -4.8462916666666676 0.2635416666666667 -8.193750000000001c0.09679166666666668 -1.221875 0.8864583333333335 -2.2942500000000003 2.1112083333333334 -2.354625a12.007916666666667 12.007916666666667 0 0 1 1.8773750000000002 0.071875c1.2142083333333333 0.13416666666666668 2.0824583333333333 1.1567083333333334 2.164875 2.376666666666667 0.18208333333333335 2.70825 0.42550000000000004 7.627375 0.14758333333333334 11.64375Z" clip-rule="evenodd" stroke-width="2"></path><path id="Vector 94 (Stroke)_2" fill-rule="evenodd" stroke="#000" stroke-linecap="round" stroke-linejoin="round" d="M19.999458333333333 29.022166666666667a3.2324583333333337 3.2324583333333337 0 0 0 -3.0216250000000002 -3.0216250000000002c-4.015416666666667 -0.27791666666666665 -8.934541666666668 -0.03354166666666667 -11.64375 0.14758333333333334 -1.219 0.08241666666666667 -2.2415416666666665 0.9506666666666667 -2.3757083333333333 2.165833333333333a12.007916666666667 12.007916666666667 0 0 0 -0.071875 1.8764166666666666c0.060375000000000005 1.22475 1.13275 2.0144166666666665 2.3555833333333336 2.1112083333333334 3.3465000000000003 0.2635416666666667 8.192791666666666 0.2635416666666667 8.192791666666666 0.2635416666666667s0 4.8462916666666676 0.2635416666666667 8.193750000000001c0.09679166666666668 1.221875 0.8864583333333335 2.2942500000000003 2.1112083333333334 2.354625 0.6344166666666667 0.031625 1.2889583333333334 -0.0067083333333333335 1.8773750000000002 -0.071875 1.2142083333333333 -0.13416666666666668 2.0824583333333333 -1.1567083333333334 2.164875 -2.376666666666667 0.18208333333333335 -2.70825 0.42550000000000004 -7.627375 0.14758333333333334 -11.64375Z" clip-rule="evenodd" stroke-width="2"></path><path id="Vector 94 (Stroke)_3" fill-rule="evenodd" stroke="#000" stroke-linecap="round" stroke-linejoin="round" d="M26.000541666666667 29.022166666666667a3.2324583333333337 3.2324583333333337 0 0 1 3.0216250000000002 -3.0216250000000002c4.015416666666667 -0.27791666666666665 8.934541666666668 -0.03354166666666667 11.64375 0.14758333333333334 1.219 0.08241666666666667 2.2415416666666665 0.9506666666666667 2.3757083333333333 2.165833333333333 0.06516666666666668 0.5874583333333333 0.10350000000000001 1.242 0.071875 1.8764166666666666 -0.060375000000000005 1.22475 -1.13275 2.0144166666666665 -2.3555833333333336 2.1112083333333334 -3.3465000000000003 0.2635416666666667 -8.192791666666666 0.2635416666666667 -8.192791666666666 0.2635416666666667s0 4.8462916666666676 -0.2635416666666667 8.193750000000001c-0.09679166666666668 1.221875 -0.8864583333333335 2.2942500000000003 -2.1112083333333334 2.354625a12.010791666666666 12.010791666666666 0 0 1 -1.8773750000000002 -0.071875c-1.2142083333333333 -0.13416666666666668 -2.0824583333333333 -1.1567083333333334 -2.164875 -2.376666666666667 -0.18208333333333335 -2.70825 -0.42550000000000004 -7.627375 -0.14758333333333334 -11.64375Z" clip-rule="evenodd" stroke-width="2"></path><path id="Vector 94 (Stroke)_4" fill-rule="evenodd" stroke="#000" stroke-linecap="round" stroke-linejoin="round" d="M26.000541666666667 16.977833333333336a3.2324583333333337 3.2324583333333337 0 0 0 3.0216250000000002 3.0216250000000002c4.015416666666667 0.27791666666666665 8.934541666666668 0.03354166666666667 11.64375 -0.14758333333333334 1.219 -0.08241666666666667 2.2415416666666665 -0.9506666666666667 2.3757083333333333 -2.165833333333333 0.06516666666666668 -0.5874583333333333 0.10350000000000001 -1.242 0.071875 -1.8764166666666666 -0.060375000000000005 -1.22475 -1.13275 -2.0144166666666665 -2.3555833333333336 -2.1112083333333334 -3.3465000000000003 -0.2635416666666667 -8.192791666666666 -0.2635416666666667 -8.192791666666666 -0.2635416666666667s0 -4.8462916666666676 -0.2635416666666667 -8.193750000000001c-0.09679166666666668 -1.221875 -0.8864583333333335 -2.2942500000000003 -2.1112083333333334 -2.354625a12.007916666666667 12.007916666666667 0 0 0 -1.8773750000000002 0.071875c-1.2142083333333333 0.13416666666666668 -2.0824583333333333 1.1567083333333334 -2.164875 2.376666666666667 -0.18208333333333335 2.70825 -0.42550000000000004 7.627375 -0.14758333333333334 11.64375Z" clip-rule="evenodd" stroke-width="2"></path></g></svg>