<svg xmlns="http://www.w3.org/2000/svg" fill="none" viewBox="-1 -1 48 48" height="48" width="48"><g id="loading-circle--progress-loading-load-half-wait-waiting"><path id="Subtract" stroke="#000" stroke-linecap="round" stroke-linejoin="round" d="M20.125 40.71c0 1.1672500000000001 -1.037875 2.0700000000000003 -2.1667916666666667 1.7786666666666668C9.283375 40.25 2.875 32.3725 2.875 23 2.875 11.88525 11.88525 2.875 23 2.875c9.467375 0 17.40716666666667 6.536791666666667 19.553833333333333 15.34291666666667 0.273125 1.124125 -0.62675 2.146666666666667 -1.7834583333333334 2.146666666666667h-2.0422083333333334c-0.9238333333333333 0 -1.7029583333333334 -0.6650833333333334 -1.9712916666666667 -1.5486666666666669C34.96479166666667 12.918333333333335 29.483125 8.625 23 8.625 15.061166666666667 8.625 8.625 15.061166666666667 8.625 23c0 6.407416666666667 4.192708333333334 11.836375000000002 9.983916666666666 13.691708333333334 0.8682500000000001 0.27791666666666665 1.5160833333333334 1.0512916666666667 1.5160833333333334 1.9626666666666668v2.056583333333333Z" stroke-width="2"></path><path id="Subtract_2" stroke="#000" stroke-linecap="round" stroke-linejoin="round" d="M31.877041666666667 36.181875000000005c-0.6382500000000001 -0.6382500000000001 -1.630125 -0.7312083333333333 -2.437041666666667 -0.32583333333333336a14.279166666666667 14.279166666666667 0 0 1 -2.0498749999999997 0.8366250000000001c-0.8682500000000001 0.27791666666666665 -1.515125 1.0503333333333336 -1.515125 1.9617083333333336v2.056583333333333c0 1.1662916666666667 1.0369166666666667 2.0690416666666667 2.165833333333333 1.7777083333333334a20.00329166666667 20.00329166666667 0 0 0 5.00825 -2.0479583333333333c1.0158333333333334 -0.5874583333333333 1.1183750000000001 -1.9674583333333333 0.2884583333333333 -2.7983333333333333l-1.4605000000000001 -1.4605000000000001Z" stroke-width="2"></path><path id="Subtract_3" stroke="#000" stroke-linecap="round" stroke-linejoin="round" d="M36.624625 27.597125000000002c0.2875 -0.8529166666666668 1.0522500000000001 -1.4825416666666666 1.9511666666666667 -1.4825416666666666h2.0719166666666666c1.1758750000000002 0 2.0805416666666665 1.0522500000000001 1.7719583333333333 2.186916666666667a20.010958333333335 20.010958333333335 0 0 1 -2.1725416666666666 5.075333333333334c-0.5989583333333334 0.9928333333333335 -1.9617083333333336 1.0829166666666665 -2.7820416666666667 0.26162500000000005l-1.4470833333333335 -1.4470833333333335c-0.64975 -0.64975 -0.7340833333333334 -1.6655833333333334 -0.3037916666666667 -2.47825a14.298333333333334 14.298333333333334 0 0 0 0.9104166666666667 -2.116Z" stroke-width="2"></path></g></svg>