<svg xmlns="http://www.w3.org/2000/svg" fill="none" viewBox="-1 -1 48 48" height="48" width="48"><g id="potted-flower--nature-flower-plant-tree-pot"><path id="Vector 1" stroke="#000" stroke-linecap="round" stroke-linejoin="round" d="m23 24.916666666666668 0 7.666666666666667" stroke-width="2"></path><path id="Union" stroke="#000" stroke-linecap="round" stroke-linejoin="round" d="M28.80079166666667 7.3485000000000005a6.10075 6.10075 0 0 0 -11.601583333333334 0 6.10075 6.10075 0 0 0 -3.5860833333333333 11.03425A6.101708333333334 6.101708333333334 0 0 0 23 25.20225a6.10075 6.10075 0 0 0 9.386875 -6.8195 6.10075 6.10075 0 0 0 -3.5860833333333333 -11.03425Z" stroke-width="2"></path><path id="Ellipse 20" stroke="#000" stroke-linecap="round" stroke-linejoin="round" d="M23 11.5a3.8333333333333335 3.8333333333333335 0 1 1 0 7.666666666666667 3.8333333333333335 3.8333333333333335 0 0 1 0 -7.666666666666667Z" stroke-width="2"></path><path id="Union_2" stroke="#000" stroke-linecap="round" stroke-linejoin="round" d="M11.52875 34.361041666666665c0.10925000000000001 -1.1116666666666666 1.1595833333333334 -1.68475 2.2779583333333333 -1.7058333333333335A491.6633333333333 491.6633333333333 0 0 1 23 32.583333333333336c4.500333333333333 0 7.490333333333333 0.03929166666666667 9.193291666666667 0.071875 1.1183750000000001 0.021083333333333332 2.1687083333333335 0.5941666666666667 2.277 1.7058333333333335a6.325 6.325 0 0 1 0 1.23625c-0.10637500000000001 1.0915416666666666 -1.1202916666666667 1.6627083333333335 -2.21375 1.7039166666666667a76.17791666666666 76.17791666666666 0 0 1 -0.5539166666666666 2.4763333333333337c-0.48300000000000004 1.9895 -2.1974583333333335 3.266958333333333 -4.2435 3.309125 -1.106875 0.022041666666666668 -2.5616250000000003 0.03833333333333334 -4.459124999999999 0.03833333333333334 -1.8975 0 -3.3512916666666666 -0.01629166666666667 -4.459124999999999 -0.03833333333333334 -2.0460416666666665 -0.042166666666666665 -3.7605 -1.319625 -4.2435 -3.309125a76.17791666666666 76.17791666666666 0 0 1 -0.5529583333333333 -2.4763333333333337c-1.0944166666666666 -0.04120833333333333 -2.1083333333333334 -0.612375 -2.2156666666666665 -1.7039166666666667a6.325 6.325 0 0 1 0 -1.23625Z" stroke-width="2"></path></g></svg>