<svg xmlns="http://www.w3.org/2000/svg" fill="none" viewBox="-1 -1 48 48" height="48" width="48"><g id="microscope-observation-sciene"><path id="Vector" stroke="#000" stroke-linecap="round" stroke-linejoin="round" d="M21.083333333333336 7.666666666666667h3.8333333333333335c9.526791666666668 0 17.25 7.723208333333333 17.25 17.25v13.416666666666668M23 15.333333333333334h1.9166666666666667c5.2928749999999996 0 9.583333333333334 4.2904583333333335 9.583333333333334 9.583333333333334v13.416666666666668" stroke-width="2"></path><path id="Rectangle 136" stroke="#000" stroke-linecap="round" stroke-linejoin="round" d="M7.636958333333334 38.48283333333333c-0.6593333333333333 0.018208333333333333 -1.3033333333333335 0.2798333333333333 -1.5563333333333336 0.8893333333333334C5.903333333333333 39.8015 5.75 40.40429166666667 5.75 41.208333333333336s0.15333333333333335 1.4068333333333334 0.330625 1.8361666666666667c0.253 0.6095 0.8970000000000001 0.8720833333333334 1.5563333333333336 0.8893333333333334C9.557458333333335 43.9875 14.498625 44.083333333333336 24.916666666666668 44.083333333333336c10.418041666666667 0 15.359208333333335 -0.09583333333333334 17.279708333333332 -0.1495 0.6593333333333333 -0.018208333333333333 1.3033333333333335 -0.2798333333333333 1.5563333333333336 -0.8893333333333334 0.17729166666666668 -0.42933333333333334 0.330625 -1.032125 0.330625 -1.8361666666666667s-0.15333333333333335 -1.4068333333333334 -0.330625 -1.8361666666666667c-0.253 -0.6095 -0.8970000000000001 -0.8720833333333334 -1.5563333333333336 -0.8893333333333334C40.275875 38.42916666666667 35.33470833333334 38.333333333333336 24.916666666666668 38.333333333333336c-10.418041666666667 0 -15.359208333333335 0.09583333333333334 -17.279708333333332 0.1495Z" stroke-width="2"></path><path id="Rectangle 134" stroke="#000" stroke-linecap="round" stroke-linejoin="round" d="M11.675375 22.731666666666666c0.07858333333333334 1.1020833333333333 0.8768750000000001 1.9435 1.9770416666666668 2.043166666666667 0.8529166666666668 0.07666666666666667 2.0364583333333335 0.14183333333333334 3.5975833333333336 0.14183333333333334 1.5620833333333333 0 2.744666666666667 -0.06516666666666668 3.5975833333333336 -0.14183333333333334 1.1001666666666665 -0.09966666666666667 1.8984583333333336 -0.9420416666666667 1.9770416666666668 -2.043166666666667 0.08816666666666667 -1.2602083333333334 0.175375 -3.296666666666667 0.175375 -6.44s-0.08625 -5.1797916666666675 -0.175375 -6.44c-0.07858333333333334 -1.1020833333333333 -0.8768750000000001 -1.9435 -1.9770416666666668 -2.043166666666667C19.994666666666667 7.731833333333333 18.812083333333334 7.666666666666667 17.25 7.666666666666667s-2.744666666666667 0.06516666666666668 -3.5975833333333336 0.14183333333333334c-1.1001666666666665 0.09966666666666667 -1.8984583333333336 0.9420416666666667 -1.9770416666666668 2.043166666666667C11.587208333333333 11.111875000000001 11.5 13.148333333333335 11.5 16.291666666666668s0.08625 5.1797916666666675 0.175375 6.44Z" stroke-width="2"></path><path id="Subtract" stroke="#000" stroke-linecap="round" stroke-linejoin="round" d="M21.068 7.839166666666666a108.95004166666666 108.95004166666666 0 0 0 -0.10541666666666667 -3.8256666666666668c-0.050791666666666666 -1.0522500000000001 -0.7513333333333334 -1.9080416666666669 -1.79975 -2.011541666666667C18.65491666666667 1.952125 18.02241666666667 1.9166666666666667 17.25 1.9166666666666667c-0.7714583333333334 0 -1.4049166666666666 0.035458333333333335 -1.9118750000000002 0.08625 -1.049375 0.10254166666666667 -1.7489583333333334 0.9583333333333334 -1.8007083333333334 2.0105833333333334 -0.04120833333333333 0.8586666666666667 -0.08241666666666667 2.095875 -0.10541666666666667 3.8256666666666668" stroke-width="2"></path><path id="Vector 2679" stroke="#000" stroke-linecap="round" stroke-linejoin="round" d="M34.5 32.583333333333336H9.583333333333334" stroke-width="2"></path></g></svg>