<svg xmlns="http://www.w3.org/2000/svg" fill="none" viewBox="-1 -1 48 48" height="48" width="48"><g id="delete-keyboard"><path id="Vector 705" stroke="#000" stroke-linecap="round" stroke-linejoin="round" d="M4.879833333333333 19.11779166666667c2.994791666666667 -4.516625 6.601 -7.920625000000001 8.69975 -9.707916666666668 1.1202916666666667 -0.9535416666666667 2.5328749999999998 -1.449 4.002000000000001 -1.5084166666666667A282.58375 282.58375 0 0 1 28.75 7.666666666666667c3.2803750000000003 0 6.447666666666667 0.06899999999999999 8.930708333333335 0.14566666666666667 2.865416666666667 0.08625 5.160625 2.314375 5.27275 5.1797916666666675 0.09200000000000001 2.3699583333333334 0.1725 5.563125 0.1725 9.528708333333332s-0.0805 7.15875 -0.1725 9.529666666666667c-0.11212500000000002 2.8635 -2.4073333333333333 5.091625 -5.27275 5.178833333333333 -2.483041666666667 0.07666666666666667 -5.650333333333333 0.14566666666666667 -8.930708333333335 0.14566666666666667 -4.577958333333334 0 -8.733291666666666 -0.135125 -11.168416666666667 -0.23479166666666668 -1.4700833333333334 -0.059416666666666666 -2.8817083333333335 -0.5558333333333333 -4.001041666666667 -1.509375 -2.09875 -1.7863333333333336 -5.705916666666667 -5.190333333333334 -8.701666666666666 -9.706958333333333a6.149625 6.149625 0 0 1 0 -6.8060833333333335Z" stroke-width="2"></path><path id="Union" stroke="#000" stroke-linecap="round" stroke-linejoin="round" d="M36.07358333333334 16.773708333333335c0.575 0.7513333333333334 0.39291666666666664 1.7269166666666669 -0.24916666666666668 2.42075 -0.713 0.7685833333333334 -1.8658750000000002 1.9847083333333335 -3.6550833333333337 3.8026666666666666 1.7920833333333335 1.8208333333333333 2.9468750000000004 3.0398333333333336 3.659875 3.809375 0.6420833333333335 0.6938333333333333 0.8241666666666667 1.6694166666666668 0.25012500000000004 2.42075 -0.24150000000000002 0.31625000000000003 -0.5558333333333333 0.681375 -0.9631249999999999 1.089625 -0.40825 0.40729166666666666 -0.7743333333333334 0.7216250000000001 -1.089625 0.9631249999999999 -0.7513333333333334 0.575 -1.7269166666666669 0.39291666666666664 -2.42075 -0.25012500000000004 -0.7705000000000001 -0.713 -1.9875833333333333 -1.8687500000000001 -3.809375 -3.659875a175.705625 175.705625 0 0 1 -3.8074583333333334 3.6579583333333336c-0.6938333333333333 0.6420833333333335 -1.6684583333333336 0.8241666666666667 -2.42075 0.25012500000000004 -0.31625000000000003 -0.24054166666666668 -0.681375 -0.5558333333333333 -1.089625 -0.9631249999999999a10.963333333333333 10.963333333333333 0 0 1 -0.9631249999999999 -1.089625c-0.5740416666666667 -0.7513333333333334 -0.39291666666666664 -1.7269166666666669 0.25012500000000004 -2.42075 0.713 -0.7695416666666668 1.8677916666666667 -1.986625 3.6579583333333336 -3.8074583333333334a178.64291666666668 178.64291666666668 0 0 1 -3.65125 -3.8017083333333335c-0.6430416666666667 -0.6938333333333333 -0.825125 -1.6694166666666668 -0.2510833333333334 -2.42075 0.24150000000000002 -0.31625000000000003 0.5558333333333333 -0.681375 0.9631249999999999 -1.089625 0.40825 -0.40729166666666666 0.7743333333333334 -0.7216250000000001 1.089625 -0.9631249999999999 0.7513333333333334 -0.5740416666666667 1.7269166666666669 -0.39291666666666664 2.42075 0.25012500000000004 0.7695416666666668 0.7120416666666667 1.9847083333333335 1.8649166666666668 3.8017083333333335 3.6531666666666665a178.78666666666666 178.78666666666666 0 0 1 3.804583333333334 -3.6550833333333337c0.692875 -0.6420833333333335 1.6684583333333336 -0.8241666666666667 2.419791666666667 -0.24916666666666668 0.31625000000000003 0.24054166666666668 0.6823333333333333 0.554875 1.089625 0.9631249999999999 0.40825 0.40729166666666666 0.7225833333333334 0.773375 0.9631249999999999 1.089625Z" stroke-width="2"></path></g></svg>