<svg xmlns="http://www.w3.org/2000/svg" fill="none" viewBox="-1 -1 48 48" height="48" width="48"><g id="cheese--cook-cheese-animal-products-cooking-nutrition-dairy-food"><path id="Union" stroke="#000" stroke-linecap="round" d="M43.125 25.817500000000003c0 -6.311583333333334 -0.31625000000000003 -10.204333333333333 -0.5865 -12.372083333333334a3.1730416666666668 3.1730416666666668 0 0 0 -0.0575 -0.3239166666666667c-1.0139166666666668 -6.072958333333333 -5.422250000000001 -7.825750000000001 -6.248333333333333 -8.103666666666667a2.810791666666667 2.810791666666667 0 0 0 -0.25683333333333336 -0.07570833333333334c-3.1270416666666665 -0.7522916666666667 -26.7375 -0.03258333333333334 -31.720833333333335 7.081125a3.624416666666667 3.624416666666667 0 0 0 -0.8615416666666668 1.9942916666666668 54.81954166666667 54.81954166666667 0 0 0 -0.03833333333333334 0.3526666666666667C3.1155416666666667 16.656791666666667 2.875 20.318583333333336 2.875 25.817500000000003" stroke-width="2"></path><path id="Rectangle 722" stroke="#000" stroke-linecap="round" d="M3.389625 14.27725c0.19741666666666666 -1.756625 1.5304583333333335 -3.038875 3.290916666666667 -3.200833333333333C9.393583333333334 10.827250000000001 14.379791666666668 10.541666666666668 23 10.541666666666668c9.270916666666666 0 14.337625000000001 0.32966666666666666 16.895416666666666 0.5903333333333334 1.4068333333333334 0.14375 2.471541666666667 1.1710833333333333 2.646916666666667 2.5740833333333333C42.81066666666666 15.850833333333334 43.125 19.681291666666667 43.125 25.875c0 5.218125000000001 -0.2232916666666667 8.759166666666667 -0.45329166666666665 11.027541666666666 -0.21466666666666667 2.1112083333333334 -1.8074166666666667 3.6435833333333334 -3.9215 3.820875C35.929833333333335 40.960125 31.05 41.208333333333336 23 41.208333333333336c-8.05 0 -12.929833333333335 -0.24916666666666668 -15.750208333333333 -0.4849166666666667 -2.1150416666666665 -0.17729166666666668 -3.7068333333333334 -1.7096666666666667 -3.9215 -3.820875C3.098291666666667 34.634166666666665 2.875 31.093125 2.875 25.875c0 -5.678125 0.2635416666666667 -9.370583333333334 0.514625 -11.597750000000001Z" stroke-width="2"></path><path id="Intersect" stroke="#000" stroke-linecap="round" d="M17.25 19.26729166666667a3.8333333333333335 3.8333333333333335 0 1 0 7.666666666666667 0 3.8333333333333335 3.8333333333333335 0 0 0 -7.666666666666667 0Z" stroke-width="2"></path><path id="Intersect_2" stroke="#000" stroke-linecap="round" d="M33.54166666666667 34.600625a3.8333333333333335 3.8333333333333335 0 1 1 0 -7.666666666666667 3.8333333333333335 3.8333333333333335 0 0 1 0 7.666666666666667Z" stroke-width="2"></path><path id="Intersect_3" stroke="#000" stroke-linecap="round" d="M3.2295833333333337 35.93654166666667A5.75 5.75 0 1 0 2.875 25.785875" stroke-width="2"></path></g></svg>