<svg xmlns="http://www.w3.org/2000/svg" fill="none" viewBox="-1 -1 48 48" height="48" width="48"><g id="discount-percent-cutout--store-shop-shops-stores-discount-coupon"><path id="Rectangle 1097" stroke="#000" stroke-linecap="round" stroke-linejoin="round" d="M31.625 3.04175c-1.81125 -0.071875 -3.8831666666666664 -0.1265 -6.229166666666667 -0.15141666666666667m-5.75 0c-2.3469583333333333 0.024916666666666667 -4.417916666666667 0.07954166666666668 -6.229166666666667 0.15141666666666667m-5.75 0.330625 -0.23 0.01916666666666667c-2.4495 0.198375 -4.325916666666667 2.0747916666666666 -4.524291666666667 4.523333333333333l-0.01916666666666667 0.23M37.375 3.3733333333333335l0.23095833333333332 0.01916666666666667c2.4495 0.198375 4.324958333333333 2.0747916666666666 4.524291666666667 4.523333333333333l0.01916666666666667 0.23M37.375 42.626666666666665l0.23 -0.018208333333333333c2.4495 -0.19933333333333333 4.324958333333333 -2.0747916666666666 4.524291666666667 -4.523333333333333l0.01916666666666667 -0.23095833333333332M25.395833333333336 43.10966666666667a218.52875 218.52875 0 0 0 6.229166666666667 -0.15141666666666667m-18.208333333333336 0c1.81125 0.07091666666666667 3.8822083333333337 0.1265 6.229166666666667 0.15141666666666667M7.666666666666667 42.626666666666665l-0.23 -0.018208333333333333c-2.4495 -0.19933333333333333 -4.325916666666667 -2.0747916666666666 -4.524291666666667 -4.523333333333333l-0.01916666666666667 -0.23095833333333332m-0.330625 -23.958333333333336c-0.071875 1.81125 -0.1265 3.8822083333333337 -0.15141666666666667 6.229166666666667m0 5.75c0.024916666666666667 2.346 0.07954166666666668 4.417916666666667 0.15141666666666667 6.229166666666667M42.630500000000005 20.125c-0.024916666666666667 -2.3469583333333333 -0.0805 -4.417916666666667 -0.15141666666666667 -6.229166666666667m0 18.208333333333336c0.07091666666666667 -1.81125 0.1265 -3.8831666666666664 0.15141666666666667 -6.229166666666667" stroke-width="2"></path><path id="%" stroke="#000" stroke-linecap="round" stroke-linejoin="round" d="M32.47025 33.35766666666667c0.7139583333333334 -0.7618750000000001 1.071416666666667 -1.8237083333333335 1.071416666666667 -3.1835833333333334 0 -1.3416666666666666 -0.3574583333333333 -2.3948750000000003 -1.071416666666667 -3.15675C31.75629166666667 26.256416666666667 30.835333333333338 25.875 29.708333333333336 25.875c-1.1423333333333334 0 -2.0719166666666666 0.3814166666666667 -2.7858750000000003 1.1423333333333334 -0.698625 0.7618750000000001 -1.0474583333333334 1.814125 -1.0474583333333334 3.15675 0 1.3608333333333333 0.34883333333333333 2.4217083333333336 1.0474583333333334 3.1835833333333334C27.63641666666667 34.11858333333333 28.566000000000003 34.5 29.708333333333336 34.5c1.127 0 2.0479583333333333 -0.3814166666666667 2.761916666666667 -1.1423333333333334Z" stroke-width="2"></path><path id="%_2" stroke="#000" stroke-linecap="round" stroke-linejoin="round" d="M19.053583333333336 18.982666666666667c0.7139583333333334 -0.7618750000000001 1.071416666666667 -1.8237083333333335 1.071416666666667 -3.1835833333333334 0 -1.3416666666666666 -0.3574583333333333 -2.3948750000000003 -1.071416666666667 -3.15675C18.339625 11.881416666666667 17.418666666666667 11.5 16.291666666666668 11.5c-1.1432916666666668 0 -2.0719166666666666 0.3814166666666667 -2.7858750000000003 1.1423333333333334 -0.698625 0.7618750000000001 -1.0474583333333334 1.814125 -1.0474583333333334 3.15675 0 1.3608333333333333 0.34883333333333333 2.4217083333333336 1.0474583333333334 3.1835833333333334C14.21975 19.743583333333333 15.148375000000001 20.125 16.291666666666668 20.125c1.127 0 2.0479583333333333 -0.3814166666666667 2.761916666666667 -1.1423333333333334Z" stroke-width="2"></path><path id="Vector 1579" stroke="#000" stroke-linecap="round" stroke-linejoin="round" d="M32.583333333333336 13.416666666666668 13.416666666666668 32.583333333333336" stroke-width="2"></path></g></svg>