<svg xmlns="http://www.w3.org/2000/svg" fill="none" viewBox="-1 -1 48 48" height="48" width="48"><g id="select-all"><path id="Rectangle 1096" stroke="#000" stroke-linecap="round" stroke-linejoin="round" d="M25.875 2.8903333333333334c2.1418749999999998 0.023000000000000003 4.054708333333333 0.07091666666666667 5.75 0.13416666666666668" stroke-width="2"></path><path id="Rectangle 1111" stroke="#000" stroke-linecap="round" stroke-linejoin="round" d="M14.375 3.0235416666666666c1.6943333333333335 -0.06229166666666667 3.6081250000000002 -0.11020833333333334 5.75 -0.13416666666666668" stroke-width="2"></path><path id="Rectangle 1110" stroke="#000" stroke-linecap="round" stroke-linejoin="round" d="m8.625 3.335958333333333 -0.7120416666666667 0.05558333333333334c-2.448541666666667 0.19933333333333333 -4.3220833333333335 2.072875 -4.521416666666667 4.521416666666667 -0.01916666666666667 0.227125 -0.037375 0.46479166666666666 -0.05558333333333334 0.7120416666666667" stroke-width="2"></path><path id="Rectangle 1109" stroke="#000" stroke-linecap="round" stroke-linejoin="round" d="M3.0235416666666666 14.375a220.739625 220.739625 0 0 0 -0.13416666666666668 5.75" stroke-width="2"></path><path id="Rectangle 1108" stroke="#000" stroke-linecap="round" stroke-linejoin="round" d="M3.0235416666666666 31.625a220.739625 220.739625 0 0 1 -0.13416666666666668 -5.75" stroke-width="2"></path><path id="Rectangle 1107" stroke="#000" stroke-linecap="round" stroke-linejoin="round" d="m8.625 42.66404166666667 -0.7120416666666667 -0.05558333333333334c-2.448541666666667 -0.19933333333333333 -4.3220833333333335 -2.072875 -4.521416666666667 -4.521416666666667A67.39958333333334 67.39958333333334 0 0 1 3.335958333333333 37.375" stroke-width="2"></path><path id="Rectangle 1106" stroke="#000" stroke-linecap="round" stroke-linejoin="round" d="M20.125 43.10966666666667a220.87187500000002 220.87187500000002 0 0 1 -5.75 -0.13320833333333335" stroke-width="2"></path><path id="Rectangle 1105" stroke="#000" stroke-linecap="round" stroke-linejoin="round" d="M31.625 42.97645833333333c-1.6943333333333335 0.06229166666666667 -3.6081250000000002 0.11020833333333334 -5.75 0.13416666666666668" stroke-width="2"></path><path id="Rectangle 1104" stroke="#000" stroke-linecap="round" stroke-linejoin="round" d="m42.66404166666667 37.375 -0.05558333333333334 0.7120416666666667c-0.19933333333333333 2.448541666666667 -2.072875 4.3220833333333335 -4.521416666666667 4.521416666666667 -0.22808333333333333 0.01916666666666667 -0.46479166666666666 0.037375 -0.7120416666666667 0.05558333333333334" stroke-width="2"></path><path id="Rectangle 1103" stroke="#000" stroke-linecap="round" stroke-linejoin="round" d="M43.10966666666667 25.875a220.84791666666666 220.84791666666666 0 0 1 -0.13416666666666668 5.75" stroke-width="2"></path><path id="Rectangle 1102" stroke="#000" stroke-linecap="round" stroke-linejoin="round" d="M42.97645833333333 14.375c0.06229166666666667 1.6943333333333335 0.11020833333333334 3.6081250000000002 0.13320833333333335 5.75" stroke-width="2"></path><path id="Rectangle 1101" stroke="#000" stroke-linecap="round" stroke-linejoin="round" d="m37.375 3.335958333333333 0.7110833333333334 0.05558333333333334c2.4495 0.19933333333333333 4.323041666666667 2.072875 4.522375 4.521416666666667l0.05558333333333334 0.7120416666666667" stroke-width="2"></path><path id="Rectangle 1100" stroke="#000" stroke-linecap="round" stroke-linejoin="round" d="M33.31550000000001 15.683124999999999a3.197 3.197 0 0 0 -2.998625 -2.9995833333333333C28.683875 12.5695 26.27941666666667 12.458333333333334 23 12.458333333333334c-3.279416666666667 0 -5.6838750000000005 0.10925000000000001 -7.3168750000000005 0.22616666666666665a3.197 3.197 0 0 0 -2.9995833333333333 2.998625C12.5695 17.316125 12.458333333333334 19.720583333333334 12.458333333333334 23c0 3.279416666666667 0.10925000000000001 5.6838750000000005 0.22616666666666665 7.3168750000000005a3.197 3.197 0 0 0 2.998625 2.9995833333333333c1.633 0.115 4.037458333333333 0.22520833333333332 7.3168750000000005 0.22520833333333332 3.279416666666667 0 5.6838750000000005 -0.10925000000000001 7.3168750000000005 -0.22616666666666665a3.197 3.197 0 0 0 2.9995833333333333 -2.998625c0.115 -1.633 0.22520833333333332 -4.037458333333333 0.22520833333333332 -7.3168750000000005 0 -3.279416666666667 -0.10925000000000001 -5.6838750000000005 -0.22616666666666665 -7.3168750000000005Z" stroke-width="2"></path></g></svg>