<svg xmlns="http://www.w3.org/2000/svg" fill="none" viewBox="-1 -1 48 48" height="48" width="48"><g id="cyborg-2--artificial-robotics-intelligence-machine-technology-android"><path id="Rectangle 1095" stroke="#000" stroke-linecap="round" stroke-linejoin="round" d="M39.929916666666664 38.45695833333333c-0.20220833333333332 2.4284166666666667 -2.1169583333333333 4.2147499999999996 -4.5492083333333335 4.357541666666666C32.70791666666667 42.970708333333334 28.6465 43.125 23 43.125s-9.707916666666668 -0.15333333333333335 -12.380708333333335 -0.3105c-2.43225 -0.14375 -4.3469999999999995 -1.9300833333333332 -4.5492083333333335 -4.357541666666666C5.8995 36.40325 5.75 33.519625 5.75 29.708333333333336c0 -3.8112916666666665 0.1495 -6.693958333333334 0.3200833333333334 -8.748625 0.20220833333333332 -2.4274583333333335 2.1169583333333333 -4.2147499999999996 4.5492083333333335 -4.357541666666666C13.292083333333332 16.445958333333337 17.3535 16.291666666666668 23 16.291666666666668s9.707916666666668 0.15333333333333335 12.380708333333335 0.3105c2.43225 0.14375 4.3469999999999995 1.929125 4.5492083333333335 4.357541666666666 0.17058333333333334 2.054666666666667 0.3200833333333334 4.937333333333334 0.3200833333333334 8.748625 0 3.8112916666666665 -0.1495 6.694916666666667 -0.3200833333333334 8.748625Z" stroke-width="2"></path><path id="Ellipse 23" stroke="#000" stroke-linecap="round" stroke-linejoin="round" d="M26.833333333333336 6.708333333333334a3.8333333333333335 3.8333333333333335 0 1 1 -7.666666666666667 0 3.8333333333333335 3.8333333333333335 0 0 1 7.666666666666667 0Z" stroke-width="2"></path><path id="Vector 857" stroke="#000" stroke-linecap="round" stroke-linejoin="round" d="M23 10.541666666666668v5.75" stroke-width="2"></path><path id="Vector 839" stroke="#000" stroke-linecap="round" stroke-linejoin="round" d="M16.291666666666668 24.916666666666668v0.9583333333333334" stroke-width="2"></path><path id="Vector 840" stroke="#000" stroke-linecap="round" stroke-linejoin="round" d="M29.708333333333336 24.916666666666668v0.9583333333333334" stroke-width="2"></path><path id="Rectangle 1096" stroke="#000" stroke-linecap="round" stroke-linejoin="round" d="M28.75 34.5s-1.8074166666666667 1.9166666666666667 -5.75 1.9166666666666667 -5.75 -1.9166666666666667 -5.75 -1.9166666666666667" stroke-width="2"></path></g></svg>