<svg xmlns="http://www.w3.org/2000/svg" fill="none" viewBox="-1 -1 48 48" height="48" width="48"><g id="sunset--nature-sun-set-water-afternoon"><path id="Ellipse 18" stroke="#000" stroke-linecap="round" stroke-linejoin="round" d="M34.857458333333334 26.833333333333336A12.44875 12.44875 0 0 0 35.458333333333336 23c0 -6.880833333333333 -5.577500000000001 -12.458333333333334 -12.458333333333334 -12.458333333333334s-12.458333333333334 5.577500000000001 -12.458333333333334 12.458333333333334c0 1.3378333333333332 0.21083333333333334 2.6258333333333335 0.600875 3.8333333333333335" stroke-width="2"></path><path id="Vector 1080" stroke="#000" stroke-linecap="round" stroke-linejoin="round" d="m23 2.875 0 2.875" stroke-width="2"></path><path id="Vector 1082" stroke="#000" stroke-linecap="round" stroke-linejoin="round" d="M43.125 23h-2.875" stroke-width="2"></path><path id="Vector 1083" stroke="#000" stroke-linecap="round" stroke-linejoin="round" d="m5.75 23 -2.875 0" stroke-width="2"></path><path id="Vector 1085" stroke="#000" stroke-linecap="round" stroke-linejoin="round" d="M10.802333333333333 10.803291666666667 8.769708333333334 8.76875" stroke-width="2"></path><path id="Vector 1087" stroke="#000" stroke-linecap="round" stroke-linejoin="round" d="m35.19766666666667 10.803291666666667 2.032625 -2.0335833333333335" stroke-width="2"></path><path id="Vector" stroke="#000" stroke-linecap="round" stroke-linejoin="round" d="M2.875 43.125c1.81125 0 3.6225 -0.5328333333333334 5.194166666666667 -1.6004166666666666a2.738916666666667 2.738916666666667 0 0 1 3.0283333333333338 0A9.241208333333335 9.241208333333335 0 0 0 16.291666666666668 43.125c1.81125 0 3.6225 -0.5328333333333334 5.194166666666667 -1.6004166666666666a2.738916666666667 2.738916666666667 0 0 1 3.0283333333333338 0A9.241208333333335 9.241208333333335 0 0 0 29.708333333333336 43.125c1.81125 0 3.6225 -0.5328333333333334 5.194166666666667 -1.6004166666666666a2.738916666666667 2.738916666666667 0 0 1 3.0283333333333338 0A9.241208333333335 9.241208333333335 0 0 0 43.125 43.125" stroke-width="2"></path><path id="Vector_2" stroke="#000" stroke-linecap="round" stroke-linejoin="round" d="M2.875 35.458333333333336c1.81125 0 3.6225 -0.5328333333333334 5.194166666666667 -1.6004166666666666a2.738916666666667 2.738916666666667 0 0 1 3.0283333333333338 0A9.241208333333335 9.241208333333335 0 0 0 16.291666666666668 35.458333333333336c1.81125 0 3.6225 -0.5328333333333334 5.194166666666667 -1.6004166666666666a2.738916666666667 2.738916666666667 0 0 1 3.0283333333333338 0A9.241208333333335 9.241208333333335 0 0 0 29.708333333333336 35.458333333333336c1.81125 0 3.6225 -0.5328333333333334 5.194166666666667 -1.6004166666666666a2.738916666666667 2.738916666666667 0 0 1 3.0283333333333338 0A9.241208333333335 9.241208333333335 0 0 0 43.125 35.458333333333336" stroke-width="2"></path></g></svg>