<svg xmlns="http://www.w3.org/2000/svg" fill="none" viewBox="-1 -1 48 48" height="48" width="48"><g id="paint-palette--color-colors-design-paint-painting-palette"><path id="Subtract" stroke="#000" stroke-linecap="round" stroke-linejoin="round" d="M36.709916666666665 27.34029166666667c3.8802916666666674 -0.0009583333333333334 6.770625000000001 -3.1931666666666665 6.210000000000001 -7.03225C41.52458333333333 10.767833333333334 33.20816666666667 2.875 23.004791666666666 2.875 11.886208333333334 2.875 2.875 11.88525 2.875 23s9.012166666666667 20.125 20.129791666666666 20.125c3.0120416666666667 0 5.251666666666667 -0.6171666666666668 5.688666666666667 -2.406375 0.4379583333333334 -1.790166666666667 -0.15812500000000002 -2.27125 -2.187875 -7.218166666666667 -1.037875 -2.5300000000000002 0.09008333333333333 -4.858750000000001 1.750875 -5.687708333333333 1.5774166666666667 -0.7887083333333333 5.049458333333334 -0.47150000000000003 8.453458333333334 -0.47245833333333337Z" stroke-width="2"></path><path id="Ellipse 166" stroke="#000" stroke-linecap="round" stroke-linejoin="round" d="M22.041666666666668 13.416666666666668a4.791666666666667 4.791666666666667 0 1 0 9.583333333333334 0 4.791666666666667 4.791666666666667 0 1 0 -9.583333333333334 0" stroke-width="2"></path><path id="Ellipse 167" stroke="#000" stroke-linecap="round" stroke-linejoin="round" d="M9.583333333333334 20.604166666666668a4.3125 4.3125 0 1 0 8.625 0 4.3125 4.3125 0 1 0 -8.625 0" stroke-width="2"></path><path id="Ellipse 168" stroke="#000" stroke-linecap="round" stroke-linejoin="round" d="M14.375 33.0625a3.354166666666667 3.354166666666667 0 1 0 6.708333333333334 0 3.354166666666667 3.354166666666667 0 1 0 -6.708333333333334 0" stroke-width="2"></path></g></svg>