<svg xmlns="http://www.w3.org/2000/svg" fill="none" viewBox="-1 -1 48 48" height="48" width="48"><g id="ear-speciality--hearing-health-medical-ear-speciality"><path id="Vector 299" stroke="#000" stroke-linecap="round" stroke-linejoin="round" d="M7.666666666666667 17.25c0 -7.666666666666667 5.75 -14.375 15.333333333333334 -14.375s15.333333333333334 6.708333333333334 15.333333333333334 14.375c0 8.198541666666667 -5.2171666666666665 12.3395 -7.536333333333333 13.775083333333335 -0.644 0.39866666666666667 -1.0800416666666668 1.0905833333333332 -1.124125 1.8467083333333334C29.275166666666667 39.70758333333333 25.553958333333334 43.125 20.125 43.125c-4.460083333333333 0 -6.80225 -2.3297083333333335 -7.870791666666666 -6.708333333333334" stroke-width="2"></path><path id="Vector 300" stroke="#000" stroke-linecap="round" stroke-linejoin="round" d="M14.375 19.166666666666668c0 -4.380541666666667 3.354166666666667 -8.625 8.625 -8.625s7.666666666666667 3.8333333333333335 7.666666666666667 7.666666666666667c0 4.257874999999999 -2.872125 6.565541666666667 -4.556875 7.553583333333333 -0.6919166666666666 0.4063333333333333 -1.17875 1.1279583333333334 -1.2458333333333333 1.9272083333333336C24.509375 31.95275 22.43075 33.54166666666667 20.125 33.54166666666667c-2.5328749999999998 0 -4.3125 -1.4375 -4.791666666666667 -4.3125" stroke-width="2"></path></g></svg>