<svg xmlns="http://www.w3.org/2000/svg" fill="none" viewBox="-1 -1 48 48" height="48" width="48"><g id="safari"><path id="Ellipse 18" stroke="#000" stroke-linecap="round" stroke-linejoin="round" d="M23 2.875c11.11475 0 20.125 9.01025 20.125 20.125s-9.01025 20.125 -20.125 20.125S2.875 34.11475 2.875 23 11.88525 2.875 23 2.875Z" stroke-width="2"></path><path id="Ellipse 41" stroke="#000" stroke-linecap="round" stroke-linejoin="round" d="M27.791666666666668 27.791666666666668c-1.1020833333333333 1.1020833333333333 -7.7625 3.354166666666667 -11.934125 4.689125a1.8524583333333335 1.8524583333333335 0 0 1 -2.34025 -2.3383333333333334C14.849375 25.971791666666668 17.097625 19.318083333333334 18.208333333333336 18.208333333333336c1.1107083333333334 -1.1107083333333334 7.764416666666667 -3.358 11.933166666666667 -4.691041666666666a1.8524583333333335 1.8524583333333335 0 0 1 2.3383333333333334 2.34025C31.145833333333336 20.030125 28.89375 26.690541666666668 27.791666666666668 27.791666666666668Z" stroke-width="2"></path><path id="Vector 1500" stroke="#000" stroke-linecap="round" stroke-linejoin="round" d="m23 6.708333333333334 0 0.9583333333333334" stroke-width="2"></path><path id="Vector 1510" stroke="#000" stroke-linecap="round" stroke-linejoin="round" d="m11.480833333333335 11.480833333333335 0.6775416666666667 0.6775416666666667" stroke-width="2"></path><path id="Vector 1508" stroke="#000" stroke-linecap="round" stroke-linejoin="round" d="m6.708333333333334 23 0.9583333333333334 0" stroke-width="2"></path><path id="Vector 1507" stroke="#000" stroke-linecap="round" stroke-linejoin="round" d="m23 39.29166666666667 0 -0.9583333333333334" stroke-width="2"></path><path id="Vector 1511" stroke="#000" stroke-linecap="round" stroke-linejoin="round" d="m34.51916666666667 34.51916666666667 -0.6775416666666667 -0.6775416666666667" stroke-width="2"></path><path id="Vector 1509" stroke="#000" stroke-linecap="round" stroke-linejoin="round" d="M39.29166666666667 23h-0.9583333333333334" stroke-width="2"></path><path id="Vector 1506" stroke="#000" stroke-linecap="round" stroke-linejoin="round" d="m18.208333333333336 18.208333333333336 9.583333333333334 9.583333333333334" stroke-width="2"></path></g></svg>