<svg xmlns="http://www.w3.org/2000/svg" fill="none" viewBox="-1 -1 48 48" height="48" width="48"><g id="file-report"><path id="Subtract" stroke="#000" stroke-linecap="round" stroke-linejoin="round" d="M28.144333333333332 2.9516666666666667c0.8596250000000001 0.26833333333333337 3.619625 1.36275 7.606291666666667 5.250708333333334 3.756666666666667 3.6637083333333336 4.970875 6.265583333333334 5.327375 7.254583333333334C41.157541666666674 17.604583333333334 41.208333333333336 20.105833333333333 41.208333333333336 23c0 7.728958333333333 -0.359375 12.653833333333335 -0.687125 15.538416666666667 -0.23958333333333334 2.11025 -1.8237083333333335 3.687666666666667 -3.9320416666666667 3.933958333333334 -2.6977083333333334 0.3152916666666667 -7.104125000000001 0.6526250000000001 -13.589166666666667 0.6526250000000001 -6.4850416666666675 0 -10.891458333333334 -0.3373333333333333 -13.589166666666667 -0.6516666666666667 -2.1083333333333334 -0.24725000000000003 -3.6924583333333336 -1.8246666666666667 -3.9320416666666667 -3.9349166666666666C5.151041666666667 35.65383333333334 4.791666666666667 30.728 4.791666666666667 23c0 -7.728000000000001 0.359375 -12.653833333333335 0.687125 -15.538416666666667 0.23958333333333334 -2.11025 1.8237083333333335 -3.687666666666667 3.9320416666666667 -3.933958333333334C12.108541666666667 3.213291666666667 16.514958333333336 2.875 23 2.875c1.8879166666666667 0 3.5995 0.02875 5.144333333333334 0.07666666666666667Z" stroke-width="2"></path><path id="Vector 829" stroke="#000" stroke-linecap="round" stroke-linejoin="round" d="M12.458333333333334 35.458333333333336h21.083333333333336" stroke-width="2"></path><path id="Vector 830" stroke="#000" stroke-linecap="round" stroke-linejoin="round" d="M12.458333333333334 28.75h21.083333333333336" stroke-width="2"></path><path id="Vector 79" stroke="#000" stroke-linecap="round" stroke-linejoin="round" d="M12.458333333333334 21.915166666666668c2.4648333333333334 -3.7662500000000003 4.520458333333333 -5.420333333333334 5.650333333333333 -6.114166666666667 0.5337916666666668 -0.3287083333333334 1.17875 -0.11404166666666667 1.4566666666666668 0.44850000000000007 0.635375 1.2889583333333334 1.23625 3.0599583333333333 1.6646250000000002 4.465833333333333 0.253 0.8241666666666667 1.4566666666666668 1.0014583333333333 1.986625 0.3210416666666667C25.349833333333336 18.299375 28.270833333333336 15.8125 28.270833333333336 15.8125" stroke-width="2"></path><path id="Vector" stroke="#000" stroke-linecap="round" stroke-linejoin="round" d="M32.168375000000005 17.55666666666667c0.4216666666666667 -2.2271666666666667 0.4379583333333334 -4.181208333333334 0.4025 -5.216208333333333a0.8510000000000001 0.8510000000000001 0 0 0 -0.8280000000000001 -0.8289583333333334 24.393416666666667 24.393416666666667 0 0 0 -5.2171666666666665 0.4025c-0.7225833333333334 0.13704166666666667 -0.9621666666666667 1.0177500000000002 -0.44083333333333335 1.538125l4.546333333333333 4.547291666666667c0.520375 0.520375 1.4010833333333335 0.28079166666666666 1.5371666666666668 -0.4417916666666667Z" stroke-width="2"></path></g></svg>