<svg xmlns="http://www.w3.org/2000/svg" fill="none" viewBox="-1 -1 48 48" height="48" width="48"><g id="virus-antivirus--health-medical-covid19-flu-influenza-virus-antivirus"><path id="Ellipse 18" stroke="#000" stroke-linecap="round" stroke-linejoin="round" d="M13.776041666666668 23a9.223958333333334 9.223958333333334 0 1 0 18.447916666666668 0 9.223958333333334 9.223958333333334 0 1 0 -18.447916666666668 0" stroke-width="2"></path><path id="Vector 994" stroke="#000" stroke-linecap="round" d="m23 9.583333333333334 0 4.192708333333334" stroke-width="2"></path><path id="Vector 995" stroke="#000" stroke-linecap="round" d="m23 36.41666666666667 0 -4.192708333333334" stroke-width="2"></path><path id="Vector 994_2" stroke="#000" stroke-linecap="round" d="m32.4875 13.512500000000001 -2.964125 2.9650833333333333" stroke-width="2"></path><path id="Vector 995_2" stroke="#000" stroke-linecap="round" d="m13.512500000000001 32.4875 2.964125 -2.9650833333333333" stroke-width="2"></path><path id="Vector 994_3" stroke="#000" stroke-linecap="round" d="M36.41666666666667 23h-4.192708333333334" stroke-width="2"></path><path id="Vector 995_3" stroke="#000" stroke-linecap="round" d="m9.583333333333334 23 4.192708333333334 0" stroke-width="2"></path><path id="Vector 994_4" stroke="#000" stroke-linecap="round" d="m32.4875 32.4875 -2.964125 -2.9650833333333333" stroke-width="2"></path><path id="Vector 995_4" stroke="#000" stroke-linecap="round" d="m13.512500000000001 13.512500000000001 2.964125 2.9650833333333333" stroke-width="2"></path><path id="Ellipse 18_2" stroke="#000" stroke-linecap="round" stroke-linejoin="round" d="M23 2.875C11.88525 2.875 2.875 11.88525 2.875 23s9.01025 20.125 20.125 20.125 20.125 -9.01025 20.125 -20.125S34.11475 2.875 23 2.875Z" stroke-width="2"></path><path id="Vector 1468" stroke="#000" stroke-linecap="round" stroke-linejoin="round" d="m9.104166666666668 9.104166666666668 27.791666666666668 27.791666666666668" stroke-width="2"></path></g></svg>