<svg xmlns="http://www.w3.org/2000/svg" fill="none" viewBox="-1 -1 48 48" height="48" width="48"><g id="magnet--design-magnet-snap-supplies-to-tool"><path id="Rectangle 650 (Stroke)" fill-rule="evenodd" stroke="#000" stroke-linecap="round" stroke-linejoin="round" d="M24.993333333333332 3.9770833333333337c-0.704375 -0.7206666666666667 -1.7690833333333336 -0.8931666666666668 -2.699625 -0.5050416666666667 -2.9995833333333333 1.2525416666666667 -5.858291666666667 2.843375 -8.540666666666668 4.664208333333334C2.9133333333333336 15.489541666666668 -1.5965833333333332 27.445708333333332 8.562708333333335 37.69795833333334c9.829625 9.920666666666667 22.3675 5.079166666666667 29.305833333333332 -5.190333333333334 1.8265833333333332 -2.704416666666667 3.4480833333333334 -5.6397916666666665 4.694875000000001 -8.693999999999999 0.3670416666666667 -0.9008333333333333 0.20891666666666667 -1.9262499999999998 -0.4877916666666667 -2.60475 -1.3014166666666669 -1.2688333333333335 -3.7787083333333333 -3.2276666666666665 -7.232541666666667 -3.9617500000000003 -1.0627916666666668 -0.22616666666666665 -2.1064166666666666 0.3344583333333333 -2.672791666666667 1.2611666666666668 -1.0695000000000001 1.750875 -2.836666666666667 4.6115 -3.9914583333333336 6.320208333333333 -3.389625 5.016875000000001 -8.062458333333334 7.152041666666667 -11.006458333333333 4.181208333333334 -2.9449583333333336 -2.971791666666667 -1.0742916666666666 -7.696375000000001 4.067166666666667 -11.184708333333333 1.7633333333333334 -1.196 4.780166666666667 -3.0015 6.5205 -4.028833333333333 0.8385416666666667 -0.4954583333333334 1.40875 -1.3819166666666667 1.2812916666666667 -2.347916666666667 -0.4331666666666667 -3.299541666666667 -2.6402083333333333 -6.029833333333333 -4.048 -7.470208333333334Z" clip-rule="evenodd" stroke-width="2"></path><path id="Intersect" stroke="#000" stroke-linecap="round" stroke-linejoin="round" d="M39.696083333333334 29.601000000000003c-2.5875000000000004 -1.1595833333333334 -6.839625 -3.343625 -10.390250000000002 -6.494625m-6.246416666666667 -6.461083333333334c-3.0015 -3.6838333333333333 -5.059041666666666 -7.992500000000001 -6.117041666666667 -10.512916666666667" stroke-width="2"></path></g></svg>