<svg xmlns="http://www.w3.org/2000/svg" fill="none" viewBox="-1 -1 48 48" height="48" width="48"><g id="wheat--cook-plant-bread-gluten-grain-cooking-nutrition-wheat"><path id="Vector 1419" stroke="#000" stroke-linecap="round" stroke-linejoin="round" d="M27.791666666666668 14.375C9.583333333333334 25.875 3.8333333333333335 43.125 3.8333333333333335 43.125" stroke-width="2"></path><path id="Rectangle 805" stroke="#000" stroke-linecap="round" stroke-linejoin="round" d="M33.079750000000004 9.9245c1.6071250000000001 -2.7810833333333336 5.0945 -4.140958333333333 8.160208333333335 -3.1816666666666666l1.6349166666666668 0.5127083333333334a0.9583333333333334 0.9583333333333334 0 0 1 0.5433749999999999 1.3934166666666667l-0.85675 1.4835c-1.6061666666666667 2.7810833333333336 -5.0945 4.140958333333333 -8.15925 3.1816666666666666L31.625 12.443958333333333l1.45475 -2.5194583333333336Z" stroke-width="2"></path><path id="Rectangle 802" stroke="#000" stroke-linecap="round" stroke-linejoin="round" d="M29.217666666666666 18.822625c2.8510416666666667 -2.415 7.191333333333334 -1.7393750000000001 9.252708333333333 1.3895833333333334 0.06133333333333334 0.09200000000000001 0.11691666666666667 0.17825 0.16770833333333332 0.25683333333333336 0.19933333333333333 0.3066666666666667 0.18016666666666667 0.6650833333333334 -0.09775 0.9008333333333333 -2.8510416666666667 2.415 -7.191333333333334 1.7393750000000001 -9.252708333333333 -1.3895833333333334a40.59020833333333 40.59020833333333 0 0 1 -0.16770833333333332 -0.25683333333333336c-0.198375 -0.3066666666666667 -0.18016666666666667 -0.6650833333333334 0.09775 -0.9008333333333333Z" stroke-width="2"></path><path id="Rectangle 808" stroke="#000" stroke-linecap="round" stroke-linejoin="round" d="M28.704000000000004 2.883625c-4.053750000000001 -0.19741666666666666 -6.868375 3.1759166666666667 -6.0375 7.148208333333333l0.06995833333333333 0.32583333333333336c0.08337499999999999 0.3862083333333334 0.37375 0.6775416666666667 0.7695416666666668 0.6967083333333334 4.053750000000001 0.19645833333333332 6.868375 -3.1759166666666667 6.0375 -7.149166666666667l-0.06995833333333333 -0.32583333333333336c-0.08337499999999999 -0.3862083333333334 -0.37375 -0.6765833333333333 -0.7695416666666668 -0.69575Z" stroke-width="2"></path><path id="Rectangle 806" stroke="#000" stroke-linecap="round" stroke-linejoin="round" d="M20.594583333333333 25.37379166666667c3.1356666666666664 -2.7542500000000003 7.767291666666668 -2.1802083333333333 9.873708333333335 1.1691666666666667l0.1725 0.27599999999999997c0.20125 0.32775000000000004 0.17058333333333334 0.7216250000000001 -0.135125 0.9899583333333333 -3.1366250000000004 2.753291666666667 -7.76825 2.17925 -9.874666666666668 -1.1691666666666667a36.56041666666667 36.56041666666667 0 0 1 -0.1725 -0.27599999999999997c-0.20125 -0.32775000000000004 -0.17058333333333334 -0.7216250000000001 0.13608333333333333 -0.9899583333333333Z" stroke-width="2"></path><path id="Rectangle 809" stroke="#000" stroke-linecap="round" stroke-linejoin="round" d="M17.010416666666668 8.395c2.9248333333333334 3.2094583333333335 2.060416666666667 7.8276666666666666 -1.7805833333333334 9.84975l-0.31625000000000003 0.16387500000000002c-0.3756666666666667 0.1945416666666667 -0.8145833333333333 0.15333333333333335 -1.0992083333333333 -0.1600416666666667 -2.9248333333333334 -3.2085 -2.060416666666667 -7.8276666666666666 1.7805833333333334 -9.848791666666667l0.31625000000000003 -0.16483333333333333c0.3756666666666667 -0.19358333333333336 0.8145833333333333 -0.152375 1.0992083333333333 0.161Z" stroke-width="2"></path><path id="Rectangle 810" stroke="#000" stroke-linecap="round" stroke-linejoin="round" d="M6.7869166666666665 16.102875c3.864958333333334 2.152416666666667 4.526208333333333 6.895208333333334 1.469125 10.092208333333334l-0.25204166666666666 0.26162500000000005c-0.30091666666666667 0.3095416666666667 -0.7379166666666667 0.41208333333333336 -1.1145416666666668 0.20125 -3.864958333333334 -2.153375 -4.526208333333333 -6.895208333333334 -1.4681666666666668 -10.093166666666667 0.09008333333333333 -0.09391666666666668 0.17441666666666666 -0.18208333333333335 0.25204166666666666 -0.2606666666666667 0.2999583333333333 -0.3095416666666667 0.7369583333333334 -0.41208333333333336 1.1135833333333334 -0.20125Z" stroke-width="2"></path><path id="Rectangle 811" stroke="#000" stroke-linecap="round" stroke-linejoin="round" d="M13.814375 33.40175c2.9880833333333334 -3.262166666666667 7.754833333333334 -2.808875 10.158333333333333 0.9046666666666666 0.071875 0.10925000000000001 0.13704166666666667 0.21083333333333334 0.19645833333333332 0.30475 0.23191666666666666 0.3641666666666667 0.23 0.8126666666666666 -0.06133333333333334 1.1308333333333334 -2.9880833333333334 3.262166666666667 -7.754833333333334 2.809833333333333 -10.159291666666668 -0.9037083333333333a46.94108333333333 46.94108333333333 0 0 1 -0.19645833333333332 -0.3066666666666667c-0.23095833333333332 -0.36320833333333336 -0.23 -0.8117083333333334 0.06229166666666667 -1.1298750000000002Z" stroke-width="2"></path></g></svg>