<svg xmlns="http://www.w3.org/2000/svg" fill="none" viewBox="-1 -1 48 48" height="48" width="48"><g id="no-photo-taking-zone"><path id="Union" stroke="#000" stroke-linecap="round" stroke-linejoin="round" d="M1.9166666666666667 2.875c8.979583333333332 0 16.316583333333334 7.218166666666667 16.789041666666666 16.30316666666667l3.9828333333333332 6.044208333333334c0.49641666666666673 0.7522916666666667 0.40920833333333334 1.7470416666666666 -0.3344583333333333 2.2405833333333334 -0.8280000000000001 0.549125 -2.1064166666666666 1.2075 -3.884125 1.61575l-0.5510416666666667 6.71025c-0.14183333333333334 1.722125 -1.6885833333333333 2.9526250000000003 -3.3512916666666666 2.665125l-4.485 -0.7752916666666667V44.083333333333336" stroke-width="2"></path><path id="Union_2" stroke="#000" stroke-linecap="round" stroke-linejoin="round" d="M42.70333333333334 44.083333333333336a31.002083333333335 31.002083333333335 0 0 0 0.9420416666666667 -3.6991666666666667c0.49641666666666673 -2.6287083333333334 -0.9861249999999999 -5.108875 -3.5075000000000003 -6.0058750000000005a51.14720833333334 51.14720833333334 0 0 0 -5.622541666666667 -1.6205416666666668c0 -1.3646666666666667 -0.227125 -4.472541666666666 -0.38525000000000004 -6.466833333333334 -0.08816666666666667 -1.106875 -0.81075 -2.0853333333333337 -1.9080416666666669 -2.2511250000000005A6.847291666666666 6.847291666666666 0 0 0 31.208125 23.958333333333336c-0.3555416666666667 0 -0.713 0.034499999999999996 -1.0465000000000002 0.08625 -1.0800416666666668 0.16770833333333332 -1.7920833333333335 1.1231666666666666 -1.8553333333333333 2.21375 -0.09008333333333333 1.5908333333333333 -0.19645833333333332 4.267458333333334 -0.19645833333333332 8.104625l-1.141375 1.0675833333333336c-1.2947083333333333 1.210375 -2.0029166666666667 2.9602916666666665 -1.6550416666666667 4.698708333333333 0.32295833333333335 1.6167083333333334 0.7599583333333334 2.9238750000000002 1.204625 3.9540833333333336" stroke-width="2"></path></g></svg>