<svg xmlns="http://www.w3.org/2000/svg" fill="none" viewBox="-1 -1 48 48" height="48" width="48"><g id="call-center-support-service"><path id="Union" stroke="#000" stroke-linecap="round" stroke-linejoin="round" d="M1.9013333333333333 13.416666666666668c0 -5.2928749999999996 4.291416666666667 -9.583333333333334 9.583333333333334 -9.583333333333334h0.54625a2.875 2.875 0 0 1 2.6689583333333338 1.8074166666666667l2.3632500000000003 5.908125a3.8333333333333335 3.8333333333333335 0 0 1 -0.8490833333333334 4.134250000000001l-2.9478333333333335 2.9487916666666667c-0.47245833333333337 0.47245833333333337 -0.6717916666666667 1.1595833333333334 -0.47820833333333335 1.79975a19.209791666666668 19.209791666666668 0 0 0 12.765 12.765c0.6401666666666668 0.1945416666666667 1.3272916666666668 -0.004791666666666667 1.8007083333333334 -0.47725l2.9478333333333335 -2.9487916666666667a3.8333333333333335 3.8333333333333335 0 0 1 4.134250000000001 -0.848125l5.909083333333334 2.3632500000000003a2.875 2.875 0 0 1 1.8064583333333335 2.6689583333333338V34.5c0 5.2928749999999996 -4.2904583333333335 9.583333333333334 -9.583333333333334 9.583333333333334h-0.4791666666666667C15.691749999999999 44.083333333333336 2.347916666666667 31.009749999999997 1.9128333333333334 14.718083333333334a0.01629166666666667 0.01629166666666667 0 0 0 -0.005750000000000001 -0.012458333333333333 0.01629166666666667 0.01629166666666667 0 0 1 -0.005750000000000001 -0.012458333333333333V13.416666666666668Z" stroke-width="2"></path><path id="Vector 7" stroke="#000" stroke-linecap="round" stroke-linejoin="round" d="M41.6875 10.541666666666668h-6.9699583333333335a0.6967083333333334 0.6967083333333334 0 0 1 -0.5242083333333334 -1.15575l6.338416666666666 -7.245a0.6593333333333333 0.6593333333333333 0 0 1 1.15575 0.4350833333333334V10.541666666666668Zm0 0h1.9166666666666667m-1.9166666666666667 0v2.875" stroke-width="2"></path><path id="Vector 3" stroke="#000" stroke-linecap="round" stroke-linejoin="round" d="M30.1875 13.416666666666668h-7.666666666666667v-1.6339583333333334a2.875 2.875 0 0 1 1.722125 -2.6335l4.2665 -1.8668333333333333A2.80025 2.80025 0 0 0 27.38725 1.9166666666666667H25.395833333333336a2.875958333333333 2.875958333333333 0 0 0 -2.7120833333333336 1.9166666666666667" stroke-width="2"></path></g></svg>