<svg xmlns="http://www.w3.org/2000/svg" fill="none" viewBox="-1 -1 48 48" height="48" width="48"><g id="top-order-report"><path id="Rectangle 56" stroke="#000" stroke-linecap="round" stroke-linejoin="round" d="M5.31875 43.03875c-1.1279583333333334 -0.05462500000000001 -1.99525 -0.7570833333333334 -2.1342083333333335 -1.8783333333333334C3.0254583333333334 39.87625 2.875 37.69125 2.875 34.020833333333336s0.15045833333333333 -5.855416666666668 0.3095416666666667 -7.139583333333333c0.13895833333333332 -1.12125 1.00625 -1.8237083333333335 2.135166666666667 -1.8783333333333334C6.256958333333333 24.955000000000002 7.628333333333334 24.916666666666668 9.583333333333334 24.916666666666668c1.9530833333333333 0 3.326375 0.03929166666666667 4.264583333333333 0.08625 1.1279583333333334 0.05462500000000001 1.99525 0.7570833333333334 2.1342083333333335 1.8783333333333334 0.15908333333333335 1.284166666666667 0.3095416666666667 3.4691666666666667 0.3095416666666667 7.139583333333333l0 9.104166666666668 -6.708333333333334 0a87.04541666666667 87.04541666666667 0 0 1 -4.264583333333333 -0.08625Z" stroke-width="2"></path><path id="Union" stroke="#000" stroke-linecap="round" stroke-linejoin="round" d="M34.21729166666667 12.412333333333335c0.9765416666666666 1.1979166666666667 0.08816666666666667 2.9210000000000003 -1.457625 2.9210000000000003l-3.243958333333333 0c0.10829166666666667 2.445666666666667 0.19262500000000002 5.970416666666667 0.19262500000000002 11.020833333333334V43.125H16.291666666666668V26.354166666666668c0 -5.050416666666666 0.08433333333333333 -8.575166666666668 0.19262500000000002 -11.020833333333334l-3.243958333333333 0c-1.5457916666666667 0 -2.4341666666666666 -1.722125 -1.457625 -2.9210000000000003C15.390833333333333 7.979083333333334 19.319041666666667 4.695833333333334 21.435041666666667 3.066666666666667a2.546291666666667 2.546291666666667 0 0 1 3.129916666666667 0c2.116 1.6291666666666667 6.0432500000000005 4.912416666666667 9.652333333333333 9.345666666666668Z" stroke-width="2"></path><path id="Rectangle 58" stroke="#000" stroke-linecap="round" stroke-linejoin="round" d="m29.708333333333336 43.125 0 -9.104166666666668c0 -3.6704166666666667 0.15045833333333333 -5.855416666666668 0.3095416666666667 -7.139583333333333 0.13895833333333332 -1.12125 1.00625 -1.8237083333333335 2.135166666666667 -1.8783333333333334 0.93725 -0.04695833333333334 2.3095833333333338 -0.08625 4.263625 -0.08625 1.9530833333333333 0 3.326375 0.03929166666666667 4.264583333333333 0.08625 1.127 0.05462500000000001 1.99525 0.7570833333333334 2.1342083333333335 1.8783333333333334 0.15908333333333335 1.284166666666667 0.3095416666666667 3.4691666666666667 0.3095416666666667 7.139583333333333s-0.15045833333333333 5.855416666666668 -0.3095416666666667 7.139583333333333c-0.13895833333333332 1.12125 -1.00625 1.8237083333333335 -2.135166666666667 1.8783333333333334 -0.93725 0.04695833333333334 -2.3095833333333338 0.08625 -4.263625 0.08625l-6.708333333333334 0Z" stroke-width="2"></path></g></svg>