<svg xmlns="http://www.w3.org/2000/svg" fill="none" viewBox="-1 -1 48 48" height="48" width="48"><g id="gameboy--entertainment-gaming-device-gameboy"><path id="Rectangle 99" stroke="#000" stroke-linecap="round" stroke-linejoin="round" d="M34.381166666666665 42.61420833333333c2.3555833333333336 -0.2175416666666667 4.1745 -1.9741666666666668 4.383416666666666 -4.330708333333334 0.2597083333333334 -2.9440000000000004 0.5270833333333333 -7.788375000000001 0.5270833333333333 -15.2835 0 -7.4941666666666675 -0.26737500000000003 -12.3395 -0.5270833333333333 -15.2835 -0.20891666666666667 -2.3555833333333336 -2.0278333333333336 -4.113166666666666 -4.383416666666666 -4.330708333333334C31.682500000000005 3.1366250000000004 27.7265 2.875 23 2.875c-4.726500000000001 0 -8.681541666666666 0.26162500000000005 -11.381166666666667 0.5107916666666668 -2.3555833333333336 0.2175416666666667 -4.1745 1.9741666666666668 -4.383416666666666 4.330708333333334C6.9766666666666675 10.6605 6.708333333333334 15.504874999999998 6.708333333333334 23c0 7.4941666666666675 0.26737500000000003 12.3395 0.5270833333333333 15.2835 0.20891666666666667 2.3555833333333336 2.0278333333333336 4.112208333333334 4.383416666666666 4.330708333333334C14.3175 42.863375 18.273500000000002 43.125 23 43.125c4.726500000000001 0 8.681541666666666 -0.26162500000000005 11.381166666666667 -0.5107916666666668Z" stroke-width="2"></path><path id="Rectangle 100" stroke="#000" stroke-linecap="round" stroke-linejoin="round" d="M30.42804166666667 25.651708333333335c1.497875 -0.09200000000000001 2.705375 -1.1183750000000001 2.862541666666667 -2.6105000000000005 0.13416666666666668 -1.284166666666667 0.2510833333333334 -3.1548333333333334 0.2510833333333334 -5.7912083333333335 0 -2.635416666666667 -0.11595833333333333 -4.508 -0.2510833333333334 -5.7912083333333335 -0.15716666666666668 -1.492125 -1.3646666666666667 -2.5185000000000004 -2.862541666666667 -2.6105000000000005A121.68916666666668 121.68916666666668 0 0 0 23 8.625c-3.095416666666667 0 -5.680041666666667 0.115 -7.428041666666667 0.2232916666666667 -1.497875 0.09200000000000001 -2.705375 1.1183750000000001 -2.862541666666667 2.6105000000000005C12.57525 12.742958333333334 12.458333333333334 14.614583333333334 12.458333333333334 17.25s0.11595833333333333 4.507041666666667 0.2510833333333334 5.7912083333333335c0.15716666666666668 1.492125 1.3646666666666667 2.5185000000000004 2.862541666666667 2.6105000000000005 1.7480000000000002 0.10829166666666667 4.331666666666666 0.2232916666666667 7.428041666666667 0.2232916666666667 3.095416666666667 0 5.680041666666667 -0.115 7.428041666666667 -0.2232916666666667Z" stroke-width="2"></path><path id="Ellipse 613" stroke="#000" stroke-linecap="round" stroke-linejoin="round" d="M25.875 34.020833333333336a3.354166666666667 3.354166666666667 0 1 0 6.708333333333334 0 3.354166666666667 3.354166666666667 0 1 0 -6.708333333333334 0" stroke-width="2"></path><path id="Vector 2515" stroke="#000" stroke-linecap="round" stroke-linejoin="round" d="M16.770833333333336 30.666666666666668v6.708333333333334" stroke-width="2"></path><path id="Vector 2516" stroke="#000" stroke-linecap="round" stroke-linejoin="round" d="m20.125 34.020833333333336 -6.708333333333334 0" stroke-width="2"></path></g></svg>