<svg xmlns="http://www.w3.org/2000/svg" fill="none" viewBox="-1 -1 48 48" height="48" width="48"><g id="user-face-id-mask"><path id="Vector 1069" stroke="#000" stroke-linecap="round" stroke-linejoin="round" d="M15.333333333333334 10.541666666666668v1.9166666666666667" stroke-width="2"></path><path id="Vector 1070" stroke="#000" stroke-linecap="round" stroke-linejoin="round" d="M30.666666666666668 10.541666666666668v1.9166666666666667" stroke-width="2"></path><path id="Union" stroke="#000" stroke-linecap="round" stroke-linejoin="round" d="M15.216416666666667 18.881083333333336c-1.7058333333333335 -0.25875000000000004 -3.411666666666667 0.8270416666666667 -3.53625 2.54725 -0.06133333333333334 0.8471666666666667 -0.115 1.8725833333333333 -0.14758333333333334 3.0858333333333334a14.375 14.375 0 0 1 -0.33541666666666664 -0.09583333333333334c-1.4902083333333334 -0.4523333333333333 -3.1356666666666664 -1.2209166666666667 -4.344125000000001 -2.4638750000000003a2.875 2.875 0 0 0 -4.12275 4.007750000000001c2.1457083333333333 2.2070416666666666 4.81275 3.355125 6.7965 3.9579166666666667 0.7676250000000001 0.232875 1.4652916666666667 0.39291666666666664 2.038375 0.5040833333333333 0.03066666666666667 0.7235416666666667 0.06899999999999999 1.3445416666666667 0.11116666666666668 1.8735416666666669 0.140875 1.7480000000000002 1.1758750000000002 3.224791666666667 2.8337916666666665 3.7978750000000003 1.8093333333333332 0.6248333333333334 4.625875 1.279375 8.490833333333333 1.279375 4.3125 0 7.22775 -0.8155416666666667 8.907708333333334 -1.495 1.2113333333333334 -0.48875 2.025916666666667 -1.543875 2.224291666666667 -2.83475 0.10254166666666667 -0.66125 0.20029166666666667 -1.5199166666666668 0.2692916666666667 -2.615291666666667a20.167166666666667 20.167166666666667 0 0 0 2.0700000000000003 -0.5098333333333334c1.9847083333333335 -0.6027916666666667 4.65175 -1.750875 6.797458333333333 -3.9579166666666667a2.875 2.875 0 0 0 -4.12275 -4.007750000000001c-1.2084583333333332 1.2429583333333334 -2.853916666666667 2.011541666666667 -4.344125000000001 2.4629166666666666 -0.11404166666666667 0.034499999999999996 -0.22616666666666665 0.06708333333333334 -0.33541666666666664 0.09775a68.63487500000001 68.63487500000001 0 0 0 -0.14758333333333334 -3.086791666666667c-0.12458333333333334 -1.7202083333333333 -1.8304166666666666 -2.806 -3.53625 -2.54725 -1.8045416666666667 0.273125 -4.389166666666667 0.5251666666666668 -7.7835833333333335 0.5251666666666668 -3.3925 0 -5.98 -0.25204166666666666 -7.7835833333333335 -0.5251666666666668Z" stroke-width="2"></path><path id="Vector" stroke="#000" stroke-linecap="round" stroke-linejoin="round" d="M12.458333333333334 2.875s-2.9574166666666666 0 -6.091166666666667 0.18495833333333334a3.5075000000000003 3.5075000000000003 0 0 0 -3.3062500000000004 3.3062500000000004C2.875 9.499958333333334 2.875 12.458333333333334 2.875 12.458333333333334M33.54166666666667 2.875s2.9574166666666666 0 6.091166666666667 0.18495833333333334a3.5075000000000003 3.5075000000000003 0 0 1 3.3062500000000004 3.3062500000000004C43.125 9.499958333333334 43.125 12.458333333333334 43.125 12.458333333333334M33.54166666666667 43.125s2.9574166666666666 0 6.091166666666667 -0.18495833333333334a3.5075000000000003 3.5075000000000003 0 0 0 3.3062500000000004 -3.3062500000000004C43.125 36.50004166666667 43.125 33.54166666666667 43.125 33.54166666666667M12.458333333333334 43.125s-2.9574166666666666 0 -6.091166666666667 -0.18495833333333334a3.5075000000000003 3.5075000000000003 0 0 1 -3.3062500000000004 -3.3062500000000004C2.875 36.50004166666667 2.875 33.54166666666667 2.875 33.54166666666667" stroke-width="2"></path></g></svg>