<svg xmlns="http://www.w3.org/2000/svg" fill="none" viewBox="-1 -1 48 48" height="48" width="48"><g id="reply-to-message-typing"><path id="Union" stroke="#000" stroke-linecap="round" stroke-linejoin="round" d="M26.833333333333336 6.729416666666667c5.070541666666667 0.058458333333333334 8.782166666666667 0.22616666666666665 11.282458333333333 0.3862083333333334 2.43225 0.15620833333333334 4.350833333333333 1.9502083333333335 4.573166666666667 4.378625C42.91416666666667 13.943750000000001 43.125 17.56625 43.125 22.520833333333336s-0.21083333333333334 8.577083333333333 -0.4360416666666667 11.026583333333335c-0.22233333333333336 2.4284166666666667 -2.1409166666666666 4.222416666666667 -4.573166666666667 4.378625 -2.99 0.19166666666666668 -7.709791666666667 0.39291666666666664 -14.41525 0.4063333333333333L17.5375 43.61375c-1.2410416666666666 1.0656666666666668 -3.1625 0.18208333333333335 -3.1625 -1.45475v-3.9425833333333333a186.81366666666668 186.81366666666668 0 0 1 -6.4907916666666665 -0.290375c-2.43225 -0.15620833333333334 -4.350833333333333 -1.9502083333333335 -4.573166666666667 -4.378625C3.0858333333333334 31.09791666666667 2.875 27.475416666666668 2.875 22.520833333333336c0 -4.953625 0.21083333333333334 -8.577083333333333 0.4360416666666667 -11.026583333333335 0.22233333333333336 -2.4284166666666667 2.1409166666666666 -4.222416666666667 4.573166666666667 -4.378625 1.633 -0.10445833333333333 3.782541666666667 -0.21179166666666668 6.4907916666666665 -0.290375" stroke-width="2"></path><path id="Rectangle 1845" stroke="#000" stroke-linecap="round" stroke-linejoin="round" d="M26.6455 2.871166666666667c-0.06420833333333334 -0.5309166666666667 -0.5730833333333333 -0.7781666666666668 -1.0445833333333334 -0.5251666666666668 -0.6555000000000001 0.3526666666666667 -1.6981666666666668 0.9621666666666667 -3.187416666666667 1.9665000000000001 -1.2209166666666667 0.8241666666666667 -1.9923750000000002 1.4710416666666666 -2.4744166666666665 1.940625 -0.55775 0.5433749999999999 -0.55775 1.3263333333333334 0 1.8687500000000001 0.4820416666666667 0.46958333333333335 1.2535 1.1174166666666667 2.4744166666666665 1.940625 1.4892500000000002 1.0043333333333335 2.5319166666666666 1.6138333333333332 3.187416666666667 1.9674583333333333 0.47150000000000003 0.253 0.980375 0.004791666666666667 1.0445833333333334 -0.5261250000000001C26.7375 10.734291666666667 26.833333333333336 9.404125 26.833333333333336 7.1875c0 -2.2156666666666665 -0.09583333333333334 -3.545833333333334 -0.18783333333333335 -4.316333333333333Z" stroke-width="2"></path><path id="Vector" stroke="#000" stroke-linecap="round" stroke-linejoin="round" d="M15.333333333333334 23a2.875 2.875 0 1 1 -5.75 0 2.875 2.875 0 0 1 5.75 0Z" stroke-width="2"></path><path id="Vector_2" stroke="#000" stroke-linecap="round" stroke-linejoin="round" d="M25.875 23a2.875 2.875 0 1 1 -5.75 0 2.875 2.875 0 0 1 5.75 0Z" stroke-width="2"></path><path id="Vector_3" stroke="#000" stroke-linecap="round" stroke-linejoin="round" d="M36.41666666666667 23a2.875 2.875 0 1 1 -5.75 0 2.875 2.875 0 0 1 5.75 0Z" stroke-width="2"></path></g></svg>