<svg xmlns="http://www.w3.org/2000/svg" fill="none" viewBox="-1 -1 48 48" height="48" width="48"><g id="candle--lighting-light-incandescent-candle"><path id="Rectangle 1096" stroke="#000" stroke-linecap="round" stroke-linejoin="round" d="m36.41666666666667 44.083333333333336 0 -9.80375c0 -1.9185833333333333 -0.06708333333333334 -3.4787500000000002 -0.15908333333333335 -4.712125 -0.16291666666666668 -2.186916666666667 -2.0163333333333333 -3.703 -4.207083333333333 -3.627291666666667 -6.1879583333333334 0.21370833333333333 -12.561833333333334 0.9497083333333334 -18.433541666666667 2.130375 -2.095875 0.4216666666666667 -3.7010833333333335 2.054666666666667 -3.8783749999999997 4.185041666666667A48.26166666666667 48.26166666666667 0 0 0 9.583333333333334 36.239375L9.583333333333334 44.083333333333336" stroke-width="2"></path><path id="Subtract" stroke="#000" stroke-linecap="round" stroke-linejoin="round" d="M22.07425 1.9358333333333335c0.5366666666666667 -0.12458333333333334 0.9707916666666666 0.3574583333333333 0.9477916666666667 0.9085 -0.09679166666666668 2.3517500000000005 0.059416666666666666 6.162083333333333 1.8390416666666667 8.083541666666667 0.3727916666666667 0.4025 0.9794166666666667 0.5136666666666667 1.4250416666666668 0.19358333333333336 1.0637500000000002 -0.7628333333333334 1.7872916666666667 -2.42075 2.2664583333333335 -4.0575833333333335 0.21370833333333333 -0.7283333333333334 1.1289166666666666 -0.99475 1.601375 -0.4015416666666667C31.547375 8.407458333333333 32.583333333333336 10.58 32.583333333333336 13.180916666666667c0 5.45675 -4.2904583333333335 7.904333333333333 -9.583333333333334 7.904333333333333s-9.583333333333334 -2.447583333333333 -9.583333333333334 -7.904333333333333c0 -5.512333333333333 4.660375 -9.10225 7.4807500000000005 -10.771666666666667 0.37375 -0.22041666666666668 0.7705000000000001 -0.3775833333333334 1.1768333333333334 -0.47245833333333337Z" stroke-width="2"></path></g></svg>