<svg xmlns="http://www.w3.org/2000/svg" fill="none" viewBox="-1 -1 48 48" height="48" width="48"><g id="webcam-video--work-video-meeting-camera-company-conference-office"><path id="Union" stroke="#000" stroke-linecap="round" stroke-linejoin="round" d="M7.159708333333334 36.654333333333334c-2.21375 -0.33925 -3.808416666666667 -2.1370833333333334 -3.974208333333334 -4.37C3.0254583333333334 30.137666666666668 2.875 27.042250000000003 2.875 23c0 -4.04225 0.15045833333333333 -7.136708333333334 0.3105 -9.284333333333334 0.16579166666666667 -2.2329166666666667 1.7604583333333335 -4.03075 3.974208333333334 -4.37C9.50475 8.985333333333333 12.930791666666668 8.625 17.25 8.625s7.745250000000001 0.36033333333333334 10.090291666666667 0.7206666666666667c2.21375 0.33925 3.808416666666667 2.1370833333333334 3.974208333333334 4.37 0.08625 1.15 0.16866666666666666 2.572166666666667 0.227125 4.264583333333333 1.9799166666666665 -1.3387916666666668 4.7629166666666665 -2.9938333333333333 7.867916666666668 -4.162041666666667 1.5084166666666667 -0.5673333333333334 3.0714583333333336 0.41591666666666666 3.274625 2.015375 0.2232916666666667 1.7537500000000001 0.44083333333333335 4.2205 0.44083333333333335 7.166416666666667s-0.2175416666666667 5.4126666666666665 -0.44083333333333335 7.166416666666667c-0.20316666666666666 1.5994583333333334 -1.7662083333333334 2.582708333333333 -3.274625 2.015375 -3.1050000000000004 -1.1682083333333335 -5.888000000000001 -2.8232500000000003 -7.867916666666668 -4.162041666666667 -0.0575 1.693375 -0.140875 3.1145833333333335 -0.227125 4.264583333333333 -0.16579166666666667 2.2329166666666667 -1.7604583333333335 4.03075 -3.974208333333334 4.37C24.995250000000002 37.01466666666667 21.569208333333336 37.375 17.25 37.375s-7.745250000000001 -0.36033333333333334 -10.090291666666667 -0.7206666666666667Z" stroke-width="2"></path></g></svg>