<svg xmlns="http://www.w3.org/2000/svg" fill="none" viewBox="-1 -1 48 48" height="48" width="48"><g id="fried-egg-breakfast"><path id="ellipse 1452" stroke="#000" stroke-linecap="round" stroke-linejoin="round" d="M32.583333333333336 21.083333333333336c0 5.2928749999999996 -4.2904583333333335 9.583333333333334 -9.583333333333334 9.583333333333334s-9.583333333333334 -4.2904583333333335 -9.583333333333334 -9.583333333333334 4.2904583333333335 -9.583333333333334 9.583333333333334 -9.583333333333334 9.583333333333334 4.2904583333333335 9.583333333333334 9.583333333333334Z" stroke-width="2"></path><path id="ellipse 1453" stroke="#000" stroke-linecap="round" stroke-linejoin="round" d="M26.833333333333336 21.083333333333336a3.8333333333333335 3.8333333333333335 0 0 0 -3.8333333333333335 -3.8333333333333335" stroke-width="2"></path><path id="union" stroke="#000" stroke-linecap="round" stroke-linejoin="round" d="M23 2.875C11.5 2.875 2.875 13.234583333333335 2.875 25.875c0 9.413708333333334 6.10075 17.25 13.626541666666666 17.25 2.7695833333333337 0 5.344625 -1.0330833333333334 7.4941666666666675 -2.807916666666667 2.438 -2.0125 5.62925 -2.9095 8.548333333333334 -2.9095 5.843916666666667 0 10.580958333333333 -5.925375 10.580958333333333 -13.234583333333335C43.125 13.416666666666668 35.9375 2.875 23 2.875Z" stroke-width="2"></path></g></svg>