<svg xmlns="http://www.w3.org/2000/svg" fill="none" viewBox="-1 -1 48 48" height="48" width="48"><g id="email-attachment-document--mail-send-email-attachment-file-paperclip"><path id="Subtract" stroke="#000" stroke-linecap="round" stroke-linejoin="round" d="M21.5625 41.15083333333333c1.3138750000000001 0.03641666666666667 2.7504166666666667 0.0575 4.3125 0.0575 6.003 0 10.125750000000002 -0.3066666666666667 12.696 -0.600875 2.11025 -0.24150000000000002 3.6895833333333337 -1.8237083333333335 3.9224583333333336 -3.933958333333334 0.30475 -2.7695833333333337 0.6325000000000001 -7.418458333333334 0.6325000000000001 -14.631833333333335 0 -2.7542500000000003 -0.04791666666666667 -5.133791666666667 -0.12458333333333334 -7.177916666666667 -0.33541666666666664 -0.9391666666666667 -1.4825416666666666 -3.4193333333333333 -5.0485 -6.915333333333334 -3.7787083333333333 -3.704916666666667 -6.394 -4.746625000000001 -7.206666666666666 -5.000583333333333A155.08133333333336 155.08133333333336 0 0 0 25.875 2.875c-6.003958333333333 0 -10.126708333333333 0.3066666666666667 -12.696 0.600875 -2.109291666666667 0.24150000000000002 -3.6895833333333337 1.8237083333333335 -3.9224583333333336 3.9349166666666666 -0.20604166666666668 1.871625 -0.4216666666666667 4.601916666666667 -0.5405 8.401708333333334" stroke-width="2"></path><path id="Intersect" stroke="#000" stroke-linecap="round" stroke-linejoin="round" d="M30.666666666666668 3.354166666666667c0 2.345041666666667 0.07954166666666668 4.690083333333334 0.17441666666666666 6.645083333333334a5.409791666666666 5.409791666666666 0 0 0 5.159666666666667 5.159666666666667c1.955 0.09487500000000001 4.300041666666667 0.17441666666666666 6.645083333333334 0.17441666666666666" stroke-width="2"></path><path id="Vector 1486" stroke="#000" stroke-linecap="round" stroke-linejoin="round" d="M10.825333333333333 35.71995833333334v-4.482125c0 -2.095875 -1.779625 -3.795 -3.9751666666666665 -3.795 -2.1945833333333336 0 -3.9751666666666665 1.699125 -3.9751666666666665 3.795v4.569333333333334C2.875 39.8475 6.30775 43.125 10.541666666666668 43.125s7.666666666666667 -3.2765416666666667 7.666666666666667 -7.317833333333334v-8.364333333333333C18.208333333333336 23.402500000000003 14.775583333333334 20.125 10.541666666666668 20.125c-2.6057083333333333 0 -4.906666666666667 1.2400833333333334 -6.292416666666667 3.1366250000000004" stroke-width="2"></path></g></svg>