<svg xmlns="http://www.w3.org/2000/svg" fill="none" viewBox="-1 -1 48 48" height="48" width="48"><g id="megaphone-refresh--bullhorn-loud-megaphone-share-speaker-transmit-repeat"><path id="Vector" stroke="#000" stroke-linecap="round" stroke-linejoin="round" d="M30.700208333333332 4.791666666666667a20.169083333333333 20.169083333333333 0 0 1 6.530083333333334 4.324958333333333c3.6416666666666666 3.6052500000000003 5.894708333333333 8.585708333333333 5.894708333333333 14.0875 0 5.5008333333333335 -2.2520833333333337 10.481291666666667 -5.893750000000001 14.085583333333334A20.165250000000004 20.165250000000004 0 0 1 23 43.125a20.165250000000004 20.165250000000004 0 0 1 -14.231250000000001 -5.835291666666667C5.127083333333333 33.68541666666667 2.875 28.704000000000004 2.875 23.203166666666668 2.875 17.935208333333335 4.9402083333333335 13.145458333333334 8.312583333333333 9.583333333333334" stroke-width="2"></path><path id="Vector_2" stroke="#000" stroke-linecap="round" stroke-linejoin="round" d="M12.472708333333335 12.860833333333334a0.8577083333333334 0.8577083333333334 0 0 0 1.290875 -0.48108333333333336c0.8490833333333334 -2.828041666666667 1.2937500000000002 -6.565541666666667 1.4720000000000002 -8.396916666666668a0.9132916666666666 0.9132916666666666 0 0 0 -1.00625 -1.003375c-1.7662083333333334 0.18400000000000002 -5.332166666666667 0.6325000000000001 -8.350916666666667 1.480625a0.8692083333333334 0.8692083333333334 0 0 0 -0.5088750000000001 1.3100416666666668c1.6703750000000002 2.601875 4.504166666666667 5.4318333333333335 7.103166666666667 7.091666666666668Z" stroke-width="2"></path><path id="Vector_3" stroke="#000" stroke-linecap="round" stroke-linejoin="round" d="M31.299166666666665 20.519833333333334c-0.5673333333333334 -2.117916666666667 -1.060875 -3.6915 -1.451875 -4.82425 -0.48875 -1.4164166666666667 -2.0393333333333334 -2.017291666666667 -3.3934583333333332 -1.3780833333333333 -5.6465000000000005 2.6632083333333334 -10.712250000000001 5.934 -12.880958333333334 7.395458333333333 -0.7139583333333334 0.48108333333333336 -1.1615 1.27075 -1.0790833333333332 2.1275000000000004 0.046000000000000006 0.4791666666666667 0.13225 1.0465000000000002 0.29133333333333333 1.6397083333333335 0.15908333333333335 0.5932083333333333 0.36800000000000005 1.1279583333333334 0.5673333333333334 1.5649583333333335 0.3574583333333333 0.7839166666666666 1.1394583333333335 1.2439166666666668 1.9981250000000002 1.3033333333333335 2.6095416666666664 0.18208333333333335 8.631708333333334 0.4820416666666667 14.853208333333335 -0.035458333333333335 1.4930833333333335 -0.12362500000000001 2.5338333333333334 -1.4183333333333334 2.2492083333333333 -2.8903333333333334 -0.227125 -1.1758750000000002 -0.5865 -2.7858750000000003 -1.1538333333333333 -4.902833333333334Z" stroke-width="2"></path><path id="Vector_4" stroke="#000" stroke-linecap="round" stroke-linejoin="round" d="M23.958333333333336 34.5a5.75 5.75 0 0 1 -5.75 -5.75" stroke-width="2"></path></g></svg>