<svg viewBox="-1 -1 48 48" fill="none" xmlns="http://www.w3.org/2000/svg" height="48" width="48"><g id="return-3--enter-return-keyboard-keyboard"><path id="Rectangle 1096" d="M42.61229166666667 38.08704166666667c-0.19933333333333333 2.448541666666667 -2.072875 4.3220833333333335 -4.521416666666667 4.521416666666667 -3.0935 0.2510833333333334 -8.030833333333334 0.5165416666666667 -15.087041666666668 0.5165416666666667 -7.057166666666667 0 -11.993541666666667 -0.26545833333333335 -15.087041666666668 -0.5165416666666667 -2.448541666666667 -0.19933333333333333 -4.3220833333333335 -2.072875 -4.521416666666667 -4.521416666666667 -0.2510833333333334 -3.0935 -0.5175000000000001 -8.029875 -0.5175000000000001 -15.087041666666668 0 -7.057166666666667 0.2664166666666667 -11.993541666666667 0.5175000000000001 -15.087041666666668 0.198375 -2.448541666666667 2.072875 -4.3220833333333335 4.521416666666667 -4.521416666666667C11.01125 3.1404583333333336 15.946666666666667 2.875 23.003833333333336 2.875c7.057166666666667 0 11.993541666666667 0.26545833333333335 15.087041666666668 0.5165416666666667 2.448541666666667 0.19933333333333333 4.3220833333333335 2.072875 4.521416666666667 4.521416666666667 0.2510833333333334 3.0935 0.5165416666666667 8.029875 0.5165416666666667 15.087041666666668 0 7.057166666666667 -0.26545833333333335 11.993541666666667 -0.5175000000000001 15.087041666666668Z" stroke="black" stroke-linecap="round" stroke-linejoin="round" stroke-width="2"></path><path id="Union" d="M22.233333333333334 13.783708333333333c0.05462500000000001 1.354125 1.2285833333333334 2.19075 2.583666666666667 2.2377083333333334 1.4729583333333334 0.050791666666666666 2.4916666666666667 0.04504166666666667 3.969416666666667 0.03833333333333334 0.37183333333333335 -0.0019166666666666668 0.7724166666666668 -0.004791666666666667 1.2170833333333333 -0.005750000000000001a0.9564166666666667 0.9564166666666667 0 0 1 0.9583333333333334 0.9573750000000001v8.753416666666668a0.9583333333333334 0.9583333333333334 0 0 1 -0.99475 0.9573750000000001c-3.8898750000000004 -0.14854166666666668 -8.482208333333334 -0.3181666666666667 -12.439166666666667 -0.3890833333333334a59.65625 59.65625 0 0 0 -0.10254166666666667 -2.186916666666667c-0.0805 -1.196 -1.219 -1.7182916666666668 -2.176375 -0.9966666666666667a52.49654166666667 52.49654166666667 0 0 0 -2.7935416666666666 2.2808333333333333c-1.6406666666666667 1.4240833333333334 -2.580791666666667 2.492625 -3.11075 3.2075416666666667 -0.48875 0.658375 -0.48875 1.495 0 2.153375 0.5299583333333334 0.7149166666666666 1.469125 1.7834583333333334 3.11075 3.2085a52.57320833333333 52.57320833333333 0 0 0 2.7935416666666666 2.279875c0.9573750000000001 0.7216250000000001 2.095875 0.19933333333333333 2.176375 -0.9966666666666667 0.04120833333333333 -0.6085416666666666 0.07858333333333334 -1.365625 0.10541666666666667 -2.3009583333333334 3.2899583333333333 -0.13895833333333332 8.464958333333334 -0.3411666666666667 13.133958333333334 -0.4523333333333333 3.1720833333333336 -0.07666666666666667 5.745208333333333 -2.6536250000000003 5.748083333333334 -5.826666666666667l0.009583333333333334 -10.359583333333335a5.799833333333333 5.799833333333333 0 0 0 -5.75 -5.796 125.83875 125.83875 0 0 0 -5.855416666666668 0.071875c-1.354125 0.048875 -2.5300000000000002 0.8826250000000001 -2.583666666666667 2.2377083333333334a11.400333333333334 11.400333333333334 0 0 0 0 0.92575Z" stroke="black" stroke-linecap="round" stroke-linejoin="round" stroke-width="2"></path></g></svg>