<svg xmlns="http://www.w3.org/2000/svg" fill="none" viewBox="-1 -1 48 48" height="48" width="48"><g id="shuffle--multimedia-shuffle-multi-button-controls-media"><path id="Union" stroke="#000" stroke-linecap="round" stroke-linejoin="round" d="m26.393458333333335 26.90041666666667 1.9780000000000002 3.2842083333333334a2.2779583333333333 2.2779583333333333 0 0 0 1.8955833333333334 1.0158333333333334s1.0445833333333334 0 2.5922916666666667 -0.07666666666666667c0.04120833333333333 -1.3704166666666666 0.10254166666666667 -2.415 0.16770833333333332 -3.200833333333333 0.09679166666666668 -1.1643750000000002 1.2113333333333334 -1.68475 2.1734999999999998 -1.0225416666666667 0.9276666666666666 0.6372916666666667 2.2175833333333337 1.5889166666666668 3.9119166666666665 2.974666666666667 1.7182916666666668 1.4039583333333334 2.8117500000000004 2.5108333333333337 3.50175 3.320625 0.8433333333333334 0.9899583333333333 0.8433333333333334 2.310541666666667 0 3.3005 -0.69 0.8097916666666667 -1.7834583333333334 1.9166666666666667 -3.50175 3.320625 -1.6943333333333335 1.3867083333333334 -2.98425 2.3383333333333334 -3.9119166666666665 2.975625 -0.9621666666666667 0.66125 -2.0767083333333334 0.14183333333333334 -2.1734999999999998 -1.0215833333333335a61.52883333333333 61.52883333333333 0 0 1 -0.16770833333333332 -3.2046666666666668c-1.54675 -0.07570833333333334 -2.5922916666666667 -0.07570833333333334 -2.5922916666666667 -0.07570833333333334a8.658541666666666 8.658541666666666 0 0 1 -7.2037916666666675 -3.855375l-0.5424166666666667 -0.9008333333333333m-4.868333333333333 -21.35166666666667 -0.6162083333333334 -1.0235A8.658541666666666 8.658541666666666 0 0 0 9.8325 7.50375H6.210000000000001c-1.6023333333333334 0 -3.1452500000000003 0.8289583333333334 -3.3848333333333334 2.4130833333333332a8.249333333333334 8.249333333333334 0 0 0 0 2.4657916666666666c0.23958333333333334 1.584125 1.7825000000000002 2.412125 3.3848333333333334 2.412125h3.6225c0.7618750000000001 0 1.4729583333333334 0.38045833333333334 1.8955833333333334 1.014875L13.750166666666669 19.166666666666668" stroke-width="2"></path><path id="Union_2" stroke="#000" stroke-linecap="round" stroke-linejoin="round" d="M35.200541666666666 3.20275c-0.9621666666666667 -0.66125 -2.0767083333333334 -0.14183333333333334 -2.1734999999999998 1.0225416666666667a61.525000000000006 61.525000000000006 0 0 0 -0.16770833333333332 3.2037083333333336c-1.54675 0.07666666666666667 -2.5913333333333335 0.07666666666666667 -2.5913333333333335 0.07666666666666667a8.657583333333335 8.657583333333335 0 0 0 -7.2037916666666675 3.8544166666666673L11.728083333333334 30.1875a2.278916666666667 2.278916666666667 0 0 1 -1.8955833333333334 1.0139166666666668H6.210000000000001c-1.6023333333333334 0 -3.1452500000000003 0.8289583333333334 -3.3848333333333334 2.4130833333333332a8.248375 8.248375 0 0 0 0 2.4657916666666666c0.23958333333333334 1.584125 1.7825000000000002 2.412125 3.3848333333333334 2.412125h3.6225c2.894166666666667 0 5.598583333333333 -1.902291666666667 7.2037916666666675 -4.310583333333334l11.336125000000001 -18.370291666666667a2.2779583333333333 2.2779583333333333 0 0 1 1.8955833333333334 -1.014875s1.0445833333333334 0 2.5913333333333335 0.07666666666666667c0.04120833333333333 1.3704166666666666 0.10254166666666667 2.415 0.16770833333333332 3.200833333333333 0.09679166666666668 1.1634166666666668 1.2113333333333334 1.6837916666666666 2.1734999999999998 1.0215833333333335 0.9276666666666666 -0.6372916666666667 2.2175833333333337 -1.5889166666666668 3.9119166666666665 -2.974666666666667 1.7182916666666668 -1.4039583333333334 2.8117500000000004 -2.5108333333333337 3.50175 -3.320625 0.8433333333333334 -0.9899583333333333 0.8433333333333334 -2.310541666666667 0 -3.3005 -0.69 -0.8097916666666667 -1.7834583333333334 -1.9166666666666667 -3.50175 -3.320625C37.418125 4.791666666666667 36.12916666666667 3.8400416666666666 35.200541666666666 3.20275Z" stroke-width="2"></path></g></svg>