<svg xmlns="http://www.w3.org/2000/svg" fill="none" viewBox="-1 -1 48 48" height="48" width="48"><g id="sd-card--computer-device-chips"><path id="Vector 665" stroke="#000" stroke-linecap="round" stroke-linejoin="round" d="M23.007666666666665 43.125c-5.443333333333333 0 -9.408916666666666 -0.11116666666666668 -12.106625 -0.23191666666666666 -2.6919583333333335 -0.11979166666666667 -4.76675 -2.199375 -4.880791666666667 -4.891333333333334 -0.12937500000000002 -3.072416666666667 -0.2549166666666667 -7.881333333333334 -0.2549166666666667 -14.996958333333334 0 -1.7882500000000001 -0.012458333333333333 -2.802166666666667 -0.015333333333333334 -3.814166666666667 -0.0038333333333333336 -1.4911666666666668 0.4475416666666667 -2.9535833333333334 1.3426250000000002 -4.14575 3.937791666666667 -5.244958333333334 8.444833333333333 -9.017916666666666 10.88475 -10.869416666666668 1.1538333333333333 -0.8759166666666668 2.5664166666666666 -1.3062083333333334 4.014458333333334 -1.2995a96.20995833333333 96.20995833333333 0 0 1 1.049375 0.009583333333333334c5.367625 0 9.295833333333333 0.10925000000000001 11.986833333333333 0.22808333333333333 2.73125 0.11979166666666667 4.839583333333334 2.2549583333333336 4.954583333333334 4.986208333333334 0.13416666666666668 3.1749583333333335 0.26737500000000003 8.053833333333333 0.26737500000000003 14.904958333333335 0 6.852083333333334 -0.13416666666666668 11.73 -0.26737500000000003 14.905916666666668 -0.115 2.73125 -2.223333333333333 4.866416666666667 -4.954583333333334 4.986208333333334 -2.695791666666667 0.11883333333333333 -6.6355 0.22808333333333333 -12.020375 0.22808333333333333Z" stroke-width="2"></path><path id="Vector 1464" stroke="#000" stroke-linecap="round" stroke-linejoin="round" d="M33.54166666666667 8.625v4.791666666666667" stroke-width="2"></path><path id="Vector 1465" stroke="#000" stroke-linecap="round" stroke-linejoin="round" d="M27.791666666666668 8.625v4.791666666666667" stroke-width="2"></path><path id="Vector 1466" stroke="#000" stroke-linecap="round" stroke-linejoin="round" d="M22.041666666666668 8.625v4.791666666666667" stroke-width="2"></path></g></svg>