<svg xmlns="http://www.w3.org/2000/svg" fill="none" viewBox="-1 -1 48 48" height="48" width="48"><g id="convert-PDF-1--essential-files-folder-PDF-converter"><path id="Rectangle 1097" stroke="#000" stroke-linecap="round" stroke-linejoin="round" d="M33.54166666666667 6.939291666666667c1.02925 0.050791666666666666 1.9339166666666665 0.10541666666666667 2.7197500000000003 0.15908333333333335 2.446625 0.169625 4.3469999999999995 2.011541666666667 4.545375000000001 4.456250000000001 0.10350000000000001 1.2630833333333333 0.20316666666666666 2.83475 0.27791666666666665 4.737041666666666M12.458333333333334 39.05975a136.53375 136.53375 0 0 1 -2.7197500000000003 -0.15908333333333335c-2.446625 -0.169625 -4.3469999999999995 -2.009625 -4.545375000000001 -4.455291666666667 -0.046000000000000006 -0.5596666666666666 -0.09104166666666667 -1.17875 -0.13416666666666668 -1.863" stroke-width="2"></path><path id="Subtract" stroke="#000" stroke-linecap="round" stroke-linejoin="round" d="M16.395166666666668 27.743750000000002A87.12208333333334 87.12208333333334 0 0 1 13.416666666666668 27.791666666666668c-3.525708333333333 0 -5.989583333333334 -0.18400000000000002 -7.570833333333334 -0.36800000000000005 -1.4058750000000002 -0.16291666666666668 -2.446625 -1.2305000000000001 -2.590375 -2.638291666666667C3.0705000000000005 22.977958333333333 2.875 19.96975 2.875 15.333333333333334c0 -4.638333333333334 0.1955 -7.6446250000000004 0.38045833333333334 -9.452041666666666 0.14375 -1.4077916666666668 1.1845 -2.4744166666666665 2.590375 -2.638291666666667C7.427083333333334 3.059 9.890958333333334 2.875 13.416666666666668 2.875c1.0925 0 2.084375 0.017249999999999998 2.9785000000000004 0.04791666666666667 0.49833333333333335 0.16579166666666667 2.095875 0.8433333333333334 4.4035416666666665 3.2497083333333334 2.1754166666666666 2.2683750000000003 2.8778750000000004 3.8783749999999997 3.0839166666666666 4.49075 0.02875 0.830875 0.051750000000000004 1.7460833333333334 0.06420833333333334 2.753291666666667" stroke-width="2"></path><path id="Intersect" stroke="#000" stroke-linecap="round" stroke-linejoin="round" d="M23.889333333333337 10.947041666666667c-1.2324166666666667 0.1955 -3.457666666666667 0.043125 -5.130916666666667 -0.12266666666666667a2.6890833333333335 2.6890833333333335 0 0 1 -2.4169166666666664 -2.438c-0.16291666666666668 -1.7662083333333334 -0.3200833333333334 -4.164916666666667 -0.12266666666666667 -5.46825" stroke-width="2"></path><path id="Subtract_2" stroke="#000" stroke-linecap="round" stroke-linejoin="round" d="M35.56183333333333 18.25625c0.49833333333333335 0.16483333333333333 2.095875 0.8433333333333334 4.4035416666666665 3.2497083333333334 2.1754166666666666 2.2683750000000003 2.876916666666667 3.8783749999999997 3.0839166666666666 4.49075C43.09625 27.326875 43.125 28.874583333333334 43.125 30.666666666666668c0 4.638333333333334 -0.1955 7.6446250000000004 -0.38045833333333334 9.451083333333333 -0.14375 1.40875 -1.1845 2.475375 -2.590375 2.63925 -1.58125 0.18304166666666669 -4.0451250000000005 0.36800000000000005 -7.570833333333334 0.36800000000000005 -3.525708333333333 0 -5.989583333333334 -0.18495833333333334 -7.570833333333334 -0.36800000000000005 -1.4058750000000002 -0.16291666666666668 -2.446625 -1.2305000000000001 -2.590375 -2.63925C22.237166666666667 38.31129166666666 22.041666666666668 35.30500000000001 22.041666666666668 30.666666666666668s0.1955 -7.6446250000000004 0.38045833333333334 -9.452041666666666c0.14375 -1.4077916666666668 1.1845 -2.4744166666666665 2.590375 -2.638291666666667C26.59375 18.392333333333333 29.057625 18.208333333333336 32.583333333333336 18.208333333333336c1.0925 0 2.084375 0.017249999999999998 2.9785000000000004 0.04791666666666667Z" stroke-width="2"></path><path id="Intersect_2" stroke="#000" stroke-linecap="round" stroke-linejoin="round" d="M43.056 26.280375c-1.2324166666666667 0.1955 -3.457666666666667 0.043125 -5.130916666666667 -0.12266666666666667a2.6890833333333335 2.6890833333333335 0 0 1 -2.4169166666666664 -2.438c-0.16291666666666668 -1.7662083333333334 -0.3200833333333334 -4.165875000000001 -0.12266666666666667 -5.46825" stroke-width="2"></path><path id="Rectangle 128" stroke="#000" stroke-linecap="round" stroke-linejoin="round" d="M33.393125 10.108500000000001c-0.060375000000000005 0.514625 -0.5481666666666667 0.756125 -1.0100833333333334 0.520375 -0.5769166666666666 -0.29325 -1.4652916666666667 -0.7839166666666666 -2.70825 -1.5687916666666668 -0.9085 -0.572125 -1.532375 -1.04075 -1.9578750000000003 -1.4039583333333334 -0.6296250000000001 -0.5366666666666667 -0.6296250000000001 -1.3579583333333334 0 -1.8955833333333334 0.42550000000000004 -0.3641666666666667 1.049375 -0.8318333333333333 1.9578750000000003 -1.4049166666666666 1.2429583333333334 -0.7839166666666666 2.1313333333333335 -1.2745833333333334 2.70825 -1.5678333333333332 0.46191666666666664 -0.23575000000000002 0.9497083333333334 0.005750000000000001 1.0100833333333334 0.520375 0.07666666666666667 0.6459166666666667 0.14854166666666668 1.7067916666666667 0.14854166666666668 3.400166666666667 0 1.693375 -0.07283333333333333 2.7542500000000003 -0.14854166666666668 3.400166666666667Z" stroke-width="2"></path><path id="Rectangle 1098" stroke="#000" stroke-linecap="round" stroke-linejoin="round" d="M11.648541666666667 35.8915c0.060375000000000005 -0.514625 0.5481666666666667 -0.756125 1.0100833333333334 -0.520375 0.5769166666666666 0.29420833333333335 1.4652916666666667 0.7839166666666666 2.70825 1.5678333333333332 0.9085 0.5730833333333333 1.532375 1.0417083333333332 1.9578750000000003 1.4049166666666666 0.6296250000000001 0.5366666666666667 0.6296250000000001 1.3579583333333334 0 1.8955833333333334 -0.42550000000000004 0.3641666666666667 -1.049375 0.8318333333333333 -1.9578750000000003 1.4049166666666666 -1.2429583333333334 0.7839166666666666 -2.1313333333333335 1.2745833333333334 -2.70825 1.5678333333333332 -0.46191666666666664 0.23575000000000002 -0.9497083333333334 -0.005750000000000001 -1.0100833333333334 -0.520375C11.571875 42.04591666666667 11.5 40.985041666666675 11.5 39.29166666666667c0 -1.693375 0.07283333333333333 -2.7542500000000003 0.14854166666666668 -3.400166666666667Z" stroke-width="2"></path></g></svg>