<svg xmlns="http://www.w3.org/2000/svg" fill="none" viewBox="-1 -1 48 48" height="48" width="48"><g id="task-list-edit--task-list-edit-work"><path id="Subtract" stroke="#000" stroke-linecap="round" stroke-linejoin="round" d="M37.25233333333333 14.860875c-0.336375 -0.9391666666666667 -1.4844583333333334 -3.418375 -5.0485 -6.912458333333333 -3.7767916666666665 -3.703 -6.392083333333334 -4.745666666666667 -7.206666666666666 -5.000583333333333A155.08995833333333 155.08995833333333 0 0 0 20.125 2.875c-6.003 0 -10.125750000000002 0.3066666666666667 -12.696 0.600875 -2.109291666666667 0.24150000000000002 -3.6895833333333337 1.8237083333333335 -3.9215 3.933958333333334C3.200833333333333 10.179416666666667 2.875 14.828291666666669 2.875 22.041666666666668c0 7.213375 0.3267916666666667 11.862250000000001 0.6325000000000001 14.631833333333335 0.23191666666666666 2.11025 1.8122083333333334 3.6924583333333336 3.9215 3.933958333333334 1.8189166666666667 0.20795833333333333 4.415041666666667 0.4216666666666667 7.904333333333333 0.5299583333333334" stroke-width="2"></path><path id="Intersect" stroke="#000" stroke-linecap="round" stroke-linejoin="round" d="M37.265750000000004 15.293083333333334c-2.0000416666666667 0.29804166666666665 -5.597625000000001 0.06899999999999999 -8.327916666666667 -0.18304166666666669a4.469666666666667 4.469666666666667 0 0 1 -4.052791666666667 -4.035541666666667c-0.25683333333333336 -2.6852500000000004 -0.4849166666666667 -6.196583333333334 -0.1725 -8.134333333333334" stroke-width="2"></path><path id="Rectangle 64" stroke="#000" stroke-linecap="round" stroke-linejoin="round" d="M39.29166666666667 32.83058333333334s-0.45329166666666665 -2.020166666666667 -3.174 -4.739916666666667C33.39791666666667 25.369958333333333 31.37775 24.916666666666668 31.37775 24.916666666666668" stroke-width="2"></path><path id="Vector 1455" stroke="#000" stroke-linecap="round" stroke-linejoin="round" d="m9.583333333333334 12.458333333333334 3.8333333333333335 3.8333333333333335 4.791666666666667 -6.708333333333334" stroke-width="2"></path><path id="Vector 1456" stroke="#000" stroke-linecap="round" stroke-linejoin="round" d="m9.583333333333334 23 3.8333333333333335 3.8333333333333335 4.791666666666667 -6.708333333333334" stroke-width="2"></path><path id="Rectangle 65" stroke="#000" stroke-linecap="round" stroke-linejoin="round" d="M41.845625 30.275666666666666c1.3934166666666667 -1.3924583333333334 1.9262499999999998 -3.427958333333333 0.7609166666666667 -5.016875000000001a17.032458333333334 17.032458333333334 0 0 0 -1.69625 -1.96075c-0.7091666666666667 -0.7091666666666667 -1.3704166666666666 -1.2630833333333333 -1.9617083333333336 -1.69625 -1.5879583333333334 -1.1653333333333333 -3.6234583333333337 -0.6325000000000001 -5.016875000000001 0.7599583333333334l-11.825833333333334 11.825833333333334c-0.520375 0.5213333333333334 -0.8768750000000001 1.1816250000000001 -0.9382083333333333 1.9166666666666667 -0.08337499999999999 0.997625 -0.14470833333333333 2.6929166666666666 0.01629166666666667 5.201833333333333a1.84 1.84 0 0 0 1.7182916666666668 1.7182916666666668c2.5079583333333333 0.161 4.204208333333333 0.09966666666666667 5.201833333333333 0.015333333333333334 0.7340833333333334 -0.06133333333333334 1.3953333333333333 -0.416875 1.9166666666666667 -0.9391666666666667l11.825833333333334 -11.824875Z" stroke-width="2"></path></g></svg>