<svg xmlns="http://www.w3.org/2000/svg" fill="none" viewBox="-1 -1 48 48" height="48" width="48"><g id="skull-2--crash-death-delete-die-error-garbage-remove-skull-trash"><path id="Union" stroke="#000" stroke-linecap="round" stroke-linejoin="round" d="M19.274958333333334 37.049166666666665C10.472666666666667 35.489 3.8333333333333335 28.50466666666667 3.8333333333333335 20.125c0 -9.526791666666668 8.580916666666667 -17.25 19.166666666666668 -17.25 10.228291666666667 0 18.584958333333336 7.210500000000001 19.137916666666666 16.291666666666668H42.16666666666667v11.979166666666668c0 3.9770833333333337 -0.115 6.576083333333334 -0.24054166666666668 8.2225 -0.12458333333333334 1.6377916666666668 -1.1797083333333334 2.927708333333334 -2.7983333333333333 3.200833333333333 -1.6799583333333332 0.284625 -4.357541666666666 0.5558333333333333 -8.461125000000001 0.5558333333333333 -4.103583333333334 0 -6.781166666666667 -0.27120833333333333 -8.461125000000001 -0.5558333333333333 -1.6186250000000002 -0.273125 -2.67375 -1.5630416666666667 -2.7983333333333333 -3.200833333333333a69.49833333333333 69.49833333333333 0 0 1 -0.13320833333333335 -2.319166666666667Z" stroke-width="2"></path><path id="Ellipse 95" stroke="#000" stroke-linecap="round" stroke-linejoin="round" d="M38.333333333333336 17.25a3.8333333333333335 4.791666666666667 0 1 0 0 9.583333333333334 3.8333333333333335 4.791666666666667 0 1 0 0 -9.583333333333334" stroke-width="2"></path><path id="Ellipse 94" stroke="#000" stroke-linecap="round" stroke-linejoin="round" d="M21.083333333333336 22.041666666666668a3.8333333333333335 4.791666666666667 0 1 0 7.666666666666667 0 3.8333333333333335 4.791666666666667 0 1 0 -7.666666666666667 0" stroke-width="2"></path><path id="Vector 989" stroke="#000" stroke-linecap="round" stroke-linejoin="round" d="M27.791666666666668 37.375v5.510416666666667" stroke-width="2"></path><path id="Vector 990" stroke="#000" stroke-linecap="round" stroke-linejoin="round" d="M34.5 37.375v5.510416666666667" stroke-width="2"></path></g></svg>