<svg xmlns="http://www.w3.org/2000/svg" fill="none" viewBox="-1 -1 48 48" height="48" width="48"><g id="bluetooth--bluetooth-internet-server-network-wireless-connection"><path id="Union" fill-rule="evenodd" stroke="#000" stroke-linecap="round" stroke-linejoin="round" d="M35.53691666666667 16.974c1.4633749999999999 -1.0503333333333336 1.5678333333333332 -3.176875 0.16195833333333334 -4.302916666666667 -5.303416666666667 -4.250208333333333 -11.181833333333334 -7.421333333333333 -14.793791666666667 -9.180833333333334 -1.7125416666666666 -0.83375 -3.638791666666667 0.301875 -3.779666666666667 2.201291666666667 -0.19166666666666668 2.582708333333333 -0.4149583333333333 6.411250000000001 -0.5251666666666668 11.24125a356.38979166666667 356.38979166666667 0 0 0 -4.642166666666667 -2.6210416666666667c-0.8030833333333334 -0.44370833333333337 -1.772916666666667 -0.44083333333333335 -2.4303333333333335 0.198375a8.83775 8.83775 0 0 0 -0.8203333333333334 0.9238333333333333c-0.3555416666666667 0.46 -0.5903333333333334 0.922875 -0.7436666666666667 1.3320833333333333 -0.3152916666666667 0.8375833333333333 0.11883333333333333 1.69625 0.8462083333333333 2.216625 1.0800416666666668 0.7724166666666668 2.976583333333333 2.0930000000000004 5.897583333333333 4.017333333333334 -2.9210000000000003 1.9243333333333335 -4.817541666666667 3.2458750000000003 -5.897583333333333 4.018291666666666 -0.7283333333333334 0.5194166666666667 -1.1615 1.3790416666666667 -0.8462083333333333 2.2156666666666665 0.15333333333333335 0.4101666666666667 0.38812500000000005 0.8720833333333334 0.7436666666666667 1.3320833333333333 0.2875 0.3727916666666667 0.5673333333333334 0.6775416666666667 0.8203333333333334 0.9247916666666667 0.6564583333333334 0.6401666666666668 1.62725 0.6420833333333335 2.4303333333333335 0.198375 0.8979583333333334 -0.49641666666666673 2.3575 -1.3129166666666667 4.642166666666667 -2.6220000000000003 0.11020833333333334 4.83 0.3344583333333333 8.6595 0.5251666666666668 11.24125 0.140875 1.8994166666666668 2.0671250000000003 3.0360000000000005 3.779666666666667 2.201291666666667 3.612916666666667 -1.7595 9.490375 -4.929666666666667 14.793791666666667 -9.179875000000001 1.4058750000000002 -1.1260416666666668 1.3014166666666669 -3.2525833333333334 -0.16291666666666668 -4.302916666666667A202.828375 202.828375 0 0 0 26.62825 23c2.860625 -1.8304166666666666 5.880333333333334 -3.8524999999999996 8.909625 -6.026000000000001Zm-6.5607500000000005 -2.3670833333333334c-2.74275 -1.7345833333333334 -6.185083333333333 -3.8620833333333335 -6.185083333333333 -3.8620833333333335s-0.29229166666666667 3.7662500000000003 -0.5519999999999999 8.110375c1.8591666666666666 -1.1087916666666668 4.753333333333334 -3.16825 6.7370833333333335 -4.24925Zm-6.7370833333333335 12.537875000000001c0.25875000000000004 4.345083333333333 0.5519999999999999 8.109416666666666 0.5519999999999999 8.109416666666666s3.4423333333333335 -2.1255833333333336 6.185083333333333 -3.8601666666666663c-1.98375 -1.081 -4.877916666666667 -3.1395 -6.7370833333333335 -4.24925Z" clip-rule="evenodd" stroke-width="2"></path></g></svg>