<svg xmlns="http://www.w3.org/2000/svg" fill="none" viewBox="-1 -1 48 48" height="48" width="48"><g id="user-podcast--human-person-share-signal-transmit-user"><path id="Union" stroke="#000" stroke-linecap="round" stroke-linejoin="round" d="M27.017333333333333 30.489375000000003a7.666666666666667 7.666666666666667 0 1 0 -8.033708333333333 0c-3.684791666666667 1.4902083333333334 -6.475458333333333 4.968 -7.2603333333333335 9.230666666666666 -0.284625 1.5477083333333335 0.600875 2.810791666666667 2.1629583333333335 3.00725 1.6598333333333333 0.20891666666666667 4.449541666666667 0.39770833333333333 9.114708333333333 0.39770833333333333 4.665166666666667 0 7.4558333333333335 -0.1887916666666667 9.115666666666668 -0.39770833333333333 1.561125 -0.19645833333333332 2.446625 -1.4595416666666667 2.162 -3.00725 -0.784875 -4.263625 -3.5755416666666666 -7.742375000000001 -7.261291666666667 -9.230666666666666Z" stroke-width="2"></path><path id="Ellipse 172 (Stroke) (Stroke)" fill-rule="evenodd" stroke="#000" stroke-linecap="round" stroke-linejoin="round" d="M2.875 23.071875C2.875 12.343333333333334 11.990666666666668 3.8333333333333335 23 3.8333333333333335s20.125 8.510000000000002 20.125 19.238541666666666c0 2.8500833333333335 -0.6516666666666667 5.561208333333333 -1.817 7.996333333333333 -0.681375 1.426 -2.482083333333333 1.7633333333333334 -3.795 0.8845416666666668l-0.813625 -0.5443333333333333c-1.1039999999999999 -0.7398333333333333 -1.3704166666666666 -2.2329166666666667 -0.8433333333333334 -3.452875a12.295416666666668 12.295416666666668 0 0 0 1.0081666666666667 -4.883666666666667c0 -7.045666666666667 -6.0566666666666675 -13.02375 -13.864208333333334 -13.02375 -7.8085 0 -13.864208333333334 5.978083333333334 -13.864208333333334 13.02375 0 1.7230833333333335 0.3565 3.3714166666666667 1.009125 4.883666666666667 0.5261250000000001 1.2209166666666667 0.2597083333333334 2.7120833333333336 -0.8442916666666667 3.452875l-0.8145833333333333 0.5443333333333333c-1.3129166666666667 0.87975 -3.112666666666667 0.5414583333333333 -3.795 -0.8845416666666668A18.478583333333333 18.478583333333333 0 0 1 2.875 23.071875Z" clip-rule="evenodd" stroke-width="2"></path></g></svg>