<svg xmlns="http://www.w3.org/2000/svg" fill="none" viewBox="-1 -1 48 48" height="48" width="48"><g id="calendar-mark--calendar-date-day-month-mark"><path id="Vector 1380" stroke="#000" stroke-linecap="round" stroke-linejoin="round" d="M21.083333333333336 23.958333333333336h3.8333333333333335" stroke-width="2"></path><path id="Vector 1381" stroke="#000" stroke-linecap="round" stroke-linejoin="round" d="M30.666666666666668 23.958333333333336h3.8333333333333335" stroke-width="2"></path><path id="Vector 1382" stroke="#000" stroke-linecap="round" stroke-linejoin="round" d="M15.333333333333334 23.958333333333336h-3.8333333333333335" stroke-width="2"></path><path id="Vector 1383" stroke="#000" stroke-linecap="round" stroke-linejoin="round" d="M21.083333333333336 33.54166666666667h3.8333333333333335" stroke-width="2"></path><path id="Vector 1384" stroke="#000" stroke-linecap="round" stroke-linejoin="round" d="M30.666666666666668 33.54166666666667h3.8333333333333335" stroke-width="2"></path><path id="Vector 1385" stroke="#000" stroke-linecap="round" stroke-linejoin="round" d="M15.333333333333334 33.54166666666667h-3.8333333333333335" stroke-width="2"></path><path id="Subtract" stroke="#000" stroke-linecap="round" stroke-linejoin="round" d="M10.544541666666667 8.206208333333334c-1.089625 0.10541666666666667 -2.0316666666666667 0.215625 -2.829 0.322 -2.1073749999999998 0.28079166666666666 -3.7154583333333333 1.8668333333333333 -4.017333333333334 3.971333333333334C3.3072083333333335 15.225041666666668 2.875 19.559583333333336 2.875 25.395833333333336c0 5.83625 0.43220833333333336 10.171750000000001 0.8232083333333333 12.897250000000001 0.301875 2.1045000000000003 1.9099583333333334 3.6895833333333337 4.017333333333334 3.971333333333334 2.9995833333333333 0.399625 8.030833333333334 0.8605833333333334 15.284458333333333 0.8605833333333334 7.252666666666666 0 12.283916666666666 -0.46 15.284458333333333 -0.8605833333333334 2.1073749999999998 -0.28079166666666666 3.7154583333333333 -1.8668333333333333 4.017333333333334 -3.971333333333334 0.391 -2.7255 0.8232083333333333 -7.061000000000001 0.8232083333333333 -12.897250000000001 0 -5.835291666666667 -0.43220833333333336 -10.170791666666666 -0.8232083333333333 -12.896291666666668 -0.301875 -2.1045000000000003 -1.9099583333333334 -3.690541666666667 -4.017333333333334 -3.971333333333334a78.749125 78.749125 0 0 0 -2.829 -0.322" stroke-width="2"></path><path id="Subtract_2" stroke="#000" stroke-linecap="round" stroke-linejoin="round" d="M27.791666666666668 7.737583333333333A157.20212500000002 157.20212500000002 0 0 0 23 7.666666666666667c-1.7211666666666667 0 -3.31775 0.025875000000000002 -4.791666666666667 0.07091666666666667" stroke-width="2"></path><path id="Vector" stroke="#000" stroke-linecap="round" stroke-linejoin="round" d="M27.804125000000003 8.88375c0.04120833333333333 1.9933333333333334 1.3502916666666667 3.5400833333333335 3.343625 3.5707500000000003a31.602 31.602 0 0 0 0.9545 0c1.9933333333333334 -0.03066666666666667 3.302416666666667 -1.5774166666666667 3.343625 -3.5707500000000003a58.70941666666667 58.70941666666667 0 0 0 0 -2.4341666666666666c-0.04120833333333333 -1.9933333333333334 -1.3502916666666667 -3.5400833333333335 -3.343625 -3.5707500000000003a31.09216666666667 31.09216666666667 0 0 0 -0.9545 0c-1.9933333333333334 0.03066666666666667 -3.302416666666667 1.5774166666666667 -3.343625 3.5707500000000003a58.70941666666667 58.70941666666667 0 0 0 0 2.4341666666666666Z" stroke-width="2"></path><path id="Vector_2" stroke="#000" stroke-linecap="round" stroke-linejoin="round" d="M10.554125 8.88375c0.04120833333333333 1.9933333333333334 1.3502916666666667 3.5400833333333335 3.343625 3.5707500000000003a31.602 31.602 0 0 0 0.9545 0c1.9933333333333334 -0.03066666666666667 3.302416666666667 -1.5774166666666667 3.343625 -3.5707500000000003a58.70941666666667 58.70941666666667 0 0 0 0 -2.4341666666666666c-0.04120833333333333 -1.9933333333333334 -1.3502916666666667 -3.5400833333333335 -3.343625 -3.5707500000000003a31.09216666666667 31.09216666666667 0 0 0 -0.9545 0c-1.9933333333333334 0.03066666666666667 -3.302416666666667 1.5774166666666667 -3.343625 3.5707500000000003a58.70941666666667 58.70941666666667 0 0 0 0 2.4341666666666666Z" stroke-width="2"></path></g></svg>