<svg xmlns="http://www.w3.org/2000/svg" fill="none" viewBox="-1 -1 48 48" height="48" width="48"><g id="mouse-wireless-1--remote-wireless-device-electronics-mouse-computer"><path id="Ellipse 1120" stroke="#000" stroke-linecap="round" stroke-linejoin="round" d="M10.541666666666668 6.229166666666667c3.2506666666666666 -2.376666666666667 7.635041666666667 -3.8333333333333335 12.458333333333334 -3.8333333333333335s9.207666666666668 1.4566666666666668 12.458333333333334 3.8333333333333335" stroke-width="2"></path><path id="Ellipse 1121" stroke="#000" stroke-linecap="round" stroke-linejoin="round" d="M13.416666666666668 11.020833333333334c2.50125 -1.7825000000000002 5.872666666666667 -2.875 9.583333333333334 -2.875s7.082083333333333 1.0925 9.583333333333334 2.875" stroke-width="2"></path><path id="Rectangle 59" stroke="#000" stroke-linecap="round" stroke-linejoin="round" d="M24.159583333333334 14.379791666666668c5.581333333333333 0.049833333333333334 9.563208333333334 3.8687916666666666 9.775958333333334 9.527750000000001 0.05366666666666667 1.403 0.08529166666666667 3.0091666666666668 0.08529166666666667 4.842458333333333 0 1.8332916666666668 -0.031625 3.4404166666666667 -0.08529166666666667 4.842458333333333 -0.21275000000000002 5.6589583333333335 -4.194625 9.477916666666667 -9.775 9.527750000000001a128.56904166666666 128.56904166666666 0 0 1 -2.320125 0c-5.581333333333333 -0.049833333333333334 -9.563208333333334 -3.8687916666666666 -9.775958333333334 -9.527750000000001A127.13250000000001 127.13250000000001 0 0 1 11.979166666666668 28.75c0 -1.8332916666666668 0.031625 -3.4404166666666667 0.08433333333333333 -4.842458333333333 0.21370833333333333 -5.6589583333333335 4.195583333333333 -9.477916666666667 9.776916666666667 -9.527750000000001a128.56904166666666 128.56904166666666 0 0 1 2.319166666666667 0Z" stroke-width="2"></path><path id="Rectangle 60" stroke="#000" stroke-linecap="round" stroke-linejoin="round" d="M24.403 14.398c1.8649166666666668 0.06420833333333334 3.1414166666666667 1.3522083333333335 3.2612083333333333 3.1404583333333336 0.071875 1.0877083333333333 0.12745833333333334 2.5539583333333336 0.12745833333333334 4.503208333333333s-0.05558333333333334 3.4155 -0.12745833333333334 4.503208333333333c-0.11979166666666667 1.7882500000000001 -1.3962916666666667 3.07625 -3.2612083333333333 3.1404583333333336A40.5375 40.5375 0 0 1 23 29.708333333333336a40.5375 40.5375 0 0 1 -1.403 -0.023000000000000003c-1.8649166666666668 -0.06420833333333334 -3.1414166666666667 -1.3522083333333335 -3.2612083333333333 -3.1404583333333336A68.220875 68.220875 0 0 1 18.208333333333336 22.041666666666668c0 -1.94925 0.05558333333333334 -3.4155 0.12745833333333334 -4.503208333333333 0.11979166666666667 -1.7882500000000001 1.3962916666666667 -3.07625 3.2612083333333333 -3.1404583333333336A40.5375 40.5375 0 0 1 23 14.375a40.5375 40.5375 0 0 1 1.403 0.023000000000000003Z" stroke-width="2"></path></g></svg>