<svg xmlns="http://www.w3.org/2000/svg" fill="none" viewBox="-1 -1 48 48" height="48" width="48"><g id="flip-horizontal-circle-1--flip-left-object-work"><path id="Intersect" stroke="#000" stroke-linecap="round" stroke-linejoin="round" d="M20.042583333333337 3.068583333333333C21.125500000000002 2.9095 22.041666666666668 3.7902083333333336 22.041666666666668 4.883666666666667v36.23266666666667c0 1.0934583333333334 -0.917125 1.9741666666666668 -1.9990833333333333 1.8150833333333334C10.330833333333333 41.49966666666667 2.875 33.121916666666664 2.875 23 2.875 12.88 10.330833333333333 4.500333333333333 20.042583333333337 3.068583333333333Z" stroke-width="2"></path><path id="Ellipse 19" stroke="#000" stroke-linecap="round" stroke-linejoin="round" d="M32.38495833333334 5.172125A19.973583333333334 19.973583333333334 0 0 0 27.791666666666668 3.427958333333333m9.264208333333334 5.152a20.2055 20.2055 0 0 1 4.003916666666667 5.519041666666667m1.7748333333333335 5.467291666666667c0.19166666666666668 1.1164583333333333 0.29133333333333333 2.2635833333333335 0.29133333333333333 3.4337083333333336 0 1.1710833333333333 -0.09966666666666667 2.3182083333333336 -0.29133333333333333 3.4337083333333336m-10.449666666666667 14.394166666666667A19.971666666666668 19.971666666666668 0 0 1 27.791666666666668 42.573m9.264208333333334 -5.152958333333333a20.204541666666668 20.204541666666668 0 0 0 4.003916666666667 -5.518083333333333" stroke-width="2"></path></g></svg>