<svg xmlns="http://www.w3.org/2000/svg" fill="none" viewBox="-1 -1 48 48" height="48" width="48"><g id="smiley-sparks"><path id="Ellipse 18" stroke="#000" stroke-linecap="round" stroke-linejoin="round" d="M16.845583333333334 3.8333333333333335C18.78525 3.2104166666666667 20.853333333333335 2.875 23 2.875c2.146666666666667 0 4.2147499999999996 0.33541666666666664 6.154416666666666 0.9583333333333334M42.76083333333333 19.166666666666668c0.23958333333333334 1.2410416666666666 0.3641666666666667 2.5223333333333335 0.3641666666666667 3.8333333333333335 0 11.11475 -9.01025 20.125 -20.125 20.125S2.875 34.11475 2.875 23c0 -1.3110000000000002 0.12458333333333334 -2.5922916666666667 0.3641666666666667 -3.8333333333333335" stroke-width="2"></path><path id="Ellipse 25" stroke="#000" stroke-linecap="round" stroke-linejoin="round" d="M23 38.333333333333336c5.021666666666667 0 9.292958333333333 -3.22 10.859833333333334 -7.706916666666666 0.635375 -1.8179583333333333 -1.2314583333333333 -3.2813333333333334 -3.1270416666666665 -2.942083333333333 -2.0537083333333332 0.36895833333333333 -4.777291666666667 0.7168333333333333 -7.732791666666667 0.7168333333333333 -2.9555000000000002 0 -5.679083333333334 -0.347875 -7.733750000000001 -0.715875 -1.8946250000000002 -0.34020833333333333 -3.761458333333333 1.1231666666666666 -3.1260833333333333 2.941125C13.707041666666669 35.11333333333334 17.977375000000002 38.333333333333336 23 38.333333333333336Z" stroke-width="2"></path><path id="Star 12" stroke="#000" stroke-linejoin="round" d="M33.601083333333335 4.347958333333334c0.3085833333333334 -0.8347083333333334 1.4892500000000002 -0.83375 1.7978333333333334 0l2.1505 5.817083333333334 4.810833333333333 2.393916666666667a0.9583333333333334 0.9583333333333334 0 0 1 0 1.7154166666666668l-4.810833333333333 2.3958333333333335 -2.1505 5.816125c-0.3085833333333334 0.83375 -1.4892500000000002 0.83375 -1.7978333333333334 0l-2.1505 -5.817083333333334 -4.810833333333333 -2.393916666666667a0.9583333333333334 0.9583333333333334 0 0 1 0 -1.7154166666666668l4.810833333333333 -2.3958333333333335 2.1505 -5.816125Z" stroke-width="2"></path><path id="Star 13" stroke="#000" stroke-linejoin="round" d="M12.398916666666668 4.347958333333334c-0.3085833333333334 -0.8347083333333334 -1.4892500000000002 -0.83375 -1.7978333333333334 0l-2.1505 5.817083333333334 -4.810833333333333 2.393916666666667a0.9583333333333334 0.9583333333333334 0 0 0 0 1.7154166666666668l4.810833333333333 2.3958333333333335 2.1505 5.816125c0.3085833333333334 0.83375 1.4892500000000002 0.83375 1.7978333333333334 0l2.1505 -5.817083333333334 4.810833333333333 -2.393916666666667a0.9583333333333334 0.9583333333333334 0 0 0 0 -1.7154166666666668l-4.810833333333333 -2.3958333333333335 -2.1505 -5.816125Z" stroke-width="2"></path></g></svg>