<svg xmlns="http://www.w3.org/2000/svg" fill="none" viewBox="-1 -1 48 48" height="48" width="48"><g id="cao-dai--religion-cao-dai-culture-god-eye"><path id="Vector" stroke="#000" stroke-linecap="round" stroke-linejoin="round" d="M19.343958333333333 6.139083333333334c-3.9770833333333337 5.87075 -10.504291666666667 16.192 -16.03291666666667 28.164458333333332 -1.2688333333333335 2.7465833333333336 0.42933333333333334 5.833375 3.4385000000000003 6.142916666666667 3.7279166666666668 0.38333333333333336 9.197125 0.7618750000000001 16.2495 0.7618750000000001 7.053333333333334 0 12.522541666666667 -0.3785416666666667 16.2495 -0.7618750000000001 3.0091666666666668 -0.3095416666666667 4.707333333333334 -3.3963333333333336 3.4385000000000003 -6.142916666666667 -5.528625 -11.972458333333334 -12.055833333333334 -22.293708333333335 -16.03291666666667 -28.164458333333332 -1.7853750000000002 -2.635416666666667 -5.524791666666666 -2.635416666666667 -7.310166666666667 0Z" stroke-width="2"></path><path id="Intersect" stroke="#000" stroke-linecap="round" stroke-linejoin="round" d="M35.458333333333336 25.875c-2.819416666666667 -5.2325 -7.350416666666667 -8.625 -12.458333333333334 -8.625s-9.638916666666667 3.3925 -12.458333333333334 8.625c2.819416666666667 5.2325 7.350416666666667 8.625 12.458333333333334 8.625s9.638916666666667 -3.3925 12.458333333333334 -8.625Z" stroke-width="2"></path><path id="Ellipse 3" stroke="#000" stroke-linecap="round" stroke-linejoin="round" d="M26.833333333333336 25.875a3.8333333333333335 3.8333333333333335 0 1 0 -7.666666666666667 0 3.8333333333333335 3.8333333333333335 0 0 0 7.666666666666667 0Z" stroke-width="2"></path></g></svg>