<svg xmlns="http://www.w3.org/2000/svg" fill="none" viewBox="-1 -1 48 48" height="48" width="48"><g id="button-power-1--power-button-on-off"><path id="Subtract" stroke="#000" stroke-linejoin="round" d="M12.889583333333333 8.010708333333334c-0.7379166666666667 -0.8759166666666668 -2.011541666666667 -0.8586666666666667 -2.8874583333333335 -0.12170833333333334C5.641708333333333 11.554625000000001 2.875 17.029583333333335 2.875 23.144708333333334 2.875 34.179916666666664 11.88525 43.125 23 43.125s20.125 -8.946041666666668 20.125 -19.981250000000003c0 -6.116083333333333 -2.7676666666666665 -11.590083333333332 -7.127125 -15.255708333333335 -0.8759166666666668 -0.7369583333333334 -2.1495416666666665 -0.7542083333333334 -2.8874583333333335 0.12170833333333334a6.884666666666667 6.884666666666667 0 0 0 -1.51225 3.11075c-0.16387500000000002 0.8366250000000001 0.2606666666666667 1.6425833333333333 0.8663333333333334 2.2425C34.94083333333334 15.814416666666666 36.895833333333336 19.327666666666666 36.895833333333336 23.14375 36.895833333333336 30.666666666666668 30.666666666666668 36.895833333333336 23 36.895833333333336S9.104166666666668 30.666666666666668 9.104166666666668 23.14375c0 -3.817041666666667 1.955 -7.330291666666667 4.431333333333333 -9.781708333333334 0.6056666666666667 -0.5989583333333334 1.0302083333333334 -1.4049166666666666 0.8663333333333334 -2.2415416666666665A6.884666666666667 6.884666666666667 0 0 0 12.889583333333333 8.011666666666667Z" stroke-width="2"></path><path id="Rectangle 1096" stroke="#000" stroke-linejoin="round" d="M19.733999999999998 22.2525c0.03354166666666667 1.3311250000000001 0.8241666666666667 2.4974166666666666 2.1485833333333333 2.61625A12.458333333333334 12.458333333333334 0 0 0 23 24.916666666666668a12.458333333333334 12.458333333333334 0 0 0 1.1174166666666667 -0.04791666666666667c1.325375 -0.11883333333333333 2.1150416666666665 -1.285125 2.1485833333333333 -2.61625 0.042166666666666665 -1.6866666666666668 0.08816666666666667 -4.418875 0.08816666666666667 -8.356666666666667 0 -3.937791666666667 -0.046000000000000006 -6.67 -0.08816666666666667 -8.356666666666667 -0.03354166666666667 -1.3311250000000001 -0.8241666666666667 -2.4974166666666666 -2.1485833333333333 -2.61625A12.458333333333334 12.458333333333334 0 0 0 23 2.875a12.458333333333334 12.458333333333334 0 0 0 -1.1174166666666667 0.04791666666666667c-1.325375 0.11883333333333333 -2.1150416666666665 1.285125 -2.1485833333333333 2.61625 -0.042166666666666665 1.6866666666666668 -0.08816666666666667 4.418875 -0.08816666666666667 8.356666666666667 0 3.937791666666667 0.046000000000000006 6.67 0.08816666666666667 8.356666666666667Z" stroke-width="2"></path></g></svg>