<svg xmlns="http://www.w3.org/2000/svg" fill="none" viewBox="-1 -1 48 48" height="48" width="48"><g id="chat-two-bubbles-oval--messages-message-bubble-chat-oval-conversation"><path id="Union" stroke="#000" stroke-linecap="round" stroke-linejoin="round" d="M40.825 18.208333333333336C39.04920833333333 9.459708333333333 31.314500000000002 2.875 22.041666666666668 2.875 11.455916666666667 2.875 2.875 11.455916666666667 2.875 22.041666666666668c0 3.6378333333333335 1.0139166666666668 7.038958333333333 2.773416666666667 9.936958333333333 -0.853875 2.0479583333333333 -1.7230833333333335 4.468708333333334 -2.278916666666667 6.693958333333334 -0.31145833333333334 1.2487083333333333 0.7839166666666666 2.3009583333333334 2.024 1.9569166666666666 2.1495416666666665 -0.5970416666666667 4.514708333333334 -1.46625 6.553083333333333 -2.292333333333333A19.04975 19.04975 0 0 0 18.208333333333336 40.825" stroke-width="2"></path><path id="Union_2" stroke="#000" stroke-linejoin="round" d="M20.125 31.625c0 -6.350875 5.149125000000001 -11.5 11.5 -11.5s11.5 5.149125000000001 11.5 11.5c0 2.2070416666666666 -0.621 4.268416666666667 -1.699125 6.0183333333333335 0.4130416666666667 0.8740000000000001 0.8241666666666667 1.8792916666666668 1.15 2.9574166666666666 0.370875 1.2324166666666667 -0.733125 2.291375 -1.9559583333333332 1.89175a28.137625000000003 28.137625000000003 0 0 1 -2.8692500000000005 -1.13275A11.446333333333335 11.446333333333335 0 0 1 31.625 43.125c-6.350875 0 -11.5 -5.149125000000001 -11.5 -11.5Z" stroke-width="2"></path></g></svg>