<svg xmlns="http://www.w3.org/2000/svg" fill="none" viewBox="-1 -1 48 48" height="48" width="48"><g id="arrow-up-4--arrow-up-line-to-top"><path id="Rectangle 57" stroke="#000" stroke-linecap="round" stroke-linejoin="round" d="M43.081875 35.306916666666666c-0.10254166666666667 -1.7499166666666668 -1.4700833333333334 -2.8481666666666667 -3.22 -2.9334583333333333 -2.626791666666667 -0.12937500000000002 -7.611083333333334 -0.2692916666666667 -16.861875 -0.2692916666666667 -9.250791666666668 0 -14.235083333333334 0.13991666666666666 -16.860916666666668 0.26833333333333337 -1.750875 0.08625 -3.1184166666666666 1.1845 -3.220958333333334 2.9344166666666665A27.216666666666665 27.216666666666665 0 0 0 2.875 36.895833333333336c0 0.60375 0.01629166666666667 1.1308333333333334 0.043125 1.5889166666666668 0.10254166666666667 1.7499166666666668 1.4700833333333334 2.8481666666666667 3.22 2.9334583333333333 2.626791666666667 0.12937500000000002 7.611083333333334 0.2692916666666667 16.861875 0.2692916666666667 9.250791666666668 0 14.235083333333334 -0.13991666666666666 16.860916666666668 -0.26833333333333337 1.750875 -0.08625 3.1184166666666666 -1.1845 3.220958333333334 -2.9344166666666665 0.026833333333333334 -0.457125 0.043125 -0.9842083333333332 0.043125 -1.5889166666666668 0 -0.60375 -0.01629166666666667 -1.1308333333333334 -0.043125 -1.5889166666666668Z" stroke-width="2"></path><path id="Vector 134 (Stroke)" fill-rule="evenodd" stroke="#000" stroke-linecap="round" stroke-linejoin="round" d="M22.392416666666666 16.376a0.9583333333333334 0.9583333333333334 0 0 1 1.2142083333333333 0l11.869916666666667 9.710791666666665c0.9430000000000001 0.7705000000000001 2.212791666666667 1.0656666666666668 3.289 0.49833333333333335 0.675625 -0.3574583333333333 1.4451666666666667 -0.8625 2.122708333333333 -1.5544166666666668 0.6880833333333334 -0.7024583333333333 1.1883333333333335 -1.50075 1.5390833333333336 -2.1974583333333335 0.5443333333333333 -1.0848333333333333 0.24533333333333335 -2.3507916666666664 -0.5558333333333333 -3.262166666666667C36.68404166666667 13.661041666666668 29.737083333333334 7.652291666666668 25.194583333333334 4.659416666666667c-1.3598750000000002 -0.8960416666666667 -3.0743333333333336 -0.9880416666666666 -4.4610416666666675 -0.13416666666666668 -4.543458333333334 2.7945 -11.446333333333335 9.109916666666667 -16.607916666666664 15.042958333333333 -0.7973333333333333 0.9152083333333333 -1.0972916666666668 2.1802083333333333 -0.5519999999999999 3.265041666666667 0.35075 0.6967083333333334 0.8510000000000001 1.495 1.5390833333333336 2.1974583333333335a8.574208333333333 8.574208333333333 0 0 0 2.122708333333333 1.5525000000000002c1.0762083333333334 0.56925 2.346 0.27408333333333335 3.288041666666667 -0.49641666666666673l11.869916666666667 -9.710791666666665Z" clip-rule="evenodd" stroke-width="2"></path></g></svg>