<svg xmlns="http://www.w3.org/2000/svg" fill="none" viewBox="-1 -1 48 48" height="48" width="48"><g id="octagram-shape"><path id="Union" stroke="#000" stroke-linecap="round" stroke-linejoin="round" d="M24.826583333333332 3.5113333333333334c-1.0925 -0.9008333333333333 -2.5616250000000003 -0.9008333333333333 -3.6531666666666665 0 -1.0081666666666667 0.8318333333333333 -2.4849583333333336 2.118875 -4.557833333333334 4.071958333333333 -2.8462500000000004 0.08433333333333333 -4.802208333333334 0.21945833333333334 -6.102666666666667 0.3440416666666667 -1.4097083333333336 0.135125 -2.448541666666667 1.1739583333333334 -2.583666666666667 2.583666666666667 -0.12458333333333334 1.3004583333333333 -0.25875000000000004 3.256416666666667 -0.345 6.102666666666667 -1.9530833333333333 2.0738333333333334 -3.240125 3.5515833333333333 -4.071958333333333 4.55975 -0.9008333333333333 1.0925 -0.9008333333333333 2.5616250000000003 0 3.6531666666666665 0.8318333333333333 1.0081666666666667 2.1198333333333337 2.4859166666666668 4.072916666666667 4.55975 0.08433333333333333 2.8452916666666668 0.21850000000000003 4.800291666666667 0.3440416666666667 6.10075 0.13416666666666668 1.40875 1.1739583333333334 2.448541666666667 2.583666666666667 2.583666666666667 1.3004583333333333 0.12458333333333334 3.2545 0.25875000000000004 6.10075 0.3440416666666667 2.0738333333333334 1.9530833333333333 3.550625 3.2410833333333335 4.558791666666666 4.072916666666667 1.0925 0.9008333333333333 2.5625833333333334 0.9008333333333333 3.6550833333333337 0 1.0081666666666667 -0.8318333333333333 2.4859166666666668 -2.1198333333333337 4.558791666666666 -4.072916666666667 2.8462500000000004 -0.08529166666666667 4.80125 -0.21945833333333334 6.102666666666667 -0.345 1.40875 -0.13416666666666668 2.447583333333333 -1.173 2.583666666666667 -2.582708333333333 0.12458333333333334 -1.3004583333333333 0.25875000000000004 -3.2554583333333333 0.3440416666666667 -6.102666666666667 1.952125 -2.072875 3.2391666666666667 -3.549666666666667 4.071000000000001 -4.557833333333334 0.9008333333333333 -1.0925 0.9008333333333333 -2.5616250000000003 0 -3.6531666666666665 -0.830875 -1.0081666666666667 -2.117916666666667 -2.4859166666666668 -4.071000000000001 -4.558791666666666 -0.08529166666666667 -2.8472083333333336 -0.21945833333333334 -4.803166666666667 -0.345 -6.104583333333333 -0.13416666666666668 -1.40875 -1.1739583333333334 -2.447583333333333 -2.582708333333333 -2.582708333333333 -1.3004583333333333 -0.12458333333333334 -3.256416666666667 -0.25875000000000004 -6.104583333333333 -0.3440416666666667 -2.072875 -1.9530833333333333 -3.549666666666667 -3.240125 -4.557833333333334 -4.071958333333333Z" stroke-width="2"></path></g></svg>