<svg xmlns="http://www.w3.org/2000/svg" fill="none" viewBox="-1 -1 48 48" height="48" width="48"><g id="password-lock--circle-dots-lock-login-padlock-password-secure-security-textbox-type"><path id="Rectangle 723" stroke="#000" stroke-linecap="round" stroke-linejoin="round" d="M41.047333333333334 21.083333333333336c0.09583333333333334 -1.5563333333333336 0.161 -3.457666666666667 0.161 -5.75 0 -3.739416666666667 -0.17441666666666666 -6.44 -0.36991666666666667 -8.296291666666667 -0.22233333333333336 -2.1016250000000003 -1.8380833333333333 -3.5985416666666667 -3.9454583333333333 -3.7547500000000005C34.18566666666666 3.0810416666666667 29.568416666666668 2.875 22.041666666666668 2.875s-12.144000000000002 0.20700000000000002 -14.851291666666667 0.40729166666666666c-2.1073749999999998 0.15620833333333334 -3.723125 1.6531250000000002 -3.9454583333333333 3.7547500000000005C3.0494166666666667 8.892375 2.875 11.593916666666669 2.875 15.333333333333334s0.17441666666666666 6.44 0.36991666666666667 8.296291666666667c0.22233333333333336 2.1016250000000003 1.8380833333333333 3.5985416666666667 3.9454583333333333 3.7547500000000005 2.707291666666667 0.20125 7.324541666666667 0.40729166666666666 14.851291666666667 0.40729166666666666 1.3723333333333334 0 2.647875 -0.0067083333333333335 3.8333333333333335 -0.01916666666666667" stroke-width="2"></path><path id="Vector" stroke="#000" stroke-linecap="round" stroke-linejoin="round" d="M26.89466666666667 34.720416666666665c0.08816666666666667 -1.6751666666666667 1.267875 -2.83475 2.941125 -2.9507083333333335C31.008791666666667 31.689208333333333 32.66670833333334 31.625 34.97916666666667 31.625c2.446625 0 4.1515 0.071875 5.321625 0.15908333333333335 1.5304583333333335 0.115 2.6287083333333334 1.152875 2.736041666666667 2.683333333333333 0.051750000000000004 0.7379166666666667 0.08816666666666667 1.6885833333333333 0.08816666666666667 2.907583333333333a41.85041666666667 41.85041666666667 0 0 1 -0.08816666666666667 2.906625c-0.10733333333333334 1.5314166666666669 -1.2055833333333335 2.569291666666667 -2.736041666666667 2.683333333333333 -1.1691666666666667 0.08816666666666667 -2.875 0.1600416666666667 -5.321625 0.1600416666666667s-4.1515 -0.071875 -5.321625 -0.15908333333333335c-1.5304583333333335 -0.115 -2.6287083333333334 -1.152875 -2.736041666666667 -2.683333333333333A41.755541666666666 41.755541666666666 0 0 1 26.833333333333336 37.375c0 -1.0848333333333333 0.024916666666666667 -1.9569166666666666 0.06133333333333334 -2.6545833333333335Z" stroke-width="2"></path><path id="Vector_2" stroke="#000" stroke-linecap="round" stroke-linejoin="round" d="M34.97916666666667 36.41666666666667v1.9166666666666667" stroke-width="2"></path><path id="Vector_3" stroke="#000" stroke-linecap="round" stroke-linejoin="round" d="m39.29166666666667 31.625 -0.17441666666666666 -3.7183333333333333a4.142875000000001 4.142875000000001 0 0 0 -8.276166666666667 0L30.666666666666668 31.625" stroke-width="2"></path><path id="Vector_4" stroke="#000" stroke-linecap="round" stroke-linejoin="round" d="M8.625 15.333333333333334a2.875 2.875 0 1 0 5.75 0 2.875 2.875 0 0 0 -5.75 0Z" stroke-width="2"></path><path id="Vector_5" stroke="#000" stroke-linecap="round" stroke-linejoin="round" d="M19.166666666666668 15.333333333333334a2.875 2.875 0 1 0 5.75 0 2.875 2.875 0 0 0 -5.75 0Z" stroke-width="2"></path><path id="Vector_6" stroke="#000" stroke-linecap="round" stroke-linejoin="round" d="M29.708333333333336 15.333333333333334a2.875 2.875 0 1 0 5.75 0 2.875 2.875 0 0 0 -5.75 0Z" stroke-width="2"></path></g></svg>