<svg xmlns="http://www.w3.org/2000/svg" fill="none" viewBox="-1 -1 48 48" height="48" width="48"><g id="bicycle-bike"><path id="Ellipse 110" stroke="#000" stroke-linecap="round" stroke-linejoin="round" d="M44.083333333333336 29.708333333333336a7.666666666666667 7.666666666666667 0 1 1 -15.333333333333334 0 7.666666666666667 7.666666666666667 0 1 1 15.333333333333334 0" stroke-width="2"></path><path id="Vector 1393" stroke="#000" stroke-linecap="round" stroke-linejoin="round" d="M35.458333333333336 9.583333333333334c-3.8333333333333335 0.4791666666666667 -6.229166666666667 1.9166666666666667 -6.229166666666667 1.9166666666666667L35.458333333333336 29.229166666666668" stroke-width="2"></path><path id="Vector 1394" stroke="#000" stroke-linecap="round" stroke-linejoin="round" d="M30.666666666666668 15.8125C29.069125 18.847541666666668 22.041666666666668 28.75 22.041666666666668 28.75s-7.666666666666667 1.4375 -13.416666666666668 0l8.145833333333334 -10.0625" stroke-width="2"></path><path id="Subtract" stroke="#000" stroke-linecap="round" stroke-linejoin="round" d="M13.285375 22.993291666666668a7.666666666666667 7.666666666666667 0 1 0 3.9540833333333336 6.312541666666666" stroke-width="2"></path><path id="Vector 1395" stroke="#000" stroke-linecap="round" stroke-linejoin="round" d="M22.041666666666668 28.75c-1.6397083333333335 -3.6081250000000002 -5.277541666666666 -10.287708333333333 -6.708333333333334 -13.895833333333334" stroke-width="2"></path><path id="Vector 283" stroke="#000" stroke-linecap="round" stroke-linejoin="round" d="M19.645833333333336 13.895833333333334S15.333333333333334 13.895833333333334 11.5 15.333333333333334" stroke-width="2"></path></g></svg>