<svg xmlns="http://www.w3.org/2000/svg" fill="none" viewBox="-1 -1 48 48" height="48" width="48"><g id="warning-diamond--diamond-alert-warning-frame-exclamation-caution"><path id="Rectangle 299" stroke="#000" stroke-linecap="round" stroke-linejoin="round" d="M4.0317083333333334 19.818333333333335c-1.6080833333333333 1.85725 -1.6080833333333333 4.506083333333334 0 6.363333333333333 1.62725 1.88025 4.1016666666666675 4.5932916666666666 7.647500000000001 8.138166666666669 3.545833333333334 3.545833333333334 6.2579166666666675 6.021208333333334 8.139125 7.647500000000001 1.85725 1.6090416666666667 4.506083333333334 1.6090416666666667 6.363333333333333 0 1.88025 -1.6262916666666667 4.5932916666666666 -4.1016666666666675 8.138166666666669 -7.647500000000001 3.545833333333334 -3.545833333333334 6.021208333333334 -6.2579166666666675 7.647500000000001 -8.137208333333334 1.6090416666666667 -1.8582083333333335 1.6090416666666667 -4.507041666666667 0 -6.3652500000000005 -1.6262916666666667 -1.8792916666666668 -4.1016666666666675 -4.592333333333333 -7.647500000000001 -8.137208333333334 -3.545833333333334 -3.545833333333334 -6.2579166666666675 -6.021208333333334 -8.137208333333334 -7.647500000000001 -1.8582083333333335 -1.6090416666666667 -4.507041666666667 -1.6090416666666667 -6.3652500000000005 0 -1.8792916666666668 1.6262916666666667 -4.592333333333333 4.1016666666666675 -8.137208333333334 7.647500000000001 -3.545833333333334 3.545833333333334 -6.021208333333334 6.2579166666666675 -7.647500000000001 8.138166666666669Z" stroke-width="2"></path><path id="Rectangle 172" stroke="#000" stroke-linecap="round" stroke-linejoin="round" d="M19.300833333333333 13.547958333333334c-0.089125 -1.242 0.468625 -2.4638750000000003 1.6770833333333335 -2.7676666666666665A8.281916666666666 8.281916666666666 0 0 1 23 10.541666666666668c0.79925 0 1.4739166666666668 0.100625 2.023041666666667 0.238625 1.2075 0.3037916666666667 1.7652500000000002 1.5256666666666667 1.6770833333333335 2.7676666666666665 -0.18208333333333335 2.583666666666667 -0.5318750000000001 7.071541666666667 -0.9094583333333334 9.586208333333333 -0.12458333333333334 0.8289583333333334 -0.6229166666666667 1.5419583333333333 -1.449 1.6809166666666668 -0.353625 0.060375000000000005 -0.7954166666666667 0.10158333333333333 -1.3416666666666666 0.10158333333333333s-0.9880416666666666 -0.042166666666666665 -1.3416666666666666 -0.10158333333333333c-0.8260833333333334 -0.13895833333333332 -1.325375 -0.8519583333333334 -1.449 -1.6809166666666668 -0.3775833333333334 -2.514666666666667 -0.7264166666666667 -7.0025416666666676 -0.9094583333333334 -9.586208333333333Z" stroke-width="2"></path><path id="Ellipse 67" stroke="#000" stroke-linecap="round" stroke-linejoin="round" d="M19.645833333333336 32.10416666666667a3.354166666666667 3.354166666666667 0 1 0 6.708333333333334 0 3.354166666666667 3.354166666666667 0 1 0 -6.708333333333334 0" stroke-width="2"></path></g></svg>