<svg xmlns="http://www.w3.org/2000/svg" fill="none" viewBox="-1 -1 48 48" height="48" width="48"><g id="fire-evacuation"><path id="Vector 640" stroke="#000" stroke-linecap="round" stroke-linejoin="round" d="M1.9166666666666667 28.75c2.043166666666667 0 7.280458333333334 -0.457125 9.535416666666666 -4.0825 1.9588333333333334 -3.1481250000000003 0.370875 -6.587583333333333 2.4610000000000003 -7.81425 0.19166666666666668 -0.11212500000000002 0.15812500000000002 -0.5500833333333333 -0.06420833333333334 -0.566375 -5.220041666666667 -0.3775833333333334 -4.808916666666667 2.2348333333333334 -7.878458333333334 3.004375 -0.38525000000000004 0.09583333333333334 -0.7858333333333333 -0.10733333333333334 -0.825125 -0.5021666666666668 -0.186875 -1.906125 1.6857083333333334 -5.75 3.9607916666666667 -6.9191666666666665 3.288041666666667 -1.6905000000000001 7.4941666666666675 -1.2381666666666669 7.168333333333334 -9.076375 -0.013416666666666667 -0.30762500000000004 -0.39866666666666667 -0.4264583333333334 -0.589375 -0.18495833333333334 -1.7144583333333334 2.1773333333333333 -3.1452500000000003 3.4960000000000004 -6.5789583333333335 2.9210000000000003C5.322583333333334 4.895166666666666 2.9440000000000004 6.561708333333334 1.9166666666666667 9.141541666666667" stroke-width="2"></path><path id="Union" stroke="#000" stroke-linecap="round" stroke-linejoin="round" d="M17.558583333333335 20.414416666666668c0.06420833333333334 0.658375 0.6363333333333334 1.1116666666666666 1.2966250000000001 1.1298750000000002 1.3694583333333334 0.035458333333333335 3.818 0.13991666666666666 6.3825 0.4475416666666667a0.94875 0.94875 0 0 1 0.560625 0.27504166666666663l0.7695416666666668 0.7781666666666668a218.502875 218.502875 0 0 0 -7.50375 9.242166666666668 0.9573750000000001 0.9573750000000001 0 0 1 -0.7657083333333334 0.3775833333333334h-5.451c-0.66125 0 -1.2477500000000001 0.45041666666666663 -1.3090833333333334 1.10975 -0.06804166666666667 0.7312083333333333 -0.035458333333333335 1.4116250000000001 0.021083333333333332 1.9320000000000002 0.06516666666666668 0.6095 0.572125 1.0474583333333334 1.1825833333333333 1.0992083333333333 3.00725 0.25395833333333334 5.340791666666667 0.3526666666666667 6.700666666666667 0.3919583333333333a4.1745 4.1745 0 0 0 2.4648333333333334 -0.6995833333333333 39.643375 39.643375 0 0 0 3.6579583333333336 -2.8203750000000003 21.001875 21.001875 0 0 1 3.008208333333333 2.780125c0.14375 0.16483333333333333 0.21945833333333334 0.3775833333333334 0.21945833333333334 0.5970416666666667l0 5.685791666666667c0 0.658375 0.4475416666666667 1.2429583333333334 1.1020833333333333 1.3042916666666666 0.71875 0.06804166666666667 1.3867083333333334 0.035458333333333335 1.8994166666666668 -0.021083333333333332 0.6075833333333334 -0.066125 1.0426666666666669 -0.5730833333333333 1.0925 -1.1816250000000001 0.28175 -3.3925 0.370875 -5.941666666666667 0.399625 -7.225833333333334a4.140000000000001 4.140000000000001 0 0 0 -0.34883333333333333 -1.7825000000000002c-1.1394583333333335 -2.555875 -2.3642083333333335 -4.207083333333333 -2.3642083333333335 -4.207083333333333l1.5026666666666668 -1.5189583333333334 0.8011666666666667 0.7053333333333334c0.600875 0.529 1.35125 0.8625 2.1505 0.9180833333333334 3.222875 0.227125 6.290500000000001 0.08241666666666667 7.82 -0.023000000000000003 0.6095 -0.042166666666666665 1.12125 -0.47725 1.1854583333333335 -1.0838750000000001 0.077625 -0.7312083333333333 0.05366666666666667 -1.4106666666666667 0.0019166666666666668 -1.9415833333333332 -0.06420833333333334 -0.6564583333333334 -0.6363333333333334 -1.1078333333333332 -1.2947083333333333 -1.1222083333333335 -1.4537916666666666 -0.03258333333333334 -4.115083333333333 -0.13225 -6.732291666666668 -0.4389166666666667a0.9832500000000001 0.9832500000000001 0 0 1 -0.675625 -0.39866666666666667c-0.713 -0.9679166666666668 -2.920041666666667 -3.808416666666667 -6.161125 -6.532958333333334a3.493125 3.493125 0 0 0 -2.008666666666667 -0.805c-3.590875 -0.24916666666666668 -6.8425 -0.09775 -8.42375 0.009583333333333334 -0.6056666666666667 0.04120833333333333 -1.1155 0.474375 -1.1806666666666668 1.0790833333333332 -0.07666666666666667 0.7264166666666667 -0.051750000000000004 1.4077916666666668 0 1.940625Z" stroke-width="2"></path><path id="Ellipse 136" stroke="#000" stroke-linecap="round" stroke-linejoin="round" d="M31.145833333333336 17.729166666666668a5.270833333333334 5.270833333333334 0 1 0 10.541666666666668 0 5.270833333333334 5.270833333333334 0 1 0 -10.541666666666668 0" stroke-width="2"></path></g></svg>