<svg xmlns="http://www.w3.org/2000/svg" fill="none" viewBox="-1 -1 48 48" height="48" width="48"><g id="camera-video--film-television-tv-camera-movies-video-recorder"><path id="Rectangle 1099" stroke="#000" stroke-linejoin="round" d="M3.1356666666666664 38.48283333333333c0.18400000000000002 2.4360833333333334 2.092041666666667 4.241583333333334 4.531 4.3815 2.371875 0.135125 5.838166666666667 0.2606666666666667 10.541666666666668 0.2606666666666667 4.702541666666667 0 8.169791666666667 -0.1255416666666667 10.541666666666668 -0.26162500000000005 2.4389583333333333 -0.13895833333333332 4.3469999999999995 -1.9444583333333334 4.531 -4.379583333333334C33.42283333333333 36.59875 33.54166666666667 34.01891666666666 33.54166666666667 30.666666666666668c0 -3.3532083333333333 -0.11883333333333333 -5.932083333333334 -0.2606666666666667 -7.816166666666668 -0.18400000000000002 -2.4360833333333334 -2.092041666666667 -4.241583333333334 -4.531 -4.3815 -2.371875 -0.135125 -5.839125 -0.2606666666666667 -10.541666666666668 -0.2606666666666667 -4.703500000000001 0 -8.169791666666667 0.1255416666666667 -10.541666666666668 0.26162500000000005 -2.4389583333333333 0.13895833333333332 -4.3469999999999995 1.9444583333333334 -4.531 4.379583333333334C2.9938333333333333 24.734583333333333 2.875 27.314416666666666 2.875 30.666666666666668c0 3.3532083333333333 0.11883333333333333 5.932083333333334 0.2606666666666667 7.816166666666668Z" stroke-width="2"></path><path id="Subtract" stroke="#000" stroke-linejoin="round" d="M33.44104166666667 35.73625c0.06133333333333334 -1.440375 0.100625 -3.1241666666666665 0.100625 -5.069583333333334 0 -1.9454166666666666 -0.03929166666666667 -3.6301666666666668 -0.100625 -5.070541666666667 1.5659166666666666 -0.8347083333333334 3.7758333333333334 -1.9233750000000003 5.972333333333334 -2.707291666666667 1.7259583333333333 -0.6162083333333334 3.365666666666667 0.4350833333333334 3.519 2.2616666666666667 0.10829166666666667 1.2966250000000001 0.19262500000000002 3.0858333333333334 0.19262500000000002 5.515208333333334 0 2.4303333333333335 -0.08433333333333333 4.218583333333334 -0.19262500000000002 5.515208333333334 -0.15333333333333335 1.8265833333333332 -1.7920833333333335 2.8778750000000004 -3.519 2.2616666666666667 -2.1965 -0.7829583333333333 -4.406416666666667 -1.871625 -5.972333333333334 -2.707291666666667Z" stroke-width="2"></path><path id="Ellipse 40" stroke="#000" stroke-linejoin="round" d="M6.708333333333334 8.145833333333334a5.270833333333334 5.270833333333334 0 1 0 10.541666666666668 0 5.270833333333334 5.270833333333334 0 1 0 -10.541666666666668 0" stroke-width="2"></path><path id="Ellipse 41" stroke="#000" stroke-linejoin="round" d="M22.041666666666668 9.583333333333334a3.8333333333333335 3.8333333333333335 0 1 0 7.666666666666667 0 3.8333333333333335 3.8333333333333335 0 1 0 -7.666666666666667 0" stroke-width="2"></path><path id="Rectangle 60" stroke="#000" stroke-linejoin="round" d="M22.063708333333334 25.540541666666666c0.031625 -0.8270416666666667 0.5673333333333334 -1.4566666666666668 1.3915 -1.5275833333333335A17.259583333333335 17.259583333333335 0 0 1 24.916666666666668 23.958333333333336c0.60375 0 1.0829166666666665 0.022041666666666668 1.4614583333333333 0.05462500000000001 0.8241666666666667 0.07091666666666667 1.3608333333333333 0.7015 1.3915 1.5275833333333335 0.013416666666666667 0.342125 0.022041666666666668 0.7666666666666667 0.022041666666666668 1.2927916666666668 0 0.5251666666666668 -0.009583333333333334 0.9506666666666667 -0.022041666666666668 1.2927916666666668 -0.031625 0.8270416666666667 -0.5673333333333334 1.4566666666666668 -1.3915 1.5275833333333335A17.259583333333335 17.259583333333335 0 0 1 24.916666666666668 29.708333333333336c-0.60375 0 -1.0829166666666665 -0.022041666666666668 -1.4614583333333333 -0.05462500000000001 -0.8241666666666667 -0.07091666666666667 -1.3608333333333333 -0.7015 -1.3915 -1.5275833333333335 -0.013416666666666667 -0.342125 -0.022041666666666668 -0.7666666666666667 -0.022041666666666668 -1.2927916666666668 0 -0.5251666666666668 0.009583333333333334 -0.9506666666666667 0.022041666666666668 -1.2927916666666668Z" stroke-width="2"></path></g></svg>