<svg xmlns="http://www.w3.org/2000/svg" fill="none" viewBox="-1 -1 48 48" height="48" width="48"><g id="graph-dot--product-data-bars-analysis-analytics-graph-business-chart-dot"><path id="Ellipse 22" stroke="#000" stroke-linecap="round" stroke-linejoin="round" d="M33.54166666666667 7.666666666666667a4.791666666666667 4.791666666666667 0 1 0 9.583333333333334 0 4.791666666666667 4.791666666666667 0 0 0 -9.583333333333334 0Z" stroke-width="2"></path><path id="Ellipse 23" stroke="#000" stroke-linecap="round" stroke-linejoin="round" d="M21.083333333333336 15.333333333333334a4.791666666666667 4.791666666666667 0 1 1 -9.583333333333334 0 4.791666666666667 4.791666666666667 0 1 1 9.583333333333334 0" stroke-width="2"></path><path id="Ellipse 24" stroke="#000" stroke-linecap="round" stroke-linejoin="round" d="M36.41666666666667 26.833333333333336a4.791666666666667 4.791666666666667 0 1 1 -9.583333333333334 0 4.791666666666667 4.791666666666667 0 1 1 9.583333333333334 0" stroke-width="2"></path><path id="Vector 2496" stroke="#000" stroke-linecap="round" stroke-linejoin="round" d="M3.354166666666667 33.54166666666667c2.7868333333333335 -5.2804166666666665 7.011166666666667 -10.920208333333333 9.867958333333334 -14.499583333333335" stroke-width="2"></path><path id="Vector 2498" stroke="#000" stroke-linecap="round" stroke-linejoin="round" d="M19.876791666666666 18.558125c2.6536250000000003 2.191708333333333 5.505625 4.2090000000000005 7.734708333333334 5.703041666666667" stroke-width="2"></path><path id="Vector 2497" stroke="#000" stroke-linecap="round" stroke-linejoin="round" d="M32.95133333333334 22.26016666666667c1.1883333333333335 -3.7892500000000005 2.5300000000000002 -7.427083333333334 3.5765000000000002 -10.123833333333334" stroke-width="2"></path><path id="Vector" stroke="#000" stroke-linecap="round" stroke-linejoin="round" d="M2.875 2.875c0 15.625625000000001 0.2884583333333333 30.962791666666664 0.41783333333333333 37.03958333333333a2.8481666666666667 2.8481666666666667 0 0 0 2.7925833333333334 2.7925833333333334C12.162208333333334 42.83654166666667 27.499375 43.125 43.125 43.125" stroke-width="2"></path></g></svg>