<svg xmlns="http://www.w3.org/2000/svg" fill="none" viewBox="-1 -1 48 48" height="48" width="48"><g id="disable-protection--shield-protection-security-defend-cover-disabled-off"><path id="Rectangle 112" stroke="#000" stroke-linecap="round" stroke-linejoin="round" d="M35.9375 36.01895833333334c4.489791666666666 -4.349875 7.034166666666667 -10.498541666666668 7.034166666666667 -16.95675a96.8875 96.8875 0 0 0 -0.62675 -10.950875c-0.18304166666666669 -1.578375 -1.1404166666666666 -2.8817083333333335 -2.6929166666666666 -3.224791666666667C37.23125 4.350833333333333 32.53925 3.7279166666666668 23.805 3.7279166666666668c-8.735208333333334 0 -13.42625 0.6229166666666667 -15.847000000000001 1.1576666666666666A3.253541666666667 3.253541666666667 0 0 0 6.229166666666667 5.88225" stroke-width="2"></path><path id="Rectangle 113" stroke="#000" stroke-linecap="round" stroke-linejoin="round" d="M4.937333333333334 11.5a97.35900000000001 97.35900000000001 0 0 0 -0.299 7.562208333333333c0 8.652791666666667 4.566458333333333 16.74879166666667 12.259 20.707666666666668 2.57025 1.3225 5.079166666666667 2.292333333333333 6.9076666666666675 2.292333333333333 1.8294583333333334 0 4.337416666666667 -0.9698333333333334 6.9067083333333334 -2.292333333333333 0.3948333333333333 -0.20316666666666666 0.782 -0.416875 1.1595833333333334 -0.6420833333333335" stroke-width="2"></path><path id="Vector 864" stroke="#000" stroke-linecap="round" stroke-linejoin="round" d="m2.875 2.875 38.333333333333336 38.333333333333336" stroke-width="2"></path></g></svg>