<svg xmlns="http://www.w3.org/2000/svg" fill="none" viewBox="-1 -1 48 48" height="48" width="48"><g id="hotel-five-star--five-stars-reviews-review-rating-hotel-star"><path id="Star 1" stroke="#000" stroke-linecap="round" stroke-linejoin="round" d="M19.875833333333333 4.510875a2.9564583333333334 2.9564583333333334 0 0 1 5.29 0l4.9105 9.408916666666666L40.1925 15.89875c2.3354583333333334 0.457125 3.262166666666667 3.4135833333333334 1.6349166666666668 5.213333333333334l-7.080166666666667 7.824791666666666 1.3234583333333334 10.656666666666666c0.30475 2.4562083333333335 -2.1294166666666667 4.287583333333334 -4.279916666666667 3.220958333333334L22.520833333333336 38.217375l-9.269 4.597125c-2.1505 1.066625 -4.584666666666666 -0.76475 -4.279916666666667 -3.22l1.3234583333333334 -10.658583333333334 -7.080166666666667 -7.824791666666666c-1.62725 -1.7987916666666668 -0.6995833333333333 -4.75525 1.6349166666666668 -5.213333333333334l10.115208333333333 -1.9780000000000002 4.9105 -9.408916666666666Z" stroke-width="2"></path><path id="Vector 3" stroke="#000" stroke-linecap="round" stroke-linejoin="round" d="m26.59375 19.166666666666668 -7.2670416666666675 0L18.208333333333336 25.875l0.819375 -0.4101666666666667a6.708333333333334 6.708333333333334 0 0 1 2.9995833333333333 -0.7082083333333333h1.7710000000000001a3.354166666666667 3.354166666666667 0 0 1 3.354166666666667 3.354166666666667l0 1.1183750000000001a3.354166666666667 3.354166666666667 0 0 1 -3.354166666666667 3.354166666666667H21.5625a3.355125 3.355125 0 0 1 -3.1625 -2.235791666666667" stroke-width="2"></path></g></svg>