<svg xmlns="http://www.w3.org/2000/svg" fill="none" viewBox="-1 -1 48 48" height="48" width="48"><g id="fish--cook-cooking-fish-seanutrition-food-fish"><path id="Union" stroke="#000" stroke-linecap="round" stroke-linejoin="round" d="M28.75 37.375c8.625 0 14.375 -8.213875 14.375 -14.375S37.375 8.625 28.75 8.625c-7.662833333333334 0 -14.049166666666668 5.014958333333333 -17.457958333333334 9.272833333333335a10.330833333333333 10.330833333333333 0 0 0 -0.7666666666666667 -2.090125c-1.043625 -2.146666666666667 -3.4365833333333335 -3.6292083333333336 -5.155833333333334 -4.4610416666666675 -1.0158333333333334 -0.4925833333333334 -2.1390000000000002 0.146625 -2.2808333333333333 1.2659583333333333 -0.27791666666666665 2.1811666666666665 -0.462875 5.605291666666667 0.6334583333333333 7.861208333333333 0.5481666666666667 1.1279583333333334 1.158625 1.9588333333333334 1.796875 2.5261666666666667 -0.6382500000000001 0.5673333333333334 -1.2487083333333333 1.3982083333333335 -1.796875 2.5261666666666667 -1.0963333333333334 2.255916666666667 -0.911375 5.680041666666667 -0.6344166666666667 7.861208333333333 0.14279166666666668 1.1193333333333333 1.2669166666666667 1.7585416666666667 2.2817916666666664 1.2669166666666667 1.7192500000000002 -0.8327916666666667 4.112208333333334 -2.314375 5.155833333333334 -4.4610416666666675 0.3565 -0.7350416666666667 0.6085416666666666 -1.4336666666666666 0.7666666666666667 -2.091083333333333C14.700833333333334 32.36004166666667 21.08716666666667 37.375 28.75 37.375Z" stroke-width="2"></path><path id="Ellipse 288 (Stroke)" stroke="#000" stroke-linecap="round" d="M28.11175 13.8c-3.243958333333333 4.5616666666666665 -3.243958333333333 13.839291666666668 0 18.4" stroke-width="2"></path><path id="Ellipse 288 (Stroke)_2" stroke="#000" stroke-linecap="round" d="M20.125 19.166666666666668c-0.6392083333333334 1.9003750000000001 -0.6392083333333334 5.7662916666666675 0 7.666666666666667" stroke-width="2"></path><path id="Vector 1387" stroke="#000" stroke-linecap="round" d="m33.54166666666667 19.166666666666668 0 0.9583333333333334" stroke-width="2"></path></g></svg>