<svg xmlns="http://www.w3.org/2000/svg" fill="none" viewBox="-1 -1 48 48" height="48" width="48"><g id="wrap-arch"><path id="Vector" stroke="#000" stroke-linecap="round" stroke-linejoin="round" d="M23 3.8333333333333335C12.422875 3.8333333333333335 6.622083333333333 7.6379166666666665 4.219541666666666 9.74625 3.2803750000000003 10.570416666666667 2.875 11.79325 2.875 13.041958333333334V41.21791666666667c0 0.92 1.3455 1.4614583333333333 2.0690416666666667 0.8941250000000001C7.694458333333333 39.95675000000001 13.365874999999999 36.8 23 36.8s15.304583333333335 3.155791666666667 18.055958333333336 5.313c0.7235416666666667 0.5673333333333334 2.0690416666666667 0.025875000000000002 2.0690416666666667 -0.8941250000000001V13.041c0 -1.2487083333333333 -0.4063333333333333 -2.4705833333333334 -1.3445416666666667 -3.2937916666666665C39.37791666666667 7.636958333333334 33.577125 3.8333333333333335 23 3.8333333333333335Z" stroke-width="2"></path><path id="Vector_2" stroke="#000" stroke-linecap="round" stroke-linejoin="round" d="M2.875 27.408333333333335S8.363375000000001 20.125 23 20.125s20.125 7.283333333333333 20.125 7.283333333333333" stroke-width="2"></path></g></svg>