<svg xmlns="http://www.w3.org/2000/svg" fill="none" viewBox="-1 -1 48 48" height="48" width="48"><g id="toast--bread-toast-breakfast"><path id="Union" stroke="#000" stroke-linecap="round" stroke-linejoin="round" d="M41.208333333333336 12.765c1.1940833333333334 1.0771666666666668 1.9166666666666667 2.5932500000000003 1.9166666666666667 4.485 0 2.7590416666666666 -1.5362083333333334 4.718833333333333 -3.8333333333333335 5.681958333333334 0 6.0375 -0.15716666666666668 11.306416666666667 -0.299 14.819666666666668 -0.10733333333333334 2.669916666666667 -2.08725 4.844375 -4.751416666666667 5.056166666666667 -2.143791666666667 0.169625 -4.992916666666667 0.31625000000000003 -8.42375 0.31625000000000003 -3.35225 0 -6.149625 -0.13991666666666666 -8.276166666666667 -0.30570833333333336 -1.96075 -0.15141666666666667 -3.54775 -1.36275 -4.310583333333334 -3.0475000000000003" stroke-width="2"></path><path id="Union_2" stroke="#000" stroke-linecap="round" stroke-linejoin="round" d="M9.522958333333333 3.2516249999999998C5.755750000000001 3.526666666666667 2.875 5.805583333333334 2.875 9.583333333333334c0 2.7762916666666664 1.555375 4.742791666666666 3.8754999999999997 5.699208333333334 0.056541666666666664 5.944541666666667 0.15812500000000002 11.143500000000001 0.23958333333333334 14.652916666666666 0.06420833333333334 2.737 2.0700000000000003 5.005375 4.80125 5.2171666666666665 2.1275000000000004 0.16483333333333333 4.923916666666667 0.30570833333333336 8.277125000000002 0.30570833333333336 3.4298750000000005 0 6.279 -0.14758333333333334 8.42375 -0.31720833333333337 2.6641666666666666 -0.21083333333333334 4.6431249999999995 -2.3862500000000004 4.7504583333333334 -5.056166666666667 0.14183333333333334 -3.512291666666667 0.2999583333333333 -8.782166666666667 0.299 -14.819666666666668 2.297125 -0.9631249999999999 3.8333333333333335 -2.9229166666666666 3.8333333333333335 -5.681958333333334 0 -3.77775 -2.8797916666666667 -6.0566666666666675 -6.647958333333333 -6.331708333333334A146.74 146.74 0 0 0 20.125 2.875c-4.223375 0 -7.843 0.17633333333333334 -10.602041666666668 0.37662500000000004Z" stroke-width="2"></path><path id="Vector 1410" stroke="#000" stroke-linecap="round" stroke-linejoin="round" d="M19.166666666666668 11.5v0.9583333333333334" stroke-width="2"></path><path id="Vector 1411" stroke="#000" stroke-linecap="round" stroke-linejoin="round" d="M26.833333333333336 20.125v0.9583333333333334" stroke-width="2"></path><path id="Vector 1412" stroke="#000" stroke-linecap="round" stroke-linejoin="round" d="M15.333333333333334 24.916666666666668v0.9583333333333334" stroke-width="2"></path></g></svg>