<svg xmlns="http://www.w3.org/2000/svg" fill="none" viewBox="-1 -1 48 48" height="48" width="48"><g id="dumbell--sports-weights-dumbbell-sport-fitness-hotel"><path id="Rectangle 1096" stroke="#000" stroke-linecap="round" stroke-linejoin="round" d="M8.722750000000001 13.155041666666667c0.03066666666666667 -1.2659583333333333 0.7475 -2.3987083333333334 2.0048333333333335 -2.544375 0.36225 -0.042166666666666665 0.7781666666666668 -0.06899999999999999 1.2515833333333335 -0.06899999999999999s0.8893333333333334 0.026833333333333334 1.2515833333333335 0.06899999999999999c1.2582916666666666 0.14566666666666667 1.9741666666666668 1.2784166666666668 2.0048333333333335 2.544375 0.04504166666666667 1.863 0.09775 5.069583333333334 0.09775 9.844958333333333s-0.052708333333333336 7.981958333333334 -0.09775 9.844958333333333c-0.03066666666666667 1.2659583333333333 -0.7475 2.3987083333333334 -2.0048333333333335 2.544375 -0.36225 0.042166666666666665 -0.7781666666666668 0.06899999999999999 -1.2515833333333335 0.06899999999999999s-0.8893333333333334 -0.026833333333333334 -1.2515833333333335 -0.06899999999999999c-1.2582916666666666 -0.14566666666666667 -1.9741666666666668 -1.2784166666666668 -2.0048333333333335 -2.544375C8.677708333333333 30.981958333333335 8.625 27.775375 8.625 23s0.052708333333333336 -7.981958333333334 0.09775 -9.844958333333333Z" stroke-width="2"></path><path id="Rectangle 1100" stroke="#000" stroke-linecap="round" stroke-linejoin="round" d="M37.27725 13.155041666666667c-0.03066666666666667 -1.2659583333333333 -0.7475 -2.3987083333333334 -2.0048333333333335 -2.544375A10.894333333333334 10.894333333333334 0 0 0 34.020833333333336 10.541666666666668c-0.47341666666666665 0 -0.8893333333333334 0.026833333333333334 -1.2515833333333335 0.06899999999999999 -1.2582916666666666 0.14566666666666667 -1.9741666666666668 1.2784166666666668 -2.0048333333333335 2.544375C30.719375 15.018041666666667 30.666666666666668 18.224625 30.666666666666668 23s0.052708333333333336 7.981958333333334 0.09775 9.844958333333333c0.03066666666666667 1.2659583333333333 0.7475 2.3987083333333334 2.0048333333333335 2.544375 0.36225 0.042166666666666665 0.7781666666666668 0.06899999999999999 1.2515833333333335 0.06899999999999999s0.8893333333333334 -0.026833333333333334 1.2515833333333335 -0.06899999999999999c1.2582916666666666 -0.14566666666666667 1.9741666666666668 -1.2784166666666668 2.0048333333333335 -2.544375 0.04504166666666667 -1.863 0.09775 -5.069583333333334 0.09775 -9.844958333333333s-0.052708333333333336 -7.981958333333334 -0.09775 -9.844958333333333Z" stroke-width="2"></path><path id="Subtract" stroke="#000" stroke-linecap="round" stroke-linejoin="round" d="M15.326625000000002 25.85775a1239.21125 1239.21125 0 0 0 15.34675 -0.012458333333333333" stroke-width="2"></path><path id="Subtract_2" stroke="#000" stroke-linecap="round" stroke-linejoin="round" d="M30.672416666666667 20.153750000000002c-2.313416666666667 -0.01629166666666667 -5.175000000000001 -0.02875 -8.631708333333334 -0.02875 -2.5568333333333335 0 -4.789750000000001 0.0067083333333333335 -6.715041666666667 0.017249999999999998" stroke-width="2"></path><path id="Rectangle 1099" stroke="#000" stroke-linecap="round" stroke-linejoin="round" d="M2.927708333333334 18.01954166666667c0.034499999999999996 -1.4279166666666667 0.9430000000000001 -2.6335 2.370916666666667 -2.6795a14.375 14.375 0 0 1 0.9027499999999999 0c1.4279166666666667 0.046000000000000006 2.336416666666667 1.250625 2.370916666666667 2.6795C8.601041666666667 19.191583333333334 8.625 20.833208333333335 8.625 23c0 2.165833333333333 -0.024916666666666667 3.808416666666667 -0.052708333333333336 4.980458333333334 -0.034499999999999996 1.4279166666666667 -0.9430000000000001 2.6335 -2.370916666666667 2.6795a14.375 14.375 0 0 1 -0.9027499999999999 0c-1.4279166666666667 -0.046000000000000006 -2.336416666666667 -1.250625 -2.370916666666667 -2.6795C2.8989583333333333 26.808416666666666 2.875 25.16679166666667 2.875 23c0 -2.165833333333333 0.024916666666666667 -3.808416666666667 0.052708333333333336 -4.980458333333334Z" stroke-width="2"></path><path id="Rectangle 1101" stroke="#000" stroke-linecap="round" stroke-linejoin="round" d="M43.07229166666667 18.01954166666667c-0.034499999999999996 -1.4279166666666667 -0.9430000000000001 -2.6335 -2.370916666666667 -2.6795a14.371166666666667 14.371166666666667 0 0 0 -0.9027499999999999 0c-1.4279166666666667 0.046000000000000006 -2.336416666666667 1.250625 -2.370916666666667 2.6795C37.39895833333333 19.191583333333334 37.375 20.833208333333335 37.375 23c0 2.165833333333333 0.024916666666666667 3.808416666666667 0.052708333333333336 4.980458333333334 0.034499999999999996 1.4279166666666667 0.9430000000000001 2.6335 2.370916666666667 2.6795a14.371166666666667 14.371166666666667 0 0 0 0.9027499999999999 0c1.4279166666666667 -0.046000000000000006 2.336416666666667 -1.250625 2.370916666666667 -2.6795 0.02875 -1.1720416666666669 0.052708333333333336 -2.8136666666666668 0.052708333333333336 -4.980458333333334 0 -2.165833333333333 -0.024916666666666667 -3.808416666666667 -0.052708333333333336 -4.980458333333334Z" stroke-width="2"></path></g></svg>