<svg xmlns="http://www.w3.org/2000/svg" fill="none" viewBox="-1 -1 48 48" height="48" width="48"><g id="graph-bar-increase--up-product-performance-increase-arrow-graph-business-chart"><path id="Vector 79" stroke="#000" stroke-linecap="round" stroke-linejoin="round" d="M4.791666666666667 24.916666666666668c5.615833333333334 -6.669041666666667 10.718 -10.509083333333333 13.045791666666666 -12.086500000000001 0.7609166666666667 -0.5165416666666667 1.7642916666666668 -0.347875 2.3421666666666665 0.3670416666666667a90.96691666666666 90.96691666666666 0 0 1 3.1720833333333336 4.194625c0.7743333333333334 1.0848333333333333 2.4082916666666665 1.1193333333333333 3.266 0.09966666666666667C30.581375 12.784166666666668 35.93845833333333 8.145833333333334 35.93845833333333 8.145833333333334" stroke-width="2"></path><path id="Vector" stroke="#000" stroke-linecap="round" stroke-linejoin="round" d="M40.61033333333333 10.851208333333334c0.6363333333333334 -3.1002083333333332 0.6296250000000001 -5.833375 0.5759583333333333 -7.120416666666666a0.8625 0.8625 0 0 0 -0.8327916666666667 -0.83375 30.334125 30.334125 0 0 0 -7.120416666666666 0.5759583333333333c-0.7216250000000001 0.14758333333333334 -0.96025 1.0302083333333334 -0.44083333333333335 1.5505833333333334l6.2675 6.2675c0.5213333333333334 0.520375 1.403 0.28079166666666666 1.5505833333333334 -0.439875Z" stroke-width="2"></path><path id="Rectangle 56" stroke="#000" stroke-linecap="round" stroke-linejoin="round" d="M5.0475416666666675 43.086666666666666c-1.081 -0.035458333333333335 -1.909 -0.6890416666666667 -2.01825 -1.7642916666666668C2.942083333333333 40.47904166666667 2.875 39.2265 2.875 37.375s0.06899999999999999 -3.1050000000000004 0.15333333333333335 -3.947375c0.11020833333333334 -1.07525 0.9382083333333333 -1.7288333333333334 2.0192083333333337 -1.7652500000000002C5.68675 31.64129166666667 6.542541666666667 31.625 7.666666666666667 31.625s1.9799166666666665 0.01629166666666667 2.6191250000000004 0.03833333333333334c1.081 0.035458333333333335 1.909 0.6890416666666667 2.01825 1.7642916666666668 0.08625 0.8433333333333334 0.1542916666666667 2.095875 0.1542916666666667 3.947375s-0.06899999999999999 3.1050000000000004 -0.15333333333333335 3.947375c-0.11020833333333334 1.07525 -0.9382083333333333 1.7288333333333334 -2.0192083333333337 1.7652500000000002 -0.6401666666666668 0.021083333333333332 -1.495 0.037375 -2.6191250000000004 0.037375s-1.9799166666666665 -0.01629166666666667 -2.6191250000000004 -0.03833333333333334Z" stroke-width="2"></path><path id="Rectangle 57" stroke="#000" stroke-linecap="round" stroke-linejoin="round" d="M35.992125 43.061749999999996c-1.2458333333333333 -0.07666666666666667 -2.1112083333333334 -0.9755833333333334 -2.201291666666667 -2.2204583333333336C33.668166666666664 39.15366666666667 33.54166666666667 36.09754166666667 33.54166666666667 30.666666666666668c0 -5.4318333333333335 0.1265 -8.487 0.24916666666666668 -10.174625 0.09008333333333333 -1.244875 0.9554583333333334 -2.14475 2.201291666666667 -2.2204583333333336C36.595875 18.234208333333335 37.36541666666667 18.208333333333336 38.333333333333336 18.208333333333336s1.7374583333333333 0.025875000000000002 2.3412083333333333 0.06325c1.2458333333333333 0.07666666666666667 2.1112083333333334 0.9755833333333334 2.201291666666667 2.2204583333333336 0.12266666666666667 1.687625 0.24916666666666668 4.74375 0.24916666666666668 10.174625 0 5.4318333333333335 -0.1265 8.487 -0.24916666666666668 10.174625 -0.09008333333333333 1.244875 -0.9554583333333334 2.14475 -2.201291666666667 2.2204583333333336 -0.60375 0.037375 -1.3723333333333334 0.06325 -2.3412083333333333 0.06325 -0.9679166666666668 0 -1.7374583333333333 -0.025875000000000002 -2.3412083333333333 -0.06325Z" stroke-width="2"></path><path id="Rectangle 58" stroke="#000" stroke-linecap="round" stroke-linejoin="round" d="M20.604166666666668 43.079c-1.2113333333333334 -0.052708333333333336 -2.095875 -0.8625 -2.1974583333333335 -2.0700000000000003C18.30225 39.76508333333334 18.208333333333336 37.74491666666667 18.208333333333336 34.5c0 -3.244916666666667 0.09391666666666668 -5.265083333333333 0.198375 -6.509 0.10158333333333333 -1.2075 0.9861249999999999 -2.017291666666667 2.1965 -2.0700000000000003A54.950833333333335 54.950833333333335 0 0 1 23 25.875c0.9985833333333334 0 1.7844166666666668 0.01916666666666667 2.3958333333333335 0.046000000000000006 1.2113333333333334 0.052708333333333336 2.095875 0.8625 2.1974583333333335 2.0700000000000003 0.10445833333333333 1.2439166666666668 0.198375 3.2640833333333337 0.198375 6.509 0 3.244916666666667 -0.09391666666666668 5.265083333333333 -0.198375 6.509 -0.10158333333333333 1.2075 -0.9861249999999999 2.017291666666667 -2.1965 2.0700000000000003 -0.612375 0.026833333333333334 -1.3982083333333335 0.046000000000000006 -2.3967916666666667 0.046000000000000006a55.056250000000006 55.056250000000006 0 0 1 -2.3958333333333335 -0.046000000000000006Z" stroke-width="2"></path></g></svg>