<svg xmlns="http://www.w3.org/2000/svg" fill="none" viewBox="-1 -1 48 48" height="48" width="48"><g id="recycle-bin-3--remove-delete-empty-bin-trash-garbage"><path id="Rectangle 64" stroke="#000" stroke-linecap="round" stroke-linejoin="round" d="M7.427083333333334 30.666666666666668s3.336916666666667 0.9583333333333334 15.572916666666668 0.9583333333333334 15.572916666666668 -0.9583333333333334 15.572916666666668 -0.9583333333333334" stroke-width="2"></path><path id="Rectangle 65" stroke="#000" stroke-linecap="round" stroke-linejoin="round" d="M6.229166666666667 19.166666666666668s3.59375 0.9583333333333334 16.770833333333336 0.9583333333333334 16.770833333333336 -0.9583333333333334 16.770833333333336 -0.9583333333333334" stroke-width="2"></path><path id="Rectangle 59" stroke="#000" stroke-linecap="round" stroke-linejoin="round" d="M42.91033333333334 7.221041666666667c-0.28654166666666664 0.8490833333333334 -1.2094166666666668 1.1480833333333333 -2.1045000000000003 1.1835416666666667C38.64 8.488916666666668 33.534958333333336 8.625 23 8.625 12.465041666666666 8.625 7.359041666666667 8.488916666666668 5.194166666666667 8.404583333333333c-0.8950833333333335 -0.035458333333333335 -1.8179583333333333 -0.3344583333333333 -2.1045000000000003 -1.1835416666666667C2.966041666666667 6.849208333333334 2.875 6.368125 2.875 5.75c0 -0.6171666666666668 0.09008333333333333 -1.0992083333333333 0.21466666666666667 -1.4710416666666666 0.28654166666666664 -0.8490833333333334 1.2094166666666668 -1.1480833333333333 2.1045000000000003 -1.1835416666666667C7.36 3.0110833333333336 12.465041666666666 2.875 23 2.875c10.534958333333334 0 15.640958333333336 0.13608333333333333 17.805833333333332 0.22041666666666668 0.8950833333333335 0.035458333333333335 1.8179583333333333 0.3344583333333333 2.1045000000000003 1.1835416666666667 0.12458333333333334 0.37183333333333335 0.21466666666666667 0.8529166666666668 0.21466666666666667 1.4710416666666666 0 0.6171666666666668 -0.09008333333333333 1.0992083333333333 -0.21466666666666667 1.4710416666666666Z" stroke-width="2"></path><path id="Subtract" stroke="#000" stroke-linecap="round" stroke-linejoin="round" d="M4.938291666666666 8.386375c1.7125416666666666 19.297 3.401125 27.791666666666668 4.187916666666667 30.972375000000003 0.2645 1.0742916666666666 0.9477916666666667 1.9626666666666668 1.9933333333333334 2.3268333333333335C12.911625 42.31041666666667 16.497708333333335 43.125 23 43.125s10.087416666666666 -0.8145833333333333 11.880458333333333 -1.4394166666666668c1.0455416666666666 -0.3641666666666667 1.7288333333333334 -1.2525416666666667 1.9942916666666668 -2.3268333333333335 0.7858333333333333 -3.1797500000000003 2.4744166666666665 -11.675375 4.186958333333333 -30.972375000000003" stroke-width="2"></path><path id="Vector 1477" stroke="#000" stroke-linecap="round" stroke-linejoin="round" d="M23 8.625v34.5" stroke-width="2"></path></g></svg>