<svg xmlns="http://www.w3.org/2000/svg" fill="none" viewBox="-1 -1 48 48" height="48" width="48"><g id="smiley-drool"><path id="Ellipse 18" stroke="#000" stroke-linejoin="round" d="M43.125 23c0 11.11475 -9.01025 20.125 -20.125 20.125S2.875 34.11475 2.875 23 11.88525 2.875 23 2.875s20.125 9.01025 20.125 20.125Z" stroke-width="2"></path><path id="Ellipse 22" stroke="#000" stroke-linecap="round" stroke-linejoin="round" d="M10.541666666666668 18.208333333333336c0.7829583333333333 -2.7580833333333334 3.786375 -4.394916666666667 6.708333333333334 -3.656041666666667" stroke-width="2"></path><path id="Ellipse 151" stroke="#000" stroke-linecap="round" stroke-linejoin="round" d="M35.458333333333336 18.208333333333336c-0.7829583333333333 -2.7580833333333334 -3.786375 -4.394916666666667 -6.708333333333334 -3.656041666666667" stroke-width="2"></path><path id="Union" stroke="#000" stroke-linejoin="round" d="m29.708333333333336 33.30016666666666 0.011500000000000002 -0.007666666666666667A2.3958333333333335 2.3958333333333335 0 0 0 34.5 33.0625V25.875a1.9166666666666667 1.9166666666666667 0 0 0 -1.9147500000000002 -1.9166666666666667H13.41475c-1.058 0 -1.9310416666666668 0.8644166666666667 -1.756625 1.909C12.567583333333335 31.310666666666666 17.29791666666667 35.458333333333336 23 35.458333333333336c0.32295833333333335 0 0.6420833333333335 -0.013416666666666667 0.9583333333333334 -0.03929166666666667V35.458333333333336a2.875 2.875 0 0 0 5.75 0v-2.1581666666666663Z" stroke-width="2"></path></g></svg>