<svg xmlns="http://www.w3.org/2000/svg" fill="none" viewBox="-1 -1 48 48" height="48" width="48"><g id="credit-card-5--deposit-payment-finance-atm-withdraw-atm"><path id="Rectangle 56" stroke="#000" stroke-linecap="round" stroke-linejoin="round" d="M42.43404166666667 17.25c0.17825 -0.30091666666666667 0.3037916666666667 -0.644 0.3641666666666667 -1.0273333333333334 0.17920833333333333 -1.1385 0.3267916666666667 -2.8040833333333337 0.3267916666666667 -5.199916666666667s-0.14758333333333334 -4.061416666666667 -0.32583333333333336 -5.199916666666667c-0.23670833333333333 -1.497875 -1.4720000000000002 -2.3929583333333335 -2.9832916666666667 -2.5079583333333333 -2.582708333333333 -0.1945416666666667 -7.639833333333334 -0.4379583333333334 -16.815875000000002 -0.4379583333333334s-14.233166666666667 0.24341666666666667 -16.815875000000002 0.4379583333333334c-1.5112916666666667 0.115 -2.7465833333333336 1.0100833333333334 -2.9823333333333335 2.5079583333333333C3.0225833333333334 6.961333333333334 2.875 8.626916666666668 2.875 11.02275s0.14758333333333334 4.061416666666667 0.32583333333333336 5.199916666666667c0.06133333333333334 0.38333333333333336 0.186875 0.7264166666666667 0.36512500000000003 1.0273333333333334" stroke-width="2"></path><path id="Intersect" stroke="#000" stroke-linecap="round" stroke-linejoin="round" d="M34.80283333333334 9.547875c1.440375 0.11979166666666667 2.534791666666667 1.3225 2.549166666666667 2.768625 0.058458333333333334 5.573666666666667 0.022041666666666668 13.520166666666668 -0.32583333333333336 23.5865 -0.09008333333333333 2.572166666666667 -1.9070833333333335 4.699666666666666 -4.470625 4.930625 -2.2271666666666667 0.20029166666666667 -5.382 0.37470833333333337 -9.610166666666668 0.37470833333333337 -4.205166666666667 0 -7.3293333333333335 -0.1725 -9.530625 -0.37183333333333335 -2.549166666666667 -0.23 -4.350833333333333 -2.3469583333333333 -4.439 -4.904750000000001C8.625 25.85104166666667 8.589541666666666 17.89495833333333 8.647041666666667 12.316500000000001c0.015333333333333334 -1.4451666666666667 1.10975 -2.648833333333333 2.550125 -2.7695833333333337 2.9574166666666666 -0.24533333333333335 6.859750000000001 -0.44083333333333335 11.802833333333334 -0.44083333333333335s8.845416666666667 0.1955 11.802833333333334 0.44083333333333335Z" stroke-width="2"></path><path id="Intersect_2" stroke="#000" stroke-linecap="round" stroke-linejoin="round" d="m23.958333333333336 41.20545833333333 0 -32.0965" stroke-width="2"></path><path id="Intersect_3" stroke="#000" stroke-linecap="round" stroke-linejoin="round" d="m30.666666666666668 40.97833333333333 0 -31.699750000000005" stroke-width="2"></path><path id="Rectangle 62" stroke="#000" stroke-linecap="round" stroke-linejoin="round" d="M16.503458333333334 35.458333333333336c-1.095375 0 -2.0105833333333334 -0.7542083333333334 -2.0747916666666666 -1.8476666666666666A33.84258333333334 33.84258333333334 0 0 1 14.375 31.625c0 -0.8002083333333333 0.022041666666666668 -1.4566666666666668 0.05366666666666667 -1.985666666666667C14.492875 28.545875 15.408083333333334 27.791666666666668 16.5025 27.791666666666668l0.5347500000000001 0c1.095375 0 2.0105833333333334 0.7542083333333334 2.07575 1.8476666666666666 0.03066666666666667 0.529 0.052708333333333336 1.1854583333333335 0.052708333333333336 1.985666666666667s-0.022041666666666668 1.4566666666666668 -0.052708333333333336 1.985666666666667C19.048791666666666 34.704125000000005 18.133583333333334 35.458333333333336 17.038208333333333 35.458333333333336h-0.5347500000000001Z" stroke-width="2"></path></g></svg>