<svg xmlns="http://www.w3.org/2000/svg" fill="none" viewBox="-1 -1 48 48" height="48" width="48"><g id="shopping-basket-1--shopping-basket"><path id="Rectangle 1095" stroke="#000" stroke-linecap="round" stroke-linejoin="round" d="M2.9708333333333337 21.457083333333333c0.23670833333333333 1.5764583333333335 1.7662083333333334 2.346 3.360875 2.376666666666667 2.8558333333333334 0.052708333333333336 8.255083333333335 0.12458333333333334 16.66829166666667 0.12458333333333334 8.414166666666667 0 13.812458333333334 -0.071875 16.66829166666667 -0.12458333333333334 1.5946666666666667 -0.03066666666666667 3.1241666666666665 -0.8002083333333333 3.3618333333333337 -2.376666666666667 0.0575 -0.3900416666666667 0.09487500000000001 -0.83375 0.09487500000000001 -1.3320833333333333 0 -0.49833333333333335 -0.03641666666666667 -0.9420416666666667 -0.09583333333333334 -1.3320833333333333 -0.23670833333333333 -1.5764583333333335 -1.7662083333333334 -2.346 -3.360875 -2.376666666666667C36.81245833333333 16.3645 31.41416666666667 16.291666666666668 23 16.291666666666668c-8.414166666666667 0 -13.812458333333334 0.071875 -16.66829166666667 0.12458333333333334 -1.5946666666666667 0.03066666666666667 -3.1241666666666665 0.8002083333333333 -3.3618333333333337 2.376666666666667C2.9133333333333336 19.182958333333335 2.875 19.62666666666667 2.875 20.125c0 0.49833333333333335 0.03641666666666667 0.9420416666666667 0.09583333333333334 1.3320833333333333Z" stroke-width="2"></path><path id="Subtract" stroke="#000" stroke-linecap="round" stroke-linejoin="round" d="M6.1295 23.825125c0.41975 3.5765000000000002 1.216125 9.256541666666667 2.5424583333333333 14.81775a5.156791666666667 5.156791666666667 0 0 0 4.475416666666667 3.9540833333333336c2.411166666666667 0.25875000000000004 5.874583333333334 0.5280416666666667 9.851666666666667 0.5280416666666667 3.979 0 7.441458333333333 -0.26833333333333337 9.851666666666667 -0.5280416666666667a5.156791666666667 5.156791666666667 0 0 0 4.476375 -3.9540833333333336c1.3263333333333334 -5.561208333333333 2.122708333333333 -11.24125 2.5424583333333333 -14.81775" stroke-width="2"></path><path id="Rectangle 1096" stroke="#000" stroke-linecap="round" stroke-linejoin="round" d="M28.749041666666667 5.981916666666667c-0.01916666666666667 1.5333333333333334 -1.2650000000000001 2.576 -2.7983333333333333 2.6114583333333337C25.168708333333335 8.612541666666667 24.190250000000002 8.625 23 8.625c-1.1883333333333335 0 -2.1677500000000003 -0.013416666666666667 -2.9516666666666667 -0.031625 -1.5333333333333334 -0.035458333333333335 -2.779166666666667 -1.078125 -2.797375 -2.6114583333333337a20.34254166666667 20.34254166666667 0 0 1 0 -0.4638333333333333c0.01916666666666667 -1.5333333333333334 1.2650000000000001 -2.576 2.7983333333333333 -2.6114583333333337C20.831291666666665 2.8874583333333335 21.80975 2.875 23 2.875c1.1883333333333335 0 2.1677500000000003 0.013416666666666667 2.9516666666666667 0.031625 1.5333333333333334 0.035458333333333335 2.779166666666667 1.078125 2.797375 2.6114583333333337a20.34254166666667 20.34254166666667 0 0 1 0 0.4638333333333333Z" stroke-width="2"></path><path id="Vector 831" stroke="#000" stroke-linecap="round" stroke-linejoin="round" d="m15.333333333333334 29.708333333333336 0.9583333333333334 6.708333333333334" stroke-width="2"></path><path id="Vector 832" stroke="#000" stroke-linecap="round" stroke-linejoin="round" d="m30.666666666666668 29.708333333333336 -0.9583333333333334 6.708333333333334" stroke-width="2"></path><path id="Vector 866" stroke="#000" stroke-linecap="round" stroke-linejoin="round" d="m23 29.708333333333336 0 6.708333333333334" stroke-width="2"></path><path id="Vector 1601" stroke="#000" stroke-linecap="round" stroke-linejoin="round" d="M17.25 5.75h-2.7954583333333334c-1.2515833333333335 0 -2.4226666666666667 0.6085416666666666 -3.0887083333333334 1.6675C10.179416666666667 9.3035 8.246458333333335 12.599208333333333 6.708333333333334 16.291666666666668" stroke-width="2"></path><path id="Vector 1602" stroke="#000" stroke-linecap="round" stroke-linejoin="round" d="M28.75 5.75h2.7954583333333334c1.2515833333333335 0 2.4226666666666667 0.6085416666666666 3.0887083333333334 1.6675C35.82058333333333 9.3035 37.75354166666667 12.599208333333333 39.29166666666667 16.291666666666668" stroke-width="2"></path></g></svg>