<svg xmlns="http://www.w3.org/2000/svg" fill="none" viewBox="-1 -1 48 48" height="48" width="48"><g id="earpods--airpods-audio-earpods-music-earbuds-true-wireless-entertainment"><path id="Union" stroke="#000" stroke-linecap="round" stroke-linejoin="round" d="M2.836666666666667 12.901083333333334c0 -1.4882916666666666 0.12458333333333334 -2.738916666666667 0.30762500000000004 -3.7729583333333334 0.4935416666666667 -2.7925833333333334 2.8529583333333335 -4.6 5.623500000000001 -5.208541666666666a47.066625 47.066625 0 0 1 7.781666666666666 -1.0359583333333333c1.3474166666666667 -0.06516666666666668 2.5300000000000002 0.56925 2.8175 1.8879166666666667 0.313375 1.4451666666666667 0.6095 3.926291666666667 0.6095 8.143916666666666 0 4.216666666666667 -0.29708333333333337 6.69875 -0.6104583333333333 8.142958333333334 -0.28558333333333336 1.319625 -1.4681666666666668 1.9559583333333332 -2.814625 1.8620416666666668a49.919583333333335 49.919583333333335 0 0 1 -4.5674166666666665 -0.5558333333333333v17.957250000000002a2.875 2.875 0 0 1 -2.875 2.875H7.6388750000000005a2.842416666666667 2.842416666666667 0 0 1 -2.836666666666667 -2.516583333333333c-0.6200416666666667 -5.451958333333334 -1.9981250000000002 -18.602208333333337 -1.9981250000000002 -27.779208333333333h0.031625Z" stroke-width="2"></path><path id="Intersect" stroke="#000" stroke-linecap="round" stroke-linejoin="round" d="M11.983 34.107083333333335a239.87083333333337 239.87083333333337 0 0 0 -7.874625000000001 0.02875" stroke-width="2"></path><path id="Union_2" stroke="#000" stroke-linecap="round" stroke-linejoin="round" d="M43.16525 12.901083333333334c-0.0009583333333333334 -1.4882916666666666 -0.1255416666666667 -2.738916666666667 -0.3085833333333334 -3.7729583333333334 -0.4935416666666667 -2.7925833333333334 -2.8529583333333335 -4.6 -5.623500000000001 -5.208541666666666a47.066625 47.066625 0 0 0 -7.781666666666666 -1.0359583333333333c-1.3474166666666667 -0.06516666666666668 -2.5300000000000002 0.56925 -2.8175 1.8879166666666667 -0.313375 1.4451666666666667 -0.6095 3.926291666666667 -0.6095 8.143916666666666 0 4.216666666666667 0.29708333333333337 6.69875 0.6104583333333333 8.142958333333334 0.28654166666666664 1.319625 1.4681666666666668 1.9559583333333332 2.814625 1.8620416666666668a49.914791666666666 49.914791666666666 0 0 0 4.5674166666666665 -0.5558333333333333v17.957250000000002a2.875 2.875 0 0 0 2.875 2.875h1.4700833333333334a2.842416666666667 2.842416666666667 0 0 0 2.836666666666667 -2.516583333333333c0.6200416666666667 -5.451958333333334 1.9981250000000002 -18.602208333333337 1.9981250000000002 -27.779208333333333h-0.031625Z" stroke-width="2"></path><path id="Intersect_2" stroke="#000" stroke-linecap="round" stroke-linejoin="round" d="M34.017 34.107083333333335a239.86891666666668 239.86891666666668 0 0 1 7.874625000000001 0.02875" stroke-width="2"></path></g></svg>