<svg xmlns="http://www.w3.org/2000/svg" fill="none" viewBox="-1 -1 48 48" height="48" width="48"><g id="auto-flash"><path id="Union" stroke="#000" stroke-linecap="round" stroke-linejoin="round" d="M11.527791666666667 24.14041666666667a58.95666666666667 58.95666666666667 0 0 1 -7.15875 -1.4787083333333333c-1.7748333333333335 -0.4906666666666667 -2.392 -2.5300000000000002 -1.285125 -4.002958333333333C5.753833333333334 15.105250000000002 10.6375 8.84925 15.971583333333335 3.200833333333333c1.4758333333333333 -1.5601666666666667 3.9675 -0.43125 3.804583333333334 1.710625 -0.3373333333333333 4.3853333333333335 -0.76475 7.741416666666667 -1.060875 10.695958333333333a45.26495833333333 45.26495833333333 0 0 1 7.861208333333333 1.8620416666666668c1.676125 0.5644583333333333 2.200333333333333 2.5300000000000002 1.1404166666666666 3.9444999999999997 -2.6402083333333333 3.519 -7.598625 9.891916666666667 -13.02375 15.635208333333335 -1.4739166666666668 1.5620833333333333 -3.993375 0.43125 -3.8927500000000004 -1.7144583333333334 0.215625 -4.577 0.42933333333333334 -8.217708333333333 0.727375 -11.193333333333333Z" stroke-width="2"></path><path id="Vector 1" stroke="#000" stroke-linecap="round" stroke-linejoin="round" d="m26.833333333333336 43.125 2.044125 -5.75m0 0 3.604291666666667 -10.136291666666667C32.771166666666666 26.424125 33.58383333333333 25.875 34.5 25.875s1.7288333333333334 0.549125 2.01825 1.3637083333333335L40.121583333333334 37.375m-11.244125 0h11.245083333333334m0 0L42.16666666666667 43.125" stroke-width="2"></path></g></svg>