<svg xmlns="http://www.w3.org/2000/svg" fill="none" viewBox="-1 -1 48 48" height="48" width="48"><g id="border-frame--border-cell-format-formatting-full"><path id="Vector 999" stroke="#000" stroke-linecap="round" stroke-linejoin="round" d="M23 17.25v11.5" stroke-width="2"></path><path id="Vector 1000" stroke="#000" stroke-linecap="round" stroke-linejoin="round" d="m28.75 23 -11.5 0" stroke-width="2"></path><path id="Vector 1004" stroke="#000" stroke-linecap="round" stroke-linejoin="round" d="m2.875 23 7.666666666666667 0" stroke-width="2"></path><path id="Vector 1008" stroke="#000" stroke-linecap="round" stroke-linejoin="round" d="m23 2.875 0 7.666666666666667" stroke-width="2"></path><path id="Vector 1006" stroke="#000" stroke-linecap="round" stroke-linejoin="round" d="m43.125 23 -7.666666666666667 0" stroke-width="2"></path><path id="Vector 1009" stroke="#000" stroke-linecap="round" stroke-linejoin="round" d="m23 43.125 0 -7.666666666666667" stroke-width="2"></path><path id="Rectangle 1096" stroke="#000" stroke-linecap="round" stroke-linejoin="round" d="M42.60845833333333 7.912958333333333c-0.19933333333333333 -2.448541666666667 -2.072875 -4.3220833333333335 -4.521416666666667 -4.521416666666667C34.993541666666665 3.1404583333333336 30.057166666666667 2.875 23 2.875c-7.057166666666667 0 -11.993541666666667 0.26545833333333335 -15.087041666666668 0.5165416666666667 -2.448541666666667 0.19933333333333333 -4.3220833333333335 2.072875 -4.521416666666667 4.521416666666667C3.1404583333333336 11.006458333333333 2.875 15.942833333333333 2.875 23c0 7.057166666666667 0.26545833333333335 11.993541666666667 0.5165416666666667 15.087041666666668 0.19933333333333333 2.448541666666667 2.072875 4.3220833333333335 4.521416666666667 4.521416666666667C11.006458333333333 42.859541666666665 15.942833333333333 43.125 23 43.125c7.057166666666667 0 11.993541666666667 -0.26545833333333335 15.087041666666668 -0.5165416666666667 2.448541666666667 -0.19933333333333333 4.3220833333333335 -2.072875 4.521416666666667 -4.521416666666667C42.859541666666665 34.993541666666665 43.125 30.057166666666667 43.125 23c0 -7.057166666666667 -0.26545833333333335 -11.993541666666667 -0.5165416666666667 -15.087041666666668Z" stroke-width="2"></path></g></svg>