<svg xmlns="http://www.w3.org/2000/svg" fill="none" viewBox="-1 -1 48 48" height="48" width="48"><g id="heart-rate-pulse-graph"><path id="Vector 8" stroke="#000" stroke-linecap="round" stroke-linejoin="round" d="M40.995583333333336 25.335458333333335c1.9741666666666668 -3.1634583333333337 2.61625 -7.082083333333333 1.7575833333333335 -10.727583333333335 -1.83425 -8.301083333333334 -11.98875 -11.692625000000001 -18.31375 -6.1295 -0.5012083333333334 0.43700000000000006 -0.9468333333333333 0.9420416666666667 -1.4394166666666668 1.4451666666666667 -0.4925833333333334 -0.503125 -0.9391666666666667 -1.0081666666666667 -1.4394166666666668 -1.4451666666666667 -6.325 -5.563125 -16.4795 -2.1715833333333334 -18.31375 6.1295 -0.8577083333333334 3.6445416666666666 -0.215625 7.564125 1.7575833333333335 10.727583333333335 3.452875 5.5449166666666665 9.020791666666668 9.86125 14.451666666666668 13.775083333333335a6.078708333333333 6.078708333333333 0 0 0 7.087833333333333 0c5.430875 -3.9128750000000005 10.998791666666667 -8.230166666666666 14.451666666666668 -13.775083333333335Z" stroke-width="2"></path><path id="Vector 1158" stroke="#000" stroke-linecap="round" stroke-linejoin="round" d="M8.625 22.041666666666668h5.75l3.354166666666667 -5.75L23 28.75l5.75 -15.333333333333334 3.8333333333333335 8.625h4.791666666666667" stroke-width="2"></path></g></svg>