<svg xmlns="http://www.w3.org/2000/svg" fill="none" viewBox="-1 -1 48 48" height="48" width="48"><g id="camera-1--photos-picture-camera-photography-photo-pictures"><path id="Union" stroke="#000" stroke-linejoin="round" d="M13.48375 10.34425c-2.090125 0.06995833333333333 -3.841 0.15620833333333334 -5.251666666666667 0.24150000000000002 -2.5999583333333334 0.15716666666666668 -4.653666666666667 2.1418749999999998 -4.884625000000001 4.737041666666666A119.27416666666666 119.27416666666666 0 0 0 2.875 25.744666666666667c0 4.079625 0.23575000000000002 7.752916666666667 0.47245833333333337 10.420916666666667 0.23095833333333332 2.595166666666667 2.284666666666667 4.5808333333333335 4.885583333333334 4.737041666666666 3.1845416666666666 0.19166666666666668 8.102708333333334 0.39291666666666664 14.766958333333335 0.39291666666666664 6.66425 0 11.582416666666667 -0.20125 14.767916666666668 -0.39291666666666664 2.5999583333333334 -0.15716666666666668 4.653666666666667 -2.1418749999999998 4.884625000000001 -4.737041666666666 0.23670833333333333 -2.6670416666666665 0.47245833333333337 -6.341291666666667 0.47245833333333337 -10.420916666666667 0 -4.080583333333333 -0.23575000000000002 -7.753875 -0.47245833333333337 -10.421875 -0.23095833333333332 -2.595166666666667 -2.284666666666667 -4.579875 -4.885583333333334 -4.737041666666666 -1.4097083333333336 -0.08529166666666667 -3.1605833333333333 -0.1725 -5.251666666666667 -0.24150000000000002l-1.3991666666666667 -2.885541666666667c-0.6823333333333333 -1.4049166666666666 -2.00675 -2.3862500000000004 -3.5630833333333336 -2.504125A60.85608333333334 60.85608333333334 0 0 0 23 4.791666666666667c-1.8515 0 -3.391541666666667 0.07570833333333334 -4.552083333333334 0.16291666666666668 -1.5572916666666667 0.11787500000000001 -2.8817083333333335 1.0992083333333333 -3.5630833333333336 2.504125l-1.400125 2.884583333333333Z" stroke-width="2"></path><path id="Ellipse 40" stroke="#000" stroke-linejoin="round" d="M14.375 24.916666666666668a8.625 8.625 0 1 0 17.25 0 8.625 8.625 0 1 0 -17.25 0" stroke-width="2"></path></g></svg>