<svg xmlns="http://www.w3.org/2000/svg" fill="none" viewBox="-1 -1 48 48" height="48" width="48"><g id="tree-1--nature-tree-plant-pine-triangle-park"><path id="Vector 8" stroke="#000" stroke-linecap="round" stroke-linejoin="round" d="M14.375 43.125h17.25" stroke-width="2"></path><path id="Union" stroke="#000" stroke-linecap="round" stroke-linejoin="round" d="M19.760833333333334 43.125s0.698625 -3.1366250000000004 0.8241666666666667 -10.362458333333334a202.67504166666666 202.67504166666666 0 0 1 -2.9813750000000003 -2.927708333333334 198.24754166666668 198.24754166666668 0 0 1 -3.0264166666666665 -3.0839166666666666c-0.692875 -0.7245 -0.8816666666666667 -1.7671666666666668 -0.19645833333333332 -2.4983750000000002a7.880375000000001 7.880375000000001 0 0 1 0.35170833333333335 -0.35075c0.7302500000000001 -0.6861666666666667 1.772916666666667 -0.49641666666666673 2.4974166666666666 0.19645833333333332a198.694125 198.694125 0 0 1 3.3953750000000005 3.336916666666667c0.06708333333333334 -4.848208333333334 0.2798333333333333 -7.704999999999999 0.3900416666666667 -8.897166666666667 0.04025 -0.43700000000000006 0.18591666666666667 -0.8768750000000001 0.5884166666666667 -1.0522500000000001 0.29133333333333333 -0.12745833333333334 0.7340833333333334 -0.23575000000000002 1.3962916666666667 -0.23575000000000002 0.6631666666666667 0 1.1059166666666667 0.10829166666666667 1.3962916666666667 0.23575000000000002 0.4025 0.175375 0.5481666666666667 0.6152500000000001 0.5884166666666667 1.0522500000000001 0.058458333333333334 0.6277083333333334 0.14566666666666667 1.7173333333333334 0.22425000000000003 3.3158333333333334l0.47725 -0.4791666666666667a199.57291666666669 199.57291666666669 0 0 1 3.0839166666666666 -3.0264166666666665c0.7245 -0.692875 1.7671666666666668 -0.8826250000000001 2.4983750000000002 -0.19645833333333332a7.870791666666666 7.870791666666666 0 0 1 0.35075 0.35075c0.6861666666666667 0.7312083333333333 0.49641666666666673 1.773875 -0.19645833333333332 2.4983750000000002 -0.6669999999999999 0.6967083333333334 -1.6579166666666667 1.7154166666666668 -3.0254583333333334 3.0839166666666666a200.89925 200.89925 0 0 1 -3.027375 2.9708333333333337c0.01629166666666667 1.0512916666666667 0.025875000000000002 2.1984166666666667 0.025875000000000002 3.447125 0 8.835833333333333 0.8442916666666667 12.622208333333333 0.8442916666666667 12.622208333333333" stroke-width="2"></path><path id="Subtract" stroke="#000" stroke-linecap="round" stroke-linejoin="round" d="M20.46329166666667 36.37929166666667a96.69583333333334 96.69583333333334 0 0 1 -7.5056666666666665 -0.5155833333333334c-4.2837499999999995 -0.46 -7.488416666666667 -4.070041666666667 -6.998708333333334 -8.350916666666667C7.475958333333334 14.25425 14.895375 1.9166666666666667 23 1.9166666666666667s15.524041666666669 12.337583333333335 17.041083333333333 25.597083333333334c0.48875 4.279916666666667 -2.7149583333333336 7.888999999999999 -6.998708333333334 8.349958333333333a96.70541666666666 96.70541666666666 0 0 1 -7.5056666666666665 0.5155833333333334" stroke-width="2"></path></g></svg>