<svg xmlns="http://www.w3.org/2000/svg" fill="none" viewBox="-1 -1 48 48" height="48" width="48"><g id="iris-scan--identification-retina-secure-security-iris-scan-eye-brackets"><path id="Intersect" stroke="#000" stroke-linecap="round" stroke-linejoin="round" d="M6.854 23.897000000000002a3.055166666666667 3.055166666666667 0 0 1 0 -1.7940000000000003C8.907708333333334 15.419583333333334 15.359208333333335 10.541666666666668 23 10.541666666666668c7.64175 0 14.09325 4.877916666666667 16.146958333333334 11.561333333333334 0.17920833333333333 0.5845833333333333 0.17920833333333333 1.2094166666666668 0 1.7940000000000003C37.093250000000005 30.580416666666668 30.641750000000002 35.458333333333336 23 35.458333333333336c-7.640791666666667 0 -14.092291666666668 -4.877916666666667 -16.146 -11.561333333333334Z" stroke-width="2"></path><path id="Ellipse 18" stroke="#000" stroke-linecap="round" stroke-linejoin="round" d="M16.291666666666668 23a6.708333333333334 6.708333333333334 0 1 0 13.416666666666668 0 6.708333333333334 6.708333333333334 0 1 0 -13.416666666666668 0" stroke-width="2"></path><path id="Vector" stroke="#000" stroke-linecap="round" stroke-linejoin="round" d="M12.458333333333334 2.875s-2.9574166666666666 0 -6.091166666666667 0.18495833333333334a3.5075000000000003 3.5075000000000003 0 0 0 -3.3062500000000004 3.3062500000000004C2.875 9.499958333333334 2.875 12.458333333333334 2.875 12.458333333333334M33.54166666666667 2.875s2.9574166666666666 0 6.091166666666667 0.18495833333333334a3.5075000000000003 3.5075000000000003 0 0 1 3.3062500000000004 3.3062500000000004C43.125 9.499958333333334 43.125 12.458333333333334 43.125 12.458333333333334M33.54166666666667 43.125s2.9574166666666666 0 6.091166666666667 -0.18495833333333334a3.5075000000000003 3.5075000000000003 0 0 0 3.3062500000000004 -3.3062500000000004C43.125 36.50004166666667 43.125 33.54166666666667 43.125 33.54166666666667M12.458333333333334 43.125s-2.9574166666666666 0 -6.091166666666667 -0.18495833333333334a3.5075000000000003 3.5075000000000003 0 0 1 -3.3062500000000004 -3.3062500000000004C2.875 36.50004166666667 2.875 33.54166666666667 2.875 33.54166666666667" stroke-width="2"></path></g></svg>