<svg xmlns="http://www.w3.org/2000/svg" fill="none" viewBox="-1 -1 48 48" height="48" width="48"><g id="balloon--hobby-entertainment-party-balloon"><path id="Ellipse 210" stroke="#000" stroke-linecap="round" stroke-linejoin="round" d="M25.875 16.122041666666668C25.875 10.830125 22.012916666666666 7.666666666666667 17.25 7.666666666666667" stroke-width="2"></path><path id="Vector 1914" stroke="#000" stroke-linecap="round" stroke-linejoin="round" d="M17.25 39.29166666666667c0.6392083333333334 1.5975416666666669 2.875 4.791666666666667 6.708333333333334 4.791666666666667 8.625 0 6.229166666666667 -5.75 20.125 -5.75" stroke-width="2"></path><path id="Ellipse 211" stroke="#000" stroke-linecap="round" stroke-linejoin="round" d="M31.625 15.446416666666666C31.625 23.914250000000003 25.188833333333335 32.583333333333336 17.25 32.583333333333336 9.311166666666667 32.583333333333336 2.875 23.914250000000003 2.875 15.446416666666666 2.875 6.9766666666666675 9.311166666666667 1.9166666666666667 17.25 1.9166666666666667c7.938833333333334 0 14.375 5.060958333333334 14.375 13.529750000000002Z" stroke-width="2"></path><path id="Rectangle 129" stroke="#000" stroke-linecap="round" stroke-linejoin="round" d="M15.517333333333335 39.246625c-1.7978333333333334 -0.09583333333333334 -2.6622500000000002 -1.584125 -1.6071250000000001 -3.042708333333333 0.10637500000000001 -0.14758333333333334 0.22041666666666668 -0.301875 0.3440416666666667 -0.4638333333333333C16.051125 33.373 17.249041666666667 32.583333333333336 17.249041666666667 32.583333333333336s1.1979166666666667 0.7896666666666666 2.994791666666667 3.15675c0.12266666666666667 0.16291666666666668 0.23766666666666666 0.31625000000000003 0.3440416666666667 0.4638333333333333 1.055125 1.4585833333333333 0.19070833333333334 2.9468750000000004 -1.6071250000000001 3.042708333333333a32.482708333333335 32.482708333333335 0 0 1 -3.463416666666667 0Z" stroke-width="2"></path></g></svg>