<svg xmlns="http://www.w3.org/2000/svg" fill="none" viewBox="-1 -1 48 48" height="48" width="48"><g id="select-circle-area-1--select-area-object-work"><path id="Ellipse 582" stroke="#000" stroke-linecap="round" stroke-linejoin="round" d="M25.875 3.0791250000000003c1.6004166666666666 0.22904166666666667 3.1414166666666667 0.6468750000000001 4.598083333333333 1.2295416666666665M20.125 3.0791250000000003c-1.5908333333333333 0.227125 -3.1203333333333334 0.6411250000000001 -4.5683750000000005 1.2170833333333333M25.875 42.92183333333333a19.987000000000002 19.987000000000002 0 0 0 4.598083333333333 -1.2295416666666665M20.125 42.92183333333333a19.990833333333335 19.990833333333335 0 0 1 -4.627791666666667 -1.242M42.920875 25.875a19.98604166666667 19.98604166666667 0 0 1 -1.2285833333333334 4.597125M42.920875 20.125a19.985083333333332 19.985083333333332 0 0 0 -1.2170833333333333 -4.5674166666666665M3.0791250000000003 20.125c0.23 -1.6119166666666667 0.6516666666666667 -3.1625 1.2410416666666666 -4.626833333333334M3.0791250000000003 25.875c0.22904166666666667 1.6004166666666666 0.6459166666666667 3.1414166666666667 1.2285833333333334 4.597125M35.423833333333334 7.166416666666667A20.243833333333335 20.243833333333335 0 0 1 38.8125 10.55125M10.55125 38.81441666666667a20.246708333333334 20.246708333333334 0 0 1 -3.383875 -3.389625m31.665250000000004 0a20.24575 20.24575 0 0 1 -3.4087916666666667 3.4087916666666667M7.186541666666667 10.55125a20.246708333333334 20.246708333333334 0 0 1 3.36375 -3.36375" stroke-width="2"></path></g></svg>