<svg xmlns="http://www.w3.org/2000/svg" fill="none" viewBox="-1 -1 48 48" height="48" width="48"><g id="toilet-women--travel-wayfinder-toilet-women"><path id="Union" stroke="#000" stroke-linecap="round" stroke-linejoin="round" d="M13.734833333333334 33.292500000000004c-1.70775 -0.09870833333333333 -2.8874583333333335 -1.69625 -2.42075 -3.3426666666666667 1.497875 -5.285208333333333 3.7183333333333333 -9.944625 4.976624999999999 -12.367291666666667 0.59225 -1.1423333333333334 1.6665416666666668 -1.9387083333333335 2.9468750000000004 -2.0709583333333335 0.928625 -0.09583333333333334 2.1830833333333333 -0.17825 3.7624166666666667 -0.17825 1.5802916666666667 0 2.8337916666666665 0.08145833333333334 3.7633750000000004 0.17825 1.279375 0.13225 2.353666666666667 0.9295833333333333 2.9468750000000004 2.0709583333333335 1.2573333333333334 2.4226666666666667 3.4787500000000002 7.082083333333333 4.975666666666667 12.367291666666667 0.46670833333333334 1.6454583333333335 -0.713 3.243958333333333 -2.42075 3.3417083333333335 -0.7935 0.04504166666666667 -1.7230833333333335 0.09104166666666667 -2.7772500000000004 0.1312916666666667l-0.5587083333333334 6.98625c-0.10541666666666667 1.3138750000000001 -1.0925 2.389125 -2.4054166666666665 2.5223333333333335 -1.0158333333333334 0.10254166666666667 -2.2693333333333334 0.19358333333333336 -3.523791666666667 0.19358333333333336 -1.2544583333333332 0 -2.5079583333333333 -0.09104166666666667 -3.523791666666667 -0.19358333333333336 -1.3129166666666667 -0.13416666666666668 -2.3 -1.2075 -2.4054166666666665 -2.5232916666666667l-0.5587083333333334 -6.98625c-1.0541666666666667 -0.03833333333333334 -1.98375 -0.08529166666666667 -2.7772500000000004 -0.13033333333333336Z" stroke-width="2"></path><path id="Ellipse 135" stroke="#000" stroke-linecap="round" stroke-linejoin="round" d="M16.770833333333336 9.104166666666668a6.229166666666667 6.229166666666667 0 1 0 12.458333333333334 0 6.229166666666667 6.229166666666667 0 1 0 -12.458333333333334 0" stroke-width="2"></path><path id="Vector 999" stroke="#000" stroke-linecap="round" stroke-linejoin="round" d="m23 34.5 0 8.625" stroke-width="2"></path></g></svg>