<svg xmlns="http://www.w3.org/2000/svg" fill="none" viewBox="-1 -1 48 48" height="48" width="48"><g id="zoom-in"><path id="Union" stroke="#000" stroke-linecap="round" stroke-linejoin="round" d="M17.367875 8.069166666666668c-1.4911666666666668 1.0225416666666667 -1.6828333333333334 3.0225833333333334 -0.8835833333333334 4.646 1.3685 2.780125 3.7068333333333334 7.382041666666667 6.396875 12.041458333333333 0 0 -1.4796666666666667 -0.79925 -3.6991666666666667 -1.3014166666666669 -2.0508333333333337 -0.4638333333333333 -4.008708333333334 1.0043333333333335 -3.8822083333333337 3.102125 0.031625 0.5261250000000001 0.11020833333333334 1.0733333333333335 0.25875000000000004 1.6147916666666668 0.26545833333333335 0.9679166666666668 1.0359583333333333 1.679 1.9300833333333332 2.1342083333333335 1.8898333333333335 0.9631249999999999 5.589 2.6804583333333336 9.963791666666667 3.8429166666666665 1.6119166666666667 0.42741666666666667 3.3062500000000004 0.4638333333333333 4.872166666666667 -0.10733333333333334 1.1480833333333333 -0.41783333333333333 2.669916666666667 -1.0848333333333333 4.494583333333334 -2.1380416666666666a51.256458333333335 51.256458333333335 0 0 0 2.9516666666666667 -1.8380833333333333c2.3162916666666664 -1.555375 3.4998333333333336 -4.2722500000000005 3.029291666666667 -7.022666666666667a39.619416666666666 39.619416666666666 0 0 0 -2.1112083333333334 -7.580416666666667c-1.0100833333333334 -2.60475 -3.648375 -4.11125 -6.3834583333333335 -3.54775 -4.132333333333333 0.8519583333333334 -7.748125000000001 2.3632500000000003 -7.748125000000001 2.3632500000000003 -0.7570833333333334 -1.3100416666666668 -2.3507916666666664 -3.6225 -3.5889583333333337 -5.378166666666667 -1.0254166666666669 -1.4537916666666666 -2.8270833333333334 -2.2549583333333336 -4.437083333333334 -1.497875a8.339416666666667 8.339416666666667 0 0 0 -1.1624583333333334 0.6660416666666666Z" stroke-width="2"></path><path id="Rectangle 130" stroke="#000" stroke-linecap="round" stroke-linejoin="round" d="M3.07625 8.752458333333333c-0.5682916666666666 -0.3287083333333334 -0.644 -1.1164583333333333 -0.12458333333333334 -1.5189583333333334 1.772916666666667 -1.3752083333333334 4.230083333333333 -2.9267499999999997 6.0183333333333335 -3.3110416666666667 0.5788333333333333 -0.12458333333333334 1.1404166666666666 0.20125 1.3225 0.7637916666666668 0.5615833333333333 1.7412916666666667 0.4465833333333334 4.645041666666668 0.14183333333333334 6.867416666666667 -0.089125 0.6516666666666667 -0.8088333333333333 0.9794166666666667 -1.3780833333333333 0.6516666666666667L3.07625 8.7515Z" stroke-width="2"></path><path id="Rectangle 131" stroke="#000" stroke-linecap="round" stroke-linejoin="round" d="M3.07625 29.524333333333335c-0.5682916666666666 0.3287083333333334 -0.644 1.1164583333333333 -0.12458333333333334 1.5199166666666668 1.772916666666667 1.3752083333333334 4.230083333333333 2.9257916666666666 6.0183333333333335 3.3100833333333335 0.5788333333333333 0.12458333333333334 1.1404166666666666 -0.20029166666666667 1.3225 -0.7628333333333334 0.5615833333333333 -1.7412916666666667 0.4465833333333334 -4.646 0.14183333333333334 -6.868375 -0.089125 -0.6507083333333334 -0.8088333333333333 -0.9794166666666667 -1.3780833333333333 -0.6516666666666667L3.07625 29.52625Z" stroke-width="2"></path><path id="Subtract" stroke="#000" stroke-linecap="round" stroke-linejoin="round" d="M6.588541666666667 10.779333333333334A16.67979166666667 16.67979166666667 0 0 0 4.3125 19.24716666666667c0 3.704916666666667 1.173 6.512833333333334 2.221416666666667 8.281916666666666" stroke-width="2"></path></g></svg>