<svg xmlns="http://www.w3.org/2000/svg" fill="none" viewBox="-1 -1 48 48" height="48" width="48"><g id="film-slate--pictures-photo-film-slate"><path id="Vector 2134" stroke="#000" stroke-linecap="round" stroke-linejoin="round" d="m11.077375 16.626125000000002 2.09875 -10.046208333333334" stroke-width="2"></path><path id="Vector 2135" stroke="#000" stroke-linecap="round" stroke-linejoin="round" d="M23.096791666666668 4.774416666666667 20.9875 14.878125" stroke-width="2"></path><path id="Vector 2136" stroke="#000" stroke-linecap="round" stroke-linejoin="round" d="m30.89666666666667 13.132041666666666 2.089166666666667 -10.000208333333335" stroke-width="2"></path><path id="Rectangle 724" stroke="#000" stroke-linecap="round" stroke-linejoin="round" d="M9.631250000000001 29.414125000000002c0.06804166666666667 -1.4116250000000001 1.095375 -2.440875 2.507 -2.511791666666667A64.37795833333334 64.37795833333334 0 0 1 15.333333333333334 26.833333333333336c1.3598750000000002 0 2.402541666666667 0.02875 3.1950833333333337 0.06899999999999999 1.4116250000000001 0.07091666666666667 2.4389583333333333 1.1001666666666665 2.507 2.511791666666667 0.02875 0.598 0.04791666666666667 1.3292083333333333 0.04791666666666667 2.210875 0 0.8816666666666667 -0.01916666666666667 1.6119166666666667 -0.04791666666666667 2.210875 -0.06804166666666667 1.4116250000000001 -1.095375 2.440875 -2.507 2.511791666666667A64.38083333333334 64.38083333333334 0 0 1 15.333333333333334 36.41666666666667a64.38083333333334 64.38083333333334 0 0 1 -3.1950833333333337 -0.06899999999999999c-1.4116250000000001 -0.07091666666666667 -2.4389583333333333 -1.1001666666666665 -2.507 -2.511791666666667 -0.02875 -0.5989583333333334 -0.04791666666666667 -1.3301666666666667 -0.04791666666666667 -2.210875 0 -0.8816666666666667 0.01916666666666667 -1.612875 0.04791666666666667 -2.210875Z" stroke-width="2"></path><path id="Rectangle 725" stroke="#000" stroke-linecap="round" stroke-linejoin="round" d="M3.360875 21.172458333333335C3.567875 19.420625 5.068625 18.208333333333336 6.832916666666667 18.208333333333336L23 18.208333333333336l16.167083333333334 0c1.7642916666666668 0 3.265041666666667 1.2122916666666665 3.472041666666667 2.964125 0.24245833333333336 2.043166666666667 0.485875 5.175000000000001 0.485875 9.494208333333333 0 3.7528333333333332 -0.18400000000000002 6.459166666666667 -0.391 8.315458333333334 -0.232875 2.092041666666667 -1.8591666666666666 3.5707500000000003 -3.959833333333333 3.723125 -2.8155833333333335 0.204125 -7.7011666666666665 0.41975 -15.774166666666668 0.41975 -8.073 0 -12.957625000000002 -0.215625 -15.774166666666668 -0.41975 -2.099708333333333 -0.15333333333333335 -3.7279166666666668 -1.6310833333333334 -3.959833333333333 -3.723125C3.059 37.12583333333334 2.875 34.4195 2.875 30.666666666666668c0 -4.320166666666667 0.24341666666666667 -7.451041666666668 0.485875 -9.494208333333333Z" stroke-width="2"></path><path id="Rectangle 726" stroke="#000" stroke-linecap="round" stroke-linejoin="round" d="M2.0057916666666666 11.188541666666667c-0.022041666666666668 -1.5898750000000001 1.2544583333333332 -2.6574583333333335 2.810791666666667 -2.98425 2.5673749999999997 -0.5395416666666666 7.513333333333334 -1.5160833333333334 16.393250000000002 -3.0820000000000003 8.879916666666666 -1.5659166666666666 13.862291666666668 -2.3392916666666665 16.459375 -2.7111250000000005 1.5735833333333333 -0.22425000000000003 3.138541666666667 0.342125 3.660833333333333 1.8438333333333334 0.19645833333333332 0.5615833333333333 0.38333333333333336 1.2515833333333335 0.5309166666666667 2.091083333333333 0.20125 1.1394583333333335 0.24725000000000003 2.0805416666666665 0.22233333333333336 2.8232500000000003 -0.044083333333333335 1.3062083333333334 -1.10975 2.199375 -2.3967916666666667 2.4255416666666667l-16.812041666666666 2.9650833333333333 -16.813000000000002 2.964125c-1.2870416666666666 0.227125 -2.5942083333333334 -0.24725000000000003 -3.0820000000000003 -1.4595416666666667a13.65625 13.65625 0 0 1 -0.7570833333333334 -2.7293333333333334 13.473208333333334 13.473208333333334 0 0 1 -0.21658333333333335 -2.146666666666667Z" stroke-width="2"></path></g></svg>