<svg xmlns="http://www.w3.org/2000/svg" fill="none" viewBox="-1 -1 48 48" height="48" width="48"><g id="atom--science-atom"><path id="Ellipse 19" stroke="#000" stroke-linecap="round" stroke-linejoin="round" d="M40.49725 5.50275c5.895666666666667 5.894708333333333 1.3320833333333333 16.998916666666666 -8.331750000000001 26.66275C22.50166666666667 41.82933333333334 11.397458333333335 46.392916666666665 5.50275 40.49725c-5.895666666666667 -5.894708333333333 -1.3320833333333333 -16.998916666666666 8.331750000000001 -26.66275C23.498333333333335 4.170666666666667 34.60254166666667 -0.39291666666666664 40.49725 5.50275Z" stroke-width="2"></path><path id="Ellipse 20" stroke="#000" stroke-linecap="round" stroke-linejoin="round" d="M5.50275 5.50275c-5.895666666666667 5.894708333333333 -1.3320833333333333 16.998916666666666 8.331750000000001 26.66275C23.498333333333335 41.82933333333334 34.60254166666667 46.392916666666665 40.49725 40.49725c5.895666666666667 -5.894708333333333 1.3320833333333333 -16.998916666666666 -8.331750000000001 -26.66275C22.50166666666667 4.170666666666667 11.397458333333335 -0.39291666666666664 5.50275 5.50275Z" stroke-width="2"></path><path id="Ellipse 21" stroke="#000" stroke-linecap="round" stroke-linejoin="round" d="M28.75 23a5.75 5.75 0 1 1 -11.5 0 5.75 5.75 0 0 1 11.5 0Z" stroke-width="2"></path></g></svg>