<svg xmlns="http://www.w3.org/2000/svg" fill="none" viewBox="-1 -1 48 48" height="48" width="48"><g id="pen-tool"><path id="Vector 110" stroke="#000" stroke-linecap="round" stroke-linejoin="round" d="M23 13.852708333333334c0.32775000000000004 -3.936833333333333 1.5965833333333332 -7.872708333333334 2.2885 -9.784583333333334 0.2635416666666667 -0.7283333333333334 0.9583333333333334 -1.1883333333333335 1.725 -1.0829166666666665 2.1399583333333334 0.29420833333333335 6.6240000000000006 1.38 10.623125000000002 5.378166666666667 3.9981666666666666 3.9991250000000003 5.083958333333333 8.483166666666667 5.378166666666667 10.623125000000002 0.10541666666666667 0.7666666666666667 -0.35458333333333336 1.4614583333333333 -1.0829166666666665 1.725 -1.9118750000000002 0.6919166666666666 -5.8477500000000004 1.96075 -9.784583333333334 2.2885 0 0 -0.91425 -2.7437083333333336 -3.658916666666667 -5.4883750000000004C25.744666666666667 14.766958333333335 23 13.852708333333334 23 13.852708333333334Z" stroke-width="2"></path><path id="Subtract" stroke="#000" stroke-linecap="round" stroke-linejoin="round" d="M32.16645833333333 22.963583333333332s-0.9123333333333333 -2.739875 -3.65125 -5.478791666666667c-2.7408333333333332 -2.739875 -5.47975 -3.6531666666666665 -5.47975 -3.6531666666666665s0 0 0 0c-5.021666666666667 0.25012500000000004 -8.937416666666667 0.7772083333333334 -11.446333333333335 1.2007916666666667 -1.9760833333333332 0.3344583333333333 -3.5352916666666667 1.7940000000000003 -4.099749999999999 3.717375 -3.756666666666667 12.79375 -4.541541666666666 20.64825 -4.541541666666666 20.64825s-0.45616666666666666 1.3694583333333334 0.9132916666666666 2.738916666666667c1.3704166666666666 1.3704166666666666 2.738916666666667 0.9132916666666666 2.738916666666667 0.9132916666666666s7.8545 -0.7858333333333333 20.64825 -4.541541666666666c1.9233750000000003 -0.5654166666666667 3.3829166666666666 -2.122708333333333 3.717375 -4.099749999999999 0.42358333333333337 -2.5079583333333333 0.9497083333333334 -6.424666666666667 1.2007916666666667 -11.445375Zm0 0s0 0 0 0Z" stroke-width="2"></path><path id="Vector 1313" stroke="#000" stroke-linecap="round" stroke-linejoin="round" d="M15.333333333333334 30.666666666666668 3.8333333333333335 42.16666666666667" stroke-width="2"></path><path id="Ellipse 558" stroke="#000" stroke-linecap="round" stroke-linejoin="round" d="M14.375 27.791666666666668a3.8333333333333335 3.8333333333333335 0 1 0 7.666666666666667 0 3.8333333333333335 3.8333333333333335 0 1 0 -7.666666666666667 0" stroke-width="2"></path></g></svg>