<svg xmlns="http://www.w3.org/2000/svg" fill="none" viewBox="-1 -1 48 48" height="48" width="48"><g id="chess-pawn"><path id="Ellipse 478" stroke="#000" stroke-linejoin="round" d="M14.375 11.5a8.625 8.625 0 1 0 17.25 0 8.625 8.625 0 1 0 -17.25 0" stroke-width="2"></path><path id="Subtract" stroke="#000" stroke-linejoin="round" d="M17.866208333333336 18.430666666666667c-0.8586666666666667 3.033125 -3.1097916666666667 11.394583333333335 -4.1390416666666665 19.103416666666668 0.13608333333333333 -0.012458333333333333 0.273125 -0.021083333333333332 0.41208333333333336 -0.025875000000000002a267.26958333333334 267.26958333333334 0 0 1 8.860750000000001 -0.13416666666666668c3.7537916666666664 0 6.69875 0.06229166666666667 8.860750000000001 0.13416666666666668 0.13895833333333332 0.004791666666666667 0.27599999999999997 0.013416666666666667 0.41208333333333336 0.025875000000000002 -1.02925 -7.7088333333333345 -3.2813333333333334 -16.070291666666666 -4.140000000000001 -19.102458333333335A8.586666666666668 8.586666666666668 0 0 1 23 20.125a8.586666666666668 8.586666666666668 0 0 1 -5.133791666666667 -1.6943333333333335Z" stroke-width="2"></path><path id="Rectangle 1424" stroke="#000" stroke-linejoin="round" d="M35.5925 43.125c0.45616666666666666 0 0.8241666666666667 -1.0695000000000001 0.8241666666666667 -1.5256666666666667 0 -2.5798333333333336 -1.9780000000000002 -4.004875 -4.555916666666667 -4.091125A267.27916666666664 267.27916666666664 0 0 0 23 37.375c-3.7537916666666664 0 -6.69875 0.06133333333333334 -8.860750000000001 0.13416666666666668 -2.577916666666667 0.08625 -4.555916666666667 1.5103333333333335 -4.555916666666667 4.090166666666667 0 0.45616666666666666 0.36800000000000005 1.5256666666666667 0.8241666666666667 1.5256666666666667L23 43.125l12.592500000000001 0Z" stroke-width="2"></path></g></svg>