<svg xmlns="http://www.w3.org/2000/svg" fill="none" viewBox="-1 -1 48 48" height="48" width="48"><g id="horizontal-menu-circle--navigation-dots-three-circle-button-horizontal-menu"><path id="Ellipse 19" stroke="#000" stroke-linecap="round" stroke-linejoin="round" d="M2.875 23a20.125 20.125 0 1 0 40.25 0 20.125 20.125 0 1 0 -40.25 0" stroke-width="2"></path><path id="Ellipse 541" stroke="#000" stroke-linecap="round" stroke-linejoin="round" d="M19.645833333333336 23a3.354166666666667 3.354166666666667 0 1 0 6.708333333333334 0 3.354166666666667 3.354166666666667 0 1 0 -6.708333333333334 0" stroke-width="2"></path><path id="Ellipse 543" stroke="#000" stroke-linecap="round" stroke-linejoin="round" d="M8.145833333333334 23a3.354166666666667 3.354166666666667 0 1 0 6.708333333333334 0 3.354166666666667 3.354166666666667 0 1 0 -6.708333333333334 0" stroke-width="2"></path><path id="Ellipse 542" stroke="#000" stroke-linecap="round" stroke-linejoin="round" d="M31.145833333333336 23a3.354166666666667 3.354166666666667 0 1 0 6.708333333333334 0 3.354166666666667 3.354166666666667 0 1 0 -6.708333333333334 0" stroke-width="2"></path></g></svg>