<svg xmlns="http://www.w3.org/2000/svg" fill="none" viewBox="-1 -1 48 48" height="48" width="48"><g id="drum-stick--cook-animal-drumsticks-products-chicken-cooking-nutrition-food"><path id="Ellipse 258" stroke="#000" stroke-linecap="round" stroke-linejoin="round" d="M38.48091666666667 27.085375000000003c-6.753375 6.753375 -18.902166666666666 10.142041666666668 -24.30525 4.738958333333334 -5.403083333333333 -5.403083333333333 -2.0144166666666665 -17.551875000000003 4.738958333333334 -24.30525 6.754333333333333 -6.754333333333333 14.316541666666668 -5.556416666666667 19.719625000000004 -0.15333333333333335 5.403083333333333 5.403083333333333 6.601 12.96625 -0.15333333333333335 19.719625000000004Z" stroke-width="2"></path><path id="Subtract" stroke="#000" stroke-linecap="round" stroke-linejoin="round" d="m12.324166666666667 28.988625 -2.898 4.053750000000001c-0.3440416666666667 0.480125 -1.0397916666666667 0.5251666666666668 -1.5707083333333334 0.2635416666666667a3.457666666666667 3.457666666666667 0 1 0 -2.5635416666666666 6.401666666666666 1.5429166666666667 1.5429166666666667 0 0 1 0.9957083333333333 0.9957083333333333 3.4595833333333332 3.4595833333333332 0 1 0 6.403583333333334 -2.55875c-0.2597083333333334 -0.5299583333333334 -0.21466666666666667 -1.2237916666666666 0.26545833333333335 -1.5678333333333332l4.053750000000001 -2.900875" stroke-width="2"></path><path id="Ellipse 259" stroke="#000" stroke-linecap="round" stroke-linejoin="round" d="M32.78458333333334 24.480625000000003c-3.1059583333333336 3.1059583333333336 -8.193750000000001 4.975666666666667 -11.701250000000002 4.016375" stroke-width="2"></path></g></svg>