<svg xmlns="http://www.w3.org/2000/svg" fill="none" viewBox="-1 -1 48 48" height="48" width="48"><g id="tiktok"><path id="Union" stroke="#000" stroke-linecap="round" stroke-linejoin="round" d="M16.334791666666668 19.805875000000004C10.123833333333334 20.237125000000002 4.791666666666667 24.663666666666668 4.791666666666667 31.44770833333333 4.791666666666667 37.89729166666667 9.959958333333335 43.125 16.334791666666668 43.125c6.375791666666666 0 11.544083333333333 -5.227708333333333 11.544083333333333 -11.677291666666667l-0.33349999999999996 -14.557083333333333c2.900875 2.2386666666666666 7.534416666666667 3.5918333333333337 11.822000000000001 3.808416666666667 0.7666666666666667 0.03833333333333334 1.5026666666666668 -0.3095416666666667 1.681875 -1.0570416666666667 0.09104166666666667 -0.38045833333333334 0.15908333333333335 -0.8749583333333334 0.15908333333333335 -1.5074583333333333 0 -0.6325000000000001 -0.06708333333333334 -1.127 -0.15908333333333335 -1.5074583333333333 -0.17920833333333333 -0.7475 -0.9161666666666667 -1.071416666666667 -1.6809166666666668 -1.1480833333333333 -5.797916666666667 -0.5797916666666667 -11.257541666666667 -5.270833333333334 -12.037625 -10.81 -0.09966666666666667 -0.6995833333333333 -0.49162500000000003 -1.3464583333333333 -1.1768333333333334 -1.5247083333333333A8.463041666666667 8.463041666666667 0 0 0 24.031166666666667 2.875a8.462083333333334 8.462083333333334 0 0 0 -2.1255833333333336 0.2692916666666667c-0.6832916666666666 0.17825 -1.0915416666666666 0.8203333333333334 -1.1078333333333332 1.5275833333333335l-0.6152500000000001 26.775833333333335c0 2.1505 -1.722125 3.8927500000000004 -3.8477083333333333 3.8927500000000004 -2.124625 0 -3.8477083333333333 -1.7432083333333332 -3.8477083333333333 -3.8927500000000004 0 -2.2348333333333334 1.8687500000000001 -3.673291666666667 3.8477083333333333 -4.041291666666666" stroke-width="2"></path></g></svg>