<svg xmlns="http://www.w3.org/2000/svg" fill="none" viewBox="-1 -1 48 48" height="48" width="48"><g id="empty-clipboard--work-plain-clipboard-task-list-company-office"><path id="Intersect" stroke="#000" stroke-linecap="round" stroke-linejoin="round" d="M27.900916666666667 2.9219583333333334c1.6770833333333335 0.034499999999999996 2.942083333333333 1.5141666666666669 2.744666666666667 3.1797500000000003l-0.22425000000000003 1.9013333333333333A2.875 2.875 0 0 1 27.566458333333333 10.541666666666668h-9.132916666666667a2.875 2.875 0 0 1 -2.8558333333333334 -2.538625l-0.22425000000000003 -1.9013333333333333c-0.19645833333333332 -1.6655833333333334 1.0685416666666667 -3.1452500000000003 2.7456250000000004 -3.1797500000000003 1.4566666666666668 -0.029708333333333333 3.0858333333333334 -0.04695833333333334 4.901875 -0.04695833333333334 1.8150833333333334 0 3.4423333333333335 0.017249999999999998 4.899958333333334 0.04695833333333334Z" stroke-width="2"></path><path id="Subtract" stroke="#000" stroke-linecap="round" stroke-linejoin="round" d="M15.33525 5.867875000000001c-2.5970833333333334 0.08816666666666667 -4.577 0.21370833333333333 -6.047083333333333 0.3373333333333333 -2.2032083333333334 0.186875 -3.848666666666667 1.817 -4.0365 4.020208333333334C5.021666666666667 12.917375 4.791666666666667 17.379375000000003 4.791666666666667 24.4375c0 7.057166666666667 0.23 11.519166666666667 0.46 14.212083333333334 0.18783333333333335 2.2032083333333334 1.8332916666666668 3.8333333333333335 4.037458333333333 4.01925C11.959041666666666 42.895 16.316583333333334 43.125 23 43.125s11.040958333333334 -0.23 13.710875000000001 -0.45616666666666666c2.2041666666666666 -0.186875 3.8496250000000005 -1.8160416666666668 4.037458333333333 -4.01925 0.23 -2.6929166666666666 0.46 -7.154916666666667 0.46 -14.212083333333334 0 -7.058125 -0.23 -11.520125000000002 -0.46 -14.212083333333334 -0.18783333333333335 -2.2041666666666666 -1.8332916666666668 -3.8333333333333335 -4.037458333333333 -4.020208333333334 -1.469125 -0.12458333333333334 -3.45 -0.24916666666666668 -6.047083333333333 -0.3373333333333333" stroke-width="2"></path></g></svg>