<svg xmlns="http://www.w3.org/2000/svg" fill="none" viewBox="-1 -1 48 48" height="48" width="48"><g id="watch-circle-menu--device-timepiece-circle-watch-round-menu-list-option-app"><path id="Subtract" stroke="#000" stroke-linecap="round" stroke-linejoin="round" d="m33.514833333333335 11.840208333333335 -1.3637083333333335 -5.244000000000001c-0.4523333333333333 -1.7403333333333335 -1.7182916666666668 -3.129916666666667 -3.4998333333333336 -3.3790833333333334C27.324 3.0312083333333333 25.473458333333333 2.875 23 2.875c-2.4744166666666665 0 -4.324958333333333 0.15620833333333334 -5.6522499999999996 0.342125 -1.7805833333333334 0.24916666666666668 -3.0475000000000003 1.63875 -3.4998333333333336 3.3790833333333334l-1.3637083333333335 5.244000000000001" stroke-width="2"></path><path id="Subtract_2" stroke="#000" stroke-linecap="round" stroke-linejoin="round" d="m12.484208333333333 34.15979166666667 1.3637083333333335 5.243041666666667c0.4523333333333333 1.7412916666666667 1.7192500000000002 3.129916666666667 3.4998333333333336 3.3790833333333334 1.3272916666666668 0.186875 3.1778333333333335 0.342125 5.6522499999999996 0.342125 2.4734583333333333 0 4.324 -0.15525 5.651291666666667 -0.342125 1.7815416666666668 -0.24916666666666668 3.0475000000000003 -1.63875 3.4998333333333336 -3.3790833333333334l1.3637083333333335 -5.243041666666667" stroke-width="2"></path><path id="Ellipse 100" stroke="#000" stroke-linecap="round" stroke-linejoin="round" d="M7.666666666666667 23a15.333333333333334 15.333333333333334 0 1 0 30.666666666666668 0 15.333333333333334 15.333333333333334 0 1 0 -30.666666666666668 0" stroke-width="2"></path><path id="Ellipse 101" stroke="#000" stroke-linecap="round" stroke-linejoin="round" d="M14.375 17.729166666666668a2.875 2.875 0 1 0 5.75 0 2.875 2.875 0 1 0 -5.75 0" stroke-width="2"></path><path id="Vector 1372" stroke="#000" stroke-linecap="round" stroke-linejoin="round" d="M32.10416666666667 17.729166666666668H24.916666666666668" stroke-width="2"></path><path id="Vector 1373" stroke="#000" stroke-linecap="round" stroke-linejoin="round" d="M32.10416666666667 28.270833333333336H24.916666666666668" stroke-width="2"></path><path id="Ellipse 75" stroke="#000" stroke-linecap="round" stroke-linejoin="round" d="M14.375 28.270833333333336a2.875 2.875 0 1 1 5.75 0 2.875 2.875 0 1 1 -5.75 0" stroke-width="2"></path></g></svg>