<svg xmlns="http://www.w3.org/2000/svg" fill="none" viewBox="-1 -1 48 48" height="48" width="48"><g id="round-anchor-point"><path id="Ellipse 18" stroke="#000" stroke-linecap="round" stroke-linejoin="round" d="M39.770833333333336 7.1875a3.354166666666667 3.354166666666667 0 1 1 0 6.708333333333334 3.354166666666667 3.354166666666667 0 0 1 0 -6.708333333333334Z" stroke-width="2"></path><path id="Ellipse 336" stroke="#000" stroke-linecap="round" stroke-linejoin="round" d="M6.229166666666667 7.1875a3.354166666666667 3.354166666666667 0 1 1 0 6.708333333333334 3.354166666666667 3.354166666666667 0 0 1 0 -6.708333333333334Z" stroke-width="2"></path><path id="Subtract" stroke="#000" stroke-linecap="round" stroke-linejoin="round" d="M28.75 12.261875c3.3790833333333334 -0.23958333333333334 5.971375 -0.6545416666666667 7.740458333333334 -1.0177500000000002M17.25 12.261875c-3.3790833333333334 -0.23958333333333334 -5.972333333333334 -0.6545416666666667 -7.740458333333334 -1.0177500000000002" stroke-width="2"></path><path id="Rectangle 60" stroke="#000" stroke-linecap="round" stroke-linejoin="round" d="M17.312291666666667 9.269958333333333c0.06516666666666668 -1.4145 1.0848333333333333 -2.4341666666666666 2.4983750000000002 -2.4993333333333334A70.417375 70.417375 0 0 1 23 6.708333333333334c1.3560416666666668 0 2.39775 0.025875000000000002 3.188375 0.06229166666666667 1.4145 0.06516666666666668 2.4341666666666666 1.0848333333333333 2.4993333333333334 2.4993333333333334 0.03641666666666667 0.7915833333333333 0.06229166666666667 1.8323333333333334 0.06229166666666667 3.188375s-0.025875000000000002 2.3958333333333335 -0.06229166666666667 3.188375c-0.06516666666666668 1.4145 -1.0857916666666667 2.4341666666666666 -2.4993333333333334 2.4993333333333334C25.395833333333336 18.182458333333333 24.356041666666666 18.208333333333336 23 18.208333333333336s-2.3967916666666667 -0.025875000000000002 -3.188375 -0.06229166666666667c-1.4145 -0.06516666666666668 -2.4341666666666666 -1.0848333333333333 -2.4993333333333334 -2.4993333333333334A70.449 70.449 0 0 1 17.25 12.458333333333334c0 -1.3560416666666668 0.025875000000000002 -2.39775 0.06229166666666667 -3.188375Z" stroke-width="2"></path><path id="Subtract_2" stroke="#000" stroke-linecap="round" stroke-linejoin="round" d="M17.258625000000002 13.745375000000001C12.720916666666666 15.896833333333335 9.583333333333334 20.517916666666668 9.583333333333334 25.875v1.9166666666666667m26.833333333333336 0v-1.9166666666666667c0 -5.3561250000000005 -3.1375833333333336 -9.978166666666668 -7.675291666666667 -12.129625" stroke-width="2"></path><path id="Rectangle 61" stroke="#000" stroke-linecap="round" stroke-linejoin="round" d="M30.72895833333333 30.353291666666667c0.06516666666666668 -1.4145 1.0848333333333333 -2.4341666666666666 2.4993333333333334 -2.4993333333333334A70.46529166666667 70.46529166666667 0 0 1 36.41666666666667 27.791666666666668c1.3560416666666668 0 2.39775 0.025875000000000002 3.188375 0.06229166666666667 1.4145 0.06516666666666668 2.4341666666666666 1.0848333333333333 2.4993333333333334 2.4993333333333334 0.03641666666666667 0.7915833333333333 0.06229166666666667 1.8323333333333334 0.06229166666666667 3.188375s-0.025875000000000002 2.3958333333333335 -0.06229166666666667 3.188375c-0.06516666666666668 1.4145 -1.0857916666666667 2.4341666666666666 -2.4993333333333334 2.4993333333333334C38.8125 39.265791666666665 37.772708333333334 39.29166666666667 36.41666666666667 39.29166666666667s-2.3967916666666667 -0.025875000000000002 -3.188375 -0.06229166666666667c-1.4145 -0.06516666666666668 -2.4341666666666666 -1.0848333333333333 -2.4993333333333334 -2.4993333333333334A70.449 70.449 0 0 1 30.666666666666668 33.54166666666667c0 -1.3560416666666668 0.025875000000000002 -2.39775 0.06229166666666667 -3.188375Z" stroke-width="2"></path><path id="Rectangle 62" stroke="#000" stroke-linecap="round" stroke-linejoin="round" d="M3.8956250000000003 30.353291666666667c0.06516666666666668 -1.4145 1.0848333333333333 -2.4341666666666666 2.4993333333333334 -2.4993333333333334A70.46625 70.46625 0 0 1 9.583333333333334 27.791666666666668c1.3560416666666668 0 2.39775 0.025875000000000002 3.188375 0.06229166666666667 1.4145 0.06516666666666668 2.4341666666666666 1.0848333333333333 2.4993333333333334 2.4993333333333334 0.03641666666666667 0.7915833333333333 0.06229166666666667 1.8323333333333334 0.06229166666666667 3.188375s-0.025875000000000002 2.3958333333333335 -0.06229166666666667 3.188375c-0.06516666666666668 1.4145 -1.0857916666666667 2.4341666666666666 -2.5002916666666666 2.4993333333333334 -0.790625 0.03641666666666667 -1.8313750000000002 0.06229166666666667 -3.187416666666667 0.06229166666666667s-2.3967916666666667 -0.025875000000000002 -3.188375 -0.06229166666666667c-1.4145 -0.06516666666666668 -2.4341666666666666 -1.0848333333333333 -2.4993333333333334 -2.4993333333333334A70.47583333333334 70.47583333333334 0 0 1 3.8333333333333335 33.54166666666667c0 -1.3560416666666668 0.025875000000000002 -2.39775 0.06229166666666667 -3.188375Z" stroke-width="2"></path></g></svg>