<svg xmlns="http://www.w3.org/2000/svg" fill="none" viewBox="-1 -1 48 48" height="48" width="48"><g id="arrow-cursor-move--mouse-select-cursor-move-scroll"><path id="Rectangle 128" stroke="#000" stroke-linecap="round" stroke-linejoin="round" d="M21.54429166666667 12.020375c2.0048333333333335 -0.68425 2.3345000000000002 -2.9123750000000004 0.4101666666666667 -3.7978750000000003 -4.389166666666667 -2.020166666666667 -11.34475 -4.302916666666667 -16.883916666666664 -5.105041666666667a1.710625 1.710625 0 0 0 -1.9530833333333333 1.9530833333333333c0.8030833333333334 5.5391666666666675 3.0858333333333334 12.493791666666668 5.105041666666667 16.883916666666664 0.8855000000000001 1.9243333333333335 3.1136250000000003 1.5946666666666667 3.7978750000000003 -0.4101666666666667l2.424583333333333 -7.099333333333334 7.099333333333334 -2.424583333333333Z" stroke-width="2"></path><path id="Rectangle 129" stroke="#000" stroke-linecap="round" stroke-linejoin="round" d="M32.6485 20.898374999999998c0.5079166666666667 -0.066125 0.7455833333333334 -0.549125 0.5222916666666667 -1.0081666666666667 -0.3181666666666667 -0.6535833333333334 -0.8759166666666668 -1.70775 -1.8074166666666667 -3.2267083333333333 -0.6804166666666667 -1.1087916666666668 -1.2266666666666668 -1.8467083333333334 -1.6416250000000001 -2.3345000000000002 -0.5510416666666667 -0.6468750000000001 -1.3934166666666667 -0.6468750000000001 -1.9435 0 -0.41400000000000003 0.4877916666666667 -0.9621666666666667 1.2257083333333334 -1.6416250000000001 2.3345000000000002 -0.9315 1.5189583333333334 -1.4892500000000002 2.573125 -1.8074166666666667 3.22575 -0.2232916666666667 0.46 0.015333333333333334 0.9439583333333333 0.5222916666666667 1.009125 0.7034166666666667 0.09200000000000001 1.9070833333333335 0.18495833333333334 3.8985 0.18495833333333334 1.9904583333333334 0 3.1950833333333337 -0.09295833333333334 3.8985 -0.18495833333333334Z" stroke-width="2"></path><path id="Rectangle 130" stroke="#000" stroke-linecap="round" stroke-linejoin="round" d="M32.6485 36.601625c0.5079166666666667 0.066125 0.7455833333333334 0.549125 0.5222916666666667 1.0081666666666667 -0.3181666666666667 0.6535833333333334 -0.8759166666666668 1.70775 -1.8074166666666667 3.2267083333333333 -0.6804166666666667 1.1087916666666668 -1.2266666666666668 1.8467083333333334 -1.6416250000000001 2.3345000000000002 -0.5510416666666667 0.6468750000000001 -1.3934166666666667 0.6468750000000001 -1.9435 0 -0.41400000000000003 -0.4877916666666667 -0.9621666666666667 -1.2257083333333334 -1.6416250000000001 -2.3345000000000002 -0.9315 -1.5189583333333334 -1.4892500000000002 -2.573125 -1.8074166666666667 -3.2267083333333333 -0.2232916666666667 -0.4590416666666667 0.015333333333333334 -0.9420416666666667 0.5222916666666667 -1.0081666666666667 0.7034166666666667 -0.09200000000000001 1.9070833333333335 -0.18495833333333334 3.8985 -0.18495833333333334 1.9904583333333334 0 3.1950833333333337 0.09295833333333334 3.8985 0.18495833333333334Z" stroke-width="2"></path><path id="Vector 2599" stroke="#000" stroke-linecap="round" stroke-linejoin="round" d="m28.75 21.083333333333336 0 15.333333333333334" stroke-width="2"></path><path id="Rectangle 129_2" stroke="#000" stroke-linecap="round" stroke-linejoin="round" d="M36.601625 32.649458333333335c0.066125 0.506 0.549125 0.7446250000000001 1.0081666666666667 0.5213333333333334 0.6535833333333334 -0.31720833333333337 1.70775 -0.8759166666666668 3.2267083333333333 -1.8074166666666667 1.1087916666666668 -0.6804166666666667 1.8467083333333334 -1.2266666666666668 2.3345000000000002 -1.6416250000000001 0.6468750000000001 -0.5500833333333333 0.6468750000000001 -1.3924583333333334 0 -1.9425416666666668 -0.4877916666666667 -0.4149583333333333 -1.2257083333333334 -0.9621666666666667 -2.3345000000000002 -1.6425833333333333 -1.5189583333333334 -0.9315 -2.573125 -1.4892500000000002 -3.2267083333333333 -1.8064583333333335 -0.4590416666666667 -0.22425000000000003 -0.9420416666666667 0.014375 -1.0081666666666667 0.5213333333333334 -0.09200000000000001 0.7034166666666667 -0.18495833333333334 1.9070833333333335 -0.18495833333333334 3.8985 0 1.9914166666666666 0.09295833333333334 3.1950833333333337 0.18495833333333334 3.8994583333333335Z" stroke-width="2"></path><path id="Rectangle 130_2" stroke="#000" stroke-linecap="round" stroke-linejoin="round" d="M20.898374999999998 32.649458333333335c-0.066125 0.506 -0.549125 0.7446250000000001 -1.0081666666666667 0.5213333333333334 -0.6535833333333334 -0.31720833333333337 -1.70775 -0.8759166666666668 -3.2267083333333333 -1.8074166666666667 -1.1087916666666668 -0.6804166666666667 -1.8467083333333334 -1.2266666666666668 -2.3345000000000002 -1.6416250000000001 -0.6468750000000001 -0.5500833333333333 -0.6468750000000001 -1.3924583333333334 0 -1.9425416666666668 0.4877916666666667 -0.4149583333333333 1.2257083333333334 -0.9621666666666667 2.3345000000000002 -1.6425833333333333 1.5189583333333334 -0.9315 2.573125 -1.4892500000000002 3.22575 -1.8064583333333335 0.46 -0.22425000000000003 0.9439583333333333 0.014375 1.009125 0.5213333333333334 0.09200000000000001 0.7034166666666667 0.18495833333333334 1.9070833333333335 0.18495833333333334 3.8985 0 1.9914166666666666 -0.09295833333333334 3.1950833333333337 -0.18495833333333334 3.8994583333333335Z" stroke-width="2"></path><path id="Vector 2599_2" stroke="#000" stroke-linecap="round" stroke-linejoin="round" d="M36.41666666666667 28.75H21.083333333333336" stroke-width="2"></path></g></svg>