<svg xmlns="http://www.w3.org/2000/svg" fill="none" viewBox="-1 -1 48 48" height="48" width="48"><g id="wine--drink-cook-glass-cooking-wine-nutrition-food"><path id="Union" stroke="#000" stroke-linecap="round" stroke-linejoin="round" d="M37.67879166666667 6.799375c-0.359375 -2.130375 -2.091083333333333 -3.4768333333333334 -4.2463750000000005 -3.6301666666666668C31.293416666666673 3.015875 27.968000000000004 2.875 23.000958333333337 2.875s-8.292458333333334 0.14183333333333334 -10.431458333333333 0.29420833333333335c-2.155291666666667 0.15333333333333335 -3.887 1.4997916666666666 -4.2463750000000005 3.6301666666666668C7.980041666666667 8.829125 7.666666666666667 11.990666666666668 7.666666666666667 16.770833333333336c0 6.9201250000000005 4.188875 11.749166666666667 10.325083333333334 13.332333333333334 0.9870833333333334 0.25395833333333334 1.7058333333333335 1.152875 1.61 2.1667916666666667l-0.3200833333333334 3.424125c-0.10829166666666667 1.1519166666666667 -0.8979583333333334 2.12175 -1.98375 2.5185000000000004a74.31875 74.31875 0 0 0 -5.045625 2.0853333333333337 1.457625 1.457625 0 0 0 -0.8490833333333334 1.3339999999999999c0 0.8241666666666667 0.6689166666666666 1.4930833333333335 1.4930833333333335 1.4930833333333335h20.2055c0.8241666666666667 0 1.4930833333333335 -0.6689166666666666 1.4930833333333335 -1.4930833333333335 0 -0.575 -0.32583333333333336 -1.0963333333333334 -0.8490833333333334 -1.3339999999999999a74.338875 74.338875 0 0 0 -5.044666666666667 -2.0853333333333337c-1.0857916666666667 -0.39675 -1.8764166666666666 -1.3665833333333333 -1.98375 -2.5185000000000004l-0.3210416666666667 -3.423166666666667c-0.09583333333333334 -1.0139166666666668 0.6238750000000001 -1.9137916666666668 1.61 -2.1677500000000003C34.1435 28.520958333333333 38.333333333333336 23.691916666666668 38.333333333333336 16.770833333333336c0 -4.780166666666667 -0.3124166666666667 -7.9417083333333345 -0.6555000000000001 -9.971458333333333Z" stroke-width="2"></path><path id="Intersect" stroke="#000" stroke-linecap="round" stroke-linejoin="round" d="M38.333333333333336 13.416666666666668s-7.666666666666667 -0.4791666666666667 -15.8125 -0.4791666666666667S7.666666666666667 13.416666666666668 7.666666666666667 13.416666666666668" stroke-width="2"></path></g></svg>