<svg xmlns="http://www.w3.org/2000/svg" fill="none" viewBox="-1 -1 48 48" height="48" width="48"><g id="lightning-cloud--cloud-bolt-storm-weather-thunder-meteorology-lightning"><path id="Union" stroke="#000" stroke-linecap="round" stroke-linejoin="round" d="M41.79004166666667 28.270833333333336C42.645833333333336 26.773916666666665 43.125 24.995250000000002 43.125 23c0 -5.143375 -3.1759166666666667 -8.845416666666667 -7.837250000000001 -10.000208333333335C34.3965 7.0725 30.082083333333333 2.9229166666666666 23.744625000000003 2.8778750000000004a105.01033333333334 105.01033333333334 0 0 0 -1.4892500000000002 0c-6.338416666666666 0.04504166666666667 -10.652833333333334 4.195583333333333 -11.543125 10.121916666666667C6.050916666666667 14.154583333333333 2.875 17.856625 2.875 23c0 6.064333333333334 4.415041666666667 10.124791666666667 10.474583333333333 10.369166666666667 0.6229166666666667 0.025875000000000002 1.284166666666667 0.04791666666666667 1.98375 0.06899999999999999" stroke-width="2"></path><path id="Union_2" stroke="#000" stroke-linecap="round" stroke-linejoin="round" d="M35.3625 23.85004166666667c0.37950000000000006 -1.2525416666666667 -0.46 -2.4744166666666665 -1.7642916666666668 -2.5942083333333334A42.64870833333333 42.64870833333333 0 0 0 29.708333333333336 21.083333333333336c-1.9377499999999999 0 -3.38675 0.12266666666666667 -4.345083333333333 0.24341666666666667 -0.8912500000000001 0.11308333333333333 -1.6176666666666666 0.7197083333333334 -1.9511666666666667 1.555375 -1.284166666666667 3.224791666666667 -2.19075 6.323083333333334 -2.7216666666666667 8.340375 -0.3124166666666667 1.1854583333333335 0.598 2.3095833333333338 1.8246666666666667 2.3067083333333334 0.9660000000000001 -0.0009583333333333334 2.1409166666666666 0.0009583333333333334 3.3599166666666664 0.012458333333333333 0 0 -0.7436666666666667 3.901375 -1.486375 8.080666666666668 -0.15333333333333335 0.865375 0.8299166666666666 1.4451666666666667 1.497875 0.8749583333333334 4.188875 -3.580333333333334 8.210041666666667 -7.8545 10.736208333333334 -10.675833333333335 1.0829166666666665 -1.2075 0.21658333333333335 -3.0714583333333336 -1.4058750000000002 -3.0714583333333336H33.54166666666667s1.0647083333333334 -2.411166666666667 1.8208333333333333 -4.899958333333334Z" stroke-width="2"></path></g></svg>