<svg xmlns="http://www.w3.org/2000/svg" fill="none" viewBox="-1 -1 48 48" height="48" width="48"><g id="horizontal-slider-square--adjust-controls-fader-horizontal-settings-slider-square"><path id="Rectangle 1097" stroke="#000" stroke-linecap="round" stroke-linejoin="round" d="M3.391541666666667 38.08704166666667c0.19933333333333333 2.448541666666667 2.072875 4.3220833333333335 4.521416666666667 4.521416666666667C11.006458333333333 42.859541666666665 15.942833333333333 43.125 23 43.125c7.057166666666667 0 11.993541666666667 -0.26545833333333335 15.087041666666668 -0.5165416666666667 2.448541666666667 -0.19933333333333333 4.3220833333333335 -2.072875 4.521416666666667 -4.521416666666667C42.859541666666665 34.993541666666665 43.125 30.057166666666667 43.125 23c0 -7.057166666666667 -0.26545833333333335 -11.993541666666667 -0.5165416666666667 -15.087041666666668 -0.19933333333333333 -2.448541666666667 -2.072875 -4.3220833333333335 -4.521416666666667 -4.521416666666667C34.993541666666665 3.1404583333333336 30.057166666666667 2.875 23 2.875c-7.057166666666667 0 -11.993541666666667 0.26545833333333335 -15.087041666666668 0.5165416666666667 -2.448541666666667 0.19933333333333333 -4.3220833333333335 2.072875 -4.521416666666667 4.521416666666667C3.1404583333333336 11.006458333333333 2.875 15.942833333333333 2.875 23c0 7.057166666666667 0.26545833333333335 11.993541666666667 0.5165416666666667 15.087041666666668Z" stroke-width="2"></path><path id="Vector 1151" stroke="#000" stroke-linecap="round" stroke-linejoin="round" d="m22.041666666666668 15.333333333333334 13.416666666666668 0" stroke-width="2"></path><path id="Vector 1153" stroke="#000" stroke-linecap="round" stroke-linejoin="round" d="m23.958333333333336 30.666666666666668 -13.416666666666668 0" stroke-width="2"></path><path id="Vector 1152" stroke="#000" stroke-linecap="round" stroke-linejoin="round" d="m10.541666666666668 15.333333333333334 3.8333333333333335 0" stroke-width="2"></path><path id="Vector 1154" stroke="#000" stroke-linecap="round" stroke-linejoin="round" d="m35.458333333333336 30.666666666666668 -3.8333333333333335 0" stroke-width="2"></path><path id="Ellipse 20" stroke="#000" stroke-linecap="round" stroke-linejoin="round" d="M18.208333333333336 11.5a3.8333333333333335 3.8333333333333335 0 1 0 0 7.666666666666667 3.8333333333333335 3.8333333333333335 0 1 0 0 -7.666666666666667" stroke-width="2"></path><path id="Ellipse 21" stroke="#000" stroke-linecap="round" stroke-linejoin="round" d="M27.791666666666668 34.5a3.8333333333333335 3.8333333333333335 0 1 0 0 -7.666666666666667 3.8333333333333335 3.8333333333333335 0 1 0 0 7.666666666666667" stroke-width="2"></path></g></svg>