<svg xmlns="http://www.w3.org/2000/svg" fill="none" viewBox="-1 -1 48 48" height="48" width="48"><g id="broken-link-2--break-broken-hyperlink-link-remove-unlink-chain"><path id="Union" stroke="#000" stroke-linecap="round" stroke-linejoin="round" d="m30.143416666666667 37.21208333333333 -1.4585833333333333 1.4595416666666667c-5.910041666666666 5.909083333333334 -15.490500000000003 5.909083333333334 -21.399583333333332 0 -5.910041666666666 -5.909083333333334 -5.910041666666666 -15.490500000000003 0 -21.399583333333332L8.743833333333335 15.8125m14.266708333333334 14.266708333333334 -1.4595416666666667 1.4595416666666667a5.043708333333333 5.043708333333333 0 0 1 -7.132875 -7.1338333333333335l1.4585833333333333 -1.4595416666666667" stroke-width="2"></path><path id="Vector 864" stroke="#000" stroke-linecap="round" stroke-linejoin="round" d="m3.8333333333333335 3.8333333333333335 38.333333333333336 38.333333333333336" stroke-width="2"></path><path id="Union_2" stroke="#000" stroke-linecap="round" stroke-linejoin="round" d="M38.71666666666667 7.3293333333333335c-5.910041666666666 -5.909083333333334 -15.490500000000003 -5.909083333333334 -21.399583333333332 0l-2.28275 2.28275a3.8333333333333335 3.8333333333333335 0 0 0 0 5.421291666666667l1.7115833333333335 1.7115833333333335a3.8333333333333335 3.8333333333333335 0 0 0 5.421291666666667 0l2.28275 -2.2817916666666664a5.043708333333333 5.043708333333333 0 0 1 7.132875 7.132875l-2.28275 2.28275a3.8333333333333335 3.8333333333333335 0 0 0 0 5.421291666666667l1.7125416666666666 1.7115833333333335a3.8333333333333335 3.8333333333333335 0 0 0 5.421291666666667 0l2.28275 -2.28275c5.909083333333334 -5.909083333333334 5.909083333333334 -15.490500000000003 0 -21.399583333333332Z" stroke-width="2"></path><path id="Rectangle 1672" stroke="#000" stroke-linecap="round" stroke-linejoin="round" d="m19.455125 19.45416666666667 4.992916666666667 -4.992916666666667a5.043708333333333 5.043708333333333 0 0 1 7.1338333333333335 7.1338333333333335l-4.992916666666667 4.992916666666667" stroke-width="2"></path></g></svg>