<svg xmlns="http://www.w3.org/2000/svg" fill="none" viewBox="-1 -1 48 48" height="48" width="48"><g id="button-play-circle--controls-media-multi-play-multimedia-button-circle"><path id="Ellipse 21" stroke="#000" stroke-linejoin="round" d="M23 2.875c11.11475 0 20.125 9.01025 20.125 20.125s-9.01025 20.125 -20.125 20.125S2.875 34.11475 2.875 23 11.88525 2.875 23 2.875Z" stroke-width="2"></path><path id="Rectangle 128" stroke="#000" stroke-linejoin="round" d="M14.790916666666666 16.593541666666667c0.3373333333333333 -2.48975 2.5300000000000002 -3.8946666666666667 4.8645 -2.9650833333333333 1.4700833333333334 0.5855416666666666 3.3992083333333336 1.4643333333333335 5.881291666666667 2.783 2.3440833333333337 1.2458333333333333 4.195583333333333 2.3594166666666667 5.633083333333333 3.302416666666667 2.5424583333333333 1.6675 2.5424583333333333 4.904750000000001 0 6.5722499999999995 -1.4375 0.9420416666666667 -3.289 2.056583333333333 -5.633083333333333 3.302416666666667 -2.482083333333333 1.3177083333333335 -4.411208333333334 2.1965 -5.881291666666667 2.7820416666666667 -2.3345000000000002 0.9295833333333333 -4.527166666666667 -0.474375 -4.8645 -2.964125A47.818916666666674 47.818916666666674 0 0 1 14.375 23c0 -2.55875 0.186875 -4.719791666666667 0.41591666666666666 -6.406458333333333Z" stroke-width="2"></path></g></svg>