<svg xmlns="http://www.w3.org/2000/svg" fill="none" viewBox="-1 -1 48 48" height="48" width="48"><g id="chat-bubble-square-warning--bubble-square-messages-notification-chat-message-warning-alert"><path id="Union" stroke="#000" stroke-linejoin="round" d="M7.904333333333333 36.93129166666667c-2.44375 -0.169625 -4.349875 -1.9942916666666668 -4.563583333333333 -4.434208333333333C3.1050000000000004 29.823333333333334 2.875 25.764791666666667 2.875 20.125s0.23 -9.699291666666667 0.46575 -12.372083333333334c0.21370833333333333 -2.4399166666666665 2.1198333333333337 -4.264583333333333 4.563583333333333 -4.434208333333333C10.996875 3.1030833333333336 15.935166666666667 2.875 23 2.875c7.063875 0 12.003125 0.22808333333333333 15.095666666666668 0.44370833333333337 2.44375 0.169625 4.349875 1.9942916666666668 4.563583333333333 4.434208333333333C42.895 10.426666666666668 43.125 14.485208333333334 43.125 20.125s-0.23 9.699291666666667 -0.46575 12.372083333333334c-0.21370833333333333 2.4399166666666665 -2.1198333333333337 4.264583333333333 -4.563583333333333 4.434208333333333 -2.8778750000000004 0.20125 -7.35425 0.41208333333333336 -13.654333333333334 0.44083333333333335l-6.901916666666667 5.915791666666667C16.2955 44.35358333333333 14.375 43.47 14.375 41.83316666666667v-4.585625a171.49375 171.49375 0 0 1 -6.470666666666666 -0.31625000000000003Z" stroke-width="2"></path><path id="Rectangle 172" stroke="#000" stroke-linejoin="round" d="M19.363125 11.727125000000001c-0.12937500000000002 -1.4049166666666666 0.58075 -2.7542500000000003 1.9741666666666668 -2.975625C21.811666666666667 8.674833333333334 22.3675 8.625 23 8.625c0.6325000000000001 0 1.1883333333333335 0.050791666666666666 1.6646250000000002 0.1265 1.3924583333333334 0.22137500000000002 2.1016250000000003 1.5716666666666665 1.9732083333333337 2.975625 -0.18208333333333335 1.9760833333333332 -0.46958333333333335 4.797416666666667 -0.784875 6.625916666666667 -0.152375 0.8874166666666667 -0.7455833333333334 1.6023333333333334 -1.6406666666666667 1.70775 -0.32966666666666666 0.03833333333333334 -0.7302500000000001 0.06420833333333334 -1.2122916666666665 0.06420833333333334 -0.48108333333333336 0 -0.8816666666666667 -0.025875000000000002 -1.2122916666666665 -0.06420833333333334 -0.8941250000000001 -0.10541666666666667 -1.4882916666666666 -0.8203333333333334 -1.6406666666666667 -1.70775 -0.313375 -1.8285 -0.6018333333333333 -4.6498333333333335 -0.7839166666666666 -6.625916666666667Z" stroke-width="2"></path><path id="Ellipse 67" stroke="#000" stroke-linejoin="round" d="M26.354166666666668 27.3125a3.354166666666667 3.354166666666667 0 1 1 -6.708333333333334 0 3.354166666666667 3.354166666666667 0 0 1 6.708333333333334 0Z" stroke-width="2"></path></g></svg>