<svg xmlns="http://www.w3.org/2000/svg" fill="none" viewBox="-1 -1 48 48" height="48" width="48"><g id="customer-support-7--customer-headphones-help-microphone-person-profile-support"><path id="Union" stroke="#000" stroke-linecap="round" stroke-linejoin="round" d="M28.98 5.953166666666666c0.24725000000000003 0.13608333333333333 0.48970833333333336 0.27791666666666665 0.7283333333333334 0.42550000000000004 4.731291666666667 2.9305833333333333 7.89475 8.107500000000002 7.9666250000000005 14.020416666666668l3.590875 5.005375c0.5395416666666666 0.7522916666666667 0.44562500000000005 1.7690833333333336 -0.347875 2.2463333333333333 -0.7954166666666667 0.4791666666666667 -1.9770416666666668 1.0388333333333335 -3.5784166666666666 1.426l-0.5424166666666667 6.438083333333333a2.875 2.875 0 0 1 -3.2180833333333334 2.6114583333333337l-2.683333333333333 -0.33158333333333334V41.208333333333336a1.9166666666666667 1.9166666666666667 0 0 1 -1.9147500000000002 1.9166666666666667H12.47175a1.9166666666666667 1.9166666666666667 0 0 1 -1.9157083333333336 -1.9166666666666667v-7.1875c-4.116041666666667 -3.059 -6.780208333333333 -7.930208333333334 -6.780208333333333 -13.416666666666668 0 -5.9991666666666665 3.1826250000000003 -11.260416666666668 7.968541666666667 -14.2255" stroke-width="2"></path><path id="Union_2" stroke="#000" stroke-linecap="round" stroke-linejoin="round" d="M16.313708333333334 13.471291666666668a7.666666666666667 7.666666666666667 0 1 0 7.622583333333333 0C23.94875 12.627958333333334 23.958333333333336 11.653333333333334 23.958333333333336 10.541666666666668c0 -2.4447083333333337 -0.042166666666666665 -4.2214583333333335 -0.08625 -5.409791666666666 -0.04120833333333333 -1.15 -0.8184166666666667 -2.095875 -1.9645833333333333 -2.189791666666667A22.731666666666666 22.731666666666666 0 0 0 20.125 2.875c-0.7015 0 -1.2937500000000002 0.02779166666666667 -1.7825000000000002 0.06708333333333334 -1.1461666666666666 0.09391666666666668 -1.9233750000000003 1.0397916666666667 -1.9645833333333333 2.189791666666667C16.332875 6.320208333333333 16.291666666666668 8.096958333333333 16.291666666666668 10.541666666666668c0 1.1116666666666666 0.008624999999999999 2.086291666666667 0.022041666666666668 2.929625Z" stroke-width="2"></path><path id="Vector 1494" stroke="#000" stroke-linecap="round" stroke-linejoin="round" d="M20.125 27.791666666666668c2.875 2.875 7.283333333333333 4.791666666666667 11.5 4.791666666666667" stroke-width="2"></path></g></svg>