<svg xmlns="http://www.w3.org/2000/svg" fill="none" viewBox="-1 -1 48 48" height="48" width="48"><g id="insurance-hand--health-medical-insurance-hand-cross"><path id="Union" stroke="#000" stroke-linecap="round" stroke-linejoin="round" d="M2.875 26.4155S8.625 23.958333333333336 13.416666666666668 23.958333333333336c3.380041666666667 0 7.091666666666668 1.3589166666666666 9.577583333333333 2.4792083333333337 1.9070833333333335 0.8586666666666667 3.004375 1.4010833333333335 3.4404166666666667 3.447125 0.3037916666666667 1.4212083333333334 -0.7168333333333333 3.7902083333333336 -2.165833333333333 3.907125l-1.020625 0.08241666666666667m0 0c-2.34025 0 -5.962750000000001 -0.6938333333333333 -5.962750000000001 -0.6938333333333333m5.962750000000001 0.6938333333333333c3.2458750000000003 0 11.790375000000001 -1.5419583333333333 14.818708333333333 -2.1083333333333334 0.7225833333333334 -0.13416666666666668 1.4710416666666666 -0.232875 2.1581666666666663 0.025875000000000002 0.8644166666666667 0.3267916666666667 2.024 1.1155 2.577916666666667 3.01875 0.4331666666666667 1.4873333333333334 -0.6066250000000001 2.918125 -2.0508333333333337 3.4768333333333334C36.516333333333336 39.92608333333333 27.683375 43.125 23.248208333333334 43.125 11.5 43.125 2.875 40.176208333333335 2.875 40.176208333333335" stroke-width="2"></path><path id="Union_2" stroke="#000" stroke-linecap="round" stroke-linejoin="round" d="M28.87075 22.0225c0.03066666666666667 0.8845416666666668 0.5788333333333333 1.6454583333333335 1.4528333333333334 1.779625 0.5654166666666667 0.08625 1.3119583333333333 0.15620833333333334 2.2597500000000004 0.15620833333333334a14.854166666666668 14.854166666666668 0 0 0 2.2597500000000004 -0.15620833333333334c0.8740000000000001 -0.13416666666666668 1.4221666666666668 -0.8950833333333335 1.4528333333333334 -1.7786666666666668 0.035458333333333335 -1.0158333333333334 0.07666666666666667 -2.590375 0.100625 -4.793583333333333a203.05166666666668 203.05166666666668 0 0 0 4.793583333333333 -0.100625c0.8835833333333334 -0.03066666666666667 1.6445 -0.5788333333333333 1.7786666666666668 -1.4528333333333334 0.08625 -0.5654166666666667 0.15620833333333334 -1.3119583333333333 0.15620833333333334 -2.2597500000000004a14.854166666666668 14.854166666666668 0 0 0 -0.15620833333333334 -2.2597500000000004c-0.13416666666666668 -0.8740000000000001 -0.8950833333333335 -1.4221666666666668 -1.7786666666666668 -1.4528333333333334 -1.0158333333333334 -0.035458333333333335 -2.590375 -0.07666666666666667 -4.793583333333333 -0.100625a203.86529166666668 203.86529166666668 0 0 0 -0.100625 -4.793583333333333c-0.03066666666666667 -0.8835833333333334 -0.5788333333333333 -1.6445 -1.4528333333333334 -1.7786666666666668A14.911666666666667 14.911666666666667 0 0 0 32.583333333333336 2.875a14.854166666666668 14.854166666666668 0 0 0 -2.2597500000000004 0.15620833333333334c-0.8740000000000001 0.13416666666666668 -1.4221666666666668 0.8950833333333335 -1.4528333333333334 1.7786666666666668 -0.035458333333333335 1.0158333333333334 -0.07666666666666667 2.590375 -0.100625 4.793583333333333a203.05166666666668 203.05166666666668 0 0 0 -4.793583333333333 0.100625c-0.8835833333333334 0.03066666666666667 -1.6445 0.5788333333333333 -1.7786666666666668 1.4528333333333334 -0.08625 0.5654166666666667 -0.15620833333333334 1.3119583333333333 -0.15620833333333334 2.2597500000000004 0 0.94875 0.06899999999999999 1.6952916666666666 0.15620833333333334 2.2597500000000004 0.13416666666666668 0.8740000000000001 0.8950833333333335 1.4221666666666668 1.7786666666666668 1.4528333333333334 1.0158333333333334 0.035458333333333335 2.590375 0.07666666666666667 4.793583333333333 0.100625 0.023958333333333335 2.2032083333333334 0.06516666666666668 3.7787083333333333 0.100625 4.793583333333333Z" stroke-width="2"></path></g></svg>