<svg xmlns="http://www.w3.org/2000/svg" fill="none" viewBox="-1 -1 48 48" height="48" width="48"><g id="information-desk"><path id="Rectangle 57" stroke="#000" stroke-linecap="round" stroke-linejoin="round" d="M43.03491666666667 38.9735c-0.15333333333333335 -0.9985833333333334 -1.0819583333333334 -1.4873333333333334 -2.091083333333333 -1.5045833333333334C38.63329166666667 37.432500000000005 33.41516666666667 37.375 23 37.375c-10.414208333333335 0 -15.632333333333335 0.0575 -17.942875 0.09487500000000001 -1.0100833333333334 0.01629166666666667 -1.9387083333333335 0.506 -2.092041666666667 1.5045833333333334A8.540666666666668 8.540666666666668 0 0 0 2.875 40.26916666666667c0 0.5040833333333333 0.034499999999999996 0.9247916666666667 0.08625 1.2745833333333334 0.15333333333333335 1.012 1.095375 1.5045833333333334 2.118875 1.5160833333333334C7.403125 43.086666666666666 12.62125 43.125 23 43.125c10.379708333333333 0 15.597833333333334 -0.03833333333333334 17.919875 -0.06420833333333334 1.0235 -0.011500000000000002 1.965541666666667 -0.5040833333333333 2.117916666666667 -1.5160833333333334 0.052708333333333336 -0.34883333333333333 0.08720833333333333 -0.7695416666666668 0.08720833333333333 -1.2745833333333334a8.529166666666667 8.529166666666667 0 0 0 -0.09008333333333333 -1.2966250000000001Z" stroke-width="2"></path><path id="Ellipse 382" stroke="#000" stroke-linecap="round" stroke-linejoin="round" d="M22.041666666666668 13.416666666666668a10.541666666666668 10.541666666666668 0 1 0 21.083333333333336 0 10.541666666666668 10.541666666666668 0 1 0 -21.083333333333336 0" stroke-width="2"></path><path id="Rectangle 58" stroke="#000" stroke-linecap="round" stroke-linejoin="round" d="M22.041666666666668 37.375a45.819833333333335 45.819833333333335 0 0 0 -0.6785 -4.3469999999999995c-0.36895833333333333 -1.808375 -1.8639583333333334 -3.1174583333333334 -3.7058750000000003 -3.22575A55.79416666666667 55.79416666666667 0 0 0 14.375 29.708333333333336c-1.2650000000000001 0 -2.369 0.03929166666666667 -3.2822916666666666 0.09391666666666668 -1.8419166666666666 0.10829166666666667 -3.336916666666667 1.4183333333333334 -3.7058750000000003 3.22575 -0.24916666666666668 1.2170833333333333 -0.5079166666666667 2.7226250000000003 -0.6785 4.3469999999999995" stroke-width="2"></path><path id="Ellipse 138" stroke="#000" stroke-linecap="round" stroke-linejoin="round" d="M8.625 23.958333333333336a5.75 5.75 0 1 0 11.5 0 5.75 5.75 0 1 0 -11.5 0" stroke-width="2"></path><path id="Vector 865" stroke="#000" stroke-linecap="round" stroke-linejoin="round" d="M32.583333333333336 13.416666666666668v4.791666666666667" stroke-width="2"></path><path id="Vector 866" stroke="#000" stroke-linecap="round" stroke-linejoin="round" d="M32.583333333333336 8.625v0.9583333333333334" stroke-width="2"></path></g></svg>