<svg xmlns="http://www.w3.org/2000/svg" fill="none" viewBox="-1 -1 48 48" height="48" width="48"><g id="waving-hand"><path id="Ellipse 554" stroke="#000" stroke-linecap="round" stroke-linejoin="round" d="M10.541666666666668 31.625c-3.0149166666666667 -2.6028333333333338 -5.057125 -7.335083333333333 -4.7629166666666665 -11.5" stroke-width="2"></path><path id="Ellipse 557" stroke="#000" stroke-linecap="round" stroke-linejoin="round" d="M5.75 33.54166666666667c-1.808375 -1.5180000000000002 -3.0340833333333332 -4.278958333333334 -2.8577500000000002 -6.708333333333334" stroke-width="2"></path><path id="Ellipse 555" stroke="#000" stroke-linecap="round" stroke-linejoin="round" d="M29.708333333333336 3.8333333333333335c3.4595833333333332 1.6483333333333334 6.157291666666667 5.6455416666666665 6.708333333333334 9.583333333333334" stroke-width="2"></path><path id="Ellipse 556" stroke="#000" stroke-linecap="round" stroke-linejoin="round" d="M36.41666666666667 2.875c1.9760833333333332 1.1538333333333333 3.5180416666666665 3.9521666666666664 3.8333333333333335 6.708333333333334" stroke-width="2"></path><path id="Union" stroke="#000" stroke-linecap="round" stroke-linejoin="round" d="M18.216 11.669625c1.3982083333333335 -0.6650833333333334 2.940166666666667 0.06899999999999999 3.716416666666667 1.40875 1.3867083333333334 2.3958333333333335 3.35225 5.833375 3.780625 6.581833333333334 -0.6669999999999999 -1.1777916666666668 -2.100666666666667 -3.92725 -3.063791666666667 -5.788333333333334 -0.600875 -1.1605416666666668 -0.55775 -2.580791666666667 0.48875 -3.362791666666667a7.4750000000000005 7.4750000000000005 0 0 1 0.7379166666666667 -0.4849166666666667 6.401666666666666 6.401666666666666 0 0 1 0.6162083333333334 -0.31145833333333334c1.2669166666666667 -0.560625 2.672791666666667 0.026833333333333334 3.497916666666667 1.1404166666666666 1.6646250000000002 2.245375 4.587541666666667 6.355666666666667 7.190375 10.863666666666667 0 0 0.5213333333333334 -1.2889583333333334 1.4844583333333334 -3.1979583333333337 0.9305416666666667 -1.8476666666666666 3.1050000000000004 -2.8222916666666666 4.7763333333333335 -1.60425 0.2645 0.19166666666666668 0.5270833333333333 0.40825 0.7772083333333334 0.64975 0.8318333333333333 0.8002083333333333 1.0512916666666667 2.0010000000000003 0.8941250000000001 3.1452500000000003 -0.313375 2.2722083333333334 -1.0637500000000002 6.420833333333333 -2.7216666666666667 10.45925 -0.6334583333333333 1.5448333333333335 -1.6483333333333334 2.894166666666667 -2.9967083333333333 3.88125 -1.0282916666666666 0.7522916666666667 -2.514666666666667 1.7489583333333334 -4.578916666666666 2.940166666666667 -0.40729166666666666 0.23479166666666668 -0.7982916666666666 0.4552083333333333 -1.173 0.66125 -3.845791666666667 2.120791666666667 -8.484125 1.5486666666666669 -11.323666666666668 -1.8016666666666665 -1.8687500000000001 -2.2041666666666666 -3.54775 -4.691041666666666 -4.8204166666666675 -6.9067083333333334a49.398250000000004 49.398250000000004 0 0 1 -3.558291666666667 -7.551666666666667c-0.42358333333333337 -1.1538333333333333 -0.3287083333333334 -2.4705833333333334 0.5443333333333333 -3.335a4.494583333333334 4.494583333333334 0 0 1 0.8855000000000001 -0.69c0.4446666666666667 -0.255875 0.9468333333333333 -0.37375 1.40875 -0.41975 0.9822916666666667 -0.09583333333333334 1.84 0.5261250000000001 2.392 1.3426250000000002l3.130875 4.626833333333334s-2.6373333333333333 -4.430375000000001 -4.30675 -7.352333333333333c-0.782 -1.3665833333333333 -0.56925 -3.0743333333333336 0.7091666666666667 -3.993375 0.273125 -0.1955 0.5635 -0.3871666666666667 0.8644166666666667 -0.560625 0.2175416666666667 -0.1265 0.4350833333333334 -0.23958333333333334 0.6478333333333334 -0.34020833333333333Z" stroke-width="2"></path><path id="Vector 268" stroke="#000" stroke-linecap="round" stroke-linejoin="round" d="M35.180416666666666 21.715833333333336c-3.152916666666667 0.9937916666666666 -6.162083333333333 4.387250000000001 -5.253583333333334 8.831999999999999" stroke-width="2"></path></g></svg>