<svg xmlns="http://www.w3.org/2000/svg" fill="none" viewBox="-1 -1 48 48" height="48" width="48"><g id="layers-1--design-layer-layers-pile-stack-align"><path id="Rectangle 298" stroke="#000" stroke-linecap="round" stroke-linejoin="round" d="M40.25 30.029375c0.7781666666666668 0.46 1.430791666666667 0.8701666666666668 1.963625 1.2209166666666667 1.0005000000000002 0.6574166666666668 1.0005000000000002 2.009625 0 2.6670416666666665 -1.5333333333333334 1.0081666666666667 -4.052791666666667 2.5137083333333337 -7.7136249999999995 4.256916666666667 -4.6690000000000005 2.223333333333333 -8.410333333333334 3.2861249999999997 -10.253208333333333 3.726958333333333a5.343666666666667 5.343666666666667 0 0 1 -2.4935833333333335 0c-1.842875 -0.44083333333333335 -5.584208333333334 -1.5045833333333334 -10.253208333333333 -3.7279166666666668 -3.660833333333333 -1.74225 -6.180291666666667 -3.2487500000000002 -7.7136249999999995 -4.255958333333333 -1.0005000000000002 -0.6574166666666668 -1.0005000000000002 -2.009625 0 -2.6670416666666665A48.522333333333336 48.522333333333336 0 0 1 5.75 30.029375" stroke-width="2"></path><path id="Rectangle 299" stroke="#000" stroke-linecap="round" stroke-linejoin="round" d="M40.25 20.32625c0.7781666666666668 0.46 1.4298333333333333 0.8720833333333334 1.963625 1.221875 1.0005000000000002 0.6574166666666668 1.0005000000000002 2.009625 0 2.6670416666666665 -1.5333333333333334 1.0081666666666667 -4.053750000000001 2.5137083333333337 -7.7145833333333345 4.256916666666667 -4.6690000000000005 2.223333333333333 -8.409375 3.2861249999999997 -10.25225 3.726958333333333a5.343666666666667 5.343666666666667 0 0 1 -2.494541666666667 0c-1.8419166666666666 -0.44083333333333335 -5.58325 -1.5045833333333334 -10.25225 -3.7279166666666668 -3.660833333333333 -1.74225 -6.18125 -3.2487500000000002 -7.7145833333333345 -4.255958333333333 -0.9995416666666667 -0.6574166666666668 -0.9995416666666667 -2.009625 0 -2.6670416666666665A48.52041666666667 48.52041666666667 0 0 1 5.75 20.32625" stroke-width="2"></path><path id="Rectangle 297" stroke="#000" stroke-linecap="round" stroke-linejoin="round" d="M21.753208333333337 4.099749999999999a5.343666666666667 5.343666666666667 0 0 1 2.4935833333333335 0c1.842875 0.44083333333333335 5.584208333333334 1.503625 10.253208333333333 3.726958333333333 3.660833333333333 1.7441666666666669 6.180291666666667 3.2487500000000002 7.7136249999999995 4.256916666666667 1.0005000000000002 0.6574166666666668 1.0005000000000002 2.009625 0 2.6670416666666665 -1.5333333333333334 1.0081666666666667 -4.052791666666667 2.5137083333333337 -7.7136249999999995 4.256916666666667 -4.6690000000000005 2.223333333333333 -8.410333333333334 3.2861249999999997 -10.253208333333333 3.726958333333333a5.343666666666667 5.343666666666667 0 0 1 -2.4935833333333335 0c-1.842875 -0.44083333333333335 -5.584208333333334 -1.5045833333333334 -10.253208333333333 -3.7279166666666668 -3.660833333333333 -1.74225 -6.180291666666667 -3.2487500000000002 -7.7136249999999995 -4.255958333333333 -1.0005000000000002 -0.6574166666666668 -1.0005000000000002 -2.009625 0 -2.6670416666666665C5.319708333333334 11.075458333333334 7.839166666666666 9.569916666666668 11.5 7.826708333333333c4.6690000000000005 -2.223333333333333 8.410333333333334 -3.287083333333334 10.253208333333333 -3.726958333333333Z" stroke-width="2"></path></g></svg>