<svg xmlns="http://www.w3.org/2000/svg" fill="none" viewBox="-1 -1 48 48" height="48" width="48"><g id="map-location-star-pin"><path id="Ellipse 517" stroke="#000" stroke-linecap="round" stroke-linejoin="round" d="M40.25 20.125c0 12.380708333333335 -12.79375 21.206 -16.345333333333336 23.417833333333334a1.6914583333333333 1.6914583333333333 0 0 1 -1.8093333333333332 0C18.544708333333332 41.331 5.75 32.50570833333333 5.75 20.125c0 -9.526791666666668 7.723208333333333 -17.25 17.25 -17.25s17.25 7.723208333333333 17.25 17.25Z" stroke-width="2"></path><path id="Star 4" stroke="#000" stroke-linecap="round" stroke-linejoin="round" d="M21.298000000000002 10.947041666666667c0.715875 -1.3790416666666667 2.6881250000000003 -1.3790416666666667 3.4030416666666667 0l2.0661666666666667 3.9818750000000005 4.420791666666667 0.871125c1.4595416666666667 0.2875 2.0498749999999997 2.055625 1.0541666666666667 3.1625L29.095 22.463333333333335l0.575 4.658458333333333c0.186875 1.5180000000000002 -1.3895833333333334 2.6325416666666666 -2.7580833333333334 1.9502083333333335L23 27.118916666666667l-3.9119166666666665 1.9530833333333333c-1.3675416666666667 0.6823333333333333 -2.9449583333333336 -0.43220833333333336 -2.7580833333333334 -1.9502083333333335l0.575 -4.658458333333333 -3.1481250000000003 -3.50175c-0.99475 -1.1059166666666667 -0.40441666666666665 -2.875 1.0541666666666667 -3.1625l4.42175 -0.8701666666666668 2.065208333333333 -3.9818750000000005Z" stroke-width="2"></path></g></svg>