<svg xmlns="http://www.w3.org/2000/svg" fill="none" viewBox="-1 -1 48 48" height="48" width="48"><g><path stroke="#000" stroke-linecap="round" stroke-linejoin="round" d="M33.54166666666667 40.57775a4.981416666666667 4.981416666666667 0 0 1 -1.817 0.43700000000000006C29.671916666666668 41.11825 26.796916666666668 41.208333333333336 23 41.208333333333336c-3.796916666666667 0 -6.671916666666666 -0.09104166666666667 -8.724666666666666 -0.1945416666666667A4.981416666666667 4.981416666666667 0 0 1 12.458333333333334 40.57775m25.395833333333336 -5.235375a4.983333333333333 4.983333333333333 0 0 1 -2.447583333333333 0.7839166666666666c-2.6718333333333333 0.14566666666666667 -6.741875 0.28941666666666666 -12.406583333333334 0.28941666666666666 -5.66375 0 -9.73475 -0.14375 -12.406583333333334 -0.28941666666666666a4.983333333333333 4.983333333333333 0 0 1 -2.447583333333333 -0.7839166666666666M3.256416666666667 27.034583333333334c0.23575000000000002 2.3910416666666667 2.1639166666666667 4.109333333333334 4.564541666666667 4.240625C10.90775 31.44483333333333 15.87191666666667 31.625 23 31.625c7.1280833333333335 0 12.09225 -0.18016666666666667 15.18 -0.34979166666666667 2.3996666666666666 -0.1312916666666667 4.327833333333333 -1.8495833333333334 4.563583333333333 -4.240625 0.20316666666666666 -2.0594583333333336 0.3814166666666667 -4.967041666666667 0.3814166666666667 -8.826250000000002 0 -3.8592083333333336 -0.17825 -6.766791666666667 -0.3814166666666667 -8.826250000000002 -0.23575000000000002 -2.392 -2.1639166666666667 -4.109333333333334 -4.564541666666667 -4.240625C35.09225 4.9718333333333335 30.128083333333333 4.791666666666667 23 4.791666666666667c-7.1280833333333335 0 -12.09225 0.18016666666666667 -15.18 0.34979166666666667 -2.3996666666666666 0.1312916666666667 -4.327833333333333 1.8495833333333334 -4.563583333333333 4.240625C3.0532500000000002 11.4425 2.875 14.349125 2.875 18.208333333333336c0 3.8592083333333336 0.17825 6.766791666666667 0.3814166666666667 8.826250000000002Z" stroke-width="2"></path><path stroke="#000" stroke-linecap="round" stroke-linejoin="round" d="M26.833333333333336 13.905416666666667s-1.5333333333333334 -1.1739583333333334 -3.8333333333333335 -1.1739583333333334c-1.9166666666666667 0 -3.8333333333333335 1.1739583333333334 -3.8333333333333335 2.7379583333333337 0 3.9119166666666665 7.666666666666667 1.5649583333333335 7.666666666666667 5.476875 0 1.564 -1.9166666666666667 2.7379583333333337 -3.8333333333333335 2.7379583333333337 -2.3 0 -3.8333333333333335 -1.1739583333333334 -3.8333333333333335 -1.1739583333333334m3.8333333333333335 -9.777875V10.541666666666668m0 15.333333333333334v-2.189791666666667M35.458333333333336 18.208333333333336h-0.9583333333333334m-23 0h-0.9583333333333334" stroke-width="2"></path></g></svg>