<svg xmlns="http://www.w3.org/2000/svg" fill="none" viewBox="-1 -1 48 48" height="48" width="48"><g id="man-arm-raises-2-alternate--man-raise-arm-scaning-detect-posture-security"><path id="Ellipse 137" stroke="#000" stroke-linecap="round" stroke-linejoin="round" d="M17.25 8.625a5.75 5.75 0 1 0 11.5 0 5.75 5.75 0 0 0 -11.5 0Z" stroke-width="2"></path><path id="Vector" stroke="#000" stroke-linecap="round" stroke-linejoin="round" d="m6.725583333333334 11.141583333333333 9.047625000000002 2.8040833333333337a9.581416666666666 9.581416666666666 0 0 0 2.836666666666667 0.42933333333333334h8.762041666666669a9.583333333333334 9.583333333333334 0 0 0 2.8730833333333337 -0.44083333333333335l8.911541666666666 -2.80025c1.135625 -0.3565 2.4303333333333335 0 2.9392083333333336 1.0762083333333334 0.6852083333333333 1.449 0.6794583333333333 2.683333333333333 0.4925833333333334 3.5688333333333335 -0.21370833333333333 1.020625 -1.0944166666666666 1.6866666666666668 -2.054666666666667 2.095875L30.758666666666663 22.041666666666668l-0.8145833333333333 17.504916666666666c-0.08337499999999999 1.8074166666666667 -1.4212083333333334 3.302416666666667 -3.22575 3.437541666666667A50.025000000000006 50.025000000000006 0 0 1 23 43.125c-1.3953333333333333 0 -2.6641666666666666 -0.06133333333333334 -3.716416666666667 -0.140875 -1.8045416666666667 -0.13416666666666668 -3.143333333333333 -1.630125 -3.2267083333333333 -3.437541666666667L15.242291666666667 22.041666666666668l-9.813333333333334 -4.120833333333334c-1.04075 -0.4379583333333334 -1.98375 -1.1806666666666668 -2.1581666666666663 -2.2961666666666667 -0.13416666666666668 -0.85675 -0.09775 -2.0077083333333334 0.48875 -3.3445833333333335 0.48875 -1.1116666666666666 1.8064583333333335 -1.4988333333333335 2.966041666666667 -1.1385Z" stroke-width="2"></path><path id="Vector 1331" stroke="#000" stroke-linecap="round" stroke-linejoin="round" d="m23 43.125 0 -12.458333333333334" stroke-width="2"></path></g></svg>