<svg xmlns="http://www.w3.org/2000/svg" fill="none" viewBox="-1 -1 48 48" height="48" width="48"><g id="intersex-symbol--geometric-gender-intersex-person-human-user"><path id="Ellipse 108" stroke="#000" stroke-linecap="round" stroke-linejoin="round" d="M10.541666666666668 22.041666666666668a12.458333333333334 12.458333333333334 0 1 0 24.916666666666668 0 12.458333333333334 12.458333333333334 0 1 0 -24.916666666666668 0" stroke-width="2"></path><path id="Rectangle 1603" stroke="#000" stroke-linecap="round" stroke-linejoin="round" d="M41.71241666666667 10.20625c0.756125 0.6650833333333334 1.773875 0.22425000000000003 1.888875 -0.7762500000000001 0.19358333333333336 -1.6914583333333333 0.39579166666666665 -3.8429166666666665 0.46 -6.075833333333334A1.37425 1.37425 0 0 0 42.645833333333336 1.9377499999999999a64.31279166666667 64.31279166666667 0 0 0 -6.153458333333334 0.48875c-0.9794166666666667 0.1255416666666667 -1.3895833333333334 1.1260416666666668 -0.7340833333333334 1.8639583333333334 0.6296250000000001 0.7091666666666667 1.5601666666666667 1.7000833333333334 2.9257916666666666 3.056125a70.76333333333334 70.76333333333334 0 0 0 3.0283333333333338 2.860625Z" stroke-width="2"></path><path id="Vector 1346" stroke="#000" stroke-linecap="round" stroke-linejoin="round" d="m38.333333333333336 7.666666666666667 -5.75 5.75" stroke-width="2"></path><path id="Vector 1343" stroke="#000" stroke-linecap="round" stroke-linejoin="round" d="m23 34.5 0 9.583333333333334" stroke-width="2"></path><path id="Vector 1344" stroke="#000" stroke-linecap="round" stroke-linejoin="round" d="M26.833333333333336 40.25h-7.666666666666667" stroke-width="2"></path></g></svg>