<svg xmlns="http://www.w3.org/2000/svg" fill="none" viewBox="-1 -1 48 48" height="48" width="48"><g id="bowl-chop-stick--cook-soup-bowl-chopsticks-cooking-nutrition-asian-food-kitchenware"><path id="Ellipse 18" stroke="#000" stroke-linecap="round" stroke-linejoin="round" d="M4.0135 26.924375C5.297666666666666 35.91258333333333 13.309333333333333 43.125 23 43.125c9.690666666666667 0 17.702333333333335 -7.212416666666667 18.986500000000003 -16.200625000000002 0.20508333333333334 -1.4355833333333334 -0.8979583333333334 -2.629666666666667 -2.3469583333333333 -2.6986666666666665C37.04054166666667 24.103041666666666 32.052416666666666 23.958333333333336 23 23.958333333333336c-9.051458333333334 0 -14.039583333333335 0.14470833333333333 -16.639541666666666 0.26833333333333337 -1.4480416666666667 0.06708333333333334 -2.5520416666666668 1.262125 -2.347916666666667 2.6977083333333334Z" stroke-width="2"></path><path id="Ellipse 19" stroke="#000" stroke-linecap="round" stroke-linejoin="round" d="M36.532625 28.75a14.664416666666666 14.664416666666666 0 0 1 -6.419875 7.666666666666667" stroke-width="2"></path><path id="Vector 177 (Stroke)" fill-rule="evenodd" stroke="#000" stroke-linecap="round" stroke-linejoin="round" d="M13.251833333333334 18.577291666666667c-0.6631666666666667 -0.6631666666666667 -0.41591666666666666 -1.7192500000000002 0.16483333333333333 -2.4562083333333335 1.8131666666666666 -2.3 6.050916666666667 -7.560291666666667 10.384500000000001 -12.11525 1.0330833333333334 -1.0857916666666667 2.5750416666666665 -1.7345833333333334 3.77775 -0.8404583333333334a5.254541666666666 5.254541666666666 0 0 1 1.0848333333333333 1.0848333333333333c0.8931666666666668 1.2036666666666667 0.24533333333333335 2.7456250000000004 -0.8404583333333334 3.7787083333333333 -4.554958333333333 4.333583333333333 -9.81525 8.571333333333335 -12.11525 10.384500000000001 -0.7369583333333334 0.58075 -1.7920833333333335 0.8280000000000001 -2.4562083333333335 0.16387500000000002Z" clip-rule="evenodd" stroke-width="2"></path><path id="Vector 177 (Stroke)_2" fill-rule="evenodd" stroke="#000" stroke-linecap="round" stroke-linejoin="round" d="M24.514166666666664 19.108208333333334c-0.46958333333333335 -0.8126666666666666 0.042166666666666665 -1.7690833333333336 0.7944583333333334 -2.3297083333333335 2.3469583333333333 -1.7537500000000001 7.800833333333334 -5.736583333333333 13.166541666666667 -9.016 1.2784166666666668 -0.7810416666666666 2.935375 -1.0072083333333333 3.8659166666666667 0.16674999999999998a5.260291666666666 5.260291666666666 0 0 1 0.7666666666666667 1.3292083333333333c0.5519999999999999 1.3934166666666667 -0.47245833333333337 2.7149583333333336 -1.7892083333333333 3.4308333333333336 -5.521916666666667 3.008208333333333 -11.698375 5.740416666666667 -14.389375000000001 6.896166666666667 -0.8625 0.36991666666666667 -1.9454166666666666 0.33541666666666664 -2.415 -0.47725Z" clip-rule="evenodd" stroke-width="2"></path></g></svg>