<svg xmlns="http://www.w3.org/2000/svg" fill="none" viewBox="-1 -1 48 48" height="48" width="48"><g id="text-shadow"><path id="Vector" stroke="#000" stroke-linecap="round" stroke-linejoin="round" d="M21.101541666666666 35.231208333333335c-0.6535833333333334 2.091083333333333 -1.2458333333333333 4.193666666666667 -1.8131666666666666 6.305833333333334 -0.1725 0.644 -0.6622083333333333 1.1634166666666668 -1.3119583333333333 1.3090833333333334 -0.7887083333333333 0.17633333333333334 -1.584125 0.278875 -2.40925 0.278875 -1.6646250000000002 0 -3.612916666666667 -0.34020833333333333 -4.516625 -1.6004166666666666M32.583333333333336 10.031833333333333c0.5242083333333334 0.4025 0.9362916666666666 0.9180833333333334 1.1672500000000001 1.5735833333333333 0 0 5.704958333333334 17.47041666666667 8.792708333333334 27.924875 0.3670416666666667 1.2429583333333334 0.0805 2.67375 -1.1346666666666667 3.1241666666666665 -0.9679166666666668 0.359375 -2.0661666666666667 0.4705416666666667 -3.027375 0.4705416666666667 -1.8323333333333334 0 -3.176875 -0.45041666666666663 -4.035541666666667 -1.6004166666666666" stroke-width="2"></path><path id="Vector_2" stroke="#000" stroke-linecap="round" stroke-linejoin="round" d="M24.503625 29.481208333333335h-11.068750000000001c-0.6535833333333334 2.091083333333333 -1.2458333333333333 4.193666666666667 -1.8131666666666666 6.305833333333334 -0.1725 0.644 -0.6622083333333333 1.1634166666666668 -1.3119583333333333 1.3090833333333334A10.95375 10.95375 0 0 1 7.9005 37.375C5.6455416666666665 37.375 2.875 36.75208333333334 2.875 34.062999999999995c0 0 5.572708333333334 -18.659708333333334 9.568958333333333 -28.62925 0.3095416666666667 -0.7705000000000001 0.8615416666666668 -1.4298333333333333 1.6349166666666668 -1.7297916666666666C15.646708333333336 3.095416666666667 17.480958333333334 2.875 19.081375 2.875c2.370916666666667 0 6.090208333333334 0.39291666666666664 7.0025416666666676 2.9804166666666667 0 0 5.704958333333334 17.471375000000002 8.792708333333334 27.924875 0.3670416666666667 1.2429583333333334 0.0805 2.67375 -1.1346666666666667 3.1241666666666665 -0.9679166666666668 0.359375 -2.0661666666666667 0.4705416666666667 -3.027375 0.4705416666666667 -2.595166666666667 0 -4.211875 -0.9017916666666667 -4.855875 -3.4222083333333337l-1.3560416666666668 -4.471583333333334Zm-5.311083333333333 -18.878208333333337a0.23 0.23 0 0 0 -0.2175416666666667 0.15908333333333335c-1.2870416666666666 4.01925 -2.8337916666666665 7.949375 -4.071958333333333 11.984916666666667h8.074916666666667c-1.1078333333333332 -4.015416666666667 -2.393916666666667 -7.981958333333334 -3.5650000000000004 -11.979166666666668a0.22904166666666667 0.22904166666666667 0 0 0 -0.22041666666666668 -0.16483333333333333Z" stroke-width="2"></path></g></svg>