<svg xmlns="http://www.w3.org/2000/svg" fill="none" viewBox="-1 -1 48 48" height="48" width="48"><g id="layer-mask"><path id="Rectangle 722" stroke="#000" stroke-linecap="round" stroke-linejoin="round" d="M3.357041666666667 11.13775c0.209875 -2.1112083333333334 1.772916666666667 -3.681916666666667 3.8860416666666664 -3.88125C10.061541666666667 6.9891250000000005 14.943291666666667 6.708333333333334 23 6.708333333333334s12.9375 0.28079166666666666 15.756916666666667 0.5481666666666667c2.113125 0.19933333333333333 3.6761666666666666 1.7700416666666667 3.8860416666666664 3.88125C42.8835 13.554666666666668 43.125 17.380333333333333 43.125 23s-0.24150000000000002 9.445333333333334 -0.4820416666666667 11.862250000000001c-0.209875 2.1112083333333334 -1.772916666666667 3.681916666666667 -3.8860416666666664 3.88125C35.93845833333333 39.010875000000006 31.056708333333333 39.29166666666667 23 39.29166666666667s-12.9375 -0.28079166666666666 -15.756916666666667 -0.5481666666666667c-2.113125 -0.19933333333333333 -3.6761666666666666 -1.7700416666666667 -3.8860416666666664 -3.88125C3.1165 32.44533333333334 2.875 28.619666666666667 2.875 23s0.24150000000000002 -9.445333333333334 0.4820416666666667 -11.862250000000001Z" stroke-width="2"></path><path id="Ellipse 18" stroke="#000" stroke-linecap="round" stroke-linejoin="round" d="M23 13.416666666666668c5.2928749999999996 0 9.583333333333334 4.2904583333333335 9.583333333333334 9.583333333333334s-4.2904583333333335 9.583333333333334 -9.583333333333334 9.583333333333334 -9.583333333333334 -4.2904583333333335 -9.583333333333334 -9.583333333333334 4.2904583333333335 -9.583333333333334 9.583333333333334 -9.583333333333334Z" stroke-width="2"></path></g></svg>