<svg xmlns="http://www.w3.org/2000/svg" fill="none" viewBox="-1 -1 48 48" height="48" width="48"><g id="box-waterproof--box-package-label-delivery-shipment-shipping-waterproof-protect-water-wet"><path id="Rectangle 1095" stroke="#000" stroke-linecap="round" d="M11.768333333333333 39.76412500000001a3.3158333333333334 3.3158333333333334 0 0 0 3.0925416666666665 3.0935c1.82275 0.13416666666666668 4.533875 0.26737500000000003 8.139125 0.26737500000000003 3.6052500000000003 0 6.315416666666667 -0.13320833333333335 8.139125 -0.26833333333333337a3.3158333333333334 3.3158333333333334 0 0 0 3.0935 -3.0925416666666665C34.365833333333335 37.941375 34.5 35.230250000000005 34.5 31.625c0 -3.6052500000000003 -0.13320833333333335 -6.315416666666667 -0.26833333333333337 -8.139125a3.3158333333333334 3.3158333333333334 0 0 0 -3.0925416666666665 -3.0935C29.316375 20.25916666666667 26.60525 20.125 23 20.125c-3.6052500000000003 0 -6.315416666666667 0.13320833333333335 -8.139125 0.26833333333333337a3.3158333333333334 3.3158333333333334 0 0 0 -3.0935 3.0925416666666665C11.634166666666667 25.308625 11.5 28.019750000000002 11.5 31.625c0 3.6052500000000003 0.13320833333333335 6.315416666666667 0.26833333333333337 8.139125Z" stroke-width="2"></path><path id="Vector 830" stroke="#000" stroke-linecap="round" d="M28.75 37.375h-5.75" stroke-width="2"></path><path id="Vector 831" stroke="#000" stroke-linecap="round" d="M28.75 32.583333333333336h-3.8333333333333335" stroke-width="2"></path><path id="Vector 845" stroke="#000" stroke-linecap="round" d="m22.041666666666668 2.875 2.875 2.875" stroke-width="2"></path><path id="Vector 846" stroke="#000" stroke-linecap="round" d="m34.5 5.75 2.875 2.875" stroke-width="2"></path><path id="Vector 847" stroke="#000" stroke-linecap="round" d="m9.583333333333334 5.75 2.875 2.875" stroke-width="2"></path><path id="Vector" stroke="#000" stroke-linecap="round" stroke-linejoin="round" d="M2.875 20.125s4.791666666666667 -7.666666666666667 20.125 -7.666666666666667 20.125 7.666666666666667 20.125 7.666666666666667" stroke-width="2"></path></g></svg>