<svg xmlns="http://www.w3.org/2000/svg" fill="none" viewBox="-1 -1 48 48" height="48" width="48"><g id="lock-comment-security"><path id="Vector" stroke="#000" stroke-linecap="round" stroke-linejoin="round" d="M10.541666666666668 21.083333333333336h9.583333333333334" stroke-width="2"></path><path id="Vector_2" stroke="#000" stroke-linecap="round" stroke-linejoin="round" d="M10.541666666666668 12.458333333333334h23" stroke-width="2"></path><path id="Rectangle 56" stroke="#000" stroke-linecap="round" stroke-linejoin="round" d="M26.92054166666667 33.848333333333336c0.09775 -1.6780416666666667 1.2640416666666667 -2.866375 2.9392083333333336 -3.0005416666666664C31.10941666666667 30.747166666666672 32.907250000000005 30.666666666666668 35.458333333333336 30.666666666666668c2.683333333333333 0 4.523333333333333 0.089125 5.764375 0.19645833333333332 1.538125 0.13320833333333335 2.624875 1.2027083333333333 2.7408333333333332 2.74275 0.06899999999999999 0.9046666666666666 0.11979166666666667 2.1294166666666667 0.11979166666666667 3.769125 0 1.6397083333333335 -0.050791666666666666 2.8644583333333333 -0.11979166666666667 3.769125 -0.11595833333333333 1.5400416666666668 -1.2027083333333333 2.6095416666666664 -2.7408333333333332 2.74275C39.98166666666667 43.99420833333333 38.141666666666666 44.083333333333336 35.458333333333336 44.083333333333336s-4.523333333333333 -0.089125 -5.764375 -0.19645833333333332c-1.538125 -0.13320833333333335 -2.6239166666666667 -1.2027083333333333 -2.7408333333333332 -2.74275A50.53004166666666 50.53004166666666 0 0 1 26.833333333333336 37.375c0 -1.497875 0.03641666666666667 -2.648833333333333 0.08720833333333333 -3.526666666666667Z" stroke-width="2"></path><path id="Subtract" stroke="#000" stroke-linecap="round" stroke-linejoin="round" d="m40.1465 30.785500000000003 -0.12937500000000002 -3.3963333333333336a4.5616666666666665 4.5616666666666665 0 0 0 -9.116625 0l-0.12937500000000002 3.3953750000000005" stroke-width="2"></path><path id="Vector 1114" stroke="#000" stroke-linecap="round" stroke-linejoin="round" d="M35.458333333333336 36.41666666666667v1.9166666666666667" stroke-width="2"></path><path id="Union" stroke="#000" stroke-linecap="round" stroke-linejoin="round" d="m21.5625 36.41666666666667 -6.898083333333334 5.912916666666667C13.4205 43.39525 11.5 42.51166666666667 11.5 40.874833333333335v-4.654625a158.71629166666668 158.71629166666668 0 0 1 -4.554 -0.24725000000000003c-2.44375 -0.169625 -4.349875 -1.9942916666666668 -4.563583333333333 -4.434208333333333C2.146666666666667 28.865000000000002 1.9166666666666667 24.806458333333335 1.9166666666666667 19.166666666666668s0.23 -9.699291666666667 0.46575 -12.372083333333334c0.21370833333333333 -2.4399166666666665 2.1198333333333337 -4.264583333333333 4.563583333333333 -4.434208333333333C10.038541666666667 2.14475 14.976833333333333 1.9166666666666667 22.041666666666668 1.9166666666666667c7.063875 0 12.003125 0.22808333333333333 15.095666666666668 0.44370833333333337 2.44375 0.169625 4.349875 1.9942916666666668 4.563583333333333 4.434208333333333C41.93666666666667 9.468333333333334 42.16666666666667 13.526875 42.16666666666667 19.166666666666668c0 0.324875 0 0.644 -0.0019166666666666668 0.9583333333333334l-0.0019166666666666668 0.24916666666666668" stroke-width="2"></path></g></svg>