<svg xmlns="http://www.w3.org/2000/svg" fill="none" viewBox="-1 -1 48 48" height="48" width="48"><g id="document-certificate--document-contract-license-permission-award"><path id="Rectangle 1096" stroke="#000" stroke-linecap="round" stroke-linejoin="round" d="M21.083333333333336 37.36925c-6.0499583333333335 -0.03641666666666667 -10.373958333333333 -0.24150000000000002 -13.179 -0.4379583333333334 -2.44375 -0.169625 -4.349875 -1.9942916666666668 -4.563583333333333 -4.434208333333333C3.1050000000000004 29.823333333333334 2.875 25.764791666666667 2.875 20.125s0.23 -9.699291666666667 0.46575 -12.372083333333334c0.21370833333333333 -2.4399166666666665 2.1198333333333337 -4.264583333333333 4.563583333333333 -4.434208333333333C10.996875 3.1030833333333336 15.935166666666667 2.875 23 2.875c7.063875 0 12.003125 0.22808333333333333 15.095666666666668 0.44370833333333337 2.44375 0.169625 4.349875 1.9942916666666668 4.563583333333333 4.434208333333333C42.895 10.426666666666668 43.125 14.485208333333334 43.125 20.125s-0.23 9.699291666666667 -0.46575 12.372083333333334c-0.20700000000000002 2.3603750000000003 -1.9971666666666668 4.144791666666667 -4.325916666666667 4.413125000000001" stroke-width="2"></path><path id="Union" stroke="#000" stroke-linecap="round" stroke-linejoin="round" d="M21.083333333333336 26.833333333333336c0 1.204625 0.5558333333333333 2.279875 1.4250416666666668 2.9823333333333335a3.8256666666666668 3.8256666666666668 0 0 0 1.1020833333333333 3.1165 3.817041666666667 3.817041666666667 0 0 0 2.2750833333333333 1.09825c-0.02875 2.1677500000000003 -0.004791666666666667 4.983333333333333 0.18208333333333335 8.045208333333333 0.04791666666666667 0.805 1.0129583333333334 1.173 1.595625 0.6152500000000001l1.5477083333333335 -1.4854166666666668a0.71875 0.71875 0 0 1 0.99475 0l1.5477083333333335 1.4854166666666668c0.5826666666666667 0.55775 1.5477083333333335 0.18975000000000003 1.5965833333333332 -0.6152500000000001 0.18591666666666667 -3.0628333333333337 0.21083333333333334 -5.877458333333333 0.18208333333333335 -8.045208333333333a3.817041666666667 3.817041666666667 0 0 0 2.2750833333333333 -1.09825 3.8256666666666668 3.8256666666666668 0 0 0 1.1020833333333333 -3.1165A3.8256666666666668 3.8256666666666668 0 0 0 38.333333333333336 26.833333333333336c0 -1.204625 -0.5558333333333333 -2.279875 -1.4250416666666668 -2.9823333333333335a3.8256666666666668 3.8256666666666668 0 0 0 -1.1011250000000001 -3.1165 3.826625 3.826625 0 0 0 -3.1165 -1.1020833333333333A3.8256666666666668 3.8256666666666668 0 0 0 29.708333333333336 18.208333333333336c-1.204625 0 -2.279875 0.5558333333333333 -2.9823333333333335 1.4250416666666668a3.8256666666666668 3.8256666666666668 0 0 0 -3.1165 1.1011250000000001 3.8256666666666668 3.8256666666666668 0 0 0 -1.1020833333333333 3.1165A3.8256666666666668 3.8256666666666668 0 0 0 21.083333333333336 26.833333333333336Z" stroke-width="2"></path><path id="Ellipse 70" stroke="#000" stroke-linecap="round" stroke-linejoin="round" d="M26.833333333333336 26.876458333333336a2.875 2.875 0 1 0 5.75 0 2.875 2.875 0 1 0 -5.75 0" stroke-width="2"></path><path id="Vector 1166" stroke="#000" stroke-linecap="round" stroke-linejoin="round" d="M11.5 11.5h20.125" stroke-width="2"></path><path id="Vector 1167" stroke="#000" stroke-linecap="round" stroke-linejoin="round" d="M11.5 18.208333333333336h5.75" stroke-width="2"></path></g></svg>