<svg xmlns="http://www.w3.org/2000/svg" fill="none" viewBox="-1 -1 48 48" height="48" width="48"><g id="no-touch-sign"><path id="Union" stroke="#000" stroke-linecap="round" stroke-linejoin="round" d="M23.57691666666667 12.502416666666667c0.009583333333333334 2.009625 0.017249999999999998 3.9215 0.017249999999999998 4.89325 0 0 -0.009583333333333334 -2.218541666666667 -0.017249999999999998 -4.89325Zm0 0 -0.01916666666666667 -3.739416666666667c-0.009583333333333334 -1.955 -1.2237916666666666 -3.7442083333333334 -3.1720833333333336 -3.920541666666667A12.2705 12.2705 0 0 0 19.28166666666667 4.791666666666667c-0.3756666666666667 0 -0.7513333333333334 0.02875 -1.112625 0.07379166666666667 -1.7192500000000002 0.2175416666666667 -2.872125 1.7211666666666667 -3.072416666666667 3.4413750000000003a172.58625 172.58625 0 0 0 -0.5912916666666667 6.049m9.071583333333333 -1.8534166666666667c-0.004791666666666667 -1.8764166666666666 -0.008624999999999999 -3.9770833333333337 -0.005750000000000001 -5.695374999999999 0.0028750000000000004 -1.9358333333333335 1.2122916666666665 -3.6867083333333333 3.1395 -3.8735833333333334 0.37950000000000006 -0.03641666666666667 0.7800833333333334 -0.058458333333333334 1.196 -0.058458333333333334 0.5424166666666667 0 1.0838750000000001 0.03833333333333334 1.5985 0.09583333333333334 1.955 0.22233333333333336 3.2545 1.9339166666666665 3.2640833333333337 3.900416666666667a436.19500000000005 436.19500000000005 0 0 1 -0.0038333333333333336 4.3125m0 0c-0.01916666666666667 3.694375 -0.06708333333333334 7.294833333333334 -0.06708333333333334 7.294833333333334l0.052708333333333336 -6.959416666666667c0.0009583333333333334 -0.11212500000000002 0.005750000000000001 -0.22425000000000003 0.014375 -0.33541666666666664Zm0 0c0.1265 -1.6540833333333333 1.095375 -3.1720833333333336 2.717833333333333 -3.555416666666667a6.7428333333333335 6.7428333333333335 0 0 1 1.5275833333333335 -0.20125c0.5989583333333334 0 1.1969583333333336 0.11691666666666667 1.7365000000000002 0.27791666666666665 1.4125833333333333 0.41975 2.3028750000000002 1.7154166666666668 2.5625833333333334 3.166333333333333 0.41975 2.347916666666667 0.97175 6.386333333333333 0.9727083333333333 11.372541666666669 0.007666666666666667 4.103583333333334 -0.39866666666666667 9.055291666666667 -1.4327083333333335 13.484708333333334a9.225875 9.225875 0 0 1 -1.5160833333333334 3.335" stroke-width="2"></path><path id="Union_2" stroke="#000" stroke-linecap="round" stroke-linejoin="round" d="M35.33854166666667 42.21266666666667a10.541666666666668 10.541666666666668 0 0 1 -3.5985416666666667 0.8145833333333333 83.77079166666667 83.77079166666667 0 0 1 -4.118916666666667 0.09583333333333334c-3.751875 0 -6.394958333333333 -0.22041666666666668 -8.100791666666666 -0.44275000000000003 -1.6560000000000001 -0.21466666666666667 -3.2065833333333336 -0.8835833333333334 -4.54825 -1.8783333333333334 -5.258375 -3.8965833333333335 -9.345666666666668 -8.863625 -11.17225 -11.266166666666667 -0.6995833333333333 -0.92 -1.0972916666666668 -2.060416666666667 -0.8519583333333334 -3.188375 0.23766666666666666 -1.089625 0.6679583333333333 -2.0661666666666667 1.1404166666666666 -2.8865000000000003 1.0311666666666668 -1.7940000000000003 3.3445833333333335 -2.038375 5.091625 -0.928625 2.96125 1.8821666666666668 4.831916666666666 3.3407500000000003 4.831916666666666 3.3407500000000003 0 -1.6215 0.035458333333333335 -3.2295833333333337 0.09391666666666668 -4.789750000000001" stroke-width="2"></path><path id="Vector 268" stroke="#000" stroke-linecap="round" stroke-linejoin="round" d="M14.131583333333335 25.875c1.8706666666666667 -0.41591666666666666 4.011583333333333 -0.290375 5.993416666666667 0.45425" stroke-width="2"></path><path id="Vector 864" stroke="#000" stroke-linecap="round" stroke-linejoin="round" d="m2.875 2.875 40.25 40.25" stroke-width="2"></path></g></svg>