<svg xmlns="http://www.w3.org/2000/svg" fill="none" viewBox="-1 -1 48 48" height="48" width="48"><g id="pacman--entertainment-gaming-pacman-video"><path id="Subtract" stroke="#000" stroke-linecap="round" stroke-linejoin="round" d="M39.143125 10.627916666666668c0.6516666666666667 0.8347083333333334 0.382375 2.0278333333333336 -0.5107916666666668 2.5961250000000002L23.27025 23l15.362083333333334 9.775958333333334c0.8931666666666668 0.5682916666666666 1.1624583333333334 1.7614166666666669 0.5107916666666668 2.5970833333333334C35.46025 40.089958333333335 29.718875 43.125 23.269291666666668 43.125c-11.11475 0 -20.125 -9.01025 -20.125 -20.125s9.01025 -20.125 20.125 -20.125c6.449583333333334 0 12.190958333333334 3.0340833333333332 15.873833333333334 7.752916666666667Z" stroke-width="2"></path><path id="Ellipse 610" stroke="#000" stroke-linecap="round" stroke-linejoin="round" d="M19.645833333333336 13.416666666666668a0.4791666666666667 0.4791666666666667 0 0 1 0 -0.9583333333333334" stroke-width="2"></path><path id="Ellipse 611" stroke="#000" stroke-linecap="round" stroke-linejoin="round" d="M19.645833333333336 13.416666666666668a0.4791666666666667 0.4791666666666667 0 0 0 0 -0.9583333333333334" stroke-width="2"></path></g></svg>