<svg xmlns="http://www.w3.org/2000/svg" fill="none" viewBox="-1 -1 48 48" height="48" width="48"><g id="polaroid--photos-polaroid-picture-camera-photography-photo-pictures-image"><path id="Rectangle 1095" stroke="#000" stroke-linecap="round" stroke-linejoin="round" d="M38.333333333333336 13.737708333333334c0.733125 0.23670833333333333 1.3905416666666668 0.457125 1.9770416666666668 0.6593333333333333 2.323 0.8002083333333333 3.6445416666666666 3.089666666666667 3.176875 5.501791666666667 -0.45329166666666665 2.3345000000000002 -1.2007916666666667 5.716458333333334 -2.415 10.244583333333333 -1.2132500000000002 4.530041666666667 -2.256875 7.832458333333333 -3.0312083333333333 10.080708333333334 -0.8002083333333333 2.323 -3.090625 3.6445416666666666 -5.501791666666667 3.1759166666666667 -2.3345000000000002 -0.4523333333333333 -5.716458333333334 -1.1998333333333333 -10.245541666666668 -2.4130833333333332 -4.066208333333334 -1.089625 -7.143416666666667 -2.0422083333333334 -9.356208333333333 -2.7858750000000003" stroke-width="2"></path><path id="Vector 906" stroke="#000" stroke-linecap="round" stroke-linejoin="round" d="M38.453125 38.5135 32.583333333333336 36.93895833333334" stroke-width="2"></path><path id="Rectangle 1095_2" stroke="#000" stroke-linejoin="round" d="M3.1950833333333337 28.72891666666667c0.1725 2.451416666666667 2.04125 4.321125 4.492666666666667 4.492666666666667C10.059625 33.388333333333335 13.519208333333333 33.54166666666667 18.208333333333336 33.54166666666667s8.148708333333333 -0.15333333333333335 10.520583333333333 -0.3200833333333334c2.451416666666667 -0.1725 4.321125 -2.04125 4.492666666666667 -4.492666666666667C33.388333333333335 26.357041666666667 33.54166666666667 22.897458333333336 33.54166666666667 18.208333333333336s-0.15333333333333335 -8.148708333333333 -0.3200833333333334 -10.520583333333333c-0.1725 -2.451416666666667 -2.04125 -4.321125 -4.492666666666667 -4.492666666666667C26.357041666666667 3.0283333333333338 22.897458333333336 2.875 18.208333333333336 2.875s-8.148708333333333 0.15333333333333335 -10.520583333333333 0.3200833333333334c-2.451416666666667 0.1725 -4.321125 2.04125 -4.492666666666667 4.492666666666667C3.0283333333333338 10.059625 2.875 13.519208333333333 2.875 18.208333333333336s0.15333333333333335 8.148708333333333 0.3200833333333334 10.520583333333333Z" stroke-width="2"></path><path id="Vector 906_2" stroke="#000" stroke-linecap="round" stroke-linejoin="round" d="M3.354166666666667 26.833333333333336h29.708333333333336" stroke-width="2"></path></g></svg>