<svg xmlns="http://www.w3.org/2000/svg" fill="none" viewBox="-1 -1 48 48" height="48" width="48"><g id="incognito-mode--internet-safe-mode-browser"><path id="Ellipse 533" stroke="#000" d="M6.708333333333334 36.41666666666667a6.708333333333334 6.708333333333334 0 1 0 13.416666666666668 0 6.708333333333334 6.708333333333334 0 1 0 -13.416666666666668 0" stroke-width="2"></path><path id="Ellipse 534" stroke="#000" d="M39.29166666666667 36.41666666666667a6.708333333333334 6.708333333333334 0 1 1 -13.416666666666668 0 6.708333333333334 6.708333333333334 0 1 1 13.416666666666668 0" stroke-width="2"></path><path id="Ellipse 535" stroke="#000" stroke-linecap="round" d="M20.125 36.41666666666667c1.5879583333333334 -1.2774583333333334 4.162041666666667 -1.2774583333333334 5.75 0" stroke-width="2"></path><path id="Rectangle 56" stroke="#000" stroke-linejoin="round" d="M2.9229166666666666 22.102041666666665c0.10541666666666667 1.043625 1.0187083333333333 1.60425 2.0671250000000003 1.6416250000000001C7.379166666666667 23.828958333333333 12.706541666666668 23.958333333333336 23 23.958333333333336s15.620833333333335 -0.12937500000000002 18.009958333333334 -0.21466666666666667c1.0484166666666668 -0.03833333333333334 1.9617083333333336 -0.598 2.0671250000000003 -1.6416250000000001 0.029708333333333333 -0.28941666666666666 0.04791666666666667 -0.62675 0.04791666666666667 -1.0187083333333333 0 -0.3919583333333333 -0.018208333333333333 -0.7292916666666667 -0.04791666666666667 -1.0187083333333333 -0.10541666666666667 -1.043625 -1.0187083333333333 -1.60425 -2.0671250000000003 -1.6416250000000001C38.62083333333333 18.337708333333335 33.293458333333334 18.208333333333336 23 18.208333333333336s-15.620833333333335 0.12937500000000002 -18.009958333333334 0.21466666666666667c-1.0484166666666668 0.03833333333333334 -1.9617083333333336 0.598 -2.0671250000000003 1.6416250000000001C2.8932083333333334 20.355 2.875 20.691375 2.875 21.083333333333336c0 0.3919583333333333 0.018208333333333333 0.7292916666666667 0.04791666666666667 1.0187083333333333Z" stroke-width="2"></path><path id="Subtract" stroke="#000" d="M7.872708333333334 18.3425c0.3066666666666667 -2.3958333333333335 0.9775 -6.8693333333333335 2.185 -11.35625 0.5596666666666666 -2.0824583333333333 2.3575 -3.555416666666667 4.506083333333334 -3.74325C16.687458333333336 3.0570833333333334 19.63625 2.875 23 2.875c3.36375 0 6.312541666666666 0.18208333333333335 8.436208333333335 0.36800000000000005 2.1485833333333333 0.186875 3.9464166666666673 1.6607916666666669 4.506083333333334 3.74325 1.2075 4.487875 1.8792916666666668 8.960416666666667 2.185 11.35625" stroke-width="2"></path></g></svg>