<svg xmlns="http://www.w3.org/2000/svg" fill="none" viewBox="-1 -1 48 48" height="48" width="48"><g id="traffic-light"><path id="Rectangle 1097" stroke="#000" stroke-linecap="round" stroke-linejoin="round" d="M34.19620833333333 7.723208333333333c-0.11212500000000002 -2.3527083333333336 -1.745125 -4.2712916666666665 -4.087291666666666 -4.516625C28.379125000000002 3.0245 26.03216666666667 2.875 23 2.875c-3.032166666666667 0 -5.379125000000001 0.1495 -7.108916666666667 0.33158333333333334 -2.3421666666666665 0.24533333333333335 -3.9751666666666665 2.1639166666666667 -4.087291666666666 4.516625C11.658125 10.803291666666667 11.5 15.796208333333334 11.5 23c0 7.2037916666666675 0.15812500000000002 12.196708333333333 0.3037916666666667 15.276791666666668 0.11212500000000002 2.3527083333333336 1.745125 4.2712916666666665 4.087291666666666 4.516625 1.7297916666666666 0.18208333333333335 4.07675 0.33158333333333334 7.108916666666667 0.33158333333333334 3.032166666666667 0 5.379125000000001 -0.1495 7.108916666666667 -0.33158333333333334 2.3421666666666665 -0.24533333333333335 3.9751666666666665 -2.1639166666666667 4.087291666666666 -4.516625C34.341875 35.19670833333333 34.5 30.203791666666667 34.5 23c0 -7.2037916666666675 -0.15812500000000002 -12.196708333333333 -0.3037916666666667 -15.276791666666668Z" stroke-width="2"></path><path id="Subtract" stroke="#000" stroke-linecap="round" stroke-linejoin="round" d="m11.584333333333333 31.625 -0.20891666666666667 0c-1.2285833333333334 0 -2.4102083333333337 0.02779166666666667 -3.3704583333333336 0.060375000000000005 -1.267875 0.042166666666666665 -2.2664583333333335 1.1011250000000001 -1.9770416666666668 2.3354583333333334 0.28270833333333334 1.2132500000000002 0.7312083333333333 2.3028750000000002 1.0905833333333332 3.061875a2.0815 2.0815 0 0 0 1.8016666666666665 1.2007916666666667c0.560625 0.02779166666666667 1.3531666666666666 0.049833333333333334 2.45525 0.049833333333333334l0.43125 -0.0009583333333333334a5.167333333333334 5.167333333333334 0 0 1 -0.0028750000000000004 -0.05558333333333334" stroke-width="2"></path><path id="Subtract_2" stroke="#000" stroke-linecap="round" stroke-linejoin="round" d="m11.515333333333334 19.166666666666668 -0.13991666666666666 0c-1.2285833333333334 0 -2.4102083333333337 0.02779166666666667 -3.3704583333333336 0.060375000000000005 -1.267875 0.042166666666666665 -2.2664583333333335 1.1011250000000001 -1.9770416666666668 2.3354583333333334 0.28270833333333334 1.2132500000000002 0.7312083333333333 2.3028750000000002 1.0905833333333332 3.061875a2.0815 2.0815 0 0 0 1.8016666666666665 1.2007916666666667c0.560625 0.02779166666666667 1.3531666666666666 0.049833333333333334 2.45525 0.049833333333333334l0.13320833333333335 0" stroke-width="2"></path><path id="Subtract_3" stroke="#000" stroke-linecap="round" stroke-linejoin="round" d="M11.950416666666667 6.71025a101.66670833333335 101.66670833333335 0 0 0 -3.9464166666666673 0.0575C6.7370833333333335 6.811833333333333 5.739458333333333 7.870791666666666 6.027916666666667 9.104166666666668c0.28270833333333334 1.2132500000000002 0.7312083333333333 2.3028750000000002 1.0905833333333332 3.061875a2.0815 2.0815 0 0 0 1.8016666666666665 1.2007916666666667A50.24733333333334 50.24733333333334 0 0 0 11.605416666666667 13.416666666666668" stroke-width="2"></path><path id="Subtract_4" stroke="#000" stroke-linecap="round" stroke-linejoin="round" d="m34.41470833333334 31.625 0.20891666666666667 0c1.2295416666666665 0 2.411166666666667 0.02779166666666667 3.3714166666666667 0.060375000000000005 1.2669166666666667 0.042166666666666665 2.2655 1.1011250000000001 1.9770416666666668 2.3354583333333334a15.579625000000002 15.579625000000002 0 0 1 -1.0915416666666666 3.061875 2.0815 2.0815 0 0 1 -1.8007083333333334 1.2007916666666667 50.485 50.485 0 0 1 -2.4562083333333335 0.049833333333333334l-0.43125 -0.0009583333333333334 0.0038333333333333336 -0.05558333333333334" stroke-width="2"></path><path id="Subtract_5" stroke="#000" stroke-linecap="round" stroke-linejoin="round" d="m34.49041666666667 25.875 0.13416666666666668 0c1.1020833333333333 0 1.8946250000000002 -0.022041666666666668 2.45525 -0.049833333333333334a2.0815 2.0815 0 0 0 1.8016666666666665 -1.2007916666666667c0.35841666666666666 -0.7590000000000001 0.8069166666666666 -1.8486250000000002 1.0905833333333332 -3.061875 0.2875 -1.2343333333333335 -0.7091666666666667 -2.2932916666666667 -1.9770416666666668 -2.3354583333333334A101.56320833333334 101.56320833333334 0 0 0 34.48370833333333 19.166666666666668" stroke-width="2"></path><path id="Subtract_6" stroke="#000" stroke-linecap="round" stroke-linejoin="round" d="m34.04958333333334 6.71025 0.575 -0.0019166666666666668c1.2285833333333334 0 2.4102083333333337 0.02779166666666667 3.3704583333333336 0.060375000000000005 1.2669166666666667 0.042166666666666665 2.2655 1.1011250000000001 1.9770416666666668 2.3354583333333334a15.579625000000002 15.579625000000002 0 0 1 -1.0915416666666666 3.061875 2.0815 2.0815 0 0 1 -1.8007083333333334 1.2007916666666667A50.24158333333334 50.24158333333334 0 0 1 34.39458333333334 13.416666666666668" stroke-width="2"></path><path id="Ellipse 98" stroke="#000" stroke-linecap="round" stroke-linejoin="round" d="M25.875 35.458333333333336a2.875 2.875 0 1 1 -5.75 0 2.875 2.875 0 1 1 5.75 0" stroke-width="2"></path><path id="Ellipse 99" stroke="#000" stroke-linecap="round" stroke-linejoin="round" d="M25.875 23a2.875 2.875 0 1 1 -5.75 0 2.875 2.875 0 1 1 5.75 0" stroke-width="2"></path><path id="Ellipse 100" stroke="#000" stroke-linecap="round" stroke-linejoin="round" d="M25.875 10.541666666666668a2.875 2.875 0 1 1 -5.75 0 2.875 2.875 0 1 1 5.75 0" stroke-width="2"></path></g></svg>