<svg xmlns="http://www.w3.org/2000/svg" fill="none" viewBox="-1 -1 48 48" height="48" width="48"><g id="image-saturation"><path id="Ellipse 221" stroke="#000" stroke-linecap="round" stroke-linejoin="round" d="M5.75 26.726958333333332C5.75 17.041083333333333 17.12925 7.35425 21.40341666666667 4.0575833333333335a2.6009166666666665 2.6009166666666665 0 0 1 3.1931666666666665 0C28.87075 7.35425 40.25 17.041083333333333 40.25 26.72791666666667 40.25 35.783208333333334 32.52679166666667 43.125 23 43.125S5.75 35.78416666666667 5.75 26.726958333333332Z" stroke-width="2"></path><path id="Subtract" stroke="#000" stroke-linecap="round" stroke-linejoin="round" d="M22.264 12.04625a0.457125 0.457125 0 0 1 0.7360000000000001 0.37375V35.458333333333336c0 0.529 -0.43125 0.9631249999999999 -0.9583333333333334 0.917125 -5.372416666666667 -0.46575 -9.583333333333334 -4.814666666666667 -9.583333333333334 -10.110416666666667 0 -6.190833333333334 7.4117500000000005 -12.380708333333335 9.805666666666667 -14.218791666666666Z" stroke-width="2"></path></g></svg>