<svg xmlns="http://www.w3.org/2000/svg" fill="none" viewBox="-1 -1 48 48" height="48" width="48"><g id="ticket-1--hobby-ticket-event-entertainment-stub-theater-entertainment-culture"><path id="Subtract" stroke="#000" stroke-linejoin="round" d="M7.1338333333333335 38.85370833333334c-2.1370833333333334 -0.15908333333333335 -3.7499583333333333 -1.6885833333333333 -3.9483333333333337 -3.8237500000000004A92.86441666666667 92.86441666666667 0 0 1 2.875 30.061958333333333c-0.03354166666666667 -0.8864583333333335 0.575 -1.6464166666666666 1.3416666666666666 -2.090125a5.740416666666667 5.740416666666667 0 0 0 2.875 -4.970875 5.740416666666667 5.740416666666667 0 0 0 -2.875 -4.969916666666667c-0.7666666666666667 -0.4446666666666667 -1.3752083333333334 -1.204625 -1.3416666666666666 -2.090125 0.08145833333333334 -2.1083333333333334 0.1945416666666667 -3.734625 0.3095416666666667 -4.970875 0.198375 -2.1342083333333335 1.81125 -3.6637083333333336 3.9483333333333337 -3.8237500000000004C9.982958333333334 6.933541666666668 14.904958333333335 6.708333333333334 23 6.708333333333334s13.017041666666668 0.22425000000000003 15.866166666666668 0.4379583333333334c2.1370833333333334 0.15908333333333335 3.7499583333333333 1.6885833333333333 3.9483333333333337 3.8237500000000004 0.115 1.2352916666666667 0.227125 2.861583333333334 0.3085833333333334 4.968958333333333 0.034499999999999996 0.8864583333333335 -0.575 1.6454583333333335 -1.3416666666666666 2.090125A5.741375 5.741375 0 0 0 38.90833333333334 23a5.741375 5.741375 0 0 0 2.875 4.970875c0.7666666666666667 0.44370833333333337 1.3752083333333334 1.2036666666666667 1.3416666666666666 2.089166666666667a92.85866666666666 92.85866666666666 0 0 1 -0.3095416666666667 4.970875c-0.198375 2.1342083333333335 -1.81125 3.6637083333333336 -3.9483333333333337 3.8237500000000004 -2.849125 0.21275000000000002 -7.772083333333333 0.43700000000000006 -15.866166666666668 0.43700000000000006 -8.095041666666667 0 -13.017041666666668 -0.22425000000000003 -15.866166666666668 -0.4379583333333334Z" stroke-width="2"></path><g id="Group 2306"><path id="Vector 1871" stroke="#000" stroke-linecap="round" stroke-linejoin="round" d="M28.75 35.458333333333336v3.59375" stroke-width="2"></path><path id="Vector 1872" stroke="#000" stroke-linecap="round" stroke-linejoin="round" d="M28.75 25.875v3.8333333333333335" stroke-width="2"></path><path id="Vector 1873" stroke="#000" stroke-linecap="round" stroke-linejoin="round" d="M28.75 16.291666666666668v3.8333333333333335" stroke-width="2"></path><path id="Vector 1874" stroke="#000" stroke-linecap="round" stroke-linejoin="round" d="M28.75 6.947916666666667V10.541666666666668" stroke-width="2"></path></g></g></svg>