<svg xmlns="http://www.w3.org/2000/svg" fill="none" viewBox="-1 -1 48 48" height="48" width="48"><g id="dial-pad-finger-2--hand-lock-login-padlock-password-textbox-touch-type"><path id="Rectangle 123" stroke="#000" stroke-linecap="round" stroke-linejoin="round" d="M2.875 6.229166666666667c0 -1.9415833333333332 1.4125833333333333 -3.2104166666666667 3.35225 -3.2928333333333333A80.914 80.914 0 0 1 9.583333333333334 2.875c1.3790416666666667 0 2.482083333333333 0.024916666666666667 3.3560833333333333 0.06133333333333334C14.879083333333334 3.01875 16.291666666666668 4.287583333333334 16.291666666666668 6.229166666666667v0c0 1.940625 -1.4125833333333333 3.2104166666666667 -3.35225 3.2928333333333333C12.065416666666668 9.558416666666668 10.963333333333333 9.583333333333334 9.583333333333334 9.583333333333334c-1.3790416666666667 0 -2.482083333333333 -0.024916666666666667 -3.3560833333333333 -0.06133333333333334C4.287583333333334 9.439583333333333 2.875 8.17075 2.875 6.229166666666667v0Z" stroke-width="2"></path><path id="Rectangle 123_2" stroke="#000" stroke-linecap="round" stroke-linejoin="round" d="M2.875 17.729166666666668c0 -1.9415833333333332 1.4125833333333333 -3.2104166666666667 3.35225 -3.2928333333333333A81.02612500000001 81.02612500000001 0 0 1 9.583333333333334 14.375c1.3790416666666667 0 2.482083333333333 0.024916666666666667 3.3560833333333333 0.06133333333333334C14.879083333333334 14.51875 16.291666666666668 15.787583333333334 16.291666666666668 17.729166666666668v0c0 1.9415833333333332 -1.4125833333333333 3.2104166666666667 -3.35225 3.2928333333333333A81.02708333333334 81.02708333333334 0 0 1 9.583333333333334 21.083333333333336c-1.3790416666666667 0 -2.482083333333333 -0.024916666666666667 -3.3560833333333333 -0.06133333333333334C4.287583333333334 20.939583333333335 2.875 19.67075 2.875 17.729166666666668v0Z" stroke-width="2"></path><path id="Rectangle 123_3" stroke="#000" stroke-linecap="round" stroke-linejoin="round" d="M21.083333333333336 6.229166666666667c0 -1.9415833333333332 1.4125833333333333 -3.2104166666666667 3.35225 -3.2928333333333333A80.91591666666666 80.91591666666666 0 0 1 27.791666666666668 2.875c1.3790416666666667 0 2.482083333333333 0.024916666666666667 3.3560833333333333 0.06133333333333334C33.08741666666667 3.01875 34.5 4.287583333333334 34.5 6.229166666666667v0c0 1.940625 -1.4125833333333333 3.2104166666666667 -3.35225 3.2928333333333333C30.27375 9.558416666666668 29.17166666666667 9.583333333333334 27.791666666666668 9.583333333333334c-1.3790416666666667 0 -2.482083333333333 -0.024916666666666667 -3.3560833333333333 -0.06133333333333334C22.495916666666666 9.439583333333333 21.083333333333336 8.17075 21.083333333333336 6.229166666666667v0Z" stroke-width="2"></path><path id="Union" stroke="#000" stroke-linecap="round" stroke-linejoin="round" d="M41.235166666666665 44.083333333333336a23.436041666666664 23.436041666666664 0 0 0 2.8251666666666666 -12.220666666666668c-0.09583333333333334 -2.1294166666666667 -1.4882916666666666 -3.9330000000000003 -3.510375 -4.609583333333333 -4.190791666666667 -1.3991666666666667 -8.087375 -1.3991666666666667 -8.087375 -1.3991666666666667 0 -1.733625 -0.27025 -5.689625 -0.4638333333333333 -8.303 -0.11308333333333333 -1.520875 -1.1260416666666668 -2.8500833333333335 -2.636375 -3.0628333333333337 -0.4791666666666667 -0.06708333333333334 -0.991875 -0.11308333333333333 -1.5065000000000002 -0.11308333333333333 -0.5175000000000001 0 -1.0330833333333334 0.046000000000000006 -1.51225 0.115 -1.497875 0.21275000000000002 -2.502208333333334 1.5285416666666667 -2.6028333333333338 3.037916666666667a213.08541666666667 213.08541666666667 0 0 0 -0.47245833333333337 13.727166666666667s-1.6406666666666667 -1.285125 -4.159166666666667 -2.831875c-1.2966250000000001 -0.7954166666666667 -2.966041666666667 -0.8577083333333334 -3.953125 0.30091666666666667a7.576583333333334 7.576583333333334 0 0 0 -1.5045833333333334 2.8328333333333333c-0.19262500000000002 0.6660416666666666 -0.03641666666666667 1.3704166666666666 0.34979166666666667 1.9454166666666666 1.4077916666666668 2.0977916666666667 5.198958333333334 7.38875 9.611125 10.580958333333333" stroke-width="2"></path></g></svg>