<svg xmlns="http://www.w3.org/2000/svg" fill="none" viewBox="-1 -1 48 48" height="48" width="48"><g id="mail-send--send-email-envelope-dash"><path id="Rectangle 1098" stroke="#000" stroke-linejoin="round" d="M12.853166666666668 33.07016666666667c0.15141666666666667 1.62725 1.42025 2.8500833333333335 3.0494166666666667 2.9737083333333336C18.225583333333336 36.219249999999995 22.105875 36.41666666666667 27.791666666666668 36.41666666666667s9.566083333333333 -0.19741666666666666 11.889083333333334 -0.37375c1.6291666666666667 -0.12266666666666667 2.898 -1.3455 3.0494166666666667 -2.97275 0.19166666666666668 -2.061375 0.3948333333333333 -5.3561250000000005 0.3948333333333333 -10.070166666666665 0 -4.715 -0.20316666666666666 -8.008791666666667 -0.3948333333333333 -10.070166666666665 -0.15141666666666667 -1.62725 -1.42025 -2.8500833333333335 -3.0494166666666667 -2.9737083333333336C37.35775 9.78075 33.47841666666667 9.583333333333334 27.791666666666668 9.583333333333334s-9.566083333333333 0.19741666666666666 -11.888125 0.37375c-1.6291666666666667 0.12266666666666667 -2.8989583333333333 1.3455 -3.050375 2.97275C12.6615 14.991208333333335 12.458333333333334 18.285 12.458333333333334 23c0 4.715 0.20316666666666666 8.008791666666667 0.3948333333333333 10.070166666666665Z" stroke-width="2"></path><path id="Intersect" stroke="#000" stroke-linecap="round" stroke-linejoin="round" d="M12.458333333333334 21.083333333333336s11.132 5.75 15.333333333333334 5.75c4.200375 0 15.333333333333334 -5.75 15.333333333333334 -5.75" stroke-width="2"></path><path id="Vector 1495" stroke="#000" stroke-linecap="round" stroke-linejoin="round" d="M2.875 16.291666666666668h4.791666666666667" stroke-width="2"></path><path id="Vector 1496" stroke="#000" stroke-linecap="round" stroke-linejoin="round" d="m3.8333333333333335 23 3.8333333333333335 0" stroke-width="2"></path><path id="Vector 1497" stroke="#000" stroke-linecap="round" stroke-linejoin="round" d="m4.791666666666667 29.708333333333336 2.875 0" stroke-width="2"></path></g></svg>