<svg xmlns="http://www.w3.org/2000/svg" fill="none" viewBox="-1 -1 48 48" height="48" width="48"><g id="bell--service-concierge-porter-call-ring-bellhop-bell-reception-hotel"><path id="Ellipse 18" stroke="#000" stroke-linecap="round" stroke-linejoin="round" d="M23 9.583333333333334c10.141083333333334 0 18.531291666666668 7.501833333333334 19.921833333333336 17.258625000000002 0.22425000000000003 1.5716666666666665 -1.0800416666666668 2.866375 -2.6679999999999997 2.866375H5.746166666666667c-1.5879583333333334 0 -2.8932083333333334 -1.2937500000000002 -2.6689583333333338 -2.866375C4.468708333333334 17.085166666666666 12.857958333333334 9.583333333333334 23 9.583333333333334Z" stroke-width="2"></path><path id="Ellipse 19" stroke="#000" stroke-linecap="round" stroke-linejoin="round" d="M23 14.375c5.516166666666667 0 10.306875000000002 3.1069166666666668 12.717083333333333 7.666666666666667" stroke-width="2"></path><path id="Rectangle 1096" stroke="#000" stroke-linecap="round" stroke-linejoin="round" d="M40.388958333333335 35.54554166666667c1.1595833333333334 0.015333333333333334 2.4054166666666665 0.405375 2.6545833333333335 1.5371666666666668 0.050791666666666666 0.22904166666666667 0.08145833333333334 0.485875 0.08145833333333334 0.7714583333333334 0 0.28558333333333336 -0.03066666666666667 0.5424166666666667 -0.08145833333333334 0.7714583333333334 -0.24916666666666668 1.1317916666666668 -1.495 1.5218333333333334 -2.6545833333333335 1.5371666666666668C37.773666666666664 40.196333333333335 32.18275 40.25 23 40.25c-9.18275 0 -14.773666666666667 -0.05366666666666667 -17.388958333333335 -0.08720833333333333 -1.1595833333333334 -0.015333333333333334 -2.4054166666666665 -0.405375 -2.6545833333333335 -1.5371666666666668A3.5745833333333334 3.5745833333333334 0 0 1 2.875 37.85416666666667c0 -0.28558333333333336 0.03066666666666667 -0.5424166666666667 0.08145833333333334 -0.7714583333333334 0.24916666666666668 -1.1317916666666668 1.495 -1.5218333333333334 2.6545833333333335 -1.5371666666666668C8.226333333333333 35.512 13.81725 35.458333333333336 23 35.458333333333336c9.18275 0 14.773666666666667 0.05366666666666667 17.388958333333335 0.08720833333333333Z" stroke-width="2"></path><path id="Vector 1492" stroke="#000" stroke-linecap="round" stroke-linejoin="round" d="m23 3.8333333333333335 0 5.75" stroke-width="2"></path><path id="Vector 1493" stroke="#000" stroke-linecap="round" stroke-linejoin="round" d="M26.833333333333336 3.8333333333333335h-7.666666666666667" stroke-width="2"></path></g></svg>