<svg xmlns="http://www.w3.org/2000/svg" fill="none" viewBox="-1 -1 48 48" height="48" width="48"><g id="shopping-cart-add--shopping-cart-checkout-add-plus-new"><path id="Union" stroke="#000" stroke-linecap="round" stroke-linejoin="round" d="M2.8817083333333335 5.297666666666666C2.9267499999999997 3.8927500000000004 4.143833333333333 2.875 5.549708333333334 2.875l4.015416666666667 0a4.791666666666667 4.791666666666667 0 0 1 4.5674166666666665 3.3397916666666667L15.8125 11.5l22.980833333333333 0c2.301916666666667 0 4.085375 2.0163333333333333 3.6694583333333335 4.279916666666667 -0.779125 4.2435 -1.9425416666666668 8.74575 -3.2487500000000002 12.455458333333334 -0.5567916666666667 1.578375 -1.8658750000000002 2.727416666666667 -3.526666666666667 2.93825 -1.7882500000000001 0.22808333333333333 -4.622041666666667 0.45137499999999997 -8.855 0.45137499999999997 -4.1074166666666665 0 -6.98625 -0.21083333333333334 -8.876083333333334 -0.43125 -1.8687500000000001 -0.2175416666666667 -3.325416666666667 -1.5572916666666667 -3.8927500000000004 -3.35225C11.974375 21.246250000000003 10.589583333333334 15.390833333333333 8.625 8.625H5.54875C4.143833333333333 8.625 2.9267499999999997 7.60725 2.8817083333333335 6.202333333333334a14.290666666666668 14.290666666666668 0 0 1 0 -0.9046666666666666Z" stroke-width="2"></path><path id="Ellipse 40" stroke="#000" stroke-linecap="round" stroke-linejoin="round" d="M32.583333333333336 39.29166666666667a3.8333333333333335 3.8333333333333335 0 1 0 7.666666666666667 0 3.8333333333333335 3.8333333333333335 0 0 0 -7.666666666666667 0Z" stroke-width="2"></path><path id="Ellipse 41" stroke="#000" stroke-linecap="round" stroke-linejoin="round" d="M13.416666666666668 39.29166666666667a3.8333333333333335 3.8333333333333335 0 1 0 7.666666666666667 0 3.8333333333333335 3.8333333333333335 0 0 0 -7.666666666666667 0Z" stroke-width="2"></path><path id="Vector 1455" stroke="#000" stroke-linecap="round" stroke-linejoin="round" d="M31.625 21.5625H22.041666666666668" stroke-width="2"></path><path id="Vector 1456" stroke="#000" stroke-linecap="round" stroke-linejoin="round" d="m26.833333333333336 16.770833333333336 0 9.583333333333334" stroke-width="2"></path></g></svg>