<svg xmlns="http://www.w3.org/2000/svg" fill="none" viewBox="-1 -1 48 48" height="48" width="48"><g id="hand-held--tablet-kindle-device-electronics-ipad-computer"><path id="Rectangle 1095" stroke="#000" stroke-linecap="round" stroke-linejoin="round" d="M5.259333333333334 38.08895833333333c0.18016666666666667 2.446625 2.024958333333333 4.344125000000001 4.469666666666667 4.552083333333334C12.546500000000002 42.8835 16.895416666666666 43.125 23 43.125c6.104583333333333 0 10.454458333333335 -0.24245833333333336 13.271 -0.48300000000000004 2.44375 -0.20891666666666667 4.2895 -2.1064166666666666 4.469666666666667 -4.552083333333334C40.96875 34.9945 41.208333333333336 30.058125 41.208333333333336 23s-0.23958333333333334 -11.995458333333334 -0.4676666666666667 -15.088958333333332c-0.18016666666666667 -2.447583333333333 -2.024958333333333 -4.343166666666667 -4.469666666666667 -4.552083333333334C33.453500000000005 3.1165 29.104583333333334 2.875 23 2.875c-6.104583333333333 0 -10.454458333333335 0.24245833333333336 -13.271 0.48300000000000004 -2.44375 0.209875 -4.2895 2.1054583333333334 -4.469666666666667 4.552083333333334C5.03125 11.0055 4.791666666666667 15.941875000000001 4.791666666666667 23s0.23958333333333334 11.995458333333334 0.4676666666666667 15.088958333333332Z" stroke-width="2"></path><path id="Rectangle 1096" stroke="#000" stroke-linecap="round" stroke-linejoin="round" d="M10.902958333333334 30.91104166666667a2.4744166666666665 2.4744166666666665 0 0 0 2.2693333333333334 2.2693333333333334C15.038166666666667 33.347125 18.239 33.54166666666667 23 33.54166666666667c4.761 0 7.961833333333334 -0.1945416666666667 9.827708333333334 -0.3612916666666667a2.4744166666666665 2.4744166666666665 0 0 0 2.2693333333333334 -2.2693333333333334C35.26379166666666 29.045166666666667 35.458333333333336 25.844333333333335 35.458333333333336 21.083333333333336c0 -4.761 -0.1945416666666667 -7.961833333333334 -0.3612916666666667 -9.827708333333334a2.4744166666666665 2.4744166666666665 0 0 0 -2.2693333333333334 -2.2693333333333334C30.961833333333335 8.819541666666666 27.761000000000003 8.625 23 8.625c-4.761 0 -7.961833333333334 0.1945416666666667 -9.827708333333334 0.3612916666666667a2.4744166666666665 2.4744166666666665 0 0 0 -2.2693333333333334 2.2693333333333334C10.736208333333334 13.121500000000001 10.541666666666668 16.322333333333333 10.541666666666668 21.083333333333336c0 4.761 0.1945416666666667 7.961833333333334 0.3612916666666667 9.827708333333334Z" stroke-width="2"></path><path id="Vector 1491" stroke="#000" stroke-linecap="round" stroke-linejoin="round" d="M22.041666666666668 38.333333333333336h1.9166666666666667" stroke-width="2"></path><path id="Vector 1495" stroke="#000" stroke-linecap="round" stroke-linejoin="round" d="M17.25 15.333333333333334h11.5" stroke-width="2"></path><path id="Vector 1496" stroke="#000" stroke-linecap="round" stroke-linejoin="round" d="M17.25 21.083333333333336h11.5" stroke-width="2"></path><path id="Vector 1497" stroke="#000" stroke-linecap="round" stroke-linejoin="round" d="M17.25 26.833333333333336h5.75" stroke-width="2"></path></g></svg>