<svg xmlns="http://www.w3.org/2000/svg" fill="none" viewBox="-1 -1 48 48" height="48" width="48"><g id="voice-scan-1--identification-secure-id-soundwave-sound-voice-brackets-security"><path id="Vector 1074 (Stroke)" fill-rule="evenodd" stroke="#000" stroke-linecap="round" stroke-linejoin="round" d="M27.163958333333333 15.119625c0.9640833333333334 -2.0661666666666667 3.83525 -2.2405833333333334 5.043708333333333 -0.30762500000000004l3.6205833333333337 5.792166666666667 5.679083333333334 0c0.5855416666666666 0 1.1490416666666667 0.27120833333333333 1.348375 0.8212916666666666 0.14375 0.39579166666666665 0.2692916666666667 0.92575 0.2692916666666667 1.5745416666666667a4.6 4.6 0 0 1 -0.26833333333333337 1.5755c-0.20125 0.5500833333333333 -0.7637916666666668 0.8212916666666666 -1.348375 0.8212916666666666H35.29541666666667a3.8333333333333335 3.8333333333333335 0 0 1 -3.2506666666666666 -1.8016666666666665l-2.0316666666666667 -3.2516249999999998 -4.453375 9.545000000000002c-0.9842083333333332 2.1073749999999998 -3.933958333333334 2.2348333333333334 -5.095458333333334 0.22041666666666668l-4.664208333333334 -8.083541666666667 -0.85675 1.469125a3.8333333333333335 3.8333333333333335 0 0 1 -3.3120000000000003 1.902291666666667H4.557833333333334c-0.5903333333333334 0 -1.1595833333333334 -0.27408333333333335 -1.3780833333333333 -0.8232083333333333A4.267458333333334 4.267458333333334 0 0 1 2.875 23c0 -0.6296250000000001 0.14375 -1.1672500000000001 0.30475 -1.5726250000000002 0.2175416666666667 -0.549125 0.78775 -0.8232083333333333 1.3780833333333333 -0.8232083333333333h6.524333333333334l2.244416666666667 -3.8477083333333333c1.112625 -1.9070833333333335 3.8707083333333334 -1.9003750000000001 4.973750000000001 0.012458333333333333l4.475416666666667 7.755791666666667 4.389166666666667 -9.405083333333334Z" clip-rule="evenodd" stroke-width="2"></path><path id="Vector" stroke="#000" stroke-linecap="round" stroke-linejoin="round" d="M12.458333333333334 2.875s-2.9574166666666666 0 -6.091166666666667 0.18495833333333334a3.5075000000000003 3.5075000000000003 0 0 0 -3.3062500000000004 3.3062500000000004C2.875 9.499958333333334 2.875 12.458333333333334 2.875 12.458333333333334M33.54166666666667 2.875s2.9574166666666666 0 6.091166666666667 0.18495833333333334a3.5075000000000003 3.5075000000000003 0 0 1 3.3062500000000004 3.3062500000000004C43.125 9.499958333333334 43.125 12.458333333333334 43.125 12.458333333333334M33.54166666666667 43.125s2.9574166666666666 0 6.091166666666667 -0.18495833333333334a3.5075000000000003 3.5075000000000003 0 0 0 3.3062500000000004 -3.3062500000000004C43.125 36.50004166666667 43.125 33.54166666666667 43.125 33.54166666666667M12.458333333333334 43.125s-2.9574166666666666 0 -6.091166666666667 -0.18495833333333334a3.5075000000000003 3.5075000000000003 0 0 1 -3.3062500000000004 -3.3062500000000004C2.875 36.50004166666667 2.875 33.54166666666667 2.875 33.54166666666667" stroke-width="2"></path></g></svg>