<svg xmlns="http://www.w3.org/2000/svg" fill="none" viewBox="-1 -1 48 48" height="48" width="48"><g id="open-umbrella--storm-rain-umbrella-open-weather"><path id="Union" stroke="#000" stroke-linecap="round" stroke-linejoin="round" d="m20.862916666666667 6.247375000000001 1.495 -2.9794583333333335a0.7197083333333334 0.7197083333333334 0 0 1 1.2860833333333335 0l1.4930833333333335 2.9785000000000004c9.621666666666666 1.0886666666666667 17.22891666666667 9.341833333333334 17.978333333333335 16.621333333333336 0.07666666666666667 0.7427083333333334 -0.24245833333333336 1.451875 -0.8941250000000001 1.8198750000000001 -1.9118750000000002 1.078125 -7.111791666666667 3.101166666666667 -19.220333333333336 3.101166666666667 -12.108541666666667 0 -17.3075 -2.023041666666667 -19.219375 -3.101166666666667 -0.6516666666666667 -0.36800000000000005 -0.9707916666666666 -1.0771666666666668 -0.8941250000000001 -1.8198750000000001 0.7475 -7.2785416666666665 8.353791666666668 -15.531708333333334 17.975458333333336 -16.619416666666666Z" stroke-width="2"></path><path id="Subtract" stroke="#000" stroke-linecap="round" stroke-linejoin="round" d="m20.303250000000002 27.78975 -0.18208333333333335 7.666666666666667a1.9166666666666667 1.9166666666666667 0 1 1 -3.8333333333333335 0v-0.6190833333333334c0 -1.0886666666666667 -0.6392083333333334 -2.0700000000000003 -1.7211666666666667 -2.1936250000000004 -0.33541666666666664 -0.03833333333333334 -0.7206666666666667 -0.06229166666666667 -1.1547916666666669 -0.06229166666666667 -0.43412500000000004 0 -0.8184166666666667 0.024916666666666667 -1.1547916666666669 0.06229166666666667 -1.0819583333333334 0.12266666666666667 -1.7202083333333333 1.1049583333333335 -1.7202083333333333 2.1945833333333336v0.618125a7.666666666666667 7.666666666666667 0 1 0 15.333333333333334 0l-0.18304166666666669 -7.666666666666667" stroke-width="2"></path></g></svg>