<svg xmlns="http://www.w3.org/2000/svg" fill="none" viewBox="-1 -1 48 48" height="48" width="48"><g id="stopwatch-half--seconds-thirty-hour-half-measure-time-stopwatch"><path id="Rectangle 136" stroke="#000" stroke-linecap="round" stroke-linejoin="round" d="M19.853791666666666 2.907583333333333c-1.2985416666666667 0.03258333333333334 -2.448541666666667 0.7542083333333334 -2.568333333333334 2.0479583333333333A8.632666666666665 8.632666666666665 0 0 0 17.25 5.75c0 0.28941666666666666 0.013416666666666667 0.5539166666666666 0.035458333333333335 0.7954166666666667 0.11979166666666667 1.2937500000000002 1.2697916666666667 2.0144166666666665 2.568333333333334 2.047 0.7570833333333334 0.01916666666666667 1.7777083333333334 0.03258333333333334 3.1462083333333335 0.03258333333333334s2.389125 -0.013416666666666667 3.1462083333333335 -0.03258333333333334c1.2985416666666667 -0.03258333333333334 2.448541666666667 -0.7542083333333334 2.568333333333334 -2.0479583333333333a8.682500000000001 8.682500000000001 0 0 0 0 -1.5898750000000001c-0.11979166666666667 -1.2937500000000002 -1.2697916666666667 -2.0144166666666665 -2.568333333333334 -2.047C25.389125 2.8884166666666666 24.3685 2.875 23 2.875s-2.389125 0.013416666666666667 -3.1462083333333335 0.03258333333333334Z" stroke-width="2"></path><path id="Ellipse 1119" stroke="#000" stroke-linecap="round" stroke-linejoin="round" d="M23 43.125a17.25 17.25 0 0 0 0 -34.5l0 34.5Z" stroke-width="2"></path><path id="Subtract" stroke="#000" stroke-linecap="round" stroke-linejoin="round" d="m38.01229166666667 17.378416666666666 0.22520833333333332 -0.22425000000000003c0.8605833333333334 -0.8605833333333334 1.520875 -1.5429166666666667 2.0220833333333332 -2.07575 1.00625 -1.0685416666666667 1.2602083333333334 -2.5185000000000004 0.31433333333333335 -3.6397500000000003a17.09091666666667 17.09091666666667 0 0 0 -0.980375 -1.060875c-0.393875 -0.39291666666666664 -0.7475 -0.7168333333333333 -1.060875 -0.9813333333333334 -1.12125 -0.945875 -2.572166666666667 -0.6909583333333333 -3.6397500000000003 0.31433333333333335a93.91475000000001 93.91475000000001 0 0 0 -2.0508333333333337 1.9971666666666668" stroke-width="2"></path><path id="Rectangle 139" stroke="#000" stroke-linecap="round" stroke-linejoin="round" d="M8.174583333333333 23.250125c-1.3493333333333333 0.031625 -2.3996666666666666 0.92 -2.4217083333333336 2.2693333333333334a21.61616666666667 21.61616666666667 0 0 0 0 0.7110833333333334c0.022041666666666668 1.3493333333333333 1.072375 2.2377083333333334 2.4217083333333336 2.2693333333333334a40.18866666666667 40.18866666666667 0 0 0 1.8591666666666666 0c1.3493333333333333 -0.031625 2.3996666666666666 -0.92 2.4217083333333336 -2.2693333333333334a20.990375 20.990375 0 0 0 0 -0.7110833333333334c-0.022041666666666668 -1.3493333333333333 -1.072375 -2.2377083333333334 -2.4217083333333336 -2.2693333333333334a40.19441666666667 40.19441666666667 0 0 0 -1.8591666666666666 0Z" stroke-width="2"></path><path id="Rectangle 132" stroke="#000" stroke-linecap="round" stroke-linejoin="round" d="M14.373083333333334 13.5355c-0.9775 -0.9315 -2.3469583333333333 -1.0455416666666666 -3.3167916666666666 -0.10733333333333334a21.214625 21.214625 0 0 0 -0.503125 0.503125c-0.9391666666666667 0.9698333333333334 -0.8241666666666667 2.34025 0.10733333333333334 3.3158333333333334a39.815875 39.815875 0 0 0 1.3157916666666667 1.3157916666666667c0.9755833333333334 0.9315 2.346 1.0465000000000002 3.3158333333333334 0.10733333333333334a21.97266666666667 21.97266666666667 0 0 0 0.503125 -0.5021666666666668c0.9391666666666667 -0.9707916666666666 0.8241666666666667 -2.34025 -0.10733333333333334 -3.3167916666666666a40.56720833333334 40.56720833333334 0 0 0 -1.3148333333333335 -1.3157916666666667Z" stroke-width="2"></path><path id="Rectangle 135" stroke="#000" stroke-linecap="round" stroke-linejoin="round" d="M15.687916666666668 36.89966666666667c0.9315 -0.9775 1.0455416666666666 -2.347916666666667 0.10733333333333334 -3.3167916666666666a21.95254166666667 21.95254166666667 0 0 0 -0.503125 -0.503125c-0.9698333333333334 -0.9391666666666667 -2.34025 -0.8241666666666667 -3.3158333333333334 0.10733333333333334a40.56720833333334 40.56720833333334 0 0 0 -1.3157916666666667 1.3157916666666667c-0.9324583333333334 0.9755833333333334 -1.0465000000000002 2.346 -0.10733333333333334 3.3158333333333334a20.479583333333334 20.479583333333334 0 0 0 0.5021666666666668 0.503125c0.9707916666666666 0.9391666666666667 2.34025 0.8241666666666667 3.3167916666666666 -0.10733333333333334a39.42104166666667 39.42104166666667 0 0 0 1.3148333333333335 -1.3148333333333335Z" stroke-width="2"></path></g></svg>