<svg xmlns="http://www.w3.org/2000/svg" fill="none" viewBox="-1 -1 48 48" height="48" width="48"><g id="align-object-left"><path id="Rectangle 1097" stroke="#000" stroke-linecap="round" stroke-linejoin="round" d="M7.912958333333333 3.391541666666667c-2.448541666666667 0.19933333333333333 -4.3220833333333335 2.072875 -4.521416666666667 4.521416666666667C3.1404583333333336 11.006458333333333 2.875 15.942833333333333 2.875 23c0 7.057166666666667 0.26545833333333335 11.993541666666667 0.5165416666666667 15.087041666666668 0.19933333333333333 2.448541666666667 2.072875 4.3220833333333335 4.521416666666667 4.521416666666667C11.006458333333333 42.859541666666665 15.942833333333333 43.125 23 43.125c7.057166666666667 0 11.993541666666667 -0.26545833333333335 15.087041666666668 -0.5165416666666667 2.448541666666667 -0.19933333333333333 4.3220833333333335 -2.072875 4.521416666666667 -4.521416666666667C42.859541666666665 34.993541666666665 43.125 30.057166666666667 43.125 23c0 -7.057166666666667 -0.26545833333333335 -11.993541666666667 -0.5165416666666667 -15.087041666666668 -0.19933333333333333 -2.448541666666667 -2.072875 -4.3220833333333335 -4.521416666666667 -4.521416666666667C34.993541666666665 3.1404583333333336 30.057166666666667 2.875 23 2.875c-7.057166666666667 0 -11.993541666666667 0.26545833333333335 -15.087041666666668 0.5165416666666667Z" stroke-width="2"></path><path id="Rectangle 57" stroke="#000" stroke-linecap="round" stroke-linejoin="round" d="M12.348125 36.331375c-1.5342916666666666 -0.09775 -2.583666666666667 -1.3148333333333335 -2.635416666666667 -2.8510416666666667C9.649458333333335 31.533000000000005 9.583333333333334 28.26125 9.583333333333334 23s0.06516666666666668 -8.533 0.13033333333333336 -10.479375000000001c0.050791666666666666 -1.5371666666666668 1.1001666666666665 -2.7542500000000003 2.635416666666667 -2.852A47.955 47.955 0 0 1 15.374541666666667 9.583333333333334c1.204625 0 2.1715833333333334 0.03258333333333334 2.93825 0.07954166666666668 1.578375 0.09583333333333334 2.648833333333333 1.3665833333333333 2.683333333333333 2.9468750000000004C21.041166666666665 14.566666666666666 21.083333333333336 17.818291666666667 21.083333333333336 23c0 5.181708333333334 -0.043125 8.433333333333334 -0.08625 10.390250000000002 -0.035458333333333335 1.5802916666666667 -1.1059166666666667 2.8500833333333335 -2.683333333333333 2.9468750000000004 -0.7666666666666667 0.04695833333333334 -1.7345833333333334 0.07954166666666668 -2.9392083333333336 0.07954166666666668a47.7825 47.7825 0 0 1 -3.0264166666666665 -0.08529166666666667Z" stroke-width="2"></path></g></svg>