<svg xmlns="http://www.w3.org/2000/svg" fill="none" viewBox="-1 -1 48 48" height="48" width="48"><g id="user-single-neutral-male--close-geometric-human-person-single-up-user-male"><path id="Ellipse 172" stroke="#000" stroke-linecap="round" stroke-linejoin="round" d="M36.41666666666667 16.291666666666668c0 7.409833333333334 -6.006833333333334 13.416666666666668 -13.416666666666668 13.416666666666668s-13.416666666666668 -6.006833333333334 -13.416666666666668 -13.416666666666668S15.590166666666669 2.875 23 2.875s13.416666666666668 6.006833333333334 13.416666666666668 13.416666666666668Z" stroke-width="2"></path><path id="Subtract" stroke="#000" stroke-linecap="round" stroke-linejoin="round" d="M17.587333333333333 28.57175c-4.88175 1.4557083333333334 -8.698791666666667 4.8261666666666665 -10.193791666666668 9.046666666666667 -0.81075 2.2904166666666668 0.8692083333333334 4.443791666666667 3.274625 4.785916666666667C13.252791666666667 42.77041666666667 17.236583333333336 43.125 23 43.125s9.74625 -0.35458333333333336 12.331833333333334 -0.7206666666666667c2.4054166666666665 -0.342125 4.086333333333334 -2.4955000000000003 3.274625 -4.785916666666667 -1.495 -4.2205 -5.312041666666667 -7.590958333333334 -10.193791666666668 -9.046666666666667" stroke-width="2"></path><path id="Intersect" stroke="#000" stroke-linecap="round" stroke-linejoin="round" d="M36.41666666666667 16.291666666666668c-7.409833333333334 0 -13.416666666666668 -6.006833333333334 -13.416666666666668 -13.416666666666668 0 7.409833333333334 -6.006833333333334 13.416666666666668 -13.416666666666668 13.416666666666668" stroke-width="2"></path><path id="Ellipse 24" stroke="#000" stroke-linecap="round" stroke-linejoin="round" d="M26.833333333333336 22.520833333333336c-1.6770833333333335 2.555875 -5.989583333333334 2.555875 -7.666666666666667 0" stroke-width="2"></path><path id="Vector 1189" stroke="#000" stroke-linecap="round" stroke-linejoin="round" d="M18.208333333333336 17.25v0.4791666666666667" stroke-width="2"></path><path id="Vector 1190" stroke="#000" stroke-linecap="round" stroke-linejoin="round" d="M27.792625 17.25v0.4791666666666667" stroke-width="2"></path></g></svg>