<svg xmlns="http://www.w3.org/2000/svg" fill="none" viewBox="-1 -1 48 48" height="48" width="48"><g id="color-picker--color-colors-design-dropper-eye-eyedrop-eyedropper-painting-picker"><path id="Subtract" stroke="#000" stroke-linecap="round" stroke-linejoin="round" d="M18.20641666666667 13.543166666666666 7.148208333333333 24.601375c-1.5687916666666668 1.5687916666666668 -2.7408333333333332 3.5650000000000004 -2.7111250000000005 5.783541666666667 0.03066666666666667 2.2655 0.468625 4.007750000000001 0.468625 4.007750000000001l-2.0220833333333332 5.107916666666667C2.2041666666666666 41.21216666666667 4.786875 43.795833333333334 6.498458333333334 43.117333333333335l5.021666666666667 -2.1083333333333334s1.6828333333333334 0.4216666666666667 3.917666666666667 0.49162500000000003c2.323958333333333 0.071875 4.435166666666667 -1.1250833333333332 6.079666666666667 -2.7695833333333337L32.44916666666667 27.799333333333333" stroke-width="2"></path><path id="Union" stroke="#000" stroke-linecap="round" stroke-linejoin="round" d="m18.6875 20.72875 -5.054250000000001 5.055208333333334" stroke-width="2"></path><path id="Union_2" stroke="#000" stroke-linecap="round" stroke-linejoin="round" d="M39.3645 6.638375c-4.264583333333333 -4.270333333333334 -11.177041666666668 -4.270333333333334 -15.440666666666665 0l-1.7652500000000002 1.768125 -0.5270833333333333 -0.48875c-1.1634166666666668 -1.0704583333333333 -2.7504166666666667 -1.2554166666666668 -3.8946666666666667 -0.16579166666666667a21.229958333333332 21.229958333333332 0 0 0 -0.7513333333333334 0.7522916666666667c-1.0877083333333333 1.1471250000000002 -0.9037083333333333 2.736041666666667 0.16483333333333333 3.900416666666667 1.4135416666666667 1.5429166666666667 3.884125 4.150541666666667 7.992500000000001 8.265625 4.108375 4.116041666666667 6.712166666666667 6.590458333333333 8.25125 8.005916666666666 1.1624583333333334 1.0704583333333333 2.7504166666666667 1.2554166666666668 3.8946666666666667 0.16579166666666667a21.52991666666667 21.52991666666667 0 0 0 0.7513333333333334 -0.7522916666666667c1.0877083333333333 -1.1471250000000002 0.9027499999999999 -2.736041666666667 -0.16579166666666667 -3.900416666666667 -0.089125 -0.09870833333333333 -0.18304166666666669 -0.20125 -0.28175 -0.3066666666666667l1.7719583333333333 -1.7748333333333335c4.264583333333333 -4.2722500000000005 4.264583333333333 -11.198125000000001 0 -15.469416666666667Z" stroke-width="2"></path></g></svg>