<svg xmlns="http://www.w3.org/2000/svg" fill="none" viewBox="-1 -1 48 48" height="48" width="48"><g id="dropbox"><path id="Rectangle 1314" stroke="#000" stroke-linecap="round" stroke-linejoin="round" d="M12.094166666666666 4.034583333333334a1.564 1.564 0 0 1 1.5448333333333335 0.004791666666666667c1.5065000000000002 0.8529166666666668 4.976624999999999 2.9133333333333336 8.154458333333334 5.497958333333334a0.6880833333333334 0.6880833333333334 0 0 1 -0.009583333333333334 1.0656666666666668 78.29391666666666 78.29391666666666 0 0 1 -8.090250000000001 5.4625 1.5975416666666669 1.5975416666666669 0 0 1 -1.6416250000000001 -0.0019166666666666668c-1.5457916666666667 -0.92 -5.0025 -3.0436666666666667 -7.876541666666666 -5.2804166666666665a0.9065833333333333 0.9065833333333333 0 0 1 -0.005750000000000001 -1.4145c1.4212083333333334 -1.1250833333333332 4.431333333333333 -3.3905833333333333 7.925416666666667 -5.333125000000001Z" stroke-width="2"></path><path id="Rectangle 1314_2" stroke="#000" stroke-linecap="round" stroke-linejoin="round" d="M12.094166666666666 16.49291666666667a1.564 1.564 0 0 1 1.5448333333333335 0.004791666666666667c1.5065000000000002 0.8529166666666668 4.976624999999999 2.9133333333333336 8.154458333333334 5.497958333333334a0.6880833333333334 0.6880833333333334 0 0 1 -0.009583333333333334 1.0656666666666668 78.29391666666666 78.29391666666666 0 0 1 -8.090250000000001 5.4625 1.5975416666666669 1.5975416666666669 0 0 1 -1.6416250000000001 -0.0019166666666666668c-1.5457916666666667 -0.92 -5.0025 -3.0436666666666667 -7.876541666666666 -5.2804166666666665a0.9065833333333333 0.9065833333333333 0 0 1 -0.005750000000000001 -1.4145c1.4212083333333334 -1.1250833333333332 4.431333333333333 -3.3905833333333333 7.925416666666667 -5.333125000000001Z" stroke-width="2"></path><path id="Rectangle 1314_3" stroke="#000" stroke-linecap="round" stroke-linejoin="round" d="M22.190208333333334 27.99291666666667a1.6981666666666668 1.6981666666666668 0 0 1 1.6138333333333332 0.004791666666666667c1.5735833333333333 0.8529166666666668 5.199916666666667 2.9133333333333336 8.519583333333335 5.497958333333334a0.6689166666666666 0.6689166666666666 0 0 1 -0.009583333333333334 1.0656666666666668c-1.3119583333333333 0.9765416666666666 -4.39875 3.1797500000000003 -8.4525 5.4625a1.7345833333333334 1.7345833333333334 0 0 1 -1.7154166666666668 -0.0019166666666666668c-1.6579166666666667 -0.9439583333333333 -5.414583333333334 -3.153875 -8.462083333333334 -5.453875a0.6679583333333333 0.6679583333333333 0 0 1 -0.005750000000000001 -1.0647083333333334c1.3704166666666666 -1.0503333333333336 4.659416666666667 -3.4595833333333332 8.511916666666666 -5.510416666666667Z" stroke-width="2"></path><path id="Rectangle 1314_4" stroke="#000" stroke-linecap="round" stroke-linejoin="round" d="M32.797999999999995 4.034583333333334a1.722125 1.722125 0 0 1 1.6253333333333333 0.004791666666666667c1.5486666666666669 0.83375 5.0715 2.819416666666667 8.351875 5.320666666666667a0.8816666666666667 0.8816666666666667 0 0 1 -0.014375 1.417375 83.34337500000001 83.34337500000001 0 0 1 -8.280000000000001 5.288083333333334 1.7585416666666667 1.7585416666666667 0 0 1 -1.727875 -0.0019166666666666668c-1.6703750000000002 -0.9439583333333333 -5.455791666666666 -3.153875 -8.525333333333334 -5.453875a0.6650833333333334 0.6650833333333334 0 0 1 -0.005750000000000001 -1.0647083333333334c1.3809583333333335 -1.0503333333333336 4.6939166666666665 -3.4595833333333332 8.576125 -5.510416666666667Z" stroke-width="2"></path><path id="Rectangle 1314_5" stroke="#000" stroke-linecap="round" stroke-linejoin="round" d="M32.797999999999995 16.491958333333333a1.722125 1.722125 0 0 1 1.6253333333333333 0.0038333333333333336c1.5486666666666669 0.83375 5.0715 2.819416666666667 8.351875 5.320666666666667a0.8816666666666667 0.8816666666666667 0 0 1 -0.014375 1.417375 83.34720833333334 83.34720833333334 0 0 1 -8.280000000000001 5.288083333333334 1.7585416666666667 1.7585416666666667 0 0 1 -1.727875 -0.0019166666666666668c-1.6703750000000002 -0.9439583333333333 -5.455791666666666 -3.153875 -8.525333333333334 -5.453875a0.6650833333333334 0.6650833333333334 0 0 1 -0.005750000000000001 -1.0647083333333334c1.3809583333333335 -1.0503333333333336 4.6939166666666665 -3.4595833333333332 8.576125 -5.510416666666667Z" stroke-width="2"></path></g></svg>