<svg xmlns="http://www.w3.org/2000/svg" fill="none" viewBox="-1 -1 48 48" height="48" width="48"><g id="erlenmeyer-flask--science-experiment-lab-flask-chemistry-solution"><path id="Union" stroke="#000" stroke-linejoin="round" d="M23 2.875c-3.7997916666666667 0 -6.861666666666667 0.24725000000000003 -8.927833333333334 0.4849166666666667 -1.3895833333333334 0.1600416666666667 -2.0220833333333332 1.7211666666666667 -1.1979166666666667 2.852l1.8754583333333334 2.5712083333333333a3.8333333333333335 3.8333333333333335 0 0 1 0.7062916666666667 1.7825000000000002l0.71875 5.753833333333334a1.940625 1.940625 0 0 1 -0.5481666666666667 1.5994583333333334C9.405083333333334 24.214208333333335 5.989583333333334 28.724125 4.29525 31.23208333333334c-0.9985833333333334 1.4796666666666667 -1.4336666666666666 3.2382083333333336 -1.3320833333333333 5.020708333333333l0.012458333333333333 0.21945833333333334c0.215625 3.5439166666666666 3.056125 6.02025 6.599083333333334 6.2579166666666675 3.09925 0.20795833333333333 7.521 0.393875 13.42625 0.393875 5.903333333333333 0 10.325083333333334 -0.18591666666666667 13.425291666666668 -0.393875 3.5420000000000003 -0.23766666666666666 6.3825 -2.714 6.5981250000000005 -6.2579166666666675l0.013416666666666667 -0.22041666666666668c0.100625 -1.7825000000000002 -0.33541666666666664 -3.5400833333333335 -1.3330416666666667 -5.019750000000001 -1.693375 -2.5089166666666665 -5.1098333333333334 -7.018833333333333 -11.331333333333333 -13.314125a1.940625 1.940625 0 0 1 -0.5481666666666667 -1.5994583333333334l0.71875 -5.752875a3.8333333333333335 3.8333333333333335 0 0 1 0.7062916666666667 -1.7834583333333334l1.8754583333333334 -2.5712083333333333c0.8241666666666667 -1.1308333333333334 0.19262500000000002 -2.6929166666666666 -1.1979166666666667 -2.852C29.862625 3.12225 26.799791666666668 2.875 23 2.875Z" stroke-width="2"></path><path id="Union_2" stroke="#000" stroke-linecap="round" stroke-linejoin="round" d="M35.458333333333336 32.355250000000005s-1.5055416666666668 -3.0120416666666667 -7.027458333333334 -8.533958333333333" stroke-width="2"></path></g></svg>