<svg xmlns="http://www.w3.org/2000/svg" fill="none" viewBox="-1 -1 48 48" height="48" width="48"><g id="user-switch-account"><path id="Union" stroke="#000" stroke-linecap="round" stroke-linejoin="round" d="M31.503291666666666 13.532625000000001a5.75 5.75 0 1 1 5.952208333333334 0.025875000000000002c2.8328333333333333 1.0455416666666666 4.992916666666667 3.525708333333333 5.635958333333334 6.579916666666667 0.21850000000000003 1.0350000000000001 -0.66125 1.90325 -1.7192500000000002 1.90325H27.516625c-1.0589583333333334 0 -1.9377499999999999 -0.8672916666666667 -1.7192500000000002 -1.90325 0.6487916666666668 -3.0791250000000003 2.8385833333333337 -5.574625 5.705916666666667 -6.605791666666667Z" stroke-width="2"></path><path id="Union_2" stroke="#000" stroke-linecap="round" stroke-linejoin="round" d="M14.496708333333334 34.61595833333334a5.75 5.75 0 1 0 -5.952208333333334 0.024916666666666667c-2.8328333333333333 1.0465000000000002 -4.992916666666667 3.526666666666667 -5.635958333333334 6.580875 -0.21850000000000003 1.0350000000000001 0.66125 1.90325 1.7192500000000002 1.90325h13.855583333333334c1.0589583333333334 0 1.9377499999999999 -0.8672916666666667 1.7192500000000002 -1.90325 -0.6487916666666668 -3.0791250000000003 -2.8385833333333337 -5.574625 -5.705916666666667 -6.605791666666667Z" stroke-width="2"></path><path id="Vector" stroke="#000" stroke-linecap="round" stroke-linejoin="round" d="M3.11075 11.864166666666668a0.8395 0.8395 0 0 0 -0.5635 1.3014166666666669c1.3349583333333335 2.020166666666667 3.4049583333333335 4.245416666666666 4.456250000000001 5.3312083333333335 0.3641666666666667 0.3756666666666667 0.9583333333333334 0.37375 1.3205833333333332 -0.0038333333333333336 1.0081666666666667 -1.0541666666666667 2.9679583333333333 -3.19125 4.407375 -5.2995833333333335a0.8548333333333333 0.8548333333333333 0 0 0 -0.5615833333333333 -1.3378333333333332c-2.7561666666666667 -0.47725 -6.3135 -0.474375 -9.059125 0.009583333333333334Z" stroke-width="2"></path><path id="Vector_2" stroke="#000" stroke-linecap="round" stroke-linejoin="round" d="M23.958333333333336 2.876916666666667 23.05079166666667 2.875c-4.7255416666666665 0 -8.209083333333334 0.16387500000000002 -10.592458333333335 0.342125 -2.448541666666667 0.18208333333333335 -4.303875 2.0671250000000003 -4.472541666666666 4.516625A128.377375 128.377375 0 0 0 7.787416666666666 11.5" stroke-width="2"></path><path id="Vector_3" stroke="#000" stroke-linecap="round" stroke-linejoin="round" d="M42.88829166666667 34.13583333333333a0.8395 0.8395 0 0 0 0.5654166666666667 -1.3014166666666669c-1.3359166666666666 -2.020166666666667 -3.4059166666666667 -4.245416666666666 -4.458166666666667 -5.3312083333333335a0.9123333333333333 0.9123333333333333 0 0 0 -1.3205833333333332 0.0038333333333333336c-1.00625 1.0541666666666667 -2.967 3.19125 -4.406416666666667 5.2995833333333335a0.8548333333333333 0.8548333333333333 0 0 0 0.5615833333333333 1.3378333333333332c2.7561666666666667 0.47725 6.312541666666666 0.474375 9.058166666666667 -0.009583333333333334Z" stroke-width="2"></path><path id="Vector_4" stroke="#000" stroke-linecap="round" stroke-linejoin="round" d="M25.875 43.10295833333333c3.2707916666666668 -0.050791666666666666 5.802708333333333 -0.181125 7.663791666666667 -0.31912500000000005 2.4495 -0.18208333333333335 4.304833333333334 -2.0661666666666667 4.4735000000000005 -4.516625 0.071875 -1.0417083333333332 0.14183333333333334 -2.2942500000000003 0.20029166666666667 -3.7672083333333335" stroke-width="2"></path></g></svg>