<svg xmlns="http://www.w3.org/2000/svg" fill="none" viewBox="-1 -1 48 48" height="48" width="48"><g id="rectangle-flag--navigation-map-maps-flag-gps-location-destination-goal"><path id="Rectangle 58" stroke="#000" stroke-linecap="round" stroke-linejoin="round" d="M4.6690000000000005 2.9325c-1.009125 0.115 -1.5410000000000001 1.0110416666666666 -1.5774166666666667 2.0268750000000004C3.006291666666667 7.3168750000000005 2.875 12.635625000000001 2.875 23s0.1312916666666667 15.682166666666667 0.21658333333333335 18.040625c0.03641666666666667 1.0158333333333334 0.5682916666666666 1.9118750000000002 1.5774166666666667 2.0278333333333336 0.30283333333333334 0.034499999999999996 0.66125 0.056541666666666664 1.081 0.056541666666666664 0.42070833333333335 0 0.7781666666666668 -0.022041666666666668 1.081 -0.0575 1.009125 -0.115 1.5410000000000001 -1.0110416666666666 1.5774166666666667 -2.0268750000000004C8.493708333333334 38.683125000000004 8.625 33.364375 8.625 23S8.493708333333334 7.317833333333334 8.408416666666666 4.959375c-0.03641666666666667 -1.0158333333333334 -0.5682916666666666 -1.9118750000000002 -1.5774166666666667 -2.0278333333333336A9.505708333333335 9.505708333333335 0 0 0 5.75 2.875c-0.42070833333333335 0 -0.7781666666666668 0.022041666666666668 -1.081 0.0575Z" stroke-width="2"></path><path id="Subtract" stroke="#000" stroke-linecap="round" stroke-linejoin="round" d="M8.597208333333334 30.643666666666668c3.91 0.23479166666666668 7.123291666666667 0.9152083333333333 10.158333333333333 1.55825 6.4975000000000005 1.3780833333333333 12.170833333333333 2.5798333333333336 22.092458333333337 -1.1595833333333334 0.7858333333333333 -0.2951666666666667 1.38 -0.9449166666666667 1.5304583333333335 -1.7710000000000001 0.3066666666666667 -1.69625 0.7465416666666668 -5.241125 0.7465416666666668 -11.645666666666667 0 -4.7447083333333335 -0.24150000000000002 -7.920625000000001 -0.49162500000000003 -9.936958333333333 -0.20316666666666666 -1.6425833333333333 -1.8409583333333335 -2.459083333333333 -3.4155 -1.9473333333333334 -8.574208333333333 2.7849166666666667 -13.893916666666666 1.2266666666666668 -19.733999999999998 -0.48300000000000004C15.767458333333334 4.16875 11.83925 3.01875 6.7275 2.8874583333333335H5.75" stroke-width="2"></path></g></svg>