<svg xmlns="http://www.w3.org/2000/svg" fill="none" viewBox="-1 -1 48 48" height="48" width="48"><g id="attribution"><path id="Ellipse 19" stroke="#000" stroke-linecap="round" stroke-linejoin="round" d="M23 2.875a20.125 20.125 0 1 0 0 40.25 20.125 20.125 0 1 0 0 -40.25" stroke-width="2"></path><path id="Union" stroke="#000" stroke-linecap="round" stroke-linejoin="round" d="M27.590416666666666 15.132083333333332a4.5808333333333335 4.5808333333333335 0 0 1 -1.7441666666666669 3.6004583333333335c2.76 0.2999583333333333 4.8204166666666675 2.5395833333333333 4.8204166666666675 5.389666666666667 0 1.5544166666666668 -0.19358333333333336 2.615291666666667 -0.3344583333333333 3.1816666666666666 -0.0805 0.3239166666666667 -0.28941666666666666 0.5912916666666667 -0.6027916666666667 0.7091666666666667 -0.39291666666666664 0.14758333333333334 -1.0867499999999999 0.342125 -2.247291666666667 0.49450000000000005 -0.19166666666666668 1.7748333333333335 -0.4954583333333334 3.8237500000000004 -0.9727083333333333 5.535333333333333 -0.13608333333333333 0.48970833333333336 -0.48683333333333334 0.8893333333333334 -0.9727083333333333 1.0397916666666667A8.656625 8.656625 0 0 1 23 35.458333333333336a8.657583333333335 8.657583333333335 0 0 1 -2.537666666666667 -0.3756666666666667c-0.485875 -0.15045833333333333 -0.8356666666666667 -0.5500833333333333 -0.9727083333333333 -1.0397916666666667 -0.47629166666666667 -1.7115833333333335 -0.7810416666666666 -3.7605 -0.9727083333333333 -5.535333333333333 -1.1595833333333334 -0.152375 -1.8524583333333335 -0.34691666666666665 -2.2463333333333333 -0.49450000000000005 -0.313375 -0.11691666666666667 -0.5222916666666667 -0.38525000000000004 -0.60375 -0.7091666666666667 -0.13991666666666666 -0.5673333333333334 -0.33349999999999996 -1.62725 -0.33349999999999996 -3.1816666666666666 0 -2.8500833333333335 2.060416666666667 -5.089708333333333 4.8204166666666675 -5.389666666666667a4.590416666666667 4.590416666666667 0 1 1 7.4366666666666665 -3.6014166666666667Z" stroke-width="2"></path></g></svg>