<svg xmlns="http://www.w3.org/2000/svg" fill="none" viewBox="-1 -1 48 48" height="48" width="48"><g id="lipstick--fashion-beauty-lip-lipstick-makeup-shopping"><path id="Rectangle 1096" stroke="#000" stroke-linecap="round" d="M14.442083333333334 16.890625c0.9439583333333333 -0.7743333333333334 2.2597500000000004 -0.733125 3.1816666666666666 0.06708333333333334 1.3579583333333334 1.1777916666666668 3.603333333333333 3.2180833333333334 6.76775 6.3825 3.1634583333333337 3.1625 5.20375 5.409791666666666 6.3825 6.765833333333333 0.8002083333333333 0.922875 0.8404583333333334 2.2386666666666666 0.06708333333333334 3.1826250000000003 -0.9439583333333333 1.15 -2.4878333333333336 2.9095 -4.831916666666666 5.253583333333334a85.45554166666668 85.45554166666668 0 0 1 -3.704916666666667 3.5075000000000003c-1.8265833333333332 1.6195833333333334 -4.44475 1.54675 -6.252166666666667 -0.09583333333333334a154.07125000000002 154.07125000000002 0 0 1 -5.245916666666667 -5.029333333333334 153.96966666666665 153.96966666666665 0 0 1 -5.0283750000000005 -5.245916666666667c-1.643541666666667 -1.8074166666666667 -1.7154166666666668 -4.425583333333334 -0.09583333333333334 -6.252166666666667a85.48333333333333 85.48333333333333 0 0 1 3.5075000000000003 -3.704916666666667c2.3440833333333337 -2.3440833333333337 4.1016666666666675 -3.887958333333334 5.252625 -4.830958333333334Z" stroke-width="2"></path><path id="Subtract" stroke="#000" stroke-linecap="round" d="M30.611083333333333 29.921083333333335a261.91633333333334 261.91633333333334 0 0 0 4.777291666666667 -4.6431249999999995c2.8127083333333336 -2.8117500000000004 4.415041666666667 -4.596166666666667 5.291916666666667 -5.6397916666666665 0.6593333333333333 -0.7839166666666666 1.0081666666666667 -1.7719583333333333 0.91425 -2.791625 -0.43125 -4.695833333333334 -3.3426666666666667 -9.937916666666666 -6.017375 -13.323708333333334 -0.92 -1.1653333333333333 -2.5922916666666667 -1.2324166666666667 -3.693416666666667 -0.23575000000000002 -1.8217916666666667 1.6483333333333334 -4.934458333333334 4.553041666666667 -9.433833333333332 9.052416666666666a350.18649999999997 350.18649999999997 0 0 0 -4.6690000000000005 4.754291666666667" stroke-width="2"></path><path id="Rectangle 1099" stroke="#000" stroke-linecap="round" d="M20.554333333333336 36.32179166666667a98.63741666666667 98.63741666666667 0 0 0 4.484041666666667 -4.572208333333333" stroke-width="2"></path><path id="Vector 1495" stroke="#000" stroke-linecap="round" stroke-linejoin="round" d="M22.450875 12.341416666666667s2.9114166666666668 2.2635833333333335 6.792666666666667 6.145791666666667c3.88125 3.88125 6.145791666666667 6.792666666666667 6.145791666666667 6.792666666666667" stroke-width="2"></path></g></svg>