<svg xmlns="http://www.w3.org/2000/svg" fill="none" viewBox="-1 -1 48 48" height="48" width="48"><g id="hierarchy-1--node-organization-links-structure-link-nodes-network-hierarchy"><path id="Rectangle 125" stroke="#000" stroke-linecap="round" stroke-linejoin="round" d="M16.172833333333337 18.683666666666667c-0.07666666666666667 -1.1001666666666665 -0.7944583333333334 -1.9559583333333332 -1.8860000000000001 -2.1169583333333333C13.298791666666668 16.421041666666667 11.797083333333335 16.291666666666668 9.583333333333334 16.291666666666668c-2.21375 0 -3.7154583333333333 0.12937500000000002 -4.703500000000001 0.27504166666666663 -1.0925 0.161 -1.8093333333333332 1.0158333333333334 -1.8860000000000001 2.1169583333333333C2.929625 19.611333333333334 2.875 20.99229166666667 2.875 23c0 2.0077083333333334 0.05462500000000001 3.388666666666667 0.11883333333333333 4.316333333333333 0.07666666666666667 1.1001666666666665 0.7944583333333334 1.9559583333333332 1.8860000000000001 2.1169583333333333C5.867875000000001 29.578958333333333 7.369583333333334 29.708333333333336 9.583333333333334 29.708333333333336c2.21375 0 3.7154583333333333 -0.12937500000000002 4.703500000000001 -0.27504166666666663 1.0925 -0.161 1.8093333333333332 -1.0158333333333334 1.8860000000000001 -2.1169583333333333 0.06420833333333334 -0.9276666666666666 0.11883333333333333 -2.3086249999999997 0.11883333333333333 -4.316333333333333 0 -2.0077083333333334 -0.05462500000000001 -3.388666666666667 -0.11883333333333333 -4.316333333333333Z" stroke-width="2"></path><path id="Rectangle 1097" stroke="#000" stroke-linecap="round" stroke-linejoin="round" d="M29.827166666666667 5.267c0.07666666666666667 -1.1011250000000001 0.7944583333333334 -1.9559583333333332 1.8860000000000001 -2.1169583333333333C32.701208333333334 3.004375 34.20291666666667 2.875 36.41666666666667 2.875c2.21375 0 3.7154583333333333 0.12937500000000002 4.703500000000001 0.27504166666666663 1.0925 0.161 1.8093333333333332 1.0158333333333334 1.8860000000000001 2.1169583333333333 0.06420833333333334 0.9276666666666666 0.11883333333333333 2.3086249999999997 0.11883333333333333 4.316333333333333 0 2.0077083333333334 -0.05462500000000001 3.388666666666667 -0.11883333333333333 4.316333333333333 -0.07666666666666667 1.1011250000000001 -0.7944583333333334 1.9559583333333332 -1.8860000000000001 2.1169583333333333C40.132125 16.162291666666665 38.63041666666667 16.291666666666668 36.41666666666667 16.291666666666668c-2.21375 0 -3.7154583333333333 -0.12937500000000002 -4.703500000000001 -0.27504166666666663 -1.0925 -0.161 -1.8093333333333332 -1.0158333333333334 -1.8860000000000001 -2.1169583333333333C29.762958333333334 12.972 29.708333333333336 11.591041666666667 29.708333333333336 9.583333333333334c0 -2.0077083333333334 0.05462500000000001 -3.388666666666667 0.11883333333333333 -4.316333333333333Z" stroke-width="2"></path><path id="Rectangle 1099" stroke="#000" stroke-linecap="round" stroke-linejoin="round" d="M29.827166666666667 40.733c0.07666666666666667 1.1011250000000001 0.7944583333333334 1.9559583333333332 1.8860000000000001 2.1169583333333333C32.701208333333334 42.995625000000004 34.20291666666667 43.125 36.41666666666667 43.125c2.21375 0 3.7154583333333333 -0.12937500000000002 4.703500000000001 -0.27504166666666663 1.0925 -0.161 1.8093333333333332 -1.0158333333333334 1.8860000000000001 -2.1169583333333333 0.06420833333333334 -0.9276666666666666 0.11883333333333333 -2.3086249999999997 0.11883333333333333 -4.316333333333333 0 -2.0077083333333334 -0.05462500000000001 -3.388666666666667 -0.11883333333333333 -4.316333333333333 -0.07666666666666667 -1.1011250000000001 -0.7944583333333334 -1.9559583333333332 -1.8860000000000001 -2.1169583333333333C40.132125 29.837708333333335 38.63041666666667 29.708333333333336 36.41666666666667 29.708333333333336c-2.21375 0 -3.7154583333333333 0.12937500000000002 -4.703500000000001 0.27504166666666663 -1.0925 0.161 -1.8093333333333332 1.0158333333333334 -1.8860000000000001 2.1169583333333333C29.762958333333334 33.028 29.708333333333336 34.40895833333334 29.708333333333336 36.41666666666667c0 2.0077083333333334 0.05462500000000001 3.388666666666667 0.11883333333333333 4.316333333333333Z" stroke-width="2"></path><path id="Subtract" stroke="#000" stroke-linecap="round" stroke-linejoin="round" d="m29.771583333333332 33.094125000000005 -13.543166666666666 -6.771583333333333" stroke-width="2"></path><path id="Subtract_2" stroke="#000" stroke-linecap="round" stroke-linejoin="round" d="m29.771583333333332 12.905875000000002 -13.543166666666666 6.771583333333333" stroke-width="2"></path></g></svg>