<svg xmlns="http://www.w3.org/2000/svg" fill="none" viewBox="-1 -1 48 48" height="48" width="48"><g id="ok-hand"><path id="Union" stroke="#000" stroke-linecap="round" stroke-linejoin="round" d="M29.673833333333334 7.748125000000001c-0.37183333333333335 -0.7695416666666668 -0.6430416666666667 -1.6492916666666668 -0.29420833333333335 -2.4303333333333335 0.7781666666666668 -1.7412916666666667 2.61625 -2.253041666666667 3.874541666666667 -2.3929583333333335 0.8280000000000001 -0.09295833333333334 1.62725 0.25204166666666666 2.17925 0.8759166666666668 3.45 3.900416666666667 6.9383333333333335 12.404666666666667 6.722708333333333 22.088625 -0.14375 6.461083333333334 -2.5875000000000004 10.877083333333333 -4.455291666666667 13.323708333333334 -1.2554166666666668 1.6454583333333335 -3.1481250000000003 2.599 -5.182666666666667 2.9794583333333335 -3.0494166666666667 0.5702083333333333 -8.027958333333334 1.2266666666666668 -13.309333333333333 0.790625 -2.1600833333333336 -0.17825 -4.302916666666667 -0.7312083333333333 -6.140041666666667 -1.8812083333333334 -3.749 -2.347916666666667 -6.38825 -6.030791666666667 -7.1156250000000005 -11.260416666666668 -0.2625833333333334 -1.8840833333333333 0.74175 -3.7298333333333336 2.57025 -4.255958333333333 0.35458333333333336 -0.10254166666666667 0.7369583333333334 -0.19358333333333336 1.1404166666666666 -0.26545833333333335 1.46625 -0.25875000000000004 2.5645000000000002 1.0541666666666667 3.0360000000000005 2.4667499999999998 1.066625 3.20275 4.029791666666667 5.237291666666667 6.943125 4.3661666666666665 0.5941666666666667 -0.23 1.1720416666666669 -0.5769166666666666 1.6866666666666668 -0.9477916666666667 1.3886250000000002 -0.997625 1.98375 -2.83475 1.2113333333333334 -4.359458333333333 -1.403 -2.7695833333333337 -4.269375 -3.9799583333333333 -7.746208333333334 -3.0800833333333335 -1.5659166666666666 0.405375 -3.3120000000000003 0.23670833333333333 -4.235833333333334 -1.0905833333333332a15.316083333333333 15.316083333333333 0 0 1 -0.5970416666666667 -0.9247916666666667c-1.1222083333333335 -1.8869583333333335 -0.37950000000000006 -4.298125000000001 1.5946666666666667 -5.257416666666667 3.6780833333333334 -1.7863333333333336 7.680083333333333 -1.6119166666666667 11.507666666666667 -0.135125 -1.5486666666666669 -2.5635416666666666 -3.427958333333333 -4.903791666666667 -5.634041666666667 -6.696833333333334 -0.888375 -0.7216250000000001 -1.6167083333333334 -1.7499166666666668 -1.3704166666666666 -2.8682916666666665 0.3555416666666667 -1.6253333333333333 1.4365416666666668 -2.6622500000000002 2.331625 -3.266 0.8011666666666667 -0.5395416666666666 1.8265833333333332 -0.4849166666666667 2.67375 -0.022041666666666668 4.389166666666667 2.392 8.07875 6.4275416666666665 10.190916666666668 9.154958333333335 -0.36033333333333334 -1.8189166666666667 -0.9065833333333333 -3.510375 -1.5822083333333334 -4.911458333333334Z" stroke-width="2"></path></g></svg>