<svg xmlns="http://www.w3.org/2000/svg" fill="none" viewBox="-1 -1 48 48" height="48" width="48"><g id="phone--android-phone-mobile-device-smartphone-iphone"><path id="Union" stroke="#000" stroke-linejoin="round" d="M43.125 12.458333333333334c0 -5.2928749999999996 -4.2904583333333335 -9.583333333333334 -9.583333333333334 -9.583333333333334h-0.5452916666666666a2.875 2.875 0 0 0 -2.6689583333333338 1.8074166666666667L27.964166666666667 10.589583333333334a3.8333333333333335 3.8333333333333335 0 0 0 0.848125 4.134250000000001l2.9487916666666667 2.9487916666666667c0.47245833333333337 0.47245833333333337 0.6708333333333333 1.1595833333333334 0.47725 1.79975a19.209791666666668 19.209791666666668 0 0 1 -12.765 12.765c-0.6401666666666668 0.1945416666666667 -1.3272916666666668 -0.004791666666666667 -1.79975 -0.47725l-2.9487916666666667 -2.9487916666666667a3.8333333333333335 3.8333333333333335 0 0 0 -4.134250000000001 -0.848125l-5.908125 2.3632500000000003A2.875 2.875 0 0 0 2.875 32.99541666666667V33.54166666666667c0 5.2928749999999996 4.2904583333333335 9.583333333333334 9.583333333333334 9.583333333333334h0.4791666666666667c16.397083333333335 0 29.740916666666667 -13.073583333333334 30.176958333333335 -29.36525 0 -0.004791666666666667 0.0019166666666666668 -0.009583333333333334 0.004791666666666667 -0.012458333333333333a0.017249999999999998 0.017249999999999998 0 0 0 0.005750000000000001 -0.012458333333333333V12.458333333333334Z" stroke-width="2"></path></g></svg>