<svg xmlns="http://www.w3.org/2000/svg" fill="none" viewBox="-1 -1 48 48" height="48" width="48"><g id="bug--code-bug-security-programming-secure-computer"><path id="Rectangle 56" stroke="#000" d="M23 43.125c8.771625 0 15.106208333333333 -5.823791666666667 15.295000000000002 -14.592541666666667 0.024916666666666667 -1.1183750000000001 0.03833333333333334 -2.322041666666667 0.03833333333333334 -3.615791666666667s-0.013416666666666667 -2.4974166666666666 -0.03833333333333334 -3.615791666666667C38.10716666666667 12.532125 31.772583333333337 6.708333333333334 23 6.708333333333334 14.229333333333335 6.708333333333334 7.893791666666667 12.532125 7.704999999999999 21.300875A167.36333333333332 167.36333333333332 0 0 0 7.666666666666667 24.916666666666668c0 1.2937500000000002 0.013416666666666667 2.4974166666666666 0.03833333333333334 3.615791666666667C7.892833333333335 37.301208333333335 14.228375 43.125 23 43.125Z" stroke-width="2"></path><path id="Vector 1483" stroke="#000" stroke-linecap="round" stroke-linejoin="round" d="m15.333333333333334 2.875 1.9166666666666667 3.8333333333333335" stroke-width="2"></path><path id="Vector 1484" stroke="#000" stroke-linecap="round" stroke-linejoin="round" d="m30.666666666666668 2.875 -1.9166666666666667 3.8333333333333335" stroke-width="2"></path><path id="Vector 1489" stroke="#000" stroke-linecap="round" stroke-linejoin="round" d="m23 20.125 0 23" stroke-width="2"></path><path id="Rectangle 57" stroke="#000" d="M37.849375 17.25c-4.210916666666667 1.5486666666666669 -9.2575 2.3958333333333335 -14.849375 2.3958333333333335 -5.591875 0 -10.639416666666667 -0.8471666666666667 -14.850333333333335 -2.3958333333333335" stroke-width="2"></path><path id="Vector 1485" stroke="#000" stroke-linecap="round" stroke-linejoin="round" d="m38.333333333333336 20.125 4.791666666666667 -1.9166666666666667" stroke-width="2"></path><path id="Vector 1486" stroke="#000" stroke-linecap="round" stroke-linejoin="round" d="m38.333333333333336 31.625 4.791666666666667 1.9166666666666667" stroke-width="2"></path><path id="Vector 1487" stroke="#000" stroke-linecap="round" stroke-linejoin="round" d="M38.333333333333336 25.875h5.270833333333334" stroke-width="2"></path><path id="Vector 1485_2" stroke="#000" stroke-linecap="round" stroke-linejoin="round" d="m7.666666666666667 20.125 -4.791666666666667 -1.9166666666666667" stroke-width="2"></path><path id="Vector 1486_2" stroke="#000" stroke-linecap="round" stroke-linejoin="round" d="m7.666666666666667 31.625 -4.791666666666667 1.9166666666666667" stroke-width="2"></path><path id="Vector 1487_2" stroke="#000" stroke-linecap="round" stroke-linejoin="round" d="M7.666666666666667 25.875H2.3958333333333335" stroke-width="2"></path></g></svg>