<svg xmlns="http://www.w3.org/2000/svg" fill="none" viewBox="-1 -1 48 48" height="48" width="48"><g id="panoramic-screen"><path id="Vector" stroke="#000" stroke-linecap="round" stroke-linejoin="round" d="M2.875 23c0 4.935416666666667 0.13416666666666668 8.854041666666667 0.2625833333333334 11.494250000000001 0.08720833333333333 1.772916666666667 2.113125 2.941125 3.8132083333333338 2.43225C10.018416666666667 36.00841666666667 15.19725 34.97916666666667 23 34.97916666666667s12.981583333333333 1.02925 16.049208333333333 1.9473333333333334c1.7000833333333334 0.5079166666666667 3.726 -0.6593333333333333 3.8132083333333338 -2.43225C42.990833333333335 31.854041666666664 43.125 27.935416666666665 43.125 23c0 -4.935416666666667 -0.13416666666666668 -8.854041666666667 -0.2625833333333334 -11.494250000000001 -0.08720833333333333 -1.772916666666667 -2.113125 -2.941125 -3.8132083333333338 -2.43225C35.98158333333333 9.991583333333335 30.802750000000003 11.020833333333334 23 11.020833333333334S10.018416666666667 9.991583333333335 6.950791666666667 9.073500000000001c-1.7000833333333334 -0.5079166666666667 -3.726 0.6602916666666666 -3.8132083333333338 2.43225A236.88466666666667 236.88466666666667 0 0 0 2.875 23Z" stroke-width="2"></path><path id="Vector 2605" stroke="#000" stroke-linecap="round" stroke-linejoin="round" d="m16.291666666666668 11.020833333333334 0 23.958333333333336" stroke-width="2"></path><path id="Vector 2606" stroke="#000" stroke-linecap="round" stroke-linejoin="round" d="m29.708333333333336 11.020833333333334 0 23.958333333333336" stroke-width="2"></path></g></svg>