<svg xmlns="http://www.w3.org/2000/svg" fill="none" viewBox="-1 -1 48 48" height="48" width="48"><g id="hierarchy-15--node-organization-links-structure-link-nodes-network-hierarchy"><path id="Vector 978" stroke="#000" stroke-linecap="round" stroke-linejoin="round" d="m22.041666666666668 23 11.5 0" stroke-width="2"></path><path id="Rectangle 56" stroke="#000" stroke-linecap="round" stroke-linejoin="round" d="M18.500625 32.421375000000005c1.6512083333333334 -0.10925000000000001 2.9325 -1.1845 3.165375 -2.8222916666666666 0.20125 -1.4135416666666667 0.3756666666666667 -3.526666666666667 0.3756666666666667 -6.599083333333334s-0.175375 -5.1855416666666665 -0.3756666666666667 -6.599083333333334c-0.23191666666666666 -1.6377916666666668 -1.5141666666666669 -2.7120833333333336 -3.165375 -2.8222916666666666C17.17620833333333 13.490458333333335 15.238458333333334 13.416666666666668 12.458333333333334 13.416666666666668c-2.779166666666667 0 -4.717875 0.07379166666666667 -6.042291666666666 0.16195833333333334 -1.6512083333333334 0.10925000000000001 -2.9325 1.1845 -3.165375 2.8222916666666666C3.0494166666666667 17.815416666666668 2.875 19.927583333333335 2.875 23s0.175375 5.1855416666666665 0.3756666666666667 6.599083333333334c0.232875 1.6377916666666668 1.5141666666666669 2.7120833333333336 3.165375 2.8222916666666666C7.740458333333334 32.50954166666667 9.678208333333334 32.583333333333336 12.458333333333334 32.583333333333336c2.779166666666667 0 4.717875 -0.07379166666666667 6.042291666666666 -0.16195833333333334Z" stroke-width="2"></path><path id="Rectangle 58" stroke="#000" stroke-linecap="round" stroke-linejoin="round" d="M40.48766666666667 12.421916666666666c1.3780833333333333 -0.052708333333333336 2.4284166666666667 -0.9449166666666667 2.546291666666667 -2.319166666666667A28.740416666666665 28.740416666666665 0 0 0 43.125 7.666666666666667c0 -1.00625 -0.03833333333333334 -1.8054999999999999 -0.09200000000000001 -2.4360833333333334 -0.11691666666666667 -1.37425 -1.1672500000000001 -2.2664583333333335 -2.5453333333333337 -2.319166666666667A56.69020833333334 56.69020833333334 0 0 0 38.333333333333336 2.875c-0.8759166666666668 0 -1.584125 0.014375 -2.1543333333333337 0.03641666666666667 -1.3780833333333333 0.052708333333333336 -2.4284166666666667 0.9449166666666667 -2.546291666666667 2.319166666666667A28.738500000000002 28.738500000000002 0 0 0 33.54166666666667 7.666666666666667c0 1.00625 0.03833333333333334 1.8054999999999999 0.09200000000000001 2.4360833333333334 0.11691666666666667 1.37425 1.1672500000000001 2.2664583333333335 2.5453333333333337 2.319166666666667A56.24458333333333 56.24458333333333 0 0 0 38.333333333333336 12.458333333333334c0.8759166666666668 0 1.584125 -0.014375 2.1543333333333337 -0.03641666666666667Z" stroke-width="2"></path><path id="Rectangle 60" stroke="#000" stroke-linecap="round" stroke-linejoin="round" d="M40.48766666666667 27.75525c1.3780833333333333 -0.052708333333333336 2.4284166666666667 -0.9449166666666667 2.546291666666667 -2.319166666666667A28.740416666666665 28.740416666666665 0 0 0 43.125 23c0 -1.00625 -0.03833333333333334 -1.8054999999999999 -0.09200000000000001 -2.4360833333333334 -0.11691666666666667 -1.37425 -1.1672500000000001 -2.2664583333333335 -2.5453333333333337 -2.319166666666667A56.65858333333333 56.65858333333333 0 0 0 38.333333333333336 18.208333333333336c-0.8759166666666668 0 -1.584125 0.014375 -2.1543333333333337 0.03641666666666667 -1.3780833333333333 0.052708333333333336 -2.4284166666666667 0.9449166666666667 -2.546291666666667 2.319166666666667A28.740416666666665 28.740416666666665 0 0 0 33.54166666666667 23c0 1.00625 0.03833333333333334 1.8054999999999999 0.09200000000000001 2.4360833333333334 0.11691666666666667 1.37425 1.1672500000000001 2.2664583333333335 2.5453333333333337 2.319166666666667A56.24458333333333 56.24458333333333 0 0 0 38.333333333333336 27.791666666666668c0.8759166666666668 0 1.584125 -0.014375 2.1543333333333337 -0.03641666666666667Z" stroke-width="2"></path><path id="Rectangle 61" stroke="#000" stroke-linecap="round" stroke-linejoin="round" d="M40.48766666666667 43.08858333333334c1.3780833333333333 -0.052708333333333336 2.4284166666666667 -0.9449166666666667 2.546291666666667 -2.319166666666667A28.740416666666665 28.740416666666665 0 0 0 43.125 38.333333333333336c0 -1.00625 -0.03833333333333334 -1.8054999999999999 -0.09200000000000001 -2.4360833333333334 -0.11691666666666667 -1.37425 -1.1672500000000001 -2.2664583333333335 -2.5453333333333337 -2.319166666666667A56.65858333333333 56.65858333333333 0 0 0 38.333333333333336 33.54166666666667c-0.8759166666666668 0 -1.584125 0.014375 -2.1543333333333337 0.03641666666666667 -1.3780833333333333 0.052708333333333336 -2.4284166666666667 0.9449166666666667 -2.546291666666667 2.319166666666667A28.740416666666665 28.740416666666665 0 0 0 33.54166666666667 38.333333333333336c0 1.00625 0.03833333333333334 1.8054999999999999 0.09200000000000001 2.4360833333333334 0.11691666666666667 1.37425 1.1672500000000001 2.2664583333333335 2.5453333333333337 2.319166666666667A56.24458333333333 56.24458333333333 0 0 0 38.333333333333336 43.125c0.8759166666666668 0 1.584125 -0.014375 2.1543333333333337 -0.03641666666666667Z" stroke-width="2"></path><path id="Subtract" stroke="#000" stroke-linecap="round" stroke-linejoin="round" d="m33.54358333333334 37.89825 -2.2655 -0.20604166666666668A3.8333333333333335 3.8333333333333335 0 0 1 27.791666666666668 33.874208333333335l0 -21.748416666666667a3.8333333333333335 3.8333333333333335 0 0 1 3.4864166666666665 -3.818l2.2655 -0.20508333333333334" stroke-width="2"></path></g></svg>