<svg xmlns="http://www.w3.org/2000/svg" fill="none" viewBox="-1 -1 48 48" height="48" width="48"><g id="charging--phone-mobile-charge-device-electricity-power-battery-charging"><path id="Ellipse 32" stroke="#000" stroke-linecap="round" stroke-linejoin="round" d="M42.92183333333333 20.125C41.526500000000006 10.372041666666668 33.13916666666667 2.875 23 2.875S4.475416666666667 10.372041666666668 3.0791250000000003 20.125" stroke-width="2"></path><path id="Ellipse 582" stroke="#000" stroke-linecap="round" stroke-linejoin="round" d="M25.875 42.920875a19.978375000000003 19.978375000000003 0 0 0 4.598083333333333 -1.2285833333333334M20.125 42.920875a19.942916666666665 19.942916666666665 0 0 1 -4.627791666666667 -1.2410416666666666M42.92183333333333 25.875a19.98604166666667 19.98604166666667 0 0 1 -1.2295416666666665 4.597125M3.0791250000000003 25.875c0.22904166666666667 1.6004166666666666 0.6459166666666667 3.1414166666666667 1.2285833333333334 4.597125m6.243541666666666 8.341333333333335a20.244791666666668 20.244791666666668 0 0 1 -3.383875 -3.388666666666667m31.666208333333334 0a20.24575 20.24575 0 0 1 -3.40975 3.4087916666666667" stroke-width="2"></path><path id="Union" stroke="#000" stroke-linecap="round" stroke-linejoin="round" d="M19.88158333333333 25.677583333333335a93.59083333333334 93.59083333333334 0 0 1 -6.379625 -0.99475c-1.3819166666666667 -0.26833333333333337 -1.9042083333333335 -1.8745 -0.9631249999999999 -2.9219583333333334 2.4073333333333333 -2.6804583333333336 6.714083333333334 -7.288125000000001 11.375416666666666 -11.387875 1.23625 -1.0867499999999999 3.1002083333333332 -0.13416666666666668 2.986166666666667 1.5084166666666667 -0.23958333333333334 3.447125 -0.520375 6.255041666666667 -0.7810416666666666 8.441 2.635416666666667 0.322 4.800291666666667 0.69 6.378666666666667 0.99475 1.382875 0.26833333333333337 1.9042083333333335 1.8745 0.9640833333333334 2.9219583333333334 -2.4073333333333333 2.6795 -6.714083333333334 7.288125000000001 -11.375416666666666 11.387875 -1.23625 1.0867499999999999 -3.1002083333333332 0.13416666666666668 -2.986166666666667 -1.5084166666666667 0.23958333333333334 -3.447125 0.5194166666666667 -6.255041666666667 0.7810416666666666 -8.441Z" stroke-width="2"></path></g></svg>