<svg xmlns="http://www.w3.org/2000/svg" fill="none" viewBox="-1 -1 48 48" height="48" width="48"><g id="hot-spring--relax-location-outdoor-recreation-spa-travel-places"><path id="Ellipse 32" stroke="#000" stroke-linecap="round" stroke-linejoin="round" d="M9.583333333333334 26.154833333333336C5.466333333333333 27.73416666666667 2.875 30.029375 2.875 32.583333333333336c0 4.7629166666666665 9.01025 8.625 20.125 8.625s20.125 -3.8620833333333335 20.125 -8.625c0 -1.3771250000000002 -0.7532500000000001 -2.678541666666667 -2.092041666666667 -3.8333333333333335" stroke-width="2"></path><path id="Vector" stroke="#000" stroke-linecap="round" stroke-linejoin="round" d="M23 2.875c-3.8333333333333335 4.4984166666666665 -3.8333333333333335 11.79325 0 16.291666666666668 3.8333333333333335 4.4984166666666665 3.8333333333333335 11.79325 0 16.291666666666668" stroke-width="2"></path><path id="Vector_2" stroke="#000" stroke-linecap="round" stroke-linejoin="round" d="M12.458333333333334 6.708333333333334c-3.8333333333333335 3.4404166666666667 -3.8333333333333335 9.017916666666666 0 12.458333333333334s3.8333333333333335 9.017916666666666 0 12.458333333333334" stroke-width="2"></path><path id="Vector_3" stroke="#000" stroke-linecap="round" stroke-linejoin="round" d="M33.54166666666667 6.708333333333334c-3.8333333333333335 3.4404166666666667 -3.8333333333333335 9.017916666666666 0 12.458333333333334s3.8333333333333335 9.017916666666666 0 12.458333333333334" stroke-width="2"></path></g></svg>