<svg xmlns="http://www.w3.org/2000/svg" fill="none" viewBox="-1 -1 48 48" height="48" width="48"><g id="navigation-arrow-off--compass-arrow-map-bearing-navigation-maps-heading-gps-off-disable"><path id="Rectangle 128" stroke="#000" stroke-linecap="round" stroke-linejoin="round" d="M15.525 11.637041666666669c7.51525 -2.9708333333333337 16.464166666666667 -5.73275 23.483958333333334 -6.624958333333334a1.7604583333333335 1.7604583333333335 0 0 1 1.9780000000000002 1.9789583333333334c-0.8893333333333334 7.0025416666666676 -3.6407083333333334 15.926541666666667 -6.602916666666666 23.429333333333336M10.541666666666668 13.731c-3.1289583333333337 1.3991666666666667 -5.768208333333334 2.7580833333333334 -7.567958333333334 3.9061666666666666 -1.072375 0.6832916666666666 -0.9065833333333333 2.1370833333333334 0.20891666666666667 2.7485l14.488083333333334 7.943625 7.943625 14.488083333333334c0.6114166666666667 1.1155 2.06425 1.2812916666666667 2.7485 0.20795833333333333 1.1480833333333333 -1.79975 2.507 -4.438041666666667 3.9061666666666666 -7.567" stroke-width="2"></path><path id="Vector 1350" stroke="#000" stroke-linecap="round" stroke-linejoin="round" d="M40.25 5.75 24.916666666666668 21.083333333333336m-6.708333333333334 6.708333333333334 3.354166666666667 -3.354166666666667" stroke-width="2"></path><path id="Vector 864" stroke="#000" stroke-linecap="round" stroke-linejoin="round" d="m6.708333333333334 2.875 36.41666666666667 36.41666666666667" stroke-width="2"></path></g></svg>