<svg xmlns="http://www.w3.org/2000/svg" fill="none" viewBox="-1 -1 48 48" height="48" width="48"><g id="desktop-lock--device-secure-display-computer-lock-desktop-padlock-security"><path id="Rectangle 56" stroke="#000" stroke-linecap="round" stroke-linejoin="round" d="M14.441125000000001 19.37079166666667c0.09295833333333334 -1.6675 1.284166666666667 -2.807916666666667 2.94975 -2.9229166666666666C18.639583333333334 16.361625 20.44125 16.291666666666668 23 16.291666666666668c2.699625 0 4.546333333333333 0.077625 5.788333333333334 0.17058333333333334 1.520875 0.11308333333333333 2.6277500000000003 1.1308333333333334 2.741791666666667 2.6517083333333336 0.05558333333333334 0.7398333333333333 0.09487500000000001 1.69625 0.09487500000000001 2.927708333333334 0 1.2305000000000001 -0.03833333333333334 2.187875 -0.09487500000000001 2.927708333333334 -0.115 1.520875 -1.2209166666666667 2.538625 -2.741791666666667 2.6517083333333336 -1.242 0.09295833333333334 -3.0887083333333334 0.17058333333333334 -5.788333333333334 0.17058333333333334s-4.546333333333333 -0.077625 -5.788333333333334 -0.17058333333333334c-1.520875 -0.11308333333333333 -2.6277500000000003 -1.1308333333333334 -2.741791666666667 -2.6517083333333336A39.33766666666667 39.33766666666667 0 0 1 14.375 22.041666666666668c0 -1.0925 0.025875000000000002 -1.9693750000000003 0.066125 -2.670875Z" stroke-width="2"></path><path id="Subtract" stroke="#000" stroke-linecap="round" stroke-linejoin="round" d="m27.676666666666666 16.393250000000002 -0.100625 -2.4217083333333336a4.578916666666666 4.578916666666666 0 0 0 -9.151125 0l-0.100625 2.42075" stroke-width="2"></path><path id="Vector 1114" stroke="#000" stroke-linecap="round" stroke-linejoin="round" d="M23 21.083333333333336v1.9166666666666667" stroke-width="2"></path><path id="Union" stroke="#000" stroke-linecap="round" stroke-linejoin="round" d="m26.832375 33.54358333333334 0.64975 3.2506666666666666a1.9166666666666667 1.9166666666666667 0 0 0 1.8792916666666668 1.5410000000000001h0.8634583333333334a2.875 2.875 0 0 1 2.819416666666667 2.3115l0.03833333333333334 0.18783333333333335a1.9166666666666667 1.9166666666666667 0 0 1 -1.88025 2.292333333333333h-16.40666666666667a1.9166666666666667 1.9166666666666667 0 0 1 -1.88025 -2.292333333333333l0.03833333333333334 -0.18783333333333335a2.875 2.875 0 0 1 2.818458333333333 -2.3115h0.8634583333333334a1.9166666666666667 1.9166666666666667 0 0 0 1.8792916666666668 -1.5410000000000001l0.6516666666666667 -3.2506666666666666" stroke-width="2"></path><path id="Rectangle 1095" stroke="#000" stroke-linejoin="round" d="M3.3005 28.792166666666667c0.22520833333333332 2.4226666666666667 2.146666666666667 4.2022916666666665 4.575083333333334 4.3537083333333335 3.090625 0.19166666666666668 8.0385 0.39579166666666665 15.124416666666667 0.39579166666666665s12.033791666666668 -0.20316666666666666 15.124416666666667 -0.39579166666666665c2.4284166666666667 -0.15141666666666667 4.349875 -1.9310416666666668 4.575083333333334 -4.3537083333333335 0.22041666666666668 -2.3728333333333333 0.42550000000000004 -5.852541666666667 0.42550000000000004 -10.583833333333335s-0.20508333333333334 -8.211 -0.42550000000000004 -10.583833333333335c-0.22520833333333332 -2.4226666666666667 -2.146666666666667 -4.2022916666666665 -4.575083333333334 -4.3537083333333335C35.03379166666667 3.0791250000000003 30.085916666666666 2.875 23 2.875s-12.033791666666668 0.204125 -15.124416666666667 0.39579166666666665c-2.4284166666666667 0.15141666666666667 -4.349875 1.9310416666666668 -4.575083333333334 4.3537083333333335C3.0800833333333335 9.997333333333334 2.875 13.477041666666668 2.875 18.208333333333336s0.20508333333333334 8.211 0.42550000000000004 10.583833333333335Z" stroke-width="2"></path></g></svg>