<svg viewBox="-1 -1 48 48" fill="none" xmlns="http://www.w3.org/2000/svg" height="48" width="48"><g id="hard-drive-2--disk-device-electronics-disc-drive-raid-storage"><path id="Vector 186" d="M43.125 35.458333333333336c0 -1.2755416666666666 -0.10158333333333333 -2.549166666666667 -0.3037916666666667 -3.809375L39.1575 8.813791666666667c-0.4791666666666667 -2.992875 -2.704416666666667 -5.33025 -5.725083333333334 -5.577500000000001C31.030833333333337 3.0398333333333336 27.638333333333335 2.875 23 2.875c-4.638333333333334 0 -8.031791666666667 0.16483333333333333 -10.432416666666667 0.3612916666666667 -3.020666666666667 0.24725000000000003 -5.244958333333334 2.584625 -5.725083333333334 5.577500000000001L3.178791666666667 31.648958333333333A24.046499999999998 24.046499999999998 0 0 0 2.875 35.458333333333336" stroke="black" stroke-linecap="round" stroke-linejoin="round" stroke-width="2"></path><path id="Rectangle 137" d="M2.875 35.458333333333336c0 4.2214583333333335 3.4308333333333336 7.405041666666667 7.6513333333333335 7.520041666666668C13.537416666666667 43.05983333333334 17.619916666666665 43.125 23 43.125s9.462583333333335 -0.06516666666666668 12.473666666666666 -0.146625C39.69416666666667 42.863375 43.125 39.67979166666667 43.125 35.458333333333336s-3.4308333333333336 -7.405041666666667 -7.6513333333333335 -7.520041666666668A463.4193333333333 463.4193333333333 0 0 0 23 27.791666666666668c-5.380083333333333 0 -9.462583333333335 0.06516666666666668 -12.473666666666666 0.146625C6.305833333333334 28.053291666666667 2.875 31.236875 2.875 35.458333333333336Z" stroke="black" stroke-linecap="round" stroke-linejoin="round" stroke-width="2"></path><path id="Vector 938" d="m36.41666666666667 35.458333333333336 -19.166666666666668 0" stroke="black" stroke-linecap="round" stroke-linejoin="round" stroke-width="2"></path><path id="Vector 939" d="M10.541666666666668 35.458333333333336h-0.9583333333333334" stroke="black" stroke-linecap="round" stroke-linejoin="round" stroke-width="2"></path></g></svg>