<svg xmlns="http://www.w3.org/2000/svg" fill="none" viewBox="-1 -1 48 48" height="48" width="48"><g id="graph-arrow-user-increase--ascend-growth-up-arrow-stats-graph-right-grow-user"><path id="Union" stroke="#000" stroke-linecap="round" stroke-linejoin="round" d="M34.5 18.680791666666664c0.6085416666666666 -0.6880833333333334 1.196 -1.3435833333333334 1.7537500000000001 -1.9473333333333334a117.33354166666668 117.33354166666668 0 0 0 3.7422916666666666 2.3910416666666667c1.6176666666666666 0.9861249999999999 3.3043333333333336 -0.05462500000000001 3.1145833333333335 -1.9396666666666669a81.58004166666666 81.58004166666666 0 0 0 -0.7455833333333334 -5.383916666666667c-0.6200416666666667 -3.6742500000000002 -1.3675416666666667 -5.921541666666667 -1.919541666666667 -7.205708333333334a2.7638333333333334 2.7638333333333334 0 0 0 -2.4360833333333334 -1.6972083333333332c-1.3991666666666667 -0.07379166666666667 -3.7729583333333334 0 -7.447208333333333 0.69 -2.2520833333333337 0.4216666666666667 -3.9962500000000003 0.8174583333333334 -5.31875 1.1576666666666666 -1.84 0.47245833333333337 -2.2329166666666667 2.419791666666667 -0.74175 3.5975833333333336 0.9679166666666668 0.76475 2.244416666666667 1.7355416666666668 3.917666666666667 2.9516666666666667 -1.2352916666666667 2.6229583333333335 -2.7887500000000003 5.28425 -4.449541666666667 7.567958333333334 0 0 -3.867833333333333 -3.056125 -7.5056666666666665 -5.615833333333334a2.718791666666667 2.718791666666667 0 0 0 -3.5784166666666666 0.38045833333333334C7.430916666666667 19.594083333333337 4.281833333333333 25.370916666666666 3.1414166666666667 27.667083333333334c-0.33541666666666664 0.6737083333333334 -0.405375 1.4537916666666666 0.07954166666666668 2.02975 0.27504166666666663 0.3267916666666667 0.6804166666666667 0.7139583333333334 1.273625 1.1289166666666666 0.4216666666666667 0.29420833333333335 0.7963749999999999 0.5040833333333333 1.1231666666666666 0.6526250000000001 0.9085 0.4149583333333333 1.8265833333333332 -0.10541666666666667 2.4169166666666664 -0.9104166666666667 1.7154166666666668 -2.3412083333333333 5.432791666666667 -7.322625 7.609166666666668 -9.549791666666668 0.7628333333333334 0.5318750000000001 1.6579166666666667 1.2266666666666668 2.5875000000000004 1.9818333333333336" stroke-width="2"></path><path id="Union_2" stroke="#000" stroke-linecap="round" stroke-linejoin="round" d="M32.559375 34.272875a6.708333333333334 6.708333333333334 0 1 0 -7.632166666666667 -0.009583333333333334c-2.595166666666667 1.02925 -4.639291666666667 3.0810416666666667 -5.589958333333334 5.633083333333333 -0.506 1.3589166666666666 0.24533333333333335 2.9162083333333335 1.6914583333333333 3.027375l0.09679166666666668 0.0067083333333333335c1.8476666666666666 0.10541666666666667 4.3585 0.1945416666666667 7.605333333333333 0.1945416666666667s5.758625 -0.08816666666666667 7.606291666666667 -0.1945416666666667l0.09775 -0.0067083333333333335c1.4461249999999999 -0.11116666666666668 2.1965 -1.6694166666666668 1.6905000000000001 -3.027375 -0.9468333333333333 -2.544375 -2.9813750000000003 -4.590416666666667 -5.566 -5.623500000000001Z" stroke-width="2"></path></g></svg>