<svg xmlns="http://www.w3.org/2000/svg" fill="none" viewBox="-1 -1 48 48" height="48" width="48"><g id="theater-mask--hobby-theater-masks-drama-event-show-entertainment-travel-places"><path id="Rectangle 112" stroke="#000" stroke-linecap="round" stroke-linejoin="round" d="M33.303041666666665 9.104166666666668a73.40450000000001 73.40450000000001 0 0 0 -0.2625833333333334 -2.7226250000000003c-0.146625 -1.2630833333333333 -0.9123333333333333 -2.30575 -2.1543333333333337 -2.580791666666667C28.95029166666667 3.3733333333333335 25.196500000000004 2.875 18.208333333333336 2.875c-6.988166666666666 0 -10.741000000000001 0.49833333333333335 -12.677791666666666 0.92575 -1.2410416666666666 0.27504166666666663 -2.0077083333333334 1.3177083333333335 -2.1543333333333337 2.580791666666667A77.51095833333333 77.51095833333333 0 0 0 2.875 15.141666666666667c0 4.090166666666667 1.2745833333333334 8.024125 3.5889583333333337 11.2125" stroke-width="2"></path><path id="Rectangle 112_2" stroke="#000" stroke-linecap="round" stroke-linejoin="round" d="M14.609791666666666 12.528291666666668c0.4676666666666667 -1.1816250000000001 1.4777500000000001 -1.9904583333333334 2.7485 -1.9339166666666665 1.9808750000000002 0.08720833333333333 5.735625000000001 0.577875 12.485166666666668 2.3862500000000004 6.749541666666667 1.8093333333333332 10.246500000000001 3.2612083333333333 12.006 4.175458333333333 1.1289166666666666 0.5874583333333333 1.5985 1.7920833333333335 1.4135416666666667 3.050375a77.48604166666668 77.48604166666668 0 0 1 -1.7834583333333334 8.591458333333334c-1.7920833333333335 6.686291666666667 -6.995833333333334 11.996416666666669 -13.761666666666667 13.463625 -2.2587916666666668 0.48970833333333336 -4.39875 0.7197083333333334 -5.811333333333334 0.3411666666666667 -1.4135416666666667 -0.3785416666666667 -3.151 -1.6483333333333334 -4.862583333333333 -3.200833333333333 -5.125166666666667 -4.652708333333334 -6.977625 -11.854583333333332 -5.1865000000000006 -18.540875000000003a77.6135 77.6135 0 0 1 2.7523333333333335 -8.332708333333334Z" stroke-width="2"></path><path id="Vector 1488" stroke="#000" stroke-linecap="round" stroke-linejoin="round" d="M30.119458333333334 22.621458333333333s1.8850416666666667 -1.440375 4.256916666666667 -0.071875c2.370916666666667 1.3694583333333334 2.0661666666666667 3.722166666666667 2.0661666666666667 3.722166666666667" stroke-width="2"></path><path id="Vector 1489" stroke="#000" stroke-linecap="round" stroke-linejoin="round" d="M24.784416666666665 21.191625000000002s-0.9123333333333333 -2.19075 -3.65125 -2.19075c-2.7379583333333337 0 -3.650291666666667 2.19075 -3.650291666666667 2.19075" stroke-width="2"></path><path id="Rectangle 113" stroke="#000" stroke-linecap="round" stroke-linejoin="round" d="M31.610625000000002 32.305416666666666c-1.9444583333333334 2.45525 -5.654166666666667 4.437083333333334 -7.967583333333334 3.817041666666667 -2.314375 -0.6200416666666667 -4.5367500000000005 -4.19175 -4.992916666666667 -7.290041666666667" stroke-width="2"></path></g></svg>