<svg xmlns="http://www.w3.org/2000/svg" fill="none" viewBox="-1 -1 48 48" height="48" width="48"><g id="location-pin-disabled--navigation-map-maps-pin-gps-location-disabled-off"><path id="Ellipse 517" stroke="#000" stroke-linecap="round" stroke-linejoin="round" d="M35.06158333333333 33.681583333333336C37.96629166666666 29.950791666666667 40.25 25.354625000000002 40.25 20.125c0 -9.526791666666668 -7.723208333333333 -17.25 -17.25 -17.25a17.208791666666666 17.208791666666666 0 0 0 -12.9375 5.840083333333334M7.103166666666667 13.416666666666668A17.19633333333333 17.19633333333333 0 0 0 5.75 20.125c0 12.380708333333335 12.79375 21.206 16.345333333333336 23.417833333333334 0.5625416666666666 0.34979166666666667 1.2554166666666668 0.345 1.817 -0.004791666666666667a47.536208333333335 47.536208333333335 0 0 0 7.337958333333334 -5.6838750000000005" stroke-width="2"></path><path id="Ellipse 27" stroke="#000" stroke-linecap="round" stroke-linejoin="round" d="M27.590416666666666 26.26504166666667A7.666666666666667 7.666666666666667 0 1 0 17.015208333333334 15.333333333333334M22.520833333333336 27.777291666666667a7.667625 7.667625 0 0 1 -7.173125000000001 -7.173125000000001" stroke-width="2"></path><path id="Vector 864" stroke="#000" stroke-linecap="round" stroke-linejoin="round" d="m3.8333333333333335 2.875 40.25 40.25" stroke-width="2"></path></g></svg>