<svg xmlns="http://www.w3.org/2000/svg" fill="none" viewBox="-1 -1 48 48" height="48" width="48"><g id="printer--scan-device-electronics-printer-print-computer"><path id="Subtract" stroke="#000" stroke-linecap="round" stroke-linejoin="round" d="M11.515333333333334 26.600458333333336c2.807916666666667 0.13416666666666668 6.551166666666667 0.23383333333333334 11.484666666666667 0.23383333333333334 4.932541666666667 0 8.674833333333334 -0.09966666666666667 11.48275 -0.23383333333333334 -0.042166666666666665 5.713583333333333 -0.1600416666666667 9.604416666666667 -0.26545833333333335 12.054875000000001 -0.08816666666666667 2.0460416666666665 -1.538125 3.7298333333333336 -3.5688333333333335 3.993375a59.87283333333333 59.87283333333333 0 0 1 -7.650375 0.47725c-3.1404583333333336 0 -5.755750000000001 -0.23191666666666666 -7.648458333333333 -0.47725 -2.02975 -0.2635416666666667 -3.4787500000000002 -1.9454166666666666 -3.5669166666666667 -3.9905 -0.10637500000000001 -2.450458333333333 -0.22520833333333332 -6.341291666666667 -0.26833333333333337 -12.05775Z" stroke-width="2"></path><path id="Subtract_2" stroke="#000" stroke-linecap="round" stroke-linejoin="round" d="M34.360083333333336 34.375416666666666c1.7518333333333336 -0.043125 3.1979583333333337 -0.09295833333333334 4.36425 -0.140875 2.27125 -0.09391666666666668 4.074833333333333 -1.8361666666666667 4.204208333333333 -4.1074166666666665 0.10541666666666667 -1.84 0.19645833333333332 -4.264583333333333 0.19645833333333332 -7.127125a62.79958333333334 62.79958333333334 0 0 0 -0.45137499999999997 -7.623541666666667c-0.25204166666666666 -2.043166666666667 -1.9329583333333333 -3.512291666666667 -3.989541666666667 -3.603333333333333C35.742958333333334 11.64375 30.737583333333333 11.5 23 11.5c-7.530583333333333 0 -12.617416666666667 0.13608333333333333 -15.720500000000001 0.2635416666666667 -2.274125 0.09295833333333334 -4.078666666666667 1.8361666666666667 -4.2080416666666665 4.108375C2.966041666666667 17.711916666666667 2.875 20.138416666666668 2.875 23c0 2.861583333333334 0.09200000000000001 5.2871250000000005 0.19645833333333332 7.127125 0.12937500000000002 2.27125 1.9320000000000002 4.0135 4.204208333333333 4.1074166666666665 1.1662916666666667 0.04791666666666667 2.6114583333333337 0.09775 4.362333333333333 0.140875" stroke-width="2"></path><path id="Rectangle 57" stroke="#000" stroke-linecap="round" stroke-linejoin="round" d="m11.970541666666668 7.1875 0.050791666666666666 -0.44945833333333335c0.20508333333333334 -1.7556666666666667 1.5074583333333333 -3.1117083333333335 3.2583333333333333 -3.3589583333333333C17.074625 3.125125 19.686083333333336 2.875 23 2.875c3.3129583333333334 0 5.925375 0.25012500000000004 7.720333333333333 0.5040833333333333 1.750875 0.24725000000000003 3.0532500000000002 1.6032916666666668 3.2583333333333333 3.3589583333333333 0.017249999999999998 0.14375 0.03354166666666667 0.29420833333333335 0.050791666666666666 0.44945833333333335" stroke-width="2"></path><path id="Vector 933" stroke="#000" stroke-linecap="round" stroke-linejoin="round" d="M34.5 19.166666666666668h-0.9583333333333334" stroke-width="2"></path><path id="Vector 1353" stroke="#000" stroke-linecap="round" stroke-linejoin="round" d="M17.25 32.583333333333336h11.5" stroke-width="2"></path><path id="Vector 1354" stroke="#000" stroke-linecap="round" stroke-linejoin="round" d="M17.25 37.375h11.5" stroke-width="2"></path></g></svg>