<svg xmlns="http://www.w3.org/2000/svg" fill="none" viewBox="-1 -1 48 48" height="48" width="48"><g id="calculator-1--shop-shopping-pay-payment-store-cash-calculate-math"><path id="Rectangle 1096" stroke="#000" stroke-linecap="round" stroke-linejoin="round" d="M3.391541666666667 7.912958333333333c0.19933333333333333 -2.448541666666667 2.072875 -4.3220833333333335 4.521416666666667 -4.521416666666667C11.006458333333333 3.1404583333333336 15.942833333333333 2.875 23 2.875c7.057166666666667 0 11.993541666666667 0.26545833333333335 15.087041666666668 0.5165416666666667 2.448541666666667 0.19933333333333333 4.3220833333333335 2.072875 4.521416666666667 4.521416666666667C42.859541666666665 11.006458333333333 43.125 15.942833333333333 43.125 23c0 7.057166666666667 -0.26545833333333335 11.993541666666667 -0.5165416666666667 15.087041666666668 -0.19933333333333333 2.448541666666667 -2.072875 4.3220833333333335 -4.521416666666667 4.521416666666667C34.993541666666665 42.859541666666665 30.057166666666667 43.125 23 43.125c-7.057166666666667 0 -11.993541666666667 -0.26545833333333335 -15.087041666666668 -0.5165416666666667 -2.448541666666667 -0.19933333333333333 -4.3220833333333335 -2.072875 -4.521416666666667 -4.521416666666667C3.1404583333333336 34.993541666666665 2.875 30.057166666666667 2.875 23c0 -7.057166666666667 0.26545833333333335 -11.993541666666667 0.5165416666666667 -15.087041666666668Z" stroke-width="2"></path><path id="Intersect" stroke="#000" stroke-linecap="round" stroke-linejoin="round" d="M8.688250000000002 17.22125A1.9042083333333335 1.9042083333333335 0 0 0 10.596291666666668 19.166666666666668h24.805500000000002a1.9042083333333335 1.9042083333333335 0 0 0 1.9080416666666669 -1.9454166666666666c-0.060375000000000005 -2.568333333333334 -0.15333333333333335 -4.495541666666667 -0.23670833333333333 -5.826666666666667a2.61625 2.61625 0 0 0 -2.468666666666667 -2.468666666666667C32.415625000000006 8.787916666666668 28.61104166666667 8.625 23 8.625s-9.415625 0.16387500000000002 -11.605416666666667 0.30091666666666667a2.61625 2.61625 0 0 0 -2.468666666666667 2.468666666666667c-0.08337499999999999 1.3311250000000001 -0.17633333333333334 3.2583333333333333 -0.23670833333333333 5.826666666666667Z" stroke-width="2"></path><path id="Vector 1422" stroke="#000" stroke-linecap="round" stroke-linejoin="round" d="M10.541666666666668 26.833333333333336h3.8333333333333335" stroke-width="2"></path><path id="Vector 1425" stroke="#000" stroke-linecap="round" stroke-linejoin="round" d="M10.541666666666668 35.458333333333336h3.8333333333333335" stroke-width="2"></path><path id="Vector 1423" stroke="#000" stroke-linecap="round" stroke-linejoin="round" d="M21.083333333333336 26.833333333333336h3.8333333333333335" stroke-width="2"></path><path id="Vector 1426" stroke="#000" stroke-linecap="round" stroke-linejoin="round" d="M21.083333333333336 35.458333333333336h3.8333333333333335" stroke-width="2"></path><path id="Vector 1424" stroke="#000" stroke-linecap="round" stroke-linejoin="round" d="M31.625 26.833333333333336h3.8333333333333335" stroke-width="2"></path><path id="Vector 1427" stroke="#000" stroke-linecap="round" stroke-linejoin="round" d="M31.625 35.458333333333336h3.8333333333333335" stroke-width="2"></path></g></svg>