<svg xmlns="http://www.w3.org/2000/svg" fill="none" viewBox="-1 -1 48 48" height="48" width="48"><g id="mail-outgoing--inbox-envelope-email-message-up-arrow-outbox"><path id="Rectangle 1097" stroke="#000" stroke-linecap="round" stroke-linejoin="round" d="M36.09083333333333 11.020833333333334c1.6119166666666667 0.9104166666666667 3.050375 1.772916666666667 4.12275 2.4341666666666666 1.2650000000000001 0.779125 2.130375 2.0393333333333334 2.3153333333333332 3.5142083333333334 0.27120833333333333 2.165833333333333 0.5960833333333333 5.937833333333334 0.5960833333333333 11.589125000000001 0 4.378625 -0.1945416666666667 7.628333333333334 -0.40825 9.8785 -0.23 2.412125 -2.155291666666667 4.167791666666667 -4.5741249999999996 4.310583333333334C35.052958333333336 42.930458333333334 30.10125 43.125 23 43.125c-7.100291666666667 0 -12.052958333333335 -0.1945416666666667 -15.142625 -0.3775833333333334 -2.4188333333333336 -0.14279166666666668 -4.344125000000001 -1.8984583333333336 -4.573166666666667 -4.310583333333334C3.069541666666667 36.18666666666667 2.875 32.936 2.875 28.558333333333334c0 -5.651291666666667 0.324875 -9.423291666666668 0.5960833333333333 -11.589125000000001 0.18495833333333334 -1.474875 1.0503333333333336 -2.7350833333333333 2.3153333333333332 -3.5142083333333334 1.0733333333333335 -0.66125 2.5108333333333337 -1.5237500000000002 4.123708333333333 -2.4341666666666666" stroke-width="2"></path><path id="Union" stroke="#000" stroke-linejoin="round" d="M14.935625000000002 9.798c-0.8174583333333334 0.9640833333333334 -0.2875 2.182125 0.9727083333333333 2.2645416666666667 0.9190416666666666 0.060375000000000005 2.146666666666667 0.115 3.771041666666667 0.14854166666666668a196.74583333333337 196.74583333333337 0 0 0 -0.03354166666666667 3.8640000000000003l0 5.360916666666667c0 1.0311666666666668 0.5730833333333333 1.9770416666666668 1.5889166666666668 2.1581666666666663 0.4791666666666667 0.08625 1.0685416666666667 0.14758333333333334 1.7652500000000002 0.14758333333333334 0.6976666666666667 0 1.2860833333333335 -0.06229166666666667 1.7662083333333334 -0.14758333333333334 1.0158333333333334 -0.181125 1.5879583333333334 -1.127 1.5879583333333334 -2.1581666666666663v-5.360916666666667c0 -1.6234166666666667 -0.013416666666666667 -2.8874583333333335 -0.03258333333333334 -3.8640000000000003a85.03675 85.03675 0 0 0 3.7700833333333335 -0.14854166666666668c1.2611666666666668 -0.08241666666666667 1.790166666666667 -1.3004583333333333 0.9727083333333333 -2.2655a58.06158333333333 58.06158333333333 0 0 0 -2.836666666666667 -3.0791250000000003c-1.9645833333333333 -2.0029166666666667 -3.37525 -3.0369583333333336 -4.232 -3.558291666666667a1.8840833333333333 1.8840833333333333 0 0 0 -1.9904583333333334 0c-0.85675 0.5213333333333334 -2.2674166666666666 1.5563333333333336 -4.232 3.558291666666667a57.99833333333334 57.99833333333334 0 0 0 -2.836666666666667 3.0800833333333335Z" stroke-width="2"></path><path id="Rectangle 1099" stroke="#000" stroke-linecap="round" stroke-linejoin="round" d="M37.375 18.208333333333336v2.613375c0 1.6655833333333334 -0.8605833333333334 3.2113750000000003 -2.3124583333333333 4.028833333333333C31.81954166666667 26.676166666666667 25.983291666666666 29.708333333333336 23 29.708333333333336c-2.9832916666666667 0 -8.819541666666666 -3.032166666666667 -12.0635 -4.858750000000001C9.486541666666666 24.034041666666667 8.625 22.48825 8.625 20.82266666666667L8.625 18.208333333333336" stroke-width="2"></path></g></svg>