<svg xmlns="http://www.w3.org/2000/svg" fill="none" viewBox="-1 -1 48 48" height="48" width="48"><g id="fit-to-width-square"><path id="Rectangle 1096" stroke="#000" stroke-linecap="round" stroke-linejoin="round" d="M42.60845833333333 7.912958333333333c-0.19933333333333333 -2.448541666666667 -2.072875 -4.3220833333333335 -4.521416666666667 -4.521416666666667C34.993541666666665 3.1404583333333336 30.057166666666667 2.875 23 2.875c-7.057166666666667 0 -11.993541666666667 0.26545833333333335 -15.087041666666668 0.5165416666666667 -2.448541666666667 0.19933333333333333 -4.3220833333333335 2.072875 -4.521416666666667 4.521416666666667C3.1404583333333336 11.006458333333333 2.875 15.942833333333333 2.875 23c0 7.057166666666667 0.26545833333333335 11.993541666666667 0.5165416666666667 15.087041666666668 0.19933333333333333 2.448541666666667 2.072875 4.3220833333333335 4.521416666666667 4.521416666666667C11.006458333333333 42.859541666666665 15.942833333333333 43.125 23 43.125c7.057166666666667 0 11.993541666666667 -0.26545833333333335 15.087041666666668 -0.5165416666666667 2.448541666666667 -0.19933333333333333 4.3220833333333335 -2.072875 4.521416666666667 -4.521416666666667C42.859541666666665 34.993541666666665 43.125 30.057166666666667 43.125 23c0 -7.057166666666667 -0.26545833333333335 -11.993541666666667 -0.5165416666666667 -15.087041666666668Z" stroke-width="2"></path><path id="Union" stroke="#000" stroke-linecap="round" stroke-linejoin="round" d="M27.152458333333332 29.319250000000004c0.09008333333333333 1.8936666666666666 1.8783333333333334 2.6679999999999997 3.2937916666666665 1.4058750000000002a68.61283333333334 68.61283333333334 0 0 0 2.3814583333333332 -2.2367500000000002c1.8016666666666665 -1.7671666666666668 2.8558333333333334 -3.107875 3.4662916666666668 -4.021166666666667a2.590375 2.590375 0 0 0 0 -2.9344166666666665c-0.6095 -0.9132916666666666 -1.6646250000000002 -2.254 -3.4662916666666668 -4.021166666666667a68.63104166666666 68.63104166666666 0 0 0 -2.3805 -2.235791666666667c-1.4154583333333335 -1.262125 -3.2046666666666668 -0.48875 -3.29475 1.4058750000000002 -0.03833333333333334 0.7915833333333333 -0.07091666666666667 1.7365000000000002 -0.09295833333333334 2.862541666666667 -1.1595833333333334 -0.04120833333333333 -2.507 -0.06804166666666667 -4.0595 -0.06804166666666667 -1.5525000000000002 0 -2.8999166666666665 0.025875000000000002 -4.0595 0.06804166666666667a104.45354166666668 104.45354166666668 0 0 0 -0.09295833333333334 -2.866375c-0.09008333333333333 -1.8946250000000002 -1.8783333333333334 -2.6689583333333338 -3.2937916666666665 -1.4068333333333334a68.51795833333334 68.51795833333334 0 0 0 -2.3814583333333332 2.2367500000000002c-1.8016666666666665 1.7671666666666668 -2.8567916666666666 3.107875 -3.4662916666666668 4.022125a2.590375 2.590375 0 0 0 0 2.9325c0.6095 0.91425 1.6646250000000002 2.2549583333333336 3.4662916666666668 4.023083333333334 0.92 0.9027499999999999 1.7115833333333335 1.63875 2.3805 2.2348333333333334 1.4154583333333335 1.262125 3.2046666666666668 0.48875 3.29475 -1.4058750000000002 0.03833333333333334 -0.7935 0.07091666666666667 -1.7432083333333332 0.09391666666666668 -2.874041666666667 1.1835416666666667 0.04791666666666667 2.537666666666667 0.07954166666666668 4.058541666666667 0.07954166666666668 1.520875 0 2.875 -0.031625 4.058541666666667 -0.07954166666666668 0.023000000000000003 1.13275 0.05558333333333334 2.0834166666666665 0.09391666666666668 2.8788333333333336Z" stroke-width="2"></path></g></svg>