<svg xmlns="http://www.w3.org/2000/svg" fill="none" viewBox="-1 -1 48 48" height="48" width="48"><g id="landing--land-plane-travel-adventure-airplane-airport"><path id="Union" stroke="#000" stroke-linecap="round" stroke-linejoin="round" d="M9.150166666666667 4.0633333333333335a66.68466666666667 66.68466666666667 0 0 0 -2.244416666666667 8.393083333333333c-0.23095833333333332 1.1710833333333333 0.34308333333333335 2.3268333333333335 1.3943750000000001 2.8893750000000002a339.43783333333334 339.43783333333334 0 0 0 10.594375 5.424166666666667c-2.2808333333333333 1.5304583333333335 -4.5175833333333335 3.243 -5.943583333333334 4.37 -0.8500416666666667 0.6717916666666667 -0.9430000000000001 1.9329583333333333 -0.034499999999999996 2.52425 0.8002083333333333 0.5213333333333334 1.6253333333333333 0.8720833333333334 2.2885 1.0992083333333333 0.8778333333333334 0.301875 1.8208333333333333 0.22233333333333336 2.6929166666666666 -0.09966666666666667a81.93941666666666 81.93941666666666 0 0 0 9.132916666666667 -4.054708333333333 203.518375 203.518375 0 0 0 8.660458333333334 3.694375c1.538125 0.6104583333333333 3.2372500000000004 -0.2510833333333334 3.38675 -1.8994166666666668 0.21466666666666667 -2.3728333333333333 0.017249999999999998 -5.672375 -2.100666666666667 -8.052875 -2.2492083333333333 -2.5300000000000002 -8.359541666666667 -3.9818750000000005 -13.997416666666668 -5.321625 -3.159625 -0.7513333333333334 -6.171666666666667 -1.46625 -8.272333333333334 -2.31725 0 0 -0.2999583333333333 -2.9535833333333334 -0.9707916666666666 -5.908125 -0.09679166666666668 -0.42741666666666667 -0.345 -0.805 -0.7235416666666667 -1.0254166666666669a10.07975 10.07975 0 0 0 -1.7959166666666668 -0.8203333333333334c-0.8701666666666668 -0.29804166666666665 -1.7710000000000001 0.232875 -2.0671250000000003 1.1039999999999999Z" stroke-width="2"></path><path id="Rectangle 58" stroke="#000" stroke-linecap="round" stroke-linejoin="round" d="M2.9229166666666666 37.97204166666666c0.115 -0.9027499999999999 0.951625 -1.3416666666666666 1.8620416666666668 -1.3704166666666666C7.050458333333334 36.531666666666666 12.372083333333334 36.41666666666667 23 36.41666666666667c10.627916666666668 0 15.949541666666669 0.115 18.215041666666668 0.18591666666666667 0.9104166666666667 0.02875 1.7480000000000002 0.46670833333333334 1.8610833333333334 1.3704166666666666 0.03066666666666667 0.238625 0.048875 0.5175000000000001 0.048875 0.8395 0 0.32295833333333335 -0.01916666666666667 0.600875 -0.04791666666666667 0.8404583333333334 -0.115 0.9027499999999999 -0.951625 1.3416666666666666 -1.8620416666666668 1.3704166666666666C38.94954166666667 41.09333333333334 33.62791666666667 41.208333333333336 23 41.208333333333336c-10.627916666666668 0 -15.949541666666669 -0.115 -18.215041666666668 -0.18591666666666667 -0.9104166666666667 -0.02875 -1.7480000000000002 -0.46670833333333334 -1.8610833333333334 -1.3704166666666666A6.619208333333334 6.619208333333334 0 0 1 2.875 38.8125c0 -0.32295833333333335 0.01916666666666667 -0.600875 0.04791666666666667 -0.8404583333333334Z" stroke-width="2"></path></g></svg>