<svg xmlns="http://www.w3.org/2000/svg" fill="none" viewBox="-1 -1 48 48" height="48" width="48"><g id="insert-column"><path id="Rectangle 1095" stroke="#000" stroke-linecap="round" stroke-linejoin="round" d="M3.1117083333333335 39.82641666666667c0.0805 1.5793333333333333 1.1883333333333335 2.861583333333334 2.76 3.0312083333333333C7.192291666666667 43.000416666666666 9.046666666666667 43.125 11.5 43.125s4.307708333333333 -0.12458333333333334 5.628291666666667 -0.26737500000000003c1.5716666666666665 -0.169625 2.6795 -1.451875 2.76 -3.0312083333333333C20.00041666666667 37.641416666666665 20.125 34.025625000000005 20.125 28.75s-0.12458333333333334 -8.891416666666668 -0.23670833333333333 -11.076416666666667c-0.0805 -1.5793333333333333 -1.1883333333333335 -2.861583333333334 -2.76 -3.0312083333333333C15.807708333333334 14.499583333333335 13.953333333333335 14.375 11.5 14.375s-4.307708333333333 0.12458333333333334 -5.628291666666667 0.26737500000000003c-1.5716666666666665 0.17058333333333334 -2.6795 1.451875 -2.76 3.0312083333333333C2.9995833333333333 19.858583333333335 2.875 23.474375000000002 2.875 28.75s0.12458333333333334 8.891416666666668 0.23670833333333333 11.076416666666667Z" stroke-width="2"></path><path id="Rectangle 1096" stroke="#000" stroke-linecap="round" stroke-linejoin="round" d="M26.111708333333333 39.82641666666667c0.0805 1.5793333333333333 1.1883333333333335 2.861583333333334 2.76 3.0312083333333333C30.192291666666666 43.000416666666666 32.04666666666667 43.125 34.5 43.125c2.4868750000000004 0 4.3585 -0.12841666666666668 5.682916666666666 -0.273125 1.543875 -0.169625 2.6344583333333333 -1.4183333333333334 2.7149583333333336 -2.9708333333333337 0.10925000000000001 -2.09875 0.227125 -5.633083333333333 0.227125 -11.131041666666667s-0.11787500000000001 -9.03325 -0.227125 -11.131041666666667c-0.0805 -1.5525000000000002 -1.1710833333333333 -2.8012083333333333 -2.7149583333333336 -2.9708333333333337C38.85850000000001 14.503416666666668 36.986875 14.375 34.5 14.375c-2.4533333333333336 0 -4.307708333333333 0.12458333333333334 -5.628291666666667 0.26737500000000003 -1.5716666666666665 0.17058333333333334 -2.6795 1.451875 -2.76 3.0312083333333333C25.999583333333334 19.858583333333335 25.875 23.474375000000002 25.875 28.75s0.12458333333333334 8.891416666666668 0.23670833333333333 11.076416666666667Z" stroke-width="2"></path><path id="Rectangle 128" stroke="#000" stroke-linecap="round" stroke-linejoin="round" d="M19.080416666666668 2.9334583333333333c-1.8936666666666666 0.06516666666666668 -2.6536250000000003 1.8198750000000001 -1.3637083333333335 3.2094583333333335 0.324875 0.34883333333333333 0.69 0.733125 1.1020833333333333 1.1519166666666667 1.1480833333333333 1.170125 2.060416666666667 1.9272083333333336 2.736041666666667 2.4130833333333332 0.8874166666666667 0.6392083333333334 2.0029166666666667 0.6392083333333334 2.8912916666666666 0 0.6746666666666666 -0.4849166666666667 1.587 -1.2429583333333334 2.736041666666667 -2.4130833333333332 0.4101666666666667 -0.4187916666666667 0.7762500000000001 -0.802125 1.1001666666666665 -1.1519166666666667 1.2899166666666668 -1.3895833333333334 0.5309166666666667 -3.143333333333333 -1.3646666666666667 -3.2094583333333335C25.89225 2.8989583333333333 24.606166666666667 2.875 23 2.875c-1.6071250000000001 0 -2.894166666666667 0.023958333333333335 -3.919583333333333 0.058458333333333334Z" stroke-width="2"></path></g></svg>