<svg xmlns="http://www.w3.org/2000/svg" fill="none" viewBox="-1 -1 48 48" height="48" width="48"><g id="leaf-protect--nature-environment-leaf-ecology-plant-plants-eco"><path id="Ellipse 517" stroke="#000" stroke-linecap="round" stroke-linejoin="round" d="M11.682083333333333 33.855041666666665a15.160833333333334 15.160833333333334 0 0 1 -0.7532500000000001 -0.7005416666666667c-6.095000000000001 -6.095000000000001 -5.52 -16.553291666666667 1.284166666666667 -23.357458333333334C22.478666666666665 -0.4705416666666667 40.36020833333334 3.722166666666667 40.36020833333334 3.722166666666667s1.8093333333333332 7.717458333333335 0.13991666666666666 15.923666666666668" stroke-width="2"></path><path id="Ellipse 518" stroke="#000" stroke-linecap="round" stroke-linejoin="round" d="M16.01470833333333 36.41666666666667c1.3129166666666667 0.4906666666666667 2.69675 0.7915833333333333 4.110291666666667 0.905625" stroke-width="2"></path><path id="Vector 6" stroke="#000" stroke-linecap="round" stroke-linejoin="round" d="M35.458333333333336 8.625c-4.791666666666667 3.194125 -25.875 18.6875 -25.875 34.5" stroke-width="2"></path><path id="Rectangle 113" stroke="#000" stroke-linecap="round" stroke-linejoin="round" d="M24.145208333333336 27.389166666666664c0.13991666666666666 -1.5831666666666666 1.124125 -2.8462500000000004 2.6977083333333334 -3.068583333333333C28.221 24.12604166666667 30.337 23.958333333333336 33.54166666666667 23.958333333333336c3.2046666666666668 0 5.320666666666667 0.16770833333333332 6.69875 0.36225 1.5735833333333333 0.22233333333333336 2.55875 1.4854166666666668 2.69675 3.068583333333333 0.100625 1.1375416666666667 0.18783333333333335 2.5999583333333334 0.18783333333333335 4.235833333333334 0 4.325916666666667 -2.2837083333333332 8.373916666666666 -6.1295 10.353833333333334C35.710375 42.64008333333334 34.45591666666667 43.125 33.54166666666667 43.125c-0.91425 0 -2.1687083333333335 -0.4849166666666667 -3.4538333333333338 -1.1461666666666666C26.241083333333336 39.998916666666666 23.958333333333336 35.95091666666667 23.958333333333336 31.625c0 -1.6358750000000002 0.08720833333333333 -3.098291666666667 0.186875 -4.235833333333334Z" stroke-width="2"></path><path id="Vector 993" stroke="#000" stroke-linecap="round" stroke-linejoin="round" d="M29.708333333333336 32.32745833333333 33.25991666666667 36.41666666666667 38.333333333333336 28.75" stroke-width="2"></path></g></svg>