<svg xmlns="http://www.w3.org/2000/svg" fill="none" viewBox="-1 -1 48 48" height="48" width="48"><g id="pork-meat"><path id="Union" stroke="#000" stroke-linecap="round" stroke-linejoin="round" d="M5.635958333333334 3.0110833333333336c-0.9017916666666667 0.13416666666666668 -1.7211666666666667 0.6535833333333334 -2.0680833333333335 1.480625 -1.4720000000000002 3.5007916666666667 -0.3411666666666667 9.599625 1.0110416666666666 14.975875000000002C2.9133333333333336 22.507416666666668 1.9166666666666667 25.984250000000003 1.9166666666666667 29.708333333333336c0 2.6009166666666665 0 14.375 21.083333333333336 14.375s21.083333333333336 -11.774083333333333 21.083333333333336 -14.375c0 -3.725041666666667 -0.9966666666666667 -7.200916666666667 -2.6622500000000002 -10.24075 1.35125 -5.376250000000001 2.483041666666667 -11.475083333333334 1.012 -14.975875000000002 -0.347875 -0.8270416666666667 -1.1672500000000001 -1.3474166666666667 -2.0700000000000003 -1.480625 -5.112708333333334 -0.7590000000000001 -9.74625 1.7585416666666667 -13.287291666666667 5.161583333333334A17.173333333333336 17.173333333333336 0 0 0 23 7.666666666666667a17.173333333333336 17.173333333333336 0 0 0 -4.075791666666667 0.506c-3.5400833333333335 -3.4030416666666667 -8.174583333333333 -5.920583333333333 -13.28825 -5.161583333333334Z" stroke-width="2"></path><path id="Vector 1628" stroke="#000" stroke-linecap="round" stroke-linejoin="round" d="M30.666666666666668 20.125v0.9583333333333334" stroke-width="2"></path><path id="Vector 1629" stroke="#000" stroke-linecap="round" stroke-linejoin="round" d="M15.333333333333334 20.125v0.9583333333333334" stroke-width="2"></path><path id="Ellipse 21" stroke="#000" stroke-linecap="round" stroke-linejoin="round" d="M23 38.333333333333336c-4.581791666666667 0 -8.625 -1.5572916666666667 -8.625 -5.932083333333334 0 -0.8902916666666667 0 -6.52625 8.625 -6.52625s8.625 5.635958333333334 8.625 6.52625c0 4.374791666666667 -4.043208333333334 5.932083333333334 -8.625 5.932083333333334Z" stroke-width="2"></path><path id="Vector 1628_2" stroke="#000" stroke-linecap="round" stroke-linejoin="round" d="M25.875 31.625v0.9583333333333334" stroke-width="2"></path><path id="Vector 1629_2" stroke="#000" stroke-linecap="round" stroke-linejoin="round" d="M20.125 31.625v0.9583333333333334" stroke-width="2"></path></g></svg>