<svg xmlns="http://www.w3.org/2000/svg" fill="none" viewBox="-1 -1 48 48" height="48" width="48"><g id="mail-send-reply-all--email-message-reply-all-actions-action-arrow"><path id="Rectangle 129" stroke="#000" stroke-linecap="round" stroke-linejoin="round" d="M14.854166666666668 8.385416666666668c-0.6248333333333334 -0.2597083333333334 -1.403 -0.16291666666666668 -2.1054583333333334 0.393875 -1.0733333333333335 0.8490833333333334 -2.459083333333333 2.0144166666666665 -4.190791666666667 3.5918333333333337 -2.5865416666666667 2.3575 -4.01925 4.099749999999999 -4.799333333333333 5.230583333333334a2.699625 2.699625 0 0 0 0 3.129916666666667c0.7800833333333334 1.1308333333333334 2.21375 2.875 4.799333333333333 5.230583333333334 1.7317083333333334 1.578375 3.1184166666666666 2.744666666666667 4.190791666666667 3.59375 0.7034166666666667 0.5558333333333333 1.480625 0.6535833333333334 2.1054583333333334 0.3948333333333333" stroke-width="2"></path><path id="Union" stroke="#000" stroke-linejoin="round" d="M22.368458333333336 29.926833333333335c1.4355833333333334 0.9698333333333334 3.0800833333333335 0.1945416666666667 3.2190416666666666 -1.532375a87.90791666666668 87.90791666666668 0 0 0 0.22808333333333333 -4.540583333333334c1.3320833333333333 -0.09295833333333334 2.514666666666667 -0.115 3.5142083333333334 -0.09870833333333333 2.1734999999999998 0.03354166666666667 3.9416250000000006 1.55825 4.590416666666667 3.6320833333333336l2.5855833333333336 8.25125c0.313375 1.0024166666666667 1.0397916666666667 1.8332916666666668 2.0795833333333333 1.9780000000000002 0.4216666666666667 0.059416666666666666 0.92575 0.09966666666666667 1.5141666666666669 0.09966666666666667 0.5654166666666667 0 1.0532083333333333 -0.03833333333333334 1.4633749999999999 -0.09295833333333334 1.0369166666666667 -0.13895833333333332 1.6751666666666667 -1.0618333333333334 1.6952916666666666 -2.1083333333333334 0.07570833333333334 -3.9722916666666666 -0.22520833333333332 -8.114208333333334 -0.6229166666666667 -11.699333333333334 -0.635375 -5.736583333333333 -5.811333333333334 -9.641791666666666 -11.582416666666667 -9.727083333333335a95.40879166666667 95.40879166666667 0 0 1 -5.2555000000000005 -0.21466666666666667 83.14500000000001 83.14500000000001 0 0 0 -0.209875 -3.9349166666666666c-0.13895833333333332 -1.7259583333333333 -1.7834583333333334 -2.50125 -3.22 -1.5314166666666669 -1.2870416666666666 0.8701666666666668 -3.0475000000000003 2.1418749999999998 -5.3312083333333335 3.963666666666667 -2.8270833333333334 2.254 -4.449541666666667 3.947375 -5.36475 5.079166666666667 -0.8375833333333333 1.0369166666666667 -0.8375833333333333 2.3958333333333335 0 3.431791666666667 0.9161666666666667 1.13275 2.537666666666667 2.8261249999999998 5.36475 5.079166666666667 2.284666666666667 1.82275 4.0441666666666665 3.095416666666667 5.332166666666667 3.9655833333333335Z" stroke-width="2"></path></g></svg>