<svg xmlns="http://www.w3.org/2000/svg" fill="none" viewBox="-1 -1 48 48" height="48" width="48"><g id="notepad-text--content-notes-book-notepad-notebook"><path id="Vector 829" stroke="#000" stroke-linecap="round" stroke-linejoin="round" d="m14.375 23.958333333333336 17.25 0" stroke-width="2"></path><path id="Vector 830" stroke="#000" stroke-linecap="round" stroke-linejoin="round" d="M14.375 32.583333333333336h8.625" stroke-width="2"></path><path id="Rectangle 1098" stroke="#000" stroke-linecap="round" stroke-linejoin="round" d="M9.624541666666666 10.185166666666667c0.04025 1.1979166666666667 0.7580416666666667 2.182125 1.955 2.2501666666666664 0.25875000000000004 0.014375 0.5510416666666667 0.023000000000000003 0.8787916666666667 0.023000000000000003 0.32775000000000004 0 0.6190833333333334 -0.008624999999999999 0.8778333333333334 -0.023000000000000003 1.1979166666666667 -0.06708333333333334 1.9166666666666667 -1.0512916666666667 1.9559583333333332 -2.2501666666666664a75.30104166666668 75.30104166666668 0 0 0 0 -5.037000000000001c-0.04025 -1.1979166666666667 -0.7580416666666667 -2.182125 -1.955 -2.2501666666666664a16.931833333333334 16.931833333333334 0 0 0 -1.756625 0c-1.1979166666666667 0.06708333333333334 -1.9166666666666667 1.0512916666666667 -1.9559583333333332 2.2501666666666664a75.29912499999999 75.29912499999999 0 0 0 0 5.037000000000001Z" stroke-width="2"></path><path id="Rectangle 1099" stroke="#000" stroke-linecap="round" stroke-linejoin="round" d="M20.166208333333334 10.185166666666667c0.04025 1.1979166666666667 0.7580416666666667 2.182125 1.955 2.2501666666666664 0.25875000000000004 0.014375 0.5510416666666667 0.023000000000000003 0.8787916666666667 0.023000000000000003 0.32775000000000004 0 0.6190833333333334 -0.008624999999999999 0.8778333333333334 -0.023000000000000003 1.1979166666666667 -0.06708333333333334 1.9166666666666667 -1.0512916666666667 1.9559583333333332 -2.2501666666666664a75.30104166666668 75.30104166666668 0 0 0 0 -5.037000000000001c-0.04025 -1.1979166666666667 -0.7580416666666667 -2.182125 -1.955 -2.2501666666666664a16.931833333333334 16.931833333333334 0 0 0 -1.756625 0c-1.1979166666666667 0.06708333333333334 -1.9166666666666667 1.0512916666666667 -1.9559583333333332 2.2501666666666664a75.29912499999999 75.29912499999999 0 0 0 0 5.037000000000001Z" stroke-width="2"></path><path id="Rectangle 1100" stroke="#000" stroke-linecap="round" stroke-linejoin="round" d="M30.707875 10.185166666666667c0.04025 1.1979166666666667 0.7580416666666667 2.182125 1.955 2.2501666666666664 0.25875000000000004 0.014375 0.5510416666666667 0.023000000000000003 0.8787916666666667 0.023000000000000003 0.32775000000000004 0 0.6190833333333334 -0.008624999999999999 0.8778333333333334 -0.023000000000000003 1.1979166666666667 -0.06708333333333334 1.9166666666666667 -1.0512916666666667 1.9559583333333332 -2.2501666666666664a75.30104166666668 75.30104166666668 0 0 0 0 -5.037000000000001c-0.04025 -1.1979166666666667 -0.7580416666666667 -2.182125 -1.955 -2.2501666666666664a16.931833333333334 16.931833333333334 0 0 0 -1.756625 0c-1.1979166666666667 0.06708333333333334 -1.9166666666666667 1.0512916666666667 -1.9559583333333332 2.2501666666666664a75.29912499999999 75.29912499999999 0 0 0 0 5.037000000000001Z" stroke-width="2"></path><path id="Subtract" stroke="#000" stroke-linecap="round" stroke-linejoin="round" d="M30.671458333333337 6.813750000000001a250.11445833333332 250.11445833333332 0 0 0 -4.80125 -0.09200000000000001m-5.740416666666667 0c-1.750875 0.017249999999999998 -3.349375 0.048875 -4.80125 0.09104166666666667m-5.743291666666667 0.2510833333333334c-0.6085416666666666 0.03641666666666667 -1.1662916666666667 0.07475 -1.6742083333333335 0.11212500000000002 -2.447583333333333 0.17920833333333333 -4.343166666666667 2.024958333333333 -4.552083333333334 4.469666666666667C3.1165 14.463166666666668 2.875 18.812083333333334 2.875 24.916666666666668c0 6.104583333333333 0.24245833333333336 10.454458333333335 0.48300000000000004 13.271 0.209875 2.44375 2.1054583333333334 4.2895 4.552083333333334 4.469666666666667C11.0055 42.88541666666667 15.941875000000001 43.125 23 43.125s11.995458333333334 -0.23958333333333334 15.088958333333332 -0.4676666666666667c2.446625 -0.18016666666666667 4.344125000000001 -2.024958333333333 4.552083333333334 -4.469666666666667 0.24150000000000002 -2.8175 0.4839583333333334 -7.167375000000001 0.4839583333333334 -13.271 0 -6.104583333333333 -0.24245833333333336 -10.454458333333335 -0.48300000000000004 -13.271 -0.20891666666666667 -2.4447083333333337 -2.1064166666666666 -4.2904583333333335 -4.552083333333334 -4.469666666666667a109.44166666666668 109.44166666666668 0 0 0 -1.6751666666666667 -0.11212500000000002" stroke-width="2"></path></g></svg>