<svg xmlns="http://www.w3.org/2000/svg" fill="none" viewBox="-1 -1 48 48" height="48" width="48"><g id="zoom-in--enhance-glass-in-magnify-magnifying-zoom"><path id="Union" stroke="#000" stroke-linecap="round" stroke-linejoin="round" d="M36.30741666666667 31.075875A18.122083333333332 18.122083333333332 0 0 0 39.29166666666667 21.083333333333336c0 -10.055791666666668 -8.152541666666666 -18.208333333333336 -18.208333333333336 -18.208333333333336S2.875 11.027541666666666 2.875 21.083333333333336s8.152541666666666 18.208333333333336 18.208333333333336 18.208333333333336c3.7020416666666667 0 7.145333333333334 -1.1049583333333335 10.020333333333333 -3.0024583333333337l0.9362916666666666 1.1279583333333334c1.2084583333333332 1.4585833333333333 2.3996666666666666 2.8960833333333333 3.7068333333333334 4.315375 1.5429166666666667 1.6742083333333335 3.890833333333333 1.8706666666666667 5.52 0.28079166666666666a44.83945833333333 44.83945833333333 0 0 0 0.7676250000000001 -0.7676250000000001c1.5908333333333333 -1.630125 1.3934166666666667 -3.9780416666666665 -0.28079166666666666 -5.520958333333334 -1.4183333333333334 -1.308125 -2.8558333333333334 -2.4993333333333334 -4.314416666666666 -3.70875 -0.3756666666666667 -0.31145833333333334 -0.7532500000000001 -0.6238750000000001 -1.1317916666666668 -0.940125Z" stroke-width="2"></path><path id="Ellipse 20" stroke="#000" stroke-linecap="round" stroke-linejoin="round" d="M9.583333333333334 21.059375000000003a11.5 11.5 0 1 0 23 0 11.5 11.5 0 1 0 -23 0" stroke-width="2"></path><path id="Vector 1326" stroke="#000" stroke-linecap="round" stroke-linejoin="round" d="M15.333333333333334 21.083333333333336h11.5" stroke-width="2"></path><path id="Vector 1327" stroke="#000" stroke-linecap="round" stroke-linejoin="round" d="m21.083333333333336 15.333333333333334 0 11.5" stroke-width="2"></path></g></svg>