<svg xmlns="http://www.w3.org/2000/svg" fill="none" viewBox="-1 -1 48 48" height="48" width="48"><g id="screwdriver--screwdriver-screw-tool-settings-hand"><path id="Rectangle 59" stroke="#000" stroke-linecap="round" stroke-linejoin="round" d="M26.105 26.66275c0.9842083333333332 1.1193333333333333 1.0196666666666667 2.6986666666666665 0.11020833333333334 3.8793333333333337 -1.1471250000000002 1.4902083333333334 -3.01875 3.734625 -5.723166666666668 6.44 -2.705375 2.705375 -4.95075 4.577 -6.44 5.724125 -1.1816250000000001 0.9094583333333334 -2.76 0.8740000000000001 -3.8802916666666674 -0.11116666666666668a75.83675000000001 75.83675000000001 0 0 1 -3.475875 -3.291875 75.78595833333334 75.78595833333334 0 0 1 -3.2928333333333333 -3.4768333333333334c-0.9842083333333332 -1.1183750000000001 -1.0196666666666667 -2.6977083333333334 -0.11116666666666668 -3.8793333333333337 1.1480833333333333 -1.4892500000000002 3.01875 -3.734625 5.724125 -6.44s4.95075 -4.577 6.44 -5.724125c1.1816250000000001 -0.9085 2.76 -0.8730416666666667 3.8793333333333337 0.11116666666666668 0.8433333333333334 0.7407916666666667 1.986625 1.8016666666666665 3.4768333333333334 3.2928333333333333a75.78212500000001 75.78212500000001 0 0 1 3.2928333333333333 3.475875Z" stroke-width="2"></path><path id="Subtract" stroke="#000" stroke-linecap="round" stroke-linejoin="round" d="M21.125500000000002 21.538541666666667c0.07858333333333334 -0.11308333333333333 0.169625 -0.22041666666666668 0.27025 -0.322l9.97625 -9.97625 0.09200000000000001 -3.795a1.9166666666666667 1.9166666666666667 0 0 1 1.0350000000000001 -1.6550416666666667l5.6589583333333335 -2.9325a0.9583333333333334 0.9583333333333334 0 0 1 1.1183750000000001 0.1725l3.6924583333333336 3.6924583333333336a0.9583333333333334 0.9583333333333334 0 0 1 0.17345833333333333 1.1183750000000001l-2.9325 5.659916666666667a1.9166666666666667 1.9166666666666667 0 0 1 -1.6550416666666667 1.0350000000000001l-3.795 0.09295833333333334 -9.97625 9.97625a2.3632500000000003 2.3632500000000003 0 0 1 -0.322 0.2692916666666667" stroke-width="2"></path></g></svg>