<svg xmlns="http://www.w3.org/2000/svg" fill="none" viewBox="-1 -1 48 48" height="48" width="48"><g id="annoncement-megaphone"><path id="Vector 2506" stroke="#000" stroke-linecap="round" stroke-linejoin="round" d="m40.72916666666667 18.208333333333336 -2.875 0" stroke-width="2"></path><path id="Vector 2507" stroke="#000" stroke-linecap="round" stroke-linejoin="round" d="m8.145833333333334 18.208333333333336 2.875 0" stroke-width="2"></path><path id="Vector 2507_2" stroke="#000" stroke-linecap="round" stroke-linejoin="round" d="M24.4375 1.9166666666666667v2.875" stroke-width="2"></path><path id="Vector 2507_3" stroke="#000" stroke-linecap="round" stroke-linejoin="round" d="m12.917375 6.689166666666667 2.0316666666666667 2.0335833333333335" stroke-width="2"></path><path id="Vector 2507_4" stroke="#000" stroke-linecap="round" stroke-linejoin="round" d="m35.95666666666667 6.689166666666667 -2.0335833333333335 2.0335833333333335" stroke-width="2"></path><path id="Vector" stroke="#000" stroke-linecap="round" stroke-linejoin="round" d="M25.693875000000002 11.909208333333334c-8.451541666666667 7.377250000000001 -17.550916666666666 16.655833333333334 -20.783375000000003 20.00041666666667 -0.7570833333333334 0.7829583333333333 -0.9985833333333334 1.9243333333333335 -0.5625416666666666 2.9210000000000003 0.23766666666666666 0.5414583333333333 0.5184583333333334 1.13275 0.8088333333333333 1.6358750000000002 0.290375 0.503125 0.6622083333333333 1.0417083333333332 1.0129583333333334 1.5180000000000002 0.644 0.8768750000000001 1.7537500000000001 1.2372083333333332 2.809833333333333 0.9736666666666667 4.512791666666667 -1.1279583333333334 17.098583333333334 -4.368083333333334 27.713083333333334 -7.9982500000000005" stroke-width="2"></path><path id="Vector_2" stroke="#000" stroke-linecap="round" stroke-linejoin="round" d="M20.7115 16.476625000000002s2.0038750000000003 2.0048333333333335 5.401166666666667 7.888999999999999c3.39825 5.884166666666666 4.131375 8.622125 4.131375 8.622125" stroke-width="2"></path><path id="Ellipse 21" stroke="#000" stroke-linecap="round" stroke-linejoin="round" d="m21.750333333333337 35.80045833333333 0.56925 2.1255833333333336a4.39875 4.39875 0 1 1 -8.500416666666666 2.277l-0.47341666666666665 -1.7710000000000001" stroke-width="2"></path><path id="Vector_3" stroke="#000" stroke-linecap="round" stroke-linejoin="round" d="M24.96075 10.6375s2.297125 2.511791666666667 6.867416666666667 10.428583333333334c4.57125 7.9158333333333335 5.597625000000001 11.161708333333333 5.597625000000001 11.161708333333333" stroke-width="2"></path></g></svg>