<svg xmlns="http://www.w3.org/2000/svg" fill="none" viewBox="-1 -1 48 48" height="48" width="48"><g id="receipt-cross--shop-shopping-pay-payment-store-cash-bill-receipt-cross-cancel-delete"><path id="Union" stroke="#000" stroke-linecap="round" stroke-linejoin="round" d="M15.851791666666667 31.289583333333333c-0.8318333333333333 -0.9477916666666667 -0.60375 -2.245375 0.2597083333333334 -3.165375 0.6660416666666666 -0.7091666666666667 1.6234166666666667 -1.7087083333333333 2.968916666666667 -3.07625a184.99091666666666 184.99091666666666 0 0 1 -2.968916666666667 -3.07625c-0.8625 -0.92 -1.0915416666666666 -2.218541666666667 -0.25875000000000004 -3.165375a11.313125 11.313125 0 0 1 1.0369166666666667 -1.037875c0.9468333333333333 -0.8318333333333333 2.245375 -0.60375 3.164416666666667 0.2597083333333334 0.7091666666666667 0.6660416666666666 1.7096666666666667 1.6234166666666667 3.07625 2.968916666666667a185.06950000000003 185.06950000000003 0 0 1 3.077208333333333 -2.968916666666667c0.92 -0.8625 2.2175833333333337 -1.0915416666666666 3.165375 -0.25875000000000004a11.360083333333334 11.360083333333334 0 0 1 1.0369166666666667 1.0369166666666667c0.8318333333333333 0.9468333333333333 0.60375 2.245375 -0.2597083333333334 3.164416666666667a183.08 183.08 0 0 1 -2.968916666666667 3.07625 184.60758333333334 184.60758333333334 0 0 1 2.968916666666667 3.077208333333333c0.8625 0.92 1.0925 2.2175833333333337 0.2597083333333334 3.165375a11.360083333333334 11.360083333333334 0 0 1 -1.0369166666666667 1.0369166666666667c-0.9477916666666667 0.8318333333333333 -2.245375 0.60375 -3.165375 -0.25875000000000004 -0.7091666666666667 -0.6669999999999999 -1.7087083333333333 -1.6243750000000001 -3.07625 -2.9698750000000005a185.06950000000003 185.06950000000003 0 0 1 -3.07625 2.968916666666667c-0.92 0.8625 -2.218541666666667 1.0925 -3.165375 0.2597083333333334a11.360083333333334 11.360083333333334 0 0 1 -1.037875 -1.0369166666666667Z" stroke-width="2"></path><path id="Subtract" stroke="#000" stroke-linecap="round" stroke-linejoin="round" d="M33.2005 3.0915833333333333c0.28079166666666666 0.01916666666666667 2.331625 0.2836666666666667 5.8995 3.851541666666667 3.6349583333333335 3.6349583333333335 3.8371666666666666 5.613916666666666 3.848666666666667 5.8228333333333335l0 0.015333333333333334 0 0.0028750000000000004c0.10541666666666667 2.6210416666666667 0.17633333333333334 5.977125 0.17633333333333334 10.258958333333334 0 9.500916666666667 -0.35075 15.498166666666668 -0.6382500000000001 18.817833333333333 -0.12745833333333334 1.474875 -1.7987916666666668 2.1275000000000004 -2.9363333333333337 1.17875l-3.4691666666666667 -2.8903333333333334 -2.8117500000000004 2.8117500000000004a1.9166666666666667 1.9166666666666667 0 0 1 -2.5530000000000004 0.140875L27.025000000000002 40.149375000000006l-2.669916666666667 2.6689583333333338a1.9166666666666667 1.9166666666666667 0 0 1 -2.710166666666667 0L18.975 40.149375000000006l-3.6915 2.9526250000000003a1.9166666666666667 1.9166666666666667 0 0 1 -2.5530000000000004 -0.140875l-2.8117500000000004 -2.8117500000000004 -3.4691666666666667 2.8912916666666666c-1.1375416666666667 0.9477916666666667 -2.808875 0.2951666666666667 -2.937291666666667 -1.1797083333333334C3.224791666666667 38.541291666666666 2.875 32.54404166666667 2.875 23.043125000000003 2.875 14.279166666666667 3.1730416666666668 9.391666666666667 3.445208333333334 6.758166666666667c0.18495833333333334 -1.8007083333333334 1.469125 -3.084875 3.2698333333333336 -3.2707916666666668 2.635416666666667 -0.27120833333333333 7.522916666666666 -0.56925 16.284958333333332 -0.56925 4.250208333333333 0 7.589041666666667 0.06995833333333333 10.2005 0.1725Z" stroke-width="2"></path><path id="Intersect" stroke="#000" stroke-linecap="round" stroke-linejoin="round" d="M32.67916666666667 3.1145833333333335c-0.052708333333333336 0.8816666666666667 -0.09583333333333334 2.1294166666666667 -0.09583333333333334 3.867833333333333 0 1.33975 0.025875000000000002 2.389125 0.06229166666666667 3.2037083333333336 0.07283333333333333 1.6521666666666668 1.1452083333333334 2.918125 2.791625 3.0791250000000003 0.8912500000000001 0.08816666666666667 2.0623333333333336 0.15141666666666667 3.584166666666667 0.15141666666666667 1.6837916666666666 0 2.9392083333333336 -0.07858333333333334 3.8601666666666663 -0.18016666666666667" stroke-width="2"></path></g></svg>