<svg xmlns="http://www.w3.org/2000/svg" fill="none" viewBox="-1 -1 48 48" height="48" width="48"><g id="office-worker--office-worker-human-resources"><path id="Union" stroke="#000" stroke-linecap="round" stroke-linejoin="round" d="M17.68125 42.93141666666667a35.864666666666665 35.864666666666665 0 0 1 -3.5228333333333337 0.19358333333333336c-1.2554166666666668 0 -1.5505833333333334 -0.09104166666666667 -2.5654583333333334 -0.19358333333333336 -1.3129166666666667 -0.13416666666666668 -2.3 -1.2075 -2.4054166666666665 -2.5232916666666667L8.471666666666668 31.47166666666667c-0.7896666666666666 -0.03641666666666667 -2.4571666666666667 -0.07666666666666667 -3.0743333333333336 -0.115 -1.5352500000000002 -0.09679166666666668 -2.681416666666667 -1.4231250000000002 -2.5050833333333333 -2.9516666666666667a52.005875 52.005875 0 0 1 2.2645416666666667 -10.238833333333334c0.48970833333333336 -1.4758333333333333 1.7633333333333334 -2.4974166666666666 3.313916666666667 -2.6258333333333335C9.782666666666668 15.429166666666669 11.651416666666666 15.333333333333334 14.158416666666666 15.333333333333334c2.506041666666667 0 4.37575 0.09583333333333334 5.68675 0.20604166666666668 1.5486666666666669 0.12841666666666668 2.8232500000000003 1.15 3.3129583333333334 2.6258333333333335A51.575583333333334 51.575583333333334 0 0 1 24.498833333333334 23" stroke-width="2"></path><path id="Vector 993" stroke="#000" stroke-linecap="round" stroke-linejoin="round" d="M27.791666666666668 27.791666666666668c0.19933333333333333 -0.997625 0.5989583333333334 -2.0949166666666668 0.94875 -2.9440000000000004 0.3862083333333334 -0.9391666666666667 1.1950416666666668 -1.6339583333333334 2.2041666666666666 -1.7537500000000001A13.938958333333334 13.938958333333334 0 0 1 32.583333333333336 23c0.6296250000000001 0 1.1797083333333334 0.03929166666666667 1.63875 0.09391666666666668 1.009125 0.11979166666666667 1.8179583333333333 0.8145833333333333 2.2041666666666666 1.7537500000000001 0.34979166666666667 0.8490833333333334 0.7494166666666667 1.9454166666666666 0.94875 2.9440000000000004" stroke-width="2"></path><path id="Ellipse 136" stroke="#000" stroke-linecap="round" stroke-linejoin="round" d="M20.386625000000002 9.104166666666668a6.229166666666667 6.229166666666667 0 1 1 -12.458333333333334 0 6.229166666666667 6.229166666666667 0 0 1 12.458333333333334 0Z" stroke-width="2"></path><path id="Rectangle 98" stroke="#000" stroke-linecap="round" stroke-linejoin="round" d="M22.2525 30.810416666666665c0.13320833333333335 -1.3943750000000001 1.1337083333333333 -2.47825 2.525208333333333 -2.6459583333333336C26.335958333333338 27.97566666666667 28.821875000000002 27.791666666666668 32.583333333333336 27.791666666666668c3.7605 0 6.248333333333333 0.18400000000000002 7.805625 0.3727916666666667 1.3915 0.16770833333333332 2.392 1.2515833333333335 2.525208333333333 2.6459583333333336 0.11020833333333334 1.1662916666666667 0.21083333333333334 2.7456250000000004 0.21083333333333334 4.647916666666666 0 1.902291666666667 -0.100625 3.481625 -0.21083333333333334 4.647916666666666 -0.13320833333333335 1.3943750000000001 -1.1337083333333333 2.47825 -2.525208333333333 2.6459583333333336 -1.55825 0.1887916666666667 -4.0441666666666665 0.3727916666666667 -7.805625 0.3727916666666667 -3.7605 0 -6.248333333333333 -0.18495833333333334 -7.805625 -0.3727916666666667 -1.3915 -0.16770833333333332 -2.392 -1.2515833333333335 -2.525208333333333 -2.6459583333333336A49.367583333333336 49.367583333333336 0 0 1 22.041666666666668 35.458333333333336c0 -1.902291666666667 0.100625 -3.481625 0.21083333333333334 -4.647916666666666Z" stroke-width="2"></path></g></svg>