<svg xmlns="http://www.w3.org/2000/svg" fill="none" viewBox="-1 -1 48 48" height="48" width="48"><g id="download-box-2--arrow-button-down-download-internet-network-server-upload"><path id="Rectangle 1096" stroke="#000" stroke-linecap="round" stroke-linejoin="round" d="M31.625 18.352083333333333a148.25416666666666 148.25416666666666 0 0 1 5.9244166666666676 0.31912500000000005c2.235791666666667 0.17058333333333334 4.007750000000001 1.7633333333333334 4.2463750000000005 3.992416666666667 0.198375 1.856291666666667 0.370875 4.482125 0.370875 8.002083333333333 0 3.521875 -0.1725 6.147708333333334 -0.370875 8.004000000000001 -0.23766666666666666 2.2290833333333335 -2.0077083333333334 3.8218333333333336 -4.2435 3.9914583333333336C34.634166666666665 42.8835 29.88275 43.125 23 43.125s-11.634166666666667 -0.24150000000000002 -14.552291666666667 -0.4638333333333333c-2.235791666666667 -0.169625 -4.005833333333333 -1.762375 -4.2435 -3.9914583333333336C4.005833333333333 36.81341666666667 3.8333333333333335 34.187583333333336 3.8333333333333335 30.666666666666668c0 -3.520916666666667 0.1725 -6.14675 0.370875 -8.002083333333333 0.23766666666666666 -2.2300416666666667 2.0105833333333334 -3.8237500000000004 4.245416666666666 -3.993375A148.26375000000002 148.26375000000002 0 0 1 14.375 18.352083333333333" stroke-width="2"></path><path id="Union" stroke="#000" stroke-linecap="round" stroke-linejoin="round" d="m26.806500000000003 23.995708333333337 -0.39675 -14.779416666666668c-0.03354166666666667 -1.2372083333333332 -0.8615416666666668 -2.319166666666667 -2.0930000000000004 -2.4418333333333333a13.285375 13.285375 0 0 0 -2.6325416666666666 0c-1.2324166666666667 0.12362500000000001 -2.060416666666667 1.204625 -2.0939583333333336 2.442791666666667l-0.39675 14.778458333333333a103.48083333333334 103.48083333333334 0 0 0 -2.992875 0.10254166666666667c-1.8936666666666666 0.09487500000000001 -2.670875 1.8879166666666667 -1.4145 3.3072083333333335 0.6459166666666667 0.7283333333333334 1.4557083333333334 1.6023333333333334 2.4629166666666666 2.629666666666667 1.8955833333333334 1.9310416666666668 3.3215833333333338 3.0436666666666667 4.279916666666667 3.6752083333333334a2.6220000000000003 2.6220000000000003 0 0 0 2.942083333333333 0c0.9583333333333334 -0.6315416666666667 2.384333333333333 -1.7441666666666669 4.278958333333334 -3.6752083333333334a70.779625 70.779625 0 0 0 2.4629166666666666 -2.6287083333333334c1.256375 -1.42025 0.4791666666666667 -3.213291666666667 -1.4154583333333335 -3.3081666666666667 -0.8212916666666666 -0.04120833333333333 -1.808375 -0.07666666666666667 -2.9909583333333334 -0.10254166666666667Z" stroke-width="2"></path></g></svg>