<svg xmlns="http://www.w3.org/2000/svg" fill="none" viewBox="-1 -1 48 48" height="48" width="48"><g id="padlock-key--combination-combo-key-keyhole-lock-secure-security-square-unlock-unlocked"><path id="Rectangle 1096" stroke="#000" stroke-linecap="round" stroke-linejoin="round" d="M6.928750000000001 23.958333333333336c0.03066666666666667 -0.42262500000000003 0.06325 -0.8184166666666667 0.09583333333333334 -1.1864166666666667 0.21850000000000003 -2.400625 2.1418749999999998 -4.131375 4.54825 -4.26075C14.387458333333333 18.361666666666668 18.760333333333335 18.208333333333336 24.916666666666668 18.208333333333336c6.157291666666667 0 10.529208333333333 0.15333333333333335 13.343833333333333 0.30283333333333334 2.406375 0.12937500000000002 4.32975 1.860125 4.547291666666667 4.26075 0.1725 1.8907916666666669 0.31720833333333337 4.494583333333334 0.31720833333333337 7.89475 0 3.3992083333333336 -0.14566666666666667 6.003958333333333 -0.31625000000000003 7.89475 -0.21850000000000003 2.400625 -2.1418749999999998 4.132333333333333 -4.54825 4.26075 -0.41975 0.022041666666666668 -0.8749583333333334 0.04504166666666667 -1.3646666666666667 0.06708333333333334" stroke-width="2"></path><path id="Subtract" stroke="#000" stroke-linecap="round" stroke-linejoin="round" d="m30.21816666666667 18.249541666666666 -0.22808333333333333 -3.8831666666666664a5.082041666666667 5.082041666666667 0 0 0 -10.145875 0l-0.22904166666666667 3.8831666666666664m18.10291666666667 0.23383333333333334 -0.4216666666666667 -5.062875000000001A11.5 11.5 0 0 0 25.83379166666667 2.875h-1.8361666666666667a11.5 11.5 0 0 0 -11.460708333333333 10.5455l-0.4216666666666667 5.062875000000001" stroke-width="2"></path><path id="Union" stroke="#000" stroke-linecap="round" stroke-linejoin="round" d="M9.583333333333334 42.16666666666667a6.708333333333334 6.708333333333334 0 1 1 6.062416666666667 -9.583333333333334L23 32.583333333333336l6.708333333333334 0a2.875 2.875 0 0 1 2.875 2.875v4.791666666666667a2.875 2.875 0 1 1 -5.75 0v-1.9166666666666667h-0.9583333333333334v1.9166666666666667a2.875 2.875 0 1 1 -5.75 0v-1.9166666666666667h-4.47925A6.708333333333334 6.708333333333334 0 0 1 9.583333333333334 42.16666666666667Z" stroke-width="2"></path><path id="Vector 1452" stroke="#000" stroke-linecap="round" stroke-linejoin="round" d="m8.625 35.458333333333336 1.9166666666666667 0" stroke-width="2"></path></g></svg>