<svg xmlns="http://www.w3.org/2000/svg" fill="none" viewBox="-1 -1 48 48" height="48" width="48"><g id="ruler--ruler-company-office-supplies-work-measure"><path id="Rectangle 1099" stroke="#000" stroke-linecap="round" stroke-linejoin="round" d="M41.80441666666667 15.109083333333334c1.5486666666666669 1.9444583333333334 1.4183333333333334 4.626833333333334 -0.27025 6.449583333333334 -1.89175 2.0422083333333334 -4.966083333333334 5.259333333333334 -9.841125 10.134375 -4.875041666666666 4.875041666666666 -8.092166666666667 7.949375 -10.133416666666667 9.841125 -1.8237083333333335 1.6885833333333333 -4.506083333333334 1.8189166666666667 -6.449583333333334 0.27025a69.62291666666667 69.62291666666667 0 0 1 -5.7787500000000005 -5.1357083333333335 69.61716666666668 69.61716666666668 0 0 1 -5.136666666666668 -5.7787500000000005c-1.5477083333333335 -1.9435 -1.417375 -4.625875 0.27120833333333333 -6.449583333333334 1.8907916666666669 -2.04125 4.966083333333334 -5.259333333333334 9.841125 -10.133416666666667 4.874083333333334 -4.875041666666666 8.091208333333332 -7.950333333333333 10.133416666666667 -9.841125 1.8237083333333335 -1.6885833333333333 4.506083333333334 -1.8189166666666667 6.449583333333334 -0.27025a69.63345833333334 69.63345833333334 0 0 1 5.7787500000000005 5.1347499999999995 69.63729166666667 69.63729166666667 0 0 1 5.136666666666668 5.7787500000000005Z" stroke-width="2"></path><path id="Vector 1365" stroke="#000" stroke-linecap="round" stroke-linejoin="round" d="m15.497208333333333 21.049791666666668 -3.8927500000000004 -3.8927500000000004" stroke-width="2"></path><path id="Vector 1371" stroke="#000" stroke-linecap="round" stroke-linejoin="round" d="M9.81525 26.868791666666667 5.948375 23" stroke-width="2"></path><path id="Vector 1370" stroke="#000" stroke-linecap="round" stroke-linejoin="round" d="m21.316208333333332 15.368791666666667 -3.959833333333333 -3.959833333333333" stroke-width="2"></path><path id="Vector 1367" stroke="#000" stroke-linecap="round" stroke-linejoin="round" d="m26.731749999999998 9.476958333333332 -3.6004583333333335 -3.6004583333333335" stroke-width="2"></path></g></svg>