<svg xmlns="http://www.w3.org/2000/svg" fill="none" viewBox="-1 -1 48 48" height="48" width="48"><g id="facebook-1--media-facebook-social"><path id="Rectangle 1096" stroke="#000" stroke-linecap="round" stroke-linejoin="round" d="M3.391541666666667 38.08704166666667c0.19933333333333333 2.448541666666667 2.072875 4.3220833333333335 4.521416666666667 4.521416666666667C11.006458333333333 42.859541666666665 15.942833333333333 43.125 23 43.125c7.057166666666667 0 11.993541666666667 -0.26545833333333335 15.087041666666668 -0.5165416666666667 2.448541666666667 -0.19933333333333333 4.3220833333333335 -2.072875 4.521416666666667 -4.521416666666667C42.859541666666665 34.993541666666665 43.125 30.057166666666667 43.125 23c0 -7.057166666666667 -0.26545833333333335 -11.993541666666667 -0.5165416666666667 -15.087041666666668 -0.19933333333333333 -2.448541666666667 -2.072875 -4.3220833333333335 -4.521416666666667 -4.521416666666667C34.993541666666665 3.1404583333333336 30.057166666666667 2.875 23 2.875c-7.057166666666667 0 -11.993541666666667 0.26545833333333335 -15.087041666666668 0.5165416666666667 -2.448541666666667 0.19933333333333333 -4.3220833333333335 2.072875 -4.521416666666667 4.521416666666667C3.1404583333333336 11.006458333333333 2.875 15.942833333333333 2.875 23c0 7.057166666666667 0.26545833333333335 11.993541666666667 0.5165416666666667 15.087041666666668Z" stroke-width="2"></path><path id="Intersect" stroke="#000" stroke-linecap="round" stroke-linejoin="round" d="M28.286166666666666 43.071333333333335V28.788333333333334h5.308208333333333c0.8510000000000001 0 1.6167083333333334 -0.560625 1.7412916666666667 -1.4020416666666669a12.32225 12.32225 0 0 0 -0.014375 -3.560208333333333c-0.12266666666666667 -0.8260833333333334 -0.8586666666666667 -1.3704166666666666 -1.6943333333333335 -1.3704166666666666h-5.340791666666667c0 -4.785916666666667 0.7963749999999999 -5.4816666666666665 5.285208333333333 -5.568875 0.8615416666666668 -0.017249999999999998 1.6339583333333334 -0.5845833333333333 1.7595 -1.4375 0.21083333333333334 -1.4327083333333335 0.1265 -2.6852500000000004 -0.005750000000000001 -3.5650000000000004 -0.12170833333333334 -0.8145833333333333 -0.8510000000000001 -1.3435833333333334 -1.6732500000000001 -1.336875 -7.934041666666667 0.06899999999999999 -12.452583333333333 1.0072083333333333 -12.452583333333333 11.90825h-4.109333333333334c-0.79925 0 -1.5084166666666667 0.5002500000000001 -1.6291666666666667 1.2899166666666668 -0.13033333333333336 0.8510000000000001 -0.20891666666666667 2.084375 0.008624999999999999 3.584166666666667 0.12458333333333334 0.8663333333333334 0.9046666666666666 1.4585833333333333 1.7805833333333334 1.4585833333333333h3.9492916666666673v14.331875" stroke-width="2"></path></g></svg>