<svg xmlns="http://www.w3.org/2000/svg" fill="none" viewBox="-1 -1 48 48" height="48" width="48"><g id="target-3--shop-bullseye-shooting-target"><path id="Ellipse 21" stroke="#000" stroke-linecap="round" stroke-linejoin="round" d="M23 2.875c11.11475 0 20.125 9.01025 20.125 20.125s-9.01025 20.125 -20.125 20.125S2.875 34.11475 2.875 23 11.88525 2.875 23 2.875Z" stroke-width="2"></path><path id="Ellipse 19" stroke="#000" stroke-linecap="round" stroke-linejoin="round" d="M8.625 23c0 -7.938833333333334 6.436166666666667 -14.375 14.375 -14.375 7.938833333333334 0 14.375 6.436166666666667 14.375 14.375 0 7.938833333333334 -6.436166666666667 14.375 -14.375 14.375 -7.938833333333334 0 -14.375 -6.436166666666667 -14.375 -14.375Z" stroke-width="2"></path><path id="Vector 1585" stroke="#000" stroke-linecap="round" stroke-linejoin="round" d="M23 8.625v3.8333333333333335" stroke-width="2"></path><path id="Vector 1587" stroke="#000" stroke-linecap="round" stroke-linejoin="round" d="m37.375 23 -3.8333333333333335 0" stroke-width="2"></path><path id="Vector 1586" stroke="#000" stroke-linecap="round" stroke-linejoin="round" d="M23 37.375v-3.8333333333333335" stroke-width="2"></path><path id="Vector 1588" stroke="#000" stroke-linecap="round" stroke-linejoin="round" d="m8.625 23 3.8333333333333335 0" stroke-width="2"></path><path id="Vector 1589" stroke="#000" stroke-linecap="round" stroke-linejoin="round" d="m20.125 23 5.75 0" stroke-width="2"></path><path id="Vector 1590" stroke="#000" stroke-linecap="round" stroke-linejoin="round" d="m23 20.125 0 5.75" stroke-width="2"></path></g></svg>