<svg xmlns="http://www.w3.org/2000/svg" fill="none" viewBox="-1 -1 48 48" height="48" width="48"><g id="arrow-turn-down-large--arrow-bend-curve-change-direction-return-down-large-head"><path id="Union" stroke="#000" stroke-linecap="round" stroke-linejoin="round" d="M26.372374999999998 31.374875c1.3522083333333335 -1.9042083333333335 0.322 -4.1055 -2.008666666666667 -4.2665a108.52358333333335 108.52358333333335 0 0 0 -4.301958333333333 -0.20029166666666667 532.4020833333333 532.4020833333333 0 0 1 -0.10254166666666667 -5.6522499999999996c-0.05366666666666667 -4.119875 2.642125 -7.666666666666667 6.762958333333334 -7.666666666666667 4.342208333333333 0 7.270875 3.77775 7.270875 8.119958333333335V32.59291666666667c0 1.595625 0.8442916666666667 3.066666666666667 2.42075 3.313916666666667 0.6066250000000001 0.09583333333333334 1.3349583333333335 0.1600416666666667 2.1945833333333336 0.1600416666666667 0.8615416666666668 0 1.5908333333333333 -0.06420833333333334 2.1965 -0.1600416666666667 1.5764583333333335 -0.24725000000000003 2.42075 -1.7182916666666668 2.42075 -3.3148750000000002V20.378c0 -9.48175 -7.021708333333334 -17.499166666666667 -16.503458333333334 -17.499166666666667 -10.231166666666667 0 -17.901666666666667 8.680583333333333 -18.03391666666667 18.909833333333335a773.64525 773.64525 0 0 1 -0.08145833333333334 5.1232500000000005c-1.7058333333333335 0.049833333333333334 -3.095416666666667 0.11979166666666667 -4.218583333333334 0.19741666666666666 -2.3306666666666667 0.161 -3.360875 2.3622916666666667 -2.008666666666667 4.267458333333334 0.9813333333333334 1.38 2.3287500000000003 3.16825 4.155333333333334 5.402125 2.791625 3.4135833333333334 4.837666666666667 5.265083333333333 6.1381250000000005 6.248333333333333 1.037875 0.7858333333333333 2.3670833333333334 0.7858333333333333 3.4049583333333335 0 1.3004583333333333 -0.9832500000000001 3.3465000000000003 -2.83475 6.1381250000000005 -6.248333333333333 1.8275416666666668 -2.2348333333333334 3.1749583333333335 -4.022125 4.156291666666666 -5.403083333333333Z" stroke-width="2"></path></g></svg>