<svg xmlns="http://www.w3.org/2000/svg" fill="none" viewBox="-1 -1 48 48" height="48" width="48"><g id="memes-comment-reply"><path id="Rectangle 1097" stroke="#000" stroke-linecap="round" stroke-linejoin="round" d="M31.80804166666667 15.422458333333333c-1.6176666666666666 0.06995833333333333 -2.8903333333333334 1.2496666666666667 -2.98425 2.8673333333333333 -0.043125 0.7570833333333334 -0.07379166666666667 1.6828333333333334 -0.07379166666666667 2.7935416666666666s0.03066666666666667 2.0374166666666667 0.07379166666666667 2.7935416666666666c0.09391666666666668 1.6176666666666666 1.3665833333333333 2.7983333333333333 2.98425 2.8673333333333333C32.948458333333335 26.795 34.47125 26.833333333333336 36.41666666666667 26.833333333333336c1.9454166666666666 0 3.4691666666666667 -0.03929166666666667 4.608625 -0.089125 1.6176666666666666 -0.06995833333333333 2.8903333333333334 -1.2496666666666667 2.98425 -2.8673333333333333 0.043125 -0.7570833333333334 0.07379166666666667 -1.6828333333333334 0.07379166666666667 -2.7935416666666666s-0.03066666666666667 -2.0374166666666667 -0.07379166666666667 -2.7935416666666666c-0.09391666666666668 -1.6176666666666666 -1.3665833333333333 -2.7983333333333333 -2.98425 -2.8673333333333333C39.884875 15.371666666666666 38.36208333333334 15.333333333333334 36.41666666666667 15.333333333333334c-1.9454166666666666 0 -3.4691666666666667 0.03929166666666667 -4.608625 0.089125Z" stroke-width="2"></path><path id="Subtract" stroke="#000" stroke-linecap="round" stroke-linejoin="round" d="M42.82791666666667 26.111708333333333c0.1945416666666667 1.1020833333333333 0.29708333333333337 2.235791666666667 0.29708333333333337 3.3944166666666664C43.125 31.970958333333332 43.125 43.125 23 43.125S2.875 31.97191666666667 2.875 29.507083333333334c0 -2.186916666666667 0.36512500000000003 -4.2837499999999995 1.0215833333333335 -6.247375000000001A11.278625 11.278625 0 0 1 3.8333333333333335 22.041666666666668C3.8333333333333335 16.108625 3.8333333333333335 7.476916666666667 6.636458333333334 3.8074583333333334c0.5155833333333334 -0.6746666666666666 1.38 -0.9545 2.223333333333333 -0.8605833333333334 4.117958333333333 0.46 7.31975 3.066666666666667 9.626458333333334 6.320208333333333A16.74879166666667 16.74879166666667 0 0 1 23 8.625a16.770833333333336 16.770833333333336 0 0 1 4.51375 0.6420833333333335c2.3067083333333334 -3.253541666666667 5.508500000000001 -5.85925 9.626458333333334 -6.320208333333333 0.8433333333333334 -0.09391666666666668 1.70775 0.18591666666666667 2.223333333333333 0.8605833333333334 1.8879166666666667 2.4725 2.504125 7.195166666666667 2.705375 11.827750000000002" stroke-width="2"></path><path id="Rectangle 1098" stroke="#000" stroke-linecap="round" stroke-linejoin="round" d="M11.683041666666668 15.422458333333333c-1.6176666666666666 0.06995833333333333 -2.8903333333333334 1.2496666666666667 -2.98425 2.8673333333333333A48.760000000000005 48.760000000000005 0 0 0 8.625 21.083333333333336c0 1.1107083333333334 0.03066666666666667 2.0374166666666667 0.07379166666666667 2.7935416666666666 0.09391666666666668 1.6176666666666666 1.3665833333333333 2.7983333333333333 2.98425 2.8673333333333333C12.823458333333335 26.795 14.346250000000001 26.833333333333336 16.291666666666668 26.833333333333336c1.9454166666666666 0 3.4691666666666667 -0.03929166666666667 4.607666666666667 -0.089125 1.6195833333333334 -0.06995833333333333 2.8912916666666666 -1.2496666666666667 2.9852083333333335 -2.8673333333333333 0.043125 -0.7570833333333334 0.07379166666666667 -1.6828333333333334 0.07379166666666667 -2.7935416666666666s-0.03066666666666667 -2.0374166666666667 -0.07379166666666667 -2.7935416666666666c-0.09391666666666668 -1.6176666666666666 -1.3665833333333333 -2.7983333333333333 -2.98425 -2.8673333333333333A104.969125 104.969125 0 0 0 16.291666666666668 15.333333333333334c-1.9454166666666666 0 -3.4691666666666667 0.03929166666666667 -4.608625 0.089125Z" stroke-width="2"></path><path id="Ellipse 18" stroke="#000" stroke-linecap="round" stroke-linejoin="round" d="M10.501416666666668 33.54166666666667c1.4595416666666667 1.6234166666666667 4.053750000000001 3.1050000000000004 8.66525 3.6311250000000004" stroke-width="2"></path><path id="Vector 2112" stroke="#000" stroke-linecap="round" stroke-linejoin="round" d="M28.75 21.083333333333336h-4.791666666666667" stroke-width="2"></path><path id="Vector 2113" stroke="#000" stroke-linecap="round" stroke-linejoin="round" d="M8.625 21.083333333333336H3.8333333333333335" stroke-width="2"></path></g></svg>