<svg xmlns="http://www.w3.org/2000/svg" fill="none" viewBox="-1 -1 48 48" height="48" width="48"><g id="bag-suitcase-4--product-business-briefcase"><path id="Rectangle 97" stroke="#000" stroke-linecap="round" stroke-linejoin="round" d="M3.4365833333333335 13.642833333333334c0.20125 -2.044125 1.6004166666666666 -3.687666666666667 3.627291666666667 -4.021166666666667C9.921625 9.150166666666667 14.92125 8.625 23 8.625c8.07875 0 13.078375000000001 0.5251666666666668 15.937083333333334 0.9966666666666667 2.025916666666667 0.33349999999999996 3.426041666666667 1.9770416666666668 3.626333333333333 4.021166666666667C42.82791666666667 16.32329166666667 43.125 20.53325 43.125 25.875c0 5.34175 -0.29708333333333337 9.551708333333334 -0.5615833333333333 12.232166666666666 -0.20125 2.044125 -1.6004166666666666 3.687666666666667 -3.627291666666667 4.021166666666667C36.078375 42.599833333333336 31.07875 43.125 23 43.125c-8.07875 0 -13.077416666666668 -0.5251666666666668 -15.937083333333334 -0.9966666666666667 -2.025916666666667 -0.33349999999999996 -3.426041666666667 -1.9770416666666668 -3.626333333333333 -4.021166666666667C3.1720833333333336 35.42670833333333 2.875 31.21675 2.875 25.875c0 -5.340791666666667 0.29708333333333337 -9.551708333333334 0.5615833333333333 -12.232166666666666Z" stroke-width="2"></path><path id="Intersect" stroke="#000" stroke-linecap="round" stroke-linejoin="round" d="M43.111583333333336 23.931500000000003C37.95 25.558750000000003 27.28375 28.75 23 28.75c-4.2837499999999995 0 -14.950000000000001 -3.19125 -20.111583333333336 -4.8185" stroke-width="2"></path><path id="Subtract" stroke="#000" stroke-linecap="round" stroke-linejoin="round" d="M16.040583333333334 8.816666666666666c0.4379583333333334 -1.3493333333333333 1.1864166666666667 -2.9248333333333334 1.7480000000000002 -4.028833333333333 0.45808333333333334 -0.8989166666666667 1.284166666666667 -1.5477083333333335 2.284666666666667 -1.681875A21.983208333333334 21.983208333333334 0 0 1 23 2.918125c1.1931250000000002 0 2.1830833333333333 0.08720833333333333 2.9257916666666666 0.18783333333333335 1.0005000000000002 0.13416666666666668 1.8265833333333332 0.7829583333333333 2.284666666666667 1.681875 0.5615833333333333 1.1039999999999999 1.3100416666666668 2.6795 1.7480000000000002 4.027875000000001" stroke-width="2"></path></g></svg>