<svg xmlns="http://www.w3.org/2000/svg" fill="none" viewBox="-1 -1 48 48" height="48" width="48"><g id="card-game-diamond"><path id="Rectangle 97" stroke="#000" stroke-linecap="round" stroke-linejoin="round" d="M34.381166666666665 42.61420833333333c2.3555833333333336 -0.2175416666666667 4.1745 -1.9741666666666668 4.383416666666666 -4.330708333333334 0.2597083333333334 -2.9440000000000004 0.5270833333333333 -7.788375000000001 0.5270833333333333 -15.2835 0 -7.4941666666666675 -0.26737500000000003 -12.3395 -0.5270833333333333 -15.2835 -0.20891666666666667 -2.3555833333333336 -2.0278333333333336 -4.113166666666666 -4.383416666666666 -4.330708333333334C31.682500000000005 3.1366250000000004 27.7265 2.875 23 2.875c-4.726500000000001 0 -8.681541666666666 0.26162500000000005 -11.381166666666667 0.5107916666666668 -2.3555833333333336 0.2175416666666667 -4.1745 1.9741666666666668 -4.383416666666666 4.330708333333334C6.9766666666666675 10.6605 6.708333333333334 15.504874999999998 6.708333333333334 23c0 7.4941666666666675 0.26737500000000003 12.3395 0.5270833333333333 15.2835 0.20891666666666667 2.3555833333333336 2.0278333333333336 4.112208333333334 4.383416666666666 4.330708333333334C14.3175 42.863375 18.273500000000002 43.125 23 43.125c4.726500000000001 0 8.681541666666666 -0.26162500000000005 11.381166666666667 -0.5107916666666668Z" stroke-width="2"></path><path id="Vector (Stroke)" fill-rule="evenodd" stroke="#000" stroke-linecap="round" stroke-linejoin="round" d="M21.775250000000003 14.578166666666666a1.7259583333333333 1.7259583333333333 0 0 1 2.450458333333333 0c1.4815833333333335 1.46625 3.9952916666666662 4.165875000000001 5.7595833333333335 7.166416666666667 0.45616666666666666 0.7762500000000001 0.45616666666666666 1.7345833333333334 0 2.5108333333333337 -1.7642916666666668 2.9995833333333333 -4.2780000000000005 5.699208333333334 -5.7595833333333335 7.166416666666667 -0.6861666666666667 0.6804166666666667 -1.7633333333333334 0.6804166666666667 -2.450458333333333 0 -1.4815833333333335 -1.4672083333333332 -3.9943333333333335 -4.165875000000001 -5.7595833333333335 -7.166416666666667a2.4734583333333333 2.4734583333333333 0 0 1 0 -2.5108333333333337c1.7652500000000002 -3.0005416666666664 4.278958333333334 -5.699208333333334 5.7595833333333335 -7.166416666666667Z" clip-rule="evenodd" stroke-width="2"></path><path id="Vector 2506" stroke="#000" stroke-linecap="round" stroke-linejoin="round" d="M13.416666666666668 9.583333333333334v1.9166666666666667" stroke-width="2"></path><path id="Vector 2507" stroke="#000" stroke-linecap="round" stroke-linejoin="round" d="M32.583333333333336 36.41666666666667v-1.9166666666666667" stroke-width="2"></path></g></svg>