<svg xmlns="http://www.w3.org/2000/svg" fill="none" viewBox="-1 -1 48 48" height="48" width="48"><g id="cake-slice--cherry-cake-birthday-event-special-sweet-bake"><path id="Union" stroke="#000" stroke-linecap="round" stroke-linejoin="round" d="M31.778333333333332 11.410875a32.86604166666667 32.86604166666667 0 0 1 2.6871666666666667 -0.58075 3.5650000000000004 3.5650000000000004 0 0 1 3.1136250000000003 0.9880416666666666C39.585875 13.800958333333334 43.125 18.361666666666668 43.125 25.875c0 7.113708333333333 -0.3124166666666667 11.415666666666668 -0.58075 13.797125000000001 -0.17154166666666668 1.5237500000000002 -1.3579583333333334 2.642125 -2.884583333333333 2.7906666666666666 -2.884583333333333 0.28175 -8.327916666666667 0.66125 -16.671166666666668 0.66125 -8.3375 0 -13.769333333333334 -0.37950000000000006 -16.65008333333333 -0.66125 -1.5247083333333333 -0.14854166666666668 -2.7111250000000005 -1.2659583333333333 -2.8826666666666667 -2.7887500000000003 -0.25204166666666666 -2.2405833333333334 -0.5443333333333333 -6.1822083333333335 -0.577875 -12.5695 -0.0038333333333333336 -0.7982916666666666 0.22904166666666667 -1.5850833333333334 0.773375 -2.1696666666666666 3.1845416666666666 -3.4107083333333335 10.471708333333334 -7.151083333333333 17.46754166666667 -9.947500000000002" stroke-width="2"></path><path id="Ellipse 280" stroke="#000" stroke-linecap="round" stroke-linejoin="round" d="M32.583333333333336 14.375a5.75 5.75 0 1 1 -11.5 0 5.75 5.75 0 0 1 11.5 0Z" stroke-width="2"></path><path id="Ellipse 286 (Stroke)" stroke="#000" stroke-linecap="round" stroke-linejoin="round" d="M26.833333333333336 8.625c0 -3.1759166666666667 -2.347916666666667 -5.75 -5.75 -5.75" stroke-width="2"></path><path id="Vector 1420" stroke="#000" stroke-linecap="round" stroke-linejoin="round" d="M42.16666666666667 34.5 3.8333333333333335 34.5" stroke-width="2"></path><path id="Vector 1421" stroke="#000" stroke-linecap="round" stroke-linejoin="round" d="M43.125 25.875 3.8333333333333335 25.875" stroke-width="2"></path></g></svg>