<svg xmlns="http://www.w3.org/2000/svg" fill="none" viewBox="-1 -1 48 48" height="48" width="48"><g id="chef-toque-hat--cook-gear-chef-cooking-nutrition-tools-clothes-hat-clothing-food-kitchenware"><path id="Union" stroke="#000" stroke-linecap="round" stroke-linejoin="round" d="M30.25266666666667 6.830041666666666A8.618291666666668 8.618291666666668 0 0 0 23 2.875a8.618291666666668 8.618291666666668 0 0 0 -7.252666666666666 3.955041666666667A7.666666666666667 7.666666666666667 0 1 0 8.356666666666667 19.808750000000003a459.04741666666666 459.04741666666666 0 0 0 2.089166666666667 20.652083333333334c0.16291666666666668 1.3033333333333335 1.198875 2.3 2.5108333333333337 2.384333333333333C14.95575 42.97358333333333 18.304166666666667 43.125 23 43.125s8.04425 -0.15141666666666667 10.043333333333335 -0.28079166666666666c1.3119583333333333 -0.08433333333333333 2.347916666666667 -1.081 2.5108333333333337 -2.384333333333333a459.04358333333334 459.04358333333334 0 0 0 2.089166666666667 -20.651125 7.666666666666667 7.666666666666667 0 1 0 -7.390666666666666 -12.978708333333334Z" stroke-width="2"></path><path id="Intersect" stroke="#000" stroke-linecap="round" stroke-linejoin="round" d="M36.17995833333333 35.80620833333334c-2.450458333333333 -0.12745833333333334 -6.551166666666667 -0.25395833333333334 -13.179958333333333 -0.25395833333333334s-10.730458333333333 0.1265 -13.179958333333333 0.25395833333333334" stroke-width="2"></path><path id="Vector 1388" stroke="#000" stroke-linecap="round" d="m18.208333333333336 20.125 0.9583333333333334 7.666666666666667" stroke-width="2"></path><path id="Vector 1389" stroke="#000" stroke-linecap="round" d="m27.791666666666668 20.125 -0.9583333333333334 7.666666666666667" stroke-width="2"></path></g></svg>