<svg xmlns="http://www.w3.org/2000/svg" fill="none" viewBox="-1 -1 48 48" height="48" width="48"><g id="justice-scale-2--office-work-scale-justice-unequal-company-arbitration-unbalance-court"><path id="Ellipse 208" stroke="#000" stroke-linecap="round" stroke-linejoin="round" d="M34.021791666666665 38.333333333333336c-4.470625 0 -8.188 -3.1922083333333333 -8.957541666666666 -7.402166666666667 -0.16866666666666666 -0.9219166666666667 0.5337916666666668 -1.7230833333333335 1.46625 -1.8208333333333333 1.5362083333333334 -0.16195833333333334 4.112208333333334 -0.36033333333333334 7.491291666666667 -0.36033333333333334s5.956041666666667 0.198375 7.491291666666667 0.36033333333333334c0.9324583333333334 0.09775 1.6358750000000002 0.8989166666666667 1.46625 1.8208333333333333C42.211708333333334 35.14208333333334 38.493375 38.333333333333336 34.02275 38.333333333333336Z" stroke-width="2"></path><path id="Rectangle 678" stroke="#000" stroke-linecap="round" stroke-linejoin="round" d="M39.790000000000006 5.296708333333334c-0.26833333333333337 -0.6995833333333333 -1.0052916666666667 -0.9295833333333333 -1.74225 -0.7935 -1.8879166666666667 0.34883333333333333 -6.3652500000000005 1.2266666666666668 -15.319916666666668 3.22 -8.954666666666666 1.99525 -13.381208333333333 3.101166666666667 -15.238458333333334 3.587041666666667 -0.7254583333333333 0.18975000000000003 -1.2956666666666667 0.7091666666666667 -1.2400833333333334 1.457625 0.021083333333333332 0.28558333333333336 0.06995833333333333 0.6305833333333334 0.16291666666666668 1.0445833333333334 0.09104166666666667 0.4149583333333333 0.19358333333333336 0.7484583333333333 0.296125 1.0158333333333334 0.2664166666666667 0.7005416666666667 1.003375 0.9295833333333333 1.7412916666666667 0.7935 1.8879166666666667 -0.347875 6.3652500000000005 -1.2266666666666668 15.319916666666668 -3.22 8.954666666666666 -1.99525 13.381208333333333 -3.101166666666667 15.238458333333334 -3.587041666666667 0.7254583333333333 -0.18975000000000003 1.2956666666666667 -0.7091666666666667 1.2400833333333334 -1.457625a7.3168750000000005 7.3168750000000005 0 0 0 -0.16291666666666668 -1.0445833333333334 7.332208333333333 7.332208333333333 0 0 0 -0.296125 -1.0158333333333334Z" stroke-width="2"></path><path id="Vector 1617" stroke="#000" stroke-linecap="round" stroke-linejoin="round" d="M23.001916666666666 2.875v4.791666666666667" stroke-width="2"></path><path id="Ellipse 207" stroke="#000" stroke-linecap="round" stroke-linejoin="round" d="M11.980125 43.125c-4.470625 0 -8.188 -3.1922083333333333 -8.957541666666666 -7.402166666666667 -0.16866666666666666 -0.9219166666666667 0.5337916666666668 -1.7230833333333335 1.46625 -1.8208333333333333C6.026000000000001 33.741 8.602 33.54166666666667 11.981083333333334 33.54166666666667s5.956041666666667 0.19933333333333333 7.491291666666667 0.36033333333333334c0.9324583333333334 0.09775 1.6358750000000002 0.8989166666666667 1.46625 1.8208333333333333C20.17004166666667 39.93375 16.451708333333336 43.125 11.981083333333334 43.125Z" stroke-width="2"></path><path id="Subtract" stroke="#000" stroke-linecap="round" stroke-linejoin="round" d="M34.791333333333334 9.864125c1.5017083333333334 4.325916666666667 4.787833333333334 13.976333333333333 6.061458333333333 19.18104166666667" stroke-width="2"></path><path id="Subtract_2" stroke="#000" stroke-linecap="round" stroke-linejoin="round" d="M12.788 14.766c1.5189583333333334 4.378625 4.760041666666666 13.90925 6.023125 19.069875000000003" stroke-width="2"></path><path id="Subtract_3" stroke="#000" stroke-linecap="round" stroke-linejoin="round" d="M33.115208333333335 10.263750000000002c-1.5572916666666667 4.497458333333333 -4.687208333333333 13.731958333333335 -5.9225 18.781416666666665" stroke-width="2"></path><path id="Subtract_4" stroke="#000" stroke-linecap="round" stroke-linejoin="round" d="M11.050541666666668 15.117708333333335C9.4875 19.637208333333334 6.379625 28.809416666666667 5.150083333333333 33.835875" stroke-width="2"></path></g></svg>