<svg xmlns="http://www.w3.org/2000/svg" fill="none" viewBox="-1 -1 48 48" height="48" width="48"><g id="industry-innovation-and-infrastructure"><path id="Rectangle 1096" stroke="#000" stroke-linejoin="round" d="M13.160791666666668 18.65875c0.11691666666666667 1.12125 0.83375 2.051791666666667 1.85725 2.5223333333333335 2.123666666666667 0.9765416666666666 5.8534999999999995 2.537666666666667 7.981958333333334 2.537666666666667 2.1275000000000004 0 5.858291666666667 -1.5620833333333333 7.982916666666667 -2.537666666666667 1.0225416666666667 -0.46958333333333335 1.7393750000000001 -1.4020416666666669 1.856291666666667 -2.5223333333333335 0.11404166666666667 -1.0992083333333333 0.2232916666666667 -2.74275 0.2232916666666667 -5.0025 0 -2.2597500000000004 -0.10925000000000001 -3.903291666666667 -0.2232916666666667 -5.0025 -0.11691666666666667 -1.12125 -0.83375 -2.051791666666667 -1.85725 -2.5223333333333335C28.859250000000003 5.154875 25.129416666666668 3.59375 23 3.59375c-2.1275000000000004 0 -5.858291666666667 1.5620833333333333 -7.982916666666667 2.537666666666667 -1.0225416666666667 0.46958333333333335 -1.7393750000000001 1.4020416666666669 -1.856291666666667 2.5223333333333335 -0.11404166666666667 1.0992083333333333 -0.2232916666666667 2.74275 -0.2232916666666667 5.0025 0 2.2597500000000004 0.10925000000000001 3.903291666666667 0.2232916666666667 5.0025Z" stroke-width="2"></path><path id="Rectangle 1097" stroke="#000" stroke-linejoin="round" d="M12.9375 7.61875s8.030833333333334 4.025 10.0625 4.025c2.0316666666666667 0 10.0625 -4.025 10.0625 -4.025" stroke-width="2"></path><path id="Vector 1655" stroke="#000" stroke-linecap="round" stroke-linejoin="round" d="M23 11.64375v12.075" stroke-width="2"></path><path id="Rectangle 1096_2" stroke="#000" stroke-linejoin="round" d="M3.098291666666667 36.14833333333333c0.11691666666666667 1.12125 0.83375 2.051791666666667 1.856291666666667 2.5223333333333335C7.079208333333333 39.64720833333334 10.81 41.208333333333336 12.9375 41.208333333333336c2.1275000000000004 0 5.858291666666667 -1.5620833333333333 7.982916666666667 -2.537666666666667 1.0225416666666667 -0.46958333333333335 1.7393750000000001 -1.4020416666666669 1.856291666666667 -2.5223333333333335 0.11404166666666667 -1.0992083333333333 0.2232916666666667 -2.74275 0.2232916666666667 -5.0025 0 -2.2597500000000004 -0.10925000000000001 -3.903291666666667 -0.2232916666666667 -5.0025 -0.11691666666666667 -1.12125 -0.83375 -2.051791666666667 -1.85725 -2.5223333333333335C18.795791666666666 22.644458333333336 15.065000000000001 21.083333333333336 12.9375 21.083333333333336c-2.1275000000000004 0 -5.858291666666667 1.5620833333333333 -7.982916666666667 2.537666666666667 -1.0225416666666667 0.46958333333333335 -1.7393750000000001 1.4020416666666669 -1.856291666666667 2.5223333333333335C2.98425 27.242541666666668 2.875 28.886083333333335 2.875 31.145833333333336c0 2.2597500000000004 0.10925000000000001 3.903291666666667 0.2232916666666667 5.0025Z" stroke-width="2"></path><path id="Rectangle 1097_2" stroke="#000" stroke-linejoin="round" d="M2.875 25.108333333333334s8.030833333333334 4.025 10.0625 4.025c2.0316666666666667 0 10.0625 -4.025 10.0625 -4.025" stroke-width="2"></path><path id="Vector 1655_2" stroke="#000" stroke-linecap="round" stroke-linejoin="round" d="M12.9375 29.133333333333333V41.208333333333336" stroke-width="2"></path><path id="Rectangle 1096_3" stroke="#000" stroke-linejoin="round" d="M23.223291666666668 36.14833333333333c0.11691666666666667 1.12125 0.83375 2.051791666666667 1.85725 2.5223333333333335C27.204208333333334 39.64720833333334 30.934041666666673 41.208333333333336 33.0625 41.208333333333336c2.1275000000000004 0 5.858291666666667 -1.5620833333333333 7.982916666666667 -2.537666666666667 1.0225416666666667 -0.46958333333333335 1.7393750000000001 -1.4020416666666669 1.856291666666667 -2.5223333333333335 0.11404166666666667 -1.0992083333333333 0.2232916666666667 -2.74275 0.2232916666666667 -5.0025 0 -2.2597500000000004 -0.10925000000000001 -3.903291666666667 -0.2232916666666667 -5.0025 -0.11691666666666667 -1.12125 -0.83375 -2.051791666666667 -1.85725 -2.5223333333333335C38.921749999999996 22.644458333333336 35.19191666666667 21.083333333333336 33.0625 21.083333333333336c-2.1275000000000004 0 -5.858291666666667 1.5620833333333333 -7.982916666666667 2.537666666666667 -1.0225416666666667 0.46958333333333335 -1.7393750000000001 1.4020416666666669 -1.856291666666667 2.5223333333333335 -0.11404166666666667 1.0992083333333333 -0.2232916666666667 2.74275 -0.2232916666666667 5.0025 0 2.2597500000000004 0.10925000000000001 3.903291666666667 0.2232916666666667 5.0025Z" stroke-width="2"></path><path id="Rectangle 1097_3" stroke="#000" stroke-linejoin="round" d="M23 25.108333333333334s8.030833333333334 4.025 10.0625 4.025c2.0316666666666667 0 10.0625 -4.025 10.0625 -4.025" stroke-width="2"></path><path id="Vector 1655_3" stroke="#000" stroke-linecap="round" stroke-linejoin="round" d="M33.0625 29.133333333333333V41.208333333333336" stroke-width="2"></path></g></svg>