<svg xmlns="http://www.w3.org/2000/svg" fill="none" viewBox="-1 -1 48 48" height="48" width="48"><g id="page-setting--page-setting-square-triangle-circle-line-combination-variation"><path id="Ellipse 19" stroke="#000" stroke-linecap="round" stroke-linejoin="round" d="M20.125 34.5a8.625 8.625 0 1 1 -17.25 0 8.625 8.625 0 0 1 17.25 0Z" stroke-width="2"></path><path id="Rectangle 125" stroke="#000" stroke-linecap="round" stroke-linejoin="round" d="M19.995625 6.322125000000001c-0.09966666666666667 -1.6512083333333334 -1.1739583333333334 -2.9305833333333333 -2.814625 -3.143333333333333C15.914083333333336 3.0120416666666667 14.083666666666668 2.875 11.5 2.875c-2.583666666666667 0 -4.414083333333333 0.13799999999999998 -5.681 0.30283333333333334 -1.6397083333333335 0.21466666666666667 -2.7149583333333336 1.4930833333333335 -2.814625 3.1442916666666667C2.9325 7.50375 2.875 9.174125 2.875 11.5c0 2.325875 0.0575 3.9962500000000003 0.12937500000000002 5.177875 0.09966666666666667 1.6512083333333334 1.1749166666666666 2.9305833333333333 2.814625 3.143333333333333C7.085916666666667 19.987958333333335 8.916333333333334 20.125 11.5 20.125c2.583666666666667 0 4.414083333333333 -0.13799999999999998 5.681 -0.30283333333333334 1.6406666666666667 -0.21466666666666667 2.7149583333333336 -1.4930833333333335 2.814625 -3.1442916666666667C20.067500000000003 15.496250000000002 20.125 13.825875 20.125 11.5c0 -2.325875 -0.0575 -3.9962500000000003 -0.12937500000000002 -5.177875Z" stroke-width="2"></path><path id="Vector" stroke="#000" stroke-linecap="round" stroke-linejoin="round" d="M34.48658333333333 19.645833333333336c2.6804583333333336 0 5.014958333333333 -0.23479166666666668 6.716 -0.47820833333333335 1.612875 -0.23 2.53575 -1.8285 1.929125 -3.3407500000000003a47.909 47.909 0 0 0 -2.943041666666667 -6.05475 47.835208333333334 47.835208333333334 0 0 0 -3.773916666666667 -5.577500000000001c-1.00625 -1.2812916666666667 -2.8510416666666667 -1.2812916666666667 -3.8572916666666672 0a47.89654166666667 47.89654166666667 0 0 0 -3.7720000000000002 5.577500000000001 47.868750000000006 47.868750000000006 0 0 0 -2.9440000000000004 6.05475c-0.6056666666666667 1.51225 0.31625000000000003 3.11075 1.929125 3.3407500000000003 1.7010416666666666 0.24341666666666667 4.0365 0.47820833333333335 6.716 0.47820833333333335Z" stroke-width="2"></path><path id="Vector 2536" stroke="#000" stroke-linecap="round" stroke-linejoin="round" d="M26.833333333333336 34.5h16.291666666666668" stroke-width="2"></path><path id="Vector 2537" stroke="#000" stroke-linecap="round" stroke-linejoin="round" d="M26.833333333333336 27.791666666666668h16.291666666666668" stroke-width="2"></path><path id="Vector 2538" stroke="#000" stroke-linecap="round" stroke-linejoin="round" d="M26.833333333333336 41.208333333333336h16.291666666666668" stroke-width="2"></path></g></svg>