<svg xmlns="http://www.w3.org/2000/svg" fill="none" viewBox="-1 -1 48 48" height="48" width="48"><g id="link-chain--create-hyperlink-link-make-unlink-connection-chain"><path id="Rectangle 1672" stroke="#000" stroke-linecap="round" stroke-linejoin="round" d="M14.462208333333333 31.580916666666667a5.043708333333333 5.043708333333333 0 0 1 0 -7.132875l9.985833333333334 -9.985833333333334a5.043708333333333 5.043708333333333 0 0 1 7.1338333333333335 7.132875l-9.985833333333334 9.985833333333334a5.043708333333333 5.043708333333333 0 0 1 -7.1338333333333335 0Z" stroke-width="2"></path><path id="Union" stroke="#000" stroke-linecap="round" stroke-linejoin="round" d="M7.328375 38.71475c-5.909083333333334 -5.909083333333334 -5.909083333333334 -15.490500000000003 0 -21.399583333333332l2.28275 -2.28275a3.8333333333333335 3.8333333333333335 0 0 1 5.421291666666667 0l1.7115833333333335 1.7125416666666666a3.8333333333333335 3.8333333333333335 0 0 1 0 5.421291666666667l-2.28275 2.28275a5.043708333333333 5.043708333333333 0 0 0 7.1338333333333335 7.132875l2.28275 -2.28275a3.8333333333333335 3.8333333333333335 0 0 1 5.421291666666667 0l1.7115833333333335 1.7115833333333335a3.8333333333333335 3.8333333333333335 0 0 1 0 5.421291666666667l-2.28275 2.28275c-5.909083333333334 5.909083333333334 -15.490500000000003 5.909083333333334 -21.399583333333332 0Z" stroke-width="2"></path><path id="Union_2" stroke="#000" stroke-linecap="round" stroke-linejoin="round" d="M38.71570833333334 7.3293333333333335c-5.910041666666666 -5.909083333333334 -15.490500000000003 -5.909083333333334 -21.399583333333332 0l-2.28275 2.28275a3.8333333333333335 3.8333333333333335 0 0 0 0 5.421291666666667l1.7115833333333335 1.7115833333333335a3.8333333333333335 3.8333333333333335 0 0 0 5.421291666666667 0l2.28275 -2.2817916666666664a5.043708333333333 5.043708333333333 0 0 1 7.132875 7.132875l-2.28275 2.28275a3.8333333333333335 3.8333333333333335 0 0 0 0 5.421291666666667l1.7125416666666666 1.7115833333333335a3.8333333333333335 3.8333333333333335 0 0 0 5.421291666666667 0l2.28275 -2.28275c5.909083333333334 -5.909083333333334 5.909083333333334 -15.490500000000003 0 -21.399583333333332Z" stroke-width="2"></path></g></svg>