<svg xmlns="http://www.w3.org/2000/svg" fill="none" viewBox="-1 -1 48 48" height="48" width="48"><g id="arrow-roadmap"><path id="Vector 994" stroke="#000" stroke-linecap="round" stroke-linejoin="round" d="M2.875 7.666666666666667h6.708333333333334m23.958333333333336 15.333333333333334a7.666666666666667 7.666666666666667 0 1 0 0 -15.333333333333334H19.166666666666668m-6.708333333333334 30.666666666666668a7.666666666666667 7.666666666666667 0 1 1 0 -15.333333333333334h11.5m-1.9166666666666667 15.333333333333334h11.5" stroke-width="2"></path><path id="Ellipse 437" stroke="#000" stroke-linecap="round" stroke-linejoin="round" d="M9.583333333333334 7.666666666666667a4.791666666666667 4.791666666666667 0 1 0 9.583333333333334 0 4.791666666666667 4.791666666666667 0 1 0 -9.583333333333334 0" stroke-width="2"></path><path id="Ellipse 439" stroke="#000" stroke-linecap="round" stroke-linejoin="round" d="M12.458333333333334 38.333333333333336a4.791666666666667 4.791666666666667 0 1 0 9.583333333333334 0 4.791666666666667 4.791666666666667 0 1 0 -9.583333333333334 0" stroke-width="2"></path><path id="Ellipse 438" stroke="#000" stroke-linecap="round" stroke-linejoin="round" d="M23.958333333333336 23a4.791666666666667 4.791666666666667 0 1 0 9.583333333333334 0 4.791666666666667 4.791666666666667 0 1 0 -9.583333333333334 0" stroke-width="2"></path><path id="Rectangle 128" stroke="#000" stroke-linecap="round" stroke-linejoin="round" d="M33.799458333333334 42.55766666666667c0.07666666666666667 0.47341666666666665 0.5318750000000001 0.6967083333333334 0.974625 0.5127083333333334 0.7829583333333333 -0.3239166666666667 2.178291666666667 -0.9554583333333334 4.292375 -2.0968333333333335 1.4154583333333335 -0.76475 2.347916666666667 -1.3761666666666668 2.9564583333333334 -1.8361666666666667 0.7599583333333334 -0.5730833333333333 0.7609166666666667 -1.5045833333333334 0 -2.078625 -0.6085416666666666 -0.46 -1.5410000000000001 -1.071416666666667 -2.9564583333333334 -1.8352083333333333 -2.1140833333333333 -1.1404166666666666 -3.5094166666666666 -1.772916666666667 -4.292375 -2.0968333333333335 -0.44275000000000003 -0.18400000000000002 -0.8970000000000001 0.03929166666666667 -0.974625 0.5127083333333334 -0.12266666666666667 0.7436666666666667 -0.2577916666666667 2.09875 -0.2577916666666667 4.459124999999999 0 2.3603750000000003 0.135125 3.7154583333333333 0.2577916666666667 4.459124999999999Z" stroke-width="2"></path></g></svg>