<svg xmlns="http://www.w3.org/2000/svg" fill="none" viewBox="-1 -1 48 48" height="48" width="48"><g id="stamp--design-rubber-stamp-supplies-tool"><path id="Union" stroke="#000" stroke-linecap="round" stroke-linejoin="round" d="M16.291666666666668 24.916666666666668c-3.426041666666667 0.8414166666666667 -7.11275 2.01825 -9.569916666666668 2.8462500000000004 -1.7863333333333336 0.600875 -3.1375833333333336 2.0738333333333334 -3.435625 3.9349166666666666a35.97870833333334 35.97870833333334 0 0 0 -0.23095833333333332 1.6972083333333332c-0.19645833333333332 1.7633333333333334 1.0541666666666667 3.2487500000000002 2.8203750000000003 3.4126250000000002 2.8510416666666667 0.26545833333333335 8.0845 0.5673333333333334 17.12541666666667 0.5673333333333334 9.039958333333333 0 14.273416666666668 -0.301875 17.124458333333333 -0.5673333333333334 1.7671666666666668 -0.16387500000000002 3.0168333333333335 -1.6483333333333334 2.8203750000000003 -3.4126250000000002a36.06879166666667 36.06879166666667 0 0 0 -0.23 -1.6972083333333332c-0.299 -1.8610833333333334 -1.65025 -3.335 -3.4365833333333335 -3.9358750000000002 -2.4562083333333335 -0.8270416666666667 -6.142916666666667 -2.0029166666666667 -9.569916666666668 -2.8452916666666668H16.291666666666668Z" stroke-width="2"></path><path id="Subtract" stroke="#000" stroke-linecap="round" stroke-linejoin="round" d="M5.906208333333334 36.80958333333333c-0.02875 0.41400000000000003 -0.050791666666666666 0.8260833333333334 -0.06995833333333333 1.2352916666666667a4.359458333333333 4.359458333333333 0 0 0 4.010625 4.564541666666667c2.954541666666667 0.2510833333333334 7.427083333333334 0.5155833333333334 13.153125 0.5155833333333334 5.727 0 10.198583333333334 -0.2645 13.153125 -0.5155833333333334a4.359458333333333 4.359458333333333 0 0 0 4.010625 -4.564541666666667c-0.01916666666666667 -0.40920833333333334 -0.042166666666666665 -0.8212916666666666 -0.06899999999999999 -1.2343333333333335" stroke-width="2"></path><path id="Union_2" stroke="#000" stroke-linecap="round" stroke-linejoin="round" d="M29.628791666666668 24.916666666666668c0.4101666666666667 -3.6359166666666667 1.003375 -8.726583333333334 1.6262916666666667 -16.268666666666668 0.227125 -2.7542500000000003 -1.5716666666666665 -5.26125 -4.320166666666667 -5.556416666666667A37.033833333333334 37.033833333333334 0 0 0 23 2.875c-1.4212083333333334 0 -2.757125 0.09008333333333333 -3.9349166666666666 0.21658333333333335 -2.7475416666666668 0.2951666666666667 -4.547291666666667 2.802166666666667 -4.319208333333333 5.556416666666667 0.6229166666666667 7.542083333333334 1.2151666666666667 12.633708333333333 1.6253333333333333 16.268666666666668" stroke-width="2"></path></g></svg>