<svg xmlns="http://www.w3.org/2000/svg" fill="none" viewBox="-1 -1 48 48" height="48" width="48"><g id="heater--travel-hotel-heater"><path id="Rectangle 1096" stroke="#000" stroke-linecap="round" stroke-linejoin="round" d="M38.24804166666667 19.481958333333335c2.3670833333333334 0.11691666666666667 4.2895 1.7757916666666667 4.532916666666667 4.132333333333333 0.186875 1.8131666666666666 0.3440416666666667 4.298125000000001 0.3440416666666667 7.531541666666667 0 3.233416666666667 -0.15716666666666668 5.718375 -0.3440416666666667 7.531541666666667 -0.24341666666666667 2.3575 -2.165833333333333 4.015416666666667 -4.532916666666667 4.132333333333333C35.166041666666665 42.96208333333333 30.180791666666668 43.125 23 43.125s-12.166041666666667 -0.16291666666666668 -15.248041666666667 -0.3152916666666667c-2.3670833333333334 -0.11691666666666667 -4.2895 -1.7757916666666667 -4.532916666666667 -4.132333333333333C3.032166666666667 36.86420833333333 2.875 34.379250000000006 2.875 31.145833333333336c0 -3.233416666666667 0.15716666666666668 -5.718375 0.3440416666666667 -7.531541666666667 0.24341666666666667 -2.3575 2.165833333333333 -4.015416666666667 4.532916666666667 -4.132333333333333C10.833958333333333 19.329583333333336 15.819208333333336 19.166666666666668 23 19.166666666666668s12.166041666666667 0.16291666666666668 15.248041666666667 0.3152916666666667Z" stroke-width="2"></path><path id="Rectangle 1097" stroke="#000" stroke-linecap="round" stroke-linejoin="round" d="M35.405625 24.940625c1.1289166666666666 0.06229166666666667 1.8812083333333334 0.9966666666666667 1.9157083333333336 2.1275000000000004 0.02875 0.9545 0.05366666666666667 2.2980833333333335 0.05366666666666667 4.077708333333334a136.75416666666666 136.75416666666666 0 0 1 -0.05366666666666667 4.077708333333334c-0.034499999999999996 1.1308333333333334 -0.7867916666666667 2.065208333333333 -1.9166666666666667 2.1275000000000004a16.352041666666665 16.352041666666665 0 0 1 -1.8102916666666669 0c-1.1289166666666666 -0.06229166666666667 -1.8812083333333334 -0.9966666666666667 -1.9157083333333336 -2.1275000000000004A136.75416666666666 136.75416666666666 0 0 1 31.625 31.145833333333336c0 -1.779625 0.024916666666666667 -3.1232083333333334 0.05366666666666667 -4.077708333333334 0.034499999999999996 -1.1308333333333334 0.7867916666666667 -2.065208333333333 1.9166666666666667 -2.1275000000000004a16.352041666666665 16.352041666666665 0 0 1 1.8102916666666669 0Z" stroke-width="2"></path><path id="Rectangle 1098" stroke="#000" stroke-linecap="round" stroke-linejoin="round" d="M23.905625 24.940625c1.1289166666666666 0.06229166666666667 1.8812083333333334 0.9966666666666667 1.9157083333333336 2.1275000000000004 0.02875 0.9545 0.05366666666666667 2.2980833333333335 0.05366666666666667 4.077708333333334a136.75416666666666 136.75416666666666 0 0 1 -0.05366666666666667 4.077708333333334c-0.034499999999999996 1.1308333333333334 -0.7867916666666667 2.065208333333333 -1.9166666666666667 2.1275000000000004a16.352041666666665 16.352041666666665 0 0 1 -1.8102916666666669 0c-1.1289166666666666 -0.06229166666666667 -1.8812083333333334 -0.9966666666666667 -1.9157083333333336 -2.1275000000000004A136.75416666666666 136.75416666666666 0 0 1 20.125 31.145833333333336c0 -1.779625 0.024916666666666667 -3.1232083333333334 0.05366666666666667 -4.077708333333334 0.034499999999999996 -1.1308333333333334 0.7867916666666667 -2.065208333333333 1.9166666666666667 -2.1275000000000004a16.352041666666665 16.352041666666665 0 0 1 1.8102916666666669 0Z" stroke-width="2"></path><path id="Vector" stroke="#000" stroke-linecap="round" stroke-linejoin="round" d="M23 2.875c-1.2007916666666667 1.5879583333333334 -1.3522083333333335 3.538166666666667 0 5.75s1.2007916666666667 4.162041666666667 0 5.75" stroke-width="2"></path><path id="Vector_2" stroke="#000" stroke-linecap="round" stroke-linejoin="round" d="M13.416666666666668 2.875c-1.2007916666666667 1.5879583333333334 -1.3522083333333335 3.538166666666667 0 5.75s1.2007916666666667 4.162041666666667 0 5.75" stroke-width="2"></path><path id="Vector_3" stroke="#000" stroke-linecap="round" stroke-linejoin="round" d="M32.583333333333336 2.875c-1.2007916666666667 1.5879583333333334 -1.3522083333333335 3.538166666666667 0 5.75s1.2007916666666667 4.162041666666667 0 5.75" stroke-width="2"></path><path id="Ellipse 541" stroke="#000" stroke-linecap="round" stroke-linejoin="round" d="M14.375 27.791666666666668a2.875 2.875 0 1 1 -5.75 0 2.875 2.875 0 0 1 5.75 0Z" stroke-width="2"></path></g></svg>