<svg xmlns="http://www.w3.org/2000/svg" fill="none" viewBox="-1 -1 48 48" height="48" width="48"><g id="play-list-1--screen-television-display-player-movies-movie-tv-media-players-video-entertainment"><path id="Rectangle 1104" stroke="#000" stroke-linecap="round" stroke-linejoin="round" d="M3.391541666666667 7.912958333333333c0.19933333333333333 -2.448541666666667 2.072875 -4.3220833333333335 4.521416666666667 -4.521416666666667C11.006458333333333 3.1404583333333336 15.942833333333333 2.875 23 2.875c7.057166666666667 0 11.993541666666667 0.26545833333333335 15.087041666666668 0.5165416666666667 2.448541666666667 0.19933333333333333 4.3220833333333335 2.072875 4.521416666666667 4.521416666666667C42.859541666666665 11.006458333333333 43.125 15.942833333333333 43.125 23c0 7.057166666666667 -0.26545833333333335 11.993541666666667 -0.5165416666666667 15.087041666666668 -0.19933333333333333 2.448541666666667 -2.072875 4.3220833333333335 -4.521416666666667 4.521416666666667C34.993541666666665 42.859541666666665 30.057166666666667 43.125 23 43.125c-7.057166666666667 0 -11.993541666666667 -0.26545833333333335 -15.087041666666668 -0.5165416666666667 -2.448541666666667 -0.19933333333333333 -4.3220833333333335 -2.072875 -4.521416666666667 -4.521416666666667C3.1404583333333336 34.993541666666665 2.875 30.057166666666667 2.875 23c0 -7.057166666666667 0.26545833333333335 -11.993541666666667 0.5165416666666667 -15.087041666666668Z" stroke-width="2"></path><path id="Rectangle 128" stroke="#000" stroke-linecap="round" stroke-linejoin="round" d="M16.629958333333335 22.87925c0.23958333333333334 -1.6579166666666667 1.7010416666666666 -2.6009166666666665 3.263125 -1.9971666666666668 1.0963333333333334 0.4245416666666667 2.5740833333333333 1.0857916666666667 4.516625 2.117916666666667 1.85725 0.9870833333333334 3.289 1.860125 4.37 2.582708333333333 1.68475 1.1260416666666668 1.68475 3.291875 0 4.417916666666667 -1.081 0.7225833333333334 -2.51275 1.595625 -4.37 2.582708333333333 -1.9425416666666668 1.032125 -3.420291666666667 1.693375 -4.516625 2.117916666666667 -1.5620833333333333 0.60375 -3.0235416666666666 -0.33925 -3.263125 -1.9971666666666668A34.492333333333335 34.492333333333335 0 0 1 16.291666666666668 27.791666666666668c0 -1.9914166666666666 0.15620833333333334 -3.65125 0.33829166666666666 -4.912416666666667Z" stroke-width="2"></path><path id="Intersect" stroke="#000" stroke-linecap="round" stroke-linejoin="round" d="M42.93908333333333 13.416666666666668H3.0628333333333337" stroke-width="2"></path><path id="Vector 167" stroke="#000" stroke-linecap="round" stroke-linejoin="round" d="m19.443625 3.01875 -7.674333333333333 10.232125" stroke-width="2"></path><path id="Vector 168" stroke="#000" stroke-linecap="round" stroke-linejoin="round" d="m35.187125 3.2372500000000004 -7.5248333333333335 10.032791666666666" stroke-width="2"></path></g></svg>