<svg xmlns="http://www.w3.org/2000/svg" fill="none" viewBox="-1 -1 48 48" height="48" width="48"><g id="share-lock--give-hand-lock-padlock-secure-security-transfer"><path id="Union" stroke="#000" stroke-linecap="round" stroke-linejoin="round" d="M2.875 26.4155S8.625 23.958333333333336 13.416666666666668 23.958333333333336c3.380041666666667 0 7.091666666666668 1.3589166666666666 9.577583333333333 2.4792083333333337 1.9070833333333335 0.8586666666666667 3.004375 1.4010833333333335 3.4404166666666667 3.447125 0.3037916666666667 1.4212083333333334 -0.7168333333333333 3.7902083333333336 -2.165833333333333 3.907125l-1.020625 0.08241666666666667m0 0c-2.34025 0 -5.962750000000001 -0.6938333333333333 -5.962750000000001 -0.6938333333333333m5.962750000000001 0.6938333333333333c3.2458750000000003 0 11.790375000000001 -1.5419583333333333 14.818708333333333 -2.1083333333333334 0.7225833333333334 -0.13416666666666668 1.4710416666666666 -0.232875 2.1581666666666663 0.025875000000000002 0.8644166666666667 0.3267916666666667 2.024 1.1155 2.577916666666667 3.01875 0.4331666666666667 1.4873333333333334 -0.6066250000000001 2.918125 -2.0508333333333337 3.4768333333333334C36.516333333333336 39.92608333333333 27.683375 43.125 23.248208333333334 43.125 11.5 43.125 2.875 40.176208333333335 2.875 40.176208333333335" stroke-width="2"></path><path id="Vector" stroke="#000" stroke-linecap="round" stroke-linejoin="round" d="M26.89466666666667 13.637083333333335c0.08816666666666667 -1.6751666666666667 1.267875 -2.83475 2.941125 -2.9507083333333335C31.008791666666667 10.605875000000001 32.66670833333334 10.541666666666668 34.97916666666667 10.541666666666668c2.446625 0 4.1515 0.071875 5.321625 0.15908333333333335 1.5304583333333335 0.115 2.6287083333333334 1.152875 2.736041666666667 2.683333333333333 0.051750000000000004 0.7379166666666667 0.08816666666666667 1.6885833333333333 0.08816666666666667 2.907583333333333a41.85041666666667 41.85041666666667 0 0 1 -0.08816666666666667 2.906625c-0.10733333333333334 1.5314166666666669 -1.2055833333333335 2.569291666666667 -2.736041666666667 2.683333333333333 -1.1691666666666667 0.08816666666666667 -2.875 0.1600416666666667 -5.321625 0.1600416666666667s-4.1515 -0.071875 -5.321625 -0.15908333333333335c-1.5304583333333335 -0.115 -2.6287083333333334 -1.152875 -2.736041666666667 -2.683333333333333A41.755541666666666 41.755541666666666 0 0 1 26.833333333333336 16.291666666666668c0 -1.0848333333333333 0.024916666666666667 -1.9569166666666666 0.06133333333333334 -2.6545833333333335Z" stroke-width="2"></path><path id="Vector_2" stroke="#000" stroke-linecap="round" stroke-linejoin="round" d="M34.97916666666667 15.333333333333334v1.9166666666666667" stroke-width="2"></path><path id="Vector_3" stroke="#000" stroke-linecap="round" stroke-linejoin="round" d="m39.29166666666667 10.541666666666668 -0.17441666666666666 -3.7183333333333333a4.142875000000001 4.142875000000001 0 0 0 -8.276166666666667 0L30.666666666666668 10.541666666666668" stroke-width="2"></path></g></svg>