<svg xmlns="http://www.w3.org/2000/svg" fill="none" viewBox="-1 -1 48 48" height="48" width="48"><g id="half-star-2--reward-rating-rate-social-star-media-favorite-like-stars-half"><path id="Intersect" stroke="#000" stroke-linecap="round" stroke-linejoin="round" d="M23 2.875v35.342375l-9.269 4.597125c-2.1505 1.066625 -4.584666666666666 -0.76475 -4.279916666666667 -3.22l1.3234583333333334 -10.658583333333334 -7.080166666666667 -7.824791666666666c-1.62725 -1.7987916666666668 -0.6995833333333333 -4.75525 1.6349166666666668 -5.213333333333334l10.115208333333333 -1.9780000000000002 4.9105 -9.408916666666666C20.92425 3.420291666666667 21.962125000000004 2.875 23 2.875Z" stroke-width="2"></path><path id="Subtract" stroke="#000" stroke-dasharray="4 6" stroke-linecap="round" stroke-linejoin="round" d="M23 2.875c2.301916666666667 0 4.048958333333333 2.9832916666666667 5.382958333333334 5.960833333333333 1.4279166666666667 3.1893333333333334 4.2022916666666665 5.24975 7.663791666666667 5.736583333333333 3.1931666666666665 0.45041666666666663 6.459166666666667 1.3244166666666666 6.995833333333334 3.6838333333333333 0.520375 2.2837083333333332 -2.011541666666667 4.840541666666667 -4.531 7.019791666666667 -2.5300000000000002 2.186916666666667 -3.521875 5.344625 -2.7159166666666668 8.5905 0.8577083333333334 3.4519166666666665 1.495 7.311125 -0.5702083333333333 8.734250000000001 -1.5889166666666668 1.0944166666666666 -4.072916666666667 0.2510833333333334 -6.475458333333333 -1.00625 -2.2587916666666668 -1.1825833333333333 -4.446666666666666 -2.73125 -5.75 -3.3771666666666667" stroke-width="2"></path></g></svg>