<svg xmlns="http://www.w3.org/2000/svg" fill="none" viewBox="-1 -1 48 48" height="48" width="48"><g id="file-check-alternate--file-common-check"><path id="Subtract" stroke="#000" stroke-linecap="round" stroke-linejoin="round" d="M27.925833333333333 41.195875c4.905708333333333 -0.060375000000000005 8.378708333333334 -0.32966666666666666 10.645166666666668 -0.5884166666666667 2.1083333333333334 -0.24150000000000002 3.6895833333333337 -1.8237083333333335 3.9215 -3.933958333333334 0.30570833333333336 -2.7695833333333337 0.6325000000000001 -7.418458333333334 0.6325000000000001 -14.631833333333335 0 -2.7561666666666667 -0.04791666666666667 -5.137625 -0.12458333333333334 -7.183666666666667 -0.336375 -0.9410833333333334 -1.4854166666666668 -3.4193333333333333 -5.046583333333333 -6.909583333333334 -3.7767916666666665 -3.703 -6.392083333333334 -4.745666666666667 -7.205708333333334 -4.999625A155.0545 155.0545 0 0 0 25.875 2.875c-6.003 0 -10.125750000000002 0.3066666666666667 -12.696 0.600875 -2.109291666666667 0.24150000000000002 -3.6895833333333337 1.8237083333333335 -3.9215 3.933958333333334 -0.215625 1.94925 -0.44083333333333335 4.83 -0.5558333333333333 8.881833333333335" stroke-width="2"></path><path id="Intersect" stroke="#000" stroke-linecap="round" stroke-linejoin="round" d="M43.01383333333334 15.295000000000002c-2.0000416666666667 0.29708333333333337 -5.596666666666667 0.06899999999999999 -8.326 -0.18400000000000002a4.469666666666667 4.469666666666667 0 0 1 -4.051833333333334 -4.034583333333334c-0.2577916666666667 -2.6862083333333335 -0.485875 -6.1985 -0.17345833333333333 -8.135291666666667" stroke-width="2"></path><path id="Ellipse 18" stroke="#000" stroke-linecap="round" stroke-linejoin="round" d="M2.875 31.625a11.5 11.5 0 1 0 23 0 11.5 11.5 0 1 0 -23 0" stroke-width="2"></path><path id="Vector 972" stroke="#000" stroke-linecap="round" stroke-linejoin="round" d="m19.166666666666668 27.791666666666668 -5.636916666666666 7.666666666666667L9.583333333333334 30.985791666666668" stroke-width="2"></path></g></svg>