<svg xmlns="http://www.w3.org/2000/svg" fill="none" viewBox="-1 -1 48 48" height="48" width="48"><g id="information-circle--information-frame-info-more-help-point-circle"><path id="Ellipse 18" stroke="#000" stroke-linecap="round" stroke-linejoin="round" d="M23 2.875c11.11475 0 20.125 9.01025 20.125 20.125s-9.01025 20.125 -20.125 20.125S2.875 34.11475 2.875 23 11.88525 2.875 23 2.875Z" stroke-width="2"></path><path id="Union" stroke="#000" stroke-linecap="round" stroke-linejoin="round" d="M23.904666666666667 19.191583333333334c1.0905833333333332 0.06325 1.7882500000000001 0.9104166666666667 1.856291666666667 2.0010000000000003C25.82133333333333 22.175833333333333 25.875 23.667958333333335 25.875 25.875v4.8185c1.2170833333333333 0.025875000000000002 2.124625 0.06516666666666668 2.7906666666666666 0.10541666666666667 1.0484166666666668 0.06420833333333334 1.8898333333333335 0.7091666666666667 1.9674583333333333 1.7575833333333335 0.021083333333333332 0.28175 0.03354166666666667 0.6075833333333334 0.03354166666666667 0.9851666666666667s-0.012458333333333333 0.7034166666666667 -0.03354166666666667 0.9861249999999999c-0.07666666666666667 1.0465000000000002 -0.9190416666666666 1.6924166666666667 -1.9674583333333333 1.756625 -1.1116666666666666 0.06708333333333334 -2.8960833333333333 0.13225 -5.665666666666667 0.13225s-4.554958333333333 -0.06516666666666668 -5.665666666666667 -0.13225c-1.0484166666666668 -0.06420833333333334 -1.8898333333333335 -0.7091666666666667 -1.9674583333333333 -1.7575833333333335A13.425291666666668 13.425291666666668 0 0 1 15.333333333333334 33.54166666666667c0 -0.3775833333333334 0.012458333333333333 -0.7034166666666667 0.03354166666666667 -0.9861249999999999 0.07666666666666667 -1.0465000000000002 0.9190416666666666 -1.6924166666666667 1.9674583333333333 -1.756625a69.86058333333334 69.86058333333334 0 0 1 2.7906666666666666 -0.10541666666666667V25.875c0 -0.3373333333333333 0.0009583333333333334 -0.6574166666666668 0.0038333333333333336 -0.9621666666666667a30.801791666666666 30.801791666666666 0 0 1 -1.902291666666667 -0.031625c-1.1375416666666667 -0.06325 -1.8975 -0.9017916666666667 -1.9262499999999998 -2.04125a31.95179166666667 31.95179166666667 0 0 1 0 -1.5975416666666669c0.02875 -1.1385 0.7887083333333333 -1.9770416666666668 1.9262499999999998 -2.0402916666666666 0.3900416666666667 -0.021083333333333332 0.8586666666666667 -0.035458333333333335 1.4192916666666668 -0.035458333333333335H23c0.3411666666666667 0 0.6420833333333335 0.009583333333333334 0.9046666666666666 0.024916666666666667Z" stroke-width="2"></path><path id="Ellipse 67" stroke="#000" stroke-linecap="round" stroke-linejoin="round" d="M19.645833333333336 11.979166666666668a3.354166666666667 3.354166666666667 0 1 0 6.708333333333334 0 3.354166666666667 3.354166666666667 0 1 0 -6.708333333333334 0" stroke-width="2"></path></g></svg>