<svg xmlns="http://www.w3.org/2000/svg" fill="none" viewBox="-1 -1 48 48" height="48" width="48"><g id="alien--science-extraterristerial-life-form-space-universe-head-astronomy"><path id="Ellipse 18" stroke="#000" stroke-linejoin="round" d="M23 43.125C13.416666666666668 43.125 2.875 32.47025 2.875 18.763208333333335 2.875 15.888208333333335 2.875 2.875 23 2.875s20.125 13.013208333333335 20.125 15.888208333333335C43.125 32.47025 32.583333333333336 43.125 23 43.125Z" stroke-width="2"></path><path id="Ellipse 19" stroke="#000" stroke-linecap="round" stroke-linejoin="round" d="M28.75 32.583333333333336s-1.9166666666666667 2.875 -5.75 2.875 -5.75 -2.875 -5.75 -2.875" stroke-width="2"></path><path id="Intersect" stroke="#000" stroke-linejoin="round" d="M20.604166666666668 23.450416666666666c0 0.7915833333333333 -0.6190833333333334 1.4365416666666668 -1.40875 1.4585833333333333 -0.18016666666666667 0.004791666666666667 -0.3641666666666667 0.007666666666666667 -0.5500833333333333 0.007666666666666667C8.145833333333334 24.916666666666668 8.145833333333334 16.698 8.145833333333334 14.882916666666667c0 -0.7915833333333333 0.6190833333333334 -1.4365416666666668 1.40875 -1.4585833333333333 0.18016666666666667 -0.004791666666666667 0.3641666666666667 -0.007666666666666667 0.549125 -0.007666666666666667C20.604166666666668 13.416666666666668 20.604166666666668 21.635333333333335 20.604166666666668 23.450416666666666Z" stroke-width="2"></path><path id="Intersect_2" stroke="#000" stroke-linejoin="round" d="M25.395833333333336 23.450416666666666c0 0.7915833333333333 0.6190833333333334 1.4365416666666668 1.40875 1.4585833333333333 0.18016666666666667 0.004791666666666667 0.3641666666666667 0.007666666666666667 0.5500833333333333 0.007666666666666667C37.85416666666667 24.916666666666668 37.85416666666667 16.698 37.85416666666667 14.882916666666667c0 -0.7915833333333333 -0.6190833333333334 -1.4365416666666668 -1.40875 -1.4585833333333333a19.446500000000004 19.446500000000004 0 0 0 -0.5500833333333333 -0.007666666666666667C25.395833333333336 13.416666666666668 25.395833333333336 21.635333333333335 25.395833333333336 23.450416666666666Z" stroke-width="2"></path></g></svg>