<svg xmlns="http://www.w3.org/2000/svg" fill="none" viewBox="-1 -1 48 48" height="48" width="48"><g id="paintbrush-2--brush-color-colors-design-paint-painting"><path id="Vector 112" stroke="#000" stroke-linecap="round" stroke-linejoin="round" d="m42.71004166666667 12.487083333333333 -8.228250000000001 13.068791666666668c-0.6114166666666667 0.9698333333333334 -1.495 1.7384166666666667 -2.5645000000000002 2.1514583333333337C29.87316666666667 28.496041666666667 26.345541666666666 29.708333333333336 23.958333333333336 29.708333333333336c0 0 0.21083333333333334 -2.6641666666666666 -2.3958333333333335 -5.270833333333334S16.291666666666668 22.041666666666668 16.291666666666668 22.041666666666668c0 -2.4341666666666666 1.3100416666666668 -5.98575 2.1380416666666666 -7.987708333333335 0.4149583333333333 -1.0024166666666667 1.1480833333333333 -1.8313750000000002 2.0623333333333336 -2.415L33.54166666666667 3.3033750000000004c0.29708333333333337 -0.19070833333333334 0.6104583333333333 -0.35458333333333336 0.9525833333333333 -0.4417916666666667 1.1576666666666666 -0.29420833333333335 4.099749999999999 -0.6832916666666666 6.719833333333333 1.9358333333333335 2.635416666666667 2.635416666666667 2.218541666666667 5.61775 1.9214583333333333 6.76775a3.3158333333333334 3.3158333333333334 0 0 1 -0.42550000000000004 0.9219166666666667Z" stroke-width="2"></path><path id="Subtract" stroke="#000" stroke-linecap="round" stroke-linejoin="round" d="M16.291666666666668 22.041666666666668C4.6306666666666665 22.041666666666668 4.2147499999999996 29.405500000000004 3.900416666666667 34.96670833333334c-0.089125 1.5649583333333335 -0.169625 2.986166666666667 -0.48970833333333336 4.061416666666667 -0.043125 0.14279166666666668 -0.09008333333333333 0.28654166666666664 -0.13799999999999998 0.4302916666666667 -0.21370833333333333 0.6516666666666667 -0.43125 1.3138750000000001 -0.23958333333333334 1.96075C3.3733333333333335 42.56916666666667 4.280875 43.125 5.887041666666667 43.125 16.793833333333335 43.125 23.899875 41.22366666666667 23.958333333333336 29.37675" stroke-width="2"></path><path id="Intersect" stroke="#000" stroke-linecap="round" stroke-linejoin="round" d="M33.505250000000004 26.722166666666666c-0.15812500000000002 -1.814125 -0.9650416666666666 -5.671416666666667 -4.761 -9.467375 -3.6886250000000005 -3.6886250000000005 -7.43475 -4.554958333333333 -9.308291666666666 -4.745666666666667" stroke-width="2"></path></g></svg>