<svg xmlns="http://www.w3.org/2000/svg" fill="none" viewBox="-1 -1 48 48" height="48" width="48"><g id="street-sign--crossroad-street-sign-metaphor-directions-travel-places"><path id="Vector 705" stroke="#000" stroke-linecap="round" stroke-linejoin="round" d="m25.395833333333336 28.75 6.331708333333334 0c1.8534166666666667 0 3.549666666666667 -0.058458333333333334 4.644083333333334 -0.10829166666666667 0.8232083333333333 -0.037375 1.6061666666666667 -0.35075 2.1830833333333333 -0.9382083333333333 0.9736666666666667 -0.9899583333333333 2.5453333333333337 -2.775333333333333 3.8237500000000004 -5.107916666666667a3.143333333333333 3.143333333333333 0 0 0 0 -3.0235416666666666c-1.2784166666666668 -2.3325833333333335 -2.849125 -4.118916666666667 -3.8237500000000004 -5.108875 -0.5769166666666666 -0.5874583333333333 -1.3598750000000002 -0.9008333333333333 -2.1830833333333333 -0.9391666666666667A105.94183333333334 105.94183333333334 0 0 0 31.727541666666667 13.416666666666668L25.395833333333336 13.416666666666668" stroke-width="2"></path><path id="Vector 1617" stroke="#000" stroke-linecap="round" stroke-linejoin="round" d="M35.458333333333336 18.6875h-5.270833333333334" stroke-width="2"></path><path id="Vector 1618" stroke="#000" stroke-linecap="round" stroke-linejoin="round" d="m32.583333333333336 23.479166666666668 -2.875 0" stroke-width="2"></path><path id="Rectangle 1674" stroke="#000" stroke-linecap="round" stroke-linejoin="round" d="m20.604166666666668 43.125 0 -20.604166666666668c0 -10.874208333333334 0.09200000000000001 -15.618916666666665 0.16291666666666668 -17.653458333333333 0.03258333333333334 -0.9650416666666666 0.5002500000000001 -1.8390416666666667 1.4585833333333333 -1.9502083333333335 0.22425000000000003 -0.026833333333333334 0.48108333333333336 -0.042166666666666665 0.7743333333333334 -0.042166666666666665 0.29325 0 0.5500833333333333 0.015333333333333334 0.7743333333333334 0.042166666666666665 0.9583333333333334 0.11116666666666668 1.426 0.9851666666666667 1.4595416666666667 1.9502083333333335 0.06995833333333333 2.034541666666667 0.16195833333333334 6.77925 0.16195833333333334 17.653458333333333l0 20.604166666666668" stroke-width="2"></path><path id="Vector 705_2" stroke="#000" stroke-linecap="round" stroke-linejoin="round" d="m20.604166666666668 18.208333333333336 -6.331708333333334 0c-1.8534166666666667 0 -3.549666666666667 -0.058458333333333334 -4.645041666666668 -0.10829166666666667 -0.82225 -0.037375 -1.6052083333333333 -0.35075 -2.1830833333333333 -0.9382083333333333 -0.9727083333333333 -0.9899583333333333 -2.544375 -2.7762916666666664 -3.8237500000000004 -5.107916666666667a3.143333333333333 3.143333333333333 0 0 1 0 -3.0235416666666666c1.279375 -2.3335416666666666 2.8510416666666667 -4.118916666666667 3.8237500000000004 -5.108875 0.577875 -0.5874583333333333 1.3608333333333333 -0.9008333333333333 2.184041666666667 -0.9391666666666667A109.89208333333335 109.89208333333335 0 0 1 14.272458333333335 2.875L23 2.875" stroke-width="2"></path><path id="Vector 1617_2" stroke="#000" stroke-linecap="round" stroke-linejoin="round" d="M10.541666666666668 8.145833333333334h5.270833333333334" stroke-width="2"></path><path id="Vector 1618_2" stroke="#000" stroke-linecap="round" stroke-linejoin="round" d="m13.416666666666668 12.9375 2.875 0" stroke-width="2"></path><path id="Vector 1619" stroke="#000" stroke-linecap="round" stroke-linejoin="round" d="M14.375 43.125h17.25" stroke-width="2"></path></g></svg>