<svg xmlns="http://www.w3.org/2000/svg" fill="none" viewBox="-1 -1 48 48" height="48" width="48"><g id="stroller"><path id="Rectangle 1104" stroke="#000" stroke-linecap="round" stroke-linejoin="round" d="M43.125 16.291666666666668c0 -1.158625 -0.010541666666666666 -2.231 -0.02875 -3.220958333333334 -0.10829166666666667 -5.730833333333334 -4.435166666666667 -10.058666666666667 -10.166958333333334 -10.166A170.98583333333332 170.98583333333332 0 0 0 29.708333333333336 2.875s-0.9583333333333334 6.229166666666667 -0.9583333333333334 13.416666666666668" stroke-width="2"></path><path id="Intersect" stroke="#000" stroke-linecap="round" stroke-linejoin="round" d="M43.125 16.291666666666668c0 2.7858750000000003 -0.46479166666666666 5.437583333333334 -1.0072083333333333 7.587125 -0.8289583333333334 3.2803750000000003 -3.6004583333333335 5.440458333333333 -6.978583333333334 5.631166666666667C33.129583333333336 29.624 30.42516666666667 29.708333333333336 26.833333333333336 29.708333333333336s-6.296250000000001 -0.08433333333333333 -8.305875 -0.198375c-3.3781250000000003 -0.19166666666666668 -6.149625 -2.3507916666666664 -6.978583333333334 -5.631166666666667C11.006458333333333 21.72925 10.541666666666668 19.07754166666667 10.541666666666668 16.291666666666668l32.583333333333336 0Z" stroke-width="2"></path><path id="Ellipse 1505" stroke="#000" stroke-linecap="round" stroke-linejoin="round" d="M40.25 39.770833333333336a4.3125 4.3125 0 1 1 -8.625 0 4.3125 4.3125 0 0 1 8.625 0Z" stroke-width="2"></path><path id="Ellipse 1506" stroke="#000" stroke-linecap="round" stroke-linejoin="round" d="M13.416666666666668 39.770833333333336a4.3125 4.3125 0 1 0 8.625 0 4.3125 4.3125 0 0 0 -8.625 0Z" stroke-width="2"></path><path id="Vector 2687" stroke="#000" stroke-linecap="round" stroke-linejoin="round" d="M10.541666666666668 16.291666666666668A433.41583333333335 433.41583333333335 0 0 0 7.981958333333334 5.116541666666667c-0.198375 -0.8155416666666667 -0.7522916666666667 -1.4969166666666667 -1.564 -1.7135C5.464416666666667 3.1481250000000003 3.964625 2.875 1.9166666666666667 2.875" stroke-width="2"></path></g></svg>