<svg xmlns="http://www.w3.org/2000/svg" fill="none" viewBox="-1 -1 48 48" height="48" width="48"><g id="ampersand"><path id="Union" fill-rule="evenodd" stroke="#000" stroke-linecap="round" stroke-linejoin="round" d="M35.31458333333334 42.494416666666666c1.4633749999999999 0.8500416666666667 3.428916666666667 0.6200416666666667 4.590416666666667 -0.6315416666666667a4.3910833333333334 4.3910833333333334 0 0 0 1.0177500000000002 -1.6483333333333334c0.2836666666666667 -0.8069166666666666 -0.06133333333333334 -1.6694166666666668 -0.66125 -2.279875l-4.2022916666666665 -4.273208333333333C37.51491666666667 30.666666666666668 39.63666666666667 23 38.106208333333335 19.467583333333334c-0.8692083333333334 -1.3991666666666667 -2.774375 -1.40875 -4.417916666666667 -1.0302083333333334 -1.1135833333333334 0.2577916666666667 -1.77675 1.32825 -1.8208333333333333 2.4705833333333334 -0.09391666666666668 2.475375 -0.4025 4.992916666666667 -1.1432916666666668 7.328375l-6.9076666666666675 -7.068666666666667C26.76625 20.465208333333333 29.77254166666667 18.777583333333336 30.666666666666668 15.333333333333334c1.9166666666666667 -7.379166666666667 -2.97275 -12.458333333333334 -9.806625 -12.458333333333334 -5.506583333333334 0 -10.794666666666666 3.1481250000000003 -10.794666666666666 9.148249999999999 0 2.6641666666666666 1.1605416666666668 4.834791666666667 2.791625 6.876041666666667C7.982916666666667 20.882083333333334 4.791666666666667 25.055625 4.791666666666667 30.381083333333336 4.791666666666667 38.586333333333336 11.809541666666668 43.125 19.433083333333332 43.125c4.356583333333334 0 8.7055 -1.2544583333333332 11.973416666666667 -4.22625 1.1892916666666669 1.2094166666666668 2.370916666666667 2.8136666666666668 3.908083333333334 3.595666666666667ZM22.269750000000002 9.34375c-2.319166666666667 -0.5222916666666667 -4.5741249999999996 0.7599583333333334 -4.5741249999999996 3.498875 0 1.6550416666666667 0.8845416666666668 2.8270833333333334 1.9358333333333335 3.9943333333333335 0.2462916666666667 0 4.626833333333334 -0.2951666666666667 5.2804166666666665 -2.963166666666667 0.6555000000000001 -2.6679999999999997 -0.9334166666666667 -4.14575 -2.642125 -4.530041666666667Zm-2.4648333333333334 27.472541666666668c-4.087291666666666 0 -7.5066250000000005 -2.424583333333333 -7.5066250000000005 -6.7505 0 -2.8874583333333335 1.856291666666667 -5.382 4.590416666666667 -6.308708333333334l9.988708333333333 10.409416666666667a10.649958333333334 10.649958333333334 0 0 1 -7.0725 2.6497916666666668Z" clip-rule="evenodd" stroke-width="2"></path></g></svg>