<svg xmlns="http://www.w3.org/2000/svg" fill="none" viewBox="-1 -1 48 48" height="48" width="48"><g id="dark-dislay-mode"><path id="Ellipse 19" stroke="#000" stroke-linecap="round" stroke-linejoin="round" d="M23 43.125C11.88525 43.125 2.875 34.11475 2.875 23S11.88525 2.875 23 2.875s20.125 9.01025 20.125 20.125 -9.01025 20.125 -20.125 20.125Z" stroke-width="2"></path><path id="Subtract" stroke="#000" stroke-linecap="round" stroke-linejoin="round" d="M32.625499999999995 13.653375c0.6200416666666667 0.6382500000000001 -0.11020833333333334 1.6809166666666668 -0.9995416666666667 1.6809166666666668a7.666666666666667 7.666666666666667 0 1 0 0 15.333333333333334c0.8893333333333334 0 1.6195833333333334 1.0426666666666669 0.9995416666666667 1.6809166666666668A13.376416666666668 13.376416666666668 0 0 1 23 36.41666666666667c-7.409833333333334 0 -13.416666666666668 -6.006833333333334 -13.416666666666668 -13.416666666666668s6.006833333333334 -13.416666666666668 13.416666666666668 -13.416666666666668c3.7758333333333334 0 7.186541666666667 1.5592083333333333 9.624541666666666 4.069083333333334Z" stroke-width="2"></path></g></svg>