<svg xmlns="http://www.w3.org/2000/svg" fill="none" viewBox="-1 -1 48 48" height="48" width="48"><g id="signal-full--phone-mobile-device-signal-wireless-smartphone-iphone-bar-bars-full-android"><path id="Rectangle 1095" stroke="#000" stroke-linejoin="round" d="M33.713208333333334 40.272041666666674c0.03066666666666667 1.1969583333333336 0.6593333333333333 2.292333333333333 1.825625 2.5625833333333334 0.7024583333333333 0.16291666666666668 1.6262916666666667 0.290375 2.7945 0.290375 1.1682083333333335 0 2.092041666666667 -0.12841666666666668 2.7945 -0.290375 1.1662916666666667 -0.27025 1.7949583333333334 -1.365625 1.825625 -2.5625833333333334 0.06708333333333334 -2.6622500000000002 0.17154166666666668 -8.223458333333333 0.17154166666666668 -17.272041666666667s-0.10350000000000001 -14.609791666666666 -0.17154166666666668 -17.272041666666667c-0.03066666666666667 -1.1969583333333336 -0.6593333333333333 -2.292333333333333 -1.825625 -2.5625833333333334C40.425375 3.0024583333333337 39.50154166666667 2.875 38.333333333333336 2.875c-1.1682083333333335 0 -2.092041666666667 0.12841666666666668 -2.7945 0.290375 -1.1662916666666667 0.27025 -1.7949583333333334 1.365625 -1.825625 2.5625833333333334C33.646125000000005 8.390208333333334 33.54166666666667 13.951416666666667 33.54166666666667 23s0.10350000000000001 14.609791666666666 0.17154166666666668 17.272041666666667Z" stroke-width="2"></path><path id="Rectangle 1096" stroke="#000" stroke-linejoin="round" d="M18.356875000000002 40.23275c0.04025 1.3435833333333334 0.8356666666666667 2.5232916666666667 2.165833333333333 2.7216666666666667 0.6555000000000001 0.09870833333333333 1.4767916666666667 0.17058333333333334 2.477291666666667 0.17058333333333334s1.8217916666666667 -0.071875 2.47825 -0.169625c1.3292083333333333 -0.19933333333333333 2.124625 -1.3790416666666667 2.164875 -2.7216666666666667 0.06516666666666668 -2.2367500000000002 0.14854166666666668 -6.277083333333334 0.14854166666666668 -12.442041666666668 0 -6.164958333333334 -0.08337499999999999 -10.205291666666666 -0.14854166666666668 -12.441083333333333 -0.04025 -1.3435833333333334 -0.8356666666666667 -2.5232916666666667 -2.165833333333333 -2.7216666666666667A16.744000000000003 16.744000000000003 0 0 0 23 12.458333333333334c-1.0005000000000002 0 -1.8217916666666667 0.071875 -2.47825 0.169625 -1.3292083333333333 0.19933333333333333 -2.124625 1.3790416666666667 -2.164875 2.7216666666666667C18.291708333333332 17.587333333333333 18.208333333333336 21.62766666666667 18.208333333333336 27.791666666666668c0 6.164958333333334 0.08337499999999999 10.205291666666666 0.14854166666666668 12.441083333333333Z" stroke-width="2"></path><path id="Rectangle 1097" stroke="#000" stroke-linejoin="round" d="M2.964125 40.13404166666667c0.0575 1.5620833333333333 1.1375416666666667 2.8299583333333334 2.69675 2.9305833333333333 0.5654166666666667 0.03641666666666667 1.2324166666666667 0.060375000000000005 2.0057916666666666 0.060375000000000005 0.773375 0 1.4394166666666668 -0.023958333333333335 2.0057916666666666 -0.060375000000000005 1.5592083333333333 -0.100625 2.6402083333333333 -1.3685 2.69675 -2.9305833333333333C12.417125 38.8125 12.458333333333334 36.956208333333336 12.458333333333334 34.5c0 -2.4562083333333335 -0.04120833333333333 -4.3125 -0.089125 -5.634041666666667 -0.0575 -1.5620833333333333 -1.1375416666666667 -2.8299583333333334 -2.69675 -2.9305833333333333A31.21004166666667 31.21004166666667 0 0 0 7.666666666666667 25.875c-0.773375 0 -1.4394166666666668 0.023958333333333335 -2.0057916666666666 0.060375000000000005 -1.5592083333333333 0.100625 -2.6402083333333333 1.3685 -2.69675 2.9305833333333333A157.46375 157.46375 0 0 0 2.875 34.5c0 2.4562083333333335 0.04120833333333333 4.3125 0.089125 5.634041666666667Z" stroke-width="2"></path></g></svg>