<svg xmlns="http://www.w3.org/2000/svg" fill="none" viewBox="-1 -1 48 48" height="48" width="48"><g id="voice-activation-1--secure-phone-identification-id-human-person-face-smartphone-scan-security"><path id="Union" stroke="#000" stroke-linecap="round" stroke-linejoin="round" d="M2.875 2.875c9.124291666666668 0 16.534125 7.398333333333333 16.643375000000002 16.56575l3.53625 5.021666666666667c0.5261250000000001 0.7455833333333334 0.4331666666666667 1.7480000000000002 -0.345 2.22525 -0.7810416666666666 0.480125 -1.9425416666666668 1.0426666666666669 -3.520916666666667 1.430791666666667l-0.5309166666666667 6.426583333333334a2.875 2.875 0 0 1 -3.224791666666667 2.615291666666667l-2.5712083333333333 -0.3239166666666667v3.1030833333333336c0 1.2352916666666667 -0.7954166666666667 2.3153333333333332 -2.008666666666667 2.5395833333333333C9.20575 42.78670833333334 6.545416666666667 43.125 2.875 43.125" stroke-width="2"></path><path id="Ellipse 68" stroke="#000" stroke-linecap="round" stroke-linejoin="round" d="M38.333333333333336 17.25c6.389208333333333 6.350875 6.389208333333333 16.649125 0 23" stroke-width="2"></path><path id="Ellipse 69" stroke="#000" stroke-linecap="round" stroke-linejoin="round" d="M33.78125 21.083333333333336c3.8333333333333335 4.2339166666666666 3.8333333333333335 11.099416666666668 0 15.333333333333334" stroke-width="2"></path><path id="Ellipse 70" stroke="#000" stroke-linecap="round" stroke-linejoin="round" d="M28.270833333333336 24.4375c2.555875 2.3814583333333332 2.555875 6.243541666666666 0 8.625" stroke-width="2"></path><path id="Vector 1498" stroke="#000" stroke-linecap="round" stroke-linejoin="round" d="M11.5 17.25v0.9583333333333334" stroke-width="2"></path></g></svg>