<svg xmlns="http://www.w3.org/2000/svg" fill="none" viewBox="-1 -1 48 48" height="48" width="48"><g id="tag--codes-tags-tag-product-label"><path id="Vector 32" stroke="#000" stroke-linecap="round" stroke-linejoin="round" d="M24.529500000000002 3.188375c2.6900416666666667 -0.20029166666666667 8.594333333333333 -0.5222916666666667 15.026666666666667 -0.12266666666666667A3.603333333333333 3.603333333333333 0 0 1 42.93333333333333 6.444791666666666c0.4025 6.476416666666667 0.07283333333333333 12.420000000000002 -0.1265 15.08225a4.973750000000001 4.973750000000001 0 0 1 -1.0024166666666667 2.661291666666667c-2.2386666666666666 2.9363333333333337 -8.701666666666666 10.842583333333334 -18.66929166666667 18.383708333333335 -1.2937500000000002 0.9784583333333333 -2.9468750000000004 1.2324166666666667 -4.298125000000001 0.336375C17.1465 41.787166666666664 14.442083333333334 39.620375 10.541666666666668 35.458333333333336c-3.3733333333333335 -3.5975833333333336 -5.458666666666667 -6.096916666666667 -6.732291666666668 -7.754833333333334 -1.2697916666666667 -1.6540833333333333 -1.1308333333333334 -3.8333333333333335 0.16291666666666668 -5.467291666666667C11.487541666666667 12.745833333333335 18.93091666666667 6.495583333333333 21.78291666666667 4.248291666666667a5.011125000000001 5.011125000000001 0 0 1 2.7475416666666668 -1.0599166666666668Z" stroke-width="2"></path><path id="Ellipse 408" stroke="#000" stroke-linecap="round" stroke-linejoin="round" d="M32.583333333333336 10.541666666666668a2.875 2.875 0 1 0 5.75 0 2.875 2.875 0 1 0 -5.75 0" stroke-width="2"></path></g></svg>