<svg xmlns="http://www.w3.org/2000/svg" fill="none" viewBox="-1 -1 48 48" height="48" width="48"><g id="yin-yang-symbol--religion-tao-yin-yang-taoism-culture-symbol"><path id="Ellipse 1" stroke="#000" stroke-linejoin="round" d="M43.125 23c0 -11.11475 -9.01025 -20.125 -20.125 -20.125S2.875 11.88525 2.875 23s9.01025 20.125 20.125 20.125 20.125 -9.01025 20.125 -20.125Z" stroke-width="2"></path><path id="Vector" stroke="#000" stroke-linejoin="round" d="M23 43.125c-5.557375 0 -10.0625 -4.505125 -10.0625 -10.0625S17.442625 23 23 23s10.0625 -4.505125 10.0625 -10.0625S28.557375 2.875 23 2.875" stroke-width="2"></path><path id="Ellipse 8" stroke="#000" stroke-linejoin="round" d="M26.354166666666668 33.0625a3.354166666666667 3.354166666666667 0 1 1 -6.708333333333334 0 3.354166666666667 3.354166666666667 0 0 1 6.708333333333334 0Z" stroke-width="2"></path><path id="Ellipse 9" stroke="#000" stroke-linejoin="round" d="M26.354166666666668 12.9375a3.354166666666667 3.354166666666667 0 1 0 -6.708333333333334 0 3.354166666666667 3.354166666666667 0 0 0 6.708333333333334 0Z" stroke-width="2"></path></g></svg>