<svg xmlns="http://www.w3.org/2000/svg" fill="none" viewBox="-1 -1 48 48" height="48" width="48"><g id="calendar-heart--calendar-date-day-favorite-heart-like-month"><path id="Vector 9" stroke="#000" stroke-linecap="round" stroke-linejoin="round" d="M32.87658333333333 23.90275c-0.917125 -3.989541666666667 -5.994375 -5.619666666666666 -9.156875 -2.9459166666666667 -0.25012500000000004 0.21083333333333334 -0.47341666666666665 0.45329166666666665 -0.71875 0.6947916666666667 -0.24725000000000003 -0.24245833333333336 -0.46958333333333335 -0.4849166666666667 -0.7206666666666667 -0.6947916666666667 -3.1625 -2.67375 -8.23975 -1.043625 -9.156875 2.9459166666666667 -1.2650000000000001 5.162541666666667 4.058541666666667 8.947958333333334 7.700208333333334 11.494250000000001 1.3042916666666666 0.9104166666666667 3.0484583333333335 0.9104166666666667 4.35275 0 3.6416666666666666 -2.546291666666667 8.965208333333335 -6.331708333333334 7.700208333333334 -11.494250000000001Z" stroke-width="2"></path><path id="Subtract" stroke="#000" stroke-linecap="round" stroke-linejoin="round" d="M10.544541666666667 8.20525a78.775 78.775 0 0 0 -2.829 0.322c-2.1073749999999998 0.28079166666666666 -3.7154583333333333 1.8668333333333333 -4.017333333333334 3.971333333333334C3.3072083333333335 15.224083333333333 2.875 19.56054166666667 2.875 25.395833333333336c0 5.83625 0.43220833333333336 10.171750000000001 0.8232083333333333 12.897250000000001 0.301875 2.1045000000000003 1.9099583333333334 3.6895833333333337 4.017333333333334 3.971333333333334 2.9995833333333333 0.399625 8.030833333333334 0.8605833333333334 15.284458333333333 0.8605833333333334 7.252666666666666 0 12.283916666666666 -0.46095833333333336 15.284458333333333 -0.8605833333333334 2.1073749999999998 -0.28175 3.7154583333333333 -1.8668333333333333 4.017333333333334 -3.971333333333334 0.391 -2.7255 0.8232083333333333 -7.061958333333333 0.8232083333333333 -12.897250000000001 0 -5.83625 -0.43220833333333336 -10.171750000000001 -0.8232083333333333 -12.897250000000001 -0.301875 -2.1045000000000003 -1.9099583333333334 -3.6895833333333337 -4.017333333333334 -3.971333333333334a78.79320833333333 78.79320833333333 0 0 0 -2.829 -0.322" stroke-width="2"></path><path id="Subtract_2" stroke="#000" stroke-linecap="round" stroke-linejoin="round" d="M27.791666666666668 7.737583333333333A157.20212500000002 157.20212500000002 0 0 0 23 7.666666666666667c-1.7211666666666667 0 -3.31775 0.025875000000000002 -4.791666666666667 0.07091666666666667" stroke-width="2"></path><path id="Vector" stroke="#000" stroke-linecap="round" stroke-linejoin="round" d="M27.804125000000003 8.88375c0.04120833333333333 1.9933333333333334 1.3502916666666667 3.5400833333333335 3.343625 3.5707500000000003a31.602 31.602 0 0 0 0.9545 0c1.9933333333333334 -0.03066666666666667 3.302416666666667 -1.5774166666666667 3.343625 -3.5707500000000003a58.70941666666667 58.70941666666667 0 0 0 0 -2.4341666666666666c-0.04120833333333333 -1.9933333333333334 -1.3502916666666667 -3.5400833333333335 -3.343625 -3.5707500000000003a31.09216666666667 31.09216666666667 0 0 0 -0.9545 0c-1.9933333333333334 0.03066666666666667 -3.302416666666667 1.5774166666666667 -3.343625 3.5707500000000003a58.70941666666667 58.70941666666667 0 0 0 0 2.4341666666666666Z" stroke-width="2"></path><path id="Vector_2" stroke="#000" stroke-linecap="round" stroke-linejoin="round" d="M10.554125 8.88375c0.04120833333333333 1.9933333333333334 1.3502916666666667 3.5400833333333335 3.343625 3.5707500000000003a31.602 31.602 0 0 0 0.9545 0c1.9933333333333334 -0.03066666666666667 3.302416666666667 -1.5774166666666667 3.343625 -3.5707500000000003a58.70941666666667 58.70941666666667 0 0 0 0 -2.4341666666666666c-0.04120833333333333 -1.9933333333333334 -1.3502916666666667 -3.5400833333333335 -3.343625 -3.5707500000000003a31.09216666666667 31.09216666666667 0 0 0 -0.9545 0c-1.9933333333333334 0.03066666666666667 -3.302416666666667 1.5774166666666667 -3.343625 3.5707500000000003a58.70941666666667 58.70941666666667 0 0 0 0 2.4341666666666666Z" stroke-width="2"></path></g></svg>