<svg xmlns="http://www.w3.org/2000/svg" fill="none" viewBox="-1 -1 48 48" height="48" width="48"><g id="arrow-diagonal-2--expand-smaller-retract-bigger-big-small-diagonal"><path id="Union" stroke="#000" stroke-linecap="round" stroke-linejoin="round" d="M22.609958333333335 6.876041666666667c1.1921666666666666 -1.5065000000000002 0.3239166666666667 -3.4998333333333336 -1.5889166666666668 -3.6867083333333333 -4.69775 -0.46 -10.115208333333333 -0.34308333333333335 -14.439208333333333 -0.10158333333333333a3.7020416666666667 3.7020416666666667 0 0 0 -3.494083333333333 3.494083333333333c-0.24341666666666667 4.346041666666667 -0.36033333333333334 9.796083333333334 0.10829166666666667 14.509166666666667 0.18783333333333335 1.89175 2.1399583333333334 2.753291666666667 3.6320833333333336 1.5755 1.1691666666666667 -0.9219166666666667 2.6881250000000003 -2.2041666666666666 4.585625 -3.9627083333333335 1.8323333333333334 2.091083333333333 4.360416666666667 4.8328750000000005 7.704999999999999 8.177458333333334 3.348416666666667 3.348416666666667 6.092125 5.877458333333333 8.183208333333333 7.71075 -1.7192500000000002 1.8610833333333334 -2.9880833333333334 3.3647083333333336 -3.9119166666666665 4.531958333333334 -1.1921666666666666 1.5065000000000002 -0.3239166666666667 3.4998333333333336 1.5889166666666668 3.6867083333333333 4.69775 0.46 10.115208333333333 0.34308333333333335 14.439208333333333 0.10158333333333333a3.7020416666666667 3.7020416666666667 0 0 0 3.494083333333333 -3.494083333333333c0.24341666666666667 -4.346041666666667 0.36033333333333334 -9.796083333333334 -0.10829166666666667 -14.509166666666667 -0.18783333333333335 -1.89175 -2.1399583333333334 -2.753291666666667 -3.6320833333333336 -1.5755 -1.1739583333333334 0.92575 -2.7015416666666665 2.2156666666666665 -4.609583333333333 3.9847500000000005a166.42225 166.42225 0 0 0 -7.682 -8.198541666666667 166.47208333333336 166.47208333333336 0 0 0 -8.204291666666666 -7.686791666666668c1.7297916666666666 -1.8725833333333333 3.006291666666667 -3.3848333333333334 3.933958333333334 -4.556875Z" stroke-width="2"></path></g></svg>