<svg xmlns="http://www.w3.org/2000/svg" fill="none" viewBox="-1 -1 48 48" height="48" width="48"><g id="bus--transportation-travel-bus-transit-transport-motorcoach-public"><path id="Union" stroke="#000" stroke-linecap="round" stroke-linejoin="round" d="M36.576708333333336 37.110499999999995a3.5525416666666665 3.5525416666666665 0 0 0 3.4087916666666667 -3.4087916666666667c0.09775 -2.135166666666667 0.20508333333333334 -5.357083333333334 0.24725000000000003 -9.743375h0.49833333333333335c1.2650000000000001 0 2.2904166666666668 -0.8490833333333334 2.347916666666667 -2.112166666666667A48.67375 48.67375 0 0 0 43.125 19.602708333333332c0 -1.0944166666666666 -0.025875000000000002 -2.017291666666667 -0.06229166666666667 -2.7676666666666665 -0.06804166666666667 -1.4183333333333334 -1.2525416666666667 -2.460041666666667 -2.67375 -2.460041666666667h-0.21370833333333333a139.38670833333333 139.38670833333333 0 0 0 -0.322 -6.5981250000000005c-0.18400000000000002 -2.450458333333333 -2.054666666666667 -4.321125 -4.505125 -4.504166666666667C32.675333333333334 3.0705000000000005 28.6235 2.875 23 2.875c-5.623500000000001 0 -9.675333333333334 0.19645833333333332 -12.348125 0.39675 -2.450458333333333 0.18400000000000002 -4.321125 2.054666666666667 -4.504166666666667 4.505125 -0.12458333333333334 1.6550416666666667 -0.24725000000000003 3.839083333333334 -0.32295833333333335 6.5981250000000005h-0.21466666666666667c-1.42025 0 -2.60475 1.0417083333333332 -2.672791666666667 2.460041666666667A57.90920833333333 57.90920833333333 0 0 0 2.875 19.602708333333332c0 0.9190416666666666 0.01916666666666667 1.6560000000000001 0.046000000000000006 2.2434583333333338 0.0575 1.2630833333333333 1.0829166666666665 2.112166666666667 2.347916666666667 2.112166666666667h0.49833333333333335c0.042166666666666665 4.3853333333333335 0.1495 7.608208333333334 0.24725000000000003 9.743375a3.5525416666666665 3.5525416666666665 0 0 0 3.4087916666666667 3.4087916666666667c2.7149583333333336 0.12458333333333334 7.188458333333334 0.2645 13.576708333333334 0.2645 6.38825 0 10.86175 -0.13991666666666666 13.576708333333334 -0.2645Z" stroke-width="2"></path><path id="Subtract" stroke="#000" stroke-linecap="round" stroke-linejoin="round" d="M9.595791666666667 37.11816666666667A59.6275 59.6275 0 0 0 9.583333333333334 38.333333333333336c0 1.27075 0.04025 2.301916666666667 0.08433333333333333 3.0570833333333334a1.7173333333333334 1.7173333333333334 0 0 0 1.587 1.6205416666666668c0.7302500000000001 0.059416666666666666 1.6646250000000002 0.115 2.6411666666666664 0.115 0.9775 0 1.9109166666666668 -0.05558333333333334 2.6411666666666664 -0.115a1.7173333333333334 1.7173333333333334 0 0 0 1.5860416666666668 -1.6205416666666668c0.04504166666666667 -0.7551666666666668 0.08529166666666667 -1.7863333333333336 0.08529166666666667 -3.0570833333333334 0 -0.34691666666666665 -0.0028750000000000004 -0.675625 -0.008624999999999999 -0.9861249999999999" stroke-width="2"></path><path id="Subtract_2" stroke="#000" stroke-linecap="round" stroke-linejoin="round" d="M27.800291666666666 37.347208333333334a52.667125000000006 52.667125000000006 0 0 0 0.07570833333333334 4.043208333333334 1.7173333333333334 1.7173333333333334 0 0 0 1.587 1.6205416666666668c0.7302500000000001 0.059416666666666666 1.6646250000000002 0.115 2.6411666666666664 0.115 0.9775 0 1.9109166666666668 -0.05558333333333334 2.6411666666666664 -0.115a1.7173333333333334 1.7173333333333334 0 0 0 1.5860416666666668 -1.6205416666666668c0.04504166666666667 -0.7551666666666668 0.08529166666666667 -1.7863333333333336 0.08529166666666667 -3.0570833333333334 0 -0.4331666666666667 -0.004791666666666667 -0.8385416666666667 -0.012458333333333333 -1.2151666666666667" stroke-width="2"></path><path id="Vector 993" stroke="#000" stroke-linecap="round" stroke-linejoin="round" d="M13.416666666666668 31.625h2.875" stroke-width="2"></path><path id="Vector 994" stroke="#000" stroke-linecap="round" stroke-linejoin="round" d="M32.583333333333336 31.625h-2.875" stroke-width="2"></path><path id="Intersect" stroke="#000" stroke-linecap="round" stroke-linejoin="round" d="M35.423833333333334 25.875c0.021083333333333332 -1.40875 0.034499999999999996 -3.003416666666667 0.034499999999999996 -4.791666666666667 0 -5.92825 -0.2606666666666667 -9.612083333333333 -0.4360416666666667 -11.421416666666666a1.693375 1.693375 0 0 0 -1.5112916666666667 -1.5362083333333334C31.798458333333333 7.936916666666667 28.403083333333335 7.666666666666667 23 7.666666666666667c-5.404041666666667 0 -8.798458333333333 0.27025 -10.511000000000001 0.46a1.693375 1.693375 0 0 0 -1.5112916666666667 1.5352500000000002C10.802333333333333 11.472208333333334 10.541666666666668 15.155083333333334 10.541666666666668 21.083333333333336c0 1.7882500000000001 0.013416666666666667 3.3829166666666666 0.034499999999999996 4.791666666666667h24.84766666666667Z" stroke-width="2"></path></g></svg>