<svg xmlns="http://www.w3.org/2000/svg" fill="none" viewBox="-1 -1 48 48" height="48" width="48"><g id="hotel-bed-5--bed-bedrooms-beds-bedroom-bunk-hotel"><path id="Ellipse 541" stroke="#000" stroke-linecap="round" stroke-linejoin="round" d="M8.625 23.958333333333336a4.791666666666667 4.791666666666667 0 1 0 9.583333333333334 0 4.791666666666667 4.791666666666667 0 1 0 -9.583333333333334 0" stroke-width="2"></path><path id="Rectangle 1672" stroke="#000" stroke-linecap="round" stroke-linejoin="round" d="M18.42875 17.741625000000003c0.13033333333333336 -1.3090833333333334 1.2075 -2.287541666666667 2.521375 -2.3412083333333333 5.011125000000001 -0.20700000000000002 9.640833333333335 0.09391666666666668 13.358208333333334 0.5222916666666667 5.228666666666667 0.6018333333333333 8.816666666666666 5.1797916666666675 8.816666666666666 10.442958333333333V26.833333333333336a1.9166666666666667 1.9166666666666667 0 0 1 -1.9166666666666667 1.9166666666666667H20.320500000000003c-0.928625 0 -1.7182916666666668 -0.6650833333333334 -1.8246666666666667 -1.5860416666666668A44.57591666666667 44.57591666666667 0 0 1 18.208333333333336 22.137500000000003c0 -1.7202083333333333 0.10541666666666667 -3.2458750000000003 0.22041666666666668 -4.395875Z" stroke-width="2"></path><path id="Union" stroke="#000" stroke-linecap="round" stroke-linejoin="round" d="M6.688208333333334 10.573291666666666c1.078125 0.07858333333333334 1.7115833333333335 0.9612083333333332 1.7585416666666667 2.04125C8.528208333333334 14.488083333333334 8.625 18.30704166666667 8.625 25.875c0 1.0867499999999999 -0.0019166666666666668 2.0968333333333335 -0.005750000000000001 3.0340833333333332C10.889541666666666 28.832416666666667 15.154125 28.75 23 28.75h18.191083333333335c1.0618333333333334 0 1.9214583333333333 0.8644166666666667 1.9137916666666668 1.9262499999999998 -0.03066666666666667 4.477333333333333 -0.10158333333333333 7.03225 -0.16291666666666668 8.458250000000001 -0.04791666666666667 1.0800416666666668 -0.6804166666666667 1.963625 -1.7585416666666667 2.04125a13.290166666666668 13.290166666666668 0 0 1 -1.8764166666666666 0.0009583333333333334c-1.078125 -0.07858333333333334 -1.7115833333333335 -0.9621666666666667 -1.7585416666666667 -2.0422083333333334 -0.043125 -0.9794166666666667 -0.089125 -2.4916666666666667 -0.12458333333333334 -4.794541666666667 -2.2587916666666668 0.07666666666666667 -6.528166666666667 0.1600416666666667 -14.423875 0.1600416666666667 -7.901458333333333 0 -12.170833333333333 -0.08337499999999999 -14.428666666666667 -0.1600416666666667a175.458375 175.458375 0 0 1 -0.12458333333333334 4.7955c-0.04695833333333334 1.0800416666666668 -0.6804166666666667 1.9626666666666668 -1.7585416666666667 2.04125 -0.27120833333333333 0.01916666666666667 -0.5817083333333334 0.031625 -0.9382083333333333 0.031625s-0.6669999999999999 -0.012458333333333333 -0.9382083333333333 -0.031625c-1.078125 -0.07858333333333334 -1.7115833333333335 -0.9612083333333332 -1.7585416666666667 -2.04125C2.971791666666667 37.261916666666664 2.875 33.44295833333333 2.875 25.875c0 -7.567 0.09679166666666668 -11.386916666666666 0.17825 -13.260458333333334 0.04695833333333334 -1.0800416666666668 0.6804166666666667 -1.9626666666666668 1.7585416666666667 -2.04125 0.27120833333333333 -0.01916666666666667 0.5817083333333334 -0.031625 0.9382083333333333 -0.031625s0.6669999999999999 0.011500000000000002 0.9382083333333333 0.031625Z" stroke-width="2"></path></g></svg>