<svg xmlns="http://www.w3.org/2000/svg" fill="none" viewBox="-1 -1 48 48" height="48" width="48"><g id="application-add--application-new-add-square"><path id="Rectangle 123" stroke="#000" stroke-linejoin="round" d="M3.004375 6.322125000000001c0.09966666666666667 -1.6512083333333334 1.1749166666666666 -2.9305833333333333 2.814625 -3.143333333333333C7.085916666666667 3.0120416666666667 8.916333333333334 2.875 11.5 2.875c2.583666666666667 0 4.414083333333333 0.13799999999999998 5.681 0.30283333333333334 1.6406666666666667 0.21466666666666667 2.7149583333333336 1.4930833333333335 2.814625 3.1442916666666667C20.067500000000003 7.50375 20.125 9.174125 20.125 11.5c0 2.325875 -0.0575 3.9962500000000003 -0.12937500000000002 5.177875 -0.09966666666666667 1.6512083333333334 -1.1739583333333334 2.9305833333333333 -2.814625 3.143333333333333 -1.2669166666666667 0.16579166666666667 -3.0973333333333337 0.3037916666666667 -5.681 0.3037916666666667 -2.583666666666667 0 -4.414083333333333 -0.13799999999999998 -5.681 -0.30283333333333334 -1.6397083333333335 -0.21466666666666667 -2.7149583333333336 -1.4930833333333335 -2.814625 -3.1442916666666667C2.9325 15.496250000000002 2.875 13.825875 2.875 11.5c0 -2.325875 0.0575 -3.9962500000000003 0.12937500000000002 -5.177875Z" stroke-width="2"></path><path id="Rectangle 123_2" stroke="#000" stroke-linejoin="round" d="M3.004375 39.677875c0.09966666666666667 1.6512083333333334 1.1749166666666666 2.9305833333333333 2.814625 3.143333333333333C7.085916666666667 42.98795833333333 8.916333333333334 43.125 11.5 43.125c2.583666666666667 0 4.414083333333333 -0.13799999999999998 5.681 -0.30283333333333334 1.6406666666666667 -0.21370833333333333 2.7149583333333336 -1.4930833333333335 2.814625 -3.1442916666666667C20.067500000000003 38.49625 20.125 36.825875 20.125 34.5c0 -2.325875 -0.0575 -3.9962500000000003 -0.12937500000000002 -5.177875 -0.09966666666666667 -1.6512083333333334 -1.1739583333333334 -2.9305833333333333 -2.814625 -3.143333333333333C15.914083333333336 26.01204166666667 14.083666666666668 25.875 11.5 25.875c-2.583666666666667 0 -4.414083333333333 0.13799999999999998 -5.681 0.30283333333333334 -1.6397083333333335 0.21466666666666667 -2.7149583333333336 1.4930833333333335 -2.814625 3.1442916666666667C2.9325 30.50375 2.875 32.174125000000004 2.875 34.5c0 2.325875 0.0575 3.9962500000000003 0.12937500000000002 5.177875Z" stroke-width="2"></path><path id="Rectangle 123_3" stroke="#000" stroke-linejoin="round" d="M39.677875 3.004375c1.6512083333333334 0.09966666666666667 2.9305833333333333 1.1749166666666666 3.143333333333333 2.814625C42.98795833333333 7.085916666666667 43.125 8.916333333333334 43.125 11.5c0 2.583666666666667 -0.13799999999999998 4.414083333333333 -0.30283333333333334 5.681 -0.21370833333333333 1.6406666666666667 -1.4930833333333335 2.7149583333333336 -3.1442916666666667 2.814625C38.49625 20.067500000000003 36.825875 20.125 34.5 20.125c-2.325875 0 -3.9962500000000003 -0.0575 -5.177875 -0.12937500000000002 -1.6512083333333334 -0.09966666666666667 -2.9305833333333333 -1.1739583333333334 -3.143333333333333 -2.814625C26.01204166666667 15.914083333333336 25.875 14.083666666666668 25.875 11.5c0 -2.583666666666667 0.13799999999999998 -4.414083333333333 0.30283333333333334 -5.681 0.21466666666666667 -1.6397083333333335 1.4930833333333335 -2.7149583333333336 3.1442916666666667 -2.814625C30.50375 2.9325 32.174125000000004 2.875 34.5 2.875c2.325875 0 3.9962500000000003 0.0575 5.177875 0.12937500000000002Z" stroke-width="2"></path><path id="Union" stroke="#000" stroke-linejoin="round" d="M33.33658333333334 43.070375c-0.974625 -0.09775 -1.578375 -0.92575 -1.61575 -1.9051666666666667 -0.031625 -0.8375833333333333 -0.06420833333333334 -2.06425 -0.08241666666666667 -3.804583333333334a139.27075 139.27075 0 0 1 -3.803625 -0.08145833333333334c-0.9794166666666667 -0.03833333333333334 -1.8074166666666667 -0.6411250000000001 -1.9051666666666667 -1.61575A11.665791666666667 11.665791666666667 0 0 1 25.875 34.5c0 -0.44850000000000007 0.021083333333333332 -0.8347083333333334 0.05462500000000001 -1.1634166666666668 0.09775 -0.974625 0.92575 -1.578375 1.9051666666666667 -1.61575 0.8375833333333333 -0.031625 2.06425 -0.06420833333333334 3.804583333333334 -0.08241666666666667 0.017249999999999998 -1.7393750000000001 0.049833333333333334 -2.966041666666667 0.08145833333333334 -3.803625 0.03833333333333334 -0.9794166666666667 0.6411250000000001 -1.8074166666666667 1.61575 -1.9051666666666667 0.3287083333333334 -0.03354166666666667 0.7149166666666666 -0.05462500000000001 1.1634166666666668 -0.05462500000000001 0.44850000000000007 0 0.8347083333333334 0.021083333333333332 1.1634166666666668 0.05462500000000001 0.974625 0.09775 1.578375 0.92575 1.61575 1.9051666666666667 0.031625 0.8375833333333333 0.06420833333333334 2.06425 0.08241666666666667 3.804583333333334 1.7393750000000001 0.017249999999999998 2.966041666666667 0.049833333333333334 3.803625 0.08145833333333334 0.9794166666666667 0.03833333333333334 1.8074166666666667 0.6411250000000001 1.9051666666666667 1.61575 0.03354166666666667 0.3287083333333334 0.05462500000000001 0.7149166666666666 0.05462500000000001 1.1634166666666668 0 0.44850000000000007 -0.021083333333333332 0.8347083333333334 -0.05462500000000001 1.1634166666666668 -0.09775 0.974625 -0.92575 1.578375 -1.9051666666666667 1.61575 -0.8375833333333333 0.031625 -2.06425 0.06420833333333334 -3.804583333333334 0.08241666666666667a139.27075 139.27075 0 0 1 -0.08145833333333334 3.803625c-0.03833333333333334 0.9794166666666667 -0.6411250000000001 1.8074166666666667 -1.61575 1.9051666666666667 -0.3287083333333334 0.03354166666666667 -0.7149166666666666 0.05462500000000001 -1.1634166666666668 0.05462500000000001 -0.44850000000000007 0 -0.8347083333333334 -0.021083333333333332 -1.1634166666666668 -0.05462500000000001Z" stroke-width="2"></path></g></svg>