<svg xmlns="http://www.w3.org/2000/svg" fill="none" viewBox="-1 -1 48 48" height="48" width="48"><g id="notification-alarm-snooze--android-phone-mobile-device-smartphone-iphone-alert-bell-alarm"><path id="Union" stroke="#000" stroke-linecap="round" d="M38.41 23.958333333333336A15.333333333333334 15.333333333333334 0 0 0 40.25 28.342708333333334l1.4097083333333336 2.284666666666667c1.4164166666666667 2.2932916666666667 0.644 4.66325 -2.0278333333333336 5.018791666666667C36.57575 36.0525 31.473583333333334 36.41666666666667 23 36.41666666666667c-8.474541666666667 0 -13.576708333333334 -0.3641666666666667 -16.631875 -0.7705000000000001 -2.6718333333333333 -0.3555416666666667 -3.44425 -2.7255 -2.0287916666666668 -5.018791666666667L5.75 28.342708333333334a15.333333333333334 15.333333333333334 0 0 0 2.2290833333333335 -6.743791666666667l0.46 -5.357083333333334C9.085 8.682500000000001 15.409999999999998 2.875 23 2.875c1.8534166666666667 0 3.6320833333333336 0.34691666666666665 5.270833333333334 0.980375" stroke-width="2"></path><path id="Vector 1172" stroke="#000" stroke-linecap="round" stroke-linejoin="round" d="M31.625 7.666666666666667h10.541666666666668L32.583333333333336 19.166666666666668h10.541666666666668" stroke-width="2"></path><path id="Vector 1173" stroke="#000" stroke-linecap="round" stroke-linejoin="round" d="M22.041666666666668 15.333333333333334h7.027458333333334l-6.38825 7.666666666666667H29.708333333333336" stroke-width="2"></path><path id="Subtract" stroke="#000" d="M15.378375000000002 36.29975a7.667625 7.667625 0 0 0 15.242291666666667 0" stroke-width="2"></path></g></svg>