<svg xmlns="http://www.w3.org/2000/svg" fill="none" viewBox="-1 -1 48 48" height="48" width="48"><g id="warehouse-1--delivery-warehouse-shipping-fulfillment"><path id="Vector 706" stroke="#000" stroke-linejoin="round" d="M25.697708333333335 3.986666666666667c6.933541666666668 3.077208333333333 12.189041666666666 7.120416666666666 14.905916666666668 9.455875 1.3732916666666668 1.1806666666666668 2.1390000000000002 2.8797916666666667 2.2329166666666667 4.6881666666666675C42.96783333333333 20.613750000000003 43.125 24.49979166666667 43.125 28.75c0 4.060458333333334 -0.14375 7.947458333333333 -0.27025 10.578083333333334a3.6752083333333334 3.6752083333333334 0 0 1 -3.533375 3.5075000000000003C36.09945833333333 42.966875 30.59575 43.125 23 43.125c-7.596708333333333 0 -13.100416666666668 -0.15908333333333335 -16.322333333333333 -0.2884583333333333 -1.9166666666666667 -0.07666666666666667 -3.4404166666666667 -1.5917916666666667 -3.533375 -3.5084583333333335A228.22037500000002 228.22037500000002 0 0 1 2.875 28.75c0 -4.250208333333333 0.15812500000000002 -8.13625 0.2875 -10.619291666666667 0.09583333333333334 -1.808375 0.8605833333333334 -3.5075000000000003 2.233875 -4.6881666666666675 2.716875 -2.336416666666667 7.973333333333334 -6.378666666666667 14.905916666666668 -9.455875a6.651791666666667 6.651791666666667 0 0 1 5.395416666666667 0Z" stroke-width="2"></path><path id="Intersect" stroke="#000" stroke-linejoin="round" d="M36.940875 42.92183333333333C37.136375 40.84225000000001 37.375 37.168 37.375 31.625c0 -4.601916666666667 -0.16483333333333333 -7.592875 -0.33158333333333334 -9.44725 -0.152375 -1.6780416666666667 -1.2592500000000002 -2.989041666666667 -2.9210000000000003 -3.2698333333333336 -2.0316666666666667 -0.345 -5.491250000000001 -0.6995833333333333 -11.122416666666666 -0.6995833333333333 -5.630208333333334 0 -9.089791666666667 0.35458333333333336 -11.122416666666666 0.6995833333333333 -1.66175 0.28079166666666666 -2.7695833333333337 1.5908333333333333 -2.9210000000000003 3.2698333333333336C8.788874999999999 24.032125000000004 8.625 27.023083333333336 8.625 31.625c0 5.543 0.238625 9.21725 0.43412500000000004 11.296833333333334" stroke-width="2"></path><path id="Rectangle 57" stroke="#000" stroke-linejoin="round" d="M13.477041666666668 32.397416666666665c0.0575 -0.8586666666666667 0.6468750000000001 -1.4988333333333335 1.503625 -1.5908333333333333 0.7015 -0.07666666666666667 1.7365000000000002 -0.13991666666666666 3.2276666666666665 -0.13991666666666666 1.4911666666666668 0 2.5261666666666667 0.06420833333333334 3.2276666666666665 0.13991666666666666 0.85675 0.09200000000000001 1.4470833333333335 0.7321666666666667 1.5045833333333334 1.5908333333333333 0.03354166666666667 0.5127083333333334 0.059416666666666666 1.198875 0.059416666666666666 2.1025833333333335 0 0.9037083333333333 -0.025875000000000002 1.5898750000000001 -0.060375000000000005 2.1025833333333335 -0.0575 0.8586666666666667 -0.6468750000000001 1.4988333333333335 -1.503625 1.5908333333333333 -0.7015 0.07666666666666667 -1.7365000000000002 0.13991666666666666 -3.2276666666666665 0.13991666666666666 -1.4911666666666668 0 -2.5261666666666667 -0.06420833333333334 -3.2276666666666665 -0.13991666666666666 -0.85675 -0.09200000000000001 -1.4470833333333335 -0.7321666666666667 -1.5045833333333334 -1.5908333333333333A31.806125 31.806125 0 0 1 13.416666666666668 34.5c0 -0.9037083333333333 0.025875000000000002 -1.5898750000000001 0.060375000000000005 -2.1025833333333335Z" stroke-width="2"></path><path id="Rectangle 58" stroke="#000" stroke-linejoin="round" d="M23.060375 32.397416666666665c0.0575 -0.8586666666666667 0.6468750000000001 -1.4988333333333335 1.503625 -1.5908333333333333 0.7015 -0.07666666666666667 1.7365000000000002 -0.13991666666666666 3.2276666666666665 -0.13991666666666666 1.4911666666666668 0 2.5261666666666667 0.06420833333333334 3.2276666666666665 0.13991666666666666 0.85675 0.09200000000000001 1.4470833333333335 0.7321666666666667 1.5045833333333334 1.5908333333333333 0.03354166666666667 0.5127083333333334 0.059416666666666666 1.198875 0.059416666666666666 2.1025833333333335 0 0.9037083333333333 -0.025875000000000002 1.5898750000000001 -0.060375000000000005 2.1025833333333335 -0.0575 0.8586666666666667 -0.6468750000000001 1.4988333333333335 -1.503625 1.5908333333333333 -0.7015 0.07666666666666667 -1.7365000000000002 0.13991666666666666 -3.2276666666666665 0.13991666666666666 -1.4911666666666668 0 -2.5261666666666667 -0.06420833333333334 -3.2276666666666665 -0.13991666666666666 -0.85675 -0.09200000000000001 -1.4470833333333335 -0.7321666666666667 -1.5045833333333334 -1.5908333333333333A31.806125 31.806125 0 0 1 23 34.5c0 -0.9037083333333333 0.025875000000000002 -1.5898750000000001 0.060375000000000005 -2.1025833333333335Z" stroke-width="2"></path><path id="Rectangle 59" stroke="#000" stroke-linejoin="round" d="M18.268708333333333 24.73075c0.0575 -0.8586666666666667 0.6468750000000001 -1.4988333333333335 1.503625 -1.5908333333333333 0.7015 -0.07666666666666667 1.7365000000000002 -0.13991666666666666 3.2276666666666665 -0.13991666666666666 1.4911666666666668 0 2.5261666666666667 0.06420833333333334 3.2276666666666665 0.13991666666666666 0.85675 0.09200000000000001 1.4470833333333335 0.7321666666666667 1.5045833333333334 1.5908333333333333 0.03354166666666667 0.5127083333333334 0.059416666666666666 1.198875 0.059416666666666666 2.1025833333333335 0 0.9037083333333333 -0.025875000000000002 1.5898750000000001 -0.060375000000000005 2.1025833333333335 -0.0575 0.8586666666666667 -0.6468750000000001 1.4988333333333335 -1.503625 1.5908333333333333 -0.7015 0.07666666666666667 -1.7365000000000002 0.13991666666666666 -3.2276666666666665 0.13991666666666666 -1.4911666666666668 0 -2.5261666666666667 -0.06420833333333334 -3.2276666666666665 -0.13991666666666666 -0.85675 -0.09200000000000001 -1.4470833333333335 -0.7321666666666667 -1.5045833333333334 -1.5908333333333333A31.806125 31.806125 0 0 1 18.208333333333336 26.833333333333336c0 -0.9037083333333333 0.025875000000000002 -1.5898750000000001 0.060375000000000005 -2.1025833333333335Z" stroke-width="2"></path></g></svg>