<svg xmlns="http://www.w3.org/2000/svg" fill="none" viewBox="-1 -1 48 48" height="48" width="48"><g id="give-gift--reward-social-rating-media-queen-vip-gift"><path id="Union" stroke="#000" stroke-linecap="round" stroke-linejoin="round" d="M2.875 26.4155S8.625 23.958333333333336 13.416666666666668 23.958333333333336c3.380041666666667 0 7.091666666666668 1.3589166666666666 9.577583333333333 2.4792083333333337 1.9070833333333335 0.8586666666666667 3.004375 1.4010833333333335 3.4404166666666667 3.447125 0.3037916666666667 1.4212083333333334 -0.7168333333333333 3.7902083333333336 -2.165833333333333 3.907125l-1.020625 0.08241666666666667m0 0c-2.34025 0 -5.962750000000001 -0.6938333333333333 -5.962750000000001 -0.6938333333333333m5.962750000000001 0.6938333333333333c3.2458750000000003 0 11.790375000000001 -1.5419583333333333 14.818708333333333 -2.1083333333333334 0.7225833333333334 -0.13416666666666668 1.4710416666666666 -0.232875 2.1581666666666663 0.025875000000000002 0.8644166666666667 0.3267916666666667 2.024 1.1155 2.577916666666667 3.01875 0.4331666666666667 1.4873333333333334 -0.6066250000000001 2.918125 -2.0508333333333337 3.4768333333333334C36.516333333333336 39.92608333333333 27.683375 43.125 23.248208333333334 43.125 11.5 43.125 2.875 40.176208333333335 2.875 40.176208333333335" stroke-width="2"></path><path id="Vector 867" stroke="#000" stroke-linecap="round" stroke-linejoin="round" d="M34.5 8.625c0 -1.9166666666666667 -0.9775 -5.75 -4.396833333333333 -5.75 -3.907125 0 -4.087291666666666 4.791666666666667 -1.7326666666666668 5.75" stroke-width="2"></path><path id="Vector 868" stroke="#000" stroke-linecap="round" stroke-linejoin="round" d="M34.5 8.625c0 -1.9166666666666667 0.9775 -5.75 4.396833333333333 -5.75 3.907125 0 4.087291666666666 4.791666666666667 1.7317083333333334 5.75" stroke-width="2"></path><path id="Rectangle 1095" stroke="#000" stroke-linecap="round" stroke-linejoin="round" d="M43.010000000000005 19.075625000000002c-0.10541666666666667 1.549625 -1.2975833333333335 2.69675 -2.8472083333333336 2.80025A85.56958333333334 85.56958333333334 0 0 1 34.5 22.041666666666668a85.56958333333334 85.56958333333334 0 0 1 -5.662791666666667 -0.16579166666666667c-1.549625 -0.10350000000000001 -2.7408333333333332 -1.250625 -2.8472083333333336 -2.80025 -0.06516666666666668 -0.94875 -0.115 -2.185 -0.115 -3.7422916666666666s0.049833333333333334 -2.7935416666666666 0.115 -3.7422916666666666c0.10541666666666667 -1.549625 1.2975833333333335 -2.69675 2.8472083333333336 -2.80025A85.57916666666667 85.57916666666667 0 0 1 34.5 8.625c2.4734583333333333 0 4.339333333333333 0.077625 5.662791666666667 0.16579166666666667 1.549625 0.10350000000000001 2.7408333333333332 1.250625 2.8472083333333336 2.80025 0.06516666666666668 0.94875 0.115 2.185 0.115 3.7422916666666666s-0.049833333333333334 2.7935416666666666 -0.115 3.7422916666666666Z" stroke-width="2"></path><path id="Vector 1702" stroke="#000" stroke-linecap="round" stroke-linejoin="round" d="M34.5 8.668125v13.416666666666668" stroke-width="2"></path></g></svg>