<svg xmlns="http://www.w3.org/2000/svg" fill="none" viewBox="-1 -1 48 48" height="48" width="48"><g id="scissors--clipboard-copy-cut-paste-right-scissors"><path id="Union" fill-rule="evenodd" stroke="#000" stroke-linecap="round" stroke-linejoin="round" d="M20.125 12.458333333333334a8.60775 8.60775 0 0 1 -3.174 6.684375S30.814250000000005 10.541666666666668 36.41666666666667 10.541666666666668c4.132333333333333 0 6.21575 2.4082916666666665 7.060041666666667 3.7624166666666667 0.29229166666666667 0.468625 0.034499999999999996 1.0388333333333335 -0.48970833333333336 1.210375C40.11775 16.451708333333336 31.304916666666664 19.408166666666666 23 23c8.304916666666667 3.5918333333333337 17.117749999999997 6.5482916666666675 19.987000000000002 7.485541666666667 0.5242083333333334 0.17154166666666668 0.782 0.74175 0.48970833333333336 1.210375C42.632416666666664 33.05004166666667 40.549 35.458333333333336 36.41666666666667 35.458333333333336c-5.602416666666667 0 -19.465666666666667 -8.601041666666667 -19.465666666666667 -8.601041666666667a8.625 8.625 0 1 1 -10.487041666666666 -0.3181666666666667c1.1375416666666667 -0.928625 3.008208333333333 -2.1677500000000003 5.275625 -3.5391250000000003 -2.2674166666666666 -1.371375 -4.138083333333333 -2.6105000000000005 -5.276583333333334 -3.5391250000000003A8.625 8.625 0 1 1 20.125 12.458333333333334Zm-8.625 2.875a2.875 2.875 0 1 0 0 -5.75 2.875 2.875 0 0 0 0 5.75Zm0 15.333333333333334a2.875 2.875 0 1 1 0 5.75 2.875 2.875 0 0 1 0 -5.75Z" clip-rule="evenodd" stroke-width="2"></path></g></svg>