<svg xmlns="http://www.w3.org/2000/svg" fill="none" viewBox="-1 -1 48 48" height="48" width="48"><g id="description"><path id="Union" stroke="#000" stroke-linecap="round" stroke-linejoin="round" d="M13.135875 37.204416666666674C15.798125 37.30408333333334 19.070833333333333 37.375 23 37.375c7.063875 0 12.003125 -0.22808333333333333 15.095666666666668 -0.44370833333333337 2.44375 -0.169625 4.349875 -1.9942916666666668 4.563583333333333 -4.434208333333333C42.895 29.823333333333334 43.125 25.764791666666667 43.125 20.125s-0.23 -9.699291666666667 -0.46575 -12.372083333333334c-0.21370833333333333 -2.4399166666666665 -2.1198333333333337 -4.264583333333333 -4.563583333333333 -4.434208333333333C35.003125 3.1030833333333336 30.064833333333333 2.875 23 2.875c-7.063875 0 -12.003125 0.22808333333333333 -15.095666666666668 0.44370833333333337 -2.44375 0.169625 -4.349875 1.9942916666666668 -4.563583333333333 4.434208333333333C3.1050000000000004 10.426666666666668 2.875 14.485208333333334 2.875 20.125v21.708166666666667c0 1.6368333333333334 1.9205 2.5204166666666667 3.164416666666667 1.45475l7.0964583333333335 -6.0835Z" stroke-width="2"></path><path id="Union_2" stroke="#000" stroke-linecap="round" stroke-linejoin="round" d="M26.720250000000004 25.829000000000004c2.1255833333333336 -1.1864166666666667 3.22 -2.480166666666667 3.3905833333333333 -4.676666666666667a92.10925 92.10925 0 0 1 -1.9435 -0.025875000000000002c-1.2745833333333334 -0.03258333333333334 -2.2290833333333335 -0.9890000000000001 -2.2626250000000003 -2.2635833333333335a94.83858333333335 94.83858333333335 0 0 1 -0.029708333333333333 -2.50125c0 -1.1116666666666666 0.014375 -1.9827916666666667 0.03354166666666667 -2.6545833333333335 0.034499999999999996 -1.1998333333333333 0.899875 -2.11025 2.099708333333333 -2.1600833333333336C28.67429166666667 11.520125000000002 29.5435 11.5 30.666666666666668 11.5s1.9923750000000002 0.01916666666666667 2.6584166666666667 0.04791666666666667c1.1998333333333333 0.04791666666666667 2.065208333333333 0.9592916666666667 2.099708333333333 2.1600833333333336 0.01916666666666667 0.6660416666666666 0.03354166666666667 1.5275833333333335 0.03354166666666667 2.6258333333333335l0 0.02779166666666667v4.791666666666667h-0.022041666666666668c-0.2836666666666667 4.0595 -3.2822916666666666 6.4783333333333335 -6.679583333333333 7.522916666666666 -0.47820833333333335 0.14758333333333334 -1.00625 0.07666666666666667 -1.3675416666666667 -0.26833333333333337 -0.41975 -0.4015416666666667 -0.779125 -0.8979583333333334 -1.0426666666666669 -1.3110000000000002 -0.28270833333333334 -0.4446666666666667 -0.08625 -1.0110416666666666 0.37375 -1.267875Z" stroke-width="2"></path><path id="Union_3" stroke="#000" stroke-linecap="round" stroke-linejoin="round" d="M11.386916666666666 25.829000000000004c2.1255833333333336 -1.1864166666666667 3.22 -2.480166666666667 3.3905833333333333 -4.676666666666667a92.10925 92.10925 0 0 1 -1.9435 -0.025875000000000002c-1.2745833333333334 -0.03258333333333334 -2.2290833333333335 -0.9890000000000001 -2.2626250000000003 -2.2635833333333335a94.83858333333335 94.83858333333335 0 0 1 -0.029708333333333333 -2.50125c0 -1.1116666666666666 0.014375 -1.9827916666666667 0.03354166666666667 -2.6545833333333335 0.034499999999999996 -1.1998333333333333 0.899875 -2.11025 2.099708333333333 -2.1600833333333336C13.340958333333333 11.520125000000002 14.210166666666666 11.5 15.333333333333334 11.5s1.9923750000000002 0.01916666666666667 2.6584166666666667 0.04791666666666667c1.1998333333333333 0.04791666666666667 2.065208333333333 0.9592916666666667 2.099708333333333 2.1600833333333336 0.01916666666666667 0.6660416666666666 0.03354166666666667 1.5275833333333335 0.03354166666666667 2.6258333333333335l0 0.02779166666666667v4.791666666666667h-0.022041666666666668c-0.2836666666666667 4.0595 -3.2822916666666666 6.4783333333333335 -6.679583333333333 7.522916666666666 -0.47820833333333335 0.14758333333333334 -1.00625 0.07666666666666667 -1.3675416666666667 -0.26833333333333337 -0.41975 -0.4015416666666667 -0.779125 -0.8979583333333334 -1.0426666666666669 -1.3110000000000002 -0.28270833333333334 -0.4446666666666667 -0.08625 -1.0110416666666666 0.37375 -1.267875Z" stroke-width="2"></path></g></svg>