<svg xmlns="http://www.w3.org/2000/svg" fill="none" viewBox="-1 -1 48 48" height="48" width="48"><g id="add-layer-2--layer-add-design-plus-layers-square-box"><path id="Rectangle 1096" stroke="#000" stroke-linecap="round" stroke-linejoin="round" d="M12.004083333333334 6.708333333333334c0.529 -1.9396666666666669 2.1945833333333336 -3.3407500000000003 4.286625 -3.4912083333333332C18.740208333333335 3.040791666666667 22.362708333333334 2.875 27.3125 2.875c4.920083333333334 0 8.52725 0.16387500000000002 10.975791666666666 0.33925 2.450458333333333 0.17441666666666666 4.324 2.047 4.4984166666666665 4.4984166666666665 0.175375 2.448541666666667 0.33925 6.0566666666666675 0.33925 10.974833333333335 0 4.949791666666667 -0.16579166666666667 8.571333333333335 -0.342125 11.020833333333334 -0.15045833333333333 2.092041666666667 -1.5525000000000002 3.7585833333333336 -3.4912083333333332 4.286625" stroke-width="2"></path><path id="Rectangle 1097" stroke="#000" stroke-linecap="round" stroke-linejoin="round" d="M34.16075 16.336708333333334c-0.17441666666666666 -2.450458333333333 -2.047 -4.3220833333333335 -4.4984166666666665 -4.497458333333333C27.213791666666665 11.662916666666668 23.605666666666668 11.5 18.6875 11.5c-4.919125 0 -8.526291666666667 0.16387500000000002 -10.974833333333335 0.33925 -2.451416666666667 0.17441666666666666 -4.324 2.047 -4.4984166666666665 4.4984166666666665C3.037916666666667 18.78525 2.875 22.393375000000002 2.875 27.3125s0.16387500000000002 8.526291666666667 0.33925 10.975791666666666c0.17441666666666666 2.450458333333333 2.047 4.3220833333333335 4.4984166666666665 4.497458333333333 2.448541666666667 0.175375 6.0566666666666675 0.33925 10.974833333333335 0.33925 4.919125 0 8.526291666666667 -0.16387500000000002 10.974833333333335 -0.33925 2.451416666666667 -0.17441666666666666 4.324 -2.047 4.4984166666666665 -4.4984166666666665 0.175375 -2.448541666666667 0.33925 -6.0566666666666675 0.33925 -10.974833333333335 0 -4.919125 -0.16387500000000002 -8.526291666666667 -0.33925 -10.975791666666666Z" stroke-width="2"></path><path id="Union" stroke="#000" stroke-linecap="round" stroke-linejoin="round" d="M20.213166666666666 35.86754166666667c1.0177500000000002 -0.10158333333333333 1.6751666666666667 -0.9477916666666667 1.7202083333333333 -1.9693750000000003 0.03258333333333334 -0.7551666666666668 0.06516666666666668 -1.81125 0.08625 -3.253541666666667a116.00625000000001 116.00625000000001 0 0 0 3.253541666666667 -0.08625c1.0225416666666667 -0.04504166666666667 1.8687500000000001 -0.7024583333333333 1.9693750000000003 -1.7202083333333333 0.04120833333333333 -0.41783333333333333 0.06995833333333333 -0.922875 0.06995833333333333 -1.5256666666666667 0 -0.6018333333333333 -0.02875 -1.1078333333333332 -0.06995833333333333 -1.5256666666666667 -0.10158333333333333 -1.0177500000000002 -0.9468333333333333 -1.6751666666666667 -1.9693750000000003 -1.7202083333333333 -0.7551666666666668 -0.03258333333333334 -1.81125 -0.06516666666666668 -3.253541666666667 -0.08625a114.62145833333334 114.62145833333334 0 0 0 -0.08625 -3.253541666666667c-0.04504166666666667 -1.0225416666666667 -0.7024583333333333 -1.8687500000000001 -1.7202083333333333 -1.9693750000000003A15.455041666666666 15.455041666666666 0 0 0 18.6875 18.6875c-0.6018333333333333 0 -1.1078333333333332 0.02875 -1.5256666666666667 0.06995833333333333 -1.0177500000000002 0.10158333333333333 -1.6751666666666667 0.9468333333333333 -1.7202083333333333 1.9693750000000003 -0.03258333333333334 0.7551666666666668 -0.06516666666666668 1.81125 -0.08625 3.253541666666667a116.00625000000001 116.00625000000001 0 0 0 -3.253541666666667 0.08625c-1.0215833333333335 0.04504166666666667 -1.8687500000000001 0.7024583333333333 -1.9693750000000003 1.7202083333333333 -0.04120833333333333 0.41783333333333333 -0.06995833333333333 0.922875 -0.06995833333333333 1.5256666666666667 0 0.6018333333333333 0.02875 1.1078333333333332 0.06995833333333333 1.5256666666666667 0.10158333333333333 1.0177500000000002 0.9477916666666667 1.6751666666666667 1.9693750000000003 1.7202083333333333 0.7551666666666668 0.03258333333333334 1.81125 0.06516666666666668 3.253541666666667 0.08625 0.021083333333333332 1.4413333333333334 0.05366666666666667 2.4983750000000002 0.08625 3.253541666666667 0.04504166666666667 1.0215833333333335 0.7024583333333333 1.8687500000000001 1.7202083333333333 1.9693750000000003 0.41783333333333333 0.04120833333333333 0.922875 0.06995833333333333 1.5256666666666667 0.06995833333333333 0.6018333333333333 0 1.1078333333333332 -0.02875 1.5256666666666667 -0.06995833333333333Z" stroke-width="2"></path></g></svg>