<svg xmlns="http://www.w3.org/2000/svg" fill="none" viewBox="-1 -1 48 48" height="48" width="48"><g id="table"><path id="Rectangle 1096" stroke="#000" stroke-linecap="round" stroke-linejoin="round" d="M7.912958333333333 42.60845833333333c-2.448541666666667 -0.19933333333333333 -4.3220833333333335 -2.072875 -4.521416666666667 -4.521416666666667C3.1404583333333336 34.993541666666665 2.875 30.057166666666667 2.875 23c0 -7.057166666666667 0.26545833333333335 -11.993541666666667 0.5165416666666667 -15.087041666666668 0.19933333333333333 -2.448541666666667 2.072875 -4.3220833333333335 4.521416666666667 -4.521416666666667C11.006458333333333 3.1404583333333336 15.942833333333333 2.875 23 2.875c7.057166666666667 0 11.993541666666667 0.26545833333333335 15.087041666666668 0.5165416666666667 2.448541666666667 0.19933333333333333 4.3220833333333335 2.072875 4.521416666666667 4.521416666666667C42.859541666666665 11.006458333333333 43.125 15.942833333333333 43.125 23c0 7.057166666666667 -0.26545833333333335 11.993541666666667 -0.5165416666666667 15.087041666666668 -0.19933333333333333 2.448541666666667 -2.072875 4.3220833333333335 -4.521416666666667 4.521416666666667C34.993541666666665 42.859541666666665 30.057166666666667 43.125 23 43.125c-7.057166666666667 0 -11.993541666666667 -0.26545833333333335 -15.087041666666668 -0.5165416666666667Z" stroke-width="2"></path><path id="Intersect" stroke="#000" stroke-linecap="round" stroke-linejoin="round" d="m14.375 42.975500000000004 0 -39.95291666666667" stroke-width="2"></path><path id="Vector 883" stroke="#000" stroke-linecap="round" stroke-linejoin="round" d="m3.1145833333333335 16.291666666666668 39.770833333333336 0" stroke-width="2"></path><path id="Vector 884" stroke="#000" stroke-linecap="round" stroke-linejoin="round" d="m3.1145833333333335 29.708333333333336 39.770833333333336 0" stroke-width="2"></path></g></svg>