<svg xmlns="http://www.w3.org/2000/svg" fill="none" viewBox="-1 -1 48 48" height="48" width="48"><g id="bomb--delete-bomb-remove"><path id="Subtract" stroke="#000" stroke-linecap="round" stroke-linejoin="round" d="m34.968624999999996 10.9135 0.22520833333333332 -0.28175a5.75 5.75 0 0 1 7.4491249999999996 -1.3387916666666668L43.125 9.583333333333334" stroke-width="2"></path><path id="Ellipse 351" stroke="#000" stroke-linecap="round" stroke-linejoin="round" d="M19.166666666666668 10.541666666666668c8.997791666666666 0 16.291666666666668 7.293875 16.291666666666668 16.291666666666668s-7.293875 16.291666666666668 -16.291666666666668 16.291666666666668S2.875 35.83112500000001 2.875 26.833333333333336s7.293875 -16.291666666666668 16.291666666666668 -16.291666666666668Z" stroke-width="2"></path><path id="Subtract_2" stroke="#000" stroke-linecap="round" stroke-linejoin="round" d="m34.04958333333334 20.194 2.0460416666666665 -2.047c1.3934166666666667 -1.3934166666666667 1.9281666666666668 -3.427 0.7762500000000001 -5.026458333333333a17.572958333333332 17.572958333333332 0 0 0 -1.8447916666666668 -2.1485833333333333 17.57391666666667 17.57391666666667 0 0 0 -2.1485833333333333 -1.8447916666666668c-1.5985 -1.1509583333333335 -3.6330416666666667 -0.6171666666666668 -5.026458333333333 0.7762500000000001l-2.047 2.047" stroke-width="2"></path><path id="Ellipse 352" stroke="#000" stroke-linecap="round" stroke-linejoin="round" d="M19.166666666666668 16.291666666666668c-5.821875 0 -10.541666666666668 4.719791666666667 -10.541666666666668 10.541666666666668" stroke-width="2"></path></g></svg>