<svg xmlns="http://www.w3.org/2000/svg" fill="none" viewBox="-1 -1 48 48" height="48" width="48"><g id="drop-down-menu--input-select-menu-drop-down-internet-form"><path id="Rectangle 1095" stroke="#000" stroke-linejoin="round" d="M3.2315 30.960875000000005c0.24150000000000002 2.3699583333333334 2.1667916666666667 4.048958333333333 4.546333333333333 4.170666666666667C10.86175 35.28966666666667 15.839333333333332 35.458333333333336 23 35.458333333333336c7.161625 0 12.138250000000001 -0.16866666666666666 15.222166666666668 -0.32583333333333336 2.379541666666667 -0.12266666666666667 4.304833333333334 -1.8016666666666665 4.545375000000001 -4.170666666666667 0.19262500000000002 -1.8965416666666668 0.3574583333333333 -4.522375 0.3574583333333333 -7.961833333333334 0 -3.4404166666666667 -0.16483333333333333 -6.06625 -0.3574583333333333 -7.960875000000001 -0.23958333333333334 -2.3699583333333334 -2.165833333333333 -4.048958333333333 -4.545375000000001 -4.170666666666667C35.13825 10.710333333333335 30.160666666666668 10.541666666666668 23 10.541666666666668c-7.161625 0 -12.138250000000001 0.16866666666666666 -15.222166666666668 0.32583333333333336 -2.379541666666667 0.12266666666666667 -4.304833333333334 1.8016666666666665 -4.546333333333333 4.171625C3.0398333333333336 16.933750000000003 2.875 19.559583333333336 2.875 23c0 3.4404166666666667 0.16483333333333333 6.06625 0.3565 7.960875000000001Z" stroke-width="2"></path><path id="Vector 1674" stroke="#000" stroke-linecap="round" stroke-linejoin="round" d="M23 10.541666666666668v24.916666666666668" stroke-width="2"></path><path id="Intersect" stroke="#000" stroke-linecap="round" d="M28.75 22.041666666666668s3.130875 3.8333333333333335 4.3125 3.8333333333333335 4.3125 -3.8333333333333335 4.3125 -3.8333333333333335" stroke-width="2"></path></g></svg>