<svg xmlns="http://www.w3.org/2000/svg" fill="none" viewBox="-1 -1 48 48" height="48" width="48"><g id="input-box--cursor-text-formatting-type-format"><path id="Rectangle 1096" stroke="#000" stroke-linecap="round" stroke-linejoin="round" d="M8.625 13.637083333333335c-0.6229166666666667 0.021083333333333332 -1.1816250000000001 0.044083333333333335 -1.6780416666666667 0.06516666666666668 -1.8965416666666668 0.08241666666666667 -3.4768333333333334 1.3464583333333333 -3.722166666666667 3.2286250000000005C3.0350416666666664 18.384666666666668 2.875 20.387583333333335 2.875 23c0 2.613375 0.1600416666666667 4.615333333333333 0.34979166666666667 6.0691250000000005 0.24533333333333335 1.8821666666666668 1.825625 3.1462083333333335 3.722166666666667 3.2295833333333337 0.49641666666666673 0.021083333333333332 1.055125 0.043125 1.6780416666666667 0.06516666666666668m15.333333333333334 -18.94625c7.313041666666667 0.012458333333333333 12.232166666666666 0.161 15.094708333333333 0.284625 1.8965416666666668 0.08241666666666667 3.4768333333333334 1.3464583333333333 3.722166666666667 3.2286250000000005 0.18975000000000003 1.4537916666666666 0.34979166666666667 3.4567083333333337 0.34979166666666667 6.0691250000000005 0 2.613375 -0.1600416666666667 4.615333333333333 -0.34979166666666667 6.0691250000000005 -0.24533333333333335 1.8821666666666668 -1.825625 3.1462083333333335 -3.722166666666667 3.2295833333333337 -2.862541666666667 0.12362500000000001 -7.781666666666666 0.27216666666666667 -15.094708333333333 0.2836666666666667" stroke-width="2"></path><path id="Union" stroke="#000" stroke-linecap="round" stroke-linejoin="round" d="M22.988500000000002 6.606750000000001c-0.03066666666666667 1.0695000000000001 -0.8184166666666667 1.83425 -1.8860000000000001 1.8994166666666668a58.535000000000004 58.535000000000004 0 0 1 -2.089166666666667 0.08625c0.07666666666666667 2.669916666666667 0.15333333333333335 7.183666666666667 0.15333333333333335 14.407583333333335 0 7.224875 -0.077625 11.739583333333334 -0.15333333333333335 14.406625 0.8634583333333334 0.022041666666666668 1.549625 0.05366666666666667 2.089166666666667 0.08625 1.0675833333333336 0.06708333333333334 1.8553333333333333 0.830875 1.8860000000000001 1.9003750000000001a30.43666666666667 30.43666666666667 0 0 1 0 1.7135c-0.03066666666666667 1.0695000000000001 -0.8184166666666667 1.8332916666666668 -1.8860000000000001 1.8994166666666668 -1.0158333333333334 0.06325 -2.5539583333333336 0.11883333333333333 -4.810833333333333 0.11883333333333333 -2.255916666666667 0 -3.795 -0.056541666666666664 -4.810833333333333 -0.11883333333333333 -1.0675833333333336 -0.066125 -1.8553333333333333 -0.8299166666666666 -1.8860000000000001 -1.8994166666666668a30.43666666666667 30.43666666666667 0 0 1 0 -1.7135c0.03066666666666667 -1.0695000000000001 0.8184166666666667 -1.8332916666666668 1.8860000000000001 -1.8994166666666668a58.48612500000001 58.48612500000001 0 0 1 2.089166666666667 -0.08625C13.493333333333334 34.73766666666666 13.416666666666668 30.223916666666668 13.416666666666668 23c0 -7.224875 0.077625 -11.739583333333334 0.15333333333333335 -14.406625a58.535000000000004 58.535000000000004 0 0 1 -2.089166666666667 -0.08625c-1.0675833333333336 -0.06708333333333334 -1.8553333333333333 -0.830875 -1.8860000000000001 -1.9003750000000001a30.435708333333334 30.435708333333334 0 0 1 0 -1.7135c0.03066666666666667 -1.0695000000000001 0.8184166666666667 -1.83425 1.8860000000000001 -1.8994166666666668C12.496666666666666 2.9305833333333333 14.034791666666667 2.875 16.291666666666668 2.875c2.256875 0 3.795 0.05558333333333334 4.810833333333333 0.11883333333333333 1.0675833333333336 0.06516666666666668 1.8553333333333333 0.8299166666666666 1.8860000000000001 1.8994166666666668a30.435708333333334 30.435708333333334 0 0 1 0 1.7135Z" stroke-width="2"></path></g></svg>