<svg xmlns="http://www.w3.org/2000/svg" fill="none" viewBox="-1 -1 48 48" height="48" width="48"><g id="screen-1--screen-device-electronics-monitor-diplay-computer"><path id="Union" stroke="#000" stroke-linecap="round" stroke-linejoin="round" d="m26.832375 33.5455 0.64975 3.2506666666666666a1.9166666666666667 1.9166666666666667 0 0 0 1.8792916666666668 1.5410000000000001h0.8634583333333334a2.875 2.875 0 0 1 2.819416666666667 2.3115l0.03833333333333334 0.18783333333333335a1.9166666666666667 1.9166666666666667 0 0 1 -1.88025 2.292333333333333h-16.40666666666667a1.9166666666666667 1.9166666666666667 0 0 1 -1.88025 -2.292333333333333l0.03833333333333334 -0.18783333333333335a2.875 2.875 0 0 1 2.818458333333333 -2.3115h0.8634583333333334a1.9166666666666667 1.9166666666666667 0 0 0 1.8792916666666668 -1.5410000000000001l0.6516666666666667 -3.2506666666666666" stroke-width="2"></path><path id="Rectangle 1095" stroke="#000" stroke-linejoin="round" d="M3.3005 28.794083333333333c0.22520833333333332 2.4226666666666667 2.146666666666667 4.2022916666666665 4.575083333333334 4.3537083333333335 3.090625 0.19166666666666668 8.0385 0.39579166666666665 15.124416666666667 0.39579166666666665s12.033791666666668 -0.204125 15.124416666666667 -0.39579166666666665c2.4284166666666667 -0.15141666666666667 4.349875 -1.9310416666666668 4.575083333333334 -4.3537083333333335 0.22041666666666668 -2.3728333333333333 0.42550000000000004 -5.852541666666667 0.42550000000000004 -10.583833333333335s-0.20508333333333334 -8.211 -0.42550000000000004 -10.583833333333335c-0.22520833333333332 -2.4226666666666667 -2.146666666666667 -4.2022916666666665 -4.575083333333334 -4.3537083333333335 -3.090625 -0.19166666666666668 -8.0385 -0.39579166666666665 -15.124416666666667 -0.39579166666666665s-12.033791666666668 0.20316666666666666 -15.124416666666667 0.39579166666666665c-2.4284166666666667 0.15141666666666667 -4.349875 1.9310416666666668 -4.575083333333334 4.3537083333333335C3.0800833333333335 9.998291666666667 2.875 13.478 2.875 18.21025s0.20508333333333334 8.211 0.42550000000000004 10.583833333333335Z" stroke-width="2"></path></g></svg>