<svg xmlns="http://www.w3.org/2000/svg" fill="none" viewBox="-1 -1 48 48" height="48" width="48"><g id="stool--chair-business-product-decoration-sit-furniture"><path id="Vector 2511" stroke="#000" stroke-linecap="round" stroke-linejoin="round" d="M13.416666666666668 32.583333333333336h19.166666666666668" stroke-width="2"></path><path id="Rectangle 97" stroke="#000" stroke-linecap="round" stroke-linejoin="round" d="M43.104875 9.471208333333333c-0.14183333333333334 -3.7729583333333334 -3.355125 -6.315416666666667 -7.129041666666667 -6.430416666666667C33.003083333333336 2.94975 28.793125000000003 2.875 23 2.875c-5.793125 0 -10.003083333333334 0.07475 -12.975833333333332 0.16579166666666667 -3.773916666666667 0.115 -6.987208333333334 2.6574583333333335 -7.129041666666667 6.430416666666667a28.520000000000003 28.520000000000003 0 0 0 0 2.1409166666666666c0.14183333333333334 3.7729583333333334 3.355125 6.315416666666667 7.129041666666667 6.430416666666667 2.9708333333333337 0.09104166666666667 7.182708333333334 0.16579166666666667 12.975833333333332 0.16579166666666667 5.793125 0 10.003083333333334 -0.07475 12.975833333333332 -0.16579166666666667 3.773916666666667 -0.115 6.987208333333334 -2.6574583333333335 7.129041666666667 -6.430416666666667a28.479750000000003 28.479750000000003 0 0 0 0 -2.1409166666666666Z" stroke-width="2"></path><path id="Vector 2509" stroke="#000" stroke-linecap="round" stroke-linejoin="round" d="M4.314416666666666 40.894 10.541666666666668 18.208333333333336h7.666666666666667L9.499958333333334 41.58495833333333c-0.25395833333333334 0.681375 -0.7599583333333334 1.2544583333333332 -1.4720000000000002 1.4039583333333334A6.430416666666667 6.430416666666667 0 0 1 6.708333333333334 43.125c-0.37662500000000004 0 -0.7542083333333334 -0.03258333333333334 -1.1049583333333335 -0.08145833333333334 -1.009125 -0.13991666666666666 -1.55825 -1.1672500000000001 -1.2889583333333334 -2.1485833333333333Z" stroke-width="2"></path><path id="Vector 2510" stroke="#000" stroke-linecap="round" stroke-linejoin="round" d="M41.685583333333334 40.894 35.458333333333336 18.208333333333336h-7.666666666666667l8.708375 23.376625c0.2549166666666667 0.681375 0.7599583333333334 1.2544583333333332 1.4720000000000002 1.4039583333333334 0.3670416666666667 0.07666666666666667 0.813625 0.13608333333333333 1.319625 0.13608333333333333 0.3775833333333334 0 0.7542083333333334 -0.03258333333333334 1.1049583333333335 -0.08145833333333334 1.009125 -0.13991666666666666 1.5592083333333333 -1.1672500000000001 1.2889583333333334 -2.1485833333333333Z" stroke-width="2"></path></g></svg>