<svg xmlns="http://www.w3.org/2000/svg" fill="none" viewBox="-1 -1 48 48" height="48" width="48"><g id="moustache--fashion-beauty-moustache-grooming"><path id="Union" stroke="#000" stroke-linecap="round" stroke-linejoin="round" d="M23 13.487583333333333C22.0915 11.67825 20.381833333333336 10.541666666666668 17.25 10.541666666666668c-5.143375 0 -6.408375 4.106458333333333 -7.635041666666667 8.090250000000001 -1.1107083333333334 3.603333333333333 -2.189791666666667 7.107958333333333 -6.0835 7.375333333333334 -0.819375 0.056541666666666664 -1.4231250000000002 0.951625 -0.9362916666666666 1.612875C5.3494166666666665 31.355708333333336 9.005458333333333 33.54166666666667 14.375 33.54166666666667c4.293333333333334 0 7.220083333333333 -4.0949583333333335 8.625 -8.523416666666668C24.40491666666667 29.44575 27.332625 33.54166666666667 31.625 33.54166666666667c5.369541666666667 0 9.025583333333334 -2.185 11.779833333333334 -5.9225 0.48683333333333334 -0.6602916666666666 -0.11691666666666667 -1.555375 -0.9362916666666666 -1.6119166666666667 -3.893708333333333 -0.26833333333333337 -4.972791666666667 -3.771041666666667 -6.082541666666668 -7.375333333333334C35.159333333333336 14.648125 33.893375 10.541666666666668 28.75 10.541666666666668c-3.130875 0 -4.8415 1.1365833333333333 -5.75 2.9459166666666667Z" stroke-width="2"></path></g></svg>