<svg xmlns="http://www.w3.org/2000/svg" fill="none" viewBox="-1 -1 48 48" height="48" width="48"><g id="3d-coordinate-axis"><path id="Vector" stroke="#000" stroke-linecap="round" stroke-linejoin="round" d="M10.442958333333333 25.508916666666668c-0.8720833333333334 -0.9612083333333332 -2.1715833333333334 -0.6976666666666667 -2.8912916666666666 0.39579166666666665 -3.309125 5.027416666666667 -4.336458333333334 9.273791666666666 -4.6498333333333335 11.644708333333334 -0.16866666666666666 1.2726666666666668 0.47150000000000003 2.445666666666667 1.5975416666666669 2.927708333333334 2.09875 0.8989166666666667 6.090208333333334 2.0795833333333333 11.860333333333333 1.5630416666666667 1.2554166666666668 -0.11212500000000002 2.120791666666667 -1.170125 1.7700416666666667 -2.4495 -0.41208333333333336 -1.5045833333333334 -1.3090833333333334 -3.877416666666667 -3.2391666666666667 -7.410791666666666 -1.9281666666666668 -3.533375 -3.423166666666667 -5.541083333333334 -4.447625 -6.670958333333334Z" stroke-width="2"></path><path id="Vector_2" stroke="#000" stroke-linecap="round" stroke-linejoin="round" d="M35.55704166666667 25.508916666666668c0.8720833333333334 -0.9612083333333332 2.1715833333333334 -0.6976666666666667 2.8912916666666666 0.39579166666666665 3.309125 5.027416666666667 4.336458333333334 9.273791666666666 4.6498333333333335 11.644708333333334 0.16866666666666666 1.2726666666666668 -0.47150000000000003 2.445666666666667 -1.5975416666666669 2.927708333333334 -2.09875 0.8989166666666667 -6.090208333333334 2.0795833333333333 -11.860333333333333 1.5630416666666667 -1.2554166666666668 -0.11212500000000002 -2.120791666666667 -1.170125 -1.7700416666666667 -2.4495 0.41208333333333336 -1.5045833333333334 1.3090833333333334 -3.877416666666667 3.2391666666666667 -7.410791666666666 1.9281666666666668 -3.533375 3.423166666666667 -5.541083333333334 4.447625 -6.670958333333334Z" stroke-width="2"></path><path id="Vector_3" stroke="#000" stroke-linecap="round" stroke-linejoin="round" d="M14.681666666666667 15.638083333333336c-1.33975 -0.28270833333333334 -1.8265833333333332 -1.6406666666666667 -1.170125 -2.841458333333333 2.8012083333333333 -5.126125 6.156333333333334 -7.858333333333333 8.03275 -9.088833333333334a2.6220000000000003 2.6220000000000003 0 0 1 2.9114166666666668 0c1.8764166666666666 1.2314583333333333 5.2325 3.9627083333333335 8.03275 9.088833333333334 0.6564583333333334 1.2007916666666667 0.169625 2.55875 -1.1691666666666667 2.841458333333333 -1.578375 0.3325416666666667 -4.173541666666667 0.6535833333333334 -8.318333333333333 0.6535833333333334 -4.146708333333334 0 -6.741875 -0.3210416666666667 -8.320250000000001 -0.6535833333333334Z" stroke-width="2"></path><path id="Subtract" stroke="#000" stroke-linecap="round" stroke-linejoin="round" d="M18.753625 16.158458333333336c0.26833333333333337 2.928666666666667 0.6133333333333334 6.412208333333333 0.9775 9.403166666666666a337.94666666666666 337.94666666666666 0 0 0 -6.926833333333334 3.0944583333333338m14.442083333333334 -12.496666666666666c-0.27791666666666665 3.0312083333333333 -0.6382500000000001 6.658500000000001 -1.0167916666666668 9.717500000000001a367.45183333333335 367.45183333333335 0 0 1 6.791708333333333 3.050375m-3.986666666666667 7.452a368.4734166666667 368.4734166666667 0 0 1 -6.417958333333334 -4.6306666666666665 355.065375 355.065375 0 0 1 -5.833375 4.216666666666667" stroke-width="2"></path></g></svg>