<svg xmlns="http://www.w3.org/2000/svg" fill="none" viewBox="-1 -1 48 48" height="48" width="48"><g id="fingerprint-2--identification-password-touch-id-secure-fingerprint-finger-security"><path id="Vector 1073" stroke="#000" stroke-linecap="round" stroke-linejoin="round" d="m23 19.166666666666668 0 7.666666666666667" stroke-width="2"></path><path id="Rectangle 1095" stroke="#000" stroke-linecap="round" stroke-linejoin="round" d="M14.375 19.885416666666668c0 -0.17058333333333334 0 -0.3411666666666667 0.0019166666666666668 -0.5107916666666668 0.02875 -4.851083333333333 3.761458333333333 -8.832958333333334 8.612541666666667 -8.832958333333334 4.856833333333333 0 8.518625 3.9770833333333337 8.603916666666667 8.831999999999999a204.5782916666667 204.5782916666667 0 0 1 0 7.252666666666666C31.507125000000002 31.482208333333332 27.846291666666666 35.458333333333336 22.990416666666665 35.458333333333336c-4.861625000000001 0 -8.587625000000001 -3.971333333333334 -8.6135 -8.832958333333334L14.375 26.114583333333336" stroke-width="2"></path><path id="Rectangle 1643" stroke="#000" stroke-linecap="round" stroke-linejoin="round" d="M32.10416666666667 5.470166666666667A17.1695 17.1695 0 0 0 23 2.875C13.473208333333334 2.875 5.75 10.598208333333334 5.75 20.125v5.75c0 8.378708333333334 5.9742500000000005 15.363041666666666 13.895833333333334 16.924166666666668" stroke-width="2"></path><path id="Rectangle 1644" stroke="#000" stroke-linecap="round" stroke-linejoin="round" d="M37.012750000000004 10.0625A17.171416666666666 17.171416666666666 0 0 1 40.25 20.125v5.75c0 8.378708333333334 -5.9742500000000005 15.363041666666666 -13.895833333333334 16.924166666666668" stroke-width="2"></path></g></svg>