<svg xmlns="http://www.w3.org/2000/svg" fill="none" viewBox="-1 -1 48 48" height="48" width="48"><g id="virtual-reality--gaming-virtual-gear-controller-reality-games-headset-technology-vr-eyewear"><path id="Subtract" stroke="#000" stroke-linecap="round" stroke-linejoin="round" d="M38.870000000000005 38.41575c2.0585 -0.299 3.52475 -1.9252916666666666 3.74325 -3.9952916666666662 0.24916666666666668 -2.371875 0.51175 -5.937833333333334 0.51175 -10.462125s-0.26162500000000005 -8.090250000000001 -0.51175 -10.463083333333334c-0.21850000000000003 -2.0700000000000003 -1.68475 -3.695333333333333 -3.7442083333333334 -3.9943333333333335C35.99979166666667 9.085 31.0155 8.625 23 8.625s-12.999791666666667 0.46 -15.87 0.8759166666666668c-2.0585 0.299 -3.52475 1.9252916666666666 -3.74325 3.9943333333333335C3.1375833333333336 15.868083333333335 2.875 19.435000000000002 2.875 23.958333333333336c0 4.524291666666667 0.26162500000000005 8.090250000000001 0.51175 10.462125 0.21850000000000003 2.0700000000000003 1.68475 3.696291666666667 3.7442083333333334 3.9952916666666662 1.564 0.227125 3.7557083333333336 0.46670833333333334 6.723666666666667 0.6382500000000001a3.7729583333333334 3.7729583333333334 0 0 0 2.5712083333333333 -0.8280000000000001l3.6071666666666666 -2.8865000000000003a3.8333333333333335 3.8333333333333335 0 0 1 2.3958333333333335 -0.8395h1.1432916666666668a3.8333333333333335 3.8333333333333335 0 0 1 2.3948750000000003 0.8395l3.6071666666666666 2.8865000000000003c0.727375 0.5817083333333334 1.6416250000000001 0.8816666666666667 2.5712083333333333 0.8280000000000001 2.9679583333333333 -0.1725 5.159666666666667 -0.41208333333333336 6.723666666666667 -0.6382500000000001Z" stroke-width="2"></path><path id="Ellipse 506" stroke="#000" stroke-linecap="round" stroke-linejoin="round" d="M8.625 23a5.75 5.75 0 1 0 11.5 0 5.75 5.75 0 1 0 -11.5 0" stroke-width="2"></path><path id="Ellipse 507" stroke="#000" stroke-linecap="round" stroke-linejoin="round" d="M25.875 23a5.75 5.75 0 1 0 11.5 0 5.75 5.75 0 1 0 -11.5 0" stroke-width="2"></path></g></svg>