<svg xmlns="http://www.w3.org/2000/svg" fill="none" viewBox="-1 -1 48 48" height="48" width="48"><g id="class-lesson--class-lesson-education-teacher"><path id="Rectangle 1097" stroke="#000" stroke-linecap="round" stroke-linejoin="round" d="M23.958333333333336 28.749041666666667c7.6570833333333335 -0.01629166666666667 12.814833333333334 -0.2232916666666667 15.824000000000002 -0.39675 1.9895 -0.115 3.595666666666667 -1.5247083333333333 3.8256666666666668 -3.503666666666667C43.850458333333336 22.770000000000003 44.083333333333336 19.645833333333336 44.083333333333336 15.333333333333334s-0.232875 -7.4366666666666665 -0.47533333333333333 -9.51625c-0.23 -1.9780000000000002 -1.8361666666666667 -3.3877083333333338 -3.8247083333333336 -3.502708333333333C36.64954166666667 2.13325 31.187041666666666 1.9166666666666667 23 1.9166666666666667c-0.6564583333333334 0 -1.2956666666666667 0.0009583333333333334 -1.9166666666666667 0.0038333333333333336" stroke-width="2"></path><path id="Vector 1001" stroke="#000" stroke-linecap="round" stroke-linejoin="round" d="M11.979166666666668 32.583333333333336v10.541666666666668" stroke-width="2"></path><path id="Ellipse 136" stroke="#000" stroke-linecap="round" stroke-linejoin="round" d="M5.75 9.104166666666668a6.229166666666667 6.229166666666667 0 1 0 12.458333333333334 0 6.229166666666667 6.229166666666667 0 0 0 -12.458333333333334 0Z" stroke-width="2"></path><path id="Union" stroke="#000" stroke-linecap="round" stroke-linejoin="round" d="M27.349875 15.657250000000001c0.5989583333333334 0.034499999999999996 1.1423333333333334 0.36320833333333336 1.27075 0.94875 0.13799999999999998 0.6286666666666667 0.21658333333333335 1.6052083333333333 -0.03354166666666667 2.9737083333333336 -0.13704166666666667 0.7484583333333333 -0.7752916666666667 1.2860833333333335 -1.5295 1.3895833333333334L19.166666666666668 22.041666666666668l-1.725 18.515c-0.115 1.2305000000000001 -1.00625 2.245375 -2.2329166666666667 2.3862500000000004a27.85875 27.85875 0 0 1 -3.165375 0.18208333333333335c-1.210375 0 -2.3028750000000002 -0.0805 -3.1797500000000003 -0.17729166666666668 -1.2822500000000001 -0.14279166666666668 -2.2041666666666666 -1.221875 -2.274125 -2.5108333333333337l-0.59225 -10.845458333333333a64.44408333333332 64.44408333333332 0 0 1 -2.4705833333333334 -0.175375 1.7441666666666669 1.7441666666666669 0 0 1 -1.5850833333333334 -1.8102916666666669c0.11212500000000002 -3.612916666666667 0.5682916666666666 -6.915333333333334 0.9477916666666667 -9.118541666666667 0.28558333333333336 -1.6560000000000001 1.6885833333333333 -2.8529583333333335 3.367583333333333 -2.9344166666666665 6.668083333333334 -0.3239166666666667 14.221666666666668 -0.28941666666666666 21.092916666666667 0.10541666666666667Z" stroke-width="2"></path></g></svg>