<svg xmlns="http://www.w3.org/2000/svg" fill="none" viewBox="-1 -1 48 48" height="48" width="48"><g id="world--nature-tree-mountain-hills-earth-globe-planet-environment"><path id="Rectangle 1099" stroke="#000" stroke-linecap="round" stroke-linejoin="round" d="M4.791666666666667 23c1.5601666666666667 -3.383875 5.023583333333334 -9.342791666666667 8.325041666666666 -13.130125000000001 1.1969583333333336 -1.3723333333333334 3.236291666666667 -1.3723333333333334 4.43325 0C20.851416666666665 13.65625 24.31579166666667 19.616125 25.875 23" stroke-width="2"></path><path id="Subtract" stroke="#000" stroke-linecap="round" stroke-linejoin="round" d="M18.259125 10.712250000000001c1.9444583333333334 -2.661291666666667 4.0135 -5.1730833333333335 5.9991666666666665 -7.047583333333334a3.0283333333333338 3.0283333333333338 0 0 1 4.19175 0c0.25875000000000004 0.244375 0.5175000000000001 0.49833333333333335 0.779125 0.7637916666666668" stroke-width="2"></path><path id="Ellipse 20" stroke="#000" stroke-linecap="round" stroke-linejoin="round" d="M40.25 23c1.5879583333333334 0 2.8960833333333333 1.2937500000000002 2.6718333333333333 2.866375C41.53129166666667 35.62316666666666 33.141083333333334 43.125 23 43.125 12.857958333333334 43.125 4.468708333333334 35.62316666666666 3.07625 25.866375 2.8529583333333335 24.294708333333332 4.162041666666667 23 5.75 23l34.5 0Z" stroke-width="2"></path><path id="Intersect" stroke="#000" stroke-linecap="round" stroke-linejoin="round" d="M14.876208333333334 23c0.9535416666666667 1.6483333333333334 1.2745833333333334 3.4308333333333336 0.457125 5.270833333333334 -0.8347083333333334 1.8783333333333334 -2.39775 2.5750416666666665 -3.9751666666666665 3.2775 -1.7010416666666666 0.7590000000000001 -3.4193333333333333 1.5247083333333333 -4.257874999999999 3.7902083333333336" stroke-width="2"></path><path id="Intersect_2" stroke="#000" stroke-linecap="round" stroke-linejoin="round" d="M23.41016666666667 23c-0.14183333333333334 4.6805 2.963166666666667 5.503708333333334 5.635 6.2128749999999995 1.5917916666666667 0.4216666666666667 3.029291666666667 0.8030833333333334 3.538166666666667 1.9329583333333333 0.37375 1.1231666666666666 -0.45041666666666663 2.099708333333333 -1.3905416666666668 3.2152083333333334 -1.4672083333333332 1.7374583333333333 -3.2171250000000002 3.8103333333333333 -1.141375 7.294833333333334" stroke-width="2"></path><path id="Union" stroke="#000" stroke-linecap="round" stroke-linejoin="round" d="M36.770291666666665 2.998625c-1.9665000000000001 2.1457083333333333 -4.198458333333334 6.286666666666666 -5.145291666666667 8.529166666666667 0 0 0.48300000000000004 0.20891666666666667 2.27125 0.342125 -0.9564166666666667 1.7920833333333335 -1.7844166666666668 3.6148333333333333 -2.27125 4.884625000000001 0 0 1.0455416666666666 0.4954583333333334 5.75 0.4954583333333334s5.75 -0.4954583333333334 5.75 -0.4954583333333334c-0.48683333333333334 -1.2697916666666667 -1.3148333333333335 -3.0925416666666665 -2.27125 -4.884625000000001 1.7882500000000001 -0.13320833333333335 2.27125 -0.3411666666666667 2.27125 -0.3411666666666667 -0.9468333333333333 -2.2434583333333338 -3.178791666666667 -6.384416666666667 -5.145291666666667 -8.530125a0.8145833333333333 0.8145833333333333 0 0 0 -1.2094166666666668 0Z" stroke-width="2"></path><path id="Vector 1617" stroke="#000" stroke-linecap="round" d="m37.375 17.25 0 5.75" stroke-width="2"></path></g></svg>