<svg xmlns="http://www.w3.org/2000/svg" fill="none" viewBox="-1 -1 48 48" height="48" width="48"><g id="battery-charging--phone-mobile-charge-device-electricity-power-battery-charging"><path id="Union" stroke="#000" stroke-linecap="round" stroke-linejoin="round" d="M34.355291666666666 37.965333333333334c2.4418333333333333 -0.15908333333333335 4.350833333333333 -1.9780000000000002 4.554 -4.4159999999999995 0.07858333333333334 -0.9382083333333333 0.1542916666666667 -2.047 0.2175416666666667 -3.335958333333333l1.7039166666666667 -0.16674999999999998c1.3550833333333334 -0.13320833333333335 2.5271250000000003 -0.9870833333333334 2.805041666666667 -2.319166666666667 0.23575000000000002 -1.127 0.4475416666666667 -2.7005833333333333 0.4475416666666667 -4.712125 0 -2.017291666666667 -0.21370833333333333 -3.59375 -0.44850000000000007 -4.720750000000001 -0.27791666666666665 -1.32825 -1.4442083333333333 -2.1802083333333333 -2.7945 -2.31725l-1.7125416666666666 -0.17441666666666666a97.90812500000001 97.90812500000001 0 0 0 -0.21850000000000003 -3.3512916666666666c-0.204125 -2.4389583333333333 -2.112166666666667 -4.257874999999999 -4.554 -4.4169583333333335C31.537791666666667 7.851625 27.18791666666667 7.666666666666667 21.083333333333336 7.666666666666667s-10.455416666666666 0.18495833333333334 -13.271958333333334 0.36800000000000005c-2.4418333333333333 0.15908333333333335 -4.350833333333333 1.9780000000000002 -4.554 4.4159999999999995C3.059 14.823500000000001 2.875 18.29266666666667 2.875 23c0 4.707333333333334 0.18400000000000002 8.1765 0.382375 10.549333333333333 0.204125 2.438 2.112166666666667 4.256916666666667 4.554 4.4159999999999995C10.628874999999999 38.148375 14.978750000000002 38.333333333333336 21.083333333333336 38.333333333333336s10.455416666666666 -0.18495833333333334 13.271958333333334 -0.36800000000000005Z" stroke-width="2"></path><path id="Union_2" stroke="#000" stroke-linecap="round" stroke-linejoin="round" d="m24.05416666666667 20.726833333333335 -0.7714583333333334 -3.8505833333333332c-0.28175 -1.40875 -1.955 -2.01825 -3.07625 -1.12125l-7.995375 6.395916666666667c-1.1279583333333334 0.9027499999999999 -0.36895833333333333 2.718791666666667 1.066625 2.549166666666667l5.125166666666667 -0.6018333333333333 0.7695416666666668 3.851541666666667c0.28175 1.40875 1.955 2.017291666666667 3.077208333333333 1.12125l7.994416666666668 -6.396875c1.1289166666666666 -0.9027499999999999 0.36991666666666667 -2.718791666666667 -1.0656666666666668 -2.549166666666667l-5.125166666666667 0.6018333333333333Z" stroke-width="2"></path></g></svg>