<svg viewBox="-1 -1 48 48" fill="none" xmlns="http://www.w3.org/2000/svg" height="48" width="48"><g id="cable-split--cables-cable-split-device-electronics-cords-cord-splitter-connection"><path id="Ellipse 21" d="M23 15.333333333333334a5.75 5.75 0 1 0 0 11.5 5.75 5.75 0 0 0 0 -11.5Z" stroke="black" stroke-linecap="round" stroke-linejoin="round" stroke-width="2"></path><path id="Rectangle 1095" d="M18.22175 35.285833333333336c0.043125 1.1854583333333335 0.9928333333333335 2.01825 2.178291666666667 2.0537083333333332A86.95916666666666 86.95916666666666 0 0 0 23 37.375c1.0637500000000002 0 1.9243333333333335 -0.015333333333333334 2.5999583333333334 -0.035458333333333335 1.1854583333333335 -0.035458333333333335 2.135166666666667 -0.8682500000000001 2.178291666666667 -2.0537083333333332a21.730208333333334 21.730208333333334 0 0 0 0 -1.5716666666666665c-0.043125 -1.1854583333333335 -0.9928333333333335 -2.01825 -2.178291666666667 -2.0537083333333332A86.95916666666666 86.95916666666666 0 0 0 23 31.625c-1.0637500000000002 0 -1.9243333333333335 0.015333333333333334 -2.5999583333333334 0.035458333333333335 -1.1854583333333335 0.035458333333333335 -2.135166666666667 0.8682500000000001 -2.178291666666667 2.0537083333333332a21.730208333333334 21.730208333333334 0 0 0 0 1.5716666666666665Z" stroke="black" stroke-linecap="round" stroke-linejoin="round" stroke-width="2"></path><path id="Rectangle 1096" d="M18.22175 41.035833333333336c0.043125 1.1854583333333335 0.9928333333333335 2.01825 2.178291666666667 2.0537083333333332A86.95916666666666 86.95916666666666 0 0 0 23 43.125c1.0637500000000002 0 1.9243333333333335 -0.015333333333333334 2.5999583333333334 -0.035458333333333335 1.1854583333333335 -0.035458333333333335 2.135166666666667 -0.8682500000000001 2.178291666666667 -2.0537083333333332a21.730208333333334 21.730208333333334 0 0 0 0 -1.5716666666666665c-0.043125 -1.1854583333333335 -0.9928333333333335 -2.01825 -2.178291666666667 -2.0537083333333332A86.95916666666666 86.95916666666666 0 0 0 23 37.375c-1.0637500000000002 0 -1.9243333333333335 0.015333333333333334 -2.5999583333333334 0.035458333333333335 -1.1854583333333335 0.035458333333333335 -2.135166666666667 0.8682500000000001 -2.178291666666667 2.0537083333333332a21.730208333333334 21.730208333333334 0 0 0 0 1.5716666666666665Z" stroke="black" stroke-linecap="round" stroke-linejoin="round" stroke-width="2"></path><path id="Rectangle 1095_2" d="M40.850875 9.906291666666666c0.82225 -0.905625 0.853875 -2.2175833333333337 0.04025 -3.130875a44.05458333333333 44.05458333333333 0 0 0 -1.7441666666666669 -1.8390416666666667 45.217999999999996 45.217999999999996 0 0 0 -1.8380833333333333 -1.7441666666666669c-0.9132916666666666 -0.813625 -2.2262083333333336 -0.782 -3.130875 0.04120833333333333a72.78541666666668 72.78541666666668 0 0 0 -2.4849583333333336 2.3805 72.77870833333333 72.77870833333333 0 0 0 -2.3805 2.4849583333333336c-0.8232083333333333 0.9046666666666666 -0.8548333333333333 2.2175833333333337 -0.04120833333333333 3.130875 0.44370833333333337 0.49833333333333335 1.0167916666666668 1.1116666666666666 1.7441666666666669 1.8380833333333333 0.7283333333333334 0.7283333333333334 1.3416666666666666 1.3014166666666669 1.8390416666666667 1.7441666666666669 0.9132916666666666 0.8145833333333333 2.22525 0.782 3.130875 -0.04025 0.6315416666666667 -0.575 1.4585833333333333 -1.3550833333333334 2.484 -2.3814583333333332a72.89083333333333 72.89083333333333 0 0 0 2.3814583333333332 -2.484Z" stroke="black" stroke-linecap="round" stroke-linejoin="round" stroke-width="2"></path><path id="Rectangle 1095_3" d="M15.774166666666668 7.10125c-0.8682500000000001 -0.807875 -2.1275000000000004 -0.7254583333333333 -2.9919166666666666 0.08720833333333333a87.09045833333333 87.09045833333333 0 0 0 -1.863 1.8131666666666666A87.184375 87.184375 0 0 0 9.104166666666668 10.865583333333333c-0.8126666666666666 0.8634583333333334 -0.8950833333333335 2.123666666666667 -0.08720833333333333 2.9919166666666666a21.737875 21.737875 0 0 0 1.1116666666666666 1.1116666666666666c0.8682500000000001 0.807875 2.1275000000000004 0.7254583333333333 2.9909583333333334 -0.08720833333333333a86.954375 86.954375 0 0 0 1.8639583333333334 -1.814125 87.21025 87.21025 0 0 0 1.814125 -1.863c0.8126666666666666 -0.8634583333333334 0.8950833333333335 -2.123666666666667 0.08720833333333333 -2.992875a21.698583333333335 21.698583333333335 0 0 0 -1.1116666666666666 -1.1116666666666666Z" stroke="black" stroke-linecap="round" stroke-linejoin="round" stroke-width="2"></path><path id="Rectangle 1096_2" d="M11.707958333333334 3.0350416666666664c-0.8682500000000001 -0.8069166666666666 -2.1284583333333336 -0.7254583333333333 -2.9919166666666666 0.08816666666666667A87.22941666666668 87.22941666666668 0 0 0 6.852083333333334 4.935416666666667a87.253375 87.253375 0 0 0 -1.8131666666666666 1.8639583333333334c-0.813625 0.8625 -0.8950833333333335 2.123666666666667 -0.08816666666666667 2.9919166666666666a21.75225 21.75225 0 0 0 1.1116666666666666 1.1116666666666666c0.8682500000000001 0.807875 2.1284583333333336 0.7254583333333333 2.9919166666666666 -0.08816666666666667a87.34441666666666 87.34441666666666 0 0 0 1.8639583333333334 -1.8131666666666666 87.26583333333333 87.26583333333333 0 0 0 1.8131666666666666 -1.8639583333333334c0.813625 -0.8625 0.8960416666666667 -2.123666666666667 0.08816666666666667 -2.9919166666666666a21.697625 21.697625 0 0 0 -1.1116666666666666 -1.1116666666666666Z" stroke="black" stroke-linecap="round" stroke-linejoin="round" stroke-width="2"></path></g></svg>