<svg xmlns="http://www.w3.org/2000/svg" fill="none" viewBox="-1 -1 48 48" height="48" width="48"><g id="food-truck-event-fair"><path id="Subtract" stroke="#000" stroke-linecap="round" stroke-linejoin="round" d="M26.819916666666668 11.627458333333333c2.7887500000000003 0.044083333333333335 5.472083333333334 0.10350000000000001 7.8334166666666665 0.18208333333333335 0.8471666666666667 0.02779166666666667 1.68475 0.23095833333333332 2.392 0.6976666666666667 3.3426666666666667 2.2041666666666666 5.5640833333333335 5.861166666666667 6.513791666666666 7.659958333333334 0.36608333333333337 0.6947916666666667 0.5251666666666668 1.4758333333333333 0.5184583333333334 2.2616666666666667a126.31791666666668 126.31791666666668 0 0 1 -0.5175000000000001 10.605875000000001c-0.20508333333333334 2.1974583333333335 -1.9789583333333334 3.8524999999999996 -4.183125 3.964625 -0.345 0.018208333333333333 -0.7139583333333334 0.035458333333333335 -1.1039999999999999 0.05366666666666667" stroke-width="2"></path><path id="Subtract_2" stroke="#000" stroke-linecap="round" stroke-linejoin="round" d="M27.815625 37.34529166666667a390.20458333333335 390.20458333333335 0 0 1 -9.631250000000001 0" stroke-width="2"></path><path id="Subtract_3" stroke="#000" stroke-linecap="round" stroke-linejoin="round" d="m7.7270416666666675 37.053000000000004 -1.4039583333333334 -0.06899999999999999c-2.061375 -0.10733333333333334 -3.7537916666666664 -1.5764583333333335 -3.9905 -3.627291666666667C2.116 31.479333333333333 1.9166666666666667 28.849666666666668 1.9166666666666667 25.52616666666667V23.958333333333336" stroke-width="2"></path><path id="Rectangle 1097" stroke="#000" stroke-linecap="round" stroke-linejoin="round" d="M38.369749999999996 21.587416666666666c-0.8912500000000001 -1.6560000000000001 -2.415 -3.9387500000000006 -4.506083333333334 -5.124208333333334A1.3895833333333334 1.3895833333333334 0 0 0 33.1775 16.291666666666668 1.5525000000000002 1.5525000000000002 0 0 0 31.625 17.84416666666667l0 4.194625c0 0.888375 0.6114166666666667 1.6560000000000001 1.4930833333333335 1.7652500000000002 1.0158333333333334 0.12458333333333334 2.45525 0.22520833333333332 4.026916666666667 0.089125 1.15 -0.09870833333333333 1.7719583333333333 -1.2889583333333334 1.22475 -2.3047916666666666Z" stroke-width="2"></path><path id="Rectangle 1095" stroke="#000" stroke-linecap="round" stroke-linejoin="round" d="m26.833333333333336 23.958333333333336 -12.458333333333334 0 -12.458333333333334 0 0 -10.541666666666668c0 -2.861583333333334 0.09870833333333333 -5.057125 0.21466666666666667 -6.655625000000001 0.14854166666666668 -2.034541666666667 1.733625 -3.5515833333333333 3.7700833333333335 -3.6704166666666667C7.825750000000001 2.977541666666667 10.613541666666666 2.875 14.375 2.875c3.761458333333333 0 6.54925 0.10254166666666667 8.473583333333334 0.215625 2.0364583333333335 0.11883333333333333 3.621541666666667 1.6358750000000002 3.7700833333333335 3.6704166666666667C26.734625 8.359541666666667 26.833333333333336 10.555083333333332 26.833333333333336 13.416666666666668l0 10.541666666666668Z" stroke-width="2"></path><path id="Ellipse 42" stroke="#000" stroke-linecap="round" stroke-linejoin="round" d="M27.791666666666668 37.85416666666667a5.270833333333334 5.270833333333334 0 1 0 10.541666666666668 0 5.270833333333334 5.270833333333334 0 0 0 -10.541666666666668 0Z" stroke-width="2"></path><path id="Ellipse 43" stroke="#000" stroke-linecap="round" stroke-linejoin="round" d="M7.666666666666667 37.85416666666667a5.270833333333334 5.270833333333334 0 1 0 10.541666666666668 0 5.270833333333334 5.270833333333334 0 0 0 -10.541666666666668 0Z" stroke-width="2"></path><path id="Vector" stroke="#000" stroke-linecap="round" stroke-linejoin="round" d="M1.9166666666666667 10.541666666666668c0 2.117916666666667 1.8591666666666666 3.8333333333333335 4.152458333333334 3.8333333333333335 2.2942500000000003 0 4.153416666666667 -1.7154166666666668 4.153416666666667 -3.8333333333333335 0 2.117916666666667 1.8591666666666666 3.8333333333333335 4.152458333333334 3.8333333333333335 2.2932916666666667 0 4.152458333333334 -1.7154166666666668 4.152458333333334 -3.8333333333333335 0 2.117916666666667 1.8591666666666666 3.8333333333333335 4.153416666666667 3.8333333333333335C24.974166666666665 14.375 26.833333333333336 12.659583333333334 26.833333333333336 10.541666666666668" stroke-width="2"></path><path id="Vector_2" stroke="#000" stroke-linecap="round" stroke-linejoin="round" d="M10.222541666666666 10.541666666666668V3.354166666666667" stroke-width="2"></path><path id="Vector_3" stroke="#000" stroke-linecap="round" stroke-linejoin="round" d="M18.52841666666667 10.541666666666668V3.354166666666667" stroke-width="2"></path></g></svg>