<svg xmlns="http://www.w3.org/2000/svg" fill="none" viewBox="-1 -1 48 48" height="48" width="48"><g id="arrow-right-circle-1--arrow-keyboard-circle-button-right"><path id="Ellipse 19" stroke="#000" stroke-linecap="round" stroke-linejoin="round" d="M43.125 23a20.125 20.125 0 1 1 -40.25 0 20.125 20.125 0 1 1 40.25 0" stroke-width="2"></path><path id="Vector 134 (Stroke)" fill-rule="evenodd" stroke="#000" stroke-linecap="round" stroke-linejoin="round" d="M23.139916666666668 22.66075a0.4791666666666667 0.4791666666666667 0 0 1 0 0.6775416666666667l-6.227250000000001 6.228208333333333c-0.9295833333333333 0.9295833333333333 -1.1202916666666667 2.382416666666667 -0.27791666666666665 3.3905833333333333 0.6717916666666667 0.8040416666666667 1.4729583333333334 1.6032916666666668 2.292333333333333 2.1802083333333333 0.9660000000000001 0.6794583333333333 2.2060833333333334 0.3612916666666667 3.0839166666666666 -0.428375 3.1375833333333336 -2.818458333333333 7.2852500000000004 -7.022666666666667 9.371541666666667 -9.784583333333334 0.8816666666666667 -1.1682083333333335 0.8807083333333334 -2.681416666666667 0 -3.848666666666667 -2.086291666666667 -2.762875 -6.233958333333334 -6.966125000000001 -9.371541666666667 -9.784583333333334 -0.8778333333333334 -0.7896666666666666 -2.117916666666667 -1.1078333333333332 -3.0839166666666666 -0.42933333333333334 -0.819375 0.5769166666666666 -1.6195833333333334 1.3771250000000002 -2.292333333333333 2.1802083333333333 -0.842375 1.0081666666666667 -0.6516666666666667 2.4629166666666666 0.27791666666666665 3.391541666666667l6.227250000000001 6.227250000000001Z" clip-rule="evenodd" stroke-width="2"></path></g></svg>