<svg xmlns="http://www.w3.org/2000/svg" fill="none" viewBox="-1 -1 48 48" height="48" width="48"><g id="warp-squeeze"><path id="Vector" stroke="#000" stroke-linecap="round" stroke-linejoin="round" d="M14.375 23c0 -6.095958333333333 -5.74425 -9.798 -9.11375 -11.445375 -1.1595833333333334 -0.566375 -1.5572916666666667 -2.0268750000000004 -0.577875 -2.8673333333333333C7.327416666666667 6.417958333333334 13.049625 2.875 23 2.875s15.672583333333334 3.5429583333333334 18.317583333333335 5.812291666666667c0.9794166666666667 0.8404583333333334 0.58075 2.3 -0.5788333333333333 2.8673333333333333C37.37020833333333 13.202 31.625 16.904041666666668 31.625 23s5.745208333333333 9.798 9.11375 11.445375c1.1595833333333334 0.5673333333333334 1.55825 2.0268750000000004 0.5788333333333333 2.8673333333333333C38.672583333333336 39.58204166666667 32.95133333333334 43.125 23 43.125c-9.950375 0 -15.672583333333334 -3.5429583333333334 -18.316625000000002 -5.812291666666667 -0.9794166666666667 -0.8404583333333334 -0.58075 -2.3 0.577875 -2.8673333333333333C8.63075 32.797999999999995 14.375 29.095958333333336 14.375 23Z" stroke-width="2"></path></g></svg>