<svg xmlns="http://www.w3.org/2000/svg" fill="none" viewBox="-1 -1 48 48" height="48" width="48"><g id="voice-typing-word-convert"><path id="Rectangle 74" stroke="#000" stroke-linecap="round" stroke-linejoin="round" d="M14.870458333333334 2.112166666666667c-4.424625 0 -7.508541666666667 3.027375 -7.628333333333334 7.450083333333334 -0.023958333333333335 0.9152083333333333 -0.03833333333333334 1.9415833333333332 -0.03833333333333334 3.0915833333333333 0 1.15 0.014375 2.176375 0.03833333333333334 3.0915833333333333 0.11979166666666667 4.4227083333333335 3.2037083333333336 7.450083333333334 7.628333333333334 7.450083333333334s7.508541666666667 -3.027375 7.628333333333334 -7.450083333333334c0.023958333333333335 -0.9152083333333333 0.03833333333333334 -1.9415833333333332 0.03833333333333334 -3.0915833333333333 0 -1.15 -0.014375 -2.176375 -0.03833333333333334 -3.0915833333333333 -0.11979166666666667 -4.4227083333333335 -3.2037083333333336 -7.450083333333334 -7.628333333333334 -7.450083333333334Z" stroke-width="2"></path><path id="Union" stroke="#000" stroke-linecap="round" stroke-linejoin="round" d="M21.099625 27.585625a13.42625 13.42625 0 0 1 -3.497916666666667 1.1231666666666666 26.747083333333336 26.747083333333336 0 0 1 -0.24533333333333335 2.636375c-0.15908333333333335 1.0944166666666666 -1.0254166666666669 1.9013333333333333 -2.1322916666666667 1.9185833333333333a23.942041666666668 23.942041666666668 0 0 1 -0.7225833333333334 0c-1.1059166666666667 -0.017249999999999998 -1.9712916666666667 -0.8241666666666667 -2.1275000000000004 -1.919541666666667a28.38775 28.38775 0 0 1 -0.24725000000000003 -2.6373333333333333c-5.370500000000001 -0.9650416666666666 -9.228750000000002 -4.787833333333334 -10.346166666666667 -10.25225 -0.3239166666666667 -1.5831666666666666 1.0052916666666667 -2.9257916666666666 2.6210416666666667 -2.9257916666666666h0.46575c1.2995 0 2.322041666666667 1.0560833333333335 2.6775833333333336 2.3067083333333334 0.9324583333333334 3.2698333333333336 3.68 5.359958333333333 7.325500000000001 5.359958333333333 3.6455 0 6.394 -2.090125 7.325500000000001 -5.359958333333333 0.3565 -1.250625 1.3780833333333333 -2.3067083333333334 2.678541666666667 -2.3067083333333334h0.46575c0.5874583333333333 0 1.1365833333333333 0.17729166666666668 1.5822083333333334 0.4791666666666667" stroke-width="2"></path><path id="A" stroke="#000" stroke-linecap="round" stroke-linejoin="round" d="M36.846000000000004 38.57770833333334h-7.813291666666667a110.96254166666668 110.96254166666668 0 0 0 -1.066625 3.7499583333333333c-0.2577916666666667 0.9640833333333334 -0.9842083333333332 1.7662083333333334 -1.9722499999999998 1.9070833333333335 -1.2314583333333333 0.175375 -2.5367083333333333 0.09870833333333333 -3.538166666666667 -0.5539166666666666 -0.5845833333333333 -0.42550000000000004 -0.8768750000000001 -1.0235 -0.8768750000000001 -1.7940000000000003 0 0 3.8640000000000003 -13.05825 6.51475 -20.048333333333336 0.3670416666666667 -0.9679166666666668 1.0503333333333336 -1.81125 2.044125 -2.09875 0.9439583333333333 -0.273125 1.9665000000000001 -0.3775833333333334 2.8817083333333335 -0.3775833333333334 1.6732500000000001 0 4.298125000000001 0.284625 4.942125 2.153375 2.366125 6.599083333333334 4.30675 13.385041666666668 6.205208333333333 20.138416666666668 0.25875000000000004 0.9180833333333334 0.044083333333333335 1.9569166666666666 -0.8414166666666667 2.313416666666667 -1.1375416666666667 0.45808333333333334 -2.629666666666667 0.5366666666666667 -3.7097083333333334 0.15812500000000002 -0.5797916666666667 -0.20220833333333332 -0.9410833333333334 -0.7398333333333333 -1.1739583333333334 -1.308125 -0.47245833333333337 -1.15575 -1.2822500000000001 -3.1816666666666666 -1.595625 -4.239666666666667Zm-3.8668750000000003 -13.634208333333333c-0.9152083333333333 2.942083333333333 -2.024 5.817083333333334 -2.9095 8.770666666666667h5.700166666666667c-0.7935 -2.9392083333333336 -1.7154166666666668 -5.842958333333334 -2.551083333333333 -8.770666666666667h-0.23958333333333334Z" stroke-width="2"></path><path id="Ellipse 1477" stroke="#000" stroke-linecap="round" stroke-linejoin="round" d="M35.544583333333335 8.113249999999999a6.708333333333334 6.708333333333334 0 0 0 -8.215791666666668 -4.74375" stroke-width="2"></path><path id="Rectangle 128" stroke="#000" stroke-linecap="round" stroke-linejoin="round" d="M31.599125 9.32075c-0.5654166666666667 0.209875 -0.6737083333333334 0.8644166666666667 -0.23575000000000002 1.279375 2.01825 1.9128333333333334 3.74325 2.967 4.80125 3.5046250000000003a1.3991666666666667 1.3991666666666667 0 0 0 1.8390416666666667 -0.4925833333333334c0.6468750000000001 -0.99475 1.6147916666666668 -2.770541666666667 2.4054166666666665 -5.436625 0.1725 -0.5769166666666666 -0.24916666666666668 -1.0905833333333332 -0.8433333333333334 -0.9890000000000001 -0.7858333333333333 0.13320833333333335 -2.0489166666666665 0.39866666666666667 -4.021166666666667 0.9267083333333334 -1.9712916666666667 0.5280416666666667 -3.198916666666667 0.9295833333333333 -3.9454583333333333 1.2075Z" stroke-width="2"></path></g></svg>