<svg xmlns="http://www.w3.org/2000/svg" fill="none" viewBox="-1 -1 48 48" height="48" width="48"><g id="pathfinder-outline"><path id="Rectangle 60" stroke="#000" stroke-linecap="round" stroke-linejoin="round" d="M27.791666666666668 14.376916666666668c-4.378625 0.01629166666666667 -7.3485000000000005 0.14566666666666667 -9.310208333333334 0.2875 -2.117916666666667 0.15333333333333335 -3.6646666666666667 1.7000833333333334 -3.817041666666667 3.817041666666667 -0.14183333333333334 1.9617083333333336 -0.27120833333333333 4.931583333333333 -0.2875 9.310208333333334M35.458333333333336 14.480416666666667c1.4470833333333335 0.050791666666666666 2.6191250000000004 0.11595833333333333 3.560208333333333 0.18400000000000002 2.117916666666667 0.15333333333333335 3.6646666666666667 1.6981666666666668 3.817041666666667 3.8160833333333337C42.98795833333333 20.582125 43.125 23.841416666666667 43.125 28.75c0 4.9085833333333335 -0.13704166666666667 8.166916666666667 -0.28941666666666666 10.268541666666668 -0.15333333333333335 2.117916666666667 -1.699125 3.6646666666666667 -3.817041666666667 3.817041666666667 -2.1016250000000003 0.15333333333333335 -5.359958333333333 0.28941666666666666 -10.268541666666668 0.28941666666666666s-8.166916666666667 -0.13704166666666667 -10.268541666666668 -0.28941666666666666c-2.117916666666667 -0.15333333333333335 -3.6646666666666667 -1.699125 -3.817041666666667 -3.818 -0.06804166666666667 -0.940125 -0.13320833333333335 -2.112166666666667 -0.18400000000000002 -3.55925" stroke-width="2"></path><path id="Rectangle 61" stroke="#000" stroke-linecap="round" stroke-linejoin="round" d="M18.21025 31.625c4.378625 -0.01629166666666667 7.3485000000000005 -0.14566666666666667 9.310208333333334 -0.2875 2.117916666666667 -0.15333333333333335 3.6646666666666667 -1.7000833333333334 3.817041666666667 -3.817041666666667 0.14183333333333334 -1.9617083333333336 0.27120833333333333 -4.931583333333333 0.2875 -9.310208333333334m-21.08141666666667 13.311250000000001c-1.4470833333333335 -0.050791666666666666 -2.6200833333333335 -0.11595833333333333 -3.560208333333333 -0.18400000000000002 -2.117916666666667 -0.15333333333333335 -3.6646666666666667 -1.6981666666666668 -3.817041666666667 -3.8160833333333337 -0.152375 -2.1016250000000003 -0.28941666666666666 -5.360916666666667 -0.28941666666666666 -10.269499999999999 0 -4.9085833333333335 0.13704166666666667 -8.166916666666667 0.28941666666666666 -10.268541666666668 0.15333333333333335 -2.117916666666667 1.699125 -3.6646666666666667 3.817041666666667 -3.817041666666667 2.1016250000000003 -0.152375 5.359958333333333 -0.28941666666666666 10.268541666666668 -0.28941666666666666s8.166916666666667 0.13704166666666667 10.268541666666668 0.28941666666666666c2.117916666666667 0.15333333333333335 3.6646666666666667 1.699125 3.817041666666667 3.818 0.06804166666666667 0.940125 0.13320833333333335 2.112166666666667 0.18400000000000002 3.55925" stroke-width="2"></path></g></svg>