<svg xmlns="http://www.w3.org/2000/svg" fill="none" viewBox="-1 -1 48 48" height="48" width="48"><g id="dog-1--nature-head-dog-pet-animals-canine"><path id="Ellipse 18" stroke="#000" stroke-linecap="round" stroke-linejoin="round" d="M23 4.791666666666667c8.654708333333334 0 16.291666666666668 11.748208333333334 16.291666666666668 26.445208333333333C39.29166666666667 33.838750000000005 39.29166666666667 41.208333333333336 23 41.208333333333336S6.708333333333334 33.838750000000005 6.708333333333334 31.236875C6.708333333333334 16.540833333333335 14.345291666666666 4.791666666666667 23 4.791666666666667Z" stroke-width="2"></path><path id="Subtract" stroke="#000" stroke-linecap="round" stroke-linejoin="round" d="M16.914583333333333 6.780208333333333C8.260833333333332 7.571791666666667 2.875 14.700833333333334 2.875 20.125c0 2.0824583333333333 0.7436666666666667 5.170208333333333 4.06525 6.714083333333334" stroke-width="2"></path><path id="Subtract_2" stroke="#000" stroke-linecap="round" stroke-linejoin="round" d="M39.06070833333334 26.839083333333335C42.38133333333333 25.295208333333335 43.125 22.20745833333333 43.125 20.125c0 -5.424166666666667 -5.385833333333333 -12.554166666666667 -14.039583333333335 -13.344791666666667" stroke-width="2"></path><path id="Vector 1627" stroke="#000" stroke-linecap="round" stroke-linejoin="round" d="m23 31.625 0 2.875" stroke-width="2"></path><path id="Vector 1628" stroke="#000" stroke-linecap="round" stroke-linejoin="round" d="M28.75 19.166666666666668v0.9583333333333334" stroke-width="2"></path><path id="Vector 1629" stroke="#000" stroke-linecap="round" stroke-linejoin="round" d="M17.25 19.166666666666668v0.9583333333333334" stroke-width="2"></path><path id="Vector 1490" stroke="#000" stroke-linecap="round" stroke-linejoin="round" d="M15.333333333333334 34.5s0.9583333333333334 1.9166666666666667 3.8333333333333335 1.9166666666666667 3.8333333333333335 -1.9166666666666667 3.8333333333333335 -1.9166666666666667" stroke-width="2"></path><path id="Vector 1491" stroke="#000" stroke-linecap="round" stroke-linejoin="round" d="M23 34.5s0.9583333333333334 1.9166666666666667 3.8333333333333335 1.9166666666666667 3.8333333333333335 -1.9166666666666667 3.8333333333333335 -1.9166666666666667" stroke-width="2"></path><path id="Ellipse 23" stroke="#000" stroke-linecap="round" stroke-linejoin="round" d="M23 31.625c-2.0364583333333335 0 -3.8333333333333335 -1.5457916666666667 -3.8333333333333335 -3.4797083333333334C19.166666666666668 27.80316666666667 19.166666666666668 26.833333333333336 23 26.833333333333336s3.8333333333333335 0.9698333333333334 3.8333333333333335 1.3119583333333333C26.833333333333336 30.079208333333334 25.036458333333336 31.625 23 31.625Z" stroke-width="2"></path></g></svg>