<svg xmlns="http://www.w3.org/2000/svg" fill="none" viewBox="-1 -1 48 48" height="48" width="48"><g id="padlock-square-2--combination-combo-key-keyhole-lock-secure-security-square-unlock-unlocked"><path id="Subtract" stroke="#000" stroke-linecap="round" stroke-linejoin="round" d="m17.529833333333336 20.165250000000004 0.39675 -6.7562500000000005a5.082041666666667 5.082041666666667 0 0 1 10.146833333333333 0 1.0656666666666668 1.0656666666666668 0 0 0 1.0512916666666667 1.0024166666666667c1.5716666666666665 0.01916666666666667 3.0177916666666667 0.046000000000000006 4.340291666666666 0.07666666666666667a1.8745 1.8745 0 0 0 1.9137916666666668 -2.025916666666667A11.5 11.5 0 0 0 23.918083333333332 1.9166666666666667h-1.8361666666666667a11.5 11.5 0 0 0 -11.460708333333333 10.5455l-0.66125 7.927333333333334" stroke-width="2"></path><path id="Rectangle 1095" stroke="#000" stroke-linecap="round" stroke-linejoin="round" d="M5.083958333333333 38.658208333333334c0.22233333333333336 2.376666666666667 2.143791666666667 4.066208333333334 4.529083333333333 4.185041666666667C12.425749999999999 42.98125 16.811083333333336 43.125 23 43.125c6.1889166666666675 0 10.574250000000001 -0.14183333333333334 13.387916666666667 -0.28175 2.384333333333333 -0.11883333333333333 4.305791666666667 -1.8074166666666667 4.528125 -4.185041666666667 0.161 -1.722125 0.29229166666666667 -4.0441666666666665 0.29229166666666667 -7.033208333333334 0 -2.9880833333333334 -0.1312916666666667 -5.311083333333333 -0.29229166666666667 -7.03225 -0.22233333333333336 -2.3785833333333337 -2.143791666666667 -4.067166666666667 -4.529083333333333 -4.186000000000001C33.57425 20.266833333333334 29.188916666666668 20.125 23 20.125c-6.1889166666666675 0 -10.574250000000001 0.14183333333333334 -13.387916666666667 0.28175 -2.384333333333333 0.11883333333333333 -4.305791666666667 1.8074166666666667 -4.528125 4.185041666666667C4.922958333333333 26.314875 4.791666666666667 28.635958333333335 4.791666666666667 31.625c0 2.9880833333333334 0.1312916666666667 5.311083333333333 0.29229166666666667 7.033208333333334Z" stroke-width="2"></path><path id="Union" stroke="#000" stroke-linecap="round" stroke-linejoin="round" d="M25.378583333333335 32.714625000000005a3.8333333333333335 3.8333333333333335 0 1 0 -4.757166666666667 0l-0.6104583333333333 2.61625c-0.21083333333333334 0.905625 0.27504166666666663 1.8045416666666667 1.1950416666666668 1.9300833333333332 0.4849166666666667 0.066125 1.0829166666666665 0.11404166666666667 1.7940000000000003 0.11404166666666667 0.7110833333333334 0 1.3090833333333334 -0.04791666666666667 1.7940000000000003 -0.115 0.92 -0.12458333333333334 1.4068333333333334 -1.0235 1.1950416666666668 -1.9281666666666668l-0.6104583333333333 -2.617208333333333Z" stroke-width="2"></path></g></svg>