<svg xmlns="http://www.w3.org/2000/svg" fill="none" viewBox="-1 -1 48 48" height="48" width="48"><g id="airplane-enabled--server-plane-airplane-enabled-on-wireless-mode-internet-network"><path id="Union" stroke="#000" stroke-linejoin="round" d="M21.262541666666667 3.8563333333333336c-1.62725 1.187375 -3.8956250000000003 3.6225 -4.491708333333333 8.189916666666667 0.161 1.9981250000000002 0.33541666666666664 3.969416666666667 0.5127083333333334 5.865L4.3412500000000005 25.191708333333334A2.875 2.875 0 0 0 2.875 27.697750000000003v1.7374583333333333a1.4375 1.4375 0 0 0 1.7863333333333336 1.3943750000000001l13.608333333333333 -3.402083333333333c0.5079166666666667 4.521416666666667 0.8970000000000001 7.484583333333333 0.8970000000000001 7.484583333333333l-4.5674166666666665 4.37A3.8333333333333335 3.8333333333333335 0 0 0 13.416666666666668 42.05166666666667v0.6382500000000001a0.9583333333333334 0.9583333333333334 0 0 0 1.3004583333333333 0.8950833333333335L23 40.414833333333334l8.281916666666666 3.170166666666667A0.9583333333333334 0.9583333333333334 0 0 0 32.583333333333336 42.68991666666667v-0.6382500000000001a3.8333333333333335 3.8333333333333335 0 0 0 -1.1825833333333333 -2.7695833333333337L26.833333333333336 34.912083333333335s0.3890833333333334 -2.963166666666667 0.8970000000000001 -7.484583333333333l13.608333333333333 3.402083333333333A1.4375 1.4375 0 0 0 43.125 29.435208333333335v-1.7374583333333333a2.875 2.875 0 0 0 -1.46625 -2.506041666666667L28.71741666666667 17.911250000000003c0.17825 -1.8965416666666668 0.35170833333333335 -3.8668750000000003 0.5127083333333334 -5.865 -0.5970416666666667 -4.5674166666666665 -2.865416666666667 -7.0025416666666676 -4.491708333333333 -8.189916666666667a2.920041666666667 2.920041666666667 0 0 0 -3.4749166666666667 0Z" stroke-width="2"></path></g></svg>