<svg xmlns="http://www.w3.org/2000/svg" fill="none" viewBox="-1 -1 48 48" height="48" width="48"><g id="bookmark--bookmarks-tags-favorite"><path id="Rectangle 56" stroke="#000" stroke-linecap="round" stroke-linejoin="round" d="M8.144875 8.444833333333333c0.1265 -1.7125416666666666 1.1432916666666668 -3.1625 2.8136666666666668 -3.556375C13.117666666666668 4.378625 16.86475 3.8333333333333335 23 3.8333333333333335s9.882333333333333 0.54625 12.041458333333333 1.0541666666666667c1.6703750000000002 0.3948333333333333 2.6871666666666667 1.8447916666666668 2.8136666666666668 3.5573333333333337 0.21083333333333334 2.8472083333333336 0.47820833333333335 8.102708333333334 0.47820833333333335 16.471833333333333 0 6.656583333333334 -0.09775 11.007416666666668 -0.22137500000000002 13.848875000000001 -0.1312916666666667 3.015875 -2.4657916666666666 4.034583333333334 -4.989083333333334 2.376666666666667l-6.968041666666667 -4.57125a5.75 5.75 0 0 0 -6.309666666666667 0l-6.967083333333333 4.57125c-2.52425 1.6579166666666667 -4.858750000000001 0.6392083333333334 -4.9900416666666665 -2.376666666666667C7.763458333333334 35.92408333333333 7.666666666666667 31.573249999999998 7.666666666666667 24.916666666666668c0 -8.369125 0.2664166666666667 -13.624625000000002 0.47820833333333335 -16.471833333333333Z" stroke-width="2"></path></g></svg>