<svg xmlns="http://www.w3.org/2000/svg" fill="none" viewBox="-1 -1 48 48" height="48" width="48"><g id="text-box-1"><path id="Union" stroke="#000" stroke-linecap="round" stroke-linejoin="round" d="M32.864125 12.9375c0.9420416666666667 0 1.74225 0.6852083333333333 1.8285 1.6234166666666667 0.13895833333333332 1.5017083333333334 0.2510833333333334 3.8026666666666666 -0.06708333333333334 5.839125a0.888375 0.888375 0 0 1 -0.8174583333333334 0.7446250000000001c-0.8644166666666667 0.066125 -2.3651666666666666 0.1495 -3.460541666666667 0.03833333333333334 -0.3890833333333334 -0.03833333333333334 -0.6785 -0.3526666666666667 -0.7379166666666667 -0.7388750000000001L29.334583333333335 18.6875H25.875V28.75h2.184041666666667c0.41208333333333336 0 0.7762500000000001 0.2635416666666667 0.8672916666666667 0.6660416666666666 0.1955 0.8720833333333334 0.4331666666666667 2.4677083333333334 0.026833333333333334 3.9885833333333336 -0.100625 0.3785416666666667 -0.46 0.6162083333333334 -0.8529166666666668 0.6162083333333334H17.89975c-0.39291666666666664 0 -0.7513333333333334 -0.23766666666666666 -0.8529166666666668 -0.6162083333333334 -0.4063333333333333 -1.520875 -0.16866666666666666 -3.1165 0.026833333333333334 -3.9885833333333336 0.09008333333333333 -0.4025 0.4552083333333333 -0.6660416666666666 0.8672916666666667 -0.6660416666666666H20.125V18.6875h-3.354166666666667l-0.273125 1.756625c-0.059416666666666666 0.3862083333333334 -0.34883333333333333 0.6995833333333333 -0.7379166666666667 0.7388750000000001 -1.1183750000000001 0.11212500000000002 -2.676625 0.026833333333333334 -3.5650000000000004 -0.04025a0.8893333333333334 0.8893333333333334 0 0 1 -0.8212916666666666 -0.7446250000000001c-0.31720833333333337 -2.0364583333333335 -0.20508333333333334 -4.336458333333334 -0.06708333333333334 -5.837208333333334 0.08720833333333333 -0.9391666666666667 0.8864583333333335 -1.6234166666666667 1.8285 -1.6234166666666667h19.729208333333332Z" stroke-width="2"></path><path id="Ellipse 18" stroke="#000" stroke-linecap="round" stroke-linejoin="round" d="M6.708333333333334 35.458333333333336a3.8333333333333335 3.8333333333333335 0 1 1 0 7.666666666666667 3.8333333333333335 3.8333333333333335 0 0 1 0 -7.666666666666667Z" stroke-width="2"></path><path id="Ellipse 19" stroke="#000" stroke-linecap="round" stroke-linejoin="round" d="M39.29166666666667 35.458333333333336a3.8333333333333335 3.8333333333333335 0 1 1 0 7.666666666666667 3.8333333333333335 3.8333333333333335 0 0 1 0 -7.666666666666667Z" stroke-width="2"></path><path id="Ellipse 20" stroke="#000" stroke-linecap="round" stroke-linejoin="round" d="M39.29166666666667 2.875a3.8333333333333335 3.8333333333333335 0 1 1 0 7.666666666666667 3.8333333333333335 3.8333333333333335 0 0 1 0 -7.666666666666667Z" stroke-width="2"></path><path id="Ellipse 22" stroke="#000" stroke-linecap="round" stroke-linejoin="round" d="M6.708333333333334 2.875a3.8333333333333335 3.8333333333333335 0 1 1 0 7.666666666666667 3.8333333333333335 3.8333333333333335 0 0 1 0 -7.666666666666667Z" stroke-width="2"></path><path id="Subtract" stroke="#000" stroke-linecap="round" stroke-linejoin="round" d="M6.158250000000001 10.503333333333334C5.954125 13.172291666666666 5.75 17.270125 5.75 23c0 5.728916666666667 0.204125 9.82675 0.40825 12.496666666666666m4.344125000000001 4.345083333333333C13.173250000000001 40.045875 17.271083333333333 40.25 23 40.25c5.728916666666667 0 9.82675 -0.204125 12.496666666666666 -0.40825m4.345083333333333 -4.344125000000001C40.045875 32.82675 40.25 28.72891666666667 40.25 23c0 -5.728916666666667 -0.204125 -9.82675 -0.40825 -12.496666666666666M35.49666666666667 6.157291666666667C32.82675 5.954125 28.72891666666667 5.75 23 5.75c-5.728916666666667 0 -9.82675 0.204125 -12.496666666666666 0.40825" stroke-width="2"></path></g></svg>